0, 0, Header, 0, 1, 480
1, 0, Start_track
1, 0, Title_t, "Sonate Opus 10 No. 1 3. Satz"
1, 0, Copyright_t, "Copyright © 2008 by Bernd Krueger"
1, 0, Text_t, "Ludwig van Beethoven"
1, 0, Text_t, "Allegro molto e con brio"
1, 0, Text_t, "Erstellt: 22.12.2008\012"
1, 0, Text_t, "Update: 9.5.2012\012"
1, 0, Text_t, "Dauer: 3:37 Minuten\012"
1, 0, Time_signature, 4, 2, 24, 8
1, 0, Key_signature, -3, "major"
1, 0, Tempo, 294840
1, 0, Program_c, 0, 0
1, 0, Program_c, 0, 0
1, 0, Program_c, 0, 0
1, 720, Note_on_c, 0, 60, 40
1, 720, Note_on_c, 0, 48, 36
1, 960, Note_on_c, 0, 48, 0
1, 960, Note_on_c, 0, 60, 0
1, 960, Note_on_c, 0, 59, 45
1, 960, Note_on_c, 0, 47, 38
1, 1038, Control_c, 0, 64, 127
1, 1200, Note_on_c, 0, 47, 0
1, 1200, Note_on_c, 0, 59, 0
1, 1200, Note_on_c, 0, 60, 40
1, 1200, Note_on_c, 0, 48, 35
1, 1212, Control_c, 0, 64, 0
1, 1440, Tempo, 286396
1, 1440, Note_on_c, 0, 48, 0
1, 1440, Note_on_c, 0, 60, 0
1, 1440, Note_on_c, 0, 65, 45
1, 1440, Note_on_c, 0, 53, 38
1, 1560, Note_on_c, 0, 53, 0
1, 1560, Note_on_c, 0, 65, 0
1, 1680, Tempo, 349854
1, 1680, Note_on_c, 0, 65, 38
1, 1680, Note_on_c, 0, 53, 34
1, 1800, Note_on_c, 0, 53, 0
1, 1800, Note_on_c, 0, 65, 0
1, 1920, Tempo, 291262
1, 1920, Note_on_c, 0, 63, 45
1, 1920, Note_on_c, 0, 51, 38
1, 2400, Note_on_c, 0, 51, 0
1, 2400, Note_on_c, 0, 63, 0
1, 2640, Tempo, 294840
1, 2640, Note_on_c, 0, 60, 40
1, 2640, Note_on_c, 0, 48, 36
1, 2880, Note_on_c, 0, 48, 0
1, 2880, Note_on_c, 0, 60, 0
1, 2880, Note_on_c, 0, 59, 45
1, 2880, Note_on_c, 0, 47, 38
1, 2958, Control_c, 0, 64, 127
1, 3120, Note_on_c, 0, 47, 0
1, 3120, Note_on_c, 0, 59, 0
1, 3120, Note_on_c, 0, 60, 40
1, 3120, Note_on_c, 0, 48, 35
1, 3137, Control_c, 0, 64, 0
1, 3360, Tempo, 287081
1, 3360, Note_on_c, 0, 48, 0
1, 3360, Note_on_c, 0, 60, 0
1, 3360, Note_on_c, 0, 68, 45
1, 3360, Note_on_c, 0, 56, 38
1, 3480, Note_on_c, 0, 56, 0
1, 3480, Note_on_c, 0, 68, 0
1, 3600, Tempo, 350877
1, 3600, Note_on_c, 0, 68, 38
1, 3600, Note_on_c, 0, 56, 34
1, 3720, Note_on_c, 0, 56, 0
1, 3720, Note_on_c, 0, 68, 0
1, 3840, Tempo, 291262
1, 3840, Note_on_c, 0, 67, 45
1, 3840, Note_on_c, 0, 55, 38
1, 4320, Note_on_c, 0, 55, 0
1, 4320, Note_on_c, 0, 67, 0
1, 4560, Tempo, 294840
1, 4560, Note_on_c, 0, 60, 40
1, 4800, Note_on_c, 0, 60, 0
1, 4800, Note_on_c, 0, 59, 45
1, 4885, Control_c, 0, 64, 127
1, 5040, Note_on_c, 0, 59, 0
1, 5040, Note_on_c, 0, 60, 40
1, 5061, Control_c, 0, 64, 0
1, 5280, Tempo, 292683
1, 5280, Note_on_c, 0, 60, 0
1, 5280, Note_on_c, 0, 72, 45
1, 5400, Note_on_c, 0, 72, 0
1, 5520, Tempo, 345821
1, 5520, Note_on_c, 0, 72, 38
1, 5640, Note_on_c, 0, 72, 0
1, 5760, Tempo, 293399
1, 5760, Note_on_c, 0, 72, 45
1, 5760, Note_on_c, 0, 56, 38
1, 5760, Note_on_c, 0, 60, 38
1, 5760, Note_on_c, 0, 66, 38
1, 5763, Control_c, 0, 64, 127
1, 6000, Note_on_c, 0, 72, 0
1, 6000, Note_on_c, 0, 74, 45
1, 6060, Note_on_c, 0, 74, 0
1, 6060, Note_on_c, 0, 72, 45
1, 6120, Note_on_c, 0, 72, 0
1, 6120, Note_on_c, 0, 71, 40
1, 6180, Note_on_c, 0, 71, 0
1, 6180, Note_on_c, 0, 72, 45
1, 6240, Note_on_c, 0, 72, 0
1, 6240, Note_on_c, 0, 75, 50
1, 6251, Control_c, 0, 64, 0
1, 6306, Control_c, 0, 64, 127
1, 6480, Note_on_c, 0, 75, 0
1, 6480, Note_on_c, 0, 74, 45
1, 6600, Tempo, 320856
1, 6720, Tempo, 292683
1, 6720, Note_on_c, 0, 74, 0
1, 6720, Note_on_c, 0, 77, 56
1, 6743, Control_c, 0, 64, 0
1, 6806, Control_c, 0, 64, 127
1, 6960, Note_on_c, 0, 77, 0
1, 6960, Note_on_c, 0, 75, 53
1, 7200, Note_on_c, 0, 75, 0
1, 7200, Note_on_c, 0, 74, 50
1, 7211, Control_c, 0, 64, 0
1, 7240, Control_c, 0, 64, 127
1, 7440, Tempo, 338983
1, 7440, Note_on_c, 0, 74, 0
1, 7440, Note_on_c, 0, 72, 47
1, 7680, Tempo, 291262
1, 7680, Note_on_c, 0, 72, 0
1, 7680, Note_on_c, 0, 56, 0
1, 7680, Note_on_c, 0, 60, 0
1, 7680, Note_on_c, 0, 66, 0
1, 7680, Note_on_c, 0, 71, 51
1, 7680, Note_on_c, 0, 67, 38
1, 7680, Note_on_c, 0, 62, 32
1, 7680, Note_on_c, 0, 55, 32
1, 7680, Control_c, 0, 64, 0
1, 8160, Note_on_c, 0, 55, 0
1, 8160, Note_on_c, 0, 71, 0
1, 8160, Note_on_c, 0, 67, 0
1, 8160, Note_on_c, 0, 62, 0
1, 8400, Note_on_c, 0, 55, 40
1, 8400, Note_on_c, 0, 43, 36
1, 8640, Tempo, 292683
1, 8640, Note_on_c, 0, 43, 0
1, 8640, Note_on_c, 0, 55, 0
1, 8640, Note_on_c, 0, 54, 45
1, 8640, Note_on_c, 0, 42, 38
1, 8753, Control_c, 0, 64, 127
1, 8880, Note_on_c, 0, 42, 0
1, 8880, Note_on_c, 0, 54, 0
1, 8880, Note_on_c, 0, 55, 40
1, 8880, Note_on_c, 0, 43, 35
1, 8895, Control_c, 0, 64, 0
1, 9120, Tempo, 292683
1, 9120, Note_on_c, 0, 43, 0
1, 9120, Note_on_c, 0, 55, 0
1, 9120, Note_on_c, 0, 60, 45
1, 9120, Note_on_c, 0, 48, 38
1, 9240, Note_on_c, 0, 48, 0
1, 9240, Note_on_c, 0, 60, 0
1, 9360, Tempo, 338983
1, 9360, Note_on_c, 0, 60, 38
1, 9360, Note_on_c, 0, 48, 34
1, 9480, Note_on_c, 0, 48, 0
1, 9480, Note_on_c, 0, 60, 0
1, 9600, Tempo, 291971
1, 9600, Note_on_c, 0, 59, 45
1, 9600, Note_on_c, 0, 47, 38
1, 10080, Note_on_c, 0, 47, 0
1, 10080, Note_on_c, 0, 59, 0
1, 10320, Note_on_c, 0, 55, 40
1, 10320, Note_on_c, 0, 43, 36
1, 10560, Tempo, 294840
1, 10560, Note_on_c, 0, 43, 0
1, 10560, Note_on_c, 0, 55, 0
1, 10560, Note_on_c, 0, 54, 45
1, 10560, Note_on_c, 0, 42, 38
1, 10610, Control_c, 0, 64, 127
1, 10800, Note_on_c, 0, 42, 0
1, 10800, Note_on_c, 0, 54, 0
1, 10800, Note_on_c, 0, 55, 40
1, 10800, Note_on_c, 0, 43, 35
1, 10816, Control_c, 0, 64, 0
1, 11040, Tempo, 292683
1, 11040, Note_on_c, 0, 43, 0
1, 11040, Note_on_c, 0, 55, 0
1, 11040, Note_on_c, 0, 63, 45
1, 11040, Note_on_c, 0, 51, 38
1, 11160, Note_on_c, 0, 51, 0
1, 11160, Note_on_c, 0, 63, 0
1, 11280, Tempo, 342857
1, 11280, Note_on_c, 0, 63, 38
1, 11280, Note_on_c, 0, 51, 34
1, 11400, Note_on_c, 0, 51, 0
1, 11400, Note_on_c, 0, 63, 0
1, 11520, Tempo, 296296
1, 11520, Note_on_c, 0, 62, 45
1, 11520, Note_on_c, 0, 50, 38
1, 12000, Note_on_c, 0, 50, 0
1, 12000, Note_on_c, 0, 62, 0
1, 12240, Note_on_c, 0, 55, 45
1, 12240, Note_on_c, 0, 43, 37
1, 12360, Note_on_c, 0, 43, 0
1, 12360, Note_on_c, 0, 55, 0
1, 12480, Tempo, 292683
1, 12480, Note_on_c, 0, 59, 51
1, 12480, Note_on_c, 0, 47, 43
1, 12600, Note_on_c, 0, 47, 0
1, 12600, Note_on_c, 0, 59, 0
1, 12720, Note_on_c, 0, 62, 45
1, 12720, Note_on_c, 0, 50, 37
1, 12840, Note_on_c, 0, 50, 0
1, 12840, Note_on_c, 0, 62, 0
1, 12960, Note_on_c, 0, 65, 45
1, 12960, Note_on_c, 0, 53, 37
1, 13080, Note_on_c, 0, 53, 0
1, 13080, Note_on_c, 0, 65, 0
1, 13200, Note_on_c, 0, 68, 45
1, 13200, Note_on_c, 0, 56, 37
1, 13320, Note_on_c, 0, 56, 0
1, 13320, Note_on_c, 0, 68, 0
1, 13440, Note_on_c, 0, 71, 55
1, 13440, Note_on_c, 0, 59, 46
1, 13560, Note_on_c, 0, 59, 0
1, 13560, Note_on_c, 0, 71, 0
1, 13680, Note_on_c, 0, 74, 53
1, 13680, Note_on_c, 0, 62, 45
1, 13800, Note_on_c, 0, 62, 0
1, 13800, Note_on_c, 0, 74, 0
1, 13920, Note_on_c, 0, 77, 56
1, 13920, Note_on_c, 0, 65, 47
1, 14040, Note_on_c, 0, 65, 0
1, 14040, Note_on_c, 0, 77, 0
1, 14160, Tempo, 304569
1, 14160, Note_on_c, 0, 80, 60
1, 14160, Note_on_c, 0, 68, 50
1, 14280, Note_on_c, 0, 68, 0
1, 14280, Note_on_c, 0, 80, 0
1, 14400, Tempo, 294840
1, 14400, Note_on_c, 0, 79, 63
1, 14400, Note_on_c, 0, 67, 53
1, 14520, Note_on_c, 0, 67, 0
1, 14520, Note_on_c, 0, 79, 0
1, 14640, Note_on_c, 0, 77, 59
1, 14640, Note_on_c, 0, 65, 50
1, 14760, Note_on_c, 0, 65, 0
1, 14760, Note_on_c, 0, 77, 0
1, 14880, Note_on_c, 0, 75, 55
1, 14880, Note_on_c, 0, 63, 46
1, 15000, Note_on_c, 0, 63, 0
1, 15000, Note_on_c, 0, 75, 0
1, 15120, Tempo, 338028
1, 15120, Note_on_c, 0, 74, 54
1, 15120, Note_on_c, 0, 62, 45
1, 15240, Note_on_c, 0, 62, 0
1, 15240, Note_on_c, 0, 74, 0
1, 15360, Tempo, 293399
1, 15360, Note_on_c, 0, 72, 62
1, 15360, Note_on_c, 0, 60, 42
1, 15360, Control_c, 0, 64, 127
1, 15480, Note_on_c, 0, 60, 0
1, 15600, Note_on_c, 0, 63, 32
1, 15600, Note_on_c, 0, 67, 38
1, 15720, Note_on_c, 0, 67, 0
1, 15720, Note_on_c, 0, 63, 0
1, 15840, Note_on_c, 0, 72, 0
1, 15840, Note_on_c, 0, 63, 32
1, 15840, Note_on_c, 0, 67, 38
1, 15960, Note_on_c, 0, 67, 0
1, 15960, Note_on_c, 0, 63, 0
1, 16080, Note_on_c, 0, 72, 50
1, 16080, Note_on_c, 0, 63, 32
1, 16080, Note_on_c, 0, 67, 38
1, 16200, Note_on_c, 0, 67, 0
1, 16200, Note_on_c, 0, 63, 0
1, 16320, Tempo, 295567
1, 16320, Note_on_c, 0, 72, 0
1, 16320, Note_on_c, 0, 71, 57
1, 16320, Note_on_c, 0, 60, 42
1, 16327, Control_c, 0, 64, 0
1, 16395, Control_c, 0, 64, 127
1, 16440, Note_on_c, 0, 60, 0
1, 16560, Note_on_c, 0, 71, 0
1, 16560, Note_on_c, 0, 72, 53
1, 16560, Note_on_c, 0, 64, 31
1, 16560, Note_on_c, 0, 67, 31
1, 16560, Note_on_c, 0, 70, 37
1, 16573, Control_c, 0, 64, 0
1, 16680, Note_on_c, 0, 70, 0
1, 16680, Note_on_c, 0, 67, 0
1, 16680, Note_on_c, 0, 64, 0
1, 16800, Tempo, 292683
1, 16800, Note_on_c, 0, 72, 0
1, 16800, Note_on_c, 0, 84, 60
1, 16800, Note_on_c, 0, 64, 31
1, 16800, Note_on_c, 0, 67, 31
1, 16800, Note_on_c, 0, 70, 37
1, 16920, Note_on_c, 0, 70, 0
1, 16920, Note_on_c, 0, 84, 0
1, 16920, Note_on_c, 0, 64, 0
1, 16920, Note_on_c, 0, 67, 0
1, 17040, Tempo, 337079
1, 17040, Note_on_c, 0, 84, 52
1, 17040, Note_on_c, 0, 64, 31
1, 17040, Note_on_c, 0, 67, 31
1, 17040, Note_on_c, 0, 70, 37
1, 17160, Note_on_c, 0, 70, 0
1, 17160, Note_on_c, 0, 84, 0
1, 17160, Note_on_c, 0, 64, 0
1, 17160, Note_on_c, 0, 67, 0
1, 17280, Tempo, 294118
1, 17280, Note_on_c, 0, 84, 60
1, 17280, Note_on_c, 0, 60, 42
1, 17301, Control_c, 0, 64, 127
1, 17400, Tempo, 292683
1, 17400, Note_on_c, 0, 60, 0
1, 17520, Note_on_c, 0, 65, 32
1, 17520, Note_on_c, 0, 68, 38
1, 17640, Note_on_c, 0, 68, 0
1, 17640, Note_on_c, 0, 65, 0
1, 17760, Note_on_c, 0, 84, 0
1, 17760, Note_on_c, 0, 65, 32
1, 17760, Note_on_c, 0, 68, 38
1, 17880, Note_on_c, 0, 68, 0
1, 17880, Note_on_c, 0, 65, 0
1, 18000, Note_on_c, 0, 89, 59
1, 18000, Note_on_c, 0, 65, 32
1, 18000, Note_on_c, 0, 68, 38
1, 18120, Note_on_c, 0, 68, 0
1, 18120, Note_on_c, 0, 65, 0
1, 18240, Note_on_c, 0, 89, 0
1, 18240, Note_on_c, 0, 87, 65
1, 18240, Note_on_c, 0, 60, 42
1, 18257, Control_c, 0, 64, 0
1, 18331, Control_c, 0, 64, 127
1, 18360, Note_on_c, 0, 60, 0
1, 18480, Note_on_c, 0, 87, 0
1, 18480, Note_on_c, 0, 86, 60
1, 18480, Note_on_c, 0, 65, 31
1, 18480, Note_on_c, 0, 68, 31
1, 18480, Note_on_c, 0, 71, 37
1, 18600, Note_on_c, 0, 71, 0
1, 18600, Note_on_c, 0, 68, 0
1, 18600, Note_on_c, 0, 65, 0
1, 18720, Note_on_c, 0, 86, 0
1, 18720, Note_on_c, 0, 84, 66
1, 18720, Note_on_c, 0, 65, 31
1, 18720, Note_on_c, 0, 68, 31
1, 18720, Note_on_c, 0, 71, 37
1, 18730, Control_c, 0, 64, 0
1, 18791, Control_c, 0, 64, 127
1, 18840, Note_on_c, 0, 71, 0
1, 18840, Note_on_c, 0, 68, 0
1, 18840, Note_on_c, 0, 65, 0
1, 18960, Tempo, 314961
1, 18960, Note_on_c, 0, 84, 0
1, 18960, Note_on_c, 0, 83, 60
1, 18960, Note_on_c, 0, 65, 31
1, 18960, Note_on_c, 0, 68, 31
1, 18960, Note_on_c, 0, 71, 37
1, 19080, Note_on_c, 0, 71, 0
1, 19080, Note_on_c, 0, 68, 0
1, 19080, Note_on_c, 0, 65, 0
1, 19200, Tempo, 291262
1, 19200, Note_on_c, 0, 83, 0
1, 19200, Note_on_c, 0, 86, 69
1, 19200, Note_on_c, 0, 60, 42
1, 19217, Control_c, 0, 64, 0
1, 19263, Control_c, 0, 64, 127
1, 19320, Note_on_c, 0, 60, 0
1, 19440, Note_on_c, 0, 86, 0
1, 19440, Note_on_c, 0, 84, 60
1, 19440, Note_on_c, 0, 63, 32
1, 19440, Note_on_c, 0, 67, 38
1, 19450, Control_c, 0, 64, 0
1, 19560, Note_on_c, 0, 67, 0
1, 19560, Note_on_c, 0, 63, 0
1, 19680, Note_on_c, 0, 84, 0
1, 19680, Note_on_c, 0, 63, 32
1, 19680, Note_on_c, 0, 67, 38
1, 19800, Note_on_c, 0, 67, 0
1, 19800, Note_on_c, 0, 63, 0
1, 19920, Note_on_c, 0, 72, 50
1, 19920, Note_on_c, 0, 63, 32
1, 19920, Note_on_c, 0, 67, 38
1, 20040, Note_on_c, 0, 67, 0
1, 20040, Note_on_c, 0, 63, 0
1, 20160, Tempo, 294840
1, 20160, Note_on_c, 0, 72, 0
1, 20160, Note_on_c, 0, 71, 57
1, 20160, Note_on_c, 0, 60, 42
1, 20212, Control_c, 0, 64, 127
1, 20280, Note_on_c, 0, 60, 0
1, 20400, Note_on_c, 0, 71, 0
1, 20400, Note_on_c, 0, 72, 53
1, 20400, Note_on_c, 0, 64, 31
1, 20400, Note_on_c, 0, 67, 31
1, 20400, Note_on_c, 0, 70, 37
1, 20410, Control_c, 0, 64, 0
1, 20520, Note_on_c, 0, 70, 0
1, 20520, Note_on_c, 0, 67, 0
1, 20520, Note_on_c, 0, 64, 0
1, 20640, Tempo, 292683
1, 20640, Note_on_c, 0, 72, 0
1, 20640, Note_on_c, 0, 84, 60
1, 20640, Note_on_c, 0, 64, 31
1, 20640, Note_on_c, 0, 67, 31
1, 20640, Note_on_c, 0, 70, 37
1, 20760, Note_on_c, 0, 70, 0
1, 20760, Note_on_c, 0, 84, 0
1, 20760, Note_on_c, 0, 64, 0
1, 20760, Note_on_c, 0, 67, 0
1, 20880, Tempo, 338028
1, 20880, Note_on_c, 0, 84, 52
1, 20880, Note_on_c, 0, 64, 31
1, 20880, Note_on_c, 0, 67, 31
1, 20880, Note_on_c, 0, 70, 37
1, 21000, Note_on_c, 0, 70, 0
1, 21000, Note_on_c, 0, 84, 0
1, 21000, Note_on_c, 0, 64, 0
1, 21000, Note_on_c, 0, 67, 0
1, 21120, Tempo, 292683
1, 21120, Note_on_c, 0, 84, 60
1, 21120, Note_on_c, 0, 60, 42
1, 21140, Control_c, 0, 64, 127
1, 21240, Note_on_c, 0, 60, 0
1, 21360, Note_on_c, 0, 65, 32
1, 21360, Note_on_c, 0, 68, 38
1, 21480, Note_on_c, 0, 68, 0
1, 21480, Note_on_c, 0, 65, 0
1, 21600, Tempo, 305344
1, 21600, Note_on_c, 0, 84, 0
1, 21600, Note_on_c, 0, 86, 60
1, 21600, Note_on_c, 0, 65, 32
1, 21600, Note_on_c, 0, 68, 38
1, 21615, Control_c, 0, 64, 0
1, 21649, Control_c, 0, 64, 127
1, 21660, Note_on_c, 0, 86, 0
1, 21660, Note_on_c, 0, 84, 60
1, 21720, Note_on_c, 0, 84, 0
1, 21720, Note_on_c, 0, 68, 0
1, 21720, Note_on_c, 0, 65, 0
1, 21720, Note_on_c, 0, 83, 60
1, 21780, Note_on_c, 0, 83, 0
1, 21780, Note_on_c, 0, 84, 60
1, 21840, Tempo, 292683
1, 21840, Note_on_c, 0, 84, 0
1, 21840, Note_on_c, 0, 89, 59
1, 21840, Note_on_c, 0, 65, 32
1, 21840, Note_on_c, 0, 68, 38
1, 21960, Note_on_c, 0, 68, 0
1, 21960, Note_on_c, 0, 65, 0
1, 22080, Tempo, 291971
1, 22080, Note_on_c, 0, 89, 0
1, 22080, Note_on_c, 0, 87, 65
1, 22080, Note_on_c, 0, 60, 42
1, 22100, Control_c, 0, 64, 0
1, 22152, Control_c, 0, 64, 127
1, 22200, Note_on_c, 0, 60, 0
1, 22320, Note_on_c, 0, 87, 0
1, 22320, Note_on_c, 0, 86, 60
1, 22320, Note_on_c, 0, 65, 31
1, 22320, Note_on_c, 0, 68, 31
1, 22320, Note_on_c, 0, 71, 37
1, 22440, Note_on_c, 0, 71, 0
1, 22440, Note_on_c, 0, 68, 0
1, 22440, Note_on_c, 0, 65, 0
1, 22560, Note_on_c, 0, 86, 0
1, 22560, Note_on_c, 0, 84, 66
1, 22560, Note_on_c, 0, 65, 31
1, 22560, Note_on_c, 0, 68, 31
1, 22560, Note_on_c, 0, 71, 37
1, 22568, Control_c, 0, 64, 0
1, 22617, Control_c, 0, 64, 127
1, 22680, Note_on_c, 0, 71, 0
1, 22680, Note_on_c, 0, 68, 0
1, 22680, Note_on_c, 0, 65, 0
1, 22800, Tempo, 313316
1, 22800, Note_on_c, 0, 84, 0
1, 22800, Note_on_c, 0, 83, 60
1, 22800, Note_on_c, 0, 65, 31
1, 22800, Note_on_c, 0, 68, 31
1, 22800, Note_on_c, 0, 71, 37
1, 22920, Note_on_c, 0, 71, 0
1, 22920, Note_on_c, 0, 68, 0
1, 22920, Note_on_c, 0, 65, 0
1, 23040, Tempo, 293399
1, 23040, Note_on_c, 0, 83, 0
1, 23040, Note_on_c, 0, 84, 69
1, 23040, Note_on_c, 0, 60, 36
1, 23040, Note_on_c, 0, 63, 36
1, 23040, Note_on_c, 0, 67, 36
1, 23040, Control_c, 0, 64, 0
1, 23047, Note_on_c, 0, 72, 44
1, 23132, Control_c, 0, 64, 127
1, 23160, Note_on_c, 0, 84, 0
1, 23160, Note_on_c, 0, 86, 63
1, 23280, Note_on_c, 0, 86, 0
1, 23280, Note_on_c, 0, 84, 63
1, 23400, Note_on_c, 0, 84, 0
1, 23400, Note_on_c, 0, 83, 63
1, 23520, Note_on_c, 0, 83, 0
1, 23520, Note_on_c, 0, 60, 0
1, 23520, Note_on_c, 0, 67, 0
1, 23520, Note_on_c, 0, 63, 0
1, 23520, Note_on_c, 0, 84, 69
1, 23520, Control_c, 0, 64, 0
1, 23527, Note_on_c, 0, 72, 0
1, 23640, Note_on_c, 0, 84, 0
1, 23640, Note_on_c, 0, 87, 73
1, 23760, Note_on_c, 0, 87, 0
1, 23760, Note_on_c, 0, 86, 72
1, 23760, Note_on_c, 0, 66, 42
1, 23823, Control_c, 0, 64, 127
1, 23880, Tempo, 366972
1, 23880, Note_on_c, 0, 86, 0
1, 23880, Note_on_c, 0, 84, 71
1, 24000, Tempo, 292683
1, 24000, Note_on_c, 0, 84, 0
1, 24000, Note_on_c, 0, 66, 0
1, 24000, Note_on_c, 0, 83, 72
1, 24000, Note_on_c, 0, 67, 52
1, 24009, Control_c, 0, 64, 0
1, 24086, Control_c, 0, 64, 127
1, 24120, Note_on_c, 0, 83, 0
1, 24120, Note_on_c, 0, 84, 65
1, 24240, Note_on_c, 0, 84, 0
1, 24240, Note_on_c, 0, 83, 65
1, 24360, Note_on_c, 0, 83, 0
1, 24360, Note_on_c, 0, 80, 65
1, 24429, Control_c, 0, 64, 0
1, 24480, Note_on_c, 0, 80, 0
1, 24480, Note_on_c, 0, 67, 0
1, 24480, Note_on_c, 0, 79, 69
1, 24600, Note_on_c, 0, 79, 0
1, 24600, Note_on_c, 0, 77, 63
1, 24720, Note_on_c, 0, 77, 0
1, 24720, Note_on_c, 0, 75, 63
1, 24720, Note_on_c, 0, 59, 48
1, 24777, Control_c, 0, 64, 127
1, 24840, Tempo, 366972
1, 24840, Note_on_c, 0, 75, 0
1, 24840, Note_on_c, 0, 74, 63
1, 24960, Tempo, 293399
1, 24960, Note_on_c, 0, 74, 0
1, 24960, Note_on_c, 0, 59, 0
1, 24960, Note_on_c, 0, 72, 69
1, 24960, Note_on_c, 0, 60, 57
1, 24960, Control_c, 0, 64, 0
1, 25040, Control_c, 0, 64, 127
1, 25080, Note_on_c, 0, 72, 0
1, 25080, Note_on_c, 0, 74, 63
1, 25200, Note_on_c, 0, 74, 0
1, 25200, Note_on_c, 0, 72, 63
1, 25210, Control_c, 0, 64, 0
1, 25320, Note_on_c, 0, 72, 0
1, 25320, Note_on_c, 0, 71, 61
1, 25440, Note_on_c, 0, 71, 0
1, 25440, Note_on_c, 0, 60, 0
1, 25440, Note_on_c, 0, 72, 66
1, 25560, Note_on_c, 0, 72, 0
1, 25560, Note_on_c, 0, 75, 72
1, 25680, Note_on_c, 0, 75, 0
1, 25680, Note_on_c, 0, 74, 70
1, 25680, Note_on_c, 0, 54, 54
1, 25714, Control_c, 0, 64, 127
1, 25800, Tempo, 368098
1, 25800, Note_on_c, 0, 74, 0
1, 25800, Note_on_c, 0, 72, 67
1, 25920, Tempo, 292683
1, 25920, Note_on_c, 0, 72, 0
1, 25920, Note_on_c, 0, 54, 0
1, 25920, Note_on_c, 0, 71, 69
1, 25920, Note_on_c, 0, 55, 63
1, 25929, Control_c, 0, 64, 0
1, 26040, Note_on_c, 0, 71, 0
1, 26040, Note_on_c, 0, 72, 63
1, 26057, Control_c, 0, 64, 127
1, 26160, Note_on_c, 0, 72, 0
1, 26160, Note_on_c, 0, 71, 63
1, 26170, Control_c, 0, 64, 0
1, 26280, Note_on_c, 0, 71, 0
1, 26280, Note_on_c, 0, 68, 63
1, 26400, Note_on_c, 0, 68, 0
1, 26400, Note_on_c, 0, 55, 0
1, 26400, Note_on_c, 0, 67, 69
1, 26520, Note_on_c, 0, 67, 0
1, 26520, Note_on_c, 0, 65, 63
1, 26640, Note_on_c, 0, 65, 0
1, 26640, Note_on_c, 0, 63, 63
1, 26640, Note_on_c, 0, 47, 57
1, 26709, Control_c, 0, 64, 127
1, 26760, Tempo, 366972
1, 26760, Note_on_c, 0, 63, 0
1, 26760, Note_on_c, 0, 62, 63
1, 26880, Tempo, 292683
1, 26880, Note_on_c, 0, 62, 0
1, 26880, Note_on_c, 0, 47, 0
1, 26880, Note_on_c, 0, 60, 77
1, 26880, Note_on_c, 0, 48, 66
1, 26895, Control_c, 0, 64, 0
1, 26977, Control_c, 0, 64, 127
1, 27000, Note_on_c, 0, 60, 0
1, 27000, Note_on_c, 0, 62, 69
1, 27120, Note_on_c, 0, 62, 0
1, 27120, Note_on_c, 0, 60, 69
1, 27131, Control_c, 0, 64, 0
1, 27240, Note_on_c, 0, 60, 0
1, 27240, Note_on_c, 0, 59, 69
1, 27360, Note_on_c, 0, 59, 0
1, 27360, Note_on_c, 0, 48, 0
1, 27360, Note_on_c, 0, 60, 77
1, 27480, Note_on_c, 0, 60, 0
1, 27480, Note_on_c, 0, 63, 69
1, 27600, Note_on_c, 0, 63, 0
1, 27600, Note_on_c, 0, 62, 69
1, 27600, Note_on_c, 0, 42, 58
1, 27646, Control_c, 0, 64, 127
1, 27720, Tempo, 365854
1, 27720, Note_on_c, 0, 62, 0
1, 27720, Note_on_c, 0, 60, 69
1, 27840, Tempo, 298507
1, 27840, Note_on_c, 0, 60, 0
1, 27840, Note_on_c, 0, 42, 0
1, 27840, Note_on_c, 0, 59, 77
1, 27840, Note_on_c, 0, 43, 67
1, 27863, Control_c, 0, 64, 0
1, 27955, Control_c, 0, 64, 127
1, 27960, Note_on_c, 0, 59, 0
1, 27960, Note_on_c, 0, 67, 69
1, 28080, Note_on_c, 0, 67, 0
1, 28080, Note_on_c, 0, 62, 69
1, 28200, Note_on_c, 0, 62, 0
1, 28200, Note_on_c, 0, 59, 69
1, 28320, Note_on_c, 0, 59, 0
1, 28320, Note_on_c, 0, 43, 0
1, 28320, Note_on_c, 0, 55, 79
1, 28320, Note_on_c, 0, 36, 82
1, 28320, Note_on_c, 0, 48, 96
1, 28326, Control_c, 0, 64, 0
1, 28400, Control_c, 0, 64, 127
1, 28440, Note_on_c, 0, 55, 0
1, 28440, Note_on_c, 0, 67, 69
1, 28560, Note_on_c, 0, 67, 0
1, 28560, Note_on_c, 0, 48, 0
1, 28560, Note_on_c, 0, 36, 0
1, 28560, Note_on_c, 0, 63, 69
1, 28680, Note_on_c, 0, 63, 0
1, 28680, Note_on_c, 0, 60, 69
1, 28800, Note_on_c, 0, 60, 0
1, 28800, Note_on_c, 0, 55, 81
1, 28800, Note_on_c, 0, 31, 55
1, 28800, Note_on_c, 0, 43, 66
1, 28800, Control_c, 0, 64, 0
1, 28869, Control_c, 0, 64, 127
1, 28920, Note_on_c, 0, 55, 0
1, 28920, Note_on_c, 0, 67, 69
1, 29040, Note_on_c, 0, 67, 0
1, 29040, Note_on_c, 0, 43, 0
1, 29040, Note_on_c, 0, 31, 0
1, 29040, Note_on_c, 0, 62, 69
1, 29054, Control_c, 0, 64, 0
1, 29097, Control_c, 0, 64, 127
1, 29160, Note_on_c, 0, 62, 0
1, 29160, Note_on_c, 0, 59, 69
1, 29280, Note_on_c, 0, 59, 0
1, 29280, Note_on_c, 0, 55, 80
1, 29280, Note_on_c, 0, 36, 82
1, 29280, Note_on_c, 0, 48, 97
1, 29299, Control_c, 0, 64, 0
1, 29366, Control_c, 0, 64, 127
1, 29400, Note_on_c, 0, 55, 0
1, 29400, Note_on_c, 0, 67, 69
1, 29520, Note_on_c, 0, 67, 0
1, 29520, Note_on_c, 0, 48, 0
1, 29520, Note_on_c, 0, 36, 0
1, 29520, Note_on_c, 0, 63, 69
1, 29533, Control_c, 0, 64, 0
1, 29600, Control_c, 0, 64, 127
1, 29640, Note_on_c, 0, 63, 0
1, 29640, Note_on_c, 0, 60, 69
1, 29760, Note_on_c, 0, 60, 0
1, 29760, Note_on_c, 0, 55, 80
1, 29760, Note_on_c, 0, 31, 57
1, 29760, Note_on_c, 0, 43, 68
1, 29780, Control_c, 0, 64, 0
1, 29840, Control_c, 0, 64, 127
1, 29880, Note_on_c, 0, 55, 0
1, 29880, Note_on_c, 0, 67, 69
1, 30000, Note_on_c, 0, 67, 0
1, 30000, Note_on_c, 0, 43, 0
1, 30000, Note_on_c, 0, 31, 0
1, 30000, Note_on_c, 0, 62, 69
1, 30017, Control_c, 0, 64, 0
1, 30097, Control_c, 0, 64, 127
1, 30120, Note_on_c, 0, 62, 0
1, 30120, Note_on_c, 0, 59, 69
1, 30240, Note_on_c, 0, 59, 0
1, 30240, Note_on_c, 0, 55, 80
1, 30240, Note_on_c, 0, 36, 82
1, 30240, Note_on_c, 0, 48, 97
1, 30257, Control_c, 0, 64, 0
1, 30332, Control_c, 0, 64, 127
1, 30360, Note_on_c, 0, 55, 0
1, 30360, Note_on_c, 0, 67, 69
1, 30480, Note_on_c, 0, 67, 0
1, 30480, Note_on_c, 0, 48, 0
1, 30480, Note_on_c, 0, 36, 0
1, 30480, Note_on_c, 0, 63, 69
1, 30495, Control_c, 0, 64, 0
1, 30595, Control_c, 0, 64, 127
1, 30600, Tempo, 358209
1, 30600, Note_on_c, 0, 63, 0
1, 30600, Note_on_c, 0, 60, 69
1, 30720, Tempo, 550459
1, 30720, Note_on_c, 0, 60, 0
1, 30720, Note_on_c, 0, 55, 74
1, 30720, Note_on_c, 0, 59, 74
1, 30720, Note_on_c, 0, 62, 74
1, 30720, Note_on_c, 0, 67, 89
1, 30720, Note_on_c, 0, 31, 66
1, 30720, Note_on_c, 0, 35, 66
1, 30720, Note_on_c, 0, 38, 66
1, 30720, Note_on_c, 0, 43, 78
1, 30720, Control_c, 0, 64, 0
1, 31680, Tempo, 309278
1, 31680, Note_on_c, 0, 43, 0
1, 31680, Note_on_c, 0, 55, 0
1, 31680, Note_on_c, 0, 31, 0
1, 31680, Note_on_c, 0, 59, 0
1, 31680, Note_on_c, 0, 62, 0
1, 31680, Note_on_c, 0, 67, 0
1, 31680, Note_on_c, 0, 35, 0
1, 31680, Note_on_c, 0, 38, 0
1, 31920, Note_on_c, 0, 58, 40
1, 32040, Note_on_c, 0, 58, 0
1, 32160, Note_on_c, 0, 60, 37
1, 32280, Note_on_c, 0, 60, 0
1, 32400, Note_on_c, 0, 62, 37
1, 32520, Note_on_c, 0, 62, 0
1, 32640, Note_on_c, 0, 55, 39
1, 32640, Note_on_c, 0, 58, 39
1, 32640, Note_on_c, 0, 63, 46
1, 32640, Note_on_c, 0, 39, 26
1, 32640, Note_on_c, 0, 51, 31
1, 32760, Note_on_c, 0, 63, 0
1, 32880, Note_on_c, 0, 65, 40
1, 33000, Note_on_c, 0, 65, 0
1, 33120, Tempo, 326087
1, 33120, Note_on_c, 0, 67, 40
1, 33240, Note_on_c, 0, 67, 0
1, 33600, Tempo, 320000
1, 33600, Note_on_c, 0, 39, 0
1, 33600, Note_on_c, 0, 55, 0
1, 33600, Note_on_c, 0, 58, 0
1, 33600, Note_on_c, 0, 51, 0
1, 33600, Note_on_c, 0, 58, 38
1, 33600, Note_on_c, 0, 62, 38
1, 33600, Note_on_c, 0, 65, 45
1, 33600, Note_on_c, 0, 44, 25
1, 33600, Note_on_c, 0, 56, 30
1, 33720, Note_on_c, 0, 56, 0
1, 33720, Note_on_c, 0, 65, 0
1, 33720, Note_on_c, 0, 58, 0
1, 33720, Note_on_c, 0, 62, 0
1, 33720, Note_on_c, 0, 44, 0
1, 34080, Note_on_c, 0, 58, 33
1, 34080, Note_on_c, 0, 63, 39
1, 34080, Note_on_c, 0, 43, 23
1, 34080, Note_on_c, 0, 55, 27
1, 34200, Note_on_c, 0, 55, 0
1, 34200, Note_on_c, 0, 58, 0
1, 34200, Note_on_c, 0, 63, 0
1, 34200, Note_on_c, 0, 43, 0
1, 34320, Tempo, 390879
1, 34560, Tempo, 319149
1, 34560, Note_on_c, 0, 56, 37
1, 34560, Note_on_c, 0, 58, 37
1, 34560, Note_on_c, 0, 62, 37
1, 34560, Note_on_c, 0, 68, 45
1, 34560, Note_on_c, 0, 46, 27
1, 34560, Note_on_c, 0, 41, 27
1, 34560, Note_on_c, 0, 53, 32
1, 35520, Note_on_c, 0, 53, 0
1, 35520, Note_on_c, 0, 46, 0
1, 35520, Note_on_c, 0, 58, 0
1, 35520, Note_on_c, 0, 62, 0
1, 35520, Note_on_c, 0, 56, 0
1, 35520, Note_on_c, 0, 41, 0
1, 35520, Note_on_c, 0, 68, 0
1, 35760, Tempo, 309278
1, 35760, Note_on_c, 0, 58, 40
1, 35880, Note_on_c, 0, 58, 0
1, 36000, Note_on_c, 0, 60, 37
1, 36120, Note_on_c, 0, 60, 0
1, 36240, Note_on_c, 0, 62, 37
1, 36360, Note_on_c, 0, 62, 0
1, 36480, Note_on_c, 0, 55, 39
1, 36480, Note_on_c, 0, 58, 39
1, 36480, Note_on_c, 0, 63, 46
1, 36480, Note_on_c, 0, 39, 26
1, 36480, Note_on_c, 0, 51, 31
1, 36600, Note_on_c, 0, 63, 0
1, 36720, Note_on_c, 0, 65, 40
1, 36840, Note_on_c, 0, 65, 0
1, 36960, Tempo, 326087
1, 36960, Note_on_c, 0, 67, 40
1, 37080, Note_on_c, 0, 67, 0
1, 37440, Tempo, 320000
1, 37440, Note_on_c, 0, 39, 0
1, 37440, Note_on_c, 0, 55, 0
1, 37440, Note_on_c, 0, 58, 0
1, 37440, Note_on_c, 0, 51, 0
1, 37440, Note_on_c, 0, 53, 38
1, 37440, Note_on_c, 0, 60, 38
1, 37440, Note_on_c, 0, 65, 45
1, 37440, Note_on_c, 0, 32, 25
1, 37440, Note_on_c, 0, 44, 30
1, 37560, Note_on_c, 0, 44, 0
1, 37560, Note_on_c, 0, 65, 0
1, 37560, Note_on_c, 0, 53, 0
1, 37560, Note_on_c, 0, 60, 0
1, 37560, Note_on_c, 0, 32, 0
1, 37920, Note_on_c, 0, 60, 33
1, 37920, Note_on_c, 0, 53, 33
1, 37920, Note_on_c, 0, 63, 39
1, 37920, Note_on_c, 0, 33, 23
1, 37920, Note_on_c, 0, 45, 27
1, 38040, Note_on_c, 0, 45, 0
1, 38040, Note_on_c, 0, 63, 0
1, 38040, Note_on_c, 0, 60, 0
1, 38040, Note_on_c, 0, 53, 0
1, 38040, Note_on_c, 0, 33, 0
1, 38160, Tempo, 390879
1, 38400, Tempo, 320000
1, 38400, Note_on_c, 0, 50, 31
1, 38400, Note_on_c, 0, 53, 31
1, 38400, Note_on_c, 0, 58, 37
1, 38400, Note_on_c, 0, 34, 22
1, 38400, Note_on_c, 0, 46, 27
1, 39360, Note_on_c, 0, 46, 0
1, 39360, Note_on_c, 0, 58, 0
1, 39360, Note_on_c, 0, 50, 0
1, 39360, Note_on_c, 0, 53, 0
1, 39360, Note_on_c, 0, 34, 0
1, 39600, Tempo, 309278
1, 39600, Note_on_c, 0, 58, 40
1, 39720, Note_on_c, 0, 58, 0
1, 39840, Note_on_c, 0, 60, 37
1, 39960, Note_on_c, 0, 60, 0
1, 40080, Note_on_c, 0, 62, 37
1, 40200, Note_on_c, 0, 62, 0
1, 40320, Note_on_c, 0, 55, 39
1, 40320, Note_on_c, 0, 58, 39
1, 40320, Note_on_c, 0, 63, 46
1, 40320, Note_on_c, 0, 39, 26
1, 40320, Note_on_c, 0, 51, 31
1, 40440, Note_on_c, 0, 63, 0
1, 40560, Note_on_c, 0, 65, 40
1, 40680, Note_on_c, 0, 65, 0
1, 40800, Tempo, 326087
1, 40800, Note_on_c, 0, 67, 40
1, 40920, Note_on_c, 0, 67, 0
1, 41280, Tempo, 320000
1, 41280, Note_on_c, 0, 39, 0
1, 41280, Note_on_c, 0, 55, 0
1, 41280, Note_on_c, 0, 58, 0
1, 41280, Note_on_c, 0, 51, 0
1, 41280, Note_on_c, 0, 58, 38
1, 41280, Note_on_c, 0, 62, 38
1, 41280, Note_on_c, 0, 65, 45
1, 41280, Note_on_c, 0, 44, 25
1, 41280, Note_on_c, 0, 56, 30
1, 41400, Note_on_c, 0, 56, 0
1, 41400, Note_on_c, 0, 65, 0
1, 41400, Note_on_c, 0, 58, 0
1, 41400, Note_on_c, 0, 62, 0
1, 41400, Note_on_c, 0, 44, 0
1, 41760, Note_on_c, 0, 58, 33
1, 41760, Note_on_c, 0, 63, 39
1, 41760, Note_on_c, 0, 43, 23
1, 41760, Note_on_c, 0, 55, 27
1, 41880, Note_on_c, 0, 55, 0
1, 41880, Note_on_c, 0, 58, 0
1, 41880, Note_on_c, 0, 63, 0
1, 41880, Note_on_c, 0, 43, 0
1, 42000, Tempo, 502092
1, 42120, Tempo, 353982
1, 42135, Note_on_c, 0, 44, 28
1, 42150, Note_on_c, 0, 48, 32
1, 42165, Note_on_c, 0, 51, 36
1, 42180, Note_on_c, 0, 56, 40
1, 42195, Note_on_c, 0, 60, 45
1, 42210, Note_on_c, 0, 63, 50
1, 42225, Note_on_c, 0, 68, 63
1, 42240, Tempo, 308483
1, 42240, Note_on_c, 0, 72, 72
1, 42720, Note_on_c, 0, 56, 0
1, 42720, Note_on_c, 0, 51, 0
1, 42720, Note_on_c, 0, 44, 0
1, 42720, Note_on_c, 0, 48, 0
1, 43200, Note_on_c, 0, 60, 0
1, 43200, Note_on_c, 0, 68, 0
1, 43200, Note_on_c, 0, 63, 0
1, 43440, Note_on_c, 0, 72, 0
1, 43440, Note_on_c, 0, 72, 48
1, 43560, Note_on_c, 0, 72, 0
1, 43680, Note_on_c, 0, 70, 53
1, 43800, Note_on_c, 0, 70, 0
1, 43920, Tempo, 349854
1, 43920, Note_on_c, 0, 68, 50
1, 44040, Note_on_c, 0, 68, 0
1, 44160, Tempo, 307692
1, 44160, Note_on_c, 0, 67, 53
1, 44160, Note_on_c, 0, 46, 80
1, 44400, Note_on_c, 0, 67, 0
1, 44400, Note_on_c, 0, 65, 48
1, 44640, Note_on_c, 0, 65, 0
1, 44640, Note_on_c, 0, 63, 48
1, 44760, Note_on_c, 0, 63, 0
1, 44880, Note_on_c, 0, 62, 48
1, 45000, Note_on_c, 0, 62, 0
1, 45120, Note_on_c, 0, 53, 45
1, 45120, Note_on_c, 0, 56, 45
1, 45120, Note_on_c, 0, 60, 53
1, 45360, Note_on_c, 0, 34, 49
1, 45480, Note_on_c, 0, 34, 0
1, 45600, Note_on_c, 0, 60, 0
1, 45600, Note_on_c, 0, 58, 49
1, 45600, Note_on_c, 0, 36, 53
1, 45720, Note_on_c, 0, 36, 0
1, 45840, Tempo, 319149
1, 45840, Note_on_c, 0, 38, 45
1, 45960, Note_on_c, 0, 38, 0
1, 46080, Tempo, 303797
1, 46080, Note_on_c, 0, 58, 0
1, 46080, Note_on_c, 0, 56, 0
1, 46080, Note_on_c, 0, 53, 0
1, 46080, Note_on_c, 0, 51, 41
1, 46080, Note_on_c, 0, 55, 41
1, 46080, Note_on_c, 0, 58, 49
1, 46080, Note_on_c, 0, 39, 53
1, 46200, Note_on_c, 0, 39, 0
1, 46320, Note_on_c, 0, 41, 49
1, 46440, Note_on_c, 0, 41, 0
1, 46560, Note_on_c, 0, 43, 51
1, 46680, Note_on_c, 0, 43, 0
1, 47040, Tempo, 305344
1, 47040, Note_on_c, 0, 55, 0
1, 47040, Note_on_c, 0, 58, 0
1, 47040, Note_on_c, 0, 51, 0
1, 47040, Note_on_c, 0, 41, 53
1, 47280, Note_on_c, 0, 70, 48
1, 47400, Note_on_c, 0, 70, 0
1, 47520, Note_on_c, 0, 41, 0
1, 47520, Note_on_c, 0, 68, 53
1, 47520, Note_on_c, 0, 39, 50
1, 47640, Note_on_c, 0, 68, 0
1, 47760, Tempo, 339943
1, 47760, Note_on_c, 0, 67, 50
1, 47880, Note_on_c, 0, 67, 0
1, 48000, Tempo, 306122
1, 48000, Note_on_c, 0, 39, 0
1, 48000, Note_on_c, 0, 46, 0
1, 48000, Note_on_c, 0, 67, 53
1, 48000, Note_on_c, 0, 46, 80
1, 48240, Note_on_c, 0, 67, 0
1, 48240, Note_on_c, 0, 65, 48
1, 48480, Note_on_c, 0, 65, 0
1, 48480, Note_on_c, 0, 63, 48
1, 48600, Note_on_c, 0, 63, 0
1, 48720, Note_on_c, 0, 62, 48
1, 48840, Note_on_c, 0, 62, 0
1, 48960, Note_on_c, 0, 53, 45
1, 48960, Note_on_c, 0, 56, 45
1, 48960, Note_on_c, 0, 60, 53
1, 49200, Note_on_c, 0, 34, 49
1, 49320, Note_on_c, 0, 34, 0
1, 49440, Note_on_c, 0, 60, 0
1, 49440, Note_on_c, 0, 58, 49
1, 49440, Note_on_c, 0, 36, 53
1, 49560, Note_on_c, 0, 36, 0
1, 49680, Tempo, 315789
1, 49680, Note_on_c, 0, 38, 45
1, 49800, Note_on_c, 0, 38, 0
1, 49920, Tempo, 302267
1, 49920, Note_on_c, 0, 58, 0
1, 49920, Note_on_c, 0, 56, 0
1, 49920, Note_on_c, 0, 53, 0
1, 49920, Note_on_c, 0, 51, 54
1, 49920, Note_on_c, 0, 55, 54
1, 49920, Note_on_c, 0, 58, 54
1, 49920, Note_on_c, 0, 39, 53
1, 50040, Tempo, 302267
1, 50040, Note_on_c, 0, 39, 0
1, 50160, Note_on_c, 0, 41, 49
1, 50280, Note_on_c, 0, 41, 0
1, 50400, Note_on_c, 0, 43, 51
1, 50520, Note_on_c, 0, 43, 0
1, 50880, Tempo, 306905
1, 50880, Note_on_c, 0, 55, 0
1, 50880, Note_on_c, 0, 58, 0
1, 50880, Note_on_c, 0, 51, 0
1, 50880, Note_on_c, 0, 41, 53
1, 51120, Note_on_c, 0, 82, 48
1, 51120, Note_on_c, 0, 70, 48
1, 51240, Note_on_c, 0, 70, 0
1, 51240, Note_on_c, 0, 82, 0
1, 51360, Note_on_c, 0, 41, 0
1, 51360, Note_on_c, 0, 80, 53
1, 51360, Note_on_c, 0, 68, 53
1, 51360, Note_on_c, 0, 39, 50
1, 51480, Note_on_c, 0, 68, 0
1, 51480, Note_on_c, 0, 80, 0
1, 51600, Tempo, 320856
1, 51600, Note_on_c, 0, 79, 50
1, 51600, Note_on_c, 0, 67, 50
1, 51720, Note_on_c, 0, 67, 0
1, 51720, Note_on_c, 0, 79, 0
1, 51840, Tempo, 304569
1, 51840, Note_on_c, 0, 46, 0
1, 51840, Note_on_c, 0, 39, 0
1, 51840, Note_on_c, 0, 79, 55
1, 51840, Note_on_c, 0, 67, 55
1, 51840, Note_on_c, 0, 44, 45
1, 51840, Note_on_c, 0, 48, 45
1, 51840, Note_on_c, 0, 53, 53
1, 52080, Note_on_c, 0, 67, 0
1, 52080, Note_on_c, 0, 79, 0
1, 52080, Note_on_c, 0, 77, 48
1, 52080, Note_on_c, 0, 65, 48
1, 52320, Note_on_c, 0, 65, 0
1, 52320, Note_on_c, 0, 48, 0
1, 52320, Note_on_c, 0, 53, 0
1, 52320, Note_on_c, 0, 44, 0
1, 52320, Note_on_c, 0, 77, 0
1, 52320, Note_on_c, 0, 75, 48
1, 52320, Note_on_c, 0, 63, 48
1, 52440, Note_on_c, 0, 63, 0
1, 52440, Note_on_c, 0, 75, 0
1, 52560, Note_on_c, 0, 74, 48
1, 52560, Note_on_c, 0, 62, 48
1, 52680, Note_on_c, 0, 62, 0
1, 52680, Note_on_c, 0, 74, 0
1, 52800, Tempo, 305344
1, 52800, Note_on_c, 0, 60, 55
1, 52800, Note_on_c, 0, 72, 55
1, 52800, Note_on_c, 0, 46, 42
1, 52800, Note_on_c, 0, 53, 42
1, 52800, Note_on_c, 0, 56, 50
1, 52920, Note_on_c, 0, 72, 0
1, 52920, Note_on_c, 0, 60, 0
1, 53040, Note_on_c, 0, 58, 48
1, 53040, Note_on_c, 0, 70, 48
1, 53160, Note_on_c, 0, 70, 0
1, 53160, Note_on_c, 0, 58, 0
1, 53280, Note_on_c, 0, 56, 0
1, 53280, Note_on_c, 0, 46, 0
1, 53280, Note_on_c, 0, 53, 0
1, 53280, Note_on_c, 0, 60, 48
1, 53280, Note_on_c, 0, 72, 48
1, 53400, Note_on_c, 0, 72, 0
1, 53400, Note_on_c, 0, 60, 0
1, 53520, Tempo, 326975
1, 53520, Note_on_c, 0, 62, 48
1, 53520, Note_on_c, 0, 74, 48
1, 53640, Note_on_c, 0, 74, 0
1, 53640, Note_on_c, 0, 62, 0
1, 53750, Tempo, 308483
1, 53760, Note_on_c, 0, 63, 48
1, 53760, Note_on_c, 0, 55, 58
1, 53760, Note_on_c, 0, 51, 49
1, 53765, Tempo, 307692
1, 53780, Tempo, 306905
1, 53795, Tempo, 306122
1, 53810, Tempo, 305344
1, 53824, Control_c, 0, 64, 127
1, 53825, Tempo, 304569
1, 53870, Tempo, 303797
1, 53880, Note_on_c, 0, 63, 0
1, 53880, Note_on_c, 0, 75, 43
1, 53960, Tempo, 306122
1, 53975, Tempo, 306905
1, 53990, Tempo, 307692
1, 54000, Note_on_c, 0, 75, 0
1, 54000, Note_on_c, 0, 63, 48
1, 54020, Tempo, 308483
1, 54050, Tempo, 304569
1, 54080, Tempo, 303797
1, 54110, Tempo, 303030
1, 54120, Note_on_c, 0, 63, 0
1, 54120, Note_on_c, 0, 75, 42
1, 54155, Tempo, 304569
1, 54170, Tempo, 306122
1, 54240, Note_on_c, 0, 75, 0
1, 54240, Note_on_c, 0, 51, 0
1, 54240, Note_on_c, 0, 55, 0
1, 54240, Note_on_c, 0, 63, 49
1, 54260, Tempo, 307692
1, 54305, Tempo, 306905
1, 54320, Tempo, 305344
1, 54335, Tempo, 304569
1, 54350, Tempo, 303797
1, 54360, Note_on_c, 0, 63, 0
1, 54360, Note_on_c, 0, 75, 43
1, 54365, Tempo, 303030
1, 54395, Tempo, 303797
1, 54440, Tempo, 304569
1, 54470, Tempo, 305344
1, 54480, Note_on_c, 0, 75, 0
1, 54480, Note_on_c, 0, 63, 50
1, 54480, Note_on_c, 0, 51, 54
1, 54485, Tempo, 306122
1, 54500, Tempo, 306905
1, 54515, Tempo, 308483
1, 54530, Tempo, 309278
1, 54560, Tempo, 306905
1, 54590, Tempo, 305344
1, 54600, Note_on_c, 0, 63, 0
1, 54600, Note_on_c, 0, 75, 45
1, 54605, Tempo, 304569
1, 54620, Tempo, 303797
1, 54695, Tempo, 304569
1, 54710, Tempo, 305344
1, 54720, Note_on_c, 0, 75, 0
1, 54720, Note_on_c, 0, 51, 0
1, 54720, Note_on_c, 0, 63, 51
1, 54720, Note_on_c, 0, 50, 60
1, 54725, Tempo, 306122
1, 54731, Control_c, 0, 64, 0
1, 54740, Tempo, 306905
1, 54755, Tempo, 307692
1, 54770, Tempo, 308483
1, 54785, Tempo, 309278
1, 54800, Tempo, 310078
1, 54812, Control_c, 0, 64, 127
1, 54815, Tempo, 310881
1, 54840, Note_on_c, 0, 63, 0
1, 54840, Note_on_c, 0, 75, 44
1, 54860, Tempo, 310078
1, 54875, Tempo, 306122
1, 54890, Tempo, 305344
1, 54905, Tempo, 303797
1, 54920, Tempo, 303030
1, 54960, Note_on_c, 0, 75, 0
1, 54960, Note_on_c, 0, 50, 0
1, 54960, Note_on_c, 0, 63, 52
1, 54960, Note_on_c, 0, 51, 55
1, 54965, Tempo, 302267
1, 54980, Tempo, 303030
1, 54995, Tempo, 303797
1, 55010, Tempo, 304569
1, 55040, Tempo, 305344
1, 55070, Tempo, 306122
1, 55080, Note_on_c, 0, 63, 0
1, 55080, Note_on_c, 0, 75, 47
1, 55115, Tempo, 305344
1, 55130, Tempo, 304569
1, 55160, Tempo, 303797
1, 55175, Tempo, 304569
1, 55190, Tempo, 305344
1, 55200, Note_on_c, 0, 75, 0
1, 55200, Note_on_c, 0, 51, 0
1, 55200, Note_on_c, 0, 63, 53
1, 55200, Note_on_c, 0, 48, 52
1, 55200, Note_on_c, 0, 56, 62
1, 55210, Control_c, 0, 64, 0
1, 55271, Control_c, 0, 64, 127
1, 55320, Note_on_c, 0, 56, 0
1, 55320, Note_on_c, 0, 48, 0
1, 55320, Note_on_c, 0, 63, 0
1, 55320, Note_on_c, 0, 75, 47
1, 55440, Tempo, 316623
1, 55440, Note_on_c, 0, 75, 0
1, 55440, Note_on_c, 0, 63, 53
1, 55440, Note_on_c, 0, 48, 48
1, 55440, Note_on_c, 0, 56, 57
1, 55560, Note_on_c, 0, 56, 0
1, 55560, Note_on_c, 0, 48, 0
1, 55560, Note_on_c, 0, 63, 0
1, 55560, Note_on_c, 0, 75, 47
1, 55680, Tempo, 308483
1, 55680, Note_on_c, 0, 75, 0
1, 55680, Note_on_c, 0, 63, 54
1, 55680, Note_on_c, 0, 55, 65
1, 55680, Note_on_c, 0, 46, 55
1, 55680, Control_c, 0, 64, 0
1, 55685, Tempo, 307692
1, 55700, Tempo, 306905
1, 55715, Tempo, 306122
1, 55730, Tempo, 305344
1, 55745, Tempo, 304569
1, 55790, Tempo, 303797
1, 55800, Note_on_c, 0, 63, 0
1, 55800, Note_on_c, 0, 75, 48
1, 55860, Control_c, 0, 64, 127
1, 55880, Tempo, 306122
1, 55895, Tempo, 306905
1, 55910, Tempo, 307692
1, 55920, Note_on_c, 0, 75, 0
1, 55920, Note_on_c, 0, 63, 55
1, 55940, Tempo, 308483
1, 55970, Tempo, 304569
1, 56000, Tempo, 303797
1, 56030, Tempo, 303030
1, 56040, Note_on_c, 0, 63, 0
1, 56040, Note_on_c, 0, 75, 48
1, 56075, Tempo, 304569
1, 56090, Tempo, 306122
1, 56160, Note_on_c, 0, 75, 0
1, 56160, Note_on_c, 0, 46, 0
1, 56160, Note_on_c, 0, 55, 0
1, 56160, Note_on_c, 0, 63, 55
1, 56180, Tempo, 307692
1, 56225, Tempo, 306905
1, 56240, Tempo, 305344
1, 56255, Tempo, 304569
1, 56270, Tempo, 303797
1, 56280, Note_on_c, 0, 63, 0
1, 56280, Note_on_c, 0, 75, 48
1, 56285, Tempo, 303030
1, 56315, Tempo, 303797
1, 56360, Tempo, 304569
1, 56390, Tempo, 305344
1, 56400, Note_on_c, 0, 75, 0
1, 56400, Note_on_c, 0, 63, 56
1, 56400, Note_on_c, 0, 51, 61
1, 56405, Tempo, 306122
1, 56420, Tempo, 306905
1, 56435, Tempo, 308483
1, 56450, Tempo, 309278
1, 56480, Tempo, 306905
1, 56510, Tempo, 305344
1, 56520, Note_on_c, 0, 63, 0
1, 56520, Note_on_c, 0, 75, 51
1, 56525, Tempo, 304569
1, 56540, Tempo, 303797
1, 56615, Tempo, 304569
1, 56630, Tempo, 305344
1, 56640, Note_on_c, 0, 75, 0
1, 56640, Note_on_c, 0, 51, 0
1, 56640, Note_on_c, 0, 63, 57
1, 56640, Note_on_c, 0, 50, 68
1, 56645, Tempo, 306122
1, 56651, Control_c, 0, 64, 0
1, 56660, Tempo, 306905
1, 56675, Tempo, 307692
1, 56690, Tempo, 308483
1, 56705, Tempo, 309278
1, 56720, Tempo, 310078
1, 56732, Control_c, 0, 64, 127
1, 56735, Tempo, 310881
1, 56760, Note_on_c, 0, 63, 0
1, 56760, Note_on_c, 0, 75, 49
1, 56780, Tempo, 310078
1, 56795, Tempo, 306122
1, 56810, Tempo, 305344
1, 56825, Tempo, 303797
1, 56840, Tempo, 303030
1, 56880, Note_on_c, 0, 75, 0
1, 56880, Note_on_c, 0, 50, 0
1, 56880, Note_on_c, 0, 63, 58
1, 56880, Note_on_c, 0, 51, 63
1, 56885, Tempo, 302267
1, 56900, Tempo, 303030
1, 56915, Tempo, 303797
1, 56930, Tempo, 304569
1, 56960, Tempo, 305344
1, 56990, Tempo, 306122
1, 57000, Note_on_c, 0, 63, 0
1, 57000, Note_on_c, 0, 75, 53
1, 57035, Tempo, 305344
1, 57050, Tempo, 304569
1, 57080, Tempo, 303797
1, 57095, Tempo, 304569
1, 57110, Tempo, 305344
1, 57120, Note_on_c, 0, 75, 0
1, 57120, Note_on_c, 0, 51, 0
1, 57120, Note_on_c, 0, 63, 59
1, 57120, Note_on_c, 0, 56, 58
1, 57120, Note_on_c, 0, 60, 69
1, 57130, Control_c, 0, 64, 0
1, 57191, Control_c, 0, 64, 127
1, 57240, Note_on_c, 0, 60, 0
1, 57240, Note_on_c, 0, 56, 0
1, 57240, Note_on_c, 0, 63, 0
1, 57240, Note_on_c, 0, 75, 54
1, 57360, Tempo, 316623
1, 57360, Note_on_c, 0, 75, 0
1, 57360, Note_on_c, 0, 63, 60
1, 57360, Note_on_c, 0, 56, 54
1, 57360, Note_on_c, 0, 60, 64
1, 57480, Note_on_c, 0, 60, 0
1, 57480, Note_on_c, 0, 56, 0
1, 57480, Note_on_c, 0, 63, 0
1, 57480, Note_on_c, 0, 75, 54
1, 57600, Note_on_c, 0, 75, 0
1, 57600, Note_on_c, 0, 63, 70
1, 57600, Note_on_c, 0, 75, 70
1, 57600, Note_on_c, 0, 58, 71
1, 57600, Note_on_c, 0, 55, 71
1, 57600, Control_c, 0, 64, 0
1, 57603, Tempo, 306905
1, 57633, Tempo, 309278
1, 57693, Tempo, 306122
1, 57699, Control_c, 0, 64, 127
1, 57723, Tempo, 305344
1, 57813, Tempo, 306905
1, 57840, Note_on_c, 0, 55, 0
1, 57840, Note_on_c, 0, 58, 0
1, 57840, Note_on_c, 0, 51, 62
1, 57843, Tempo, 306122
1, 57873, Tempo, 304569
1, 57903, Tempo, 303797
1, 57960, Note_on_c, 0, 51, 0
1, 57960, Note_on_c, 0, 63, 54
1, 57993, Tempo, 305344
1, 58053, Tempo, 306122
1, 58080, Note_on_c, 0, 63, 0
1, 58080, Note_on_c, 0, 75, 0
1, 58080, Note_on_c, 0, 63, 0
1, 58080, Note_on_c, 0, 51, 63
1, 58083, Tempo, 306905
1, 58113, Tempo, 308483
1, 58173, Tempo, 307692
1, 58200, Note_on_c, 0, 51, 0
1, 58200, Note_on_c, 0, 63, 56
1, 58233, Tempo, 304569
1, 58263, Tempo, 303797
1, 58320, Note_on_c, 0, 63, 0
1, 58320, Note_on_c, 0, 75, 74
1, 58320, Note_on_c, 0, 51, 63
1, 58323, Tempo, 304569
1, 58353, Tempo, 307692
1, 58383, Tempo, 308483
1, 58440, Note_on_c, 0, 51, 0
1, 58440, Note_on_c, 0, 63, 57
1, 58473, Tempo, 305344
1, 58560, Note_on_c, 0, 63, 0
1, 58560, Note_on_c, 0, 75, 0
1, 58560, Note_on_c, 0, 74, 84
1, 58560, Note_on_c, 0, 51, 63
1, 58574, Control_c, 0, 64, 0
1, 58652, Control_c, 0, 64, 127
1, 58653, Tempo, 307692
1, 58680, Note_on_c, 0, 51, 0
1, 58680, Note_on_c, 0, 63, 55
1, 58713, Tempo, 308483
1, 58800, Note_on_c, 0, 63, 0
1, 58800, Note_on_c, 0, 74, 0
1, 58800, Note_on_c, 0, 75, 77
1, 58800, Note_on_c, 0, 51, 64
1, 58803, Tempo, 307692
1, 58833, Tempo, 306905
1, 58863, Tempo, 306122
1, 58893, Tempo, 305344
1, 58920, Note_on_c, 0, 51, 0
1, 58920, Note_on_c, 0, 63, 59
1, 59040, Tempo, 338028
1, 59040, Note_on_c, 0, 63, 0
1, 59040, Note_on_c, 0, 75, 0
1, 59040, Note_on_c, 0, 84, 86
1, 59040, Note_on_c, 0, 80, 86
1, 59040, Note_on_c, 0, 51, 65
1, 59046, Control_c, 0, 64, 0
1, 59118, Control_c, 0, 64, 127
1, 59160, Note_on_c, 0, 51, 0
1, 59160, Note_on_c, 0, 80, 0
1, 59160, Note_on_c, 0, 84, 0
1, 59160, Note_on_c, 0, 63, 58
1, 59280, Tempo, 463320
1, 59280, Note_on_c, 0, 63, 0
1, 59280, Note_on_c, 0, 80, 79
1, 59280, Note_on_c, 0, 84, 79
1, 59280, Note_on_c, 0, 51, 66
1, 59400, Note_on_c, 0, 51, 0
1, 59400, Note_on_c, 0, 84, 0
1, 59400, Note_on_c, 0, 80, 0
1, 59400, Note_on_c, 0, 63, 61
1, 59493, Tempo, 307692
1, 59520, Note_on_c, 0, 63, 0
1, 59520, Note_on_c, 0, 80, 92
1, 59520, Note_on_c, 0, 84, 92
1, 59520, Note_on_c, 0, 50, 49
1, 59520, Note_on_c, 0, 53, 49
1, 59520, Note_on_c, 0, 56, 49
1, 59520, Note_on_c, 0, 58, 49
1, 59520, Control_c, 0, 64, 0
1, 59547, Note_on_c, 0, 62, 66
1, 59720, Control_c, 0, 64, 127
1, 60000, Note_on_c, 0, 80, 0
1, 60120, Note_on_c, 0, 84, 0
1, 60120, Note_on_c, 0, 82, 74
1, 60240, Note_on_c, 0, 82, 0
1, 60240, Note_on_c, 0, 80, 73
1, 60253, Tempo, 303797
1, 60360, Note_on_c, 0, 80, 0
1, 60360, Note_on_c, 0, 79, 72
1, 60480, Note_on_c, 0, 79, 0
1, 60480, Note_on_c, 0, 77, 72
1, 60553, Tempo, 304569
1, 60600, Note_on_c, 0, 77, 0
1, 60600, Note_on_c, 0, 75, 72
1, 60720, Note_on_c, 0, 75, 0
1, 60720, Note_on_c, 0, 74, 71
1, 60840, Note_on_c, 0, 74, 0
1, 60840, Note_on_c, 0, 72, 70
1, 60853, Tempo, 305344
1, 60960, Note_on_c, 0, 72, 0
1, 60960, Note_on_c, 0, 71, 69
1, 61080, Note_on_c, 0, 71, 0
1, 61080, Note_on_c, 0, 70, 68
1, 61153, Tempo, 306122
1, 61200, Note_on_c, 0, 70, 0
1, 61200, Note_on_c, 0, 69, 67
1, 61320, Note_on_c, 0, 69, 0
1, 61320, Note_on_c, 0, 68, 66
1, 61440, Note_on_c, 0, 68, 0
1, 61440, Note_on_c, 0, 58, 0
1, 61440, Note_on_c, 0, 56, 0
1, 61440, Note_on_c, 0, 53, 0
1, 61440, Note_on_c, 0, 50, 0
1, 61440, Note_on_c, 0, 67, 66
1, 61440, Note_on_c, 0, 51, 49
1, 61440, Note_on_c, 0, 55, 49
1, 61440, Note_on_c, 0, 58, 49
1, 61440, Note_on_c, 0, 63, 66
1, 61440, Control_c, 0, 64, 0
1, 61453, Tempo, 306122
1, 61467, Note_on_c, 0, 62, 0
1, 61600, Note_on_c, 0, 67, 0
1, 61600, Note_on_c, 0, 68, 62
1, 61624, Control_c, 0, 64, 127
1, 61760, Note_on_c, 0, 68, 0
1, 61760, Note_on_c, 0, 70, 62
1, 61920, Note_on_c, 0, 70, 0
1, 61920, Note_on_c, 0, 58, 0
1, 61920, Note_on_c, 0, 55, 0
1, 61920, Note_on_c, 0, 63, 0
1, 61920, Note_on_c, 0, 51, 0
1, 61920, Note_on_c, 0, 68, 66
1, 62053, Tempo, 304569
1, 62080, Note_on_c, 0, 68, 0
1, 62080, Note_on_c, 0, 67, 62
1, 62173, Tempo, 305344
1, 62240, Note_on_c, 0, 67, 0
1, 62240, Note_on_c, 0, 65, 62
1, 62293, Tempo, 306122
1, 62400, Note_on_c, 0, 65, 0
1, 62400, Note_on_c, 0, 63, 66
1, 62405, Control_c, 0, 64, 0
1, 62413, Tempo, 306905
1, 62478, Control_c, 0, 64, 127
1, 62533, Tempo, 307692
1, 62560, Note_on_c, 0, 63, 0
1, 62560, Note_on_c, 0, 62, 62
1, 62720, Note_on_c, 0, 62, 0
1, 62720, Note_on_c, 0, 60, 62
1, 62880, Note_on_c, 0, 60, 0
1, 62880, Note_on_c, 0, 58, 66
1, 63040, Note_on_c, 0, 58, 0
1, 63040, Note_on_c, 0, 56, 60
1, 63120, Tempo, 318302
1, 63200, Note_on_c, 0, 56, 0
1, 63200, Note_on_c, 0, 55, 63
1, 63360, Tempo, 320856
1, 63360, Note_on_c, 0, 55, 0
1, 63360, Note_on_c, 0, 32, 73
1, 63360, Note_on_c, 0, 44, 73
1, 63360, Control_c, 0, 64, 0
1, 63452, Control_c, 0, 64, 127
1, 63480, Note_on_c, 0, 53, 59
1, 63600, Tempo, 306905
1, 63600, Note_on_c, 0, 53, 0
1, 63600, Note_on_c, 0, 44, 0
1, 63600, Note_on_c, 0, 32, 0
1, 63600, Note_on_c, 0, 56, 63
1, 63720, Note_on_c, 0, 56, 0
1, 63720, Note_on_c, 0, 60, 67
1, 63840, Note_on_c, 0, 60, 0
1, 63840, Note_on_c, 0, 65, 72
1, 63856, Control_c, 0, 64, 0
1, 64080, Note_on_c, 0, 65, 0
1, 64080, Note_on_c, 0, 32, 63
1, 64080, Note_on_c, 0, 44, 63
1, 64200, Note_on_c, 0, 44, 0
1, 64200, Note_on_c, 0, 32, 0
1, 64320, Tempo, 318302
1, 64320, Note_on_c, 0, 34, 70
1, 64320, Note_on_c, 0, 46, 70
1, 64398, Control_c, 0, 64, 127
1, 64440, Note_on_c, 0, 53, 63
1, 64560, Tempo, 306905
1, 64560, Note_on_c, 0, 53, 0
1, 64560, Note_on_c, 0, 46, 0
1, 64560, Note_on_c, 0, 34, 0
1, 64560, Note_on_c, 0, 56, 66
1, 64680, Note_on_c, 0, 56, 0
1, 64680, Note_on_c, 0, 58, 69
1, 64800, Note_on_c, 0, 58, 0
1, 64800, Note_on_c, 0, 62, 72
1, 64814, Control_c, 0, 64, 0
1, 65040, Tempo, 324324
1, 65040, Note_on_c, 0, 62, 0
1, 65040, Note_on_c, 0, 34, 63
1, 65040, Note_on_c, 0, 46, 63
1, 65160, Note_on_c, 0, 46, 0
1, 65160, Note_on_c, 0, 34, 0
1, 65258, Tempo, 308483
1, 65280, Note_on_c, 0, 74, 67
1, 65280, Control_c, 0, 64, 127
1, 65400, Note_on_c, 0, 74, 0
1, 65400, Note_on_c, 0, 86, 60
1, 65438, Tempo, 307692
1, 65520, Note_on_c, 0, 86, 0
1, 65520, Note_on_c, 0, 74, 67
1, 65520, Note_on_c, 0, 68, 63
1, 65588, Tempo, 306905
1, 65640, Note_on_c, 0, 68, 0
1, 65640, Note_on_c, 0, 74, 0
1, 65640, Note_on_c, 0, 86, 60
1, 65640, Note_on_c, 0, 70, 65
1, 65760, Note_on_c, 0, 70, 0
1, 65760, Note_on_c, 0, 86, 0
1, 65760, Note_on_c, 0, 74, 67
1, 65760, Note_on_c, 0, 72, 69
1, 65768, Tempo, 306122
1, 65880, Note_on_c, 0, 72, 0
1, 65880, Note_on_c, 0, 74, 0
1, 65880, Note_on_c, 0, 86, 59
1, 65880, Note_on_c, 0, 70, 67
1, 65918, Tempo, 305344
1, 66000, Note_on_c, 0, 70, 0
1, 66000, Note_on_c, 0, 86, 0
1, 66000, Note_on_c, 0, 74, 67
1, 66000, Note_on_c, 0, 68, 65
1, 66038, Tempo, 303030
1, 66120, Note_on_c, 0, 68, 0
1, 66120, Note_on_c, 0, 74, 0
1, 66120, Note_on_c, 0, 86, 61
1, 66120, Note_on_c, 0, 67, 64
1, 66240, Note_on_c, 0, 67, 0
1, 66240, Note_on_c, 0, 86, 0
1, 66240, Note_on_c, 0, 74, 67
1, 66240, Note_on_c, 0, 65, 67
1, 66360, Note_on_c, 0, 74, 0
1, 66360, Note_on_c, 0, 86, 59
1, 66368, Tempo, 303797
1, 66400, Note_on_c, 0, 65, 0
1, 66400, Note_on_c, 0, 63, 61
1, 66480, Note_on_c, 0, 86, 0
1, 66480, Note_on_c, 0, 74, 67
1, 66560, Note_on_c, 0, 63, 0
1, 66560, Note_on_c, 0, 62, 61
1, 66600, Note_on_c, 0, 74, 0
1, 66600, Note_on_c, 0, 86, 59
1, 66698, Tempo, 304569
1, 66720, Note_on_c, 0, 86, 0
1, 66720, Note_on_c, 0, 62, 0
1, 66720, Note_on_c, 0, 74, 67
1, 66720, Note_on_c, 0, 60, 67
1, 66840, Note_on_c, 0, 74, 0
1, 66840, Note_on_c, 0, 86, 59
1, 66880, Note_on_c, 0, 60, 0
1, 66880, Note_on_c, 0, 58, 62
1, 66960, Note_on_c, 0, 86, 0
1, 66960, Note_on_c, 0, 74, 67
1, 67028, Tempo, 305344
1, 67040, Note_on_c, 0, 58, 0
1, 67040, Note_on_c, 0, 56, 62
1, 67080, Note_on_c, 0, 74, 0
1, 67080, Note_on_c, 0, 86, 60
1, 67200, Tempo, 308483
1, 67200, Note_on_c, 0, 86, 0
1, 67200, Note_on_c, 0, 56, 0
1, 67200, Note_on_c, 0, 75, 67
1, 67200, Note_on_c, 0, 55, 67
1, 67212, Control_c, 0, 64, 0
1, 67292, Control_c, 0, 64, 127
1, 67320, Note_on_c, 0, 75, 0
1, 67320, Note_on_c, 0, 87, 60
1, 67358, Tempo, 307692
1, 67360, Note_on_c, 0, 55, 0
1, 67360, Note_on_c, 0, 56, 63
1, 67440, Note_on_c, 0, 87, 0
1, 67440, Note_on_c, 0, 75, 69
1, 67508, Tempo, 306905
1, 67520, Note_on_c, 0, 56, 0
1, 67520, Note_on_c, 0, 58, 63
1, 67560, Note_on_c, 0, 75, 0
1, 67560, Note_on_c, 0, 87, 62
1, 67680, Note_on_c, 0, 87, 0
1, 67680, Note_on_c, 0, 58, 0
1, 67680, Note_on_c, 0, 75, 71
1, 67680, Note_on_c, 0, 56, 67
1, 67688, Tempo, 306122
1, 67800, Note_on_c, 0, 75, 0
1, 67800, Note_on_c, 0, 87, 63
1, 67838, Tempo, 305344
1, 67840, Note_on_c, 0, 56, 0
1, 67840, Note_on_c, 0, 55, 60
1, 67920, Note_on_c, 0, 87, 0
1, 67920, Note_on_c, 0, 75, 72
1, 67958, Tempo, 303030
1, 68000, Note_on_c, 0, 55, 0
1, 68000, Note_on_c, 0, 53, 60
1, 68040, Note_on_c, 0, 75, 0
1, 68040, Note_on_c, 0, 87, 67
1, 68160, Note_on_c, 0, 87, 0
1, 68160, Note_on_c, 0, 53, 0
1, 68160, Note_on_c, 0, 75, 75
1, 68160, Note_on_c, 0, 51, 70
1, 68179, Control_c, 0, 64, 0
1, 68269, Control_c, 0, 64, 127
1, 68280, Note_on_c, 0, 75, 0
1, 68280, Note_on_c, 0, 87, 67
1, 68288, Tempo, 303797
1, 68320, Note_on_c, 0, 51, 0
1, 68320, Note_on_c, 0, 50, 63
1, 68400, Note_on_c, 0, 87, 0
1, 68400, Note_on_c, 0, 75, 77
1, 68480, Note_on_c, 0, 50, 0
1, 68480, Note_on_c, 0, 48, 66
1, 68520, Note_on_c, 0, 75, 0
1, 68520, Note_on_c, 0, 87, 69
1, 68618, Tempo, 304569
1, 68640, Note_on_c, 0, 87, 0
1, 68640, Note_on_c, 0, 48, 0
1, 68640, Note_on_c, 0, 76, 80
1, 68640, Note_on_c, 0, 46, 74
1, 68660, Control_c, 0, 64, 0
1, 68760, Note_on_c, 0, 76, 0
1, 68760, Note_on_c, 0, 88, 71
1, 68760, Control_c, 0, 64, 127
1, 68800, Note_on_c, 0, 46, 0
1, 68800, Note_on_c, 0, 44, 67
1, 68880, Note_on_c, 0, 88, 0
1, 68880, Note_on_c, 0, 76, 81
1, 68948, Tempo, 305344
1, 68960, Note_on_c, 0, 44, 0
1, 68960, Note_on_c, 0, 43, 67
1, 69000, Note_on_c, 0, 76, 0
1, 69000, Note_on_c, 0, 88, 73
1, 69120, Tempo, 320856
1, 69120, Note_on_c, 0, 88, 0
1, 69120, Note_on_c, 0, 43, 0
1, 69120, Note_on_c, 0, 32, 73
1, 69120, Note_on_c, 0, 44, 73
1, 69120, Control_c, 0, 64, 0
1, 69212, Control_c, 0, 64, 127
1, 69240, Note_on_c, 0, 77, 71
1, 69360, Tempo, 306905
1, 69360, Note_on_c, 0, 77, 0
1, 69360, Note_on_c, 0, 44, 0
1, 69360, Note_on_c, 0, 32, 0
1, 69360, Note_on_c, 0, 80, 76
1, 69480, Note_on_c, 0, 80, 0
1, 69480, Note_on_c, 0, 84, 81
1, 69600, Note_on_c, 0, 84, 0
1, 69600, Note_on_c, 0, 89, 86
1, 69616, Control_c, 0, 64, 0
1, 69840, Note_on_c, 0, 89, 0
1, 69840, Note_on_c, 0, 32, 63
1, 69840, Note_on_c, 0, 44, 63
1, 69960, Note_on_c, 0, 44, 0
1, 69960, Note_on_c, 0, 32, 0
1, 70080, Tempo, 318302
1, 70080, Note_on_c, 0, 34, 70
1, 70080, Note_on_c, 0, 46, 70
1, 70158, Control_c, 0, 64, 127
1, 70200, Note_on_c, 0, 74, 75
1, 70320, Tempo, 306905
1, 70320, Note_on_c, 0, 74, 0
1, 70320, Note_on_c, 0, 46, 0
1, 70320, Note_on_c, 0, 34, 0
1, 70320, Note_on_c, 0, 77, 79
1, 70440, Note_on_c, 0, 77, 0
1, 70440, Note_on_c, 0, 80, 82
1, 70560, Note_on_c, 0, 80, 0
1, 70560, Note_on_c, 0, 86, 86
1, 70574, Control_c, 0, 64, 0
1, 70800, Tempo, 324324
1, 70800, Note_on_c, 0, 86, 0
1, 70800, Note_on_c, 0, 34, 63
1, 70800, Note_on_c, 0, 46, 63
1, 70920, Note_on_c, 0, 46, 0
1, 70920, Note_on_c, 0, 34, 0
1, 71018, Tempo, 308483
1, 71040, Tempo, 308483
1, 71040, Note_on_c, 0, 75, 80
1, 71040, Note_on_c, 0, 82, 80
1, 71040, Note_on_c, 0, 79, 80
1, 71040, Note_on_c, 0, 87, 94
1, 71040, Note_on_c, 0, 39, 59
1, 71040, Note_on_c, 0, 43, 59
1, 71040, Note_on_c, 0, 46, 59
1, 71040, Note_on_c, 0, 51, 70
1, 71520, Tempo, 297767
1, 71520, Note_on_c, 0, 51, 0
1, 71520, Note_on_c, 0, 75, 0
1, 71520, Note_on_c, 0, 39, 0
1, 71520, Note_on_c, 0, 82, 0
1, 71520, Note_on_c, 0, 79, 0
1, 71520, Note_on_c, 0, 87, 0
1, 71520, Note_on_c, 0, 43, 0
1, 71520, Note_on_c, 0, 46, 0
1, 71520, Note_on_c, 0, 82, 63
1, 71520, Note_on_c, 0, 64, 53
1, 71520, Note_on_c, 0, 67, 63
1, 71640, Note_on_c, 0, 67, 0
1, 71640, Note_on_c, 0, 64, 0
1, 71640, Note_on_c, 0, 82, 0
1, 71760, Tempo, 314136
1, 71760, Note_on_c, 0, 82, 63
1, 71760, Note_on_c, 0, 64, 53
1, 71760, Note_on_c, 0, 67, 63
1, 71880, Note_on_c, 0, 67, 0
1, 71880, Note_on_c, 0, 64, 0
1, 71880, Note_on_c, 0, 82, 0
1, 72000, Tempo, 307692
1, 72000, Note_on_c, 0, 82, 70
1, 72000, Note_on_c, 0, 65, 59
1, 72000, Note_on_c, 0, 68, 70
1, 72240, Note_on_c, 0, 68, 0
1, 72240, Note_on_c, 0, 65, 0
1, 72240, Note_on_c, 0, 82, 0
1, 72480, Tempo, 297767
1, 72480, Note_on_c, 0, 82, 63
1, 72480, Note_on_c, 0, 64, 53
1, 72480, Note_on_c, 0, 67, 63
1, 72600, Note_on_c, 0, 67, 0
1, 72600, Note_on_c, 0, 64, 0
1, 72600, Note_on_c, 0, 82, 0
1, 72720, Tempo, 314136
1, 72720, Note_on_c, 0, 82, 63
1, 72720, Note_on_c, 0, 64, 53
1, 72720, Note_on_c, 0, 67, 63
1, 72840, Note_on_c, 0, 67, 0
1, 72840, Note_on_c, 0, 64, 0
1, 72840, Note_on_c, 0, 82, 0
1, 72960, Tempo, 308483
1, 72960, Note_on_c, 0, 82, 69
1, 72960, Note_on_c, 0, 65, 59
1, 72960, Note_on_c, 0, 68, 70
1, 73200, Note_on_c, 0, 68, 0
1, 73200, Note_on_c, 0, 65, 0
1, 73200, Note_on_c, 0, 82, 0
1, 73440, Tempo, 304569
1, 73440, Note_on_c, 0, 53, 60
1, 73440, Note_on_c, 0, 56, 60
1, 73440, Note_on_c, 0, 62, 72
1, 73440, Note_on_c, 0, 34, 63
1, 73440, Note_on_c, 0, 46, 74
1, 73680, Note_on_c, 0, 46, 0
1, 73680, Note_on_c, 0, 62, 0
1, 73680, Note_on_c, 0, 53, 0
1, 73680, Note_on_c, 0, 56, 0
1, 73680, Note_on_c, 0, 34, 0
1, 74400, Tempo, 310881
1, 74400, Note_on_c, 0, 53, 33
1, 74400, Note_on_c, 0, 56, 33
1, 74400, Note_on_c, 0, 62, 39
1, 74400, Note_on_c, 0, 35, 30
1, 74400, Note_on_c, 0, 47, 36
1, 74520, Note_on_c, 0, 47, 0
1, 74520, Note_on_c, 0, 62, 0
1, 74520, Note_on_c, 0, 53, 0
1, 74520, Note_on_c, 0, 56, 0
1, 74520, Note_on_c, 0, 35, 0
1, 74880, Tempo, 305344
1, 74880, Note_on_c, 0, 55, 37
1, 74880, Note_on_c, 0, 63, 45
1, 74880, Note_on_c, 0, 36, 32
1, 74880, Note_on_c, 0, 48, 38
1, 75000, Note_on_c, 0, 48, 0
1, 75000, Note_on_c, 0, 55, 0
1, 75000, Note_on_c, 0, 63, 0
1, 75000, Note_on_c, 0, 36, 0
1, 75360, Tempo, 302267
1, 75360, Note_on_c, 0, 60, 35
1, 75360, Note_on_c, 0, 63, 35
1, 75360, Note_on_c, 0, 65, 41
1, 75360, Note_on_c, 0, 33, 30
1, 75360, Note_on_c, 0, 45, 36
1, 75480, Note_on_c, 0, 45, 0
1, 75480, Note_on_c, 0, 65, 0
1, 75480, Note_on_c, 0, 60, 0
1, 75480, Note_on_c, 0, 63, 0
1, 75480, Note_on_c, 0, 33, 0
1, 75840, Note_on_c, 0, 58, 37
1, 75840, Note_on_c, 0, 63, 37
1, 75840, Note_on_c, 0, 67, 45
1, 75840, Note_on_c, 0, 34, 32
1, 75840, Note_on_c, 0, 46, 38
1, 75960, Note_on_c, 0, 46, 0
1, 75960, Note_on_c, 0, 67, 0
1, 75960, Note_on_c, 0, 58, 0
1, 75960, Note_on_c, 0, 63, 0
1, 75960, Note_on_c, 0, 34, 0
1, 76320, Tempo, 310881
1, 76320, Note_on_c, 0, 56, 33
1, 76320, Note_on_c, 0, 62, 33
1, 76320, Note_on_c, 0, 65, 39
1, 76320, Note_on_c, 0, 34, 27
1, 76320, Note_on_c, 0, 46, 33
1, 76440, Note_on_c, 0, 46, 0
1, 76440, Note_on_c, 0, 65, 0
1, 76440, Note_on_c, 0, 56, 0
1, 76440, Note_on_c, 0, 62, 0
1, 76440, Note_on_c, 0, 34, 0
1, 76800, Tempo, 304569
1, 76800, Note_on_c, 0, 55, 37
1, 76800, Note_on_c, 0, 63, 45
1, 76800, Note_on_c, 0, 39, 32
1, 76800, Note_on_c, 0, 51, 38
1, 76920, Note_on_c, 0, 51, 0
1, 76920, Note_on_c, 0, 55, 0
1, 76920, Note_on_c, 0, 63, 0
1, 76920, Note_on_c, 0, 39, 0
1, 77280, Tempo, 297767
1, 77280, Note_on_c, 0, 82, 63
1, 77280, Note_on_c, 0, 64, 53
1, 77280, Note_on_c, 0, 67, 63
1, 77400, Note_on_c, 0, 67, 0
1, 77400, Note_on_c, 0, 64, 0
1, 77400, Note_on_c, 0, 82, 0
1, 77400, Note_on_c, 0, 84, 59
1, 77520, Tempo, 314136
1, 77520, Note_on_c, 0, 84, 0
1, 77520, Note_on_c, 0, 82, 63
1, 77520, Note_on_c, 0, 64, 53
1, 77520, Note_on_c, 0, 67, 63
1, 77640, Note_on_c, 0, 67, 0
1, 77640, Note_on_c, 0, 64, 0
1, 77640, Note_on_c, 0, 82, 0
1, 77640, Note_on_c, 0, 81, 59
1, 77760, Tempo, 307692
1, 77760, Note_on_c, 0, 81, 0
1, 77760, Note_on_c, 0, 82, 70
1, 77760, Note_on_c, 0, 65, 59
1, 77760, Note_on_c, 0, 68, 70
1, 78000, Note_on_c, 0, 68, 0
1, 78000, Note_on_c, 0, 65, 0
1, 78000, Note_on_c, 0, 82, 0
1, 78240, Tempo, 297767
1, 78240, Note_on_c, 0, 82, 63
1, 78240, Note_on_c, 0, 64, 53
1, 78240, Note_on_c, 0, 67, 63
1, 78360, Note_on_c, 0, 67, 0
1, 78360, Note_on_c, 0, 64, 0
1, 78360, Note_on_c, 0, 82, 0
1, 78360, Note_on_c, 0, 84, 58
1, 78480, Tempo, 314136
1, 78480, Note_on_c, 0, 84, 0
1, 78480, Note_on_c, 0, 82, 63
1, 78480, Note_on_c, 0, 64, 53
1, 78480, Note_on_c, 0, 67, 63
1, 78600, Note_on_c, 0, 67, 0
1, 78600, Note_on_c, 0, 64, 0
1, 78600, Note_on_c, 0, 82, 0
1, 78600, Note_on_c, 0, 81, 57
1, 78720, Tempo, 308483
1, 78720, Note_on_c, 0, 81, 0
1, 78720, Note_on_c, 0, 82, 69
1, 78720, Note_on_c, 0, 65, 59
1, 78720, Note_on_c, 0, 68, 70
1, 78960, Note_on_c, 0, 68, 0
1, 78960, Note_on_c, 0, 65, 0
1, 78960, Note_on_c, 0, 82, 0
1, 79200, Tempo, 304569
1, 79200, Note_on_c, 0, 53, 60
1, 79200, Note_on_c, 0, 56, 60
1, 79200, Note_on_c, 0, 62, 72
1, 79200, Note_on_c, 0, 34, 63
1, 79200, Note_on_c, 0, 46, 74
1, 79440, Note_on_c, 0, 46, 0
1, 79440, Note_on_c, 0, 62, 0
1, 79440, Note_on_c, 0, 53, 0
1, 79440, Note_on_c, 0, 56, 0
1, 79440, Note_on_c, 0, 34, 0
1, 80160, Tempo, 307692
1, 80160, Note_on_c, 0, 51, 55
1, 80160, Note_on_c, 0, 54, 55
1, 80160, Note_on_c, 0, 57, 55
1, 80160, Note_on_c, 0, 63, 66
1, 80160, Note_on_c, 0, 35, 55
1, 80160, Note_on_c, 0, 39, 55
1, 80160, Note_on_c, 0, 42, 55
1, 80160, Note_on_c, 0, 47, 65
1, 80280, Tempo, 307692
1, 81120, Tempo, 302267
1, 81120, Note_on_c, 0, 47, 0
1, 81120, Note_on_c, 0, 51, 0
1, 81120, Note_on_c, 0, 35, 0
1, 81120, Note_on_c, 0, 54, 0
1, 81120, Note_on_c, 0, 57, 0
1, 81120, Note_on_c, 0, 63, 0
1, 81120, Note_on_c, 0, 39, 0
1, 81120, Note_on_c, 0, 42, 0
1, 81120, Note_on_c, 0, 60, 35
1, 81120, Note_on_c, 0, 63, 35
1, 81120, Note_on_c, 0, 65, 41
1, 81120, Note_on_c, 0, 33, 30
1, 81120, Note_on_c, 0, 45, 36
1, 81240, Note_on_c, 0, 45, 0
1, 81240, Note_on_c, 0, 65, 0
1, 81240, Note_on_c, 0, 60, 0
1, 81240, Note_on_c, 0, 63, 0
1, 81240, Note_on_c, 0, 33, 0
1, 81600, Note_on_c, 0, 58, 37
1, 81600, Note_on_c, 0, 63, 37
1, 81600, Note_on_c, 0, 67, 45
1, 81600, Note_on_c, 0, 34, 32
1, 81600, Note_on_c, 0, 46, 38
1, 81720, Note_on_c, 0, 46, 0
1, 81720, Note_on_c, 0, 67, 0
1, 81720, Note_on_c, 0, 58, 0
1, 81720, Note_on_c, 0, 63, 0
1, 81720, Note_on_c, 0, 34, 0
1, 82080, Tempo, 310881
1, 82080, Note_on_c, 0, 56, 33
1, 82080, Note_on_c, 0, 62, 33
1, 82080, Note_on_c, 0, 65, 39
1, 82080, Note_on_c, 0, 34, 27
1, 82080, Note_on_c, 0, 46, 33
1, 82200, Note_on_c, 0, 46, 0
1, 82200, Note_on_c, 0, 65, 0
1, 82200, Note_on_c, 0, 56, 0
1, 82200, Note_on_c, 0, 62, 0
1, 82200, Note_on_c, 0, 34, 0
1, 82560, Tempo, 304569
1, 82560, Note_on_c, 0, 55, 37
1, 82560, Note_on_c, 0, 63, 45
1, 82560, Note_on_c, 0, 39, 32
1, 82588, Control_c, 0, 64, 127
1, 82800, Note_on_c, 0, 39, 0
1, 82800, Note_on_c, 0, 63, 0
1, 82800, Note_on_c, 0, 55, 0
1, 82800, Note_on_c, 0, 51, 27
1, 83040, Tempo, 300000
1, 83040, Note_on_c, 0, 51, 0
1, 83040, Note_on_c, 0, 62, 30
1, 83040, Note_on_c, 0, 68, 36
1, 83054, Control_c, 0, 64, 0
1, 83224, Control_c, 0, 64, 127
1, 83280, Tempo, 310078
1, 83280, Note_on_c, 0, 68, 0
1, 83280, Note_on_c, 0, 62, 0
1, 83280, Note_on_c, 0, 63, 27
1, 83280, Note_on_c, 0, 67, 32
1, 83520, Tempo, 304569
1, 83520, Note_on_c, 0, 67, 0
1, 83520, Note_on_c, 0, 63, 0
1, 83520, Note_on_c, 0, 39, 32
1, 83532, Control_c, 0, 64, 0
1, 83676, Control_c, 0, 64, 127
1, 83760, Note_on_c, 0, 39, 0
1, 83760, Note_on_c, 0, 51, 28
1, 84000, Tempo, 296296
1, 84000, Note_on_c, 0, 51, 0
1, 84000, Note_on_c, 0, 68, 31
1, 84000, Note_on_c, 0, 74, 37
1, 84012, Control_c, 0, 64, 0
1, 84141, Control_c, 0, 64, 127
1, 84240, Tempo, 309278
1, 84240, Note_on_c, 0, 74, 0
1, 84240, Note_on_c, 0, 68, 0
1, 84240, Note_on_c, 0, 67, 27
1, 84240, Note_on_c, 0, 75, 32
1, 84480, Tempo, 303797
1, 84480, Note_on_c, 0, 75, 0
1, 84480, Note_on_c, 0, 67, 0
1, 84480, Note_on_c, 0, 39, 32
1, 84484, Control_c, 0, 64, 0
1, 84607, Control_c, 0, 64, 127
1, 84720, Note_on_c, 0, 39, 0
1, 84720, Note_on_c, 0, 51, 28
1, 84960, Tempo, 298507
1, 84960, Note_on_c, 0, 51, 0
1, 84960, Note_on_c, 0, 80, 37
1, 84960, Note_on_c, 0, 74, 31
1, 84974, Control_c, 0, 64, 0
1, 85087, Control_c, 0, 64, 127
1, 85200, Tempo, 310078
1, 85200, Note_on_c, 0, 74, 0
1, 85200, Note_on_c, 0, 80, 0
1, 85200, Note_on_c, 0, 75, 27
1, 85200, Note_on_c, 0, 79, 32
1, 85440, Tempo, 303797
1, 85440, Note_on_c, 0, 79, 0
1, 85440, Note_on_c, 0, 75, 0
1, 85440, Note_on_c, 0, 39, 32
1, 85452, Control_c, 0, 64, 0
1, 85581, Control_c, 0, 64, 127
1, 85680, Note_on_c, 0, 39, 0
1, 85680, Note_on_c, 0, 51, 27
1, 85920, Tempo, 300000
1, 85920, Note_on_c, 0, 51, 0
1, 85920, Note_on_c, 0, 86, 43
1, 85920, Note_on_c, 0, 80, 36
1, 85927, Control_c, 0, 64, 0
1, 86076, Control_c, 0, 64, 127
1, 86160, Tempo, 317460
1, 86160, Note_on_c, 0, 80, 0
1, 86160, Note_on_c, 0, 86, 0
1, 86160, Note_on_c, 0, 79, 30
1, 86160, Note_on_c, 0, 87, 36
1, 86400, Tempo, 323450
1, 86400, Note_on_c, 0, 87, 0
1, 86400, Note_on_c, 0, 79, 0
1, 86400, Note_on_c, 0, 39, 32
1, 86400, Control_c, 0, 64, 0
1, 86640, Control_c, 0, 64, 127
1, 86880, Tempo, 306905
1, 86880, Note_on_c, 0, 39, 0
1, 86880, Note_on_c, 0, 55, 48
1, 86880, Note_on_c, 0, 58, 48
1, 86880, Note_on_c, 0, 63, 57
1, 87360, Note_on_c, 0, 63, 0
1, 87360, Note_on_c, 0, 58, 0
1, 87360, Note_on_c, 0, 55, 0
1, 87494, Control_c, 0, 64, 0
1, 89040, Tempo, 294840
1, 89040, Note_on_c, 0, 60, 40
1, 89040, Note_on_c, 0, 48, 36
1, 89280, Note_on_c, 0, 48, 0
1, 89280, Note_on_c, 0, 60, 0
1, 89280, Note_on_c, 0, 59, 45
1, 89280, Note_on_c, 0, 47, 38
1, 89358, Control_c, 0, 64, 127
1, 89520, Note_on_c, 0, 47, 0
1, 89520, Note_on_c, 0, 59, 0
1, 89520, Note_on_c, 0, 60, 40
1, 89520, Note_on_c, 0, 48, 35
1, 89532, Control_c, 0, 64, 0
1, 89760, Tempo, 286396
1, 89760, Note_on_c, 0, 48, 0
1, 89760, Note_on_c, 0, 60, 0
1, 89760, Note_on_c, 0, 65, 45
1, 89760, Note_on_c, 0, 53, 38
1, 89880, Note_on_c, 0, 53, 0
1, 89880, Note_on_c, 0, 65, 0
1, 90000, Tempo, 349854
1, 90000, Note_on_c, 0, 65, 38
1, 90000, Note_on_c, 0, 53, 34
1, 90120, Note_on_c, 0, 53, 0
1, 90120, Note_on_c, 0, 65, 0
1, 90240, Tempo, 291262
1, 90240, Note_on_c, 0, 63, 45
1, 90240, Note_on_c, 0, 51, 38
1, 90720, Note_on_c, 0, 51, 0
1, 90720, Note_on_c, 0, 63, 0
1, 90960, Tempo, 294840
1, 90960, Note_on_c, 0, 60, 40
1, 90960, Note_on_c, 0, 48, 36
1, 91200, Note_on_c, 0, 48, 0
1, 91200, Note_on_c, 0, 60, 0
1, 91200, Note_on_c, 0, 59, 45
1, 91200, Note_on_c, 0, 47, 38
1, 91278, Control_c, 0, 64, 127
1, 91440, Note_on_c, 0, 47, 0
1, 91440, Note_on_c, 0, 59, 0
1, 91440, Note_on_c, 0, 60, 40
1, 91440, Note_on_c, 0, 48, 35
1, 91457, Control_c, 0, 64, 0
1, 91680, Tempo, 287081
1, 91680, Note_on_c, 0, 48, 0
1, 91680, Note_on_c, 0, 60, 0
1, 91680, Note_on_c, 0, 68, 45
1, 91680, Note_on_c, 0, 56, 38
1, 91800, Note_on_c, 0, 56, 0
1, 91800, Note_on_c, 0, 68, 0
1, 91920, Tempo, 350877
1, 91920, Note_on_c, 0, 68, 38
1, 91920, Note_on_c, 0, 56, 34
1, 92040, Note_on_c, 0, 56, 0
1, 92040, Note_on_c, 0, 68, 0
1, 92160, Tempo, 291262
1, 92160, Note_on_c, 0, 67, 45
1, 92160, Note_on_c, 0, 55, 38
1, 92640, Note_on_c, 0, 55, 0
1, 92640, Note_on_c, 0, 67, 0
1, 92880, Tempo, 294840
1, 92880, Note_on_c, 0, 60, 40
1, 93120, Note_on_c, 0, 60, 0
1, 93120, Note_on_c, 0, 59, 45
1, 93205, Control_c, 0, 64, 127
1, 93360, Note_on_c, 0, 59, 0
1, 93360, Note_on_c, 0, 60, 40
1, 93381, Control_c, 0, 64, 0
1, 93600, Tempo, 292683
1, 93600, Note_on_c, 0, 60, 0
1, 93600, Note_on_c, 0, 72, 45
1, 93720, Note_on_c, 0, 72, 0
1, 93840, Tempo, 345821
1, 93840, Note_on_c, 0, 72, 38
1, 93960, Note_on_c, 0, 72, 0
1, 94080, Tempo, 293399
1, 94080, Note_on_c, 0, 72, 45
1, 94080, Note_on_c, 0, 56, 38
1, 94080, Note_on_c, 0, 60, 38
1, 94080, Note_on_c, 0, 66, 38
1, 94083, Control_c, 0, 64, 127
1, 94320, Note_on_c, 0, 72, 0
1, 94320, Note_on_c, 0, 74, 45
1, 94380, Note_on_c, 0, 74, 0
1, 94380, Note_on_c, 0, 72, 45
1, 94440, Note_on_c, 0, 72, 0
1, 94440, Note_on_c, 0, 71, 40
1, 94500, Note_on_c, 0, 71, 0
1, 94500, Note_on_c, 0, 72, 45
1, 94560, Note_on_c, 0, 72, 0
1, 94560, Note_on_c, 0, 75, 50
1, 94571, Control_c, 0, 64, 0
1, 94626, Control_c, 0, 64, 127
1, 94800, Note_on_c, 0, 75, 0
1, 94800, Note_on_c, 0, 74, 45
1, 94920, Tempo, 320856
1, 95040, Tempo, 292683
1, 95040, Note_on_c, 0, 74, 0
1, 95040, Note_on_c, 0, 77, 56
1, 95063, Control_c, 0, 64, 0
1, 95126, Control_c, 0, 64, 127
1, 95280, Note_on_c, 0, 77, 0
1, 95280, Note_on_c, 0, 75, 53
1, 95520, Note_on_c, 0, 75, 0
1, 95520, Note_on_c, 0, 74, 50
1, 95531, Control_c, 0, 64, 0
1, 95560, Control_c, 0, 64, 127
1, 95760, Tempo, 338983
1, 95760, Note_on_c, 0, 74, 0
1, 95760, Note_on_c, 0, 72, 47
1, 96000, Tempo, 291262
1, 96000, Note_on_c, 0, 72, 0
1, 96000, Note_on_c, 0, 56, 0
1, 96000, Note_on_c, 0, 60, 0
1, 96000, Note_on_c, 0, 66, 0
1, 96000, Note_on_c, 0, 71, 51
1, 96000, Note_on_c, 0, 67, 38
1, 96000, Note_on_c, 0, 62, 32
1, 96000, Note_on_c, 0, 55, 32
1, 96000, Control_c, 0, 64, 0
1, 96480, Note_on_c, 0, 55, 0
1, 96480, Note_on_c, 0, 71, 0
1, 96480, Note_on_c, 0, 67, 0
1, 96480, Note_on_c, 0, 62, 0
1, 96720, Note_on_c, 0, 55, 40
1, 96720, Note_on_c, 0, 43, 36
1, 96960, Tempo, 292683
1, 96960, Note_on_c, 0, 43, 0
1, 96960, Note_on_c, 0, 55, 0
1, 96960, Note_on_c, 0, 54, 45
1, 96960, Note_on_c, 0, 42, 38
1, 97073, Control_c, 0, 64, 127
1, 97200, Note_on_c, 0, 42, 0
1, 97200, Note_on_c, 0, 54, 0
1, 97200, Note_on_c, 0, 55, 40
1, 97200, Note_on_c, 0, 43, 35
1, 97215, Control_c, 0, 64, 0
1, 97440, Tempo, 292683
1, 97440, Note_on_c, 0, 43, 0
1, 97440, Note_on_c, 0, 55, 0
1, 97440, Note_on_c, 0, 60, 45
1, 97440, Note_on_c, 0, 48, 38
1, 97560, Note_on_c, 0, 48, 0
1, 97560, Note_on_c, 0, 60, 0
1, 97680, Tempo, 338983
1, 97680, Note_on_c, 0, 60, 38
1, 97680, Note_on_c, 0, 48, 34
1, 97800, Note_on_c, 0, 48, 0
1, 97800, Note_on_c, 0, 60, 0
1, 97920, Tempo, 291971
1, 97920, Note_on_c, 0, 59, 45
1, 97920, Note_on_c, 0, 47, 38
1, 98400, Note_on_c, 0, 47, 0
1, 98400, Note_on_c, 0, 59, 0
1, 98640, Note_on_c, 0, 55, 40
1, 98640, Note_on_c, 0, 43, 36
1, 98880, Tempo, 294840
1, 98880, Note_on_c, 0, 43, 0
1, 98880, Note_on_c, 0, 55, 0
1, 98880, Note_on_c, 0, 54, 45
1, 98880, Note_on_c, 0, 42, 38
1, 98930, Control_c, 0, 64, 127
1, 99120, Note_on_c, 0, 42, 0
1, 99120, Note_on_c, 0, 54, 0
1, 99120, Note_on_c, 0, 55, 40
1, 99120, Note_on_c, 0, 43, 35
1, 99136, Control_c, 0, 64, 0
1, 99360, Tempo, 292683
1, 99360, Note_on_c, 0, 43, 0
1, 99360, Note_on_c, 0, 55, 0
1, 99360, Note_on_c, 0, 63, 45
1, 99360, Note_on_c, 0, 51, 38
1, 99480, Note_on_c, 0, 51, 0
1, 99480, Note_on_c, 0, 63, 0
1, 99600, Tempo, 342857
1, 99600, Note_on_c, 0, 63, 38
1, 99600, Note_on_c, 0, 51, 34
1, 99720, Note_on_c, 0, 51, 0
1, 99720, Note_on_c, 0, 63, 0
1, 99840, Tempo, 296296
1, 99840, Note_on_c, 0, 62, 45
1, 99840, Note_on_c, 0, 50, 38
1, 100320, Note_on_c, 0, 50, 0
1, 100320, Note_on_c, 0, 62, 0
1, 100560, Note_on_c, 0, 55, 45
1, 100560, Note_on_c, 0, 43, 37
1, 100680, Note_on_c, 0, 43, 0
1, 100680, Note_on_c, 0, 55, 0
1, 100800, Tempo, 292683
1, 100800, Note_on_c, 0, 59, 51
1, 100800, Note_on_c, 0, 47, 43
1, 100920, Note_on_c, 0, 47, 0
1, 100920, Note_on_c, 0, 59, 0
1, 101040, Note_on_c, 0, 62, 45
1, 101040, Note_on_c, 0, 50, 37
1, 101160, Note_on_c, 0, 50, 0
1, 101160, Note_on_c, 0, 62, 0
1, 101280, Note_on_c, 0, 65, 45
1, 101280, Note_on_c, 0, 53, 37
1, 101400, Note_on_c, 0, 53, 0
1, 101400, Note_on_c, 0, 65, 0
1, 101520, Note_on_c, 0, 68, 45
1, 101520, Note_on_c, 0, 56, 37
1, 101640, Note_on_c, 0, 56, 0
1, 101640, Note_on_c, 0, 68, 0
1, 101760, Note_on_c, 0, 71, 55
1, 101760, Note_on_c, 0, 59, 46
1, 101880, Note_on_c, 0, 59, 0
1, 101880, Note_on_c, 0, 71, 0
1, 102000, Note_on_c, 0, 74, 53
1, 102000, Note_on_c, 0, 62, 45
1, 102120, Note_on_c, 0, 62, 0
1, 102120, Note_on_c, 0, 74, 0
1, 102240, Note_on_c, 0, 77, 56
1, 102240, Note_on_c, 0, 65, 47
1, 102360, Note_on_c, 0, 65, 0
1, 102360, Note_on_c, 0, 77, 0
1, 102480, Tempo, 304569
1, 102480, Note_on_c, 0, 80, 60
1, 102480, Note_on_c, 0, 68, 50
1, 102600, Note_on_c, 0, 68, 0
1, 102600, Note_on_c, 0, 80, 0
1, 102720, Tempo, 294840
1, 102720, Note_on_c, 0, 79, 63
1, 102720, Note_on_c, 0, 67, 53
1, 102840, Note_on_c, 0, 67, 0
1, 102840, Note_on_c, 0, 79, 0
1, 102960, Note_on_c, 0, 77, 59
1, 102960, Note_on_c, 0, 65, 50
1, 103080, Note_on_c, 0, 65, 0
1, 103080, Note_on_c, 0, 77, 0
1, 103200, Note_on_c, 0, 75, 55
1, 103200, Note_on_c, 0, 63, 46
1, 103320, Note_on_c, 0, 63, 0
1, 103320, Note_on_c, 0, 75, 0
1, 103440, Tempo, 338028
1, 103440, Note_on_c, 0, 74, 54
1, 103440, Note_on_c, 0, 62, 45
1, 103560, Note_on_c, 0, 62, 0
1, 103560, Note_on_c, 0, 74, 0
1, 103680, Tempo, 293399
1, 103680, Note_on_c, 0, 72, 62
1, 103680, Note_on_c, 0, 60, 42
1, 103680, Control_c, 0, 64, 127
1, 103800, Note_on_c, 0, 60, 0
1, 103920, Note_on_c, 0, 63, 32
1, 103920, Note_on_c, 0, 67, 38
1, 104040, Note_on_c, 0, 67, 0
1, 104040, Note_on_c, 0, 63, 0
1, 104160, Note_on_c, 0, 72, 0
1, 104160, Note_on_c, 0, 63, 32
1, 104160, Note_on_c, 0, 67, 38
1, 104280, Note_on_c, 0, 67, 0
1, 104280, Note_on_c, 0, 63, 0
1, 104400, Note_on_c, 0, 72, 50
1, 104400, Note_on_c, 0, 63, 32
1, 104400, Note_on_c, 0, 67, 38
1, 104520, Note_on_c, 0, 67, 0
1, 104520, Note_on_c, 0, 63, 0
1, 104640, Tempo, 295567
1, 104640, Note_on_c, 0, 72, 0
1, 104640, Note_on_c, 0, 71, 57
1, 104640, Note_on_c, 0, 60, 42
1, 104647, Control_c, 0, 64, 0
1, 104715, Control_c, 0, 64, 127
1, 104760, Note_on_c, 0, 60, 0
1, 104880, Note_on_c, 0, 71, 0
1, 104880, Note_on_c, 0, 72, 53
1, 104880, Note_on_c, 0, 64, 31
1, 104880, Note_on_c, 0, 67, 31
1, 104880, Note_on_c, 0, 70, 37
1, 104893, Control_c, 0, 64, 0
1, 105000, Note_on_c, 0, 70, 0
1, 105000, Note_on_c, 0, 67, 0
1, 105000, Note_on_c, 0, 64, 0
1, 105120, Tempo, 292683
1, 105120, Note_on_c, 0, 72, 0
1, 105120, Note_on_c, 0, 84, 60
1, 105120, Note_on_c, 0, 64, 31
1, 105120, Note_on_c, 0, 67, 31
1, 105120, Note_on_c, 0, 70, 37
1, 105240, Note_on_c, 0, 70, 0
1, 105240, Note_on_c, 0, 84, 0
1, 105240, Note_on_c, 0, 64, 0
1, 105240, Note_on_c, 0, 67, 0
1, 105360, Tempo, 337079
1, 105360, Note_on_c, 0, 84, 52
1, 105360, Note_on_c, 0, 64, 31
1, 105360, Note_on_c, 0, 67, 31
1, 105360, Note_on_c, 0, 70, 37
1, 105480, Note_on_c, 0, 70, 0
1, 105480, Note_on_c, 0, 84, 0
1, 105480, Note_on_c, 0, 64, 0
1, 105480, Note_on_c, 0, 67, 0
1, 105600, Tempo, 294118
1, 105600, Note_on_c, 0, 84, 60
1, 105600, Note_on_c, 0, 60, 42
1, 105621, Control_c, 0, 64, 127
1, 105720, Tempo, 292683
1, 105720, Note_on_c, 0, 60, 0
1, 105840, Note_on_c, 0, 65, 32
1, 105840, Note_on_c, 0, 68, 38
1, 105960, Note_on_c, 0, 68, 0
1, 105960, Note_on_c, 0, 65, 0
1, 106080, Note_on_c, 0, 84, 0
1, 106080, Note_on_c, 0, 65, 32
1, 106080, Note_on_c, 0, 68, 38
1, 106200, Note_on_c, 0, 68, 0
1, 106200, Note_on_c, 0, 65, 0
1, 106320, Note_on_c, 0, 89, 59
1, 106320, Note_on_c, 0, 65, 32
1, 106320, Note_on_c, 0, 68, 38
1, 106440, Note_on_c, 0, 68, 0
1, 106440, Note_on_c, 0, 65, 0
1, 106560, Note_on_c, 0, 89, 0
1, 106560, Note_on_c, 0, 87, 65
1, 106560, Note_on_c, 0, 60, 42
1, 106577, Control_c, 0, 64, 0
1, 106651, Control_c, 0, 64, 127
1, 106680, Note_on_c, 0, 60, 0
1, 106800, Note_on_c, 0, 87, 0
1, 106800, Note_on_c, 0, 86, 60
1, 106800, Note_on_c, 0, 65, 31
1, 106800, Note_on_c, 0, 68, 31
1, 106800, Note_on_c, 0, 71, 37
1, 106920, Note_on_c, 0, 71, 0
1, 106920, Note_on_c, 0, 68, 0
1, 106920, Note_on_c, 0, 65, 0
1, 107040, Note_on_c, 0, 86, 0
1, 107040, Note_on_c, 0, 84, 66
1, 107040, Note_on_c, 0, 65, 31
1, 107040, Note_on_c, 0, 68, 31
1, 107040, Note_on_c, 0, 71, 37
1, 107050, Control_c, 0, 64, 0
1, 107111, Control_c, 0, 64, 127
1, 107160, Note_on_c, 0, 71, 0
1, 107160, Note_on_c, 0, 68, 0
1, 107160, Note_on_c, 0, 65, 0
1, 107280, Tempo, 314961
1, 107280, Note_on_c, 0, 84, 0
1, 107280, Note_on_c, 0, 83, 60
1, 107280, Note_on_c, 0, 65, 31
1, 107280, Note_on_c, 0, 68, 31
1, 107280, Note_on_c, 0, 71, 37
1, 107400, Note_on_c, 0, 71, 0
1, 107400, Note_on_c, 0, 68, 0
1, 107400, Note_on_c, 0, 65, 0
1, 107520, Tempo, 291262
1, 107520, Note_on_c, 0, 83, 0
1, 107520, Note_on_c, 0, 86, 69
1, 107520, Note_on_c, 0, 60, 42
1, 107537, Control_c, 0, 64, 0
1, 107583, Control_c, 0, 64, 127
1, 107640, Note_on_c, 0, 60, 0
1, 107760, Note_on_c, 0, 86, 0
1, 107760, Note_on_c, 0, 84, 60
1, 107760, Note_on_c, 0, 63, 32
1, 107760, Note_on_c, 0, 67, 38
1, 107770, Control_c, 0, 64, 0
1, 107880, Note_on_c, 0, 67, 0
1, 107880, Note_on_c, 0, 63, 0
1, 108000, Note_on_c, 0, 84, 0
1, 108000, Note_on_c, 0, 63, 32
1, 108000, Note_on_c, 0, 67, 38
1, 108120, Note_on_c, 0, 67, 0
1, 108120, Note_on_c, 0, 63, 0
1, 108240, Note_on_c, 0, 72, 50
1, 108240, Note_on_c, 0, 63, 32
1, 108240, Note_on_c, 0, 67, 38
1, 108360, Note_on_c, 0, 67, 0
1, 108360, Note_on_c, 0, 63, 0
1, 108480, Tempo, 294840
1, 108480, Note_on_c, 0, 72, 0
1, 108480, Note_on_c, 0, 71, 57
1, 108480, Note_on_c, 0, 60, 42
1, 108532, Control_c, 0, 64, 127
1, 108600, Note_on_c, 0, 60, 0
1, 108720, Note_on_c, 0, 71, 0
1, 108720, Note_on_c, 0, 72, 53
1, 108720, Note_on_c, 0, 64, 31
1, 108720, Note_on_c, 0, 67, 31
1, 108720, Note_on_c, 0, 70, 37
1, 108730, Control_c, 0, 64, 0
1, 108840, Note_on_c, 0, 70, 0
1, 108840, Note_on_c, 0, 67, 0
1, 108840, Note_on_c, 0, 64, 0
1, 108960, Tempo, 292683
1, 108960, Note_on_c, 0, 72, 0
1, 108960, Note_on_c, 0, 84, 60
1, 108960, Note_on_c, 0, 64, 31
1, 108960, Note_on_c, 0, 67, 31
1, 108960, Note_on_c, 0, 70, 37
1, 109080, Note_on_c, 0, 70, 0
1, 109080, Note_on_c, 0, 84, 0
1, 109080, Note_on_c, 0, 64, 0
1, 109080, Note_on_c, 0, 67, 0
1, 109200, Tempo, 338028
1, 109200, Note_on_c, 0, 84, 52
1, 109200, Note_on_c, 0, 64, 31
1, 109200, Note_on_c, 0, 67, 31
1, 109200, Note_on_c, 0, 70, 37
1, 109320, Note_on_c, 0, 70, 0
1, 109320, Note_on_c, 0, 84, 0
1, 109320, Note_on_c, 0, 64, 0
1, 109320, Note_on_c, 0, 67, 0
1, 109440, Tempo, 292683
1, 109440, Note_on_c, 0, 84, 60
1, 109440, Note_on_c, 0, 60, 42
1, 109460, Control_c, 0, 64, 127
1, 109560, Note_on_c, 0, 60, 0
1, 109680, Note_on_c, 0, 65, 32
1, 109680, Note_on_c, 0, 68, 38
1, 109800, Note_on_c, 0, 68, 0
1, 109800, Note_on_c, 0, 65, 0
1, 109920, Tempo, 305344
1, 109920, Note_on_c, 0, 84, 0
1, 109920, Note_on_c, 0, 86, 60
1, 109920, Note_on_c, 0, 65, 32
1, 109920, Note_on_c, 0, 68, 38
1, 109935, Control_c, 0, 64, 0
1, 109969, Control_c, 0, 64, 127
1, 109980, Note_on_c, 0, 86, 0
1, 109980, Note_on_c, 0, 84, 60
1, 110040, Note_on_c, 0, 84, 0
1, 110040, Note_on_c, 0, 68, 0
1, 110040, Note_on_c, 0, 65, 0
1, 110040, Note_on_c, 0, 83, 60
1, 110100, Note_on_c, 0, 83, 0
1, 110100, Note_on_c, 0, 84, 60
1, 110160, Tempo, 292683
1, 110160, Note_on_c, 0, 84, 0
1, 110160, Note_on_c, 0, 89, 59
1, 110160, Note_on_c, 0, 65, 32
1, 110160, Note_on_c, 0, 68, 38
1, 110280, Note_on_c, 0, 68, 0
1, 110280, Note_on_c, 0, 65, 0
1, 110400, Tempo, 291971
1, 110400, Note_on_c, 0, 89, 0
1, 110400, Note_on_c, 0, 87, 65
1, 110400, Note_on_c, 0, 60, 42
1, 110420, Control_c, 0, 64, 0
1, 110472, Control_c, 0, 64, 127
1, 110520, Note_on_c, 0, 60, 0
1, 110640, Note_on_c, 0, 87, 0
1, 110640, Note_on_c, 0, 86, 60
1, 110640, Note_on_c, 0, 65, 31
1, 110640, Note_on_c, 0, 68, 31
1, 110640, Note_on_c, 0, 71, 37
1, 110760, Note_on_c, 0, 71, 0
1, 110760, Note_on_c, 0, 68, 0
1, 110760, Note_on_c, 0, 65, 0
1, 110880, Note_on_c, 0, 86, 0
1, 110880, Note_on_c, 0, 84, 66
1, 110880, Note_on_c, 0, 65, 31
1, 110880, Note_on_c, 0, 68, 31
1, 110880, Note_on_c, 0, 71, 37
1, 110888, Control_c, 0, 64, 0
1, 110937, Control_c, 0, 64, 127
1, 111000, Note_on_c, 0, 71, 0
1, 111000, Note_on_c, 0, 68, 0
1, 111000, Note_on_c, 0, 65, 0
1, 111120, Tempo, 313316
1, 111120, Note_on_c, 0, 84, 0
1, 111120, Note_on_c, 0, 83, 60
1, 111120, Note_on_c, 0, 65, 31
1, 111120, Note_on_c, 0, 68, 31
1, 111120, Note_on_c, 0, 71, 37
1, 111240, Note_on_c, 0, 71, 0
1, 111240, Note_on_c, 0, 68, 0
1, 111240, Note_on_c, 0, 65, 0
1, 111360, Tempo, 293399
1, 111360, Note_on_c, 0, 83, 0
1, 111360, Note_on_c, 0, 84, 69
1, 111360, Note_on_c, 0, 60, 36
1, 111360, Note_on_c, 0, 63, 36
1, 111360, Note_on_c, 0, 67, 36
1, 111360, Control_c, 0, 64, 0
1, 111367, Note_on_c, 0, 72, 44
1, 111452, Control_c, 0, 64, 127
1, 111480, Note_on_c, 0, 84, 0
1, 111480, Note_on_c, 0, 86, 63
1, 111600, Note_on_c, 0, 86, 0
1, 111600, Note_on_c, 0, 84, 63
1, 111720, Note_on_c, 0, 84, 0
1, 111720, Note_on_c, 0, 83, 63
1, 111840, Note_on_c, 0, 83, 0
1, 111840, Note_on_c, 0, 60, 0
1, 111840, Note_on_c, 0, 67, 0
1, 111840, Note_on_c, 0, 63, 0
1, 111840, Note_on_c, 0, 84, 69
1, 111840, Control_c, 0, 64, 0
1, 111847, Note_on_c, 0, 72, 0
1, 111960, Note_on_c, 0, 84, 0
1, 111960, Note_on_c, 0, 87, 73
1, 112080, Note_on_c, 0, 87, 0
1, 112080, Note_on_c, 0, 86, 72
1, 112080, Note_on_c, 0, 66, 42
1, 112143, Control_c, 0, 64, 127
1, 112200, Tempo, 366972
1, 112200, Note_on_c, 0, 86, 0
1, 112200, Note_on_c, 0, 84, 71
1, 112320, Tempo, 292683
1, 112320, Note_on_c, 0, 84, 0
1, 112320, Note_on_c, 0, 66, 0
1, 112320, Note_on_c, 0, 83, 72
1, 112320, Note_on_c, 0, 67, 52
1, 112329, Control_c, 0, 64, 0
1, 112406, Control_c, 0, 64, 127
1, 112440, Note_on_c, 0, 83, 0
1, 112440, Note_on_c, 0, 84, 65
1, 112560, Note_on_c, 0, 84, 0
1, 112560, Note_on_c, 0, 83, 65
1, 112680, Note_on_c, 0, 83, 0
1, 112680, Note_on_c, 0, 80, 65
1, 112749, Control_c, 0, 64, 0
1, 112800, Note_on_c, 0, 80, 0
1, 112800, Note_on_c, 0, 67, 0
1, 112800, Note_on_c, 0, 79, 69
1, 112920, Note_on_c, 0, 79, 0
1, 112920, Note_on_c, 0, 77, 63
1, 113040, Note_on_c, 0, 77, 0
1, 113040, Note_on_c, 0, 75, 63
1, 113040, Note_on_c, 0, 59, 48
1, 113097, Control_c, 0, 64, 127
1, 113160, Tempo, 366972
1, 113160, Note_on_c, 0, 75, 0
1, 113160, Note_on_c, 0, 74, 63
1, 113280, Tempo, 293399
1, 113280, Note_on_c, 0, 74, 0
1, 113280, Note_on_c, 0, 59, 0
1, 113280, Note_on_c, 0, 72, 69
1, 113280, Note_on_c, 0, 60, 57
1, 113280, Control_c, 0, 64, 0
1, 113360, Control_c, 0, 64, 127
1, 113400, Note_on_c, 0, 72, 0
1, 113400, Note_on_c, 0, 74, 63
1, 113520, Note_on_c, 0, 74, 0
1, 113520, Note_on_c, 0, 72, 63
1, 113530, Control_c, 0, 64, 0
1, 113640, Note_on_c, 0, 72, 0
1, 113640, Note_on_c, 0, 71, 61
1, 113760, Note_on_c, 0, 71, 0
1, 113760, Note_on_c, 0, 60, 0
1, 113760, Note_on_c, 0, 72, 66
1, 113880, Note_on_c, 0, 72, 0
1, 113880, Note_on_c, 0, 75, 72
1, 114000, Note_on_c, 0, 75, 0
1, 114000, Note_on_c, 0, 74, 70
1, 114000, Note_on_c, 0, 54, 54
1, 114034, Control_c, 0, 64, 127
1, 114120, Tempo, 368098
1, 114120, Note_on_c, 0, 74, 0
1, 114120, Note_on_c, 0, 72, 67
1, 114240, Tempo, 292683
1, 114240, Note_on_c, 0, 72, 0
1, 114240, Note_on_c, 0, 54, 0
1, 114240, Note_on_c, 0, 71, 69
1, 114240, Note_on_c, 0, 55, 63
1, 114249, Control_c, 0, 64, 0
1, 114360, Note_on_c, 0, 71, 0
1, 114360, Note_on_c, 0, 72, 63
1, 114377, Control_c, 0, 64, 127
1, 114480, Note_on_c, 0, 72, 0
1, 114480, Note_on_c, 0, 71, 63
1, 114490, Control_c, 0, 64, 0
1, 114600, Note_on_c, 0, 71, 0
1, 114600, Note_on_c, 0, 68, 63
1, 114720, Note_on_c, 0, 68, 0
1, 114720, Note_on_c, 0, 55, 0
1, 114720, Note_on_c, 0, 67, 69
1, 114840, Note_on_c, 0, 67, 0
1, 114840, Note_on_c, 0, 65, 63
1, 114960, Note_on_c, 0, 65, 0
1, 114960, Note_on_c, 0, 63, 63
1, 114960, Note_on_c, 0, 47, 57
1, 115029, Control_c, 0, 64, 127
1, 115080, Tempo, 366972
1, 115080, Note_on_c, 0, 63, 0
1, 115080, Note_on_c, 0, 62, 63
1, 115200, Tempo, 292683
1, 115200, Note_on_c, 0, 62, 0
1, 115200, Note_on_c, 0, 47, 0
1, 115200, Note_on_c, 0, 60, 77
1, 115200, Note_on_c, 0, 48, 66
1, 115215, Control_c, 0, 64, 0
1, 115297, Control_c, 0, 64, 127
1, 115320, Note_on_c, 0, 60, 0
1, 115320, Note_on_c, 0, 62, 69
1, 115440, Note_on_c, 0, 62, 0
1, 115440, Note_on_c, 0, 60, 69
1, 115451, Control_c, 0, 64, 0
1, 115560, Note_on_c, 0, 60, 0
1, 115560, Note_on_c, 0, 59, 69
1, 115680, Note_on_c, 0, 59, 0
1, 115680, Note_on_c, 0, 48, 0
1, 115680, Note_on_c, 0, 60, 77
1, 115800, Note_on_c, 0, 60, 0
1, 115800, Note_on_c, 0, 63, 69
1, 115920, Note_on_c, 0, 63, 0
1, 115920, Note_on_c, 0, 62, 69
1, 115920, Note_on_c, 0, 42, 58
1, 115966, Control_c, 0, 64, 127
1, 116040, Tempo, 365854
1, 116040, Note_on_c, 0, 62, 0
1, 116040, Note_on_c, 0, 60, 69
1, 116160, Tempo, 298507
1, 116160, Note_on_c, 0, 60, 0
1, 116160, Note_on_c, 0, 42, 0
1, 116160, Note_on_c, 0, 59, 77
1, 116160, Note_on_c, 0, 43, 67
1, 116183, Control_c, 0, 64, 0
1, 116275, Control_c, 0, 64, 127
1, 116280, Note_on_c, 0, 59, 0
1, 116280, Note_on_c, 0, 67, 69
1, 116400, Note_on_c, 0, 67, 0
1, 116400, Note_on_c, 0, 62, 69
1, 116520, Note_on_c, 0, 62, 0
1, 116520, Note_on_c, 0, 59, 69
1, 116640, Note_on_c, 0, 59, 0
1, 116640, Note_on_c, 0, 43, 0
1, 116640, Note_on_c, 0, 55, 79
1, 116640, Note_on_c, 0, 36, 82
1, 116640, Note_on_c, 0, 48, 96
1, 116646, Control_c, 0, 64, 0
1, 116720, Control_c, 0, 64, 127
1, 116760, Note_on_c, 0, 55, 0
1, 116760, Note_on_c, 0, 67, 69
1, 116880, Note_on_c, 0, 67, 0
1, 116880, Note_on_c, 0, 48, 0
1, 116880, Note_on_c, 0, 36, 0
1, 116880, Note_on_c, 0, 63, 69
1, 117000, Note_on_c, 0, 63, 0
1, 117000, Note_on_c, 0, 60, 69
1, 117120, Note_on_c, 0, 60, 0
1, 117120, Note_on_c, 0, 55, 81
1, 117120, Note_on_c, 0, 31, 55
1, 117120, Note_on_c, 0, 43, 66
1, 117120, Control_c, 0, 64, 0
1, 117189, Control_c, 0, 64, 127
1, 117240, Note_on_c, 0, 55, 0
1, 117240, Note_on_c, 0, 67, 69
1, 117360, Note_on_c, 0, 67, 0
1, 117360, Note_on_c, 0, 43, 0
1, 117360, Note_on_c, 0, 31, 0
1, 117360, Note_on_c, 0, 62, 69
1, 117374, Control_c, 0, 64, 0
1, 117417, Control_c, 0, 64, 127
1, 117480, Note_on_c, 0, 62, 0
1, 117480, Note_on_c, 0, 59, 69
1, 117600, Note_on_c, 0, 59, 0
1, 117600, Note_on_c, 0, 55, 80
1, 117600, Note_on_c, 0, 36, 82
1, 117600, Note_on_c, 0, 48, 97
1, 117619, Control_c, 0, 64, 0
1, 117686, Control_c, 0, 64, 127
1, 117720, Note_on_c, 0, 55, 0
1, 117720, Note_on_c, 0, 67, 69
1, 117840, Note_on_c, 0, 67, 0
1, 117840, Note_on_c, 0, 48, 0
1, 117840, Note_on_c, 0, 36, 0
1, 117840, Note_on_c, 0, 63, 69
1, 117853, Control_c, 0, 64, 0
1, 117920, Control_c, 0, 64, 127
1, 117960, Note_on_c, 0, 63, 0
1, 117960, Note_on_c, 0, 60, 69
1, 118080, Note_on_c, 0, 60, 0
1, 118080, Note_on_c, 0, 55, 80
1, 118080, Note_on_c, 0, 31, 57
1, 118080, Note_on_c, 0, 43, 68
1, 118100, Control_c, 0, 64, 0
1, 118160, Control_c, 0, 64, 127
1, 118200, Note_on_c, 0, 55, 0
1, 118200, Note_on_c, 0, 67, 69
1, 118320, Note_on_c, 0, 67, 0
1, 118320, Note_on_c, 0, 43, 0
1, 118320, Note_on_c, 0, 31, 0
1, 118320, Note_on_c, 0, 62, 69
1, 118337, Control_c, 0, 64, 0
1, 118417, Control_c, 0, 64, 127
1, 118440, Note_on_c, 0, 62, 0
1, 118440, Note_on_c, 0, 59, 69
1, 118560, Note_on_c, 0, 59, 0
1, 118560, Note_on_c, 0, 55, 80
1, 118560, Note_on_c, 0, 36, 82
1, 118560, Note_on_c, 0, 48, 97
1, 118577, Control_c, 0, 64, 0
1, 118652, Control_c, 0, 64, 127
1, 118680, Note_on_c, 0, 55, 0
1, 118680, Note_on_c, 0, 67, 69
1, 118800, Note_on_c, 0, 67, 0
1, 118800, Note_on_c, 0, 48, 0
1, 118800, Note_on_c, 0, 36, 0
1, 118800, Note_on_c, 0, 63, 69
1, 118815, Control_c, 0, 64, 0
1, 118915, Control_c, 0, 64, 127
1, 118920, Tempo, 358209
1, 118920, Note_on_c, 0, 63, 0
1, 118920, Note_on_c, 0, 60, 69
1, 119040, Tempo, 550459
1, 119040, Note_on_c, 0, 60, 0
1, 119040, Note_on_c, 0, 55, 74
1, 119040, Note_on_c, 0, 59, 74
1, 119040, Note_on_c, 0, 62, 74
1, 119040, Note_on_c, 0, 67, 89
1, 119040, Note_on_c, 0, 31, 66
1, 119040, Note_on_c, 0, 35, 66
1, 119040, Note_on_c, 0, 38, 66
1, 119040, Note_on_c, 0, 43, 78
1, 119040, Control_c, 0, 64, 0
1, 120000, Tempo, 309278
1, 120000, Note_on_c, 0, 43, 0
1, 120000, Note_on_c, 0, 55, 0
1, 120000, Note_on_c, 0, 31, 0
1, 120000, Note_on_c, 0, 59, 0
1, 120000, Note_on_c, 0, 62, 0
1, 120000, Note_on_c, 0, 67, 0
1, 120000, Note_on_c, 0, 35, 0
1, 120000, Note_on_c, 0, 38, 0
1, 120240, Note_on_c, 0, 58, 40
1, 120360, Note_on_c, 0, 58, 0
1, 120480, Note_on_c, 0, 60, 37
1, 120600, Note_on_c, 0, 60, 0
1, 120720, Note_on_c, 0, 62, 37
1, 120840, Note_on_c, 0, 62, 0
1, 120960, Note_on_c, 0, 55, 39
1, 120960, Note_on_c, 0, 58, 39
1, 120960, Note_on_c, 0, 63, 46
1, 120960, Note_on_c, 0, 39, 26
1, 120960, Note_on_c, 0, 51, 31
1, 121080, Note_on_c, 0, 63, 0
1, 121200, Note_on_c, 0, 65, 40
1, 121320, Note_on_c, 0, 65, 0
1, 121440, Tempo, 326087
1, 121440, Note_on_c, 0, 67, 40
1, 121560, Note_on_c, 0, 67, 0
1, 121920, Tempo, 320000
1, 121920, Note_on_c, 0, 39, 0
1, 121920, Note_on_c, 0, 55, 0
1, 121920, Note_on_c, 0, 58, 0
1, 121920, Note_on_c, 0, 51, 0
1, 121920, Note_on_c, 0, 58, 38
1, 121920, Note_on_c, 0, 62, 38
1, 121920, Note_on_c, 0, 65, 45
1, 121920, Note_on_c, 0, 44, 25
1, 121920, Note_on_c, 0, 56, 30
1, 122040, Note_on_c, 0, 56, 0
1, 122040, Note_on_c, 0, 65, 0
1, 122040, Note_on_c, 0, 58, 0
1, 122040, Note_on_c, 0, 62, 0
1, 122040, Note_on_c, 0, 44, 0
1, 122400, Note_on_c, 0, 58, 33
1, 122400, Note_on_c, 0, 63, 39
1, 122400, Note_on_c, 0, 43, 23
1, 122400, Note_on_c, 0, 55, 27
1, 122520, Note_on_c, 0, 55, 0
1, 122520, Note_on_c, 0, 58, 0
1, 122520, Note_on_c, 0, 63, 0
1, 122520, Note_on_c, 0, 43, 0
1, 122640, Tempo, 390879
1, 122880, Tempo, 319149
1, 122880, Note_on_c, 0, 56, 37
1, 122880, Note_on_c, 0, 58, 37
1, 122880, Note_on_c, 0, 62, 37
1, 122880, Note_on_c, 0, 68, 45
1, 122880, Note_on_c, 0, 46, 27
1, 122880, Note_on_c, 0, 41, 27
1, 122880, Note_on_c, 0, 53, 32
1, 123840, Note_on_c, 0, 53, 0
1, 123840, Note_on_c, 0, 46, 0
1, 123840, Note_on_c, 0, 58, 0
1, 123840, Note_on_c, 0, 62, 0
1, 123840, Note_on_c, 0, 56, 0
1, 123840, Note_on_c, 0, 41, 0
1, 123840, Note_on_c, 0, 68, 0
1, 124080, Tempo, 309278
1, 124080, Note_on_c, 0, 58, 40
1, 124200, Note_on_c, 0, 58, 0
1, 124320, Note_on_c, 0, 60, 37
1, 124440, Note_on_c, 0, 60, 0
1, 124560, Note_on_c, 0, 62, 37
1, 124680, Note_on_c, 0, 62, 0
1, 124800, Note_on_c, 0, 55, 39
1, 124800, Note_on_c, 0, 58, 39
1, 124800, Note_on_c, 0, 63, 46
1, 124800, Note_on_c, 0, 39, 26
1, 124800, Note_on_c, 0, 51, 31
1, 124920, Note_on_c, 0, 63, 0
1, 125040, Note_on_c, 0, 65, 40
1, 125160, Note_on_c, 0, 65, 0
1, 125280, Tempo, 326087
1, 125280, Note_on_c, 0, 67, 40
1, 125400, Note_on_c, 0, 67, 0
1, 125760, Tempo, 320000
1, 125760, Note_on_c, 0, 39, 0
1, 125760, Note_on_c, 0, 55, 0
1, 125760, Note_on_c, 0, 58, 0
1, 125760, Note_on_c, 0, 51, 0
1, 125760, Note_on_c, 0, 53, 38
1, 125760, Note_on_c, 0, 60, 38
1, 125760, Note_on_c, 0, 65, 45
1, 125760, Note_on_c, 0, 32, 25
1, 125760, Note_on_c, 0, 44, 30
1, 125880, Note_on_c, 0, 44, 0
1, 125880, Note_on_c, 0, 65, 0
1, 125880, Note_on_c, 0, 53, 0
1, 125880, Note_on_c, 0, 60, 0
1, 125880, Note_on_c, 0, 32, 0
1, 126240, Note_on_c, 0, 60, 33
1, 126240, Note_on_c, 0, 53, 33
1, 126240, Note_on_c, 0, 63, 39
1, 126240, Note_on_c, 0, 33, 23
1, 126240, Note_on_c, 0, 45, 27
1, 126360, Note_on_c, 0, 45, 0
1, 126360, Note_on_c, 0, 63, 0
1, 126360, Note_on_c, 0, 60, 0
1, 126360, Note_on_c, 0, 53, 0
1, 126360, Note_on_c, 0, 33, 0
1, 126480, Tempo, 390879
1, 126720, Tempo, 320000
1, 126720, Note_on_c, 0, 50, 31
1, 126720, Note_on_c, 0, 53, 31
1, 126720, Note_on_c, 0, 58, 37
1, 126720, Note_on_c, 0, 34, 22
1, 126720, Note_on_c, 0, 46, 27
1, 127680, Note_on_c, 0, 46, 0
1, 127680, Note_on_c, 0, 58, 0
1, 127680, Note_on_c, 0, 50, 0
1, 127680, Note_on_c, 0, 53, 0
1, 127680, Note_on_c, 0, 34, 0
1, 127920, Tempo, 309278
1, 127920, Note_on_c, 0, 58, 40
1, 128040, Note_on_c, 0, 58, 0
1, 128160, Note_on_c, 0, 60, 37
1, 128280, Note_on_c, 0, 60, 0
1, 128400, Note_on_c, 0, 62, 37
1, 128520, Note_on_c, 0, 62, 0
1, 128640, Note_on_c, 0, 55, 39
1, 128640, Note_on_c, 0, 58, 39
1, 128640, Note_on_c, 0, 63, 46
1, 128640, Note_on_c, 0, 39, 26
1, 128640, Note_on_c, 0, 51, 31
1, 128760, Note_on_c, 0, 63, 0
1, 128880, Note_on_c, 0, 65, 40
1, 129000, Note_on_c, 0, 65, 0
1, 129120, Tempo, 326087
1, 129120, Note_on_c, 0, 67, 40
1, 129240, Note_on_c, 0, 67, 0
1, 129600, Tempo, 320000
1, 129600, Note_on_c, 0, 39, 0
1, 129600, Note_on_c, 0, 55, 0
1, 129600, Note_on_c, 0, 58, 0
1, 129600, Note_on_c, 0, 51, 0
1, 129600, Note_on_c, 0, 58, 38
1, 129600, Note_on_c, 0, 62, 38
1, 129600, Note_on_c, 0, 65, 45
1, 129600, Note_on_c, 0, 44, 25
1, 129600, Note_on_c, 0, 56, 30
1, 129720, Note_on_c, 0, 56, 0
1, 129720, Note_on_c, 0, 65, 0
1, 129720, Note_on_c, 0, 58, 0
1, 129720, Note_on_c, 0, 62, 0
1, 129720, Note_on_c, 0, 44, 0
1, 130080, Note_on_c, 0, 58, 33
1, 130080, Note_on_c, 0, 63, 39
1, 130080, Note_on_c, 0, 43, 23
1, 130080, Note_on_c, 0, 55, 27
1, 130200, Note_on_c, 0, 55, 0
1, 130200, Note_on_c, 0, 58, 0
1, 130200, Note_on_c, 0, 63, 0
1, 130200, Note_on_c, 0, 43, 0
1, 130320, Tempo, 502092
1, 130440, Tempo, 353982
1, 130455, Note_on_c, 0, 44, 28
1, 130470, Note_on_c, 0, 48, 32
1, 130485, Note_on_c, 0, 51, 36
1, 130500, Note_on_c, 0, 56, 40
1, 130515, Note_on_c, 0, 60, 45
1, 130530, Note_on_c, 0, 63, 50
1, 130545, Note_on_c, 0, 68, 63
1, 130560, Tempo, 308483
1, 130560, Note_on_c, 0, 72, 72
1, 131040, Note_on_c, 0, 56, 0
1, 131040, Note_on_c, 0, 51, 0
1, 131040, Note_on_c, 0, 44, 0
1, 131040, Note_on_c, 0, 48, 0
1, 131520, Note_on_c, 0, 60, 0
1, 131520, Note_on_c, 0, 68, 0
1, 131520, Note_on_c, 0, 63, 0
1, 131760, Note_on_c, 0, 72, 0
1, 131760, Note_on_c, 0, 72, 48
1, 131880, Note_on_c, 0, 72, 0
1, 132000, Note_on_c, 0, 70, 53
1, 132120, Note_on_c, 0, 70, 0
1, 132240, Tempo, 349854
1, 132240, Note_on_c, 0, 68, 50
1, 132360, Note_on_c, 0, 68, 0
1, 132480, Tempo, 307692
1, 132480, Note_on_c, 0, 67, 53
1, 132480, Note_on_c, 0, 46, 80
1, 132720, Note_on_c, 0, 67, 0
1, 132720, Note_on_c, 0, 65, 48
1, 132960, Note_on_c, 0, 65, 0
1, 132960, Note_on_c, 0, 63, 48
1, 133080, Note_on_c, 0, 63, 0
1, 133200, Note_on_c, 0, 62, 48
1, 133320, Note_on_c, 0, 62, 0
1, 133440, Note_on_c, 0, 53, 45
1, 133440, Note_on_c, 0, 56, 45
1, 133440, Note_on_c, 0, 60, 53
1, 133680, Note_on_c, 0, 34, 49
1, 133800, Note_on_c, 0, 34, 0
1, 133920, Note_on_c, 0, 60, 0
1, 133920, Note_on_c, 0, 58, 49
1, 133920, Note_on_c, 0, 36, 53
1, 134040, Note_on_c, 0, 36, 0
1, 134160, Tempo, 319149
1, 134160, Note_on_c, 0, 38, 45
1, 134280, Note_on_c, 0, 38, 0
1, 134400, Tempo, 303797
1, 134400, Note_on_c, 0, 58, 0
1, 134400, Note_on_c, 0, 56, 0
1, 134400, Note_on_c, 0, 53, 0
1, 134400, Note_on_c, 0, 51, 41
1, 134400, Note_on_c, 0, 55, 41
1, 134400, Note_on_c, 0, 58, 49
1, 134400, Note_on_c, 0, 39, 53
1, 134520, Note_on_c, 0, 39, 0
1, 134640, Note_on_c, 0, 41, 49
1, 134760, Note_on_c, 0, 41, 0
1, 134880, Note_on_c, 0, 43, 51
1, 135000, Note_on_c, 0, 43, 0
1, 135360, Tempo, 305344
1, 135360, Note_on_c, 0, 55, 0
1, 135360, Note_on_c, 0, 58, 0
1, 135360, Note_on_c, 0, 51, 0
1, 135360, Note_on_c, 0, 41, 53
1, 135600, Note_on_c, 0, 70, 48
1, 135720, Note_on_c, 0, 70, 0
1, 135840, Note_on_c, 0, 41, 0
1, 135840, Note_on_c, 0, 68, 53
1, 135840, Note_on_c, 0, 39, 50
1, 135960, Note_on_c, 0, 68, 0
1, 136080, Tempo, 339943
1, 136080, Note_on_c, 0, 67, 50
1, 136200, Note_on_c, 0, 67, 0
1, 136320, Tempo, 306122
1, 136320, Note_on_c, 0, 39, 0
1, 136320, Note_on_c, 0, 46, 0
1, 136320, Note_on_c, 0, 67, 53
1, 136320, Note_on_c, 0, 46, 80
1, 136560, Note_on_c, 0, 67, 0
1, 136560, Note_on_c, 0, 65, 48
1, 136800, Note_on_c, 0, 65, 0
1, 136800, Note_on_c, 0, 63, 48
1, 136920, Note_on_c, 0, 63, 0
1, 137040, Note_on_c, 0, 62, 48
1, 137160, Note_on_c, 0, 62, 0
1, 137280, Note_on_c, 0, 53, 45
1, 137280, Note_on_c, 0, 56, 45
1, 137280, Note_on_c, 0, 60, 53
1, 137520, Note_on_c, 0, 34, 49
1, 137640, Note_on_c, 0, 34, 0
1, 137760, Note_on_c, 0, 60, 0
1, 137760, Note_on_c, 0, 58, 49
1, 137760, Note_on_c, 0, 36, 53
1, 137880, Note_on_c, 0, 36, 0
1, 138000, Tempo, 315789
1, 138000, Note_on_c, 0, 38, 45
1, 138120, Note_on_c, 0, 38, 0
1, 138240, Tempo, 302267
1, 138240, Note_on_c, 0, 58, 0
1, 138240, Note_on_c, 0, 56, 0
1, 138240, Note_on_c, 0, 53, 0
1, 138240, Note_on_c, 0, 51, 54
1, 138240, Note_on_c, 0, 55, 54
1, 138240, Note_on_c, 0, 58, 54
1, 138240, Note_on_c, 0, 39, 53
1, 138360, Tempo, 302267
1, 138360, Note_on_c, 0, 39, 0
1, 138480, Note_on_c, 0, 41, 49
1, 138600, Note_on_c, 0, 41, 0
1, 138720, Note_on_c, 0, 43, 51
1, 138840, Note_on_c, 0, 43, 0
1, 139200, Tempo, 306905
1, 139200, Note_on_c, 0, 55, 0
1, 139200, Note_on_c, 0, 58, 0
1, 139200, Note_on_c, 0, 51, 0
1, 139200, Note_on_c, 0, 41, 53
1, 139440, Note_on_c, 0, 82, 48
1, 139440, Note_on_c, 0, 70, 48
1, 139560, Note_on_c, 0, 70, 0
1, 139560, Note_on_c, 0, 82, 0
1, 139680, Note_on_c, 0, 41, 0
1, 139680, Note_on_c, 0, 80, 53
1, 139680, Note_on_c, 0, 68, 53
1, 139680, Note_on_c, 0, 39, 50
1, 139800, Note_on_c, 0, 68, 0
1, 139800, Note_on_c, 0, 80, 0
1, 139920, Tempo, 320856
1, 139920, Note_on_c, 0, 79, 50
1, 139920, Note_on_c, 0, 67, 50
1, 140040, Note_on_c, 0, 67, 0
1, 140040, Note_on_c, 0, 79, 0
1, 140160, Tempo, 304569
1, 140160, Note_on_c, 0, 46, 0
1, 140160, Note_on_c, 0, 39, 0
1, 140160, Note_on_c, 0, 79, 55
1, 140160, Note_on_c, 0, 67, 55
1, 140160, Note_on_c, 0, 44, 45
1, 140160, Note_on_c, 0, 48, 45
1, 140160, Note_on_c, 0, 53, 53
1, 140400, Note_on_c, 0, 67, 0
1, 140400, Note_on_c, 0, 79, 0
1, 140400, Note_on_c, 0, 77, 48
1, 140400, Note_on_c, 0, 65, 48
1, 140640, Note_on_c, 0, 65, 0
1, 140640, Note_on_c, 0, 48, 0
1, 140640, Note_on_c, 0, 53, 0
1, 140640, Note_on_c, 0, 44, 0
1, 140640, Note_on_c, 0, 77, 0
1, 140640, Note_on_c, 0, 75, 48
1, 140640, Note_on_c, 0, 63, 48
1, 140760, Note_on_c, 0, 63, 0
1, 140760, Note_on_c, 0, 75, 0
1, 140880, Note_on_c, 0, 74, 48
1, 140880, Note_on_c, 0, 62, 48
1, 141000, Note_on_c, 0, 62, 0
1, 141000, Note_on_c, 0, 74, 0
1, 141120, Tempo, 305344
1, 141120, Note_on_c, 0, 60, 55
1, 141120, Note_on_c, 0, 72, 55
1, 141120, Note_on_c, 0, 53, 42
1, 141120, Note_on_c, 0, 46, 42
1, 141120, Note_on_c, 0, 56, 50
1, 141240, Note_on_c, 0, 72, 0
1, 141240, Note_on_c, 0, 60, 0
1, 141360, Note_on_c, 0, 58, 48
1, 141360, Note_on_c, 0, 70, 48
1, 141480, Note_on_c, 0, 70, 0
1, 141480, Note_on_c, 0, 58, 0
1, 141600, Note_on_c, 0, 56, 0
1, 141600, Note_on_c, 0, 53, 0
1, 141600, Note_on_c, 0, 46, 0
1, 141600, Note_on_c, 0, 60, 48
1, 141600, Note_on_c, 0, 72, 48
1, 141720, Note_on_c, 0, 72, 0
1, 141720, Note_on_c, 0, 60, 0
1, 141840, Tempo, 326975
1, 141840, Note_on_c, 0, 62, 48
1, 141840, Note_on_c, 0, 74, 48
1, 141960, Note_on_c, 0, 74, 0
1, 141960, Note_on_c, 0, 62, 0
1, 142070, Tempo, 308483
1, 142080, Note_on_c, 0, 63, 48
1, 142080, Note_on_c, 0, 51, 49
1, 142080, Note_on_c, 0, 55, 58
1, 142085, Tempo, 307692
1, 142100, Tempo, 306905
1, 142115, Tempo, 306122
1, 142130, Tempo, 305344
1, 142144, Control_c, 0, 64, 127
1, 142145, Tempo, 304569
1, 142190, Tempo, 303797
1, 142200, Note_on_c, 0, 63, 0
1, 142200, Note_on_c, 0, 75, 43
1, 142280, Tempo, 306122
1, 142295, Tempo, 306905
1, 142310, Tempo, 307692
1, 142320, Note_on_c, 0, 75, 0
1, 142320, Note_on_c, 0, 63, 48
1, 142340, Tempo, 308483
1, 142370, Tempo, 304569
1, 142400, Tempo, 303797
1, 142430, Tempo, 303030
1, 142440, Note_on_c, 0, 63, 0
1, 142440, Note_on_c, 0, 75, 42
1, 142475, Tempo, 304569
1, 142490, Tempo, 306122
1, 142560, Note_on_c, 0, 75, 0
1, 142560, Note_on_c, 0, 55, 0
1, 142560, Note_on_c, 0, 51, 0
1, 142560, Note_on_c, 0, 63, 49
1, 142580, Tempo, 307692
1, 142625, Tempo, 306905
1, 142640, Tempo, 305344
1, 142655, Tempo, 304569
1, 142670, Tempo, 303797
1, 142680, Note_on_c, 0, 63, 0
1, 142680, Note_on_c, 0, 75, 43
1, 142685, Tempo, 303030
1, 142715, Tempo, 303797
1, 142760, Tempo, 304569
1, 142790, Tempo, 305344
1, 142800, Note_on_c, 0, 75, 0
1, 142800, Note_on_c, 0, 63, 50
1, 142800, Note_on_c, 0, 51, 54
1, 142805, Tempo, 306122
1, 142820, Tempo, 306905
1, 142835, Tempo, 308483
1, 142850, Tempo, 309278
1, 142880, Tempo, 306905
1, 142910, Tempo, 305344
1, 142920, Note_on_c, 0, 63, 0
1, 142920, Note_on_c, 0, 75, 45
1, 142925, Tempo, 304569
1, 142940, Tempo, 303797
1, 143015, Tempo, 304569
1, 143030, Tempo, 305344
1, 143040, Note_on_c, 0, 75, 0
1, 143040, Note_on_c, 0, 51, 0
1, 143040, Note_on_c, 0, 63, 51
1, 143040, Note_on_c, 0, 50, 60
1, 143045, Tempo, 306122
1, 143051, Control_c, 0, 64, 0
1, 143060, Tempo, 306905
1, 143075, Tempo, 307692
1, 143090, Tempo, 308483
1, 143105, Tempo, 309278
1, 143120, Tempo, 310078
1, 143132, Control_c, 0, 64, 127
1, 143135, Tempo, 310881
1, 143160, Note_on_c, 0, 63, 0
1, 143160, Note_on_c, 0, 75, 44
1, 143180, Tempo, 310078
1, 143195, Tempo, 306122
1, 143210, Tempo, 305344
1, 143225, Tempo, 303797
1, 143240, Tempo, 303030
1, 143280, Note_on_c, 0, 75, 0
1, 143280, Note_on_c, 0, 50, 0
1, 143280, Note_on_c, 0, 63, 52
1, 143280, Note_on_c, 0, 51, 55
1, 143285, Tempo, 302267
1, 143300, Tempo, 303030
1, 143315, Tempo, 303797
1, 143330, Tempo, 304569
1, 143360, Tempo, 305344
1, 143390, Tempo, 306122
1, 143400, Note_on_c, 0, 63, 0
1, 143400, Note_on_c, 0, 75, 47
1, 143435, Tempo, 305344
1, 143450, Tempo, 304569
1, 143480, Tempo, 303797
1, 143495, Tempo, 304569
1, 143510, Tempo, 305344
1, 143520, Note_on_c, 0, 75, 0
1, 143520, Note_on_c, 0, 51, 0
1, 143520, Note_on_c, 0, 63, 53
1, 143520, Note_on_c, 0, 48, 52
1, 143520, Note_on_c, 0, 56, 62
1, 143530, Control_c, 0, 64, 0
1, 143591, Control_c, 0, 64, 127
1, 143640, Note_on_c, 0, 56, 0
1, 143640, Note_on_c, 0, 48, 0
1, 143640, Note_on_c, 0, 63, 0
1, 143640, Note_on_c, 0, 75, 47
1, 143760, Tempo, 316623
1, 143760, Note_on_c, 0, 75, 0
1, 143760, Note_on_c, 0, 63, 53
1, 143760, Note_on_c, 0, 56, 57
1, 143760, Note_on_c, 0, 48, 48
1, 143880, Note_on_c, 0, 48, 0
1, 143880, Note_on_c, 0, 56, 0
1, 143880, Note_on_c, 0, 63, 0
1, 143880, Note_on_c, 0, 75, 47
1, 144000, Tempo, 308483
1, 144000, Note_on_c, 0, 75, 0
1, 144000, Note_on_c, 0, 63, 54
1, 144000, Note_on_c, 0, 55, 65
1, 144000, Note_on_c, 0, 46, 55
1, 144000, Control_c, 0, 64, 0
1, 144005, Tempo, 307692
1, 144020, Tempo, 306905
1, 144035, Tempo, 306122
1, 144050, Tempo, 305344
1, 144065, Tempo, 304569
1, 144110, Tempo, 303797
1, 144120, Note_on_c, 0, 63, 0
1, 144120, Note_on_c, 0, 75, 48
1, 144180, Control_c, 0, 64, 127
1, 144200, Tempo, 306122
1, 144215, Tempo, 306905
1, 144230, Tempo, 307692
1, 144240, Note_on_c, 0, 75, 0
1, 144240, Note_on_c, 0, 63, 55
1, 144260, Tempo, 308483
1, 144290, Tempo, 304569
1, 144320, Tempo, 303797
1, 144350, Tempo, 303030
1, 144360, Note_on_c, 0, 63, 0
1, 144360, Note_on_c, 0, 75, 48
1, 144395, Tempo, 304569
1, 144410, Tempo, 306122
1, 144480, Note_on_c, 0, 75, 0
1, 144480, Note_on_c, 0, 46, 0
1, 144480, Note_on_c, 0, 55, 0
1, 144480, Note_on_c, 0, 63, 55
1, 144500, Tempo, 307692
1, 144545, Tempo, 306905
1, 144560, Tempo, 305344
1, 144575, Tempo, 304569
1, 144590, Tempo, 303797
1, 144600, Note_on_c, 0, 63, 0
1, 144600, Note_on_c, 0, 75, 48
1, 144605, Tempo, 303030
1, 144635, Tempo, 303797
1, 144680, Tempo, 304569
1, 144710, Tempo, 305344
1, 144720, Note_on_c, 0, 75, 0
1, 144720, Note_on_c, 0, 63, 56
1, 144720, Note_on_c, 0, 51, 61
1, 144725, Tempo, 306122
1, 144740, Tempo, 306905
1, 144755, Tempo, 308483
1, 144770, Tempo, 309278
1, 144800, Tempo, 306905
1, 144830, Tempo, 305344
1, 144840, Note_on_c, 0, 63, 0
1, 144840, Note_on_c, 0, 75, 51
1, 144845, Tempo, 304569
1, 144860, Tempo, 303797
1, 144935, Tempo, 304569
1, 144950, Tempo, 305344
1, 144960, Note_on_c, 0, 75, 0
1, 144960, Note_on_c, 0, 51, 0
1, 144960, Note_on_c, 0, 63, 57
1, 144960, Note_on_c, 0, 50, 68
1, 144965, Tempo, 306122
1, 144971, Control_c, 0, 64, 0
1, 144980, Tempo, 306905
1, 144995, Tempo, 307692
1, 145010, Tempo, 308483
1, 145025, Tempo, 309278
1, 145040, Tempo, 310078
1, 145052, Control_c, 0, 64, 127
1, 145055, Tempo, 310881
1, 145080, Note_on_c, 0, 63, 0
1, 145080, Note_on_c, 0, 75, 49
1, 145100, Tempo, 310078
1, 145115, Tempo, 306122
1, 145130, Tempo, 305344
1, 145145, Tempo, 303797
1, 145160, Tempo, 303030
1, 145200, Note_on_c, 0, 75, 0
1, 145200, Note_on_c, 0, 50, 0
1, 145200, Note_on_c, 0, 63, 58
1, 145200, Note_on_c, 0, 51, 63
1, 145205, Tempo, 302267
1, 145220, Tempo, 303030
1, 145235, Tempo, 303797
1, 145250, Tempo, 304569
1, 145280, Tempo, 305344
1, 145310, Tempo, 306122
1, 145320, Note_on_c, 0, 63, 0
1, 145320, Note_on_c, 0, 75, 53
1, 145355, Tempo, 305344
1, 145370, Tempo, 304569
1, 145400, Tempo, 303797
1, 145415, Tempo, 304569
1, 145430, Tempo, 305344
1, 145440, Note_on_c, 0, 75, 0
1, 145440, Note_on_c, 0, 51, 0
1, 145440, Note_on_c, 0, 63, 59
1, 145440, Note_on_c, 0, 56, 58
1, 145440, Note_on_c, 0, 60, 69
1, 145450, Control_c, 0, 64, 0
1, 145511, Control_c, 0, 64, 127
1, 145560, Note_on_c, 0, 60, 0
1, 145560, Note_on_c, 0, 56, 0
1, 145560, Note_on_c, 0, 63, 0
1, 145560, Note_on_c, 0, 75, 54
1, 145680, Tempo, 316623
1, 145680, Note_on_c, 0, 75, 0
1, 145680, Note_on_c, 0, 63, 60
1, 145680, Note_on_c, 0, 56, 54
1, 145680, Note_on_c, 0, 60, 64
1, 145800, Note_on_c, 0, 60, 0
1, 145800, Note_on_c, 0, 56, 0
1, 145800, Note_on_c, 0, 63, 0
1, 145800, Note_on_c, 0, 75, 54
1, 145920, Note_on_c, 0, 75, 0
1, 145920, Note_on_c, 0, 63, 70
1, 145920, Note_on_c, 0, 75, 70
1, 145920, Note_on_c, 0, 55, 71
1, 145920, Note_on_c, 0, 58, 71
1, 145920, Control_c, 0, 64, 0
1, 145923, Tempo, 306905
1, 145953, Tempo, 309278
1, 146013, Tempo, 306122
1, 146019, Control_c, 0, 64, 127
1, 146043, Tempo, 305344
1, 146133, Tempo, 306905
1, 146160, Note_on_c, 0, 58, 0
1, 146160, Note_on_c, 0, 55, 0
1, 146160, Note_on_c, 0, 51, 62
1, 146163, Tempo, 306122
1, 146193, Tempo, 304569
1, 146223, Tempo, 303797
1, 146280, Note_on_c, 0, 51, 0
1, 146280, Note_on_c, 0, 63, 54
1, 146313, Tempo, 305344
1, 146373, Tempo, 306122
1, 146400, Note_on_c, 0, 63, 0
1, 146400, Note_on_c, 0, 75, 0
1, 146400, Note_on_c, 0, 63, 0
1, 146400, Note_on_c, 0, 51, 63
1, 146403, Tempo, 306905
1, 146433, Tempo, 308483
1, 146493, Tempo, 307692
1, 146520, Note_on_c, 0, 51, 0
1, 146520, Note_on_c, 0, 63, 56
1, 146553, Tempo, 304569
1, 146583, Tempo, 303797
1, 146640, Note_on_c, 0, 63, 0
1, 146640, Note_on_c, 0, 75, 74
1, 146640, Note_on_c, 0, 51, 63
1, 146643, Tempo, 304569
1, 146673, Tempo, 307692
1, 146703, Tempo, 308483
1, 146760, Note_on_c, 0, 51, 0
1, 146760, Note_on_c, 0, 63, 57
1, 146793, Tempo, 305344
1, 146880, Note_on_c, 0, 63, 0
1, 146880, Note_on_c, 0, 75, 0
1, 146880, Note_on_c, 0, 74, 84
1, 146880, Note_on_c, 0, 51, 63
1, 146894, Control_c, 0, 64, 0
1, 146972, Control_c, 0, 64, 127
1, 146973, Tempo, 307692
1, 147000, Note_on_c, 0, 51, 0
1, 147000, Note_on_c, 0, 63, 55
1, 147033, Tempo, 308483
1, 147120, Note_on_c, 0, 63, 0
1, 147120, Note_on_c, 0, 74, 0
1, 147120, Note_on_c, 0, 75, 77
1, 147120, Note_on_c, 0, 51, 64
1, 147123, Tempo, 307692
1, 147153, Tempo, 306905
1, 147183, Tempo, 306122
1, 147213, Tempo, 305344
1, 147240, Note_on_c, 0, 51, 0
1, 147240, Note_on_c, 0, 63, 59
1, 147360, Tempo, 341880
1, 147360, Note_on_c, 0, 63, 0
1, 147360, Note_on_c, 0, 75, 0
1, 147360, Note_on_c, 0, 84, 86
1, 147360, Note_on_c, 0, 80, 86
1, 147360, Note_on_c, 0, 51, 65
1, 147366, Control_c, 0, 64, 0
1, 147438, Control_c, 0, 64, 127
1, 147480, Note_on_c, 0, 51, 0
1, 147480, Note_on_c, 0, 80, 0
1, 147480, Note_on_c, 0, 84, 0
1, 147480, Note_on_c, 0, 63, 58
1, 147600, Tempo, 465116
1, 147600, Note_on_c, 0, 63, 0
1, 147600, Note_on_c, 0, 80, 79
1, 147600, Note_on_c, 0, 84, 79
1, 147600, Note_on_c, 0, 51, 66
1, 147720, Note_on_c, 0, 51, 0
1, 147720, Note_on_c, 0, 84, 0
1, 147720, Note_on_c, 0, 80, 0
1, 147720, Note_on_c, 0, 63, 61
1, 147813, Tempo, 307692
1, 147840, Note_on_c, 0, 63, 0
1, 147840, Note_on_c, 0, 80, 92
1, 147840, Note_on_c, 0, 84, 92
1, 147840, Note_on_c, 0, 53, 49
1, 147840, Note_on_c, 0, 50, 49
1, 147840, Note_on_c, 0, 56, 49
1, 147840, Note_on_c, 0, 58, 49
1, 147840, Control_c, 0, 64, 0
1, 147867, Note_on_c, 0, 62, 66
1, 148046, Control_c, 0, 64, 127
1, 148320, Note_on_c, 0, 80, 0
1, 148440, Note_on_c, 0, 84, 0
1, 148440, Note_on_c, 0, 82, 74
1, 148560, Note_on_c, 0, 82, 0
1, 148560, Note_on_c, 0, 80, 73
1, 148573, Tempo, 303797
1, 148680, Note_on_c, 0, 80, 0
1, 148680, Note_on_c, 0, 79, 72
1, 148800, Note_on_c, 0, 79, 0
1, 148800, Note_on_c, 0, 77, 72
1, 148873, Tempo, 304569
1, 148920, Note_on_c, 0, 77, 0
1, 148920, Note_on_c, 0, 75, 72
1, 149040, Note_on_c, 0, 75, 0
1, 149040, Note_on_c, 0, 74, 71
1, 149160, Note_on_c, 0, 74, 0
1, 149160, Note_on_c, 0, 72, 70
1, 149173, Tempo, 305344
1, 149280, Note_on_c, 0, 72, 0
1, 149280, Note_on_c, 0, 71, 69
1, 149400, Note_on_c, 0, 71, 0
1, 149400, Note_on_c, 0, 70, 68
1, 149473, Tempo, 306122
1, 149520, Note_on_c, 0, 70, 0
1, 149520, Note_on_c, 0, 69, 67
1, 149640, Note_on_c, 0, 69, 0
1, 149640, Note_on_c, 0, 68, 66
1, 149760, Note_on_c, 0, 68, 0
1, 149760, Note_on_c, 0, 58, 0
1, 149760, Note_on_c, 0, 56, 0
1, 149760, Note_on_c, 0, 50, 0
1, 149760, Note_on_c, 0, 53, 0
1, 149760, Note_on_c, 0, 67, 66
1, 149760, Note_on_c, 0, 55, 49
1, 149760, Note_on_c, 0, 51, 49
1, 149760, Note_on_c, 0, 63, 66
1, 149760, Note_on_c, 0, 58, 49
1, 149760, Control_c, 0, 64, 0
1, 149773, Tempo, 306122
1, 149787, Note_on_c, 0, 62, 0
1, 149920, Note_on_c, 0, 67, 0
1, 149920, Note_on_c, 0, 68, 62
1, 149944, Control_c, 0, 64, 127
1, 150080, Note_on_c, 0, 68, 0
1, 150080, Note_on_c, 0, 70, 62
1, 150240, Note_on_c, 0, 70, 0
1, 150240, Note_on_c, 0, 63, 0
1, 150240, Note_on_c, 0, 51, 0
1, 150240, Note_on_c, 0, 58, 0
1, 150240, Note_on_c, 0, 55, 0
1, 150240, Note_on_c, 0, 68, 66
1, 150373, Tempo, 304569
1, 150400, Note_on_c, 0, 68, 0
1, 150400, Note_on_c, 0, 67, 62
1, 150493, Tempo, 305344
1, 150560, Note_on_c, 0, 67, 0
1, 150560, Note_on_c, 0, 65, 62
1, 150613, Tempo, 306122
1, 150720, Note_on_c, 0, 65, 0
1, 150720, Note_on_c, 0, 63, 66
1, 150725, Control_c, 0, 64, 0
1, 150733, Tempo, 306905
1, 150798, Control_c, 0, 64, 127
1, 150853, Tempo, 307692
1, 150880, Note_on_c, 0, 63, 0
1, 150880, Note_on_c, 0, 62, 62
1, 151040, Note_on_c, 0, 62, 0
1, 151040, Note_on_c, 0, 60, 62
1, 151200, Note_on_c, 0, 60, 0
1, 151200, Note_on_c, 0, 58, 66
1, 151360, Note_on_c, 0, 58, 0
1, 151360, Note_on_c, 0, 56, 60
1, 151440, Tempo, 318302
1, 151520, Note_on_c, 0, 56, 0
1, 151520, Note_on_c, 0, 55, 63
1, 151680, Tempo, 320856
1, 151680, Note_on_c, 0, 55, 0
1, 151680, Note_on_c, 0, 44, 73
1, 151680, Note_on_c, 0, 32, 73
1, 151680, Control_c, 0, 64, 0
1, 151772, Control_c, 0, 64, 127
1, 151800, Note_on_c, 0, 53, 59
1, 151920, Tempo, 306905
1, 151920, Note_on_c, 0, 53, 0
1, 151920, Note_on_c, 0, 32, 0
1, 151920, Note_on_c, 0, 44, 0
1, 151920, Note_on_c, 0, 56, 63
1, 152040, Note_on_c, 0, 56, 0
1, 152040, Note_on_c, 0, 60, 67
1, 152160, Note_on_c, 0, 60, 0
1, 152160, Note_on_c, 0, 65, 72
1, 152176, Control_c, 0, 64, 0
1, 152400, Note_on_c, 0, 65, 0
1, 152400, Note_on_c, 0, 44, 63
1, 152400, Note_on_c, 0, 32, 63
1, 152520, Note_on_c, 0, 32, 0
1, 152520, Note_on_c, 0, 44, 0
1, 152640, Tempo, 318302
1, 152640, Note_on_c, 0, 34, 70
1, 152640, Note_on_c, 0, 46, 70
1, 152718, Control_c, 0, 64, 127
1, 152760, Note_on_c, 0, 53, 63
1, 152880, Tempo, 306905
1, 152880, Note_on_c, 0, 53, 0
1, 152880, Note_on_c, 0, 46, 0
1, 152880, Note_on_c, 0, 34, 0
1, 152880, Note_on_c, 0, 56, 66
1, 153000, Note_on_c, 0, 56, 0
1, 153000, Note_on_c, 0, 58, 69
1, 153120, Note_on_c, 0, 58, 0
1, 153120, Note_on_c, 0, 62, 72
1, 153134, Control_c, 0, 64, 0
1, 153360, Tempo, 324324
1, 153360, Note_on_c, 0, 62, 0
1, 153360, Note_on_c, 0, 46, 63
1, 153360, Note_on_c, 0, 34, 63
1, 153480, Note_on_c, 0, 34, 0
1, 153480, Note_on_c, 0, 46, 0
1, 153578, Tempo, 308483
1, 153600, Note_on_c, 0, 74, 67
1, 153600, Control_c, 0, 64, 127
1, 153720, Note_on_c, 0, 74, 0
1, 153720, Note_on_c, 0, 86, 60
1, 153758, Tempo, 307692
1, 153840, Note_on_c, 0, 86, 0
1, 153840, Note_on_c, 0, 74, 67
1, 153840, Note_on_c, 0, 68, 63
1, 153908, Tempo, 306905
1, 153960, Note_on_c, 0, 68, 0
1, 153960, Note_on_c, 0, 74, 0
1, 153960, Note_on_c, 0, 86, 60
1, 153960, Note_on_c, 0, 70, 65
1, 154080, Note_on_c, 0, 70, 0
1, 154080, Note_on_c, 0, 86, 0
1, 154080, Note_on_c, 0, 74, 67
1, 154080, Note_on_c, 0, 72, 69
1, 154088, Tempo, 306122
1, 154200, Note_on_c, 0, 72, 0
1, 154200, Note_on_c, 0, 74, 0
1, 154200, Note_on_c, 0, 86, 59
1, 154200, Note_on_c, 0, 70, 67
1, 154238, Tempo, 305344
1, 154320, Note_on_c, 0, 70, 0
1, 154320, Note_on_c, 0, 86, 0
1, 154320, Note_on_c, 0, 74, 67
1, 154320, Note_on_c, 0, 68, 65
1, 154358, Tempo, 303030
1, 154440, Note_on_c, 0, 68, 0
1, 154440, Note_on_c, 0, 74, 0
1, 154440, Note_on_c, 0, 86, 61
1, 154440, Note_on_c, 0, 67, 64
1, 154560, Note_on_c, 0, 67, 0
1, 154560, Note_on_c, 0, 86, 0
1, 154560, Note_on_c, 0, 74, 67
1, 154560, Note_on_c, 0, 65, 67
1, 154680, Note_on_c, 0, 74, 0
1, 154680, Note_on_c, 0, 86, 59
1, 154688, Tempo, 303797
1, 154720, Note_on_c, 0, 65, 0
1, 154720, Note_on_c, 0, 63, 61
1, 154800, Note_on_c, 0, 86, 0
1, 154800, Note_on_c, 0, 74, 67
1, 154880, Note_on_c, 0, 63, 0
1, 154880, Note_on_c, 0, 62, 61
1, 154920, Note_on_c, 0, 74, 0
1, 154920, Note_on_c, 0, 86, 59
1, 155018, Tempo, 304569
1, 155040, Note_on_c, 0, 86, 0
1, 155040, Note_on_c, 0, 62, 0
1, 155040, Note_on_c, 0, 74, 67
1, 155040, Note_on_c, 0, 60, 67
1, 155160, Note_on_c, 0, 74, 0
1, 155160, Note_on_c, 0, 86, 59
1, 155200, Note_on_c, 0, 60, 0
1, 155200, Note_on_c, 0, 58, 62
1, 155280, Note_on_c, 0, 86, 0
1, 155280, Note_on_c, 0, 74, 67
1, 155348, Tempo, 305344
1, 155360, Note_on_c, 0, 58, 0
1, 155360, Note_on_c, 0, 56, 62
1, 155400, Note_on_c, 0, 74, 0
1, 155400, Note_on_c, 0, 86, 60
1, 155520, Tempo, 308483
1, 155520, Note_on_c, 0, 86, 0
1, 155520, Note_on_c, 0, 56, 0
1, 155520, Note_on_c, 0, 75, 67
1, 155520, Note_on_c, 0, 55, 67
1, 155532, Control_c, 0, 64, 0
1, 155612, Control_c, 0, 64, 127
1, 155640, Note_on_c, 0, 75, 0
1, 155640, Note_on_c, 0, 87, 60
1, 155678, Tempo, 307692
1, 155680, Note_on_c, 0, 55, 0
1, 155680, Note_on_c, 0, 56, 63
1, 155760, Note_on_c, 0, 87, 0
1, 155760, Note_on_c, 0, 75, 69
1, 155828, Tempo, 306905
1, 155840, Note_on_c, 0, 56, 0
1, 155840, Note_on_c, 0, 58, 63
1, 155880, Note_on_c, 0, 75, 0
1, 155880, Note_on_c, 0, 87, 62
1, 156000, Note_on_c, 0, 87, 0
1, 156000, Note_on_c, 0, 58, 0
1, 156000, Note_on_c, 0, 75, 71
1, 156000, Note_on_c, 0, 56, 67
1, 156008, Tempo, 306122
1, 156120, Note_on_c, 0, 75, 0
1, 156120, Note_on_c, 0, 87, 63
1, 156158, Tempo, 305344
1, 156160, Note_on_c, 0, 56, 0
1, 156160, Note_on_c, 0, 55, 60
1, 156240, Note_on_c, 0, 87, 0
1, 156240, Note_on_c, 0, 75, 72
1, 156278, Tempo, 303030
1, 156320, Note_on_c, 0, 55, 0
1, 156320, Note_on_c, 0, 53, 60
1, 156360, Note_on_c, 0, 75, 0
1, 156360, Note_on_c, 0, 87, 67
1, 156480, Note_on_c, 0, 87, 0
1, 156480, Note_on_c, 0, 53, 0
1, 156480, Note_on_c, 0, 75, 75
1, 156480, Note_on_c, 0, 51, 70
1, 156499, Control_c, 0, 64, 0
1, 156589, Control_c, 0, 64, 127
1, 156600, Note_on_c, 0, 75, 0
1, 156600, Note_on_c, 0, 87, 67
1, 156608, Tempo, 303797
1, 156640, Note_on_c, 0, 51, 0
1, 156640, Note_on_c, 0, 50, 63
1, 156720, Note_on_c, 0, 87, 0
1, 156720, Note_on_c, 0, 75, 77
1, 156800, Note_on_c, 0, 50, 0
1, 156800, Note_on_c, 0, 48, 66
1, 156840, Note_on_c, 0, 75, 0
1, 156840, Note_on_c, 0, 87, 69
1, 156938, Tempo, 304569
1, 156960, Note_on_c, 0, 87, 0
1, 156960, Note_on_c, 0, 48, 0
1, 156960, Note_on_c, 0, 76, 80
1, 156960, Note_on_c, 0, 46, 74
1, 156980, Control_c, 0, 64, 0
1, 157080, Note_on_c, 0, 76, 0
1, 157080, Note_on_c, 0, 88, 71
1, 157080, Control_c, 0, 64, 127
1, 157120, Note_on_c, 0, 46, 0
1, 157120, Note_on_c, 0, 44, 67
1, 157200, Note_on_c, 0, 88, 0
1, 157200, Note_on_c, 0, 76, 81
1, 157268, Tempo, 305344
1, 157280, Note_on_c, 0, 44, 0
1, 157280, Note_on_c, 0, 43, 67
1, 157320, Note_on_c, 0, 76, 0
1, 157320, Note_on_c, 0, 88, 73
1, 157440, Tempo, 320856
1, 157440, Note_on_c, 0, 88, 0
1, 157440, Note_on_c, 0, 43, 0
1, 157440, Note_on_c, 0, 44, 73
1, 157440, Note_on_c, 0, 32, 73
1, 157440, Control_c, 0, 64, 0
1, 157532, Control_c, 0, 64, 127
1, 157560, Note_on_c, 0, 77, 71
1, 157680, Tempo, 306905
1, 157680, Note_on_c, 0, 77, 0
1, 157680, Note_on_c, 0, 32, 0
1, 157680, Note_on_c, 0, 44, 0
1, 157680, Note_on_c, 0, 80, 76
1, 157800, Note_on_c, 0, 80, 0
1, 157800, Note_on_c, 0, 84, 81
1, 157920, Note_on_c, 0, 84, 0
1, 157920, Note_on_c, 0, 89, 86
1, 157936, Control_c, 0, 64, 0
1, 158160, Note_on_c, 0, 89, 0
1, 158160, Note_on_c, 0, 32, 63
1, 158160, Note_on_c, 0, 44, 63
1, 158280, Note_on_c, 0, 44, 0
1, 158280, Note_on_c, 0, 32, 0
1, 158400, Tempo, 318302
1, 158400, Note_on_c, 0, 34, 70
1, 158400, Note_on_c, 0, 46, 70
1, 158478, Control_c, 0, 64, 127
1, 158520, Note_on_c, 0, 74, 75
1, 158640, Tempo, 306905
1, 158640, Note_on_c, 0, 74, 0
1, 158640, Note_on_c, 0, 46, 0
1, 158640, Note_on_c, 0, 34, 0
1, 158640, Note_on_c, 0, 77, 79
1, 158760, Note_on_c, 0, 77, 0
1, 158760, Note_on_c, 0, 80, 82
1, 158880, Note_on_c, 0, 80, 0
1, 158880, Note_on_c, 0, 86, 86
1, 158894, Control_c, 0, 64, 0
1, 159120, Tempo, 324324
1, 159120, Note_on_c, 0, 86, 0
1, 159120, Note_on_c, 0, 46, 63
1, 159120, Note_on_c, 0, 34, 63
1, 159240, Note_on_c, 0, 34, 0
1, 159240, Note_on_c, 0, 46, 0
1, 159338, Tempo, 308483
1, 159360, Tempo, 308483
1, 159360, Note_on_c, 0, 75, 80
1, 159360, Note_on_c, 0, 82, 80
1, 159360, Note_on_c, 0, 79, 80
1, 159360, Note_on_c, 0, 87, 94
1, 159360, Note_on_c, 0, 51, 70
1, 159360, Note_on_c, 0, 39, 59
1, 159360, Note_on_c, 0, 43, 59
1, 159360, Note_on_c, 0, 46, 59
1, 159840, Tempo, 297767
1, 159840, Note_on_c, 0, 46, 0
1, 159840, Note_on_c, 0, 75, 0
1, 159840, Note_on_c, 0, 51, 0
1, 159840, Note_on_c, 0, 82, 0
1, 159840, Note_on_c, 0, 79, 0
1, 159840, Note_on_c, 0, 87, 0
1, 159840, Note_on_c, 0, 39, 0
1, 159840, Note_on_c, 0, 43, 0
1, 159840, Note_on_c, 0, 82, 63
1, 159840, Note_on_c, 0, 67, 63
1, 159840, Note_on_c, 0, 64, 53
1, 159960, Note_on_c, 0, 64, 0
1, 159960, Note_on_c, 0, 67, 0
1, 159960, Note_on_c, 0, 82, 0
1, 160080, Tempo, 314136
1, 160080, Note_on_c, 0, 82, 63
1, 160080, Note_on_c, 0, 64, 53
1, 160080, Note_on_c, 0, 67, 63
1, 160200, Note_on_c, 0, 67, 0
1, 160200, Note_on_c, 0, 64, 0
1, 160200, Note_on_c, 0, 82, 0
1, 160320, Tempo, 307692
1, 160320, Note_on_c, 0, 82, 70
1, 160320, Note_on_c, 0, 68, 70
1, 160320, Note_on_c, 0, 65, 59
1, 160560, Note_on_c, 0, 65, 0
1, 160560, Note_on_c, 0, 68, 0
1, 160560, Note_on_c, 0, 82, 0
1, 160800, Tempo, 297767
1, 160800, Note_on_c, 0, 82, 63
1, 160800, Note_on_c, 0, 64, 53
1, 160800, Note_on_c, 0, 67, 63
1, 160920, Note_on_c, 0, 67, 0
1, 160920, Note_on_c, 0, 64, 0
1, 160920, Note_on_c, 0, 82, 0
1, 161040, Tempo, 314136
1, 161040, Note_on_c, 0, 82, 63
1, 161040, Note_on_c, 0, 64, 53
1, 161040, Note_on_c, 0, 67, 63
1, 161160, Note_on_c, 0, 67, 0
1, 161160, Note_on_c, 0, 64, 0
1, 161160, Note_on_c, 0, 82, 0
1, 161280, Tempo, 308483
1, 161280, Note_on_c, 0, 82, 69
1, 161280, Note_on_c, 0, 68, 70
1, 161280, Note_on_c, 0, 65, 59
1, 161520, Note_on_c, 0, 65, 0
1, 161520, Note_on_c, 0, 68, 0
1, 161520, Note_on_c, 0, 82, 0
1, 161760, Tempo, 304569
1, 161760, Note_on_c, 0, 53, 60
1, 161760, Note_on_c, 0, 56, 60
1, 161760, Note_on_c, 0, 62, 72
1, 161760, Note_on_c, 0, 34, 63
1, 161760, Note_on_c, 0, 46, 74
1, 162000, Note_on_c, 0, 46, 0
1, 162000, Note_on_c, 0, 62, 0
1, 162000, Note_on_c, 0, 53, 0
1, 162000, Note_on_c, 0, 56, 0
1, 162000, Note_on_c, 0, 34, 0
1, 162720, Tempo, 310881
1, 162720, Note_on_c, 0, 53, 33
1, 162720, Note_on_c, 0, 56, 33
1, 162720, Note_on_c, 0, 62, 39
1, 162720, Note_on_c, 0, 47, 36
1, 162720, Note_on_c, 0, 35, 30
1, 162840, Note_on_c, 0, 35, 0
1, 162840, Note_on_c, 0, 62, 0
1, 162840, Note_on_c, 0, 53, 0
1, 162840, Note_on_c, 0, 56, 0
1, 162840, Note_on_c, 0, 47, 0
1, 163200, Tempo, 305344
1, 163200, Note_on_c, 0, 55, 37
1, 163200, Note_on_c, 0, 63, 45
1, 163200, Note_on_c, 0, 36, 32
1, 163200, Note_on_c, 0, 48, 38
1, 163320, Note_on_c, 0, 48, 0
1, 163320, Note_on_c, 0, 55, 0
1, 163320, Note_on_c, 0, 63, 0
1, 163320, Note_on_c, 0, 36, 0
1, 163680, Tempo, 302267
1, 163680, Note_on_c, 0, 60, 35
1, 163680, Note_on_c, 0, 63, 35
1, 163680, Note_on_c, 0, 65, 41
1, 163680, Note_on_c, 0, 45, 36
1, 163680, Note_on_c, 0, 33, 30
1, 163800, Note_on_c, 0, 33, 0
1, 163800, Note_on_c, 0, 65, 0
1, 163800, Note_on_c, 0, 60, 0
1, 163800, Note_on_c, 0, 63, 0
1, 163800, Note_on_c, 0, 45, 0
1, 164160, Note_on_c, 0, 58, 37
1, 164160, Note_on_c, 0, 63, 37
1, 164160, Note_on_c, 0, 67, 45
1, 164160, Note_on_c, 0, 46, 38
1, 164160, Note_on_c, 0, 34, 32
1, 164280, Note_on_c, 0, 34, 0
1, 164280, Note_on_c, 0, 67, 0
1, 164280, Note_on_c, 0, 58, 0
1, 164280, Note_on_c, 0, 63, 0
1, 164280, Note_on_c, 0, 46, 0
1, 164640, Tempo, 310881
1, 164640, Note_on_c, 0, 56, 33
1, 164640, Note_on_c, 0, 62, 33
1, 164640, Note_on_c, 0, 65, 39
1, 164640, Note_on_c, 0, 34, 27
1, 164640, Note_on_c, 0, 46, 33
1, 164760, Note_on_c, 0, 46, 0
1, 164760, Note_on_c, 0, 65, 0
1, 164760, Note_on_c, 0, 56, 0
1, 164760, Note_on_c, 0, 62, 0
1, 164760, Note_on_c, 0, 34, 0
1, 165120, Tempo, 304569
1, 165120, Note_on_c, 0, 55, 37
1, 165120, Note_on_c, 0, 63, 45
1, 165120, Note_on_c, 0, 39, 32
1, 165120, Note_on_c, 0, 51, 38
1, 165240, Note_on_c, 0, 51, 0
1, 165240, Note_on_c, 0, 55, 0
1, 165240, Note_on_c, 0, 63, 0
1, 165240, Note_on_c, 0, 39, 0
1, 165600, Tempo, 297767
1, 165600, Note_on_c, 0, 82, 63
1, 165600, Note_on_c, 0, 67, 63
1, 165600, Note_on_c, 0, 64, 53
1, 165720, Note_on_c, 0, 64, 0
1, 165720, Note_on_c, 0, 67, 0
1, 165720, Note_on_c, 0, 82, 0
1, 165720, Note_on_c, 0, 84, 59
1, 165840, Tempo, 314136
1, 165840, Note_on_c, 0, 84, 0
1, 165840, Note_on_c, 0, 82, 63
1, 165840, Note_on_c, 0, 64, 53
1, 165840, Note_on_c, 0, 67, 63
1, 165960, Note_on_c, 0, 67, 0
1, 165960, Note_on_c, 0, 64, 0
1, 165960, Note_on_c, 0, 82, 0
1, 165960, Note_on_c, 0, 81, 59
1, 166080, Tempo, 307692
1, 166080, Note_on_c, 0, 81, 0
1, 166080, Note_on_c, 0, 82, 70
1, 166080, Note_on_c, 0, 68, 70
1, 166080, Note_on_c, 0, 65, 59
1, 166320, Note_on_c, 0, 65, 0
1, 166320, Note_on_c, 0, 68, 0
1, 166320, Note_on_c, 0, 82, 0
1, 166560, Tempo, 297767
1, 166560, Note_on_c, 0, 82, 63
1, 166560, Note_on_c, 0, 64, 53
1, 166560, Note_on_c, 0, 67, 63
1, 166680, Note_on_c, 0, 67, 0
1, 166680, Note_on_c, 0, 64, 0
1, 166680, Note_on_c, 0, 82, 0
1, 166680, Note_on_c, 0, 84, 58
1, 166800, Tempo, 314136
1, 166800, Note_on_c, 0, 84, 0
1, 166800, Note_on_c, 0, 82, 63
1, 166800, Note_on_c, 0, 64, 53
1, 166800, Note_on_c, 0, 67, 63
1, 166920, Note_on_c, 0, 67, 0
1, 166920, Note_on_c, 0, 64, 0
1, 166920, Note_on_c, 0, 82, 0
1, 166920, Note_on_c, 0, 81, 57
1, 167040, Tempo, 308483
1, 167040, Note_on_c, 0, 81, 0
1, 167040, Note_on_c, 0, 82, 69
1, 167040, Note_on_c, 0, 68, 70
1, 167040, Note_on_c, 0, 65, 59
1, 167280, Note_on_c, 0, 65, 0
1, 167280, Note_on_c, 0, 68, 0
1, 167280, Note_on_c, 0, 82, 0
1, 167520, Tempo, 304569
1, 167520, Note_on_c, 0, 53, 60
1, 167520, Note_on_c, 0, 56, 60
1, 167520, Note_on_c, 0, 62, 72
1, 167520, Note_on_c, 0, 46, 74
1, 167520, Note_on_c, 0, 34, 63
1, 167760, Note_on_c, 0, 34, 0
1, 167760, Note_on_c, 0, 62, 0
1, 167760, Note_on_c, 0, 53, 0
1, 167760, Note_on_c, 0, 56, 0
1, 167760, Note_on_c, 0, 46, 0
1, 168480, Tempo, 307692
1, 168480, Note_on_c, 0, 51, 55
1, 168480, Note_on_c, 0, 54, 55
1, 168480, Note_on_c, 0, 57, 55
1, 168480, Note_on_c, 0, 63, 66
1, 168480, Note_on_c, 0, 39, 55
1, 168480, Note_on_c, 0, 42, 55
1, 168480, Note_on_c, 0, 47, 65
1, 168480, Note_on_c, 0, 35, 55
1, 168600, Tempo, 307692
1, 169440, Tempo, 302267
1, 169440, Note_on_c, 0, 35, 0
1, 169440, Note_on_c, 0, 51, 0
1, 169440, Note_on_c, 0, 39, 0
1, 169440, Note_on_c, 0, 54, 0
1, 169440, Note_on_c, 0, 57, 0
1, 169440, Note_on_c, 0, 63, 0
1, 169440, Note_on_c, 0, 42, 0
1, 169440, Note_on_c, 0, 47, 0
1, 169440, Note_on_c, 0, 60, 35
1, 169440, Note_on_c, 0, 63, 35
1, 169440, Note_on_c, 0, 65, 41
1, 169440, Note_on_c, 0, 33, 30
1, 169440, Note_on_c, 0, 45, 36
1, 169560, Note_on_c, 0, 45, 0
1, 169560, Note_on_c, 0, 65, 0
1, 169560, Note_on_c, 0, 60, 0
1, 169560, Note_on_c, 0, 63, 0
1, 169560, Note_on_c, 0, 33, 0
1, 169920, Note_on_c, 0, 58, 37
1, 169920, Note_on_c, 0, 63, 37
1, 169920, Note_on_c, 0, 67, 45
1, 169920, Note_on_c, 0, 46, 38
1, 169920, Note_on_c, 0, 34, 32
1, 170040, Note_on_c, 0, 34, 0
1, 170040, Note_on_c, 0, 67, 0
1, 170040, Note_on_c, 0, 58, 0
1, 170040, Note_on_c, 0, 63, 0
1, 170040, Note_on_c, 0, 46, 0
1, 170400, Tempo, 310881
1, 170400, Note_on_c, 0, 56, 33
1, 170400, Note_on_c, 0, 62, 33
1, 170400, Note_on_c, 0, 65, 39
1, 170400, Note_on_c, 0, 34, 27
1, 170400, Note_on_c, 0, 46, 33
1, 170520, Note_on_c, 0, 46, 0
1, 170520, Note_on_c, 0, 65, 0
1, 170520, Note_on_c, 0, 56, 0
1, 170520, Note_on_c, 0, 62, 0
1, 170520, Note_on_c, 0, 34, 0
1, 170880, Tempo, 304569
1, 170880, Note_on_c, 0, 55, 37
1, 170880, Note_on_c, 0, 63, 45
1, 170880, Note_on_c, 0, 39, 32
1, 170908, Control_c, 0, 64, 127
1, 171120, Note_on_c, 0, 39, 0
1, 171120, Note_on_c, 0, 63, 0
1, 171120, Note_on_c, 0, 55, 0
1, 171120, Note_on_c, 0, 51, 27
1, 171360, Tempo, 300000
1, 171360, Note_on_c, 0, 51, 0
1, 171360, Note_on_c, 0, 62, 30
1, 171360, Note_on_c, 0, 68, 36
1, 171374, Control_c, 0, 64, 0
1, 171544, Control_c, 0, 64, 127
1, 171600, Tempo, 310078
1, 171600, Note_on_c, 0, 68, 0
1, 171600, Note_on_c, 0, 62, 0
1, 171600, Note_on_c, 0, 63, 27
1, 171600, Note_on_c, 0, 67, 32
1, 171840, Tempo, 304569
1, 171840, Note_on_c, 0, 67, 0
1, 171840, Note_on_c, 0, 63, 0
1, 171840, Note_on_c, 0, 39, 32
1, 171852, Control_c, 0, 64, 0
1, 171996, Control_c, 0, 64, 127
1, 172080, Note_on_c, 0, 39, 0
1, 172080, Note_on_c, 0, 51, 28
1, 172320, Tempo, 296296
1, 172320, Note_on_c, 0, 51, 0
1, 172320, Note_on_c, 0, 68, 31
1, 172320, Note_on_c, 0, 74, 37
1, 172332, Control_c, 0, 64, 0
1, 172461, Control_c, 0, 64, 127
1, 172560, Tempo, 309278
1, 172560, Note_on_c, 0, 74, 0
1, 172560, Note_on_c, 0, 68, 0
1, 172560, Note_on_c, 0, 67, 27
1, 172560, Note_on_c, 0, 75, 32
1, 172800, Tempo, 303797
1, 172800, Note_on_c, 0, 75, 0
1, 172800, Note_on_c, 0, 67, 0
1, 172800, Note_on_c, 0, 39, 32
1, 172804, Control_c, 0, 64, 0
1, 172927, Control_c, 0, 64, 127
1, 173040, Note_on_c, 0, 39, 0
1, 173040, Note_on_c, 0, 51, 28
1, 173280, Tempo, 298507
1, 173280, Note_on_c, 0, 51, 0
1, 173280, Note_on_c, 0, 80, 37
1, 173280, Note_on_c, 0, 74, 31
1, 173294, Control_c, 0, 64, 0
1, 173407, Control_c, 0, 64, 127
1, 173520, Tempo, 310078
1, 173520, Note_on_c, 0, 74, 0
1, 173520, Note_on_c, 0, 80, 0
1, 173520, Note_on_c, 0, 75, 27
1, 173520, Note_on_c, 0, 79, 32
1, 173760, Tempo, 303797
1, 173760, Note_on_c, 0, 79, 0
1, 173760, Note_on_c, 0, 75, 0
1, 173760, Note_on_c, 0, 39, 32
1, 173772, Control_c, 0, 64, 0
1, 173901, Control_c, 0, 64, 127
1, 174000, Note_on_c, 0, 39, 0
1, 174000, Note_on_c, 0, 51, 27
1, 174240, Tempo, 300000
1, 174240, Note_on_c, 0, 51, 0
1, 174240, Note_on_c, 0, 86, 43
1, 174240, Note_on_c, 0, 80, 36
1, 174247, Control_c, 0, 64, 0
1, 174396, Control_c, 0, 64, 127
1, 174480, Tempo, 317460
1, 174480, Note_on_c, 0, 80, 0
1, 174480, Note_on_c, 0, 86, 0
1, 174480, Note_on_c, 0, 79, 30
1, 174480, Note_on_c, 0, 87, 36
1, 174720, Tempo, 323450
1, 174720, Note_on_c, 0, 87, 0
1, 174720, Note_on_c, 0, 79, 0
1, 174720, Note_on_c, 0, 39, 32
1, 174720, Control_c, 0, 64, 0
1, 174960, Control_c, 0, 64, 127
1, 175200, Tempo, 306905
1, 175200, Note_on_c, 0, 39, 0
1, 175200, Note_on_c, 0, 55, 48
1, 175200, Note_on_c, 0, 58, 48
1, 175200, Note_on_c, 0, 63, 57
1, 175680, Note_on_c, 0, 63, 0
1, 175680, Note_on_c, 0, 58, 0
1, 175680, Note_on_c, 0, 55, 0
1, 175814, Control_c, 0, 64, 0
1, 177360, Tempo, 294840
1, 177360, Note_on_c, 0, 48, 36
1, 177600, Note_on_c, 0, 48, 0
1, 177600, Note_on_c, 0, 47, 42
1, 177678, Control_c, 0, 64, 127
1, 177840, Note_on_c, 0, 47, 0
1, 177840, Note_on_c, 0, 48, 35
1, 177852, Control_c, 0, 64, 0
1, 178080, Tempo, 286396
1, 178080, Note_on_c, 0, 48, 0
1, 178080, Note_on_c, 0, 58, 45
1, 178080, Note_on_c, 0, 55, 37
1, 178200, Note_on_c, 0, 55, 0
1, 178200, Note_on_c, 0, 58, 0
1, 178320, Tempo, 398936
1, 178320, Note_on_c, 0, 58, 42
1, 178320, Note_on_c, 0, 55, 35
1, 178440, Note_on_c, 0, 55, 0
1, 178440, Note_on_c, 0, 58, 0
1, 178560, Tempo, 291262
1, 178560, Note_on_c, 0, 58, 77
1, 178560, Note_on_c, 0, 55, 64
1, 179280, Tempo, 294840
1, 179280, Note_on_c, 0, 63, 40
1, 179520, Note_on_c, 0, 63, 0
1, 179520, Note_on_c, 0, 62, 45
1, 179598, Control_c, 0, 64, 127
1, 179760, Note_on_c, 0, 62, 0
1, 179760, Note_on_c, 0, 63, 40
1, 179777, Control_c, 0, 64, 0
1, 180000, Tempo, 287081
1, 180000, Note_on_c, 0, 63, 0
1, 180000, Note_on_c, 0, 70, 45
1, 180120, Note_on_c, 0, 70, 0
1, 180240, Tempo, 350877
1, 180240, Note_on_c, 0, 70, 38
1, 180360, Note_on_c, 0, 70, 0
1, 180480, Tempo, 294840
1, 180480, Note_on_c, 0, 55, 0
1, 180480, Note_on_c, 0, 58, 0
1, 180480, Note_on_c, 0, 61, 45
1, 180480, Note_on_c, 0, 58, 38
1, 180480, Note_on_c, 0, 56, 32
1, 180720, Note_on_c, 0, 61, 0
1, 180720, Note_on_c, 0, 62, 40
1, 180960, Tempo, 287081
1, 180960, Note_on_c, 0, 62, 0
1, 180960, Note_on_c, 0, 56, 0
1, 180960, Note_on_c, 0, 58, 0
1, 180960, Note_on_c, 0, 70, 45
1, 181080, Note_on_c, 0, 70, 0
1, 181200, Tempo, 294840
1, 181200, Note_on_c, 0, 70, 38
1, 181200, Note_on_c, 0, 46, 36
1, 181320, Note_on_c, 0, 70, 0
1, 181440, Note_on_c, 0, 46, 0
1, 181440, Note_on_c, 0, 45, 42
1, 181518, Control_c, 0, 64, 127
1, 181680, Note_on_c, 0, 45, 0
1, 181680, Note_on_c, 0, 46, 35
1, 181692, Control_c, 0, 64, 0
1, 181920, Tempo, 286396
1, 181920, Note_on_c, 0, 46, 0
1, 181920, Note_on_c, 0, 58, 45
1, 181920, Note_on_c, 0, 56, 37
1, 182040, Note_on_c, 0, 56, 0
1, 182040, Note_on_c, 0, 58, 0
1, 182160, Tempo, 402955
1, 182160, Note_on_c, 0, 58, 42
1, 182160, Note_on_c, 0, 56, 35
1, 182280, Note_on_c, 0, 56, 0
1, 182280, Note_on_c, 0, 58, 0
1, 182400, Tempo, 291262
1, 182400, Note_on_c, 0, 58, 77
1, 182400, Note_on_c, 0, 56, 64
1, 183120, Tempo, 294840
1, 183120, Note_on_c, 0, 65, 40
1, 183360, Note_on_c, 0, 65, 0
1, 183360, Note_on_c, 0, 64, 45
1, 183438, Control_c, 0, 64, 127
1, 183600, Note_on_c, 0, 64, 0
1, 183600, Note_on_c, 0, 65, 40
1, 183617, Control_c, 0, 64, 0
1, 183840, Tempo, 287081
1, 183840, Note_on_c, 0, 65, 0
1, 183840, Note_on_c, 0, 70, 45
1, 183960, Note_on_c, 0, 70, 0
1, 184080, Tempo, 350877
1, 184080, Note_on_c, 0, 70, 38
1, 184200, Note_on_c, 0, 70, 0
1, 184320, Tempo, 294840
1, 184320, Note_on_c, 0, 56, 0
1, 184320, Note_on_c, 0, 58, 0
1, 184320, Note_on_c, 0, 63, 45
1, 184320, Note_on_c, 0, 58, 38
1, 184320, Note_on_c, 0, 55, 32
1, 184356, Control_c, 0, 64, 127
1, 184560, Note_on_c, 0, 63, 0
1, 184560, Note_on_c, 0, 64, 40
1, 184578, Control_c, 0, 64, 0
1, 184800, Tempo, 287081
1, 184800, Note_on_c, 0, 64, 0
1, 184800, Note_on_c, 0, 55, 0
1, 184800, Note_on_c, 0, 58, 0
1, 184800, Note_on_c, 0, 70, 45
1, 184920, Note_on_c, 0, 70, 0
1, 185040, Tempo, 350877
1, 185040, Note_on_c, 0, 70, 38
1, 185160, Note_on_c, 0, 70, 0
1, 185280, Tempo, 294840
1, 185280, Note_on_c, 0, 64, 45
1, 185280, Note_on_c, 0, 58, 33
1, 185280, Note_on_c, 0, 61, 39
1, 185280, Note_on_c, 0, 53, 33
1, 185316, Control_c, 0, 64, 127
1, 185520, Note_on_c, 0, 64, 0
1, 185520, Note_on_c, 0, 65, 41
1, 185538, Control_c, 0, 64, 0
1, 185760, Tempo, 287081
1, 185760, Note_on_c, 0, 65, 0
1, 185760, Note_on_c, 0, 53, 0
1, 185760, Note_on_c, 0, 61, 0
1, 185760, Note_on_c, 0, 58, 0
1, 185760, Note_on_c, 0, 73, 46
1, 185880, Note_on_c, 0, 73, 0
1, 186000, Tempo, 350877
1, 186000, Note_on_c, 0, 73, 40
1, 186120, Note_on_c, 0, 73, 0
1, 186240, Tempo, 294840
1, 186240, Note_on_c, 0, 66, 47
1, 186240, Note_on_c, 0, 55, 34
1, 186240, Note_on_c, 0, 58, 34
1, 186240, Note_on_c, 0, 60, 40
1, 186240, Note_on_c, 0, 52, 34
1, 186276, Control_c, 0, 64, 127
1, 186480, Note_on_c, 0, 66, 0
1, 186480, Note_on_c, 0, 67, 43
1, 186498, Control_c, 0, 64, 0
1, 186720, Tempo, 287081
1, 186720, Note_on_c, 0, 67, 0
1, 186720, Note_on_c, 0, 52, 0
1, 186720, Note_on_c, 0, 55, 0
1, 186720, Note_on_c, 0, 58, 0
1, 186720, Note_on_c, 0, 60, 0
1, 186720, Note_on_c, 0, 73, 48
1, 186840, Note_on_c, 0, 73, 0
1, 186960, Tempo, 316623
1, 186960, Note_on_c, 0, 73, 41
1, 187080, Note_on_c, 0, 73, 0
1, 187200, Tempo, 295567
1, 187200, Note_on_c, 0, 72, 49
1, 187440, Note_on_c, 0, 72, 0
1, 187440, Note_on_c, 0, 70, 42
1, 187680, Note_on_c, 0, 70, 0
1, 187680, Note_on_c, 0, 69, 47
1, 187920, Note_on_c, 0, 69, 0
1, 187920, Note_on_c, 0, 70, 42
1, 188160, Tempo, 294840
1, 188160, Note_on_c, 0, 70, 0
1, 188160, Note_on_c, 0, 67, 49
1, 188160, Note_on_c, 0, 53, 43
1, 188160, Note_on_c, 0, 56, 43
1, 188160, Note_on_c, 0, 60, 53
1, 188196, Control_c, 0, 64, 127
1, 188400, Note_on_c, 0, 67, 0
1, 188400, Note_on_c, 0, 68, 44
1, 188418, Control_c, 0, 64, 0
1, 188640, Tempo, 285714
1, 188640, Note_on_c, 0, 68, 0
1, 188640, Note_on_c, 0, 60, 0
1, 188640, Note_on_c, 0, 56, 0
1, 188640, Note_on_c, 0, 53, 0
1, 188640, Note_on_c, 0, 77, 50
1, 188760, Note_on_c, 0, 77, 0
1, 188880, Tempo, 316623
1, 188880, Note_on_c, 0, 77, 44
1, 189000, Note_on_c, 0, 77, 0
1, 189120, Tempo, 292683
1, 189120, Note_on_c, 0, 71, 52
1, 189120, Note_on_c, 0, 51, 45
1, 189120, Note_on_c, 0, 53, 45
1, 189120, Note_on_c, 0, 56, 45
1, 189120, Note_on_c, 0, 60, 55
1, 189156, Control_c, 0, 64, 127
1, 189360, Note_on_c, 0, 71, 0
1, 189360, Note_on_c, 0, 72, 47
1, 189378, Control_c, 0, 64, 0
1, 189600, Tempo, 283688
1, 189600, Note_on_c, 0, 72, 0
1, 189600, Note_on_c, 0, 60, 0
1, 189600, Note_on_c, 0, 51, 0
1, 189600, Note_on_c, 0, 53, 0
1, 189600, Note_on_c, 0, 56, 0
1, 189600, Note_on_c, 0, 80, 54
1, 189720, Note_on_c, 0, 80, 0
1, 189840, Tempo, 316623
1, 189840, Note_on_c, 0, 80, 47
1, 189960, Note_on_c, 0, 80, 0
1, 190080, Tempo, 291971
1, 190080, Note_on_c, 0, 76, 56
1, 190080, Note_on_c, 0, 50, 49
1, 190080, Note_on_c, 0, 53, 49
1, 190080, Note_on_c, 0, 56, 49
1, 190080, Note_on_c, 0, 59, 58
1, 190116, Control_c, 0, 64, 127
1, 190320, Note_on_c, 0, 76, 0
1, 190320, Note_on_c, 0, 77, 50
1, 190338, Control_c, 0, 64, 0
1, 190560, Tempo, 283688
1, 190560, Note_on_c, 0, 77, 0
1, 190560, Note_on_c, 0, 59, 0
1, 190560, Note_on_c, 0, 50, 0
1, 190560, Note_on_c, 0, 53, 0
1, 190560, Note_on_c, 0, 56, 0
1, 190560, Note_on_c, 0, 83, 57
1, 190680, Note_on_c, 0, 83, 0
1, 190800, Tempo, 316623
1, 190800, Note_on_c, 0, 83, 50
1, 190920, Note_on_c, 0, 83, 0
1, 191040, Tempo, 291262
1, 191040, Note_on_c, 0, 79, 63
1, 191040, Note_on_c, 0, 48, 52
1, 191040, Note_on_c, 0, 50, 52
1, 191040, Note_on_c, 0, 53, 52
1, 191040, Note_on_c, 0, 56, 63
1, 191076, Control_c, 0, 64, 127
1, 191280, Note_on_c, 0, 79, 0
1, 191280, Note_on_c, 0, 80, 56
1, 191298, Control_c, 0, 64, 0
1, 191520, Tempo, 281690
1, 191520, Note_on_c, 0, 80, 0
1, 191520, Note_on_c, 0, 56, 0
1, 191520, Note_on_c, 0, 48, 0
1, 191520, Note_on_c, 0, 50, 0
1, 191520, Note_on_c, 0, 53, 0
1, 191520, Note_on_c, 0, 86, 66
1, 191640, Note_on_c, 0, 86, 0
1, 191760, Tempo, 316623
1, 191760, Note_on_c, 0, 86, 60
1, 191880, Note_on_c, 0, 86, 0
1, 192000, Tempo, 294840
1, 192000, Note_on_c, 0, 85, 79
1, 192000, Note_on_c, 0, 47, 58
1, 192000, Note_on_c, 0, 50, 58
1, 192000, Note_on_c, 0, 53, 58
1, 192000, Note_on_c, 0, 56, 70
1, 192036, Control_c, 0, 64, 127
1, 192240, Note_on_c, 0, 85, 0
1, 192240, Note_on_c, 0, 86, 72
1, 192258, Control_c, 0, 64, 0
1, 192480, Tempo, 283019
1, 192480, Note_on_c, 0, 86, 0
1, 192480, Note_on_c, 0, 56, 0
1, 192480, Note_on_c, 0, 47, 0
1, 192480, Note_on_c, 0, 50, 0
1, 192480, Note_on_c, 0, 53, 0
1, 192480, Note_on_c, 0, 89, 69
1, 192600, Note_on_c, 0, 89, 0
1, 192720, Tempo, 359281
1, 192720, Note_on_c, 0, 89, 64
1, 192840, Note_on_c, 0, 89, 0
1, 192960, Tempo, 292683
1, 192960, Note_on_c, 0, 89, 76
1, 193130, Control_c, 0, 64, 127
1, 193200, Tempo, 283019
1, 193200, Note_on_c, 0, 80, 65
1, 193416, Note_on_c, 0, 80, 0
1, 193440, Note_on_c, 0, 80, 65
1, 193656, Note_on_c, 0, 80, 0
1, 193680, Tempo, 297767
1, 193680, Note_on_c, 0, 80, 65
1, 193896, Note_on_c, 0, 80, 0
1, 193920, Tempo, 283688
1, 193920, Note_on_c, 0, 89, 0
1, 193920, Note_on_c, 0, 71, 69
1, 193920, Control_c, 0, 64, 0
1, 194160, Note_on_c, 0, 68, 65
1, 194160, Control_c, 0, 64, 127
1, 194376, Note_on_c, 0, 68, 0
1, 194400, Note_on_c, 0, 68, 65
1, 194616, Note_on_c, 0, 68, 0
1, 194640, Tempo, 294118
1, 194640, Note_on_c, 0, 68, 65
1, 194856, Note_on_c, 0, 68, 0
1, 194880, Tempo, 285036
1, 194880, Note_on_c, 0, 71, 0
1, 194880, Note_on_c, 0, 59, 74
1, 195120, Note_on_c, 0, 56, 65
1, 195336, Note_on_c, 0, 56, 0
1, 195360, Note_on_c, 0, 56, 65
1, 195576, Note_on_c, 0, 56, 0
1, 195600, Tempo, 297767
1, 195600, Note_on_c, 0, 56, 65
1, 195816, Note_on_c, 0, 56, 0
1, 195840, Tempo, 291971
1, 195840, Note_on_c, 0, 59, 0
1, 195840, Note_on_c, 0, 47, 69
1, 195840, Control_c, 0, 64, 0
1, 195966, Control_c, 0, 64, 127
1, 196080, Note_on_c, 0, 47, 0
1, 196080, Note_on_c, 0, 44, 64
1, 196080, Note_on_c, 0, 56, 64
1, 196296, Note_on_c, 0, 56, 0
1, 196296, Note_on_c, 0, 44, 0
1, 196320, Note_on_c, 0, 44, 64
1, 196320, Note_on_c, 0, 56, 64
1, 196536, Note_on_c, 0, 56, 0
1, 196536, Note_on_c, 0, 44, 0
1, 196560, Tempo, 338028
1, 196560, Note_on_c, 0, 44, 64
1, 196560, Note_on_c, 0, 56, 64
1, 196776, Note_on_c, 0, 44, 0
1, 196800, Tempo, 326087
1, 196800, Note_on_c, 0, 56, 0
1, 196800, Note_on_c, 0, 35, 78
1, 196800, Note_on_c, 0, 47, 75
1, 196811, Control_c, 0, 64, 0
1, 196995, Control_c, 0, 64, 127
1, 197040, Tempo, 342857
1, 197040, Note_on_c, 0, 47, 0
1, 197040, Note_on_c, 0, 35, 0
1, 197040, Note_on_c, 0, 44, 70
1, 197040, Note_on_c, 0, 56, 69
1, 197256, Note_on_c, 0, 56, 0
1, 197256, Note_on_c, 0, 44, 0
1, 197280, Note_on_c, 0, 44, 70
1, 197280, Note_on_c, 0, 56, 69
1, 197496, Note_on_c, 0, 56, 0
1, 197496, Note_on_c, 0, 44, 0
1, 197520, Tempo, 528634
1, 197520, Note_on_c, 0, 44, 70
1, 197520, Note_on_c, 0, 56, 69
1, 197736, Note_on_c, 0, 56, 0
1, 197736, Note_on_c, 0, 44, 0
1, 197760, Tempo, 888889
1, 197760, Note_on_c, 0, 35, 86
1, 197760, Note_on_c, 0, 47, 88
1, 197760, Control_c, 0, 64, 0
1, 198460, Note_on_c, 0, 47, 0
1, 198460, Note_on_c, 0, 35, 0
1, 198480, Tempo, 294118
1, 198480, Note_on_c, 0, 60, 40
1, 198480, Note_on_c, 0, 48, 36
1, 198720, Tempo, 294840
1, 198720, Note_on_c, 0, 48, 0
1, 198720, Note_on_c, 0, 60, 0
1, 198720, Note_on_c, 0, 59, 45
1, 198720, Note_on_c, 0, 47, 38
1, 198798, Control_c, 0, 64, 127
1, 198960, Note_on_c, 0, 47, 0
1, 198960, Note_on_c, 0, 59, 0
1, 198960, Note_on_c, 0, 60, 40
1, 198960, Note_on_c, 0, 48, 35
1, 198972, Control_c, 0, 64, 0
1, 199200, Tempo, 286396
1, 199200, Note_on_c, 0, 48, 0
1, 199200, Note_on_c, 0, 60, 0
1, 199200, Note_on_c, 0, 65, 45
1, 199200, Note_on_c, 0, 53, 38
1, 199320, Note_on_c, 0, 53, 0
1, 199320, Note_on_c, 0, 65, 0
1, 199440, Tempo, 349854
1, 199440, Note_on_c, 0, 65, 38
1, 199440, Note_on_c, 0, 53, 34
1, 199560, Note_on_c, 0, 53, 0
1, 199560, Note_on_c, 0, 65, 0
1, 199680, Tempo, 291262
1, 199680, Note_on_c, 0, 63, 45
1, 199680, Note_on_c, 0, 51, 38
1, 200160, Note_on_c, 0, 51, 0
1, 200160, Note_on_c, 0, 63, 0
1, 200400, Tempo, 294840
1, 200400, Note_on_c, 0, 60, 40
1, 200400, Note_on_c, 0, 48, 36
1, 200640, Note_on_c, 0, 48, 0
1, 200640, Note_on_c, 0, 60, 0
1, 200640, Note_on_c, 0, 59, 45
1, 200640, Note_on_c, 0, 47, 38
1, 200718, Control_c, 0, 64, 127
1, 200880, Note_on_c, 0, 47, 0
1, 200880, Note_on_c, 0, 59, 0
1, 200880, Note_on_c, 0, 60, 40
1, 200880, Note_on_c, 0, 48, 35
1, 200897, Control_c, 0, 64, 0
1, 201120, Tempo, 287081
1, 201120, Note_on_c, 0, 48, 0
1, 201120, Note_on_c, 0, 60, 0
1, 201120, Note_on_c, 0, 68, 45
1, 201120, Note_on_c, 0, 56, 38
1, 201240, Note_on_c, 0, 56, 0
1, 201240, Note_on_c, 0, 68, 0
1, 201360, Tempo, 350877
1, 201360, Note_on_c, 0, 68, 38
1, 201360, Note_on_c, 0, 56, 34
1, 201480, Note_on_c, 0, 56, 0
1, 201480, Note_on_c, 0, 68, 0
1, 201600, Tempo, 291262
1, 201600, Note_on_c, 0, 67, 45
1, 201600, Note_on_c, 0, 55, 38
1, 202080, Note_on_c, 0, 55, 0
1, 202080, Note_on_c, 0, 67, 0
1, 202320, Tempo, 294840
1, 202320, Note_on_c, 0, 60, 40
1, 202560, Note_on_c, 0, 60, 0
1, 202560, Note_on_c, 0, 59, 45
1, 202645, Control_c, 0, 64, 127
1, 202800, Note_on_c, 0, 59, 0
1, 202800, Note_on_c, 0, 60, 40
1, 202821, Control_c, 0, 64, 0
1, 203040, Tempo, 292683
1, 203040, Note_on_c, 0, 60, 0
1, 203040, Note_on_c, 0, 72, 45
1, 203160, Note_on_c, 0, 72, 0
1, 203280, Tempo, 345821
1, 203280, Note_on_c, 0, 72, 38
1, 203400, Note_on_c, 0, 72, 0
1, 203520, Tempo, 293399
1, 203520, Note_on_c, 0, 72, 45
1, 203520, Note_on_c, 0, 56, 38
1, 203520, Note_on_c, 0, 60, 38
1, 203520, Note_on_c, 0, 66, 38
1, 203523, Control_c, 0, 64, 127
1, 203760, Note_on_c, 0, 72, 0
1, 203760, Note_on_c, 0, 74, 45
1, 203820, Note_on_c, 0, 74, 0
1, 203820, Note_on_c, 0, 72, 45
1, 203880, Note_on_c, 0, 72, 0
1, 203880, Note_on_c, 0, 71, 40
1, 203940, Note_on_c, 0, 71, 0
1, 203940, Note_on_c, 0, 72, 45
1, 204000, Note_on_c, 0, 72, 0
1, 204000, Note_on_c, 0, 75, 50
1, 204011, Control_c, 0, 64, 0
1, 204066, Control_c, 0, 64, 127
1, 204240, Note_on_c, 0, 75, 0
1, 204240, Note_on_c, 0, 74, 45
1, 204360, Tempo, 320856
1, 204480, Tempo, 292683
1, 204480, Note_on_c, 0, 74, 0
1, 204480, Note_on_c, 0, 77, 56
1, 204503, Control_c, 0, 64, 0
1, 204566, Control_c, 0, 64, 127
1, 204720, Note_on_c, 0, 77, 0
1, 204720, Note_on_c, 0, 75, 53
1, 204960, Note_on_c, 0, 75, 0
1, 204960, Note_on_c, 0, 74, 50
1, 204971, Control_c, 0, 64, 0
1, 205000, Control_c, 0, 64, 127
1, 205200, Tempo, 338983
1, 205200, Note_on_c, 0, 74, 0
1, 205200, Note_on_c, 0, 72, 47
1, 205440, Tempo, 291262
1, 205440, Note_on_c, 0, 72, 0
1, 205440, Note_on_c, 0, 56, 0
1, 205440, Note_on_c, 0, 60, 0
1, 205440, Note_on_c, 0, 66, 0
1, 205440, Note_on_c, 0, 71, 51
1, 205440, Note_on_c, 0, 67, 38
1, 205440, Note_on_c, 0, 62, 32
1, 205440, Note_on_c, 0, 55, 32
1, 205440, Control_c, 0, 64, 0
1, 205920, Note_on_c, 0, 55, 0
1, 205920, Note_on_c, 0, 71, 0
1, 205920, Note_on_c, 0, 67, 0
1, 205920, Note_on_c, 0, 62, 0
1, 206160, Note_on_c, 0, 55, 40
1, 206160, Note_on_c, 0, 43, 36
1, 206400, Tempo, 292683
1, 206400, Note_on_c, 0, 43, 0
1, 206400, Note_on_c, 0, 55, 0
1, 206400, Note_on_c, 0, 54, 45
1, 206400, Note_on_c, 0, 42, 38
1, 206513, Control_c, 0, 64, 127
1, 206640, Note_on_c, 0, 42, 0
1, 206640, Note_on_c, 0, 54, 0
1, 206640, Note_on_c, 0, 55, 40
1, 206640, Note_on_c, 0, 43, 35
1, 206655, Control_c, 0, 64, 0
1, 206880, Tempo, 292683
1, 206880, Note_on_c, 0, 43, 0
1, 206880, Note_on_c, 0, 55, 0
1, 206880, Note_on_c, 0, 60, 45
1, 206880, Note_on_c, 0, 48, 38
1, 207000, Note_on_c, 0, 48, 0
1, 207000, Note_on_c, 0, 60, 0
1, 207120, Tempo, 338983
1, 207120, Note_on_c, 0, 60, 38
1, 207120, Note_on_c, 0, 48, 34
1, 207240, Note_on_c, 0, 48, 0
1, 207240, Note_on_c, 0, 60, 0
1, 207360, Tempo, 291971
1, 207360, Note_on_c, 0, 59, 45
1, 207360, Note_on_c, 0, 47, 38
1, 207840, Note_on_c, 0, 47, 0
1, 207840, Note_on_c, 0, 59, 0
1, 208080, Note_on_c, 0, 55, 40
1, 208080, Note_on_c, 0, 43, 36
1, 208320, Tempo, 294840
1, 208320, Note_on_c, 0, 43, 0
1, 208320, Note_on_c, 0, 55, 0
1, 208320, Note_on_c, 0, 54, 45
1, 208320, Note_on_c, 0, 42, 38
1, 208370, Control_c, 0, 64, 127
1, 208560, Note_on_c, 0, 42, 0
1, 208560, Note_on_c, 0, 54, 0
1, 208560, Note_on_c, 0, 55, 40
1, 208560, Note_on_c, 0, 43, 35
1, 208576, Control_c, 0, 64, 0
1, 208800, Tempo, 292683
1, 208800, Note_on_c, 0, 43, 0
1, 208800, Note_on_c, 0, 55, 0
1, 208800, Note_on_c, 0, 63, 45
1, 208800, Note_on_c, 0, 51, 38
1, 208920, Note_on_c, 0, 51, 0
1, 208920, Note_on_c, 0, 63, 0
1, 209040, Tempo, 342857
1, 209040, Note_on_c, 0, 63, 38
1, 209040, Note_on_c, 0, 51, 34
1, 209160, Note_on_c, 0, 51, 0
1, 209160, Note_on_c, 0, 63, 0
1, 209280, Tempo, 296296
1, 209280, Note_on_c, 0, 62, 45
1, 209280, Note_on_c, 0, 50, 38
1, 209760, Note_on_c, 0, 50, 0
1, 209760, Note_on_c, 0, 62, 0
1, 210000, Note_on_c, 0, 55, 45
1, 210000, Note_on_c, 0, 43, 37
1, 210120, Note_on_c, 0, 43, 0
1, 210120, Note_on_c, 0, 55, 0
1, 210240, Tempo, 292683
1, 210240, Note_on_c, 0, 59, 51
1, 210240, Note_on_c, 0, 47, 43
1, 210360, Note_on_c, 0, 47, 0
1, 210360, Note_on_c, 0, 59, 0
1, 210480, Note_on_c, 0, 62, 45
1, 210480, Note_on_c, 0, 50, 37
1, 210600, Note_on_c, 0, 50, 0
1, 210600, Note_on_c, 0, 62, 0
1, 210720, Note_on_c, 0, 65, 45
1, 210720, Note_on_c, 0, 53, 37
1, 210840, Note_on_c, 0, 53, 0
1, 210840, Note_on_c, 0, 65, 0
1, 210960, Note_on_c, 0, 68, 45
1, 210960, Note_on_c, 0, 56, 37
1, 211080, Note_on_c, 0, 56, 0
1, 211080, Note_on_c, 0, 68, 0
1, 211200, Note_on_c, 0, 71, 55
1, 211200, Note_on_c, 0, 59, 46
1, 211320, Note_on_c, 0, 59, 0
1, 211320, Note_on_c, 0, 71, 0
1, 211440, Note_on_c, 0, 74, 53
1, 211440, Note_on_c, 0, 62, 45
1, 211560, Note_on_c, 0, 62, 0
1, 211560, Note_on_c, 0, 74, 0
1, 211680, Note_on_c, 0, 77, 56
1, 211680, Note_on_c, 0, 65, 47
1, 211800, Note_on_c, 0, 65, 0
1, 211800, Note_on_c, 0, 77, 0
1, 211920, Tempo, 304569
1, 211920, Note_on_c, 0, 80, 60
1, 211920, Note_on_c, 0, 68, 50
1, 212040, Note_on_c, 0, 68, 0
1, 212040, Note_on_c, 0, 80, 0
1, 212160, Tempo, 294840
1, 212160, Note_on_c, 0, 79, 63
1, 212160, Note_on_c, 0, 67, 53
1, 212280, Note_on_c, 0, 67, 0
1, 212280, Note_on_c, 0, 79, 0
1, 212400, Note_on_c, 0, 77, 59
1, 212400, Note_on_c, 0, 65, 50
1, 212520, Note_on_c, 0, 65, 0
1, 212520, Note_on_c, 0, 77, 0
1, 212640, Note_on_c, 0, 75, 55
1, 212640, Note_on_c, 0, 63, 46
1, 212760, Note_on_c, 0, 63, 0
1, 212760, Note_on_c, 0, 75, 0
1, 212880, Tempo, 338028
1, 212880, Note_on_c, 0, 74, 54
1, 212880, Note_on_c, 0, 62, 45
1, 213000, Note_on_c, 0, 62, 0
1, 213000, Note_on_c, 0, 74, 0
1, 213120, Tempo, 293399
1, 213120, Note_on_c, 0, 72, 62
1, 213120, Note_on_c, 0, 60, 42
1, 213120, Control_c, 0, 64, 127
1, 213240, Note_on_c, 0, 60, 0
1, 213360, Note_on_c, 0, 63, 32
1, 213360, Note_on_c, 0, 67, 38
1, 213480, Note_on_c, 0, 67, 0
1, 213480, Note_on_c, 0, 63, 0
1, 213600, Note_on_c, 0, 72, 0
1, 213600, Note_on_c, 0, 63, 32
1, 213600, Note_on_c, 0, 67, 38
1, 213720, Note_on_c, 0, 67, 0
1, 213720, Note_on_c, 0, 63, 0
1, 213840, Note_on_c, 0, 72, 50
1, 213840, Note_on_c, 0, 63, 32
1, 213840, Note_on_c, 0, 67, 38
1, 213960, Note_on_c, 0, 67, 0
1, 213960, Note_on_c, 0, 63, 0
1, 214080, Tempo, 295567
1, 214080, Note_on_c, 0, 72, 0
1, 214080, Note_on_c, 0, 71, 57
1, 214080, Note_on_c, 0, 60, 42
1, 214087, Control_c, 0, 64, 0
1, 214155, Control_c, 0, 64, 127
1, 214200, Note_on_c, 0, 60, 0
1, 214320, Note_on_c, 0, 71, 0
1, 214320, Note_on_c, 0, 72, 53
1, 214320, Note_on_c, 0, 64, 31
1, 214320, Note_on_c, 0, 67, 31
1, 214320, Note_on_c, 0, 70, 37
1, 214333, Control_c, 0, 64, 0
1, 214440, Note_on_c, 0, 70, 0
1, 214440, Note_on_c, 0, 67, 0
1, 214440, Note_on_c, 0, 64, 0
1, 214560, Tempo, 292683
1, 214560, Note_on_c, 0, 72, 0
1, 214560, Note_on_c, 0, 84, 60
1, 214560, Note_on_c, 0, 64, 31
1, 214560, Note_on_c, 0, 67, 31
1, 214560, Note_on_c, 0, 70, 37
1, 214680, Note_on_c, 0, 70, 0
1, 214680, Note_on_c, 0, 84, 0
1, 214680, Note_on_c, 0, 64, 0
1, 214680, Note_on_c, 0, 67, 0
1, 214800, Tempo, 337079
1, 214800, Note_on_c, 0, 84, 52
1, 214800, Note_on_c, 0, 64, 31
1, 214800, Note_on_c, 0, 67, 31
1, 214800, Note_on_c, 0, 70, 37
1, 214920, Note_on_c, 0, 70, 0
1, 214920, Note_on_c, 0, 84, 0
1, 214920, Note_on_c, 0, 64, 0
1, 214920, Note_on_c, 0, 67, 0
1, 215040, Tempo, 294118
1, 215040, Note_on_c, 0, 84, 60
1, 215040, Note_on_c, 0, 60, 42
1, 215061, Control_c, 0, 64, 127
1, 215160, Tempo, 292683
1, 215160, Note_on_c, 0, 60, 0
1, 215280, Note_on_c, 0, 65, 32
1, 215280, Note_on_c, 0, 68, 38
1, 215400, Note_on_c, 0, 68, 0
1, 215400, Note_on_c, 0, 65, 0
1, 215520, Note_on_c, 0, 84, 0
1, 215520, Note_on_c, 0, 65, 32
1, 215520, Note_on_c, 0, 68, 38
1, 215640, Note_on_c, 0, 68, 0
1, 215640, Note_on_c, 0, 65, 0
1, 215760, Note_on_c, 0, 89, 59
1, 215760, Note_on_c, 0, 65, 32
1, 215760, Note_on_c, 0, 68, 38
1, 215880, Note_on_c, 0, 68, 0
1, 215880, Note_on_c, 0, 65, 0
1, 216000, Note_on_c, 0, 89, 0
1, 216000, Note_on_c, 0, 87, 65
1, 216000, Note_on_c, 0, 60, 42
1, 216017, Control_c, 0, 64, 0
1, 216091, Control_c, 0, 64, 127
1, 216120, Note_on_c, 0, 60, 0
1, 216240, Note_on_c, 0, 87, 0
1, 216240, Note_on_c, 0, 86, 60
1, 216240, Note_on_c, 0, 65, 31
1, 216240, Note_on_c, 0, 68, 31
1, 216240, Note_on_c, 0, 71, 37
1, 216360, Note_on_c, 0, 71, 0
1, 216360, Note_on_c, 0, 68, 0
1, 216360, Note_on_c, 0, 65, 0
1, 216480, Note_on_c, 0, 86, 0
1, 216480, Note_on_c, 0, 84, 66
1, 216480, Note_on_c, 0, 65, 31
1, 216480, Note_on_c, 0, 68, 31
1, 216480, Note_on_c, 0, 71, 37
1, 216490, Control_c, 0, 64, 0
1, 216551, Control_c, 0, 64, 127
1, 216600, Note_on_c, 0, 71, 0
1, 216600, Note_on_c, 0, 68, 0
1, 216600, Note_on_c, 0, 65, 0
1, 216720, Tempo, 314961
1, 216720, Note_on_c, 0, 84, 0
1, 216720, Note_on_c, 0, 83, 60
1, 216720, Note_on_c, 0, 65, 31
1, 216720, Note_on_c, 0, 68, 31
1, 216720, Note_on_c, 0, 71, 37
1, 216840, Note_on_c, 0, 71, 0
1, 216840, Note_on_c, 0, 68, 0
1, 216840, Note_on_c, 0, 65, 0
1, 216960, Tempo, 291262
1, 216960, Note_on_c, 0, 83, 0
1, 216960, Note_on_c, 0, 86, 69
1, 216960, Note_on_c, 0, 60, 42
1, 216977, Control_c, 0, 64, 0
1, 217023, Control_c, 0, 64, 127
1, 217080, Note_on_c, 0, 60, 0
1, 217200, Note_on_c, 0, 86, 0
1, 217200, Note_on_c, 0, 84, 60
1, 217200, Note_on_c, 0, 63, 32
1, 217200, Note_on_c, 0, 67, 38
1, 217210, Control_c, 0, 64, 0
1, 217320, Note_on_c, 0, 67, 0
1, 217320, Note_on_c, 0, 63, 0
1, 217440, Note_on_c, 0, 84, 0
1, 217440, Note_on_c, 0, 63, 32
1, 217440, Note_on_c, 0, 67, 38
1, 217560, Note_on_c, 0, 67, 0
1, 217560, Note_on_c, 0, 63, 0
1, 217680, Note_on_c, 0, 72, 50
1, 217680, Note_on_c, 0, 63, 32
1, 217680, Note_on_c, 0, 67, 38
1, 217800, Note_on_c, 0, 67, 0
1, 217800, Note_on_c, 0, 63, 0
1, 217920, Tempo, 294840
1, 217920, Note_on_c, 0, 72, 0
1, 217920, Note_on_c, 0, 71, 54
1, 217920, Note_on_c, 0, 60, 42
1, 217972, Control_c, 0, 64, 127
1, 218016, Note_on_c, 0, 71, 0
1, 218016, Note_on_c, 0, 72, 54
1, 218040, Note_on_c, 0, 60, 0
1, 218112, Note_on_c, 0, 72, 0
1, 218112, Note_on_c, 0, 73, 55
1, 218160, Note_on_c, 0, 64, 31
1, 218160, Note_on_c, 0, 67, 31
1, 218160, Note_on_c, 0, 70, 37
1, 218208, Note_on_c, 0, 73, 0
1, 218208, Note_on_c, 0, 74, 56
1, 218280, Note_on_c, 0, 64, 0
1, 218280, Note_on_c, 0, 70, 0
1, 218280, Note_on_c, 0, 67, 0
1, 218304, Note_on_c, 0, 74, 0
1, 218304, Note_on_c, 0, 75, 56
1, 218400, Tempo, 292683
1, 218400, Note_on_c, 0, 75, 0
1, 218400, Note_on_c, 0, 76, 57
1, 218400, Note_on_c, 0, 64, 31
1, 218400, Note_on_c, 0, 67, 31
1, 218400, Note_on_c, 0, 70, 37
1, 218418, Control_c, 0, 64, 0
1, 218471, Control_c, 0, 64, 127
1, 218520, Note_on_c, 0, 70, 0
1, 218520, Note_on_c, 0, 76, 0
1, 218520, Note_on_c, 0, 64, 0
1, 218520, Note_on_c, 0, 67, 0
1, 218520, Note_on_c, 0, 77, 58
1, 218640, Tempo, 338028
1, 218640, Note_on_c, 0, 77, 0
1, 218640, Note_on_c, 0, 78, 59
1, 218640, Note_on_c, 0, 64, 31
1, 218640, Note_on_c, 0, 67, 31
1, 218640, Note_on_c, 0, 70, 37
1, 218760, Note_on_c, 0, 70, 0
1, 218760, Note_on_c, 0, 78, 0
1, 218760, Note_on_c, 0, 64, 0
1, 218760, Note_on_c, 0, 67, 0
1, 218760, Note_on_c, 0, 79, 59
1, 218880, Tempo, 292683
1, 218880, Note_on_c, 0, 79, 0
1, 218880, Note_on_c, 0, 80, 60
1, 218880, Note_on_c, 0, 60, 42
1, 218880, Control_c, 0, 64, 0
1, 218934, Control_c, 0, 64, 127
1, 219000, Note_on_c, 0, 60, 0
1, 219000, Note_on_c, 0, 80, 0
1, 219000, Note_on_c, 0, 81, 61
1, 219120, Note_on_c, 0, 81, 0
1, 219120, Note_on_c, 0, 82, 62
1, 219120, Note_on_c, 0, 65, 32
1, 219120, Note_on_c, 0, 68, 38
1, 219240, Note_on_c, 0, 68, 0
1, 219240, Note_on_c, 0, 65, 0
1, 219240, Note_on_c, 0, 82, 0
1, 219240, Note_on_c, 0, 83, 62
1, 219360, Tempo, 305344
1, 219360, Note_on_c, 0, 83, 0
1, 219360, Note_on_c, 0, 84, 68
1, 219360, Note_on_c, 0, 65, 32
1, 219360, Note_on_c, 0, 68, 38
1, 219375, Control_c, 0, 64, 0
1, 219409, Control_c, 0, 64, 127
1, 219480, Note_on_c, 0, 68, 0
1, 219480, Note_on_c, 0, 65, 0
1, 219600, Tempo, 292683
1, 219600, Note_on_c, 0, 84, 0
1, 219600, Note_on_c, 0, 89, 63
1, 219600, Note_on_c, 0, 65, 32
1, 219600, Note_on_c, 0, 68, 38
1, 219720, Note_on_c, 0, 68, 0
1, 219720, Note_on_c, 0, 65, 0
1, 219840, Tempo, 291971
1, 219840, Note_on_c, 0, 89, 0
1, 219840, Note_on_c, 0, 87, 65
1, 219840, Note_on_c, 0, 60, 42
1, 219860, Control_c, 0, 64, 0
1, 219912, Control_c, 0, 64, 127
1, 219960, Note_on_c, 0, 60, 0
1, 220080, Note_on_c, 0, 87, 0
1, 220080, Note_on_c, 0, 86, 60
1, 220080, Note_on_c, 0, 65, 31
1, 220080, Note_on_c, 0, 68, 31
1, 220080, Note_on_c, 0, 71, 37
1, 220200, Note_on_c, 0, 71, 0
1, 220200, Note_on_c, 0, 68, 0
1, 220200, Note_on_c, 0, 65, 0
1, 220320, Note_on_c, 0, 86, 0
1, 220320, Note_on_c, 0, 84, 66
1, 220320, Note_on_c, 0, 65, 31
1, 220320, Note_on_c, 0, 68, 31
1, 220320, Note_on_c, 0, 71, 37
1, 220328, Control_c, 0, 64, 0
1, 220377, Control_c, 0, 64, 127
1, 220440, Note_on_c, 0, 71, 0
1, 220440, Note_on_c, 0, 68, 0
1, 220440, Note_on_c, 0, 65, 0
1, 220560, Tempo, 313316
1, 220560, Note_on_c, 0, 84, 0
1, 220560, Note_on_c, 0, 83, 60
1, 220560, Note_on_c, 0, 65, 31
1, 220560, Note_on_c, 0, 68, 31
1, 220560, Note_on_c, 0, 71, 37
1, 220680, Note_on_c, 0, 71, 0
1, 220680, Note_on_c, 0, 68, 0
1, 220680, Note_on_c, 0, 65, 0
1, 220800, Tempo, 293399
1, 220800, Note_on_c, 0, 83, 0
1, 220800, Note_on_c, 0, 84, 69
1, 220800, Note_on_c, 0, 60, 36
1, 220800, Note_on_c, 0, 63, 36
1, 220800, Note_on_c, 0, 67, 36
1, 220800, Control_c, 0, 64, 0
1, 220807, Note_on_c, 0, 72, 44
1, 220892, Control_c, 0, 64, 127
1, 220920, Note_on_c, 0, 84, 0
1, 220920, Note_on_c, 0, 86, 63
1, 221040, Note_on_c, 0, 86, 0
1, 221040, Note_on_c, 0, 84, 63
1, 221160, Note_on_c, 0, 84, 0
1, 221160, Note_on_c, 0, 83, 63
1, 221280, Note_on_c, 0, 83, 0
1, 221280, Note_on_c, 0, 60, 0
1, 221280, Note_on_c, 0, 67, 0
1, 221280, Note_on_c, 0, 63, 0
1, 221280, Note_on_c, 0, 84, 69
1, 221280, Control_c, 0, 64, 0
1, 221287, Note_on_c, 0, 72, 0
1, 221400, Note_on_c, 0, 84, 0
1, 221400, Note_on_c, 0, 87, 73
1, 221520, Note_on_c, 0, 87, 0
1, 221520, Note_on_c, 0, 86, 72
1, 221520, Note_on_c, 0, 66, 42
1, 221583, Control_c, 0, 64, 127
1, 221640, Tempo, 366972
1, 221640, Note_on_c, 0, 86, 0
1, 221640, Note_on_c, 0, 84, 71
1, 221760, Tempo, 292683
1, 221760, Note_on_c, 0, 84, 0
1, 221760, Note_on_c, 0, 66, 0
1, 221760, Note_on_c, 0, 83, 72
1, 221760, Note_on_c, 0, 67, 52
1, 221769, Control_c, 0, 64, 0
1, 221846, Control_c, 0, 64, 127
1, 221880, Note_on_c, 0, 83, 0
1, 221880, Note_on_c, 0, 84, 65
1, 222000, Note_on_c, 0, 84, 0
1, 222000, Note_on_c, 0, 83, 65
1, 222120, Note_on_c, 0, 83, 0
1, 222120, Note_on_c, 0, 80, 65
1, 222189, Control_c, 0, 64, 0
1, 222240, Note_on_c, 0, 80, 0
1, 222240, Note_on_c, 0, 67, 0
1, 222240, Note_on_c, 0, 79, 69
1, 222360, Note_on_c, 0, 79, 0
1, 222360, Note_on_c, 0, 77, 63
1, 222480, Note_on_c, 0, 77, 0
1, 222480, Note_on_c, 0, 75, 63
1, 222480, Note_on_c, 0, 59, 48
1, 222537, Control_c, 0, 64, 127
1, 222600, Tempo, 366972
1, 222600, Note_on_c, 0, 75, 0
1, 222600, Note_on_c, 0, 74, 63
1, 222720, Tempo, 293399
1, 222720, Note_on_c, 0, 74, 0
1, 222720, Note_on_c, 0, 59, 0
1, 222720, Note_on_c, 0, 72, 69
1, 222720, Note_on_c, 0, 60, 57
1, 222720, Control_c, 0, 64, 0
1, 222800, Control_c, 0, 64, 127
1, 222840, Note_on_c, 0, 72, 0
1, 222840, Note_on_c, 0, 74, 63
1, 222960, Note_on_c, 0, 74, 0
1, 222960, Note_on_c, 0, 72, 63
1, 222970, Control_c, 0, 64, 0
1, 223080, Note_on_c, 0, 72, 0
1, 223080, Note_on_c, 0, 71, 61
1, 223200, Note_on_c, 0, 71, 0
1, 223200, Note_on_c, 0, 60, 0
1, 223200, Note_on_c, 0, 72, 66
1, 223320, Note_on_c, 0, 72, 0
1, 223320, Note_on_c, 0, 75, 72
1, 223440, Note_on_c, 0, 75, 0
1, 223440, Note_on_c, 0, 74, 70
1, 223440, Note_on_c, 0, 54, 54
1, 223474, Control_c, 0, 64, 127
1, 223560, Tempo, 368098
1, 223560, Note_on_c, 0, 74, 0
1, 223560, Note_on_c, 0, 72, 67
1, 223680, Tempo, 292683
1, 223680, Note_on_c, 0, 72, 0
1, 223680, Note_on_c, 0, 54, 0
1, 223680, Note_on_c, 0, 71, 69
1, 223680, Note_on_c, 0, 55, 63
1, 223689, Control_c, 0, 64, 0
1, 223800, Note_on_c, 0, 71, 0
1, 223800, Note_on_c, 0, 72, 63
1, 223817, Control_c, 0, 64, 127
1, 223920, Note_on_c, 0, 72, 0
1, 223920, Note_on_c, 0, 71, 63
1, 223930, Control_c, 0, 64, 0
1, 224040, Note_on_c, 0, 71, 0
1, 224040, Note_on_c, 0, 68, 63
1, 224160, Note_on_c, 0, 68, 0
1, 224160, Note_on_c, 0, 55, 0
1, 224160, Note_on_c, 0, 67, 69
1, 224280, Note_on_c, 0, 67, 0
1, 224280, Note_on_c, 0, 65, 63
1, 224400, Note_on_c, 0, 65, 0
1, 224400, Note_on_c, 0, 63, 63
1, 224400, Note_on_c, 0, 47, 57
1, 224469, Control_c, 0, 64, 127
1, 224520, Tempo, 366972
1, 224520, Note_on_c, 0, 63, 0
1, 224520, Note_on_c, 0, 62, 63
1, 224640, Tempo, 292683
1, 224640, Note_on_c, 0, 62, 0
1, 224640, Note_on_c, 0, 47, 0
1, 224640, Note_on_c, 0, 60, 77
1, 224640, Note_on_c, 0, 48, 66
1, 224655, Control_c, 0, 64, 0
1, 224737, Control_c, 0, 64, 127
1, 224760, Note_on_c, 0, 60, 0
1, 224760, Note_on_c, 0, 62, 69
1, 224880, Note_on_c, 0, 62, 0
1, 224880, Note_on_c, 0, 60, 69
1, 224891, Control_c, 0, 64, 0
1, 225000, Note_on_c, 0, 60, 0
1, 225000, Note_on_c, 0, 59, 69
1, 225120, Note_on_c, 0, 59, 0
1, 225120, Note_on_c, 0, 48, 0
1, 225120, Note_on_c, 0, 60, 77
1, 225240, Note_on_c, 0, 60, 0
1, 225240, Note_on_c, 0, 63, 69
1, 225360, Note_on_c, 0, 63, 0
1, 225360, Note_on_c, 0, 62, 69
1, 225360, Note_on_c, 0, 42, 58
1, 225406, Control_c, 0, 64, 127
1, 225480, Tempo, 365854
1, 225480, Note_on_c, 0, 62, 0
1, 225480, Note_on_c, 0, 60, 69
1, 225600, Tempo, 298507
1, 225600, Note_on_c, 0, 60, 0
1, 225600, Note_on_c, 0, 42, 0
1, 225600, Note_on_c, 0, 59, 77
1, 225600, Note_on_c, 0, 43, 67
1, 225623, Control_c, 0, 64, 0
1, 225715, Control_c, 0, 64, 127
1, 225720, Note_on_c, 0, 59, 0
1, 225720, Note_on_c, 0, 67, 69
1, 225840, Note_on_c, 0, 67, 0
1, 225840, Note_on_c, 0, 62, 69
1, 225960, Note_on_c, 0, 62, 0
1, 225960, Note_on_c, 0, 59, 69
1, 226080, Note_on_c, 0, 59, 0
1, 226080, Note_on_c, 0, 43, 0
1, 226080, Note_on_c, 0, 55, 79
1, 226080, Note_on_c, 0, 36, 82
1, 226080, Note_on_c, 0, 48, 96
1, 226086, Control_c, 0, 64, 0
1, 226160, Control_c, 0, 64, 127
1, 226200, Note_on_c, 0, 55, 0
1, 226200, Note_on_c, 0, 67, 69
1, 226320, Note_on_c, 0, 67, 0
1, 226320, Note_on_c, 0, 48, 0
1, 226320, Note_on_c, 0, 36, 0
1, 226320, Note_on_c, 0, 63, 69
1, 226440, Note_on_c, 0, 63, 0
1, 226440, Note_on_c, 0, 60, 69
1, 226560, Note_on_c, 0, 60, 0
1, 226560, Note_on_c, 0, 55, 81
1, 226560, Note_on_c, 0, 31, 55
1, 226560, Note_on_c, 0, 43, 66
1, 226560, Control_c, 0, 64, 0
1, 226629, Control_c, 0, 64, 127
1, 226680, Note_on_c, 0, 55, 0
1, 226680, Note_on_c, 0, 67, 69
1, 226800, Note_on_c, 0, 67, 0
1, 226800, Note_on_c, 0, 43, 0
1, 226800, Note_on_c, 0, 31, 0
1, 226800, Note_on_c, 0, 62, 69
1, 226814, Control_c, 0, 64, 0
1, 226857, Control_c, 0, 64, 127
1, 226920, Note_on_c, 0, 62, 0
1, 226920, Note_on_c, 0, 59, 69
1, 227040, Note_on_c, 0, 59, 0
1, 227040, Note_on_c, 0, 55, 80
1, 227040, Note_on_c, 0, 36, 82
1, 227040, Note_on_c, 0, 48, 97
1, 227059, Control_c, 0, 64, 0
1, 227126, Control_c, 0, 64, 127
1, 227160, Note_on_c, 0, 55, 0
1, 227160, Note_on_c, 0, 67, 69
1, 227280, Note_on_c, 0, 67, 0
1, 227280, Note_on_c, 0, 48, 0
1, 227280, Note_on_c, 0, 36, 0
1, 227280, Note_on_c, 0, 63, 69
1, 227293, Control_c, 0, 64, 0
1, 227360, Control_c, 0, 64, 127
1, 227400, Note_on_c, 0, 63, 0
1, 227400, Note_on_c, 0, 60, 69
1, 227520, Note_on_c, 0, 60, 0
1, 227520, Note_on_c, 0, 55, 80
1, 227520, Note_on_c, 0, 31, 57
1, 227520, Note_on_c, 0, 43, 68
1, 227540, Control_c, 0, 64, 0
1, 227600, Control_c, 0, 64, 127
1, 227640, Note_on_c, 0, 55, 0
1, 227640, Note_on_c, 0, 67, 69
1, 227760, Note_on_c, 0, 67, 0
1, 227760, Note_on_c, 0, 43, 0
1, 227760, Note_on_c, 0, 31, 0
1, 227760, Note_on_c, 0, 62, 69
1, 227777, Control_c, 0, 64, 0
1, 227857, Control_c, 0, 64, 127
1, 227880, Note_on_c, 0, 62, 0
1, 227880, Note_on_c, 0, 59, 69
1, 228000, Note_on_c, 0, 59, 0
1, 228000, Note_on_c, 0, 55, 80
1, 228000, Note_on_c, 0, 36, 82
1, 228000, Note_on_c, 0, 48, 97
1, 228017, Control_c, 0, 64, 0
1, 228092, Control_c, 0, 64, 127
1, 228120, Note_on_c, 0, 55, 0
1, 228120, Note_on_c, 0, 67, 69
1, 228240, Note_on_c, 0, 67, 0
1, 228240, Note_on_c, 0, 48, 0
1, 228240, Note_on_c, 0, 36, 0
1, 228240, Note_on_c, 0, 63, 69
1, 228255, Control_c, 0, 64, 0
1, 228355, Control_c, 0, 64, 127
1, 228360, Tempo, 358209
1, 228360, Note_on_c, 0, 63, 0
1, 228360, Note_on_c, 0, 60, 69
1, 228480, Tempo, 597015
1, 228480, Note_on_c, 0, 60, 0
1, 228480, Note_on_c, 0, 55, 74
1, 228480, Note_on_c, 0, 59, 74
1, 228480, Note_on_c, 0, 62, 74
1, 228480, Note_on_c, 0, 67, 89
1, 228480, Note_on_c, 0, 31, 66
1, 228480, Note_on_c, 0, 35, 66
1, 228480, Note_on_c, 0, 38, 66
1, 228480, Note_on_c, 0, 43, 78
1, 228480, Control_c, 0, 64, 0
1, 229440, Note_on_c, 0, 43, 0
1, 229440, Note_on_c, 0, 55, 0
1, 229440, Note_on_c, 0, 31, 0
1, 229440, Note_on_c, 0, 59, 0
1, 229440, Note_on_c, 0, 62, 0
1, 229440, Note_on_c, 0, 67, 0
1, 229440, Note_on_c, 0, 35, 0
1, 229440, Note_on_c, 0, 38, 0
1, 229680, Tempo, 309278
1, 229680, Note_on_c, 0, 67, 40
1, 229800, Note_on_c, 0, 67, 0
1, 229920, Note_on_c, 0, 69, 37
1, 230040, Note_on_c, 0, 69, 0
1, 230160, Note_on_c, 0, 71, 37
1, 230280, Note_on_c, 0, 71, 0
1, 230400, Note_on_c, 0, 64, 39
1, 230400, Note_on_c, 0, 67, 39
1, 230400, Note_on_c, 0, 72, 46
1, 230400, Note_on_c, 0, 55, 26
1, 230400, Note_on_c, 0, 48, 26
1, 230400, Note_on_c, 0, 60, 31
1, 230520, Note_on_c, 0, 72, 0
1, 230640, Note_on_c, 0, 74, 40
1, 230760, Note_on_c, 0, 74, 0
1, 230880, Tempo, 326087
1, 230880, Note_on_c, 0, 76, 40
1, 231000, Note_on_c, 0, 76, 0
1, 231360, Tempo, 320000
1, 231360, Note_on_c, 0, 67, 0
1, 231360, Note_on_c, 0, 55, 0
1, 231360, Note_on_c, 0, 64, 0
1, 231360, Note_on_c, 0, 60, 0
1, 231360, Note_on_c, 0, 48, 0
1, 231360, Note_on_c, 0, 62, 38
1, 231360, Note_on_c, 0, 67, 38
1, 231360, Note_on_c, 0, 74, 45
1, 231360, Note_on_c, 0, 55, 25
1, 231360, Note_on_c, 0, 53, 25
1, 231360, Note_on_c, 0, 59, 30
1, 231480, Note_on_c, 0, 59, 0
1, 231480, Note_on_c, 0, 67, 0
1, 231480, Note_on_c, 0, 74, 0
1, 231480, Note_on_c, 0, 62, 0
1, 231480, Note_on_c, 0, 53, 0
1, 231480, Note_on_c, 0, 55, 0
1, 231840, Note_on_c, 0, 64, 33
1, 231840, Note_on_c, 0, 67, 33
1, 231840, Note_on_c, 0, 72, 39
1, 231840, Note_on_c, 0, 52, 23
1, 231840, Note_on_c, 0, 55, 23
1, 231840, Note_on_c, 0, 60, 27
1, 231960, Note_on_c, 0, 60, 0
1, 231960, Note_on_c, 0, 67, 0
1, 231960, Note_on_c, 0, 72, 0
1, 231960, Note_on_c, 0, 64, 0
1, 231960, Note_on_c, 0, 55, 0
1, 231960, Note_on_c, 0, 52, 0
1, 232080, Tempo, 390879
1, 232320, Tempo, 319149
1, 232320, Note_on_c, 0, 65, 37
1, 232320, Note_on_c, 0, 67, 37
1, 232320, Note_on_c, 0, 71, 37
1, 232320, Note_on_c, 0, 77, 45
1, 232320, Note_on_c, 0, 55, 27
1, 232320, Note_on_c, 0, 50, 27
1, 232320, Note_on_c, 0, 62, 32
1, 233280, Note_on_c, 0, 62, 0
1, 233280, Note_on_c, 0, 55, 0
1, 233280, Note_on_c, 0, 67, 0
1, 233280, Note_on_c, 0, 71, 0
1, 233280, Note_on_c, 0, 65, 0
1, 233280, Note_on_c, 0, 50, 0
1, 233280, Note_on_c, 0, 77, 0
1, 233520, Tempo, 309278
1, 233520, Note_on_c, 0, 67, 40
1, 233640, Note_on_c, 0, 67, 0
1, 233760, Note_on_c, 0, 69, 37
1, 233880, Note_on_c, 0, 69, 0
1, 234000, Note_on_c, 0, 71, 37
1, 234120, Note_on_c, 0, 71, 0
1, 234240, Note_on_c, 0, 64, 39
1, 234240, Note_on_c, 0, 67, 39
1, 234240, Note_on_c, 0, 72, 46
1, 234240, Note_on_c, 0, 55, 26
1, 234240, Note_on_c, 0, 48, 26
1, 234240, Note_on_c, 0, 60, 31
1, 234360, Note_on_c, 0, 72, 0
1, 234480, Note_on_c, 0, 74, 40
1, 234600, Note_on_c, 0, 74, 0
1, 234720, Tempo, 326087
1, 234720, Note_on_c, 0, 76, 40
1, 234840, Note_on_c, 0, 76, 0
1, 235200, Tempo, 320000
1, 235200, Note_on_c, 0, 67, 0
1, 235200, Note_on_c, 0, 55, 0
1, 235200, Note_on_c, 0, 64, 0
1, 235200, Note_on_c, 0, 60, 0
1, 235200, Note_on_c, 0, 48, 0
1, 235200, Note_on_c, 0, 62, 38
1, 235200, Note_on_c, 0, 69, 38
1, 235200, Note_on_c, 0, 74, 45
1, 235200, Note_on_c, 0, 53, 25
1, 235200, Note_on_c, 0, 57, 30
1, 235320, Note_on_c, 0, 57, 0
1, 235320, Note_on_c, 0, 74, 0
1, 235320, Note_on_c, 0, 62, 0
1, 235320, Note_on_c, 0, 69, 0
1, 235320, Note_on_c, 0, 53, 0
1, 235680, Note_on_c, 0, 69, 33
1, 235680, Note_on_c, 0, 62, 33
1, 235680, Note_on_c, 0, 72, 39
1, 235680, Note_on_c, 0, 54, 23
1, 235680, Note_on_c, 0, 57, 27
1, 235800, Note_on_c, 0, 57, 0
1, 235800, Note_on_c, 0, 72, 0
1, 235800, Note_on_c, 0, 69, 0
1, 235800, Note_on_c, 0, 62, 0
1, 235800, Note_on_c, 0, 54, 0
1, 235920, Tempo, 390879
1, 236160, Tempo, 320000
1, 236160, Note_on_c, 0, 59, 31
1, 236160, Note_on_c, 0, 62, 31
1, 236160, Note_on_c, 0, 67, 37
1, 236160, Note_on_c, 0, 43, 22
1, 236160, Note_on_c, 0, 55, 27
1, 237120, Note_on_c, 0, 55, 0
1, 237120, Note_on_c, 0, 67, 0
1, 237120, Note_on_c, 0, 59, 0
1, 237120, Note_on_c, 0, 62, 0
1, 237120, Note_on_c, 0, 43, 0
1, 237360, Tempo, 309278
1, 237360, Note_on_c, 0, 67, 40
1, 237480, Note_on_c, 0, 67, 0
1, 237600, Note_on_c, 0, 69, 37
1, 237720, Note_on_c, 0, 69, 0
1, 237840, Note_on_c, 0, 71, 37
1, 237960, Note_on_c, 0, 71, 0
1, 238080, Note_on_c, 0, 64, 39
1, 238080, Note_on_c, 0, 67, 39
1, 238080, Note_on_c, 0, 72, 46
1, 238080, Note_on_c, 0, 55, 26
1, 238080, Note_on_c, 0, 48, 26
1, 238080, Note_on_c, 0, 60, 31
1, 238200, Note_on_c, 0, 72, 0
1, 238320, Note_on_c, 0, 74, 40
1, 238440, Note_on_c, 0, 74, 0
1, 238560, Tempo, 326087
1, 238560, Note_on_c, 0, 76, 40
1, 238680, Note_on_c, 0, 76, 0
1, 239040, Tempo, 320000
1, 239040, Note_on_c, 0, 67, 0
1, 239040, Note_on_c, 0, 55, 0
1, 239040, Note_on_c, 0, 64, 0
1, 239040, Note_on_c, 0, 60, 0
1, 239040, Note_on_c, 0, 48, 0
1, 239040, Note_on_c, 0, 62, 38
1, 239040, Note_on_c, 0, 67, 38
1, 239040, Note_on_c, 0, 74, 45
1, 239040, Note_on_c, 0, 55, 25
1, 239040, Note_on_c, 0, 53, 25
1, 239040, Note_on_c, 0, 59, 30
1, 239160, Note_on_c, 0, 59, 0
1, 239160, Note_on_c, 0, 67, 0
1, 239160, Note_on_c, 0, 74, 0
1, 239160, Note_on_c, 0, 62, 0
1, 239160, Note_on_c, 0, 53, 0
1, 239160, Note_on_c, 0, 55, 0
1, 239520, Note_on_c, 0, 64, 33
1, 239520, Note_on_c, 0, 67, 33
1, 239520, Note_on_c, 0, 72, 39
1, 239520, Note_on_c, 0, 55, 23
1, 239520, Note_on_c, 0, 52, 23
1, 239520, Note_on_c, 0, 60, 27
1, 239640, Note_on_c, 0, 60, 0
1, 239640, Note_on_c, 0, 67, 0
1, 239640, Note_on_c, 0, 72, 0
1, 239640, Note_on_c, 0, 64, 0
1, 239640, Note_on_c, 0, 52, 0
1, 239640, Note_on_c, 0, 55, 0
1, 239760, Tempo, 502092
1, 239880, Tempo, 353982
1, 239895, Note_on_c, 0, 53, 28
1, 239910, Note_on_c, 0, 57, 32
1, 239925, Note_on_c, 0, 60, 36
1, 239940, Note_on_c, 0, 65, 40
1, 239955, Note_on_c, 0, 69, 45
1, 239970, Note_on_c, 0, 72, 50
1, 239985, Note_on_c, 0, 77, 71
1, 240000, Tempo, 308483
1, 240000, Note_on_c, 0, 81, 80
1, 240480, Note_on_c, 0, 65, 0
1, 240480, Note_on_c, 0, 60, 0
1, 240480, Note_on_c, 0, 53, 0
1, 240480, Note_on_c, 0, 57, 0
1, 240960, Note_on_c, 0, 69, 0
1, 240960, Note_on_c, 0, 77, 0
1, 240960, Note_on_c, 0, 72, 0
1, 241200, Note_on_c, 0, 81, 0
1, 241200, Note_on_c, 0, 81, 48
1, 241320, Note_on_c, 0, 81, 0
1, 241440, Note_on_c, 0, 79, 53
1, 241560, Note_on_c, 0, 79, 0
1, 241680, Tempo, 349854
1, 241680, Note_on_c, 0, 77, 50
1, 241800, Note_on_c, 0, 77, 0
1, 241920, Tempo, 307692
1, 241920, Note_on_c, 0, 76, 53
1, 241920, Note_on_c, 0, 55, 80
1, 242160, Note_on_c, 0, 76, 0
1, 242160, Note_on_c, 0, 74, 48
1, 242400, Note_on_c, 0, 74, 0
1, 242400, Note_on_c, 0, 72, 48
1, 242520, Note_on_c, 0, 72, 0
1, 242640, Note_on_c, 0, 71, 48
1, 242760, Note_on_c, 0, 71, 0
1, 242880, Note_on_c, 0, 62, 45
1, 242880, Note_on_c, 0, 65, 45
1, 242880, Note_on_c, 0, 69, 53
1, 243120, Note_on_c, 0, 43, 49
1, 243240, Note_on_c, 0, 43, 0
1, 243360, Note_on_c, 0, 69, 0
1, 243360, Note_on_c, 0, 67, 49
1, 243360, Note_on_c, 0, 45, 53
1, 243480, Note_on_c, 0, 45, 0
1, 243600, Tempo, 319149
1, 243600, Note_on_c, 0, 47, 45
1, 243720, Note_on_c, 0, 47, 0
1, 243840, Tempo, 303797
1, 243840, Note_on_c, 0, 67, 0
1, 243840, Note_on_c, 0, 65, 0
1, 243840, Note_on_c, 0, 62, 0
1, 243840, Note_on_c, 0, 60, 41
1, 243840, Note_on_c, 0, 64, 41
1, 243840, Note_on_c, 0, 67, 49
1, 243840, Note_on_c, 0, 48, 53
1, 243960, Note_on_c, 0, 48, 0
1, 244080, Note_on_c, 0, 50, 49
1, 244200, Note_on_c, 0, 50, 0
1, 244320, Note_on_c, 0, 52, 51
1, 244440, Note_on_c, 0, 52, 0
1, 244800, Tempo, 305344
1, 244800, Note_on_c, 0, 64, 0
1, 244800, Note_on_c, 0, 67, 0
1, 244800, Note_on_c, 0, 60, 0
1, 244800, Note_on_c, 0, 50, 53
1, 245040, Note_on_c, 0, 79, 48
1, 245160, Note_on_c, 0, 79, 0
1, 245280, Note_on_c, 0, 50, 0
1, 245280, Note_on_c, 0, 77, 53
1, 245280, Note_on_c, 0, 48, 50
1, 245400, Note_on_c, 0, 77, 0
1, 245520, Tempo, 339943
1, 245520, Note_on_c, 0, 76, 50
1, 245640, Note_on_c, 0, 76, 0
1, 245760, Tempo, 306122
1, 245760, Note_on_c, 0, 48, 0
1, 245760, Note_on_c, 0, 55, 0
1, 245760, Note_on_c, 0, 76, 53
1, 245760, Note_on_c, 0, 55, 80
1, 246000, Note_on_c, 0, 76, 0
1, 246000, Note_on_c, 0, 74, 48
1, 246240, Note_on_c, 0, 74, 0
1, 246240, Note_on_c, 0, 72, 48
1, 246360, Note_on_c, 0, 72, 0
1, 246480, Note_on_c, 0, 71, 48
1, 246600, Note_on_c, 0, 71, 0
1, 246720, Note_on_c, 0, 62, 45
1, 246720, Note_on_c, 0, 65, 45
1, 246720, Note_on_c, 0, 68, 53
1, 246960, Note_on_c, 0, 43, 49
1, 247080, Note_on_c, 0, 43, 0
1, 247200, Note_on_c, 0, 68, 0
1, 247200, Note_on_c, 0, 67, 49
1, 247200, Note_on_c, 0, 45, 53
1, 247320, Note_on_c, 0, 45, 0
1, 247440, Tempo, 315789
1, 247440, Note_on_c, 0, 47, 45
1, 247560, Note_on_c, 0, 47, 0
1, 247680, Tempo, 302267
1, 247680, Note_on_c, 0, 67, 0
1, 247680, Note_on_c, 0, 65, 0
1, 247680, Note_on_c, 0, 62, 0
1, 247680, Note_on_c, 0, 60, 54
1, 247680, Note_on_c, 0, 63, 54
1, 247680, Note_on_c, 0, 67, 54
1, 247680, Note_on_c, 0, 48, 53
1, 247800, Tempo, 302267
1, 247800, Note_on_c, 0, 48, 0
1, 247920, Note_on_c, 0, 50, 49
1, 248040, Note_on_c, 0, 50, 0
1, 248160, Note_on_c, 0, 51, 51
1, 248280, Note_on_c, 0, 51, 0
1, 248640, Tempo, 306905
1, 248640, Note_on_c, 0, 63, 0
1, 248640, Note_on_c, 0, 67, 0
1, 248640, Note_on_c, 0, 60, 0
1, 248640, Note_on_c, 0, 50, 53
1, 248880, Note_on_c, 0, 79, 48
1, 248880, Note_on_c, 0, 67, 48
1, 249000, Note_on_c, 0, 67, 0
1, 249000, Note_on_c, 0, 79, 0
1, 249120, Note_on_c, 0, 50, 0
1, 249120, Note_on_c, 0, 77, 53
1, 249120, Note_on_c, 0, 65, 53
1, 249120, Note_on_c, 0, 48, 50
1, 249240, Note_on_c, 0, 65, 0
1, 249240, Note_on_c, 0, 77, 0
1, 249360, Tempo, 320856
1, 249360, Note_on_c, 0, 75, 50
1, 249360, Note_on_c, 0, 63, 50
1, 249480, Note_on_c, 0, 63, 0
1, 249480, Note_on_c, 0, 75, 0
1, 249600, Tempo, 304569
1, 249600, Note_on_c, 0, 55, 0
1, 249600, Note_on_c, 0, 48, 0
1, 249600, Note_on_c, 0, 75, 55
1, 249600, Note_on_c, 0, 63, 55
1, 249600, Note_on_c, 0, 50, 45
1, 249600, Note_on_c, 0, 53, 53
1, 249600, Note_on_c, 0, 41, 45
1, 249600, Note_on_c, 0, 44, 45
1, 249840, Note_on_c, 0, 63, 0
1, 249840, Note_on_c, 0, 75, 0
1, 249840, Note_on_c, 0, 74, 48
1, 249840, Note_on_c, 0, 62, 48
1, 250080, Note_on_c, 0, 62, 0
1, 250080, Note_on_c, 0, 44, 0
1, 250080, Note_on_c, 0, 50, 0
1, 250080, Note_on_c, 0, 53, 0
1, 250080, Note_on_c, 0, 74, 0
1, 250080, Note_on_c, 0, 41, 0
1, 250080, Note_on_c, 0, 72, 48
1, 250080, Note_on_c, 0, 60, 48
1, 250200, Note_on_c, 0, 60, 0
1, 250200, Note_on_c, 0, 72, 0
1, 250320, Note_on_c, 0, 71, 48
1, 250320, Note_on_c, 0, 59, 48
1, 250440, Note_on_c, 0, 59, 0
1, 250440, Note_on_c, 0, 71, 0
1, 250560, Tempo, 305344
1, 250560, Note_on_c, 0, 56, 55
1, 250560, Note_on_c, 0, 68, 55
1, 250560, Note_on_c, 0, 47, 42
1, 250560, Note_on_c, 0, 43, 42
1, 250560, Note_on_c, 0, 50, 42
1, 250560, Note_on_c, 0, 53, 50
1, 250680, Note_on_c, 0, 68, 0
1, 250680, Note_on_c, 0, 56, 0
1, 250800, Note_on_c, 0, 55, 48
1, 250800, Note_on_c, 0, 67, 48
1, 250920, Note_on_c, 0, 67, 0
1, 250920, Note_on_c, 0, 55, 0
1, 251040, Note_on_c, 0, 47, 0
1, 251040, Note_on_c, 0, 43, 0
1, 251040, Note_on_c, 0, 53, 0
1, 251040, Note_on_c, 0, 50, 0
1, 251040, Note_on_c, 0, 57, 48
1, 251040, Note_on_c, 0, 69, 48
1, 251160, Note_on_c, 0, 69, 0
1, 251160, Note_on_c, 0, 57, 0
1, 251280, Tempo, 326975
1, 251280, Note_on_c, 0, 59, 48
1, 251280, Note_on_c, 0, 71, 48
1, 251400, Note_on_c, 0, 71, 0
1, 251400, Note_on_c, 0, 59, 0
1, 251510, Tempo, 308483
1, 251520, Tempo, 308483
1, 251520, Note_on_c, 0, 60, 49
1, 251520, Note_on_c, 0, 72, 58
1, 251520, Note_on_c, 0, 51, 58
1, 251520, Note_on_c, 0, 48, 49
1, 251525, Tempo, 307692
1, 251540, Tempo, 306905
1, 251555, Tempo, 306122
1, 251570, Tempo, 305344
1, 251585, Tempo, 304569
1, 251595, Control_c, 0, 64, 127
1, 251630, Tempo, 303797
1, 251720, Tempo, 306122
1, 251735, Tempo, 306905
1, 251750, Tempo, 307692
1, 251760, Note_on_c, 0, 48, 0
1, 251760, Note_on_c, 0, 51, 0
1, 251760, Note_on_c, 0, 55, 48
1, 251780, Tempo, 308483
1, 251810, Tempo, 304569
1, 251840, Tempo, 303797
1, 251870, Tempo, 303030
1, 251880, Note_on_c, 0, 55, 0
1, 251915, Tempo, 304569
1, 251930, Tempo, 306122
1, 252000, Note_on_c, 0, 72, 0
1, 252000, Note_on_c, 0, 60, 0
1, 252000, Note_on_c, 0, 55, 48
1, 252020, Tempo, 307692
1, 252065, Tempo, 306905
1, 252080, Tempo, 305344
1, 252095, Tempo, 304569
1, 252110, Tempo, 303797
1, 252120, Note_on_c, 0, 55, 0
1, 252125, Tempo, 303030
1, 252155, Tempo, 303797
1, 252200, Tempo, 304569
1, 252230, Tempo, 305344
1, 252240, Note_on_c, 0, 72, 54
1, 252240, Note_on_c, 0, 55, 48
1, 252245, Tempo, 306122
1, 252260, Tempo, 306905
1, 252275, Tempo, 308483
1, 252290, Tempo, 309278
1, 252320, Tempo, 306905
1, 252350, Tempo, 305344
1, 252360, Note_on_c, 0, 55, 0
1, 252365, Tempo, 304569
1, 252380, Tempo, 303797
1, 252455, Tempo, 304569
1, 252470, Tempo, 305344
1, 252480, Note_on_c, 0, 72, 0
1, 252480, Note_on_c, 0, 71, 60
1, 252480, Note_on_c, 0, 55, 54
1, 252485, Tempo, 306122
1, 252497, Control_c, 0, 64, 0
1, 252500, Tempo, 306905
1, 252515, Tempo, 307692
1, 252530, Tempo, 308483
1, 252545, Tempo, 309278
1, 252560, Tempo, 310078
1, 252560, Control_c, 0, 64, 127
1, 252575, Tempo, 310881
1, 252620, Tempo, 310078
1, 252635, Tempo, 306122
1, 252650, Tempo, 305344
1, 252665, Tempo, 303797
1, 252680, Tempo, 303030
1, 252720, Note_on_c, 0, 55, 0
1, 252720, Note_on_c, 0, 71, 0
1, 252720, Note_on_c, 0, 72, 55
1, 252720, Note_on_c, 0, 55, 47
1, 252725, Tempo, 302267
1, 252740, Tempo, 303030
1, 252755, Tempo, 303797
1, 252770, Tempo, 304569
1, 252800, Tempo, 305344
1, 252830, Tempo, 306122
1, 252840, Note_on_c, 0, 55, 0
1, 252875, Tempo, 305344
1, 252890, Tempo, 304569
1, 252920, Tempo, 303797
1, 252935, Tempo, 304569
1, 252950, Tempo, 305344
1, 252960, Note_on_c, 0, 72, 0
1, 252960, Note_on_c, 0, 74, 52
1, 252960, Note_on_c, 0, 77, 62
1, 252960, Note_on_c, 0, 47, 47
1, 252963, Control_c, 0, 64, 0
1, 253052, Control_c, 0, 64, 127
1, 253080, Note_on_c, 0, 47, 0
1, 253080, Note_on_c, 0, 77, 0
1, 253080, Note_on_c, 0, 74, 0
1, 253200, Tempo, 316623
1, 253200, Note_on_c, 0, 74, 48
1, 253200, Note_on_c, 0, 77, 57
1, 253200, Note_on_c, 0, 55, 47
1, 253320, Note_on_c, 0, 55, 0
1, 253320, Note_on_c, 0, 77, 0
1, 253320, Note_on_c, 0, 74, 0
1, 253440, Tempo, 308483
1, 253440, Note_on_c, 0, 72, 55
1, 253440, Note_on_c, 0, 75, 65
1, 253440, Note_on_c, 0, 48, 63
1, 253440, Control_c, 0, 64, 0
1, 253445, Tempo, 307692
1, 253460, Tempo, 306905
1, 253475, Tempo, 306122
1, 253490, Tempo, 305344
1, 253505, Tempo, 304569
1, 253550, Tempo, 303797
1, 253560, Control_c, 0, 64, 127
1, 253640, Tempo, 306122
1, 253655, Tempo, 306905
1, 253670, Tempo, 307692
1, 253680, Note_on_c, 0, 48, 0
1, 253680, Note_on_c, 0, 55, 52
1, 253700, Tempo, 308483
1, 253730, Tempo, 304569
1, 253760, Tempo, 303797
1, 253790, Tempo, 303030
1, 253800, Note_on_c, 0, 55, 0
1, 253835, Tempo, 304569
1, 253850, Tempo, 306122
1, 253920, Note_on_c, 0, 75, 0
1, 253920, Note_on_c, 0, 72, 0
1, 253920, Note_on_c, 0, 55, 52
1, 253940, Tempo, 307692
1, 253985, Tempo, 306905
1, 254000, Tempo, 305344
1, 254015, Tempo, 304569
1, 254030, Tempo, 303797
1, 254040, Note_on_c, 0, 55, 0
1, 254045, Tempo, 303030
1, 254075, Tempo, 303797
1, 254120, Tempo, 304569
1, 254150, Tempo, 305344
1, 254160, Note_on_c, 0, 72, 61
1, 254160, Note_on_c, 0, 55, 52
1, 254165, Tempo, 306122
1, 254180, Tempo, 306905
1, 254195, Tempo, 308483
1, 254210, Tempo, 309278
1, 254240, Tempo, 306905
1, 254270, Tempo, 305344
1, 254280, Note_on_c, 0, 55, 0
1, 254285, Tempo, 304569
1, 254300, Tempo, 303797
1, 254375, Tempo, 304569
1, 254390, Tempo, 305344
1, 254400, Note_on_c, 0, 72, 0
1, 254400, Note_on_c, 0, 71, 68
1, 254400, Note_on_c, 0, 55, 59
1, 254405, Tempo, 306122
1, 254407, Control_c, 0, 64, 0
1, 254420, Tempo, 306905
1, 254435, Tempo, 307692
1, 254446, Control_c, 0, 64, 127
1, 254450, Tempo, 308483
1, 254465, Tempo, 309278
1, 254480, Tempo, 310078
1, 254495, Tempo, 310881
1, 254540, Tempo, 310078
1, 254555, Tempo, 306122
1, 254570, Tempo, 305344
1, 254585, Tempo, 303797
1, 254600, Tempo, 303030
1, 254640, Note_on_c, 0, 55, 0
1, 254640, Note_on_c, 0, 71, 0
1, 254640, Note_on_c, 0, 72, 63
1, 254640, Note_on_c, 0, 55, 52
1, 254645, Tempo, 302267
1, 254660, Tempo, 303030
1, 254675, Tempo, 303797
1, 254690, Tempo, 304569
1, 254720, Tempo, 305344
1, 254750, Tempo, 306122
1, 254760, Note_on_c, 0, 55, 0
1, 254795, Tempo, 305344
1, 254810, Tempo, 304569
1, 254840, Tempo, 303797
1, 254855, Tempo, 304569
1, 254870, Tempo, 305344
1, 254880, Note_on_c, 0, 72, 0
1, 254880, Note_on_c, 0, 77, 58
1, 254880, Note_on_c, 0, 80, 69
1, 254880, Note_on_c, 0, 47, 52
1, 254893, Control_c, 0, 64, 0
1, 254977, Control_c, 0, 64, 127
1, 255000, Note_on_c, 0, 47, 0
1, 255000, Note_on_c, 0, 80, 0
1, 255000, Note_on_c, 0, 77, 0
1, 255120, Tempo, 316623
1, 255120, Note_on_c, 0, 77, 54
1, 255120, Note_on_c, 0, 80, 64
1, 255120, Note_on_c, 0, 55, 52
1, 255240, Note_on_c, 0, 55, 0
1, 255240, Note_on_c, 0, 80, 0
1, 255240, Note_on_c, 0, 77, 0
1, 255360, Note_on_c, 0, 75, 70
1, 255360, Note_on_c, 0, 79, 70
1, 255360, Note_on_c, 0, 48, 69
1, 255360, Control_c, 0, 64, 0
1, 255363, Tempo, 306905
1, 255393, Tempo, 309278
1, 255414, Control_c, 0, 64, 127
1, 255453, Tempo, 306122
1, 255483, Tempo, 305344
1, 255573, Tempo, 306905
1, 255600, Note_on_c, 0, 48, 0
1, 255600, Note_on_c, 0, 55, 55
1, 255603, Tempo, 306122
1, 255633, Tempo, 304569
1, 255663, Tempo, 303797
1, 255720, Note_on_c, 0, 55, 0
1, 255753, Tempo, 305344
1, 255813, Tempo, 306122
1, 255840, Note_on_c, 0, 79, 0
1, 255840, Note_on_c, 0, 75, 0
1, 255840, Note_on_c, 0, 55, 55
1, 255843, Tempo, 306905
1, 255873, Tempo, 308483
1, 255933, Tempo, 307692
1, 255960, Note_on_c, 0, 55, 0
1, 255993, Tempo, 304569
1, 256023, Tempo, 303797
1, 256080, Note_on_c, 0, 84, 74
1, 256080, Note_on_c, 0, 55, 55
1, 256083, Tempo, 304569
1, 256113, Tempo, 307692
1, 256143, Tempo, 308483
1, 256200, Note_on_c, 0, 55, 0
1, 256233, Tempo, 305344
1, 256320, Note_on_c, 0, 84, 0
1, 256320, Note_on_c, 0, 83, 84
1, 256320, Note_on_c, 0, 55, 71
1, 256338, Control_c, 0, 64, 0
1, 256382, Control_c, 0, 64, 127
1, 256413, Tempo, 307692
1, 256473, Tempo, 308483
1, 256560, Note_on_c, 0, 55, 0
1, 256560, Note_on_c, 0, 83, 0
1, 256560, Note_on_c, 0, 84, 77
1, 256560, Note_on_c, 0, 55, 62
1, 256563, Tempo, 307692
1, 256593, Tempo, 306905
1, 256623, Tempo, 306122
1, 256653, Tempo, 305344
1, 256680, Tempo, 342661
1, 256680, Note_on_c, 0, 55, 0
1, 256800, Tempo, 409277
1, 256800, Note_on_c, 0, 84, 0
1, 256800, Note_on_c, 0, 89, 94
1, 256800, Note_on_c, 0, 86, 94
1, 256800, Note_on_c, 0, 47, 57
1, 256800, Note_on_c, 0, 50, 57
1, 256800, Note_on_c, 0, 53, 57
1, 256800, Note_on_c, 0, 55, 68
1, 256808, Control_c, 0, 64, 0
1, 256862, Control_c, 0, 64, 127
1, 256920, Note_on_c, 0, 55, 0
1, 256920, Note_on_c, 0, 86, 0
1, 256920, Note_on_c, 0, 47, 0
1, 256920, Note_on_c, 0, 89, 0
1, 256920, Note_on_c, 0, 53, 0
1, 256920, Note_on_c, 0, 50, 0
1, 257040, Tempo, 526316
1, 257040, Note_on_c, 0, 86, 86
1, 257040, Note_on_c, 0, 89, 86
1, 257040, Note_on_c, 0, 47, 58
1, 257040, Note_on_c, 0, 50, 58
1, 257040, Note_on_c, 0, 53, 58
1, 257040, Note_on_c, 0, 55, 69
1, 257160, Note_on_c, 0, 55, 0
1, 257160, Note_on_c, 0, 89, 0
1, 257160, Note_on_c, 0, 47, 0
1, 257160, Note_on_c, 0, 86, 0
1, 257160, Note_on_c, 0, 53, 0
1, 257160, Note_on_c, 0, 50, 0
1, 257280, Tempo, 307692
1, 257280, Note_on_c, 0, 86, 101
1, 257280, Note_on_c, 0, 89, 101
1, 257280, Note_on_c, 0, 55, 72
1, 257280, Note_on_c, 0, 47, 53
1, 257280, Note_on_c, 0, 50, 53
1, 257280, Note_on_c, 0, 53, 53
1, 257280, Control_c, 0, 64, 0
1, 257280, Control_c, 0, 64, 0
1, 257429, Control_c, 0, 64, 127
1, 257760, Note_on_c, 0, 86, 0
1, 257880, Note_on_c, 0, 89, 0
1, 257880, Note_on_c, 0, 87, 74
1, 258000, Note_on_c, 0, 87, 0
1, 258000, Note_on_c, 0, 86, 73
1, 258013, Tempo, 303797
1, 258120, Note_on_c, 0, 86, 0
1, 258120, Note_on_c, 0, 84, 72
1, 258240, Note_on_c, 0, 84, 0
1, 258240, Note_on_c, 0, 83, 72
1, 258313, Tempo, 304569
1, 258360, Note_on_c, 0, 83, 0
1, 258360, Note_on_c, 0, 84, 72
1, 258480, Note_on_c, 0, 84, 0
1, 258480, Note_on_c, 0, 86, 71
1, 258600, Note_on_c, 0, 86, 0
1, 258600, Note_on_c, 0, 84, 70
1, 258613, Tempo, 305344
1, 258720, Note_on_c, 0, 84, 0
1, 258720, Note_on_c, 0, 83, 69
1, 258840, Note_on_c, 0, 83, 0
1, 258840, Note_on_c, 0, 80, 68
1, 258913, Tempo, 306122
1, 258960, Note_on_c, 0, 80, 0
1, 258960, Note_on_c, 0, 79, 67
1, 259080, Note_on_c, 0, 79, 0
1, 259080, Note_on_c, 0, 77, 66
1, 259200, Note_on_c, 0, 77, 0
1, 259200, Note_on_c, 0, 55, 0
1, 259200, Note_on_c, 0, 47, 0
1, 259200, Note_on_c, 0, 53, 0
1, 259200, Note_on_c, 0, 50, 0
1, 259200, Note_on_c, 0, 75, 66
1, 259200, Note_on_c, 0, 48, 49
1, 259200, Note_on_c, 0, 51, 49
1, 259200, Note_on_c, 0, 55, 66
1, 259200, Control_c, 0, 64, 0
1, 259213, Tempo, 306122
1, 259360, Note_on_c, 0, 75, 0
1, 259360, Note_on_c, 0, 77, 62
1, 259384, Control_c, 0, 64, 127
1, 259520, Note_on_c, 0, 77, 0
1, 259520, Note_on_c, 0, 79, 62
1, 259680, Note_on_c, 0, 79, 0
1, 259680, Note_on_c, 0, 48, 0
1, 259680, Note_on_c, 0, 51, 0
1, 259680, Note_on_c, 0, 55, 0
1, 259680, Note_on_c, 0, 77, 66
1, 259813, Tempo, 304569
1, 259840, Note_on_c, 0, 77, 0
1, 259840, Note_on_c, 0, 75, 62
1, 259933, Tempo, 305344
1, 260000, Note_on_c, 0, 75, 0
1, 260000, Note_on_c, 0, 74, 62
1, 260053, Tempo, 306122
1, 260160, Note_on_c, 0, 74, 0
1, 260160, Note_on_c, 0, 72, 66
1, 260165, Control_c, 0, 64, 0
1, 260173, Tempo, 306905
1, 260238, Control_c, 0, 64, 127
1, 260293, Tempo, 307692
1, 260320, Note_on_c, 0, 72, 0
1, 260320, Note_on_c, 0, 70, 62
1, 260480, Note_on_c, 0, 70, 0
1, 260480, Note_on_c, 0, 68, 62
1, 260640, Note_on_c, 0, 68, 0
1, 260640, Note_on_c, 0, 67, 66
1, 260800, Note_on_c, 0, 67, 0
1, 260800, Note_on_c, 0, 65, 60
1, 260880, Tempo, 318302
1, 260960, Note_on_c, 0, 65, 0
1, 260960, Note_on_c, 0, 63, 63
1, 261120, Tempo, 320856
1, 261120, Note_on_c, 0, 63, 0
1, 261120, Note_on_c, 0, 41, 73
1, 261120, Control_c, 0, 64, 0
1, 261212, Control_c, 0, 64, 127
1, 261240, Note_on_c, 0, 62, 59
1, 261360, Tempo, 306905
1, 261360, Note_on_c, 0, 62, 0
1, 261360, Note_on_c, 0, 41, 0
1, 261360, Note_on_c, 0, 65, 63
1, 261480, Note_on_c, 0, 65, 0
1, 261480, Note_on_c, 0, 68, 67
1, 261600, Note_on_c, 0, 68, 0
1, 261600, Note_on_c, 0, 74, 72
1, 261616, Control_c, 0, 64, 0
1, 261840, Note_on_c, 0, 74, 0
1, 261840, Note_on_c, 0, 53, 63
1, 261960, Note_on_c, 0, 53, 0
1, 262080, Tempo, 318302
1, 262080, Note_on_c, 0, 43, 70
1, 262158, Control_c, 0, 64, 127
1, 262200, Note_on_c, 0, 59, 63
1, 262320, Tempo, 306905
1, 262320, Note_on_c, 0, 59, 0
1, 262320, Note_on_c, 0, 43, 0
1, 262320, Note_on_c, 0, 62, 66
1, 262440, Note_on_c, 0, 62, 0
1, 262440, Note_on_c, 0, 65, 69
1, 262560, Note_on_c, 0, 65, 0
1, 262560, Note_on_c, 0, 71, 72
1, 262574, Control_c, 0, 64, 0
1, 262800, Tempo, 324324
1, 262800, Note_on_c, 0, 71, 0
1, 262800, Note_on_c, 0, 55, 63
1, 262920, Note_on_c, 0, 55, 0
1, 263018, Tempo, 308483
1, 263040, Note_on_c, 0, 71, 67
1, 263040, Control_c, 0, 64, 127
1, 263160, Note_on_c, 0, 71, 0
1, 263160, Note_on_c, 0, 83, 60
1, 263198, Tempo, 307692
1, 263280, Note_on_c, 0, 83, 0
1, 263280, Note_on_c, 0, 71, 67
1, 263280, Note_on_c, 0, 65, 63
1, 263348, Tempo, 306905
1, 263400, Note_on_c, 0, 65, 0
1, 263400, Note_on_c, 0, 71, 0
1, 263400, Note_on_c, 0, 83, 60
1, 263400, Note_on_c, 0, 67, 65
1, 263520, Note_on_c, 0, 67, 0
1, 263520, Note_on_c, 0, 83, 0
1, 263520, Note_on_c, 0, 71, 67
1, 263520, Note_on_c, 0, 68, 69
1, 263528, Tempo, 306122
1, 263640, Note_on_c, 0, 68, 0
1, 263640, Note_on_c, 0, 71, 0
1, 263640, Note_on_c, 0, 83, 59
1, 263640, Note_on_c, 0, 67, 67
1, 263678, Tempo, 305344
1, 263760, Note_on_c, 0, 67, 0
1, 263760, Note_on_c, 0, 83, 0
1, 263760, Note_on_c, 0, 71, 67
1, 263760, Note_on_c, 0, 65, 65
1, 263798, Tempo, 303030
1, 263880, Note_on_c, 0, 65, 0
1, 263880, Note_on_c, 0, 71, 0
1, 263880, Note_on_c, 0, 83, 61
1, 263880, Note_on_c, 0, 63, 64
1, 264000, Note_on_c, 0, 63, 0
1, 264000, Note_on_c, 0, 83, 0
1, 264000, Note_on_c, 0, 71, 67
1, 264000, Note_on_c, 0, 62, 67
1, 264120, Note_on_c, 0, 71, 0
1, 264120, Note_on_c, 0, 83, 59
1, 264128, Tempo, 303797
1, 264160, Note_on_c, 0, 62, 0
1, 264160, Note_on_c, 0, 60, 61
1, 264240, Note_on_c, 0, 83, 0
1, 264240, Note_on_c, 0, 71, 67
1, 264320, Note_on_c, 0, 60, 0
1, 264320, Note_on_c, 0, 59, 61
1, 264360, Note_on_c, 0, 71, 0
1, 264360, Note_on_c, 0, 83, 59
1, 264458, Tempo, 304569
1, 264480, Note_on_c, 0, 83, 0
1, 264480, Note_on_c, 0, 59, 0
1, 264480, Note_on_c, 0, 71, 67
1, 264480, Note_on_c, 0, 56, 67
1, 264600, Note_on_c, 0, 71, 0
1, 264600, Note_on_c, 0, 83, 59
1, 264640, Note_on_c, 0, 56, 0
1, 264640, Note_on_c, 0, 55, 62
1, 264720, Note_on_c, 0, 83, 0
1, 264720, Note_on_c, 0, 71, 67
1, 264788, Tempo, 305344
1, 264800, Note_on_c, 0, 55, 0
1, 264800, Note_on_c, 0, 53, 62
1, 264840, Note_on_c, 0, 71, 0
1, 264840, Note_on_c, 0, 83, 60
1, 264960, Tempo, 308483
1, 264960, Note_on_c, 0, 83, 0
1, 264960, Note_on_c, 0, 53, 0
1, 264960, Note_on_c, 0, 72, 67
1, 264960, Note_on_c, 0, 51, 67
1, 264972, Control_c, 0, 64, 0
1, 265052, Control_c, 0, 64, 127
1, 265080, Note_on_c, 0, 72, 0
1, 265080, Note_on_c, 0, 84, 60
1, 265118, Tempo, 307692
1, 265120, Note_on_c, 0, 51, 0
1, 265120, Note_on_c, 0, 53, 63
1, 265200, Note_on_c, 0, 84, 0
1, 265200, Note_on_c, 0, 72, 69
1, 265268, Tempo, 306905
1, 265280, Note_on_c, 0, 53, 0
1, 265280, Note_on_c, 0, 55, 63
1, 265320, Note_on_c, 0, 72, 0
1, 265320, Note_on_c, 0, 84, 62
1, 265440, Note_on_c, 0, 84, 0
1, 265440, Note_on_c, 0, 55, 0
1, 265440, Note_on_c, 0, 72, 71
1, 265440, Note_on_c, 0, 53, 67
1, 265448, Tempo, 306122
1, 265560, Note_on_c, 0, 72, 0
1, 265560, Note_on_c, 0, 84, 63
1, 265598, Tempo, 305344
1, 265600, Note_on_c, 0, 53, 0
1, 265600, Note_on_c, 0, 51, 60
1, 265680, Note_on_c, 0, 84, 0
1, 265680, Note_on_c, 0, 72, 72
1, 265718, Tempo, 303030
1, 265760, Note_on_c, 0, 51, 0
1, 265760, Note_on_c, 0, 50, 60
1, 265800, Note_on_c, 0, 72, 0
1, 265800, Note_on_c, 0, 84, 67
1, 265920, Note_on_c, 0, 84, 0
1, 265920, Note_on_c, 0, 50, 0
1, 265920, Note_on_c, 0, 72, 75
1, 265920, Note_on_c, 0, 48, 70
1, 265939, Control_c, 0, 64, 0
1, 266029, Control_c, 0, 64, 127
1, 266040, Note_on_c, 0, 72, 0
1, 266040, Note_on_c, 0, 84, 67
1, 266048, Tempo, 303797
1, 266080, Note_on_c, 0, 48, 0
1, 266080, Note_on_c, 0, 46, 63
1, 266160, Note_on_c, 0, 84, 0
1, 266160, Note_on_c, 0, 72, 77
1, 266240, Note_on_c, 0, 46, 0
1, 266240, Note_on_c, 0, 44, 66
1, 266280, Note_on_c, 0, 72, 0
1, 266280, Note_on_c, 0, 84, 69
1, 266378, Tempo, 304569
1, 266400, Note_on_c, 0, 84, 0
1, 266400, Note_on_c, 0, 44, 0
1, 266400, Note_on_c, 0, 72, 80
1, 266400, Note_on_c, 0, 43, 74
1, 266420, Control_c, 0, 64, 0
1, 266520, Note_on_c, 0, 72, 0
1, 266520, Note_on_c, 0, 84, 71
1, 266520, Control_c, 0, 64, 127
1, 266560, Note_on_c, 0, 43, 0
1, 266560, Note_on_c, 0, 41, 67
1, 266640, Note_on_c, 0, 84, 0
1, 266640, Note_on_c, 0, 72, 81
1, 266708, Tempo, 305344
1, 266720, Note_on_c, 0, 41, 0
1, 266720, Note_on_c, 0, 39, 67
1, 266760, Note_on_c, 0, 72, 0
1, 266760, Note_on_c, 0, 84, 73
1, 266880, Tempo, 320856
1, 266880, Note_on_c, 0, 84, 0
1, 266880, Note_on_c, 0, 39, 0
1, 266880, Note_on_c, 0, 29, 73
1, 266880, Note_on_c, 0, 41, 73
1, 266880, Control_c, 0, 64, 0
1, 266972, Control_c, 0, 64, 127
1, 267000, Note_on_c, 0, 77, 71
1, 267120, Tempo, 306905
1, 267120, Note_on_c, 0, 77, 0
1, 267120, Note_on_c, 0, 41, 0
1, 267120, Note_on_c, 0, 29, 0
1, 267120, Note_on_c, 0, 80, 76
1, 267240, Note_on_c, 0, 80, 0
1, 267240, Note_on_c, 0, 86, 81
1, 267360, Note_on_c, 0, 86, 0
1, 267360, Note_on_c, 0, 89, 86
1, 267376, Control_c, 0, 64, 0
1, 267600, Note_on_c, 0, 89, 0
1, 267600, Note_on_c, 0, 29, 63
1, 267600, Note_on_c, 0, 41, 63
1, 267720, Note_on_c, 0, 41, 0
1, 267720, Note_on_c, 0, 29, 0
1, 267840, Tempo, 318302
1, 267840, Note_on_c, 0, 31, 70
1, 267840, Note_on_c, 0, 43, 70
1, 267918, Control_c, 0, 64, 127
1, 267960, Note_on_c, 0, 74, 75
1, 268080, Tempo, 306905
1, 268080, Note_on_c, 0, 74, 0
1, 268080, Note_on_c, 0, 43, 0
1, 268080, Note_on_c, 0, 31, 0
1, 268080, Note_on_c, 0, 77, 79
1, 268200, Note_on_c, 0, 77, 0
1, 268200, Note_on_c, 0, 83, 82
1, 268320, Note_on_c, 0, 83, 0
1, 268320, Note_on_c, 0, 86, 86
1, 268334, Control_c, 0, 64, 0
1, 268560, Tempo, 324324
1, 268560, Note_on_c, 0, 86, 0
1, 268560, Note_on_c, 0, 31, 63
1, 268560, Note_on_c, 0, 43, 63
1, 268680, Note_on_c, 0, 43, 0
1, 268680, Note_on_c, 0, 31, 0
1, 268778, Tempo, 308483
1, 268800, Tempo, 308483
1, 268800, Note_on_c, 0, 72, 80
1, 268800, Note_on_c, 0, 79, 80
1, 268800, Note_on_c, 0, 75, 80
1, 268800, Note_on_c, 0, 84, 94
1, 268800, Note_on_c, 0, 36, 59
1, 268800, Note_on_c, 0, 39, 59
1, 268800, Note_on_c, 0, 43, 59
1, 268800, Note_on_c, 0, 48, 70
1, 269280, Tempo, 297767
1, 269280, Note_on_c, 0, 48, 0
1, 269280, Note_on_c, 0, 72, 0
1, 269280, Note_on_c, 0, 36, 0
1, 269280, Note_on_c, 0, 79, 0
1, 269280, Note_on_c, 0, 75, 0
1, 269280, Note_on_c, 0, 84, 0
1, 269280, Note_on_c, 0, 39, 0
1, 269280, Note_on_c, 0, 43, 0
1, 269280, Note_on_c, 0, 79, 63
1, 269280, Note_on_c, 0, 61, 53
1, 269280, Note_on_c, 0, 64, 63
1, 269400, Note_on_c, 0, 64, 0
1, 269400, Note_on_c, 0, 61, 0
1, 269400, Note_on_c, 0, 79, 0
1, 269520, Tempo, 314136
1, 269520, Note_on_c, 0, 79, 63
1, 269520, Note_on_c, 0, 61, 53
1, 269520, Note_on_c, 0, 64, 63
1, 269640, Note_on_c, 0, 64, 0
1, 269640, Note_on_c, 0, 61, 0
1, 269640, Note_on_c, 0, 79, 0
1, 269760, Tempo, 307692
1, 269760, Note_on_c, 0, 79, 70
1, 269760, Note_on_c, 0, 62, 59
1, 269760, Note_on_c, 0, 65, 70
1, 270000, Note_on_c, 0, 65, 0
1, 270000, Note_on_c, 0, 62, 0
1, 270000, Note_on_c, 0, 79, 0
1, 270240, Tempo, 297767
1, 270240, Note_on_c, 0, 79, 63
1, 270240, Note_on_c, 0, 61, 53
1, 270240, Note_on_c, 0, 64, 63
1, 270360, Note_on_c, 0, 64, 0
1, 270360, Note_on_c, 0, 61, 0
1, 270360, Note_on_c, 0, 79, 0
1, 270480, Tempo, 314136
1, 270480, Note_on_c, 0, 79, 63
1, 270480, Note_on_c, 0, 61, 53
1, 270480, Note_on_c, 0, 64, 63
1, 270600, Note_on_c, 0, 64, 0
1, 270600, Note_on_c, 0, 61, 0
1, 270600, Note_on_c, 0, 79, 0
1, 270720, Tempo, 308483
1, 270720, Note_on_c, 0, 79, 69
1, 270720, Note_on_c, 0, 62, 59
1, 270720, Note_on_c, 0, 65, 70
1, 270960, Note_on_c, 0, 65, 0
1, 270960, Note_on_c, 0, 62, 0
1, 270960, Note_on_c, 0, 79, 0
1, 271200, Tempo, 304569
1, 271200, Note_on_c, 0, 50, 60
1, 271200, Note_on_c, 0, 53, 60
1, 271200, Note_on_c, 0, 59, 72
1, 271200, Note_on_c, 0, 31, 63
1, 271200, Note_on_c, 0, 43, 74
1, 271440, Note_on_c, 0, 43, 0
1, 271440, Note_on_c, 0, 59, 0
1, 271440, Note_on_c, 0, 50, 0
1, 271440, Note_on_c, 0, 53, 0
1, 271440, Note_on_c, 0, 31, 0
1, 272160, Tempo, 310881
1, 272160, Note_on_c, 0, 50, 33
1, 272160, Note_on_c, 0, 53, 33
1, 272160, Note_on_c, 0, 59, 39
1, 272160, Note_on_c, 0, 31, 30
1, 272160, Note_on_c, 0, 43, 36
1, 272280, Note_on_c, 0, 43, 0
1, 272280, Note_on_c, 0, 59, 0
1, 272280, Note_on_c, 0, 50, 0
1, 272280, Note_on_c, 0, 53, 0
1, 272280, Note_on_c, 0, 31, 0
1, 272640, Tempo, 305344
1, 272640, Note_on_c, 0, 48, 37
1, 272640, Note_on_c, 0, 51, 37
1, 272640, Note_on_c, 0, 60, 45
1, 272640, Note_on_c, 0, 32, 32
1, 272640, Note_on_c, 0, 44, 38
1, 272760, Note_on_c, 0, 44, 0
1, 272760, Note_on_c, 0, 60, 0
1, 272760, Note_on_c, 0, 48, 0
1, 272760, Note_on_c, 0, 51, 0
1, 272760, Note_on_c, 0, 32, 0
1, 273120, Tempo, 302267
1, 273120, Note_on_c, 0, 57, 35
1, 273120, Note_on_c, 0, 60, 35
1, 273120, Note_on_c, 0, 62, 41
1, 273120, Note_on_c, 0, 30, 30
1, 273120, Note_on_c, 0, 42, 36
1, 273240, Note_on_c, 0, 42, 0
1, 273240, Note_on_c, 0, 62, 0
1, 273240, Note_on_c, 0, 57, 0
1, 273240, Note_on_c, 0, 60, 0
1, 273240, Note_on_c, 0, 30, 0
1, 273600, Note_on_c, 0, 55, 37
1, 273600, Note_on_c, 0, 60, 37
1, 273600, Note_on_c, 0, 63, 45
1, 273600, Note_on_c, 0, 31, 32
1, 273600, Note_on_c, 0, 43, 38
1, 273720, Note_on_c, 0, 43, 0
1, 273720, Note_on_c, 0, 63, 0
1, 273720, Note_on_c, 0, 55, 0
1, 273720, Note_on_c, 0, 60, 0
1, 273720, Note_on_c, 0, 31, 0
1, 274080, Tempo, 310881
1, 274080, Note_on_c, 0, 53, 33
1, 274080, Note_on_c, 0, 59, 33
1, 274080, Note_on_c, 0, 62, 39
1, 274080, Note_on_c, 0, 31, 27
1, 274080, Note_on_c, 0, 43, 33
1, 274200, Note_on_c, 0, 43, 0
1, 274200, Note_on_c, 0, 62, 0
1, 274200, Note_on_c, 0, 53, 0
1, 274200, Note_on_c, 0, 59, 0
1, 274200, Note_on_c, 0, 31, 0
1, 274560, Tempo, 304569
1, 274560, Note_on_c, 0, 51, 37
1, 274560, Note_on_c, 0, 55, 37
1, 274560, Note_on_c, 0, 60, 45
1, 274560, Note_on_c, 0, 36, 32
1, 274560, Note_on_c, 0, 48, 38
1, 274680, Note_on_c, 0, 48, 0
1, 274680, Note_on_c, 0, 60, 0
1, 274680, Note_on_c, 0, 51, 0
1, 274680, Note_on_c, 0, 55, 0
1, 274680, Note_on_c, 0, 36, 0
1, 275040, Tempo, 297767
1, 275040, Note_on_c, 0, 79, 63
1, 275040, Note_on_c, 0, 61, 53
1, 275040, Note_on_c, 0, 64, 63
1, 275160, Note_on_c, 0, 64, 0
1, 275160, Note_on_c, 0, 61, 0
1, 275160, Note_on_c, 0, 79, 0
1, 275160, Note_on_c, 0, 80, 59
1, 275280, Tempo, 314136
1, 275280, Note_on_c, 0, 80, 0
1, 275280, Note_on_c, 0, 79, 63
1, 275280, Note_on_c, 0, 61, 53
1, 275280, Note_on_c, 0, 64, 63
1, 275400, Note_on_c, 0, 64, 0
1, 275400, Note_on_c, 0, 61, 0
1, 275400, Note_on_c, 0, 79, 0
1, 275400, Note_on_c, 0, 78, 59
1, 275520, Tempo, 307692
1, 275520, Note_on_c, 0, 78, 0
1, 275520, Note_on_c, 0, 79, 70
1, 275520, Note_on_c, 0, 62, 59
1, 275520, Note_on_c, 0, 65, 70
1, 275760, Note_on_c, 0, 65, 0
1, 275760, Note_on_c, 0, 62, 0
1, 275760, Note_on_c, 0, 79, 0
1, 276000, Tempo, 297767
1, 276000, Note_on_c, 0, 79, 63
1, 276000, Note_on_c, 0, 61, 53
1, 276000, Note_on_c, 0, 64, 63
1, 276120, Note_on_c, 0, 64, 0
1, 276120, Note_on_c, 0, 61, 0
1, 276120, Note_on_c, 0, 79, 0
1, 276120, Note_on_c, 0, 80, 58
1, 276240, Tempo, 314136
1, 276240, Note_on_c, 0, 80, 0
1, 276240, Note_on_c, 0, 79, 63
1, 276240, Note_on_c, 0, 64, 53
1, 276240, Note_on_c, 0, 61, 63
1, 276360, Note_on_c, 0, 61, 0
1, 276360, Note_on_c, 0, 64, 0
1, 276360, Note_on_c, 0, 79, 0
1, 276360, Note_on_c, 0, 78, 57
1, 276480, Tempo, 308483
1, 276480, Note_on_c, 0, 78, 0
1, 276480, Note_on_c, 0, 79, 69
1, 276480, Note_on_c, 0, 62, 59
1, 276480, Note_on_c, 0, 65, 70
1, 276720, Note_on_c, 0, 65, 0
1, 276720, Note_on_c, 0, 62, 0
1, 276720, Note_on_c, 0, 79, 0
1, 276960, Tempo, 320000
1, 276960, Note_on_c, 0, 50, 60
1, 276960, Note_on_c, 0, 53, 60
1, 276960, Note_on_c, 0, 59, 72
1, 276960, Note_on_c, 0, 31, 63
1, 276960, Note_on_c, 0, 43, 74
1, 277200, Note_on_c, 0, 43, 0
1, 277200, Note_on_c, 0, 59, 0
1, 277200, Note_on_c, 0, 50, 0
1, 277200, Note_on_c, 0, 53, 0
1, 277200, Note_on_c, 0, 31, 0
1, 277920, Tempo, 308483
1, 277920, Note_on_c, 0, 48, 55
1, 277920, Note_on_c, 0, 51, 55
1, 277920, Note_on_c, 0, 54, 55
1, 277920, Note_on_c, 0, 60, 66
1, 277920, Note_on_c, 0, 32, 55
1, 277920, Note_on_c, 0, 36, 55
1, 277920, Note_on_c, 0, 39, 55
1, 277920, Note_on_c, 0, 44, 65
1, 278040, Tempo, 307692
1, 278880, Tempo, 302267
1, 278880, Note_on_c, 0, 44, 0
1, 278880, Note_on_c, 0, 48, 0
1, 278880, Note_on_c, 0, 32, 0
1, 278880, Note_on_c, 0, 51, 0
1, 278880, Note_on_c, 0, 54, 0
1, 278880, Note_on_c, 0, 60, 0
1, 278880, Note_on_c, 0, 36, 0
1, 278880, Note_on_c, 0, 39, 0
1, 278880, Note_on_c, 0, 57, 35
1, 278880, Note_on_c, 0, 60, 35
1, 278880, Note_on_c, 0, 62, 41
1, 278880, Note_on_c, 0, 30, 30
1, 278880, Note_on_c, 0, 42, 36
1, 279000, Note_on_c, 0, 42, 0
1, 279000, Note_on_c, 0, 62, 0
1, 279000, Note_on_c, 0, 57, 0
1, 279000, Note_on_c, 0, 60, 0
1, 279000, Note_on_c, 0, 30, 0
1, 279360, Note_on_c, 0, 55, 37
1, 279360, Note_on_c, 0, 60, 37
1, 279360, Note_on_c, 0, 63, 45
1, 279360, Note_on_c, 0, 31, 32
1, 279360, Note_on_c, 0, 43, 38
1, 279480, Note_on_c, 0, 43, 0
1, 279480, Note_on_c, 0, 63, 0
1, 279480, Note_on_c, 0, 55, 0
1, 279480, Note_on_c, 0, 60, 0
1, 279480, Note_on_c, 0, 31, 0
1, 279840, Tempo, 310881
1, 279840, Note_on_c, 0, 53, 33
1, 279840, Note_on_c, 0, 59, 33
1, 279840, Note_on_c, 0, 62, 39
1, 279840, Note_on_c, 0, 31, 27
1, 279840, Note_on_c, 0, 43, 33
1, 279960, Note_on_c, 0, 43, 0
1, 279960, Note_on_c, 0, 62, 0
1, 279960, Note_on_c, 0, 53, 0
1, 279960, Note_on_c, 0, 59, 0
1, 279960, Note_on_c, 0, 31, 0
1, 280320, Tempo, 304569
1, 280320, Note_on_c, 0, 51, 37
1, 280320, Note_on_c, 0, 55, 37
1, 280320, Note_on_c, 0, 60, 45
1, 280320, Note_on_c, 0, 36, 32
1, 280348, Control_c, 0, 64, 127
1, 280560, Note_on_c, 0, 36, 0
1, 280560, Note_on_c, 0, 51, 0
1, 280560, Note_on_c, 0, 55, 0
1, 280560, Note_on_c, 0, 60, 0
1, 280560, Note_on_c, 0, 48, 27
1, 280800, Tempo, 300000
1, 280800, Note_on_c, 0, 48, 0
1, 280800, Note_on_c, 0, 59, 30
1, 280800, Note_on_c, 0, 65, 36
1, 280814, Control_c, 0, 64, 0
1, 280984, Control_c, 0, 64, 127
1, 281040, Tempo, 310078
1, 281040, Note_on_c, 0, 65, 0
1, 281040, Note_on_c, 0, 59, 0
1, 281040, Note_on_c, 0, 60, 27
1, 281040, Note_on_c, 0, 63, 32
1, 281280, Tempo, 304569
1, 281280, Note_on_c, 0, 63, 0
1, 281280, Note_on_c, 0, 60, 0
1, 281280, Note_on_c, 0, 36, 32
1, 281292, Control_c, 0, 64, 0
1, 281436, Control_c, 0, 64, 127
1, 281520, Note_on_c, 0, 36, 0
1, 281520, Note_on_c, 0, 48, 28
1, 281760, Tempo, 296296
1, 281760, Note_on_c, 0, 48, 0
1, 281760, Note_on_c, 0, 65, 31
1, 281760, Note_on_c, 0, 71, 37
1, 281772, Control_c, 0, 64, 0
1, 281901, Control_c, 0, 64, 127
1, 282000, Tempo, 309278
1, 282000, Note_on_c, 0, 71, 0
1, 282000, Note_on_c, 0, 65, 0
1, 282000, Note_on_c, 0, 63, 27
1, 282000, Note_on_c, 0, 72, 32
1, 282240, Tempo, 303797
1, 282240, Note_on_c, 0, 72, 0
1, 282240, Note_on_c, 0, 63, 0
1, 282240, Note_on_c, 0, 36, 32
1, 282244, Control_c, 0, 64, 0
1, 282367, Control_c, 0, 64, 127
1, 282480, Note_on_c, 0, 36, 0
1, 282480, Note_on_c, 0, 48, 28
1, 282720, Tempo, 298507
1, 282720, Note_on_c, 0, 48, 0
1, 282720, Note_on_c, 0, 77, 37
1, 282720, Note_on_c, 0, 71, 31
1, 282734, Control_c, 0, 64, 0
1, 282847, Control_c, 0, 64, 127
1, 282960, Tempo, 310078
1, 282960, Note_on_c, 0, 71, 0
1, 282960, Note_on_c, 0, 77, 0
1, 282960, Note_on_c, 0, 72, 27
1, 282960, Note_on_c, 0, 75, 32
1, 283200, Tempo, 303797
1, 283200, Note_on_c, 0, 75, 0
1, 283200, Note_on_c, 0, 72, 0
1, 283200, Note_on_c, 0, 36, 32
1, 283212, Control_c, 0, 64, 0
1, 283341, Control_c, 0, 64, 127
1, 283440, Note_on_c, 0, 36, 0
1, 283440, Note_on_c, 0, 48, 27
1, 283680, Tempo, 300000
1, 283680, Note_on_c, 0, 48, 0
1, 283680, Note_on_c, 0, 83, 43
1, 283680, Note_on_c, 0, 77, 36
1, 283687, Control_c, 0, 64, 0
1, 283836, Control_c, 0, 64, 127
1, 283920, Tempo, 317460
1, 283920, Note_on_c, 0, 77, 0
1, 283920, Note_on_c, 0, 83, 0
1, 283920, Note_on_c, 0, 75, 30
1, 283920, Note_on_c, 0, 84, 36
1, 284160, Tempo, 304569
1, 284160, Note_on_c, 0, 84, 0
1, 284160, Note_on_c, 0, 75, 0
1, 284160, Note_on_c, 0, 32, 36
1, 284160, Control_c, 0, 64, 0
1, 284188, Control_c, 0, 64, 127
1, 284400, Note_on_c, 0, 32, 0
1, 284400, Note_on_c, 0, 44, 32
1, 284640, Tempo, 300000
1, 284640, Note_on_c, 0, 44, 0
1, 284640, Note_on_c, 0, 60, 36
1, 284640, Note_on_c, 0, 66, 44
1, 284654, Control_c, 0, 64, 0
1, 284824, Control_c, 0, 64, 127
1, 284880, Tempo, 310078
1, 284880, Note_on_c, 0, 66, 0
1, 284880, Note_on_c, 0, 60, 0
1, 284880, Note_on_c, 0, 61, 33
1, 284880, Note_on_c, 0, 65, 40
1, 285120, Tempo, 304569
1, 285120, Note_on_c, 0, 65, 0
1, 285120, Note_on_c, 0, 61, 0
1, 285120, Note_on_c, 0, 32, 42
1, 285132, Control_c, 0, 64, 0
1, 285276, Control_c, 0, 64, 127
1, 285360, Note_on_c, 0, 32, 0
1, 285360, Note_on_c, 0, 44, 38
1, 285600, Tempo, 296296
1, 285600, Note_on_c, 0, 44, 0
1, 285600, Note_on_c, 0, 65, 43
1, 285600, Note_on_c, 0, 73, 52
1, 285612, Control_c, 0, 64, 0
1, 285741, Control_c, 0, 64, 127
1, 285840, Tempo, 309278
1, 285840, Note_on_c, 0, 73, 0
1, 285840, Note_on_c, 0, 65, 0
1, 285840, Note_on_c, 0, 66, 38
1, 285840, Note_on_c, 0, 72, 45
1, 286080, Tempo, 303797
1, 286080, Note_on_c, 0, 72, 0
1, 286080, Note_on_c, 0, 66, 0
1, 286080, Note_on_c, 0, 32, 55
1, 286084, Control_c, 0, 64, 0
1, 286207, Control_c, 0, 64, 127
1, 286320, Note_on_c, 0, 32, 0
1, 286320, Note_on_c, 0, 44, 51
1, 286560, Tempo, 298507
1, 286560, Note_on_c, 0, 44, 0
1, 286560, Note_on_c, 0, 77, 65
1, 286560, Note_on_c, 0, 73, 54
1, 286574, Control_c, 0, 64, 0
1, 286687, Control_c, 0, 64, 127
1, 286800, Tempo, 310078
1, 286800, Note_on_c, 0, 73, 0
1, 286800, Note_on_c, 0, 77, 0
1, 286800, Note_on_c, 0, 72, 47
1, 286800, Note_on_c, 0, 78, 57
1, 287040, Tempo, 303797
1, 287040, Note_on_c, 0, 78, 0
1, 287040, Note_on_c, 0, 72, 0
1, 287040, Note_on_c, 0, 32, 64
1, 287052, Control_c, 0, 64, 0
1, 287181, Control_c, 0, 64, 127
1, 287280, Tempo, 341880
1, 287280, Note_on_c, 0, 32, 0
1, 287280, Note_on_c, 0, 44, 56
1, 287520, Tempo, 326975
1, 287520, Note_on_c, 0, 44, 0
1, 287520, Note_on_c, 0, 85, 76
1, 287520, Note_on_c, 0, 77, 63
1, 287527, Control_c, 0, 64, 0
1, 287676, Control_c, 0, 64, 127
1, 287760, Tempo, 430108
1, 287760, Note_on_c, 0, 77, 0
1, 287760, Note_on_c, 0, 85, 0
1, 287760, Note_on_c, 0, 78, 55
1, 287760, Note_on_c, 0, 84, 65
1, 288000, Tempo, 323450
1, 288000, Note_on_c, 0, 84, 0
1, 288000, Note_on_c, 0, 78, 0
1, 288000, Note_on_c, 0, 87, 84
1, 288000, Note_on_c, 0, 78, 78
1, 288000, Note_on_c, 0, 32, 65
1, 288000, Note_on_c, 0, 44, 70
1, 288000, Control_c, 0, 64, 0
1, 288400, Control_c, 0, 64, 127
1, 289920, Tempo, 334262
1, 289920, Note_on_c, 0, 78, 0
1, 289920, Note_on_c, 0, 87, 0
1, 289920, Note_on_c, 0, 85, 59
1, 289920, Note_on_c, 0, 75, 40
1, 289920, Control_c, 0, 64, 0
1, 289972, Control_c, 0, 64, 127
1, 290400, Note_on_c, 0, 85, 0
1, 290400, Note_on_c, 0, 84, 54
1, 290880, Tempo, 351906
1, 290880, Note_on_c, 0, 84, 0
1, 290880, Note_on_c, 0, 75, 0
1, 290880, Note_on_c, 0, 82, 57
1, 290880, Note_on_c, 0, 72, 40
1, 290893, Control_c, 0, 64, 0
1, 290940, Control_c, 0, 64, 127
1, 291360, Tempo, 451128
1, 291360, Note_on_c, 0, 82, 0
1, 291360, Note_on_c, 0, 80, 50
1, 291600, Tempo, 404040
1, 291600, Note_on_c, 0, 80, 0
1, 291600, Note_on_c, 0, 77, 41
1, 291680, Note_on_c, 0, 77, 0
1, 291680, Note_on_c, 0, 78, 36
1, 291760, Note_on_c, 0, 78, 0
1, 291760, Note_on_c, 0, 80, 36
1, 291840, Tempo, 857143
1, 291840, Note_on_c, 0, 80, 0
1, 291840, Note_on_c, 0, 78, 50
1, 291840, Control_c, 0, 64, 0
1, 292107, Control_c, 0, 64, 127
1, 292800, Note_on_c, 0, 78, 0
1, 292800, Note_on_c, 0, 72, 0
1, 292800, Note_on_c, 0, 32, 0
1, 292800, Note_on_c, 0, 44, 0
1, 292800, Control_c, 0, 64, 0
1, 293040, Tempo, 350877
1, 293040, Note_on_c, 0, 56, 34
1, 293160, Note_on_c, 0, 56, 0
1, 293280, Note_on_c, 0, 58, 31
1, 293400, Note_on_c, 0, 58, 0
1, 293520, Note_on_c, 0, 60, 31
1, 293640, Note_on_c, 0, 60, 0
1, 293760, Note_on_c, 0, 53, 33
1, 293760, Note_on_c, 0, 56, 33
1, 293760, Note_on_c, 0, 61, 39
1, 293760, Note_on_c, 0, 37, 21
1, 293760, Note_on_c, 0, 49, 26
1, 293880, Note_on_c, 0, 61, 0
1, 294000, Note_on_c, 0, 63, 34
1, 294120, Note_on_c, 0, 63, 0
1, 294240, Tempo, 375000
1, 294240, Note_on_c, 0, 65, 34
1, 294360, Note_on_c, 0, 65, 0
1, 294720, Tempo, 360360
1, 294720, Note_on_c, 0, 37, 0
1, 294720, Note_on_c, 0, 53, 0
1, 294720, Note_on_c, 0, 56, 0
1, 294720, Note_on_c, 0, 49, 0
1, 294720, Note_on_c, 0, 56, 32
1, 294720, Note_on_c, 0, 63, 38
1, 294720, Note_on_c, 0, 42, 20
1, 294720, Note_on_c, 0, 48, 25
1, 294840, Note_on_c, 0, 48, 0
1, 294840, Note_on_c, 0, 56, 0
1, 294840, Note_on_c, 0, 63, 0
1, 294840, Note_on_c, 0, 42, 0
1, 295200, Note_on_c, 0, 56, 27
1, 295200, Note_on_c, 0, 61, 33
1, 295200, Note_on_c, 0, 41, 19
1, 295200, Note_on_c, 0, 49, 23
1, 295320, Note_on_c, 0, 49, 0
1, 295320, Note_on_c, 0, 56, 0
1, 295320, Note_on_c, 0, 61, 0
1, 295320, Note_on_c, 0, 41, 0
1, 295440, Tempo, 495868
1, 295680, Tempo, 420964
1, 295680, Note_on_c, 0, 54, 31
1, 295680, Note_on_c, 0, 56, 31
1, 295680, Note_on_c, 0, 60, 31
1, 295680, Note_on_c, 0, 66, 37
1, 295680, Note_on_c, 0, 44, 22
1, 295680, Note_on_c, 0, 51, 27
1, 296880, Tempo, 348837
1, 296880, Note_on_c, 0, 51, 0
1, 296880, Note_on_c, 0, 56, 0
1, 296880, Note_on_c, 0, 60, 0
1, 296880, Note_on_c, 0, 54, 0
1, 296880, Note_on_c, 0, 44, 0
1, 296880, Note_on_c, 0, 66, 0
1, 296880, Note_on_c, 0, 56, 34
1, 297000, Note_on_c, 0, 56, 0
1, 297120, Note_on_c, 0, 58, 31
1, 297240, Note_on_c, 0, 58, 0
1, 297360, Note_on_c, 0, 60, 31
1, 297480, Note_on_c, 0, 60, 0
1, 297600, Tempo, 359281
1, 297600, Note_on_c, 0, 53, 33
1, 297600, Note_on_c, 0, 56, 33
1, 297600, Note_on_c, 0, 61, 39
1, 297600, Note_on_c, 0, 37, 21
1, 297600, Note_on_c, 0, 49, 26
1, 297720, Note_on_c, 0, 61, 0
1, 297840, Note_on_c, 0, 63, 34
1, 297960, Note_on_c, 0, 63, 0
1, 298080, Tempo, 384615
1, 298080, Note_on_c, 0, 65, 34
1, 298200, Tempo, 385852
1, 298200, Note_on_c, 0, 65, 0
1, 298560, Tempo, 376176
1, 298560, Note_on_c, 0, 37, 0
1, 298560, Note_on_c, 0, 53, 0
1, 298560, Note_on_c, 0, 56, 0
1, 298560, Note_on_c, 0, 49, 0
1, 298560, Note_on_c, 0, 51, 32
1, 298560, Note_on_c, 0, 58, 32
1, 298560, Note_on_c, 0, 63, 38
1, 298560, Note_on_c, 0, 30, 20
1, 298560, Note_on_c, 0, 42, 25
1, 298680, Note_on_c, 0, 42, 0
1, 298680, Note_on_c, 0, 63, 0
1, 298680, Note_on_c, 0, 51, 0
1, 298680, Note_on_c, 0, 58, 0
1, 298680, Note_on_c, 0, 30, 0
1, 299040, Note_on_c, 0, 58, 27
1, 299040, Note_on_c, 0, 51, 27
1, 299040, Note_on_c, 0, 61, 33
1, 299040, Note_on_c, 0, 31, 19
1, 299040, Note_on_c, 0, 43, 23
1, 299160, Note_on_c, 0, 43, 0
1, 299160, Note_on_c, 0, 61, 0
1, 299160, Note_on_c, 0, 58, 0
1, 299160, Note_on_c, 0, 51, 0
1, 299160, Note_on_c, 0, 31, 0
1, 299280, Tempo, 527704
1, 299520, Tempo, 439464
1, 299520, Note_on_c, 0, 48, 26
1, 299520, Note_on_c, 0, 51, 26
1, 299520, Note_on_c, 0, 56, 31
1, 299520, Note_on_c, 0, 32, 18
1, 299520, Note_on_c, 0, 44, 22
1, 300480, Note_on_c, 0, 44, 0
1, 300480, Note_on_c, 0, 56, 0
1, 300480, Note_on_c, 0, 48, 0
1, 300480, Note_on_c, 0, 51, 0
1, 300480, Note_on_c, 0, 32, 0
1, 300720, Tempo, 364742
1, 300720, Note_on_c, 0, 56, 34
1, 300840, Note_on_c, 0, 56, 0
1, 300960, Note_on_c, 0, 58, 31
1, 301080, Note_on_c, 0, 58, 0
1, 301200, Note_on_c, 0, 60, 31
1, 301320, Note_on_c, 0, 60, 0
1, 301440, Note_on_c, 0, 53, 33
1, 301440, Note_on_c, 0, 56, 33
1, 301440, Note_on_c, 0, 61, 39
1, 301440, Note_on_c, 0, 37, 21
1, 301440, Note_on_c, 0, 49, 26
1, 301560, Note_on_c, 0, 61, 0
1, 301680, Note_on_c, 0, 63, 34
1, 301800, Note_on_c, 0, 63, 0
1, 301920, Tempo, 394737
1, 301920, Note_on_c, 0, 65, 34
1, 302040, Note_on_c, 0, 65, 0
1, 302400, Tempo, 421941
1, 302400, Note_on_c, 0, 37, 0
1, 302400, Note_on_c, 0, 53, 0
1, 302400, Note_on_c, 0, 56, 0
1, 302400, Note_on_c, 0, 49, 0
1, 302400, Note_on_c, 0, 56, 32
1, 302400, Note_on_c, 0, 63, 38
1, 302400, Note_on_c, 0, 42, 20
1, 302400, Note_on_c, 0, 48, 25
1, 302520, Note_on_c, 0, 48, 0
1, 302520, Note_on_c, 0, 56, 0
1, 302520, Note_on_c, 0, 63, 0
1, 302520, Note_on_c, 0, 42, 0
1, 302880, Note_on_c, 0, 56, 27
1, 302880, Note_on_c, 0, 61, 33
1, 302880, Note_on_c, 0, 41, 19
1, 302880, Note_on_c, 0, 49, 23
1, 303000, Note_on_c, 0, 49, 0
1, 303000, Note_on_c, 0, 56, 0
1, 303000, Note_on_c, 0, 61, 0
1, 303000, Note_on_c, 0, 41, 0
1, 303120, Tempo, 495868
1, 303360, Tempo, 413793
1, 303360, Note_on_c, 0, 54, 28
1, 303360, Note_on_c, 0, 56, 28
1, 303360, Note_on_c, 0, 60, 28
1, 303360, Note_on_c, 0, 66, 35
1, 303360, Note_on_c, 0, 44, 24
1, 303360, Note_on_c, 0, 48, 24
1, 303360, Note_on_c, 0, 51, 28
1, 303360, Control_c, 0, 64, 127
1, 303960, Tempo, 449438
1, 304080, Tempo, 413793
1, 304080, Note_on_c, 0, 66, 0
1, 304080, Note_on_c, 0, 63, 30
1, 304318, Note_on_c, 0, 60, 0
1, 304320, Tempo, 685714
1, 304320, Note_on_c, 0, 63, 0
1, 304320, Note_on_c, 0, 60, 34
1, 305280, Time_signature, 6, 2, 24, 8
1, 305280, Note_on_c, 0, 60, 0
1, 305280, Note_on_c, 0, 51, 0
1, 305280, Note_on_c, 0, 44, 0
1, 305280, Note_on_c, 0, 54, 0
1, 305280, Note_on_c, 0, 56, 0
1, 305280, Note_on_c, 0, 48, 0
1, 305280, Note_on_c, 0, 33, 30
1, 305280, Control_c, 0, 64, 0
1, 305289, Tempo, 481928
1, 305319, Tempo, 480000
1, 305323, Control_c, 0, 64, 127
1, 305360, Note_on_c, 0, 33, 0
1, 305360, Note_on_c, 0, 36, 32
1, 305379, Tempo, 478088
1, 305439, Tempo, 476190
1, 305440, Note_on_c, 0, 39, 33
1, 305440, Note_on_c, 0, 36, 0
1, 305469, Tempo, 474308
1, 305520, Note_on_c, 0, 39, 0
1, 305520, Note_on_c, 0, 42, 34
1, 305529, Tempo, 472441
1, 305589, Tempo, 470588
1, 305599, Note_on_c, 0, 45, 36
1, 305600, Note_on_c, 0, 42, 0
1, 305619, Tempo, 468750
1, 305679, Tempo, 466926
1, 305705, Note_on_c, 0, 48, 37
1, 305739, Tempo, 465116
1, 305769, Tempo, 463320
1, 305812, Note_on_c, 0, 51, 39
1, 305829, Tempo, 461538
1, 305889, Tempo, 459770
1, 305918, Note_on_c, 0, 54, 40
1, 305919, Tempo, 458015
1, 305979, Tempo, 456274
1, 306025, Note_on_c, 0, 57, 43
1, 306039, Tempo, 454545
1, 306069, Tempo, 452830
1, 306129, Tempo, 451128
1, 306131, Note_on_c, 0, 60, 46
1, 306240, Tempo, 504202
1, 306240, Note_on_c, 0, 66, 49
1, 306960, Tempo, 652174
1, 306960, Note_on_c, 0, 66, 0
1, 306960, Note_on_c, 0, 63, 30
1, 307197, Note_on_c, 0, 60, 0
1, 307200, Tempo, 983607
1, 307200, Note_on_c, 0, 63, 0
1, 307200, Note_on_c, 0, 60, 34
1, 308154, Note_on_c, 0, 45, 0
1, 308160, Tempo, 291928
1, 308160, Note_on_c, 0, 51, 0
1, 308160, Note_on_c, 0, 54, 0
1, 308160, Note_on_c, 0, 48, 0
1, 308160, Note_on_c, 0, 60, 0
1, 308160, Note_on_c, 0, 57, 0
1, 308160, Note_on_c, 0, 31, 60
1, 308160, Control_c, 0, 64, 0
1, 308224, Control_c, 0, 64, 127
1, 308267, Note_on_c, 0, 31, 0
1, 308267, Note_on_c, 0, 36, 61
1, 308373, Note_on_c, 0, 36, 0
1, 308373, Note_on_c, 0, 39, 62
1, 308479, Note_on_c, 0, 43, 63
1, 308480, Note_on_c, 0, 39, 0
1, 308586, Note_on_c, 0, 43, 0
1, 308586, Note_on_c, 0, 48, 63
1, 308692, Note_on_c, 0, 48, 0
1, 308692, Note_on_c, 0, 51, 64
1, 308799, Note_on_c, 0, 51, 0
1, 308799, Note_on_c, 0, 55, 63
1, 308905, Note_on_c, 0, 55, 0
1, 308905, Note_on_c, 0, 60, 65
1, 309011, Note_on_c, 0, 63, 67
1, 309012, Note_on_c, 0, 60, 0
1, 309120, Note_on_c, 0, 63, 0
1, 309120, Note_on_c, 0, 67, 70
1, 309132, Control_c, 0, 64, 0
1, 309240, Note_on_c, 0, 67, 0
1, 309360, Note_on_c, 0, 63, 63
1, 309480, Note_on_c, 0, 63, 0
1, 309600, Note_on_c, 0, 60, 67
1, 309720, Note_on_c, 0, 60, 0
1, 309840, Note_on_c, 0, 55, 63
1, 309960, Note_on_c, 0, 55, 0
1, 310080, Note_on_c, 0, 51, 70
1, 310200, Note_on_c, 0, 51, 0
1, 310320, Note_on_c, 0, 48, 57
1, 310440, Note_on_c, 0, 48, 0
1, 310560, Note_on_c, 0, 31, 42
1, 310560, Note_on_c, 0, 43, 42
1, 310560, Note_on_c, 0, 47, 63
1, 310680, Note_on_c, 0, 47, 0
1, 310800, Tempo, 314087
1, 310800, Note_on_c, 0, 50, 53
1, 310920, Note_on_c, 0, 50, 0
1, 311040, Time_signature, 4, 2, 24, 8
1, 311040, Tempo, 309231
1, 311040, Note_on_c, 0, 43, 0
1, 311040, Note_on_c, 0, 31, 0
1, 311040, Note_on_c, 0, 48, 43
1, 311040, Note_on_c, 0, 36, 64
1, 311160, Note_on_c, 0, 36, 0
1, 311280, Tempo, 289813
1, 311280, Note_on_c, 0, 48, 0
1, 311280, Note_on_c, 0, 48, 38
1, 311400, Note_on_c, 0, 48, 0
1, 311520, Note_on_c, 0, 48, 38
1, 311640, Note_on_c, 0, 48, 0
1, 311760, Note_on_c, 0, 48, 38
1, 311880, Note_on_c, 0, 48, 0
1, 312000, Tempo, 301462
1, 312000, Note_on_c, 0, 48, 41
1, 312120, Note_on_c, 0, 48, 0
1, 312240, Tempo, 290515
1, 312240, Note_on_c, 0, 60, 44
1, 312240, Note_on_c, 0, 58, 37
1, 312240, Note_on_c, 0, 55, 31
1, 312360, Note_on_c, 0, 55, 0
1, 312360, Note_on_c, 0, 58, 0
1, 312360, Note_on_c, 0, 60, 0
1, 312480, Note_on_c, 0, 62, 47
1, 312480, Note_on_c, 0, 58, 37
1, 312480, Note_on_c, 0, 55, 31
1, 312600, Note_on_c, 0, 55, 0
1, 312600, Note_on_c, 0, 58, 0
1, 312600, Note_on_c, 0, 62, 0
1, 312720, Note_on_c, 0, 64, 51
1, 312720, Note_on_c, 0, 58, 37
1, 312720, Note_on_c, 0, 55, 31
1, 312840, Note_on_c, 0, 55, 0
1, 312840, Note_on_c, 0, 58, 0
1, 312840, Note_on_c, 0, 64, 0
1, 312960, Tempo, 293399
1, 312960, Note_on_c, 0, 65, 54
1, 312960, Note_on_c, 0, 48, 43
1, 313080, Note_on_c, 0, 48, 0
1, 313080, Note_on_c, 0, 65, 0
1, 313200, Note_on_c, 0, 67, 46
1, 313200, Note_on_c, 0, 53, 31
1, 313200, Note_on_c, 0, 56, 36
1, 313320, Note_on_c, 0, 56, 0
1, 313320, Note_on_c, 0, 53, 0
1, 313320, Note_on_c, 0, 67, 0
1, 313440, Note_on_c, 0, 68, 47
1, 313440, Note_on_c, 0, 53, 31
1, 313440, Note_on_c, 0, 56, 36
1, 313560, Note_on_c, 0, 56, 0
1, 313560, Note_on_c, 0, 53, 0
1, 313560, Note_on_c, 0, 68, 0
1, 313680, Note_on_c, 0, 84, 56
1, 313680, Note_on_c, 0, 53, 31
1, 313680, Note_on_c, 0, 56, 36
1, 313800, Note_on_c, 0, 56, 0
1, 313800, Note_on_c, 0, 53, 0
1, 313920, Tempo, 295567
1, 313920, Note_on_c, 0, 84, 0
1, 313920, Note_on_c, 0, 83, 65
1, 313920, Note_on_c, 0, 48, 41
1, 313966, Control_c, 0, 64, 127
1, 314040, Note_on_c, 0, 48, 0
1, 314160, Note_on_c, 0, 83, 0
1, 314160, Note_on_c, 0, 84, 55
1, 314160, Note_on_c, 0, 59, 36
1, 314160, Note_on_c, 0, 56, 31
1, 314160, Note_on_c, 0, 53, 31
1, 314172, Control_c, 0, 64, 0
1, 314280, Note_on_c, 0, 53, 0
1, 314280, Note_on_c, 0, 56, 0
1, 314280, Note_on_c, 0, 59, 0
1, 314400, Tempo, 292683
1, 314400, Note_on_c, 0, 84, 0
1, 314400, Note_on_c, 0, 89, 66
1, 314400, Note_on_c, 0, 59, 36
1, 314400, Note_on_c, 0, 56, 31
1, 314400, Note_on_c, 0, 53, 31
1, 314520, Note_on_c, 0, 53, 0
1, 314520, Note_on_c, 0, 89, 0
1, 314520, Note_on_c, 0, 59, 0
1, 314520, Note_on_c, 0, 56, 0
1, 314640, Tempo, 337079
1, 314640, Note_on_c, 0, 89, 54
1, 314640, Note_on_c, 0, 59, 36
1, 314640, Note_on_c, 0, 56, 31
1, 314640, Note_on_c, 0, 53, 31
1, 314760, Note_on_c, 0, 53, 0
1, 314760, Note_on_c, 0, 89, 0
1, 314760, Note_on_c, 0, 59, 0
1, 314760, Note_on_c, 0, 56, 0
1, 314880, Tempo, 309231
1, 314880, Note_on_c, 0, 88, 66
1, 314880, Note_on_c, 0, 48, 43
1, 315120, Tempo, 289813
1, 315120, Note_on_c, 0, 48, 0
1, 315120, Note_on_c, 0, 52, 32
1, 315120, Note_on_c, 0, 55, 32
1, 315120, Note_on_c, 0, 60, 38
1, 315240, Note_on_c, 0, 60, 0
1, 315240, Note_on_c, 0, 55, 0
1, 315240, Note_on_c, 0, 52, 0
1, 315360, Note_on_c, 0, 88, 0
1, 315360, Note_on_c, 0, 52, 32
1, 315360, Note_on_c, 0, 55, 32
1, 315360, Note_on_c, 0, 60, 38
1, 315480, Note_on_c, 0, 60, 0
1, 315480, Note_on_c, 0, 55, 0
1, 315480, Note_on_c, 0, 52, 0
1, 315600, Note_on_c, 0, 52, 32
1, 315600, Note_on_c, 0, 55, 32
1, 315600, Note_on_c, 0, 60, 38
1, 315720, Note_on_c, 0, 60, 0
1, 315720, Note_on_c, 0, 55, 0
1, 315720, Note_on_c, 0, 52, 0
1, 315840, Tempo, 301462
1, 315840, Note_on_c, 0, 48, 41
1, 315960, Note_on_c, 0, 48, 0
1, 316080, Tempo, 290515
1, 316080, Note_on_c, 0, 60, 44
1, 316080, Note_on_c, 0, 58, 37
1, 316080, Note_on_c, 0, 55, 31
1, 316200, Note_on_c, 0, 55, 0
1, 316200, Note_on_c, 0, 58, 0
1, 316200, Note_on_c, 0, 60, 0
1, 316320, Note_on_c, 0, 62, 47
1, 316320, Note_on_c, 0, 58, 37
1, 316320, Note_on_c, 0, 55, 31
1, 316440, Note_on_c, 0, 55, 0
1, 316440, Note_on_c, 0, 58, 0
1, 316440, Note_on_c, 0, 62, 0
1, 316560, Note_on_c, 0, 64, 51
1, 316560, Note_on_c, 0, 58, 37
1, 316560, Note_on_c, 0, 55, 31
1, 316680, Note_on_c, 0, 55, 0
1, 316680, Note_on_c, 0, 58, 0
1, 316680, Note_on_c, 0, 64, 0
1, 316800, Tempo, 293399
1, 316800, Note_on_c, 0, 65, 54
1, 316800, Note_on_c, 0, 48, 43
1, 316920, Note_on_c, 0, 48, 0
1, 316920, Note_on_c, 0, 65, 0
1, 317040, Note_on_c, 0, 67, 46
1, 317040, Note_on_c, 0, 53, 31
1, 317040, Note_on_c, 0, 56, 36
1, 317160, Note_on_c, 0, 56, 0
1, 317160, Note_on_c, 0, 53, 0
1, 317160, Note_on_c, 0, 67, 0
1, 317280, Note_on_c, 0, 68, 47
1, 317280, Note_on_c, 0, 53, 31
1, 317280, Note_on_c, 0, 56, 36
1, 317400, Note_on_c, 0, 56, 0
1, 317400, Note_on_c, 0, 53, 0
1, 317400, Note_on_c, 0, 68, 0
1, 317520, Note_on_c, 0, 84, 56
1, 317520, Note_on_c, 0, 53, 31
1, 317520, Note_on_c, 0, 56, 36
1, 317640, Note_on_c, 0, 56, 0
1, 317640, Note_on_c, 0, 53, 0
1, 317760, Tempo, 295567
1, 317760, Note_on_c, 0, 84, 0
1, 317760, Note_on_c, 0, 83, 65
1, 317760, Note_on_c, 0, 48, 41
1, 317806, Control_c, 0, 64, 127
1, 317880, Note_on_c, 0, 48, 0
1, 318000, Note_on_c, 0, 83, 0
1, 318000, Note_on_c, 0, 84, 55
1, 318000, Note_on_c, 0, 59, 36
1, 318000, Note_on_c, 0, 56, 31
1, 318000, Note_on_c, 0, 53, 31
1, 318012, Control_c, 0, 64, 0
1, 318120, Note_on_c, 0, 53, 0
1, 318120, Note_on_c, 0, 56, 0
1, 318120, Note_on_c, 0, 59, 0
1, 318240, Tempo, 292683
1, 318240, Note_on_c, 0, 84, 0
1, 318240, Note_on_c, 0, 89, 66
1, 318240, Note_on_c, 0, 59, 36
1, 318240, Note_on_c, 0, 56, 31
1, 318240, Note_on_c, 0, 53, 31
1, 318360, Note_on_c, 0, 53, 0
1, 318360, Note_on_c, 0, 89, 0
1, 318360, Note_on_c, 0, 59, 0
1, 318360, Note_on_c, 0, 56, 0
1, 318480, Tempo, 337079
1, 318480, Note_on_c, 0, 89, 54
1, 318480, Note_on_c, 0, 59, 36
1, 318480, Note_on_c, 0, 56, 31
1, 318480, Note_on_c, 0, 53, 31
1, 318600, Note_on_c, 0, 53, 0
1, 318600, Note_on_c, 0, 89, 0
1, 318600, Note_on_c, 0, 59, 0
1, 318600, Note_on_c, 0, 56, 0
1, 318720, Tempo, 309231
1, 318720, Note_on_c, 0, 88, 66
1, 318720, Note_on_c, 0, 48, 43
1, 318960, Tempo, 289813
1, 318960, Note_on_c, 0, 48, 0
1, 318960, Note_on_c, 0, 52, 32
1, 318960, Note_on_c, 0, 55, 32
1, 318960, Note_on_c, 0, 60, 38
1, 319080, Note_on_c, 0, 60, 0
1, 319080, Note_on_c, 0, 55, 0
1, 319080, Note_on_c, 0, 52, 0
1, 319200, Note_on_c, 0, 88, 0
1, 319200, Note_on_c, 0, 52, 32
1, 319200, Note_on_c, 0, 55, 32
1, 319200, Note_on_c, 0, 60, 38
1, 319320, Note_on_c, 0, 60, 0
1, 319320, Note_on_c, 0, 55, 0
1, 319320, Note_on_c, 0, 52, 0
1, 319440, Tempo, 293399
1, 319440, Note_on_c, 0, 72, 50
1, 319440, Note_on_c, 0, 52, 32
1, 319440, Note_on_c, 0, 55, 32
1, 319440, Note_on_c, 0, 60, 38
1, 319560, Note_on_c, 0, 60, 0
1, 319560, Note_on_c, 0, 55, 0
1, 319560, Note_on_c, 0, 52, 0
1, 319680, Tempo, 295567
1, 319680, Note_on_c, 0, 72, 0
1, 319680, Note_on_c, 0, 71, 57
1, 319680, Note_on_c, 0, 48, 40
1, 319726, Control_c, 0, 64, 127
1, 319800, Note_on_c, 0, 48, 0
1, 319920, Note_on_c, 0, 71, 0
1, 319920, Note_on_c, 0, 72, 47
1, 319920, Note_on_c, 0, 59, 36
1, 319920, Note_on_c, 0, 56, 30
1, 319920, Note_on_c, 0, 53, 30
1, 319932, Control_c, 0, 64, 0
1, 320040, Note_on_c, 0, 53, 0
1, 320040, Note_on_c, 0, 56, 0
1, 320040, Note_on_c, 0, 59, 0
1, 320160, Tempo, 292683
1, 320160, Note_on_c, 0, 72, 0
1, 320160, Note_on_c, 0, 77, 57
1, 320160, Note_on_c, 0, 59, 35
1, 320160, Note_on_c, 0, 56, 29
1, 320160, Note_on_c, 0, 53, 29
1, 320280, Note_on_c, 0, 53, 0
1, 320280, Note_on_c, 0, 77, 0
1, 320280, Note_on_c, 0, 59, 0
1, 320280, Note_on_c, 0, 56, 0
1, 320400, Tempo, 337079
1, 320400, Note_on_c, 0, 77, 45
1, 320400, Note_on_c, 0, 59, 34
1, 320400, Note_on_c, 0, 56, 29
1, 320400, Note_on_c, 0, 53, 29
1, 320520, Note_on_c, 0, 53, 0
1, 320520, Note_on_c, 0, 77, 0
1, 320520, Note_on_c, 0, 59, 0
1, 320520, Note_on_c, 0, 56, 0
1, 320640, Tempo, 309231
1, 320640, Note_on_c, 0, 76, 55
1, 320640, Note_on_c, 0, 48, 40
1, 320880, Tempo, 289813
1, 320880, Note_on_c, 0, 48, 0
1, 320880, Note_on_c, 0, 52, 29
1, 320880, Note_on_c, 0, 55, 29
1, 320880, Note_on_c, 0, 60, 35
1, 321000, Note_on_c, 0, 60, 0
1, 321000, Note_on_c, 0, 55, 0
1, 321000, Note_on_c, 0, 52, 0
1, 321120, Note_on_c, 0, 76, 0
1, 321120, Note_on_c, 0, 52, 29
1, 321120, Note_on_c, 0, 55, 29
1, 321120, Note_on_c, 0, 60, 35
1, 321240, Note_on_c, 0, 60, 0
1, 321240, Note_on_c, 0, 55, 0
1, 321240, Note_on_c, 0, 52, 0
1, 321360, Tempo, 293399
1, 321360, Note_on_c, 0, 60, 45
1, 321360, Note_on_c, 0, 52, 28
1, 321360, Note_on_c, 0, 55, 28
1, 321360, Note_on_c, 0, 60, 34
1, 321480, Note_on_c, 0, 60, 0
1, 321480, Note_on_c, 0, 55, 0
1, 321480, Note_on_c, 0, 52, 0
1, 321600, Tempo, 295567
1, 321600, Note_on_c, 0, 60, 0
1, 321600, Note_on_c, 0, 59, 51
1, 321600, Note_on_c, 0, 48, 36
1, 321646, Control_c, 0, 64, 127
1, 321720, Note_on_c, 0, 48, 0
1, 321838, Note_on_c, 0, 59, 0
1, 321840, Note_on_c, 0, 60, 43
1, 321840, Note_on_c, 0, 59, 32
1, 321840, Note_on_c, 0, 56, 27
1, 321840, Note_on_c, 0, 53, 27
1, 321852, Control_c, 0, 64, 0
1, 321960, Note_on_c, 0, 53, 0
1, 321960, Note_on_c, 0, 56, 0
1, 321960, Note_on_c, 0, 59, 0
1, 322080, Tempo, 292683
1, 322080, Note_on_c, 0, 60, 0
1, 322080, Note_on_c, 0, 65, 51
1, 322080, Note_on_c, 0, 59, 31
1, 322080, Note_on_c, 0, 56, 27
1, 322080, Note_on_c, 0, 53, 27
1, 322200, Note_on_c, 0, 53, 0
1, 322200, Note_on_c, 0, 65, 0
1, 322200, Note_on_c, 0, 59, 0
1, 322200, Note_on_c, 0, 56, 0
1, 322320, Tempo, 337079
1, 322320, Note_on_c, 0, 65, 40
1, 322320, Note_on_c, 0, 59, 30
1, 322320, Note_on_c, 0, 56, 26
1, 322320, Note_on_c, 0, 53, 26
1, 322440, Note_on_c, 0, 53, 0
1, 322440, Note_on_c, 0, 65, 0
1, 322440, Note_on_c, 0, 59, 0
1, 322440, Note_on_c, 0, 56, 0
1, 322560, Tempo, 309231
1, 322560, Note_on_c, 0, 64, 49
1, 322560, Note_on_c, 0, 48, 32
1, 322560, Control_c, 0, 64, 127
1, 322800, Tempo, 298463
1, 322800, Note_on_c, 0, 48, 0
1, 322800, Note_on_c, 0, 52, 23
1, 322800, Note_on_c, 0, 55, 23
1, 322800, Note_on_c, 0, 60, 27
1, 322920, Note_on_c, 0, 60, 0
1, 322920, Note_on_c, 0, 55, 0
1, 322920, Note_on_c, 0, 52, 0
1, 323040, Note_on_c, 0, 64, 0
1, 323040, Note_on_c, 0, 52, 23
1, 323040, Note_on_c, 0, 55, 23
1, 323040, Note_on_c, 0, 60, 27
1, 323160, Note_on_c, 0, 60, 0
1, 323160, Note_on_c, 0, 55, 0
1, 323160, Note_on_c, 0, 52, 0
1, 323280, Tempo, 293399
1, 323280, Note_on_c, 0, 36, 30
1, 323280, Note_on_c, 0, 52, 22
1, 323280, Note_on_c, 0, 55, 22
1, 323280, Note_on_c, 0, 60, 27
1, 323400, Note_on_c, 0, 60, 0
1, 323400, Note_on_c, 0, 55, 0
1, 323400, Note_on_c, 0, 52, 0
1, 323518, Note_on_c, 0, 36, 0
1, 323520, Tempo, 372439
1, 323520, Note_on_c, 0, 36, 40
1, 323520, Note_on_c, 0, 48, 32
1, 323535, Control_c, 0, 64, 0
1, 323749, Control_c, 0, 64, 127
1, 323760, Tempo, 350672
1, 323760, Note_on_c, 0, 48, 0
1, 323760, Note_on_c, 0, 52, 22
1, 323760, Note_on_c, 0, 55, 22
1, 323760, Note_on_c, 0, 60, 26
1, 323880, Note_on_c, 0, 60, 0
1, 323880, Note_on_c, 0, 55, 0
1, 323880, Note_on_c, 0, 52, 0
1, 324000, Note_on_c, 0, 36, 0
1, 324000, Note_on_c, 0, 52, 21
1, 324000, Note_on_c, 0, 55, 21
1, 324000, Note_on_c, 0, 60, 26
1, 324120, Note_on_c, 0, 60, 0
1, 324120, Note_on_c, 0, 55, 0
1, 324120, Note_on_c, 0, 52, 0
1, 324240, Tempo, 454201
1, 324240, Note_on_c, 0, 36, 26
1, 324240, Note_on_c, 0, 52, 21
1, 324240, Note_on_c, 0, 55, 21
1, 324240, Note_on_c, 0, 60, 25
1, 324360, Note_on_c, 0, 60, 0
1, 324360, Note_on_c, 0, 55, 0
1, 324360, Note_on_c, 0, 52, 0
1, 324480, Tempo, 360360
1, 324480, Note_on_c, 0, 36, 0
1, 324480, Note_on_c, 0, 36, 33
1, 324480, Note_on_c, 0, 48, 20
1, 324480, Note_on_c, 0, 52, 20
1, 324480, Note_on_c, 0, 55, 24
1, 324960, Note_on_c, 0, 55, 0
1, 324960, Note_on_c, 0, 36, 0
1, 324960, Note_on_c, 0, 48, 0
1, 324960, Note_on_c, 0, 52, 0
1, 325303, Control_c, 0, 64, 0
1, 325303, End_track
0, 0, End_of_file
