0, 0, Header, 0, 1, 480
1, 0, Start_track
1, 0, Title_t, "Sonate Op. 10 No. 1 2. Satz"
1, 0, Copyright_t, "Copyright © 2008 by Bernd Krueger"
1, 0, Text_t, "Ludwig van Beethoven"
1, 0, Text_t, "Adagio molto"
1, 0, Text_t, "Erstellt: 6.12.2008\012"
1, 0, Text_t, "Update: 6.5.2012\012"
1, 0, Text_t, "Dauer:  6:32 Minuten\012"
1, 0, Time_signature, 4, 2, 24, 8
1, 0, Key_signature, -4, "major"
1, 0, Tempo, 875912
1, 0, Program_c, 0, 0
1, 0, Note_on_c, 0, 60, 42
1, 0, Note_on_c, 0, 68, 50
1, 0, Program_c, 0, 0
1, 0, Note_on_c, 0, 44, 27
1, 0, Note_on_c, 0, 51, 27
1, 0, Note_on_c, 0, 56, 32
1, 0, Program_c, 0, 0
1, 57, Control_c, 0, 64, 127
1, 720, Tempo, 944882
1, 720, Note_on_c, 0, 68, 0
1, 720, Note_on_c, 0, 70, 50
1, 780, Note_on_c, 0, 70, 0
1, 780, Note_on_c, 0, 68, 46
1, 840, Note_on_c, 0, 68, 0
1, 840, Note_on_c, 0, 67, 46
1, 900, Note_on_c, 0, 67, 0
1, 900, Note_on_c, 0, 68, 46
1, 960, Tempo, 869565
1, 960, Note_on_c, 0, 68, 0
1, 960, Note_on_c, 0, 51, 0
1, 960, Note_on_c, 0, 60, 0
1, 960, Note_on_c, 0, 44, 0
1, 960, Note_on_c, 0, 56, 0
1, 960, Note_on_c, 0, 72, 54
1, 960, Note_on_c, 0, 61, 45
1, 960, Note_on_c, 0, 43, 24
1, 960, Note_on_c, 0, 51, 24
1, 960, Note_on_c, 0, 55, 29
1, 974, Control_c, 0, 64, 0
1, 1038, Control_c, 0, 64, 127
1, 1680, Tempo, 909091
1, 1680, Note_on_c, 0, 72, 0
1, 1680, Note_on_c, 0, 70, 45
1, 1920, Tempo, 888889
1, 1920, Note_on_c, 0, 70, 0
1, 1920, Note_on_c, 0, 55, 0
1, 1920, Note_on_c, 0, 61, 0
1, 1920, Note_on_c, 0, 43, 0
1, 1920, Note_on_c, 0, 51, 0
1, 1920, Note_on_c, 0, 60, 42
1, 1920, Note_on_c, 0, 68, 50
1, 1920, Note_on_c, 0, 44, 30
1, 1920, Note_on_c, 0, 51, 30
1, 1920, Note_on_c, 0, 56, 36
1, 1920, Control_c, 0, 64, 0
1, 2423, Control_c, 0, 64, 127
1, 2880, Tempo, 888889
1, 3360, Note_on_c, 0, 56, 0
1, 3360, Note_on_c, 0, 44, 0
1, 3360, Note_on_c, 0, 60, 0
1, 3360, Note_on_c, 0, 68, 0
1, 3360, Note_on_c, 0, 51, 0
1, 3360, Note_on_c, 0, 69, 50
1, 3380, Control_c, 0, 64, 0
1, 3600, Tempo, 915891
1, 3840, Tempo, 869565
1, 3840, Note_on_c, 0, 69, 0
1, 3840, Note_on_c, 0, 63, 42
1, 3840, Note_on_c, 0, 70, 50
1, 3840, Note_on_c, 0, 55, 27
1, 3840, Note_on_c, 0, 61, 32
1, 3912, Control_c, 0, 64, 127
1, 4320, Note_on_c, 0, 61, 0
1, 4320, Note_on_c, 0, 70, 0
1, 4320, Note_on_c, 0, 58, 32
1, 4560, Tempo, 937500
1, 4560, Note_on_c, 0, 72, 50
1, 4620, Note_on_c, 0, 72, 0
1, 4620, Note_on_c, 0, 70, 46
1, 4680, Note_on_c, 0, 70, 0
1, 4680, Note_on_c, 0, 69, 46
1, 4740, Note_on_c, 0, 69, 0
1, 4740, Note_on_c, 0, 70, 46
1, 4795, Control_c, 0, 64, 0
1, 4800, Tempo, 863309
1, 4800, Note_on_c, 0, 70, 0
1, 4800, Note_on_c, 0, 58, 0
1, 4800, Note_on_c, 0, 55, 0
1, 4800, Note_on_c, 0, 63, 0
1, 4800, Note_on_c, 0, 73, 54
1, 4800, Note_on_c, 0, 63, 45
1, 4800, Note_on_c, 0, 56, 29
1, 4837, Control_c, 0, 64, 127
1, 5280, Note_on_c, 0, 63, 0
1, 5280, Note_on_c, 0, 68, 42
1, 5280, Note_on_c, 0, 60, 32
1, 5520, Note_on_c, 0, 73, 0
1, 5520, Note_on_c, 0, 72, 45
1, 5580, Tempo, 909091
1, 5760, Tempo, 857143
1, 5760, Note_on_c, 0, 72, 0
1, 5760, Note_on_c, 0, 60, 0
1, 5760, Note_on_c, 0, 68, 0
1, 5760, Note_on_c, 0, 56, 0
1, 5760, Note_on_c, 0, 67, 42
1, 5760, Note_on_c, 0, 70, 50
1, 5760, Note_on_c, 0, 51, 30
1, 5760, Note_on_c, 0, 63, 36
1, 5760, Control_c, 0, 64, 0
1, 6172, Control_c, 0, 64, 127
1, 7200, Note_on_c, 0, 63, 0
1, 7200, Note_on_c, 0, 67, 0
1, 7200, Note_on_c, 0, 70, 0
1, 7200, Note_on_c, 0, 51, 0
1, 7200, Note_on_c, 0, 71, 50
1, 7216, Control_c, 0, 64, 0
1, 7680, Note_on_c, 0, 71, 0
1, 7680, Note_on_c, 0, 72, 63
1, 7680, Note_on_c, 0, 63, 63
1, 7680, Note_on_c, 0, 56, 32
1, 7828, Control_c, 0, 64, 127
1, 8460, Tempo, 902256
1, 8520, Note_on_c, 0, 72, 0
1, 8520, Note_on_c, 0, 68, 52
1, 8640, Tempo, 851064
1, 8640, Note_on_c, 0, 68, 0
1, 8640, Note_on_c, 0, 56, 0
1, 8640, Note_on_c, 0, 63, 0
1, 8640, Note_on_c, 0, 75, 64
1, 8640, Note_on_c, 0, 68, 64
1, 8640, Note_on_c, 0, 63, 55
1, 8640, Note_on_c, 0, 48, 37
1, 8640, Note_on_c, 0, 60, 37
1, 8640, Note_on_c, 0, 56, 37
1, 8655, Control_c, 0, 64, 0
1, 8810, Control_c, 0, 64, 127
1, 9360, Tempo, 909091
1, 9480, Note_on_c, 0, 75, 0
1, 9480, Note_on_c, 0, 72, 60
1, 9600, Tempo, 851064
1, 9600, Note_on_c, 0, 72, 0
1, 9600, Note_on_c, 0, 56, 0
1, 9600, Note_on_c, 0, 48, 0
1, 9600, Note_on_c, 0, 68, 0
1, 9600, Note_on_c, 0, 63, 0
1, 9600, Note_on_c, 0, 60, 0
1, 9600, Note_on_c, 0, 65, 55
1, 9600, Note_on_c, 0, 68, 64
1, 9600, Note_on_c, 0, 77, 70
1, 9600, Note_on_c, 0, 49, 45
1, 9600, Note_on_c, 0, 56, 45
1, 9600, Note_on_c, 0, 61, 45
1, 9606, Control_c, 0, 64, 0
1, 9741, Control_c, 0, 64, 127
1, 10380, Tempo, 909091
1, 10440, Note_on_c, 0, 77, 0
1, 10440, Note_on_c, 0, 73, 67
1, 10560, Tempo, 736196
1, 10560, Note_on_c, 0, 73, 0
1, 10560, Note_on_c, 0, 61, 0
1, 10560, Note_on_c, 0, 49, 0
1, 10560, Note_on_c, 0, 65, 0
1, 10560, Note_on_c, 0, 68, 0
1, 10560, Note_on_c, 0, 56, 0
1, 10560, Note_on_c, 0, 53, 41
1, 10566, Control_c, 0, 64, 0
1, 10590, Note_on_c, 0, 56, 45
1, 10620, Note_on_c, 0, 61, 49
1, 10620, Control_c, 0, 64, 127
1, 10650, Note_on_c, 0, 65, 53
1, 10680, Note_on_c, 0, 68, 70
1, 10710, Note_on_c, 0, 73, 75
1, 10740, Note_on_c, 0, 77, 78
1, 10770, Note_on_c, 0, 80, 82
1, 10800, Tempo, 851064
1, 11496, Control_c, 0, 64, 0
1, 11520, Tempo, 875912
1, 11520, Note_on_c, 0, 77, 0
1, 11760, Tempo, 875912
1, 11760, Note_on_c, 0, 80, 0
1, 11760, Note_on_c, 0, 79, 63
1, 11980, Note_on_c, 0, 79, 0
1, 12000, Note_on_c, 0, 77, 59
1, 12220, Note_on_c, 0, 77, 0
1, 12240, Note_on_c, 0, 75, 56
1, 12460, Note_on_c, 0, 75, 0
1, 12480, Tempo, 869565
1, 12480, Note_on_c, 0, 73, 0
1, 12480, Note_on_c, 0, 56, 0
1, 12480, Note_on_c, 0, 61, 0
1, 12480, Note_on_c, 0, 65, 0
1, 12480, Note_on_c, 0, 68, 0
1, 12480, Note_on_c, 0, 53, 0
1, 12480, Note_on_c, 0, 70, 51
1, 12480, Note_on_c, 0, 73, 60
1, 12480, Note_on_c, 0, 55, 31
1, 12480, Note_on_c, 0, 63, 37
1, 12579, Control_c, 0, 64, 127
1, 12960, Tempo, 909091
1, 12960, Note_on_c, 0, 63, 0
1, 12960, Note_on_c, 0, 70, 0
1, 12960, Note_on_c, 0, 73, 0
1, 12960, Note_on_c, 0, 55, 0
1, 12960, Note_on_c, 0, 68, 44
1, 12960, Note_on_c, 0, 72, 52
1, 12960, Note_on_c, 0, 63, 34
1, 12960, Note_on_c, 0, 56, 28
1, 12974, Control_c, 0, 64, 0
1, 13130, Control_c, 0, 64, 127
1, 13440, Tempo, 875912
1, 13440, Note_on_c, 0, 56, 0
1, 13440, Note_on_c, 0, 68, 0
1, 13440, Note_on_c, 0, 72, 0
1, 13440, Note_on_c, 0, 63, 0
1, 13440, Note_on_c, 0, 63, 46
1, 13440, Note_on_c, 0, 75, 55
1, 13440, Note_on_c, 0, 60, 37
1, 13440, Note_on_c, 0, 51, 31
1, 13440, Control_c, 0, 64, 0
1, 13476, Control_c, 0, 64, 127
1, 13920, Note_on_c, 0, 63, 0
1, 13920, Note_on_c, 0, 63, 39
1, 14160, Note_on_c, 0, 75, 0
1, 14160, Note_on_c, 0, 60, 0
1, 14160, Note_on_c, 0, 72, 51
1, 14160, Note_on_c, 0, 56, 31
1, 14400, Tempo, 1212121
1, 14400, Note_on_c, 0, 56, 0
1, 14400, Note_on_c, 0, 63, 0
1, 14400, Note_on_c, 0, 51, 0
1, 14400, Note_on_c, 0, 72, 0
1, 14400, Note_on_c, 0, 63, 45
1, 14400, Note_on_c, 0, 70, 53
1, 14400, Note_on_c, 0, 70, 51
1, 14400, Note_on_c, 0, 51, 26
1, 14400, Note_on_c, 0, 55, 31
1, 14409, Control_c, 0, 64, 0
1, 14430, Note_on_c, 0, 70, 0
1, 14430, Note_on_c, 0, 72, 46
1, 14447, Control_c, 0, 64, 127
1, 14460, Note_on_c, 0, 72, 0
1, 14460, Note_on_c, 0, 70, 51
1, 14490, Note_on_c, 0, 70, 0
1, 14490, Note_on_c, 0, 72, 45
1, 14520, Tempo, 967742
1, 14520, Note_on_c, 0, 72, 0
1, 14520, Note_on_c, 0, 70, 51
1, 14560, Note_on_c, 0, 70, 0
1, 14560, Note_on_c, 0, 69, 46
1, 14600, Note_on_c, 0, 69, 0
1, 14600, Note_on_c, 0, 70, 46
1, 14640, Note_on_c, 0, 70, 0
1, 14640, Note_on_c, 0, 73, 57
1, 14640, Control_c, 0, 64, 127
1, 14656, Control_c, 0, 64, 0
1, 14760, Note_on_c, 0, 73, 0
1, 14760, Note_on_c, 0, 72, 48
1, 14880, Tempo, 909091
1, 14880, Note_on_c, 0, 72, 0
1, 14880, Note_on_c, 0, 51, 0
1, 14880, Note_on_c, 0, 63, 0
1, 14880, Note_on_c, 0, 70, 0
1, 14880, Note_on_c, 0, 55, 0
1, 14880, Note_on_c, 0, 75, 55
1, 14888, Control_c, 0, 64, 0
1, 14911, Control_c, 0, 64, 127
1, 15000, Note_on_c, 0, 75, 0
1, 15000, Note_on_c, 0, 73, 47
1, 15120, Tempo, 1000000
1, 15120, Note_on_c, 0, 73, 0
1, 15120, Note_on_c, 0, 72, 51
1, 15200, Note_on_c, 0, 72, 0
1, 15200, Note_on_c, 0, 73, 47
1, 15240, Tempo, 1290323
1, 15280, Note_on_c, 0, 73, 0
1, 15280, Note_on_c, 0, 70, 47
1, 15360, Tempo, 875912
1, 15360, Note_on_c, 0, 70, 0
1, 15360, Note_on_c, 0, 60, 34
1, 15360, Note_on_c, 0, 68, 50
1, 15360, Note_on_c, 0, 44, 36
1, 15374, Control_c, 0, 64, 0
1, 15420, Control_c, 0, 64, 127
1, 15600, Note_on_c, 0, 51, 28
1, 15828, Note_on_c, 0, 51, 0
1, 15840, Note_on_c, 0, 51, 29
1, 16068, Note_on_c, 0, 51, 0
1, 16080, Tempo, 944882
1, 16080, Note_on_c, 0, 68, 0
1, 16080, Note_on_c, 0, 70, 50
1, 16080, Note_on_c, 0, 51, 29
1, 16140, Note_on_c, 0, 70, 0
1, 16140, Note_on_c, 0, 68, 46
1, 16200, Note_on_c, 0, 68, 0
1, 16200, Note_on_c, 0, 67, 46
1, 16260, Note_on_c, 0, 67, 0
1, 16260, Note_on_c, 0, 68, 46
1, 16320, Tempo, 869565
1, 16320, Note_on_c, 0, 68, 0
1, 16320, Note_on_c, 0, 51, 0
1, 16320, Note_on_c, 0, 44, 0
1, 16320, Note_on_c, 0, 60, 0
1, 16320, Note_on_c, 0, 72, 54
1, 16320, Note_on_c, 0, 61, 45
1, 16320, Note_on_c, 0, 43, 36
1, 16334, Control_c, 0, 64, 0
1, 16398, Control_c, 0, 64, 127
1, 16560, Note_on_c, 0, 51, 28
1, 16788, Note_on_c, 0, 51, 0
1, 16800, Note_on_c, 0, 51, 28
1, 17028, Note_on_c, 0, 51, 0
1, 17040, Tempo, 909091
1, 17040, Note_on_c, 0, 72, 0
1, 17040, Note_on_c, 0, 70, 45
1, 17040, Note_on_c, 0, 51, 28
1, 17280, Tempo, 888889
1, 17280, Note_on_c, 0, 51, 0
1, 17280, Note_on_c, 0, 61, 0
1, 17280, Note_on_c, 0, 43, 0
1, 17280, Note_on_c, 0, 70, 0
1, 17280, Note_on_c, 0, 60, 42
1, 17280, Note_on_c, 0, 68, 50
1, 17280, Note_on_c, 0, 44, 36
1, 17280, Control_c, 0, 64, 0
1, 17506, Control_c, 0, 64, 127
1, 17520, Note_on_c, 0, 44, 0
1, 17520, Note_on_c, 0, 51, 32
1, 17760, Tempo, 869565
1, 17760, Note_on_c, 0, 51, 0
1, 17760, Note_on_c, 0, 48, 36
1, 18000, Note_on_c, 0, 48, 0
1, 18000, Note_on_c, 0, 56, 32
1, 18240, Tempo, 851064
1, 18240, Note_on_c, 0, 56, 0
1, 18240, Note_on_c, 0, 68, 0
1, 18240, Note_on_c, 0, 60, 0
1, 18240, Note_on_c, 0, 51, 40
1, 18480, Note_on_c, 0, 51, 0
1, 18480, Note_on_c, 0, 60, 36
1, 18600, Tempo, 902256
1, 18720, Tempo, 851064
1, 18720, Note_on_c, 0, 60, 0
1, 18720, Note_on_c, 0, 56, 47
1, 18960, Tempo, 915891
1, 18960, Note_on_c, 0, 56, 0
1, 18960, Note_on_c, 0, 63, 36
1, 19200, Tempo, 869565
1, 19200, Note_on_c, 0, 63, 0
1, 19200, Note_on_c, 0, 70, 59
1, 19200, Note_on_c, 0, 55, 45
1, 19200, Control_c, 0, 64, 0
1, 19272, Control_c, 0, 64, 127
1, 19440, Note_on_c, 0, 63, 29
1, 19668, Note_on_c, 0, 63, 0
1, 19680, Note_on_c, 0, 70, 0
1, 19680, Note_on_c, 0, 63, 29
1, 19908, Note_on_c, 0, 63, 0
1, 19920, Tempo, 937500
1, 19920, Note_on_c, 0, 72, 54
1, 19920, Note_on_c, 0, 63, 29
1, 19980, Note_on_c, 0, 72, 0
1, 19980, Note_on_c, 0, 70, 46
1, 20040, Note_on_c, 0, 70, 0
1, 20040, Note_on_c, 0, 69, 49
1, 20100, Note_on_c, 0, 69, 0
1, 20100, Note_on_c, 0, 70, 50
1, 20160, Tempo, 863309
1, 20160, Note_on_c, 0, 70, 0
1, 20160, Note_on_c, 0, 63, 0
1, 20160, Note_on_c, 0, 55, 0
1, 20160, Note_on_c, 0, 73, 62
1, 20160, Note_on_c, 0, 68, 62
1, 20160, Note_on_c, 0, 56, 36
1, 20170, Control_c, 0, 64, 0
1, 20223, Control_c, 0, 64, 127
1, 20400, Note_on_c, 0, 63, 29
1, 20628, Note_on_c, 0, 63, 0
1, 20640, Note_on_c, 0, 63, 29
1, 20868, Note_on_c, 0, 63, 0
1, 20880, Note_on_c, 0, 73, 0
1, 20880, Note_on_c, 0, 72, 50
1, 20880, Note_on_c, 0, 63, 29
1, 20940, Tempo, 909091
1, 21120, Tempo, 857143
1, 21120, Note_on_c, 0, 63, 0
1, 21120, Note_on_c, 0, 68, 0
1, 21120, Note_on_c, 0, 56, 0
1, 21120, Note_on_c, 0, 72, 0
1, 21120, Note_on_c, 0, 67, 57
1, 21120, Note_on_c, 0, 70, 57
1, 21120, Note_on_c, 0, 51, 41
1, 21120, Control_c, 0, 64, 0
1, 21360, Note_on_c, 0, 51, 0
1, 21360, Note_on_c, 0, 63, 32
1, 21395, Control_c, 0, 64, 127
1, 21480, Tempo, 839161
1, 21600, Note_on_c, 0, 63, 0
1, 21600, Note_on_c, 0, 62, 33
1, 21840, Note_on_c, 0, 62, 0
1, 21840, Note_on_c, 0, 63, 33
1, 22080, Note_on_c, 0, 63, 0
1, 22080, Note_on_c, 0, 70, 0
1, 22080, Note_on_c, 0, 67, 0
1, 22080, Note_on_c, 0, 62, 36
1, 22080, Control_c, 0, 64, 0
1, 22252, Control_c, 0, 64, 127
1, 22320, Note_on_c, 0, 62, 0
1, 22320, Note_on_c, 0, 63, 31
1, 22560, Tempo, 851064
1, 22560, Note_on_c, 0, 63, 0
1, 22560, Note_on_c, 0, 65, 36
1, 22800, Note_on_c, 0, 65, 0
1, 22800, Note_on_c, 0, 61, 33
1, 23010, Note_on_c, 0, 63, 36
1, 23040, Tempo, 857143
1, 23040, Note_on_c, 0, 61, 0
1, 23040, Note_on_c, 0, 72, 63
1, 23040, Control_c, 0, 64, 0
1, 23076, Control_c, 0, 64, 127
1, 23100, Note_on_c, 0, 63, 0
1, 23280, Note_on_c, 0, 56, 32
1, 23520, Note_on_c, 0, 56, 0
1, 23520, Note_on_c, 0, 60, 32
1, 23760, Note_on_c, 0, 60, 0
1, 23760, Note_on_c, 0, 63, 29
1, 23820, Tempo, 902256
1, 23880, Note_on_c, 0, 72, 0
1, 23880, Note_on_c, 0, 68, 52
1, 23960, Note_on_c, 0, 63, 0
1, 23970, Note_on_c, 0, 63, 43
1, 24000, Tempo, 851064
1, 24000, Note_on_c, 0, 68, 0
1, 24000, Note_on_c, 0, 75, 64
1, 24015, Control_c, 0, 64, 0
1, 24050, Control_c, 0, 64, 127
1, 24090, Note_on_c, 0, 63, 0
1, 24240, Note_on_c, 0, 48, 32
1, 24480, Note_on_c, 0, 48, 0
1, 24480, Note_on_c, 0, 51, 32
1, 24720, Tempo, 909091
1, 24720, Note_on_c, 0, 51, 0
1, 24720, Note_on_c, 0, 56, 30
1, 24840, Note_on_c, 0, 75, 0
1, 24840, Note_on_c, 0, 72, 60
1, 24900, Note_on_c, 0, 72, 0
1, 24930, Note_on_c, 0, 65, 44
1, 24960, Tempo, 851064
1, 24960, Note_on_c, 0, 56, 0
1, 24960, Note_on_c, 0, 77, 73
1, 24966, Control_c, 0, 64, 0
1, 25020, Note_on_c, 0, 65, 0
1, 25038, Control_c, 0, 64, 127
1, 25200, Note_on_c, 0, 49, 38
1, 25200, Note_on_c, 0, 53, 38
1, 25200, Control_c, 0, 64, 0
1, 25440, Note_on_c, 0, 55, 42
1, 25452, Note_on_c, 0, 53, 0
1, 25680, Note_on_c, 0, 56, 45
1, 25692, Note_on_c, 0, 55, 0
1, 25740, Tempo, 909091
1, 25920, Tempo, 839161
1, 25920, Note_on_c, 0, 57, 49
1, 25932, Note_on_c, 0, 56, 0
1, 26160, Note_on_c, 0, 58, 52
1, 26172, Note_on_c, 0, 57, 0
1, 26400, Note_on_c, 0, 77, 0
1, 26400, Note_on_c, 0, 69, 59
1, 26400, Note_on_c, 0, 75, 70
1, 26400, Note_on_c, 0, 60, 48
1, 26412, Note_on_c, 0, 58, 0
1, 26640, Tempo, 909091
1, 26640, Note_on_c, 0, 75, 0
1, 26640, Note_on_c, 0, 69, 0
1, 26640, Note_on_c, 0, 70, 52
1, 26640, Note_on_c, 0, 73, 62
1, 26640, Note_on_c, 0, 61, 51
1, 26652, Note_on_c, 0, 60, 0
1, 26880, Tempo, 839161
1, 26880, Note_on_c, 0, 73, 0
1, 26880, Note_on_c, 0, 49, 0
1, 26880, Note_on_c, 0, 70, 0
1, 26880, Note_on_c, 0, 68, 59
1, 26880, Note_on_c, 0, 72, 70
1, 26880, Note_on_c, 0, 51, 32
1, 26880, Note_on_c, 0, 63, 51
1, 26892, Note_on_c, 0, 61, 0
1, 26949, Control_c, 0, 64, 127
1, 27120, Note_on_c, 0, 63, 0
1, 27120, Note_on_c, 0, 62, 45
1, 27360, Note_on_c, 0, 62, 0
1, 27360, Note_on_c, 0, 72, 0
1, 27360, Note_on_c, 0, 75, 63
1, 27360, Note_on_c, 0, 61, 46
1, 27368, Control_c, 0, 64, 0
1, 27497, Control_c, 0, 64, 127
1, 27600, Tempo, 869565
1, 27600, Note_on_c, 0, 61, 0
1, 27600, Note_on_c, 0, 60, 46
1, 27840, Tempo, 839161
1, 27840, Note_on_c, 0, 60, 0
1, 27840, Note_on_c, 0, 75, 0
1, 27840, Note_on_c, 0, 68, 0
1, 27840, Note_on_c, 0, 51, 0
1, 27840, Note_on_c, 0, 67, 59
1, 27840, Note_on_c, 0, 73, 70
1, 27840, Note_on_c, 0, 51, 32
1, 27840, Note_on_c, 0, 58, 51
1, 27849, Control_c, 0, 64, 0
1, 28000, Control_c, 0, 64, 127
1, 28080, Note_on_c, 0, 58, 0
1, 28080, Note_on_c, 0, 60, 44
1, 28320, Note_on_c, 0, 60, 0
1, 28320, Note_on_c, 0, 73, 0
1, 28320, Note_on_c, 0, 70, 60
1, 28320, Note_on_c, 0, 61, 44
1, 28334, Control_c, 0, 64, 0
1, 28435, Control_c, 0, 64, 127
1, 28560, Tempo, 1008403
1, 28560, Note_on_c, 0, 61, 0
1, 28560, Note_on_c, 0, 55, 44
1, 28790, Note_on_c, 0, 55, 0
1, 28800, Tempo, 952381
1, 28800, Note_on_c, 0, 70, 0
1, 28800, Note_on_c, 0, 51, 0
1, 28800, Note_on_c, 0, 67, 0
1, 28800, Note_on_c, 0, 61, 59
1, 28800, Note_on_c, 0, 70, 70
1, 28800, Note_on_c, 0, 44, 32
1, 28800, Note_on_c, 0, 55, 51
1, 28800, Control_c, 0, 64, 0
1, 28927, Control_c, 0, 64, 127
1, 29280, Tempo, 930233
1, 29280, Note_on_c, 0, 61, 0
1, 29280, Note_on_c, 0, 60, 34
1, 29298, Control_c, 0, 64, 0
1, 29400, Note_on_c, 0, 60, 0
1, 29400, Note_on_c, 0, 61, 32
1, 29520, Note_on_c, 0, 61, 0
1, 29520, Note_on_c, 0, 63, 36
1, 29640, Tempo, 1142857
1, 29640, Note_on_c, 0, 63, 0
1, 29640, Note_on_c, 0, 61, 31
1, 29760, Tempo, 944882
1, 29760, Note_on_c, 0, 61, 0
1, 29760, Note_on_c, 0, 70, 0
1, 29760, Note_on_c, 0, 55, 0
1, 29760, Note_on_c, 0, 60, 37
1, 29760, Note_on_c, 0, 68, 45
1, 29760, Note_on_c, 0, 56, 31
1, 29838, Control_c, 0, 64, 127
1, 30085, Control_c, 0, 64, 0
1, 30240, Note_on_c, 0, 56, 0
1, 30240, Note_on_c, 0, 44, 0
1, 30240, Note_on_c, 0, 60, 0
1, 30240, Note_on_c, 0, 68, 0
1, 30690, Note_on_c, 0, 77, 78
1, 30720, Tempo, 839161
1, 30720, Note_on_c, 0, 89, 91
1, 30720, Note_on_c, 0, 63, 76
1, 30720, Note_on_c, 0, 65, 76
1, 30720, Note_on_c, 0, 60, 76
1, 30720, Note_on_c, 0, 57, 76
1, 30775, Control_c, 0, 64, 127
1, 30780, Note_on_c, 0, 77, 0
1, 31440, Note_on_c, 0, 89, 0
1, 31440, Note_on_c, 0, 87, 65
1, 31474, Note_on_c, 0, 84, 63
1, 31475, Note_on_c, 0, 87, 0
1, 31509, Note_on_c, 0, 84, 0
1, 31509, Note_on_c, 0, 81, 62
1, 31543, Note_on_c, 0, 77, 61
1, 31543, Note_on_c, 0, 81, 0
1, 31577, Note_on_c, 0, 77, 0
1, 31577, Note_on_c, 0, 75, 59
1, 31611, Note_on_c, 0, 72, 57
1, 31612, Note_on_c, 0, 75, 0
1, 31645, Note_on_c, 0, 69, 56
1, 31646, Note_on_c, 0, 72, 0
1, 31678, Note_on_c, 0, 65, 0
1, 31680, Note_on_c, 0, 69, 0
1, 31680, Note_on_c, 0, 63, 0
1, 31680, Note_on_c, 0, 60, 0
1, 31680, Note_on_c, 0, 57, 0
1, 31680, Note_on_c, 0, 65, 78
1, 31680, Control_c, 0, 64, 0
1, 31920, Tempo, 916031
1, 31920, Note_on_c, 0, 65, 0
1, 32160, Tempo, 833333
1, 32520, Note_on_c, 0, 60, 45
1, 32520, Note_on_c, 0, 63, 54
1, 32520, Note_on_c, 0, 45, 30
1, 32520, Note_on_c, 0, 53, 36
1, 32630, Note_on_c, 0, 53, 0
1, 32630, Note_on_c, 0, 60, 0
1, 32630, Note_on_c, 0, 63, 0
1, 32630, Note_on_c, 0, 45, 0
1, 32640, Tempo, 882353
1, 32640, Note_on_c, 0, 60, 48
1, 32640, Note_on_c, 0, 63, 57
1, 32640, Note_on_c, 0, 46, 35
1, 32640, Note_on_c, 0, 53, 41
1, 32880, Control_c, 0, 64, 127
1, 33600, Note_on_c, 0, 63, 0
1, 33600, Note_on_c, 0, 60, 0
1, 33600, Note_on_c, 0, 58, 38
1, 33600, Note_on_c, 0, 61, 45
1, 33614, Control_c, 0, 64, 0
1, 34080, Note_on_c, 0, 61, 0
1, 34080, Note_on_c, 0, 53, 0
1, 34080, Note_on_c, 0, 46, 0
1, 34080, Note_on_c, 0, 58, 0
1, 34530, Note_on_c, 0, 75, 78
1, 34560, Tempo, 845070
1, 34560, Note_on_c, 0, 87, 91
1, 34560, Note_on_c, 0, 61, 76
1, 34560, Note_on_c, 0, 63, 76
1, 34560, Note_on_c, 0, 58, 76
1, 34560, Note_on_c, 0, 55, 76
1, 34596, Control_c, 0, 64, 127
1, 34620, Note_on_c, 0, 75, 0
1, 35280, Note_on_c, 0, 87, 0
1, 35280, Note_on_c, 0, 85, 65
1, 35314, Note_on_c, 0, 82, 63
1, 35315, Note_on_c, 0, 85, 0
1, 35349, Note_on_c, 0, 82, 0
1, 35349, Note_on_c, 0, 79, 62
1, 35383, Note_on_c, 0, 75, 61
1, 35383, Note_on_c, 0, 79, 0
1, 35417, Note_on_c, 0, 75, 0
1, 35417, Note_on_c, 0, 73, 59
1, 35451, Note_on_c, 0, 70, 57
1, 35452, Note_on_c, 0, 73, 0
1, 35485, Note_on_c, 0, 67, 56
1, 35486, Note_on_c, 0, 70, 0
1, 35518, Note_on_c, 0, 63, 0
1, 35520, Note_on_c, 0, 67, 0
1, 35520, Note_on_c, 0, 61, 0
1, 35520, Note_on_c, 0, 58, 0
1, 35520, Note_on_c, 0, 55, 0
1, 35520, Note_on_c, 0, 63, 78
1, 35535, Control_c, 0, 64, 0
1, 35760, Tempo, 960000
1, 35760, Note_on_c, 0, 63, 0
1, 36000, Tempo, 851064
1, 36360, Note_on_c, 0, 58, 45
1, 36360, Note_on_c, 0, 61, 54
1, 36360, Note_on_c, 0, 43, 30
1, 36360, Note_on_c, 0, 51, 36
1, 36470, Note_on_c, 0, 51, 0
1, 36470, Note_on_c, 0, 58, 0
1, 36470, Note_on_c, 0, 61, 0
1, 36470, Note_on_c, 0, 43, 0
1, 36480, Note_on_c, 0, 58, 48
1, 36480, Note_on_c, 0, 61, 57
1, 36480, Note_on_c, 0, 44, 35
1, 36480, Note_on_c, 0, 51, 41
1, 36560, Control_c, 0, 64, 127
1, 37440, Note_on_c, 0, 61, 0
1, 37440, Note_on_c, 0, 58, 0
1, 37440, Note_on_c, 0, 56, 38
1, 37440, Note_on_c, 0, 60, 45
1, 37454, Control_c, 0, 64, 0
1, 37920, Note_on_c, 0, 60, 0
1, 37920, Note_on_c, 0, 51, 0
1, 37920, Note_on_c, 0, 44, 0
1, 37920, Note_on_c, 0, 56, 0
1, 38370, Note_on_c, 0, 47, 89
1, 38400, Tempo, 857143
1, 38400, Note_on_c, 0, 59, 92
1, 38435, Control_c, 0, 64, 127
1, 38460, Note_on_c, 0, 47, 0
1, 38880, Tempo, 827586
1, 39120, Note_on_c, 0, 59, 0
1, 39120, Note_on_c, 0, 59, 59
1, 39160, Note_on_c, 0, 59, 0
1, 39160, Note_on_c, 0, 56, 57
1, 39200, Note_on_c, 0, 56, 0
1, 39201, Note_on_c, 0, 51, 56
1, 39240, Note_on_c, 0, 47, 56
1, 39241, Note_on_c, 0, 51, 0
1, 39280, Note_on_c, 0, 47, 0
1, 39281, Note_on_c, 0, 44, 55
1, 39321, Note_on_c, 0, 44, 0
1, 39321, Note_on_c, 0, 39, 53
1, 39360, Tempo, 857143
1, 39360, Note_on_c, 0, 35, 91
1, 39361, Note_on_c, 0, 39, 0
1, 39374, Control_c, 0, 64, 0
1, 39600, Note_on_c, 0, 35, 0
1, 40140, Tempo, 960000
1, 40200, Note_on_c, 0, 51, 69
1, 40200, Note_on_c, 0, 56, 69
1, 40200, Note_on_c, 0, 63, 69
1, 40200, Note_on_c, 0, 35, 46
1, 40200, Note_on_c, 0, 47, 46
1, 40310, Note_on_c, 0, 47, 0
1, 40310, Note_on_c, 0, 63, 0
1, 40310, Note_on_c, 0, 51, 0
1, 40310, Note_on_c, 0, 56, 0
1, 40310, Note_on_c, 0, 35, 0
1, 40320, Tempo, 857143
1, 40320, Note_on_c, 0, 63, 83
1, 40320, Note_on_c, 0, 56, 59
1, 40320, Note_on_c, 0, 53, 59
1, 40320, Note_on_c, 0, 34, 59
1, 40320, Note_on_c, 0, 46, 59
1, 40400, Control_c, 0, 64, 127
1, 41280, Note_on_c, 0, 63, 0
1, 41280, Note_on_c, 0, 62, 46
1, 41294, Control_c, 0, 64, 0
1, 41520, Note_on_c, 0, 62, 0
1, 41520, Note_on_c, 0, 64, 46
1, 41760, Note_on_c, 0, 46, 0
1, 41760, Note_on_c, 0, 34, 0
1, 41760, Note_on_c, 0, 56, 0
1, 41760, Note_on_c, 0, 53, 0
1, 41760, Note_on_c, 0, 65, 54
1, 41772, Note_on_c, 0, 64, 0
1, 42000, Note_on_c, 0, 65, 0
1, 42000, Note_on_c, 0, 69, 46
1, 42240, Tempo, 839161
1, 42240, Note_on_c, 0, 70, 54
1, 42252, Note_on_c, 0, 69, 0
1, 42480, Note_on_c, 0, 70, 0
1, 42480, Note_on_c, 0, 73, 46
1, 42720, Note_on_c, 0, 74, 55
1, 42732, Note_on_c, 0, 73, 0
1, 42960, Note_on_c, 0, 74, 0
1, 42960, Note_on_c, 0, 76, 46
1, 43200, Note_on_c, 0, 77, 55
1, 43212, Note_on_c, 0, 76, 0
1, 43440, Tempo, 857143
1, 43440, Note_on_c, 0, 77, 0
1, 43440, Note_on_c, 0, 79, 46
1, 43680, Tempo, 845070
1, 43680, Note_on_c, 0, 80, 55
1, 43692, Note_on_c, 0, 79, 0
1, 43920, Tempo, 882353
1, 43920, Note_on_c, 0, 80, 0
1, 43920, Note_on_c, 0, 77, 46
1, 44160, Tempo, 839161
1, 44160, Note_on_c, 0, 77, 0
1, 44160, Note_on_c, 0, 74, 55
1, 44160, Note_on_c, 0, 58, 35
1, 44160, Note_on_c, 0, 56, 29
1, 44203, Control_c, 0, 64, 127
1, 44616, Note_on_c, 0, 56, 0
1, 44616, Note_on_c, 0, 58, 0
1, 44640, Note_on_c, 0, 58, 30
1, 44640, Note_on_c, 0, 56, 25
1, 45096, Note_on_c, 0, 56, 0
1, 45096, Note_on_c, 0, 58, 0
1, 45120, Note_on_c, 0, 58, 30
1, 45120, Note_on_c, 0, 56, 25
1, 45360, Note_on_c, 0, 74, 0
1, 45360, Note_on_c, 0, 75, 50
1, 45420, Note_on_c, 0, 75, 0
1, 45420, Note_on_c, 0, 74, 50
1, 45480, Note_on_c, 0, 74, 0
1, 45480, Note_on_c, 0, 72, 50
1, 45540, Note_on_c, 0, 72, 0
1, 45540, Note_on_c, 0, 74, 50
1, 45576, Note_on_c, 0, 56, 0
1, 45576, Note_on_c, 0, 58, 0
1, 45600, Tempo, 833333
1, 45600, Note_on_c, 0, 74, 0
1, 45600, Note_on_c, 0, 75, 55
1, 45600, Note_on_c, 0, 58, 30
1, 45600, Note_on_c, 0, 56, 25
1, 45608, Control_c, 0, 64, 0
1, 45653, Control_c, 0, 64, 127
1, 45900, Tempo, 930233
1, 45960, Note_on_c, 0, 75, 0
1, 45960, Note_on_c, 0, 77, 55
1, 46056, Note_on_c, 0, 56, 0
1, 46056, Note_on_c, 0, 58, 0
1, 46070, Note_on_c, 0, 77, 0
1, 46080, Tempo, 863309
1, 46080, Note_on_c, 0, 77, 55
1, 46080, Note_on_c, 0, 58, 35
1, 46080, Note_on_c, 0, 55, 29
1, 46080, Control_c, 0, 64, 0
1, 46355, Control_c, 0, 64, 127
1, 46536, Note_on_c, 0, 55, 0
1, 46536, Note_on_c, 0, 58, 0
1, 46560, Tempo, 833333
1, 46560, Note_on_c, 0, 77, 0
1, 46560, Note_on_c, 0, 75, 55
1, 46560, Note_on_c, 0, 58, 28
1, 46560, Note_on_c, 0, 55, 23
1, 46575, Control_c, 0, 64, 0
1, 46812, Control_c, 0, 64, 127
1, 47016, Note_on_c, 0, 55, 0
1, 47016, Note_on_c, 0, 58, 0
1, 47040, Note_on_c, 0, 58, 28
1, 47040, Note_on_c, 0, 55, 23
1, 47496, Note_on_c, 0, 55, 0
1, 47496, Note_on_c, 0, 58, 0
1, 47520, Note_on_c, 0, 75, 0
1, 47520, Note_on_c, 0, 76, 55
1, 47520, Note_on_c, 0, 58, 28
1, 47520, Note_on_c, 0, 55, 23
1, 47524, Control_c, 0, 64, 0
1, 47749, Control_c, 0, 64, 127
1, 47760, Tempo, 895522
1, 47976, Note_on_c, 0, 55, 0
1, 47976, Note_on_c, 0, 58, 0
1, 48000, Tempo, 857143
1, 48000, Note_on_c, 0, 76, 0
1, 48000, Note_on_c, 0, 77, 55
1, 48000, Note_on_c, 0, 50, 29
1, 48000, Note_on_c, 0, 58, 35
1, 48000, Note_on_c, 0, 56, 29
1, 48000, Control_c, 0, 64, 0
1, 48064, Control_c, 0, 64, 127
1, 48456, Note_on_c, 0, 56, 0
1, 48456, Note_on_c, 0, 58, 0
1, 48456, Note_on_c, 0, 50, 0
1, 48480, Note_on_c, 0, 50, 27
1, 48480, Note_on_c, 0, 58, 33
1, 48480, Note_on_c, 0, 56, 27
1, 48936, Note_on_c, 0, 56, 0
1, 48936, Note_on_c, 0, 58, 0
1, 48936, Note_on_c, 0, 50, 0
1, 48960, Tempo, 839161
1, 48960, Note_on_c, 0, 50, 27
1, 48960, Note_on_c, 0, 58, 33
1, 48960, Note_on_c, 0, 56, 27
1, 49200, Tempo, 857143
1, 49200, Note_on_c, 0, 77, 0
1, 49200, Note_on_c, 0, 79, 50
1, 49260, Note_on_c, 0, 79, 0
1, 49260, Note_on_c, 0, 77, 47
1, 49320, Note_on_c, 0, 77, 0
1, 49320, Note_on_c, 0, 75, 49
1, 49380, Note_on_c, 0, 75, 0
1, 49380, Note_on_c, 0, 77, 51
1, 49416, Note_on_c, 0, 56, 0
1, 49416, Note_on_c, 0, 50, 0
1, 49416, Note_on_c, 0, 58, 0
1, 49440, Tempo, 833333
1, 49440, Note_on_c, 0, 77, 0
1, 49440, Note_on_c, 0, 79, 53
1, 49440, Note_on_c, 0, 55, 46
1, 49440, Note_on_c, 0, 50, 25
1, 49440, Note_on_c, 0, 58, 30
1, 49445, Control_c, 0, 64, 0
1, 49486, Control_c, 0, 64, 127
1, 49800, Tempo, 930233
1, 49800, Note_on_c, 0, 55, 0
1, 49800, Note_on_c, 0, 79, 0
1, 49800, Note_on_c, 0, 80, 60
1, 49800, Note_on_c, 0, 53, 46
1, 49910, Note_on_c, 0, 53, 0
1, 49910, Note_on_c, 0, 80, 0
1, 49920, Tempo, 857143
1, 49920, Note_on_c, 0, 50, 0
1, 49920, Note_on_c, 0, 58, 0
1, 49920, Note_on_c, 0, 80, 58
1, 49920, Note_on_c, 0, 51, 29
1, 49920, Note_on_c, 0, 58, 35
1, 49920, Note_on_c, 0, 54, 29
1, 49920, Control_c, 0, 64, 0
1, 50086, Control_c, 0, 64, 127
1, 50376, Note_on_c, 0, 54, 0
1, 50376, Note_on_c, 0, 58, 0
1, 50376, Note_on_c, 0, 51, 0
1, 50400, Note_on_c, 0, 80, 0
1, 50400, Note_on_c, 0, 79, 55
1, 50400, Note_on_c, 0, 51, 23
1, 50400, Note_on_c, 0, 58, 28
1, 50400, Note_on_c, 0, 55, 23
1, 50417, Control_c, 0, 64, 0
1, 50649, Control_c, 0, 64, 127
1, 50856, Note_on_c, 0, 55, 0
1, 50856, Note_on_c, 0, 58, 0
1, 50856, Note_on_c, 0, 51, 0
1, 50880, Note_on_c, 0, 79, 0
1, 50880, Note_on_c, 0, 51, 23
1, 50880, Note_on_c, 0, 58, 28
1, 50880, Note_on_c, 0, 55, 23
1, 51336, Note_on_c, 0, 55, 0
1, 51336, Note_on_c, 0, 58, 0
1, 51336, Note_on_c, 0, 51, 0
1, 51360, Note_on_c, 0, 51, 28
1, 51360, Note_on_c, 0, 58, 28
1, 51360, Note_on_c, 0, 55, 23
1, 51816, Note_on_c, 0, 55, 0
1, 51816, Note_on_c, 0, 58, 0
1, 51816, Note_on_c, 0, 51, 0
1, 51837, Tempo, 1016949
1, 51840, Note_on_c, 0, 56, 25
1, 51840, Note_on_c, 0, 58, 30
1, 51840, Control_c, 0, 64, 0
1, 51875, Tempo, 1008403
1, 51880, Note_on_c, 0, 62, 30
1, 51886, Control_c, 0, 64, 127
1, 51894, Tempo, 1000000
1, 51914, Tempo, 991736
1, 51920, Note_on_c, 0, 62, 0
1, 51921, Note_on_c, 0, 63, 30
1, 51952, Tempo, 983607
1, 51961, Note_on_c, 0, 63, 0
1, 51961, Note_on_c, 0, 65, 41
1, 51971, Tempo, 975610
1, 51990, Tempo, 967742
1, 52001, Note_on_c, 0, 65, 0
1, 52001, Note_on_c, 0, 63, 33
1, 52010, Tempo, 960000
1, 52041, Note_on_c, 0, 63, 0
1, 52041, Note_on_c, 0, 62, 33
1, 52048, Tempo, 952381
1, 52067, Tempo, 944882
1, 52081, Note_on_c, 0, 62, 0
1, 52081, Note_on_c, 0, 68, 42
1, 52086, Tempo, 937500
1, 52106, Tempo, 930233
1, 52121, Note_on_c, 0, 68, 0
1, 52121, Note_on_c, 0, 67, 34
1, 52144, Tempo, 923077
1, 52161, Note_on_c, 0, 67, 0
1, 52161, Note_on_c, 0, 65, 34
1, 52163, Tempo, 916031
1, 52182, Tempo, 909091
1, 52201, Note_on_c, 0, 65, 0
1, 52202, Tempo, 902256
1, 52202, Note_on_c, 0, 74, 51
1, 52240, Tempo, 895522
1, 52242, Note_on_c, 0, 74, 0
1, 52242, Note_on_c, 0, 72, 37
1, 52259, Tempo, 888889
1, 52278, Tempo, 882353
1, 52282, Note_on_c, 0, 72, 0
1, 52282, Note_on_c, 0, 70, 36
1, 52296, Note_on_c, 0, 58, 0
1, 52296, Note_on_c, 0, 56, 0
1, 52298, Tempo, 875912
1, 52320, Note_on_c, 0, 77, 57
1, 52320, Note_on_c, 0, 56, 25
1, 52320, Note_on_c, 0, 58, 30
1, 52322, Note_on_c, 0, 70, 0
1, 52324, Control_c, 0, 64, 0
1, 52336, Tempo, 869565
1, 52355, Tempo, 863309
1, 52360, Note_on_c, 0, 77, 0
1, 52360, Note_on_c, 0, 75, 41
1, 52374, Tempo, 857143
1, 52374, Control_c, 0, 64, 127
1, 52394, Tempo, 851064
1, 52400, Note_on_c, 0, 75, 0
1, 52400, Note_on_c, 0, 74, 44
1, 52440, Tempo, 1016949
1, 52440, Note_on_c, 0, 74, 0
1, 52440, Note_on_c, 0, 80, 59
1, 52480, Note_on_c, 0, 80, 0
1, 52480, Note_on_c, 0, 79, 46
1, 52500, Tempo, 1600000
1, 52520, Note_on_c, 0, 79, 0
1, 52520, Note_on_c, 0, 77, 48
1, 52560, Tempo, 845070
1, 52560, Note_on_c, 0, 77, 0
1, 52560, Note_on_c, 0, 84, 70
1, 52565, Control_c, 0, 64, 0
1, 52606, Control_c, 0, 64, 127
1, 52776, Note_on_c, 0, 56, 0
1, 52776, Note_on_c, 0, 58, 0
1, 52800, Note_on_c, 0, 56, 25
1, 52800, Note_on_c, 0, 58, 30
1, 53256, Note_on_c, 0, 58, 0
1, 53256, Note_on_c, 0, 56, 0
1, 53277, Tempo, 845070
1, 53280, Note_on_c, 0, 56, 25
1, 53280, Note_on_c, 0, 58, 30
1, 53507, Tempo, 952381
1, 53520, Note_on_c, 0, 84, 0
1, 53520, Note_on_c, 0, 84, 54
1, 53554, Note_on_c, 0, 84, 0
1, 53554, Note_on_c, 0, 82, 53
1, 53588, Note_on_c, 0, 82, 0
1, 53589, Note_on_c, 0, 80, 52
1, 53623, Note_on_c, 0, 80, 0
1, 53623, Note_on_c, 0, 79, 52
1, 53657, Note_on_c, 0, 79, 0
1, 53657, Note_on_c, 0, 77, 51
1, 53691, Note_on_c, 0, 77, 0
1, 53691, Note_on_c, 0, 75, 50
1, 53725, Note_on_c, 0, 75, 0
1, 53725, Note_on_c, 0, 74, 49
1, 53736, Note_on_c, 0, 58, 0
1, 53736, Note_on_c, 0, 56, 0
1, 53759, Note_on_c, 0, 74, 0
1, 53760, Tempo, 869565
1, 53760, Note_on_c, 0, 77, 56
1, 53760, Control_c, 0, 64, 0
1, 53820, Control_c, 0, 64, 127
1, 54120, Note_on_c, 0, 77, 0
1, 54120, Note_on_c, 0, 75, 40
1, 54240, Note_on_c, 0, 75, 0
1, 54240, Note_on_c, 0, 74, 43
1, 54240, Note_on_c, 0, 55, 25
1, 54240, Note_on_c, 0, 58, 30
1, 54249, Control_c, 0, 64, 0
1, 54321, Control_c, 0, 64, 127
1, 54420, Note_on_c, 0, 74, 0
1, 54420, Note_on_c, 0, 75, 40
1, 54480, Note_on_c, 0, 75, 0
1, 54480, Note_on_c, 0, 77, 47
1, 54498, Control_c, 0, 64, 0
1, 54537, Control_c, 0, 64, 127
1, 54600, Tempo, 983607
1, 54660, Note_on_c, 0, 77, 0
1, 54660, Note_on_c, 0, 75, 41
1, 54696, Note_on_c, 0, 58, 0
1, 54696, Note_on_c, 0, 55, 0
1, 54720, Tempo, 863309
1, 54720, Note_on_c, 0, 75, 0
1, 54720, Note_on_c, 0, 63, 52
1, 54720, Note_on_c, 0, 55, 25
1, 54720, Note_on_c, 0, 58, 30
1, 54727, Control_c, 0, 64, 0
1, 54780, Control_c, 0, 64, 127
1, 55176, Note_on_c, 0, 58, 0
1, 55176, Note_on_c, 0, 55, 0
1, 55200, Note_on_c, 0, 63, 0
1, 55200, Note_on_c, 0, 55, 25
1, 55200, Note_on_c, 0, 58, 30
1, 55656, Note_on_c, 0, 58, 0
1, 55656, Note_on_c, 0, 55, 0
1, 55680, Tempo, 1016949
1, 55680, Note_on_c, 0, 50, 25
1, 55680, Note_on_c, 0, 56, 25
1, 55680, Note_on_c, 0, 58, 30
1, 55680, Control_c, 0, 64, 0
1, 55680, Control_c, 0, 64, 0
1, 55715, Tempo, 1008403
1, 55720, Note_on_c, 0, 65, 30
1, 55726, Control_c, 0, 64, 127
1, 55734, Tempo, 1000000
1, 55754, Tempo, 991736
1, 55760, Note_on_c, 0, 65, 0
1, 55761, Note_on_c, 0, 67, 30
1, 55792, Tempo, 983607
1, 55801, Note_on_c, 0, 67, 0
1, 55801, Note_on_c, 0, 68, 41
1, 55811, Tempo, 975610
1, 55830, Tempo, 967742
1, 55841, Note_on_c, 0, 68, 0
1, 55841, Note_on_c, 0, 67, 33
1, 55850, Tempo, 960000
1, 55881, Note_on_c, 0, 67, 0
1, 55881, Note_on_c, 0, 65, 33
1, 55888, Tempo, 952381
1, 55907, Tempo, 944882
1, 55921, Note_on_c, 0, 65, 0
1, 55921, Note_on_c, 0, 74, 42
1, 55926, Tempo, 937500
1, 55946, Tempo, 930233
1, 55961, Note_on_c, 0, 74, 0
1, 55961, Note_on_c, 0, 72, 34
1, 55984, Tempo, 923077
1, 56001, Note_on_c, 0, 72, 0
1, 56001, Note_on_c, 0, 70, 34
1, 56003, Tempo, 916031
1, 56022, Tempo, 909091
1, 56041, Note_on_c, 0, 70, 0
1, 56042, Tempo, 902256
1, 56042, Note_on_c, 0, 77, 51
1, 56080, Tempo, 895522
1, 56082, Note_on_c, 0, 77, 0
1, 56082, Note_on_c, 0, 75, 37
1, 56099, Tempo, 888889
1, 56118, Tempo, 882353
1, 56122, Note_on_c, 0, 75, 0
1, 56122, Note_on_c, 0, 74, 36
1, 56136, Note_on_c, 0, 58, 0
1, 56136, Note_on_c, 0, 50, 0
1, 56136, Note_on_c, 0, 56, 0
1, 56138, Tempo, 875912
1, 56160, Note_on_c, 0, 80, 57
1, 56160, Note_on_c, 0, 50, 25
1, 56160, Note_on_c, 0, 53, 25
1, 56160, Note_on_c, 0, 56, 25
1, 56160, Note_on_c, 0, 58, 30
1, 56162, Note_on_c, 0, 74, 0
1, 56164, Control_c, 0, 64, 0
1, 56176, Tempo, 869565
1, 56195, Tempo, 863309
1, 56200, Note_on_c, 0, 80, 0
1, 56200, Note_on_c, 0, 79, 41
1, 56214, Tempo, 857143
1, 56214, Control_c, 0, 64, 127
1, 56234, Tempo, 851064
1, 56240, Note_on_c, 0, 79, 0
1, 56240, Note_on_c, 0, 77, 44
1, 56280, Tempo, 1000000
1, 56280, Note_on_c, 0, 77, 0
1, 56280, Note_on_c, 0, 86, 59
1, 56320, Note_on_c, 0, 86, 0
1, 56320, Note_on_c, 0, 84, 46
1, 56340, Tempo, 1348315
1, 56360, Note_on_c, 0, 84, 0
1, 56360, Note_on_c, 0, 82, 48
1, 56400, Tempo, 845070
1, 56400, Note_on_c, 0, 82, 0
1, 56400, Note_on_c, 0, 89, 69
1, 56405, Control_c, 0, 64, 0
1, 56446, Control_c, 0, 64, 127
1, 56616, Note_on_c, 0, 50, 0
1, 56616, Note_on_c, 0, 56, 0
1, 56616, Note_on_c, 0, 53, 0
1, 56616, Note_on_c, 0, 58, 0
1, 56640, Note_on_c, 0, 50, 25
1, 56640, Note_on_c, 0, 53, 25
1, 56640, Note_on_c, 0, 56, 25
1, 56640, Note_on_c, 0, 58, 30
1, 57096, Note_on_c, 0, 58, 0
1, 57096, Note_on_c, 0, 53, 0
1, 57096, Note_on_c, 0, 56, 0
1, 57096, Note_on_c, 0, 50, 0
1, 57117, Tempo, 845070
1, 57120, Note_on_c, 0, 50, 25
1, 57120, Note_on_c, 0, 53, 25
1, 57120, Note_on_c, 0, 56, 25
1, 57120, Note_on_c, 0, 58, 30
1, 57347, Tempo, 952381
1, 57360, Note_on_c, 0, 89, 0
1, 57360, Note_on_c, 0, 89, 54
1, 57399, Note_on_c, 0, 89, 0
1, 57399, Note_on_c, 0, 87, 53
1, 57438, Note_on_c, 0, 86, 52
1, 57438, Note_on_c, 0, 87, 0
1, 57477, Note_on_c, 0, 86, 0
1, 57477, Note_on_c, 0, 84, 52
1, 57516, Note_on_c, 0, 84, 0
1, 57516, Note_on_c, 0, 82, 51
1, 57555, Note_on_c, 0, 82, 0
1, 57555, Note_on_c, 0, 80, 50
1, 57576, Note_on_c, 0, 56, 0
1, 57576, Note_on_c, 0, 58, 0
1, 57576, Note_on_c, 0, 50, 0
1, 57576, Note_on_c, 0, 53, 0
1, 57594, Note_on_c, 0, 80, 0
1, 57600, Tempo, 839161
1, 57600, Note_on_c, 0, 79, 62
1, 57600, Control_c, 0, 64, 0
1, 58080, Tempo, 875912
1, 58080, Note_on_c, 0, 51, 30
1, 58080, Note_on_c, 0, 55, 30
1, 58080, Note_on_c, 0, 58, 30
1, 58320, Note_on_c, 0, 79, 0
1, 58440, Note_on_c, 0, 79, 64
1, 58560, Tempo, 839161
1, 58560, Note_on_c, 0, 79, 0
1, 58560, Note_on_c, 0, 58, 0
1, 58560, Note_on_c, 0, 55, 0
1, 58560, Note_on_c, 0, 51, 0
1, 58560, Note_on_c, 0, 80, 71
1, 59040, Tempo, 882353
1, 59040, Note_on_c, 0, 53, 32
1, 59040, Note_on_c, 0, 56, 32
1, 59040, Note_on_c, 0, 58, 32
1, 59040, Note_on_c, 0, 62, 32
1, 59280, Note_on_c, 0, 80, 0
1, 59400, Note_on_c, 0, 80, 71
1, 59520, Tempo, 827586
1, 59520, Note_on_c, 0, 80, 0
1, 59520, Note_on_c, 0, 62, 0
1, 59520, Note_on_c, 0, 53, 0
1, 59520, Note_on_c, 0, 56, 0
1, 59520, Note_on_c, 0, 58, 0
1, 59520, Note_on_c, 0, 82, 81
1, 59520, Control_c, 0, 64, 0
1, 60000, Tempo, 882353
1, 60000, Note_on_c, 0, 55, 37
1, 60000, Note_on_c, 0, 58, 37
1, 60000, Note_on_c, 0, 63, 37
1, 60240, Note_on_c, 0, 82, 0
1, 60360, Note_on_c, 0, 82, 78
1, 60480, Tempo, 827586
1, 60480, Note_on_c, 0, 82, 0
1, 60480, Note_on_c, 0, 63, 0
1, 60480, Note_on_c, 0, 58, 0
1, 60480, Note_on_c, 0, 55, 0
1, 60480, Note_on_c, 0, 83, 89
1, 60960, Tempo, 882353
1, 60960, Note_on_c, 0, 55, 43
1, 60960, Note_on_c, 0, 59, 43
1, 60960, Note_on_c, 0, 63, 43
1, 61200, Note_on_c, 0, 83, 0
1, 61320, Note_on_c, 0, 83, 84
1, 61440, Tempo, 827586
1, 61440, Note_on_c, 0, 83, 0
1, 61440, Note_on_c, 0, 63, 0
1, 61440, Note_on_c, 0, 59, 0
1, 61440, Note_on_c, 0, 55, 0
1, 61440, Note_on_c, 0, 84, 92
1, 61440, Control_c, 0, 64, 0
1, 61920, Tempo, 863309
1, 61920, Note_on_c, 0, 56, 51
1, 61920, Note_on_c, 0, 60, 51
1, 61920, Note_on_c, 0, 63, 51
1, 62160, Note_on_c, 0, 84, 0
1, 62280, Note_on_c, 0, 84, 90
1, 62400, Tempo, 839161
1, 62400, Note_on_c, 0, 84, 0
1, 62400, Note_on_c, 0, 63, 0
1, 62400, Note_on_c, 0, 60, 0
1, 62400, Note_on_c, 0, 56, 0
1, 62400, Note_on_c, 0, 86, 96
1, 62880, Tempo, 944882
1, 62880, Note_on_c, 0, 59, 60
1, 62880, Note_on_c, 0, 56, 60
1, 62880, Note_on_c, 0, 62, 60
1, 62880, Note_on_c, 0, 65, 60
1, 63120, Note_on_c, 0, 86, 0
1, 63240, Note_on_c, 0, 86, 99
1, 63360, Tempo, 851064
1, 63360, Note_on_c, 0, 86, 0
1, 63360, Note_on_c, 0, 65, 0
1, 63360, Note_on_c, 0, 59, 0
1, 63360, Note_on_c, 0, 56, 0
1, 63360, Note_on_c, 0, 62, 0
1, 63360, Note_on_c, 0, 87, 103
1, 63840, Note_on_c, 0, 57, 60
1, 63840, Note_on_c, 0, 60, 60
1, 63840, Note_on_c, 0, 63, 60
1, 63840, Note_on_c, 0, 66, 60
1, 64080, Tempo, 944882
1, 64080, Note_on_c, 0, 87, 0
1, 64200, Note_on_c, 0, 89, 94
1, 64230, Note_on_c, 0, 89, 0
1, 64230, Note_on_c, 0, 87, 94
1, 64260, Note_on_c, 0, 87, 0
1, 64260, Note_on_c, 0, 86, 94
1, 64290, Note_on_c, 0, 86, 0
1, 64290, Note_on_c, 0, 87, 94
1, 64320, Tempo, 839161
1, 64320, Note_on_c, 0, 87, 0
1, 64320, Note_on_c, 0, 63, 0
1, 64320, Note_on_c, 0, 57, 0
1, 64320, Note_on_c, 0, 60, 0
1, 64320, Note_on_c, 0, 66, 0
1, 64320, Note_on_c, 0, 89, 107
1, 64560, Note_on_c, 0, 89, 0
1, 64560, Note_on_c, 0, 87, 90
1, 64800, Tempo, 857143
1, 64800, Note_on_c, 0, 87, 0
1, 64800, Note_on_c, 0, 86, 74
1, 64980, Note_on_c, 0, 86, 0
1, 65040, Note_on_c, 0, 84, 67
1, 65220, Note_on_c, 0, 84, 0
1, 65280, Tempo, 839161
1, 65280, Note_on_c, 0, 82, 60
1, 65520, Tempo, 882353
1, 65520, Note_on_c, 0, 82, 0
1, 65520, Note_on_c, 0, 81, 55
1, 65760, Tempo, 839161
1, 65760, Note_on_c, 0, 81, 0
1, 65760, Note_on_c, 0, 84, 60
1, 65760, Note_on_c, 0, 67, 36
1, 65760, Note_on_c, 0, 63, 30
1, 65760, Note_on_c, 0, 58, 27
1, 66000, Tempo, 909091
1, 66000, Note_on_c, 0, 84, 0
1, 66000, Note_on_c, 0, 82, 55
1, 66240, Tempo, 833333
1, 66240, Note_on_c, 0, 82, 0
1, 66240, Note_on_c, 0, 58, 0
1, 66240, Note_on_c, 0, 63, 0
1, 66240, Note_on_c, 0, 67, 0
1, 66240, Note_on_c, 0, 80, 60
1, 66480, Note_on_c, 0, 80, 0
1, 66480, Note_on_c, 0, 79, 56
1, 66720, Note_on_c, 0, 79, 0
1, 66720, Note_on_c, 0, 77, 60
1, 66720, Note_on_c, 0, 68, 36
1, 66720, Note_on_c, 0, 62, 31
1, 66720, Note_on_c, 0, 58, 27
1, 66960, Tempo, 937500
1, 66960, Note_on_c, 0, 77, 0
1, 66960, Note_on_c, 0, 82, 57
1, 67200, Tempo, 888889
1, 67200, Note_on_c, 0, 82, 0
1, 67200, Note_on_c, 0, 58, 0
1, 67200, Note_on_c, 0, 62, 0
1, 67200, Note_on_c, 0, 68, 0
1, 67200, Note_on_c, 0, 78, 60
1, 67360, Note_on_c, 0, 78, 0
1, 67360, Note_on_c, 0, 79, 51
1, 67387, Control_c, 0, 64, 127
1, 67440, Tempo, 857143
1, 67520, Note_on_c, 0, 79, 0
1, 67520, Note_on_c, 0, 67, 43
1, 67520, Note_on_c, 0, 63, 32
1, 67680, Note_on_c, 0, 63, 0
1, 67680, Note_on_c, 0, 67, 0
1, 67680, Note_on_c, 0, 58, 39
1, 67683, Control_c, 0, 64, 0
1, 67737, Control_c, 0, 64, 127
1, 67840, Tempo, 810811
1, 67840, Note_on_c, 0, 58, 0
1, 67840, Note_on_c, 0, 79, 60
1, 67840, Note_on_c, 0, 55, 32
1, 68000, Tempo, 902256
1, 68000, Note_on_c, 0, 55, 0
1, 68000, Note_on_c, 0, 79, 0
1, 68000, Note_on_c, 0, 67, 52
1, 68000, Note_on_c, 0, 51, 32
1, 68160, Tempo, 857143
1, 68160, Note_on_c, 0, 51, 0
1, 68160, Note_on_c, 0, 67, 0
1, 68160, Note_on_c, 0, 79, 60
1, 68166, Control_c, 0, 64, 0
1, 68320, Note_on_c, 0, 79, 0
1, 68320, Note_on_c, 0, 80, 51
1, 68404, Control_c, 0, 64, 127
1, 68480, Note_on_c, 0, 80, 0
1, 68480, Note_on_c, 0, 68, 43
1, 68480, Note_on_c, 0, 65, 34
1, 68640, Note_on_c, 0, 65, 0
1, 68640, Note_on_c, 0, 68, 0
1, 68640, Note_on_c, 0, 62, 39
1, 68648, Control_c, 0, 64, 0
1, 68690, Control_c, 0, 64, 127
1, 68800, Tempo, 810811
1, 68800, Note_on_c, 0, 62, 0
1, 68800, Note_on_c, 0, 80, 60
1, 68800, Note_on_c, 0, 58, 33
1, 68960, Tempo, 902256
1, 68960, Note_on_c, 0, 58, 0
1, 68960, Note_on_c, 0, 80, 0
1, 68960, Note_on_c, 0, 68, 54
1, 68960, Note_on_c, 0, 53, 33
1, 69120, Tempo, 857143
1, 69120, Note_on_c, 0, 53, 0
1, 69120, Note_on_c, 0, 68, 0
1, 69120, Note_on_c, 0, 81, 60
1, 69120, Control_c, 0, 64, 0
1, 69280, Note_on_c, 0, 81, 0
1, 69280, Note_on_c, 0, 82, 51
1, 69301, Control_c, 0, 64, 127
1, 69440, Note_on_c, 0, 82, 0
1, 69440, Note_on_c, 0, 70, 44
1, 69440, Note_on_c, 0, 67, 33
1, 69600, Note_on_c, 0, 67, 0
1, 69600, Note_on_c, 0, 70, 0
1, 69600, Note_on_c, 0, 63, 40
1, 69618, Control_c, 0, 64, 0
1, 69674, Control_c, 0, 64, 127
1, 69760, Tempo, 810811
1, 69760, Note_on_c, 0, 63, 0
1, 69760, Note_on_c, 0, 82, 64
1, 69760, Note_on_c, 0, 58, 34
1, 69920, Tempo, 902256
1, 69920, Note_on_c, 0, 58, 0
1, 69920, Note_on_c, 0, 82, 0
1, 69920, Note_on_c, 0, 70, 56
1, 69920, Note_on_c, 0, 55, 34
1, 70080, Tempo, 857143
1, 70080, Note_on_c, 0, 55, 0
1, 70080, Note_on_c, 0, 70, 0
1, 70080, Note_on_c, 0, 82, 66
1, 70098, Control_c, 0, 64, 0
1, 70240, Note_on_c, 0, 82, 0
1, 70240, Note_on_c, 0, 83, 63
1, 70292, Control_c, 0, 64, 127
1, 70400, Note_on_c, 0, 83, 0
1, 70400, Note_on_c, 0, 71, 58
1, 70400, Note_on_c, 0, 67, 46
1, 70560, Note_on_c, 0, 67, 0
1, 70560, Note_on_c, 0, 71, 0
1, 70560, Note_on_c, 0, 63, 53
1, 70572, Control_c, 0, 64, 0
1, 70617, Control_c, 0, 64, 127
1, 70720, Tempo, 810811
1, 70720, Note_on_c, 0, 63, 0
1, 70720, Note_on_c, 0, 83, 70
1, 70720, Note_on_c, 0, 59, 46
1, 70880, Tempo, 902256
1, 70880, Note_on_c, 0, 59, 0
1, 70880, Note_on_c, 0, 83, 0
1, 70880, Note_on_c, 0, 71, 64
1, 70880, Note_on_c, 0, 55, 46
1, 71040, Tempo, 857143
1, 71040, Note_on_c, 0, 55, 0
1, 71040, Note_on_c, 0, 71, 0
1, 71040, Note_on_c, 0, 83, 73
1, 71040, Control_c, 0, 64, 0
1, 71200, Note_on_c, 0, 83, 0
1, 71200, Note_on_c, 0, 84, 70
1, 71234, Control_c, 0, 64, 127
1, 71360, Note_on_c, 0, 84, 0
1, 71360, Note_on_c, 0, 72, 63
1, 71360, Note_on_c, 0, 68, 47
1, 71520, Note_on_c, 0, 68, 0
1, 71520, Note_on_c, 0, 72, 0
1, 71520, Note_on_c, 0, 63, 58
1, 71534, Control_c, 0, 64, 0
1, 71570, Control_c, 0, 64, 127
1, 71680, Tempo, 810811
1, 71680, Note_on_c, 0, 63, 0
1, 71680, Note_on_c, 0, 84, 77
1, 71680, Note_on_c, 0, 60, 49
1, 71840, Tempo, 902256
1, 71840, Note_on_c, 0, 60, 0
1, 71840, Note_on_c, 0, 84, 0
1, 71840, Note_on_c, 0, 72, 68
1, 71840, Note_on_c, 0, 56, 49
1, 72000, Tempo, 857143
1, 72000, Note_on_c, 0, 56, 0
1, 72000, Note_on_c, 0, 72, 0
1, 72000, Note_on_c, 0, 85, 79
1, 72010, Control_c, 0, 64, 0
1, 72160, Note_on_c, 0, 85, 0
1, 72160, Note_on_c, 0, 86, 77
1, 72183, Control_c, 0, 64, 127
1, 72320, Note_on_c, 0, 86, 0
1, 72320, Note_on_c, 0, 74, 69
1, 72320, Note_on_c, 0, 68, 56
1, 72480, Note_on_c, 0, 68, 0
1, 72480, Note_on_c, 0, 74, 0
1, 72480, Note_on_c, 0, 65, 63
1, 72492, Control_c, 0, 64, 0
1, 72537, Control_c, 0, 64, 127
1, 72640, Tempo, 810811
1, 72640, Note_on_c, 0, 65, 0
1, 72640, Note_on_c, 0, 86, 84
1, 72640, Note_on_c, 0, 62, 54
1, 72800, Tempo, 902256
1, 72800, Note_on_c, 0, 62, 0
1, 72800, Note_on_c, 0, 86, 0
1, 72800, Note_on_c, 0, 74, 76
1, 72800, Note_on_c, 0, 58, 55
1, 72960, Tempo, 857143
1, 72960, Note_on_c, 0, 58, 0
1, 72960, Note_on_c, 0, 74, 0
1, 72960, Note_on_c, 0, 86, 86
1, 72960, Control_c, 0, 64, 0
1, 73120, Note_on_c, 0, 86, 0
1, 73120, Note_on_c, 0, 87, 81
1, 73165, Control_c, 0, 64, 127
1, 73280, Note_on_c, 0, 87, 0
1, 73280, Note_on_c, 0, 75, 75
1, 73280, Note_on_c, 0, 69, 78
1, 73440, Note_on_c, 0, 75, 0
1, 73440, Note_on_c, 0, 66, 57
1, 73600, Note_on_c, 0, 87, 87
1, 73600, Note_on_c, 0, 63, 61
1, 73760, Tempo, 937500
1, 73760, Note_on_c, 0, 87, 0
1, 73760, Note_on_c, 0, 75, 81
1, 73760, Note_on_c, 0, 59, 65
1, 73920, Tempo, 827586
1, 73920, Note_on_c, 0, 75, 0
1, 73920, Note_on_c, 0, 87, 87
1, 74080, Tempo, 888889
1, 74080, Note_on_c, 0, 87, 0
1, 74080, Note_on_c, 0, 78, 79
1, 74240, Tempo, 827586
1, 74240, Note_on_c, 0, 78, 0
1, 74240, Note_on_c, 0, 87, 87
1, 74400, Tempo, 882353
1, 74400, Note_on_c, 0, 87, 0
1, 74400, Note_on_c, 0, 81, 79
1, 74560, Tempo, 833333
1, 74560, Note_on_c, 0, 81, 0
1, 74560, Note_on_c, 0, 87, 86
1, 74720, Tempo, 937500
1, 74720, Note_on_c, 0, 87, 0
1, 74720, Note_on_c, 0, 81, 79
1, 74880, Note_on_c, 0, 81, 0
1, 74880, Note_on_c, 0, 69, 0
1, 74880, Note_on_c, 0, 63, 0
1, 74880, Note_on_c, 0, 66, 0
1, 74880, Note_on_c, 0, 59, 0
1, 74880, Note_on_c, 0, 82, 88
1, 74880, Control_c, 0, 64, 0
1, 75040, Tempo, 857143
1, 75040, Note_on_c, 0, 46, 64
1, 75120, Note_on_c, 0, 46, 0
1, 75200, Note_on_c, 0, 51, 64
1, 75280, Note_on_c, 0, 51, 0
1, 75360, Note_on_c, 0, 55, 64
1, 75440, Note_on_c, 0, 55, 0
1, 75520, Note_on_c, 0, 58, 58
1, 75600, Note_on_c, 0, 58, 0
1, 75680, Note_on_c, 0, 63, 58
1, 75760, Note_on_c, 0, 63, 0
1, 75840, Tempo, 902256
1, 75840, Note_on_c, 0, 67, 64
1, 76000, Tempo, 857143
1, 76000, Note_on_c, 0, 67, 0
1, 76000, Note_on_c, 0, 82, 0
1, 76000, Note_on_c, 0, 81, 79
1, 76000, Note_on_c, 0, 66, 58
1, 76160, Note_on_c, 0, 66, 0
1, 76160, Note_on_c, 0, 81, 0
1, 76160, Note_on_c, 0, 84, 79
1, 76160, Note_on_c, 0, 68, 58
1, 76320, Note_on_c, 0, 68, 0
1, 76320, Note_on_c, 0, 84, 0
1, 76320, Note_on_c, 0, 82, 85
1, 76320, Note_on_c, 0, 67, 64
1, 76440, Note_on_c, 0, 67, 0
1, 76440, Note_on_c, 0, 82, 0
1, 76480, Note_on_c, 0, 80, 79
1, 76480, Note_on_c, 0, 65, 59
1, 76600, Note_on_c, 0, 65, 0
1, 76600, Note_on_c, 0, 80, 0
1, 76640, Tempo, 937500
1, 76640, Note_on_c, 0, 79, 79
1, 76640, Note_on_c, 0, 63, 59
1, 76760, Note_on_c, 0, 63, 0
1, 76760, Note_on_c, 0, 79, 0
1, 76800, Tempo, 827586
1, 76800, Note_on_c, 0, 75, 79
1, 76800, Note_on_c, 0, 77, 79
1, 76800, Note_on_c, 0, 68, 62
1, 76800, Note_on_c, 0, 58, 52
1, 76863, Control_c, 0, 64, 127
1, 77520, Tempo, 923077
1, 77640, Note_on_c, 0, 77, 0
1, 77640, Note_on_c, 0, 77, 74
1, 77664, Note_on_c, 0, 77, 0
1, 77664, Note_on_c, 0, 79, 68
1, 77688, Note_on_c, 0, 79, 0
1, 77688, Note_on_c, 0, 77, 74
1, 77712, Note_on_c, 0, 77, 0
1, 77712, Note_on_c, 0, 76, 66
1, 77736, Note_on_c, 0, 76, 0
1, 77736, Note_on_c, 0, 77, 67
1, 77760, Tempo, 816327
1, 77760, Note_on_c, 0, 77, 0
1, 77760, Note_on_c, 0, 75, 0
1, 77760, Note_on_c, 0, 74, 79
1, 77760, Note_on_c, 0, 82, 79
1, 77774, Control_c, 0, 64, 0
1, 77856, Control_c, 0, 64, 127
1, 78600, Note_on_c, 0, 82, 0
1, 78600, Note_on_c, 0, 82, 79
1, 78720, Note_on_c, 0, 82, 0
1, 78720, Note_on_c, 0, 74, 0
1, 78720, Note_on_c, 0, 68, 0
1, 78720, Note_on_c, 0, 58, 0
1, 78720, Note_on_c, 0, 67, 74
1, 78720, Note_on_c, 0, 75, 85
1, 78769, Control_c, 0, 64, 0
1, 78880, Tempo, 857143
1, 78880, Note_on_c, 0, 34, 64
1, 78960, Note_on_c, 0, 34, 0
1, 79040, Note_on_c, 0, 39, 64
1, 79120, Note_on_c, 0, 39, 0
1, 79200, Note_on_c, 0, 75, 0
1, 79200, Note_on_c, 0, 67, 0
1, 79200, Note_on_c, 0, 43, 64
1, 79280, Note_on_c, 0, 43, 0
1, 79360, Note_on_c, 0, 46, 58
1, 79440, Note_on_c, 0, 46, 0
1, 79520, Note_on_c, 0, 51, 58
1, 79600, Note_on_c, 0, 51, 0
1, 79680, Tempo, 902256
1, 79680, Note_on_c, 0, 55, 64
1, 79840, Tempo, 857143
1, 79840, Note_on_c, 0, 55, 0
1, 79840, Note_on_c, 0, 69, 79
1, 79840, Note_on_c, 0, 54, 58
1, 80000, Note_on_c, 0, 54, 0
1, 80000, Note_on_c, 0, 69, 0
1, 80000, Note_on_c, 0, 72, 79
1, 80000, Note_on_c, 0, 56, 58
1, 80160, Note_on_c, 0, 56, 0
1, 80160, Note_on_c, 0, 72, 0
1, 80160, Note_on_c, 0, 70, 85
1, 80160, Note_on_c, 0, 55, 64
1, 80280, Note_on_c, 0, 55, 0
1, 80280, Note_on_c, 0, 70, 0
1, 80320, Note_on_c, 0, 68, 79
1, 80320, Note_on_c, 0, 53, 59
1, 80440, Note_on_c, 0, 53, 0
1, 80440, Note_on_c, 0, 68, 0
1, 80480, Tempo, 937500
1, 80480, Note_on_c, 0, 67, 79
1, 80480, Note_on_c, 0, 51, 59
1, 80600, Note_on_c, 0, 51, 0
1, 80600, Note_on_c, 0, 67, 0
1, 80640, Tempo, 827586
1, 80640, Note_on_c, 0, 63, 79
1, 80640, Note_on_c, 0, 65, 79
1, 80640, Note_on_c, 0, 56, 62
1, 80640, Note_on_c, 0, 46, 52
1, 80684, Control_c, 0, 64, 127
1, 81360, Tempo, 923077
1, 81480, Note_on_c, 0, 65, 0
1, 81480, Note_on_c, 0, 65, 74
1, 81504, Note_on_c, 0, 65, 0
1, 81504, Note_on_c, 0, 67, 68
1, 81528, Note_on_c, 0, 67, 0
1, 81528, Note_on_c, 0, 65, 74
1, 81552, Note_on_c, 0, 65, 0
1, 81552, Note_on_c, 0, 64, 66
1, 81576, Note_on_c, 0, 64, 0
1, 81576, Note_on_c, 0, 65, 67
1, 81600, Tempo, 816327
1, 81600, Note_on_c, 0, 65, 0
1, 81600, Note_on_c, 0, 63, 0
1, 81600, Note_on_c, 0, 62, 79
1, 81600, Note_on_c, 0, 70, 79
1, 81614, Control_c, 0, 64, 0
1, 81696, Control_c, 0, 64, 127
1, 82440, Note_on_c, 0, 70, 0
1, 82440, Note_on_c, 0, 70, 47
1, 82560, Note_on_c, 0, 70, 0
1, 82560, Note_on_c, 0, 62, 0
1, 82560, Note_on_c, 0, 56, 0
1, 82560, Note_on_c, 0, 46, 0
1, 82560, Note_on_c, 0, 63, 51
1, 82560, Note_on_c, 0, 51, 37
1, 82560, Note_on_c, 0, 55, 43
1, 82560, Control_c, 0, 64, 0
1, 83040, Note_on_c, 0, 55, 0
1, 83040, Note_on_c, 0, 51, 0
1, 83040, Note_on_c, 0, 63, 0
1, 84341, Control_c, 0, 64, 127
1, 84360, Note_on_c, 0, 39, 64
1, 84385, Note_on_c, 0, 46, 67
1, 84390, Note_on_c, 0, 49, 67
1, 84405, Note_on_c, 0, 51, 69
1, 84420, Note_on_c, 0, 55, 74
1, 84435, Note_on_c, 0, 58, 77
1, 84450, Note_on_c, 0, 61, 81
1, 84465, Note_on_c, 0, 63, 86
1, 84480, Note_on_c, 0, 67, 90
1, 84960, Note_on_c, 0, 67, 0
1, 84960, Note_on_c, 0, 51, 0
1, 84960, Note_on_c, 0, 63, 0
1, 84960, Note_on_c, 0, 55, 0
1, 84960, Note_on_c, 0, 39, 0
1, 84960, Note_on_c, 0, 49, 0
1, 84960, Note_on_c, 0, 61, 0
1, 84960, Note_on_c, 0, 58, 0
1, 84970, Note_on_c, 0, 46, 0
1, 85366, Control_c, 0, 64, 0
1, 86400, Tempo, 875912
1, 86400, Note_on_c, 0, 60, 42
1, 86400, Note_on_c, 0, 68, 50
1, 86400, Note_on_c, 0, 44, 39
1, 86457, Control_c, 0, 64, 127
1, 86880, Note_on_c, 0, 44, 0
1, 86880, Note_on_c, 0, 51, 32
1, 87120, Tempo, 944882
1, 87120, Note_on_c, 0, 68, 0
1, 87120, Note_on_c, 0, 70, 50
1, 87180, Note_on_c, 0, 70, 0
1, 87180, Note_on_c, 0, 68, 46
1, 87240, Note_on_c, 0, 68, 0
1, 87240, Note_on_c, 0, 67, 46
1, 87300, Note_on_c, 0, 67, 0
1, 87300, Note_on_c, 0, 68, 46
1, 87360, Tempo, 869565
1, 87360, Note_on_c, 0, 68, 0
1, 87360, Note_on_c, 0, 51, 0
1, 87360, Note_on_c, 0, 60, 0
1, 87360, Note_on_c, 0, 72, 54
1, 87360, Note_on_c, 0, 61, 45
1, 87360, Note_on_c, 0, 43, 39
1, 87374, Control_c, 0, 64, 0
1, 87438, Control_c, 0, 64, 127
1, 87840, Note_on_c, 0, 43, 0
1, 87840, Note_on_c, 0, 51, 29
1, 88080, Tempo, 909091
1, 88080, Note_on_c, 0, 72, 0
1, 88080, Note_on_c, 0, 70, 45
1, 88320, Tempo, 888889
1, 88320, Note_on_c, 0, 70, 0
1, 88320, Note_on_c, 0, 51, 0
1, 88320, Note_on_c, 0, 61, 0
1, 88320, Note_on_c, 0, 60, 42
1, 88320, Note_on_c, 0, 68, 50
1, 88320, Note_on_c, 0, 44, 42
1, 88320, Control_c, 0, 64, 0
1, 88800, Note_on_c, 0, 44, 0
1, 88800, Note_on_c, 0, 51, 36
1, 88823, Control_c, 0, 64, 127
1, 89280, Tempo, 888889
1, 89280, Note_on_c, 0, 51, 0
1, 89280, Note_on_c, 0, 60, 0
1, 89280, Note_on_c, 0, 56, 38
1, 89520, Note_on_c, 0, 68, 0
1, 89520, Note_on_c, 0, 67, 46
1, 89760, Note_on_c, 0, 67, 0
1, 89760, Note_on_c, 0, 56, 0
1, 89760, Note_on_c, 0, 68, 44
1, 89760, Note_on_c, 0, 60, 40
1, 89780, Control_c, 0, 64, 0
1, 90000, Tempo, 915891
1, 90000, Note_on_c, 0, 68, 0
1, 90000, Note_on_c, 0, 69, 48
1, 90240, Tempo, 869565
1, 90240, Note_on_c, 0, 69, 0
1, 90240, Note_on_c, 0, 60, 0
1, 90240, Note_on_c, 0, 63, 52
1, 90240, Note_on_c, 0, 70, 52
1, 90240, Note_on_c, 0, 55, 46
1, 90240, Note_on_c, 0, 61, 46
1, 90312, Control_c, 0, 64, 127
1, 90720, Note_on_c, 0, 61, 0
1, 90720, Note_on_c, 0, 70, 0
1, 90720, Note_on_c, 0, 58, 32
1, 90960, Tempo, 937500
1, 90960, Note_on_c, 0, 72, 50
1, 91020, Note_on_c, 0, 72, 0
1, 91020, Note_on_c, 0, 70, 46
1, 91080, Note_on_c, 0, 70, 0
1, 91080, Note_on_c, 0, 69, 46
1, 91140, Note_on_c, 0, 69, 0
1, 91140, Note_on_c, 0, 70, 46
1, 91195, Control_c, 0, 64, 0
1, 91200, Tempo, 863309
1, 91200, Note_on_c, 0, 70, 0
1, 91200, Note_on_c, 0, 58, 0
1, 91200, Note_on_c, 0, 55, 0
1, 91200, Note_on_c, 0, 63, 0
1, 91200, Note_on_c, 0, 73, 54
1, 91200, Note_on_c, 0, 63, 45
1, 91200, Note_on_c, 0, 56, 29
1, 91237, Control_c, 0, 64, 127
1, 91680, Note_on_c, 0, 63, 0
1, 91680, Note_on_c, 0, 68, 45
1, 91680, Note_on_c, 0, 60, 32
1, 91920, Note_on_c, 0, 73, 0
1, 91920, Note_on_c, 0, 72, 45
1, 91980, Tempo, 909091
1, 92160, Tempo, 857143
1, 92160, Note_on_c, 0, 72, 0
1, 92160, Note_on_c, 0, 60, 0
1, 92160, Note_on_c, 0, 68, 0
1, 92160, Note_on_c, 0, 56, 0
1, 92160, Note_on_c, 0, 67, 42
1, 92160, Note_on_c, 0, 70, 50
1, 92160, Note_on_c, 0, 51, 30
1, 92160, Note_on_c, 0, 63, 36
1, 92160, Control_c, 0, 64, 0
1, 92572, Control_c, 0, 64, 127
1, 92640, Note_on_c, 0, 61, 32
1, 93120, Tempo, 833333
1, 93120, Note_on_c, 0, 61, 0
1, 93120, Note_on_c, 0, 67, 0
1, 93120, Note_on_c, 0, 58, 32
1, 93280, Note_on_c, 0, 70, 0
1, 93280, Note_on_c, 0, 77, 61
1, 93440, Note_on_c, 0, 77, 0
1, 93440, Note_on_c, 0, 75, 55
1, 93600, Note_on_c, 0, 75, 0
1, 93600, Note_on_c, 0, 58, 0
1, 93600, Note_on_c, 0, 73, 62
1, 93600, Note_on_c, 0, 55, 32
1, 93616, Control_c, 0, 64, 0
1, 93720, Note_on_c, 0, 73, 0
1, 93760, Note_on_c, 0, 72, 60
1, 93840, Tempo, 875912
1, 93880, Note_on_c, 0, 72, 0
1, 93920, Note_on_c, 0, 71, 57
1, 94040, Note_on_c, 0, 71, 0
1, 94080, Tempo, 851064
1, 94080, Note_on_c, 0, 63, 0
1, 94080, Note_on_c, 0, 51, 0
1, 94080, Note_on_c, 0, 55, 0
1, 94080, Note_on_c, 0, 72, 63
1, 94116, Control_c, 0, 64, 127
1, 94440, Note_on_c, 0, 56, 37
1, 94560, Note_on_c, 0, 56, 0
1, 94560, Note_on_c, 0, 63, 46
1, 94860, Tempo, 902256
1, 94920, Note_on_c, 0, 72, 0
1, 94920, Note_on_c, 0, 68, 52
1, 95040, Tempo, 851064
1, 95040, Note_on_c, 0, 68, 0
1, 95040, Note_on_c, 0, 63, 0
1, 95040, Note_on_c, 0, 75, 64
1, 95400, Note_on_c, 0, 48, 39
1, 95520, Note_on_c, 0, 48, 0
1, 95520, Note_on_c, 0, 56, 48
1, 95760, Tempo, 909091
1, 95880, Note_on_c, 0, 75, 0
1, 95880, Note_on_c, 0, 72, 60
1, 96000, Tempo, 851064
1, 96000, Note_on_c, 0, 72, 0
1, 96000, Note_on_c, 0, 56, 0
1, 96000, Note_on_c, 0, 77, 70
1, 96006, Control_c, 0, 64, 0
1, 96078, Control_c, 0, 64, 127
1, 96360, Note_on_c, 0, 49, 51
1, 96480, Note_on_c, 0, 49, 0
1, 96480, Note_on_c, 0, 61, 56
1, 96780, Tempo, 909091
1, 96840, Note_on_c, 0, 61, 0
1, 96840, Note_on_c, 0, 77, 0
1, 96840, Note_on_c, 0, 73, 67
1, 96840, Note_on_c, 0, 53, 56
1, 96960, Tempo, 736196
1, 96960, Note_on_c, 0, 73, 0
1, 96960, Note_on_c, 0, 80, 87
1, 96960, Note_on_c, 0, 61, 62
1, 97200, Tempo, 851064
1, 97320, Note_on_c, 0, 61, 0
1, 97320, Note_on_c, 0, 56, 56
1, 97440, Note_on_c, 0, 56, 0
1, 97440, Note_on_c, 0, 65, 65
1, 97800, Note_on_c, 0, 65, 0
1, 97800, Note_on_c, 0, 61, 65
1, 97896, Control_c, 0, 64, 0
1, 97920, Tempo, 875912
1, 97920, Note_on_c, 0, 61, 0
1, 97920, Note_on_c, 0, 68, 84
1, 97920, Note_on_c, 0, 56, 72
1, 98160, Tempo, 851064
1, 98160, Note_on_c, 0, 80, 0
1, 98160, Note_on_c, 0, 79, 63
1, 98280, Tempo, 857143
1, 98400, Note_on_c, 0, 79, 0
1, 98400, Note_on_c, 0, 56, 0
1, 98400, Note_on_c, 0, 53, 0
1, 98400, Note_on_c, 0, 77, 59
1, 98400, Note_on_c, 0, 53, 40
1, 98400, Note_on_c, 0, 56, 48
1, 98640, Note_on_c, 0, 77, 0
1, 98640, Note_on_c, 0, 75, 56
1, 98860, Note_on_c, 0, 75, 0
1, 98880, Tempo, 869565
1, 98880, Note_on_c, 0, 56, 0
1, 98880, Note_on_c, 0, 53, 0
1, 98880, Note_on_c, 0, 68, 0
1, 98880, Note_on_c, 0, 63, 37
1, 98880, Note_on_c, 0, 75, 59
1, 98880, Note_on_c, 0, 55, 48
1, 98880, Note_on_c, 0, 58, 57
1, 98979, Control_c, 0, 64, 127
1, 99120, Note_on_c, 0, 75, 0
1, 99120, Note_on_c, 0, 73, 56
1, 99340, Note_on_c, 0, 73, 0
1, 99360, Tempo, 909091
1, 99360, Note_on_c, 0, 58, 0
1, 99360, Note_on_c, 0, 55, 0
1, 99360, Note_on_c, 0, 63, 0
1, 99360, Note_on_c, 0, 63, 37
1, 99360, Note_on_c, 0, 73, 59
1, 99360, Note_on_c, 0, 60, 48
1, 99360, Note_on_c, 0, 56, 40
1, 99374, Control_c, 0, 64, 0
1, 99530, Control_c, 0, 64, 127
1, 99600, Note_on_c, 0, 73, 0
1, 99600, Note_on_c, 0, 72, 56
1, 99820, Note_on_c, 0, 72, 0
1, 99840, Tempo, 875912
1, 99840, Note_on_c, 0, 56, 0
1, 99840, Note_on_c, 0, 60, 0
1, 99840, Note_on_c, 0, 63, 0
1, 99840, Note_on_c, 0, 63, 46
1, 99840, Note_on_c, 0, 75, 55
1, 99840, Note_on_c, 0, 60, 43
1, 99840, Note_on_c, 0, 51, 43
1, 99840, Control_c, 0, 64, 0
1, 99876, Control_c, 0, 64, 127
1, 100320, Note_on_c, 0, 63, 0
1, 100320, Note_on_c, 0, 63, 39
1, 100560, Note_on_c, 0, 75, 0
1, 100560, Note_on_c, 0, 60, 0
1, 100560, Note_on_c, 0, 72, 51
1, 100560, Note_on_c, 0, 56, 31
1, 100800, Tempo, 1212121
1, 100800, Note_on_c, 0, 56, 0
1, 100800, Note_on_c, 0, 63, 0
1, 100800, Note_on_c, 0, 51, 0
1, 100800, Note_on_c, 0, 72, 0
1, 100800, Note_on_c, 0, 63, 45
1, 100800, Note_on_c, 0, 70, 53
1, 100800, Note_on_c, 0, 70, 51
1, 100800, Note_on_c, 0, 51, 26
1, 100800, Note_on_c, 0, 55, 31
1, 100809, Control_c, 0, 64, 0
1, 100830, Note_on_c, 0, 70, 0
1, 100830, Note_on_c, 0, 72, 46
1, 100847, Control_c, 0, 64, 127
1, 100860, Note_on_c, 0, 72, 0
1, 100860, Note_on_c, 0, 70, 51
1, 100890, Note_on_c, 0, 70, 0
1, 100890, Note_on_c, 0, 72, 45
1, 100920, Tempo, 967742
1, 100920, Note_on_c, 0, 72, 0
1, 100920, Note_on_c, 0, 70, 51
1, 100960, Note_on_c, 0, 70, 0
1, 100960, Note_on_c, 0, 69, 46
1, 101000, Note_on_c, 0, 69, 0
1, 101000, Note_on_c, 0, 70, 46
1, 101040, Note_on_c, 0, 70, 0
1, 101040, Note_on_c, 0, 73, 57
1, 101040, Control_c, 0, 64, 127
1, 101056, Control_c, 0, 64, 0
1, 101160, Note_on_c, 0, 73, 0
1, 101160, Note_on_c, 0, 72, 48
1, 101280, Tempo, 930233
1, 101280, Note_on_c, 0, 72, 0
1, 101280, Note_on_c, 0, 51, 0
1, 101280, Note_on_c, 0, 63, 0
1, 101280, Note_on_c, 0, 70, 0
1, 101280, Note_on_c, 0, 55, 0
1, 101280, Note_on_c, 0, 75, 55
1, 101288, Control_c, 0, 64, 0
1, 101311, Control_c, 0, 64, 127
1, 101400, Note_on_c, 0, 75, 0
1, 101400, Note_on_c, 0, 73, 47
1, 101520, Tempo, 1052632
1, 101520, Note_on_c, 0, 73, 0
1, 101520, Note_on_c, 0, 72, 51
1, 101580, Note_on_c, 0, 72, 0
1, 101580, Note_on_c, 0, 75, 47
1, 101640, Tempo, 1395349
1, 101640, Note_on_c, 0, 75, 0
1, 101640, Note_on_c, 0, 73, 47
1, 101700, Note_on_c, 0, 73, 0
1, 101700, Note_on_c, 0, 70, 47
1, 101760, Tempo, 875912
1, 101760, Note_on_c, 0, 70, 0
1, 101760, Note_on_c, 0, 60, 42
1, 101760, Note_on_c, 0, 68, 50
1, 101760, Note_on_c, 0, 44, 36
1, 101774, Control_c, 0, 64, 0
1, 101820, Control_c, 0, 64, 127
1, 102000, Note_on_c, 0, 51, 28
1, 102228, Note_on_c, 0, 51, 0
1, 102240, Note_on_c, 0, 51, 29
1, 102468, Note_on_c, 0, 51, 0
1, 102480, Tempo, 944882
1, 102480, Note_on_c, 0, 68, 0
1, 102480, Note_on_c, 0, 70, 50
1, 102480, Note_on_c, 0, 51, 29
1, 102540, Note_on_c, 0, 70, 0
1, 102540, Note_on_c, 0, 68, 46
1, 102600, Note_on_c, 0, 68, 0
1, 102600, Note_on_c, 0, 67, 46
1, 102660, Note_on_c, 0, 67, 0
1, 102660, Note_on_c, 0, 68, 46
1, 102708, Note_on_c, 0, 51, 0
1, 102720, Tempo, 869565
1, 102720, Note_on_c, 0, 60, 0
1, 102720, Note_on_c, 0, 44, 0
1, 102720, Note_on_c, 0, 68, 0
1, 102720, Note_on_c, 0, 72, 54
1, 102720, Note_on_c, 0, 61, 45
1, 102720, Note_on_c, 0, 43, 36
1, 102734, Control_c, 0, 64, 0
1, 102798, Control_c, 0, 64, 127
1, 102960, Note_on_c, 0, 51, 28
1, 103188, Note_on_c, 0, 51, 0
1, 103200, Note_on_c, 0, 51, 28
1, 103428, Note_on_c, 0, 51, 0
1, 103440, Tempo, 909091
1, 103440, Note_on_c, 0, 72, 0
1, 103440, Note_on_c, 0, 70, 45
1, 103440, Note_on_c, 0, 51, 28
1, 103668, Note_on_c, 0, 51, 0
1, 103680, Tempo, 888889
1, 103680, Note_on_c, 0, 61, 0
1, 103680, Note_on_c, 0, 43, 0
1, 103680, Note_on_c, 0, 70, 0
1, 103680, Note_on_c, 0, 60, 42
1, 103680, Note_on_c, 0, 68, 50
1, 103680, Note_on_c, 0, 44, 43
1, 103680, Control_c, 0, 64, 0
1, 103800, Note_on_c, 0, 44, 0
1, 103840, Note_on_c, 0, 51, 36
1, 103920, Tempo, 863309
1, 103960, Note_on_c, 0, 51, 0
1, 104000, Note_on_c, 0, 48, 36
1, 104120, Note_on_c, 0, 48, 0
1, 104160, Note_on_c, 0, 56, 40
1, 104280, Note_on_c, 0, 56, 0
1, 104320, Note_on_c, 0, 51, 36
1, 104440, Note_on_c, 0, 51, 0
1, 104480, Note_on_c, 0, 60, 36
1, 104600, Note_on_c, 0, 60, 0
1, 104640, Tempo, 857143
1, 104640, Note_on_c, 0, 68, 0
1, 104640, Note_on_c, 0, 60, 0
1, 104640, Note_on_c, 0, 56, 43
1, 104760, Note_on_c, 0, 56, 0
1, 104800, Note_on_c, 0, 63, 36
1, 104920, Note_on_c, 0, 63, 0
1, 104960, Note_on_c, 0, 61, 36
1, 105080, Note_on_c, 0, 61, 0
1, 105120, Note_on_c, 0, 60, 47
1, 105240, Note_on_c, 0, 60, 0
1, 105280, Note_on_c, 0, 58, 36
1, 105360, Tempo, 915891
1, 105400, Note_on_c, 0, 58, 0
1, 105440, Note_on_c, 0, 56, 36
1, 105560, Note_on_c, 0, 56, 0
1, 105600, Tempo, 869565
1, 105600, Note_on_c, 0, 63, 42
1, 105600, Note_on_c, 0, 70, 50
1, 105600, Note_on_c, 0, 55, 45
1, 105600, Control_c, 0, 64, 0
1, 105672, Control_c, 0, 64, 127
1, 105840, Note_on_c, 0, 51, 29
1, 106068, Note_on_c, 0, 51, 0
1, 106080, Note_on_c, 0, 70, 0
1, 106080, Note_on_c, 0, 51, 29
1, 106308, Note_on_c, 0, 51, 0
1, 106320, Tempo, 937500
1, 106320, Note_on_c, 0, 72, 50
1, 106320, Note_on_c, 0, 51, 29
1, 106380, Note_on_c, 0, 72, 0
1, 106380, Note_on_c, 0, 70, 46
1, 106440, Note_on_c, 0, 70, 0
1, 106440, Note_on_c, 0, 69, 46
1, 106500, Note_on_c, 0, 69, 0
1, 106500, Note_on_c, 0, 70, 46
1, 106548, Note_on_c, 0, 51, 0
1, 106560, Tempo, 863309
1, 106560, Note_on_c, 0, 63, 0
1, 106560, Note_on_c, 0, 55, 0
1, 106560, Note_on_c, 0, 70, 0
1, 106560, Note_on_c, 0, 63, 45
1, 106560, Note_on_c, 0, 73, 54
1, 106560, Note_on_c, 0, 68, 45
1, 106560, Note_on_c, 0, 56, 36
1, 106570, Control_c, 0, 64, 0
1, 106623, Control_c, 0, 64, 127
1, 106800, Note_on_c, 0, 51, 29
1, 107028, Note_on_c, 0, 51, 0
1, 107040, Note_on_c, 0, 51, 29
1, 107268, Note_on_c, 0, 51, 0
1, 107280, Note_on_c, 0, 73, 0
1, 107280, Note_on_c, 0, 72, 45
1, 107280, Note_on_c, 0, 51, 29
1, 107340, Tempo, 909091
1, 107508, Note_on_c, 0, 51, 0
1, 107520, Tempo, 857143
1, 107520, Note_on_c, 0, 63, 0
1, 107520, Note_on_c, 0, 56, 0
1, 107520, Note_on_c, 0, 68, 0
1, 107520, Note_on_c, 0, 72, 0
1, 107520, Note_on_c, 0, 67, 42
1, 107520, Note_on_c, 0, 70, 50
1, 107520, Note_on_c, 0, 39, 41
1, 107520, Control_c, 0, 64, 0
1, 107640, Note_on_c, 0, 39, 0
1, 107680, Note_on_c, 0, 43, 38
1, 107760, Tempo, 833333
1, 107800, Note_on_c, 0, 43, 0
1, 107840, Note_on_c, 0, 46, 38
1, 107960, Note_on_c, 0, 46, 0
1, 108000, Note_on_c, 0, 51, 48
1, 108120, Note_on_c, 0, 51, 0
1, 108160, Note_on_c, 0, 55, 48
1, 108280, Note_on_c, 0, 55, 0
1, 108320, Note_on_c, 0, 58, 51
1, 108440, Note_on_c, 0, 58, 0
1, 108480, Note_on_c, 0, 70, 0
1, 108480, Note_on_c, 0, 67, 0
1, 108480, Note_on_c, 0, 61, 55
1, 108600, Note_on_c, 0, 61, 0
1, 108640, Note_on_c, 0, 65, 49
1, 108760, Note_on_c, 0, 65, 0
1, 108800, Note_on_c, 0, 63, 49
1, 108920, Note_on_c, 0, 63, 0
1, 108960, Note_on_c, 0, 61, 53
1, 109080, Note_on_c, 0, 61, 0
1, 109120, Note_on_c, 0, 60, 44
1, 109200, Tempo, 869565
1, 109240, Note_on_c, 0, 60, 0
1, 109280, Note_on_c, 0, 58, 44
1, 109400, Note_on_c, 0, 58, 0
1, 109410, Note_on_c, 0, 63, 36
1, 109440, Tempo, 857143
1, 109440, Note_on_c, 0, 72, 63
1, 109440, Note_on_c, 0, 56, 39
1, 109440, Control_c, 0, 64, 0
1, 109476, Control_c, 0, 64, 127
1, 109500, Note_on_c, 0, 63, 0
1, 109560, Note_on_c, 0, 56, 0
1, 109600, Note_on_c, 0, 63, 42
1, 109720, Note_on_c, 0, 63, 0
1, 109760, Note_on_c, 0, 60, 37
1, 109880, Note_on_c, 0, 60, 0
1, 109920, Note_on_c, 0, 56, 42
1, 110040, Note_on_c, 0, 56, 0
1, 110080, Note_on_c, 0, 51, 32
1, 110200, Note_on_c, 0, 51, 0
1, 110220, Tempo, 902256
1, 110240, Note_on_c, 0, 48, 32
1, 110280, Note_on_c, 0, 72, 0
1, 110280, Note_on_c, 0, 68, 52
1, 110360, Note_on_c, 0, 48, 0
1, 110370, Note_on_c, 0, 63, 43
1, 110400, Tempo, 851064
1, 110400, Note_on_c, 0, 68, 0
1, 110400, Note_on_c, 0, 75, 64
1, 110415, Control_c, 0, 64, 0
1, 110450, Control_c, 0, 64, 127
1, 110460, Note_on_c, 0, 63, 0
1, 110560, Note_on_c, 0, 60, 36
1, 110680, Note_on_c, 0, 60, 0
1, 110720, Note_on_c, 0, 56, 36
1, 110840, Note_on_c, 0, 56, 0
1, 110880, Note_on_c, 0, 51, 47
1, 111000, Note_on_c, 0, 51, 0
1, 111040, Note_on_c, 0, 48, 38
1, 111120, Tempo, 909091
1, 111160, Note_on_c, 0, 48, 0
1, 111200, Note_on_c, 0, 44, 40
1, 111240, Note_on_c, 0, 75, 0
1, 111240, Note_on_c, 0, 72, 60
1, 111320, Note_on_c, 0, 44, 0
1, 111330, Note_on_c, 0, 72, 0
1, 111330, Note_on_c, 0, 65, 44
1, 111360, Tempo, 851064
1, 111360, Note_on_c, 0, 77, 70
1, 111366, Control_c, 0, 64, 0
1, 111438, Control_c, 0, 64, 127
1, 111520, Note_on_c, 0, 49, 32
1, 111600, Control_c, 0, 64, 0
1, 111680, Note_on_c, 0, 51, 36
1, 111840, Note_on_c, 0, 53, 36
1, 111848, Note_on_c, 0, 51, 0
1, 112000, Note_on_c, 0, 54, 41
1, 112008, Note_on_c, 0, 53, 0
1, 112140, Tempo, 909091
1, 112160, Note_on_c, 0, 55, 43
1, 112168, Note_on_c, 0, 54, 0
1, 112320, Tempo, 839161
1, 112320, Note_on_c, 0, 56, 46
1, 112328, Note_on_c, 0, 55, 0
1, 112480, Note_on_c, 0, 57, 48
1, 112488, Note_on_c, 0, 56, 0
1, 112640, Note_on_c, 0, 58, 49
1, 112648, Note_on_c, 0, 57, 0
1, 112800, Note_on_c, 0, 59, 52
1, 112808, Note_on_c, 0, 58, 0
1, 112960, Note_on_c, 0, 77, 0
1, 112960, Note_on_c, 0, 65, 0
1, 112960, Note_on_c, 0, 69, 59
1, 112960, Note_on_c, 0, 75, 70
1, 112960, Note_on_c, 0, 60, 54
1, 112968, Note_on_c, 0, 59, 0
1, 113040, Tempo, 909091
1, 113120, Note_on_c, 0, 75, 0
1, 113120, Note_on_c, 0, 69, 0
1, 113120, Note_on_c, 0, 70, 52
1, 113120, Note_on_c, 0, 73, 62
1, 113120, Note_on_c, 0, 61, 57
1, 113128, Note_on_c, 0, 60, 0
1, 113280, Tempo, 839161
1, 113280, Note_on_c, 0, 73, 0
1, 113280, Note_on_c, 0, 49, 0
1, 113280, Note_on_c, 0, 70, 0
1, 113280, Note_on_c, 0, 61, 0
1, 113280, Note_on_c, 0, 68, 59
1, 113280, Note_on_c, 0, 72, 70
1, 113280, Note_on_c, 0, 51, 56
1, 113280, Control_c, 0, 64, 127
1, 113440, Note_on_c, 0, 63, 56
1, 113600, Note_on_c, 0, 63, 0
1, 113600, Note_on_c, 0, 62, 45
1, 113760, Note_on_c, 0, 62, 0
1, 113760, Note_on_c, 0, 72, 0
1, 113760, Note_on_c, 0, 75, 63
1, 113768, Control_c, 0, 64, 0
1, 113897, Control_c, 0, 64, 127
1, 113920, Note_on_c, 0, 61, 46
1, 114000, Tempo, 869565
1, 114080, Note_on_c, 0, 61, 0
1, 114080, Note_on_c, 0, 60, 46
1, 114240, Tempo, 839161
1, 114240, Note_on_c, 0, 60, 0
1, 114240, Note_on_c, 0, 75, 0
1, 114240, Note_on_c, 0, 51, 0
1, 114240, Note_on_c, 0, 68, 0
1, 114240, Note_on_c, 0, 67, 59
1, 114240, Note_on_c, 0, 73, 70
1, 114240, Note_on_c, 0, 51, 32
1, 114249, Control_c, 0, 64, 0
1, 114400, Note_on_c, 0, 58, 51
1, 114400, Control_c, 0, 64, 127
1, 114560, Note_on_c, 0, 58, 0
1, 114560, Note_on_c, 0, 60, 44
1, 114720, Note_on_c, 0, 60, 0
1, 114720, Note_on_c, 0, 73, 0
1, 114720, Note_on_c, 0, 70, 60
1, 114734, Control_c, 0, 64, 0
1, 114835, Control_c, 0, 64, 127
1, 114880, Note_on_c, 0, 61, 44
1, 114960, Tempo, 1008403
1, 115040, Note_on_c, 0, 61, 0
1, 115040, Note_on_c, 0, 55, 44
1, 115200, Tempo, 952381
1, 115200, Note_on_c, 0, 55, 0
1, 115200, Note_on_c, 0, 70, 0
1, 115200, Note_on_c, 0, 51, 0
1, 115200, Note_on_c, 0, 67, 0
1, 115200, Note_on_c, 0, 61, 59
1, 115200, Note_on_c, 0, 70, 70
1, 115200, Note_on_c, 0, 44, 32
1, 115200, Note_on_c, 0, 55, 51
1, 115200, Control_c, 0, 64, 0
1, 115327, Control_c, 0, 64, 127
1, 115680, Tempo, 930233
1, 115698, Control_c, 0, 64, 0
1, 115800, Note_on_c, 0, 61, 0
1, 115800, Note_on_c, 0, 60, 37
1, 115860, Note_on_c, 0, 60, 0
1, 115860, Note_on_c, 0, 61, 34
1, 115920, Note_on_c, 0, 61, 0
1, 115920, Note_on_c, 0, 63, 38
1, 115980, Note_on_c, 0, 63, 0
1, 115980, Note_on_c, 0, 61, 34
1, 116040, Tempo, 1142857
1, 116040, Note_on_c, 0, 61, 0
1, 116040, Note_on_c, 0, 60, 34
1, 116100, Note_on_c, 0, 60, 0
1, 116100, Note_on_c, 0, 61, 34
1, 116160, Tempo, 944882
1, 116160, Note_on_c, 0, 61, 0
1, 116160, Note_on_c, 0, 70, 0
1, 116160, Note_on_c, 0, 55, 0
1, 116160, Note_on_c, 0, 60, 42
1, 116160, Note_on_c, 0, 68, 51
1, 116160, Note_on_c, 0, 56, 35
1, 116238, Control_c, 0, 64, 127
1, 116485, Control_c, 0, 64, 0
1, 116640, Note_on_c, 0, 56, 0
1, 116640, Note_on_c, 0, 44, 0
1, 116640, Note_on_c, 0, 60, 0
1, 116640, Note_on_c, 0, 68, 0
1, 117090, Note_on_c, 0, 77, 78
1, 117120, Tempo, 839161
1, 117120, Note_on_c, 0, 89, 91
1, 117120, Note_on_c, 0, 63, 76
1, 117120, Note_on_c, 0, 65, 76
1, 117120, Note_on_c, 0, 60, 76
1, 117120, Note_on_c, 0, 57, 76
1, 117175, Control_c, 0, 64, 127
1, 117180, Note_on_c, 0, 77, 0
1, 117840, Note_on_c, 0, 89, 0
1, 117840, Note_on_c, 0, 87, 65
1, 117874, Note_on_c, 0, 84, 63
1, 117875, Note_on_c, 0, 87, 0
1, 117909, Note_on_c, 0, 84, 0
1, 117909, Note_on_c, 0, 81, 62
1, 117943, Note_on_c, 0, 77, 61
1, 117943, Note_on_c, 0, 81, 0
1, 117977, Note_on_c, 0, 77, 0
1, 117977, Note_on_c, 0, 75, 59
1, 118011, Note_on_c, 0, 72, 57
1, 118012, Note_on_c, 0, 75, 0
1, 118045, Note_on_c, 0, 69, 56
1, 118046, Note_on_c, 0, 72, 0
1, 118078, Note_on_c, 0, 65, 0
1, 118080, Note_on_c, 0, 69, 0
1, 118080, Note_on_c, 0, 63, 0
1, 118080, Note_on_c, 0, 60, 0
1, 118080, Note_on_c, 0, 57, 0
1, 118080, Note_on_c, 0, 65, 78
1, 118080, Control_c, 0, 64, 0
1, 118320, Tempo, 916031
1, 118320, Note_on_c, 0, 65, 0
1, 118560, Tempo, 833333
1, 118920, Note_on_c, 0, 60, 45
1, 118920, Note_on_c, 0, 63, 54
1, 118920, Note_on_c, 0, 45, 30
1, 118920, Note_on_c, 0, 53, 36
1, 119030, Note_on_c, 0, 53, 0
1, 119030, Note_on_c, 0, 60, 0
1, 119030, Note_on_c, 0, 63, 0
1, 119030, Note_on_c, 0, 45, 0
1, 119040, Tempo, 882353
1, 119040, Note_on_c, 0, 60, 48
1, 119040, Note_on_c, 0, 63, 57
1, 119040, Note_on_c, 0, 46, 35
1, 119040, Note_on_c, 0, 53, 41
1, 119280, Control_c, 0, 64, 127
1, 120000, Note_on_c, 0, 63, 0
1, 120000, Note_on_c, 0, 60, 0
1, 120000, Note_on_c, 0, 58, 38
1, 120000, Note_on_c, 0, 61, 45
1, 120014, Control_c, 0, 64, 0
1, 120480, Note_on_c, 0, 61, 0
1, 120480, Note_on_c, 0, 53, 0
1, 120480, Note_on_c, 0, 46, 0
1, 120480, Note_on_c, 0, 58, 0
1, 120930, Note_on_c, 0, 75, 78
1, 120960, Tempo, 845070
1, 120960, Note_on_c, 0, 87, 91
1, 120960, Note_on_c, 0, 61, 76
1, 120960, Note_on_c, 0, 63, 76
1, 120960, Note_on_c, 0, 58, 76
1, 120960, Note_on_c, 0, 55, 76
1, 120996, Control_c, 0, 64, 127
1, 121020, Note_on_c, 0, 75, 0
1, 121680, Note_on_c, 0, 87, 0
1, 121680, Note_on_c, 0, 85, 65
1, 121714, Note_on_c, 0, 82, 63
1, 121715, Note_on_c, 0, 85, 0
1, 121749, Note_on_c, 0, 82, 0
1, 121749, Note_on_c, 0, 79, 62
1, 121783, Note_on_c, 0, 75, 61
1, 121783, Note_on_c, 0, 79, 0
1, 121817, Note_on_c, 0, 75, 0
1, 121817, Note_on_c, 0, 73, 59
1, 121851, Note_on_c, 0, 70, 57
1, 121852, Note_on_c, 0, 73, 0
1, 121885, Note_on_c, 0, 67, 56
1, 121886, Note_on_c, 0, 70, 0
1, 121918, Note_on_c, 0, 63, 0
1, 121920, Note_on_c, 0, 67, 0
1, 121920, Note_on_c, 0, 61, 0
1, 121920, Note_on_c, 0, 58, 0
1, 121920, Note_on_c, 0, 55, 0
1, 121920, Note_on_c, 0, 63, 78
1, 121935, Control_c, 0, 64, 0
1, 122160, Tempo, 960000
1, 122160, Note_on_c, 0, 63, 0
1, 122400, Tempo, 851064
1, 122760, Note_on_c, 0, 58, 45
1, 122760, Note_on_c, 0, 61, 54
1, 122760, Note_on_c, 0, 43, 30
1, 122760, Note_on_c, 0, 51, 36
1, 122870, Note_on_c, 0, 51, 0
1, 122870, Note_on_c, 0, 58, 0
1, 122870, Note_on_c, 0, 61, 0
1, 122870, Note_on_c, 0, 43, 0
1, 122880, Note_on_c, 0, 58, 48
1, 122880, Note_on_c, 0, 61, 57
1, 122880, Note_on_c, 0, 44, 35
1, 122880, Note_on_c, 0, 51, 41
1, 122960, Control_c, 0, 64, 127
1, 123840, Note_on_c, 0, 61, 0
1, 123840, Note_on_c, 0, 58, 0
1, 123840, Note_on_c, 0, 56, 38
1, 123840, Note_on_c, 0, 59, 45
1, 123854, Control_c, 0, 64, 0
1, 124320, Note_on_c, 0, 59, 0
1, 124320, Note_on_c, 0, 51, 0
1, 124320, Note_on_c, 0, 44, 0
1, 124320, Note_on_c, 0, 56, 0
1, 124770, Note_on_c, 0, 47, 89
1, 124800, Tempo, 857143
1, 124800, Note_on_c, 0, 59, 92
1, 124835, Control_c, 0, 64, 127
1, 124860, Note_on_c, 0, 47, 0
1, 125280, Tempo, 827586
1, 125520, Note_on_c, 0, 59, 0
1, 125520, Note_on_c, 0, 59, 59
1, 125560, Note_on_c, 0, 59, 0
1, 125560, Note_on_c, 0, 56, 57
1, 125600, Note_on_c, 0, 56, 0
1, 125600, Note_on_c, 0, 52, 56
1, 125640, Note_on_c, 0, 52, 0
1, 125640, Note_on_c, 0, 47, 56
1, 125680, Note_on_c, 0, 47, 0
1, 125681, Note_on_c, 0, 44, 55
1, 125720, Note_on_c, 0, 40, 53
1, 125721, Note_on_c, 0, 44, 0
1, 125760, Tempo, 857143
1, 125760, Note_on_c, 0, 40, 0
1, 125760, Note_on_c, 0, 35, 91
1, 125774, Control_c, 0, 64, 0
1, 126000, Note_on_c, 0, 35, 0
1, 126480, Tempo, 821918
1, 126600, Note_on_c, 0, 56, 69
1, 126600, Note_on_c, 0, 52, 69
1, 126600, Note_on_c, 0, 64, 69
1, 126600, Note_on_c, 0, 35, 46
1, 126600, Note_on_c, 0, 47, 46
1, 126710, Note_on_c, 0, 47, 0
1, 126710, Note_on_c, 0, 64, 0
1, 126710, Note_on_c, 0, 56, 0
1, 126710, Note_on_c, 0, 52, 0
1, 126710, Note_on_c, 0, 35, 0
1, 126720, Tempo, 857143
1, 126720, Note_on_c, 0, 54, 73
1, 126720, Note_on_c, 0, 57, 73
1, 126720, Note_on_c, 0, 64, 73
1, 126720, Note_on_c, 0, 35, 70
1, 126720, Note_on_c, 0, 47, 52
1, 126800, Control_c, 0, 64, 127
1, 127680, Note_on_c, 0, 64, 0
1, 127680, Note_on_c, 0, 63, 61
1, 127694, Control_c, 0, 64, 0
1, 128160, Note_on_c, 0, 63, 0
1, 128160, Note_on_c, 0, 47, 0
1, 128160, Note_on_c, 0, 54, 0
1, 128160, Note_on_c, 0, 57, 0
1, 128160, Note_on_c, 0, 35, 0
1, 128400, Tempo, 833333
1, 128520, Note_on_c, 0, 56, 69
1, 128520, Note_on_c, 0, 53, 69
1, 128520, Note_on_c, 0, 63, 69
1, 128520, Note_on_c, 0, 35, 46
1, 128520, Note_on_c, 0, 47, 46
1, 128630, Note_on_c, 0, 47, 0
1, 128630, Note_on_c, 0, 63, 0
1, 128630, Note_on_c, 0, 56, 0
1, 128630, Note_on_c, 0, 53, 0
1, 128630, Note_on_c, 0, 35, 0
1, 128640, Tempo, 857143
1, 128640, Note_on_c, 0, 53, 73
1, 128640, Note_on_c, 0, 56, 73
1, 128640, Note_on_c, 0, 63, 73
1, 128640, Note_on_c, 0, 35, 70
1, 128640, Note_on_c, 0, 47, 52
1, 128720, Control_c, 0, 64, 127
1, 129600, Note_on_c, 0, 47, 0
1, 129600, Note_on_c, 0, 63, 0
1, 129600, Note_on_c, 0, 35, 0
1, 129600, Note_on_c, 0, 62, 61
1, 129600, Note_on_c, 0, 34, 43
1, 129600, Note_on_c, 0, 46, 46
1, 129614, Control_c, 0, 64, 0
1, 130080, Note_on_c, 0, 46, 0
1, 130080, Note_on_c, 0, 62, 0
1, 130080, Note_on_c, 0, 53, 0
1, 130080, Note_on_c, 0, 56, 0
1, 130080, Note_on_c, 0, 34, 0
1, 130320, Tempo, 833333
1, 130440, Note_on_c, 0, 56, 69
1, 130440, Note_on_c, 0, 53, 69
1, 130440, Note_on_c, 0, 62, 69
1, 130440, Note_on_c, 0, 34, 46
1, 130440, Note_on_c, 0, 46, 46
1, 130550, Note_on_c, 0, 46, 0
1, 130550, Note_on_c, 0, 62, 0
1, 130550, Note_on_c, 0, 56, 0
1, 130550, Note_on_c, 0, 53, 0
1, 130550, Note_on_c, 0, 34, 0
1, 130560, Tempo, 857143
1, 130560, Note_on_c, 0, 53, 73
1, 130560, Note_on_c, 0, 56, 73
1, 130560, Note_on_c, 0, 62, 73
1, 130560, Note_on_c, 0, 34, 70
1, 130560, Note_on_c, 0, 46, 52
1, 130640, Control_c, 0, 64, 127
1, 131520, Note_on_c, 0, 46, 0
1, 131520, Note_on_c, 0, 62, 0
1, 131520, Note_on_c, 0, 34, 0
1, 131520, Note_on_c, 0, 56, 0
1, 131520, Note_on_c, 0, 58, 54
1, 131520, Note_on_c, 0, 61, 61
1, 131520, Note_on_c, 0, 39, 43
1, 131520, Note_on_c, 0, 51, 46
1, 131534, Control_c, 0, 64, 0
1, 131760, Tempo, 839161
1, 131760, Note_on_c, 0, 51, 0
1, 131760, Note_on_c, 0, 61, 0
1, 131760, Note_on_c, 0, 39, 0
1, 131760, Note_on_c, 0, 58, 0
1, 131760, Note_on_c, 0, 69, 46
1, 132000, Note_on_c, 0, 53, 0
1, 132000, Note_on_c, 0, 70, 54
1, 132012, Note_on_c, 0, 69, 0
1, 132216, Note_on_c, 0, 70, 0
1, 132240, Note_on_c, 0, 72, 46
1, 132480, Note_on_c, 0, 73, 54
1, 132492, Note_on_c, 0, 72, 0
1, 132696, Note_on_c, 0, 73, 0
1, 132720, Note_on_c, 0, 78, 50
1, 132960, Note_on_c, 0, 78, 0
1, 132960, Note_on_c, 0, 79, 60
1, 133176, Note_on_c, 0, 79, 0
1, 133200, Note_on_c, 0, 81, 50
1, 133440, Note_on_c, 0, 82, 60
1, 133452, Note_on_c, 0, 81, 0
1, 133656, Note_on_c, 0, 82, 0
1, 133680, Note_on_c, 0, 84, 50
1, 133920, Note_on_c, 0, 85, 60
1, 133932, Note_on_c, 0, 84, 0
1, 134160, Tempo, 895522
1, 134160, Note_on_c, 0, 85, 0
1, 134160, Note_on_c, 0, 82, 50
1, 134400, Tempo, 851064
1, 134400, Note_on_c, 0, 82, 0
1, 134400, Note_on_c, 0, 79, 60
1, 134400, Note_on_c, 0, 63, 35
1, 134400, Note_on_c, 0, 61, 29
1, 134411, Control_c, 0, 64, 127
1, 134856, Note_on_c, 0, 61, 0
1, 134856, Note_on_c, 0, 63, 0
1, 134880, Note_on_c, 0, 63, 30
1, 134880, Note_on_c, 0, 61, 25
1, 135336, Note_on_c, 0, 61, 0
1, 135336, Note_on_c, 0, 63, 0
1, 135360, Note_on_c, 0, 63, 30
1, 135360, Note_on_c, 0, 61, 25
1, 135600, Note_on_c, 0, 79, 0
1, 135600, Note_on_c, 0, 80, 55
1, 135660, Note_on_c, 0, 80, 0
1, 135660, Note_on_c, 0, 79, 55
1, 135720, Note_on_c, 0, 79, 0
1, 135720, Note_on_c, 0, 77, 55
1, 135780, Note_on_c, 0, 77, 0
1, 135780, Note_on_c, 0, 79, 55
1, 135816, Note_on_c, 0, 61, 0
1, 135816, Note_on_c, 0, 63, 0
1, 135840, Tempo, 833333
1, 135840, Note_on_c, 0, 79, 0
1, 135840, Note_on_c, 0, 80, 60
1, 135840, Note_on_c, 0, 63, 30
1, 135840, Note_on_c, 0, 61, 25
1, 135848, Control_c, 0, 64, 0
1, 135893, Control_c, 0, 64, 127
1, 136140, Tempo, 930233
1, 136200, Note_on_c, 0, 80, 0
1, 136200, Note_on_c, 0, 82, 60
1, 136296, Note_on_c, 0, 61, 0
1, 136296, Note_on_c, 0, 63, 0
1, 136320, Tempo, 863309
1, 136320, Note_on_c, 0, 82, 0
1, 136320, Note_on_c, 0, 82, 60
1, 136320, Note_on_c, 0, 63, 35
1, 136320, Note_on_c, 0, 60, 29
1, 136320, Control_c, 0, 64, 0
1, 136595, Control_c, 0, 64, 127
1, 136776, Note_on_c, 0, 60, 0
1, 136776, Note_on_c, 0, 63, 0
1, 136800, Note_on_c, 0, 82, 0
1, 136800, Note_on_c, 0, 80, 60
1, 136800, Note_on_c, 0, 63, 28
1, 136800, Note_on_c, 0, 60, 23
1, 136815, Control_c, 0, 64, 0
1, 137052, Control_c, 0, 64, 127
1, 137256, Note_on_c, 0, 60, 0
1, 137256, Note_on_c, 0, 63, 0
1, 137280, Note_on_c, 0, 63, 28
1, 137280, Note_on_c, 0, 60, 23
1, 137736, Note_on_c, 0, 60, 0
1, 137736, Note_on_c, 0, 63, 0
1, 137760, Note_on_c, 0, 80, 0
1, 137760, Note_on_c, 0, 81, 60
1, 137760, Note_on_c, 0, 63, 28
1, 137760, Note_on_c, 0, 60, 23
1, 137764, Control_c, 0, 64, 0
1, 137989, Control_c, 0, 64, 127
1, 138216, Note_on_c, 0, 60, 0
1, 138216, Note_on_c, 0, 63, 0
1, 138240, Note_on_c, 0, 81, 0
1, 138240, Note_on_c, 0, 82, 60
1, 138240, Note_on_c, 0, 55, 29
1, 138240, Note_on_c, 0, 63, 35
1, 138240, Note_on_c, 0, 61, 29
1, 138240, Control_c, 0, 64, 0
1, 138304, Control_c, 0, 64, 127
1, 138696, Note_on_c, 0, 61, 0
1, 138696, Note_on_c, 0, 63, 0
1, 138696, Note_on_c, 0, 55, 0
1, 138720, Note_on_c, 0, 55, 25
1, 138720, Note_on_c, 0, 63, 30
1, 138720, Note_on_c, 0, 61, 25
1, 139176, Note_on_c, 0, 61, 0
1, 139176, Note_on_c, 0, 63, 0
1, 139176, Note_on_c, 0, 55, 0
1, 139200, Note_on_c, 0, 55, 25
1, 139200, Note_on_c, 0, 63, 30
1, 139200, Note_on_c, 0, 61, 25
1, 139440, Note_on_c, 0, 82, 0
1, 139440, Note_on_c, 0, 84, 55
1, 139500, Note_on_c, 0, 84, 0
1, 139500, Note_on_c, 0, 82, 55
1, 139560, Note_on_c, 0, 82, 0
1, 139560, Note_on_c, 0, 81, 55
1, 139620, Note_on_c, 0, 81, 0
1, 139620, Note_on_c, 0, 82, 55
1, 139656, Note_on_c, 0, 61, 0
1, 139656, Note_on_c, 0, 55, 0
1, 139656, Note_on_c, 0, 63, 0
1, 139680, Tempo, 833333
1, 139680, Note_on_c, 0, 82, 0
1, 139680, Note_on_c, 0, 84, 60
1, 139680, Note_on_c, 0, 55, 25
1, 139680, Note_on_c, 0, 63, 30
1, 139680, Note_on_c, 0, 60, 25
1, 139685, Control_c, 0, 64, 0
1, 139726, Control_c, 0, 64, 127
1, 140040, Tempo, 930233
1, 140040, Note_on_c, 0, 60, 0
1, 140040, Note_on_c, 0, 84, 0
1, 140040, Note_on_c, 0, 85, 60
1, 140040, Note_on_c, 0, 58, 25
1, 140160, Tempo, 857143
1, 140160, Note_on_c, 0, 58, 0
1, 140160, Note_on_c, 0, 55, 0
1, 140160, Note_on_c, 0, 63, 0
1, 140160, Note_on_c, 0, 85, 0
1, 140160, Note_on_c, 0, 85, 60
1, 140160, Note_on_c, 0, 56, 29
1, 140160, Note_on_c, 0, 63, 35
1, 140160, Note_on_c, 0, 59, 29
1, 140160, Control_c, 0, 64, 0
1, 140326, Control_c, 0, 64, 127
1, 140616, Note_on_c, 0, 59, 0
1, 140616, Note_on_c, 0, 63, 0
1, 140616, Note_on_c, 0, 56, 0
1, 140640, Note_on_c, 0, 85, 0
1, 140640, Note_on_c, 0, 84, 60
1, 140640, Note_on_c, 0, 56, 23
1, 140640, Note_on_c, 0, 63, 28
1, 140640, Note_on_c, 0, 60, 23
1, 140657, Control_c, 0, 64, 0
1, 140889, Control_c, 0, 64, 127
1, 141096, Note_on_c, 0, 60, 0
1, 141096, Note_on_c, 0, 63, 0
1, 141096, Note_on_c, 0, 56, 0
1, 141120, Tempo, 845070
1, 141120, Note_on_c, 0, 84, 0
1, 141120, Note_on_c, 0, 56, 23
1, 141120, Note_on_c, 0, 63, 28
1, 141120, Note_on_c, 0, 60, 23
1, 141576, Note_on_c, 0, 60, 0
1, 141576, Note_on_c, 0, 63, 0
1, 141576, Note_on_c, 0, 56, 0
1, 141600, Note_on_c, 0, 56, 28
1, 141600, Note_on_c, 0, 63, 28
1, 141600, Note_on_c, 0, 60, 23
1, 141840, Tempo, 882353
1, 142056, Note_on_c, 0, 60, 0
1, 142056, Note_on_c, 0, 63, 0
1, 142056, Note_on_c, 0, 56, 0
1, 142077, Tempo, 1016949
1, 142080, Note_on_c, 0, 61, 25
1, 142080, Note_on_c, 0, 63, 30
1, 142080, Control_c, 0, 64, 0
1, 142115, Tempo, 1008403
1, 142120, Note_on_c, 0, 67, 30
1, 142126, Control_c, 0, 64, 127
1, 142134, Tempo, 1000000
1, 142154, Tempo, 991736
1, 142160, Note_on_c, 0, 67, 0
1, 142161, Note_on_c, 0, 68, 30
1, 142192, Tempo, 983607
1, 142201, Note_on_c, 0, 68, 0
1, 142201, Note_on_c, 0, 70, 41
1, 142211, Tempo, 975610
1, 142230, Tempo, 967742
1, 142241, Note_on_c, 0, 70, 0
1, 142241, Note_on_c, 0, 68, 33
1, 142250, Tempo, 960000
1, 142281, Note_on_c, 0, 68, 0
1, 142281, Note_on_c, 0, 67, 33
1, 142288, Tempo, 952381
1, 142307, Tempo, 944882
1, 142321, Note_on_c, 0, 67, 0
1, 142321, Note_on_c, 0, 73, 42
1, 142326, Tempo, 937500
1, 142346, Tempo, 930233
1, 142361, Note_on_c, 0, 73, 0
1, 142361, Note_on_c, 0, 72, 36
1, 142384, Tempo, 923077
1, 142401, Note_on_c, 0, 72, 0
1, 142401, Note_on_c, 0, 70, 39
1, 142403, Tempo, 916031
1, 142422, Tempo, 909091
1, 142441, Note_on_c, 0, 70, 0
1, 142442, Tempo, 902256
1, 142442, Note_on_c, 0, 79, 51
1, 142480, Tempo, 895522
1, 142482, Note_on_c, 0, 79, 0
1, 142482, Note_on_c, 0, 77, 39
1, 142499, Tempo, 888889
1, 142518, Tempo, 882353
1, 142522, Note_on_c, 0, 77, 0
1, 142522, Note_on_c, 0, 75, 42
1, 142536, Note_on_c, 0, 63, 0
1, 142536, Note_on_c, 0, 61, 0
1, 142538, Tempo, 875912
1, 142560, Note_on_c, 0, 82, 57
1, 142560, Note_on_c, 0, 61, 25
1, 142560, Note_on_c, 0, 63, 30
1, 142562, Note_on_c, 0, 75, 0
1, 142564, Control_c, 0, 64, 0
1, 142576, Tempo, 869565
1, 142595, Tempo, 863309
1, 142600, Note_on_c, 0, 82, 0
1, 142600, Note_on_c, 0, 80, 46
1, 142614, Tempo, 857143
1, 142614, Control_c, 0, 64, 127
1, 142634, Tempo, 851064
1, 142640, Note_on_c, 0, 80, 0
1, 142640, Note_on_c, 0, 79, 49
1, 142680, Tempo, 960000
1, 142680, Note_on_c, 0, 79, 0
1, 142680, Note_on_c, 0, 85, 59
1, 142720, Note_on_c, 0, 85, 0
1, 142720, Note_on_c, 0, 84, 50
1, 142740, Tempo, 1481481
1, 142760, Note_on_c, 0, 84, 0
1, 142760, Note_on_c, 0, 82, 55
1, 142800, Tempo, 851064
1, 142800, Note_on_c, 0, 82, 0
1, 142800, Note_on_c, 0, 89, 69
1, 142805, Control_c, 0, 64, 0
1, 142846, Control_c, 0, 64, 127
1, 143016, Note_on_c, 0, 61, 0
1, 143016, Note_on_c, 0, 63, 0
1, 143040, Note_on_c, 0, 61, 25
1, 143040, Note_on_c, 0, 63, 30
1, 143496, Note_on_c, 0, 63, 0
1, 143496, Note_on_c, 0, 61, 0
1, 143517, Tempo, 845070
1, 143520, Note_on_c, 0, 61, 25
1, 143520, Note_on_c, 0, 63, 30
1, 143747, Tempo, 952381
1, 143760, Note_on_c, 0, 89, 0
1, 143760, Note_on_c, 0, 89, 54
1, 143794, Note_on_c, 0, 89, 0
1, 143794, Note_on_c, 0, 87, 53
1, 143828, Note_on_c, 0, 87, 0
1, 143829, Note_on_c, 0, 85, 52
1, 143863, Note_on_c, 0, 85, 0
1, 143863, Note_on_c, 0, 84, 52
1, 143897, Note_on_c, 0, 84, 0
1, 143897, Note_on_c, 0, 82, 51
1, 143931, Note_on_c, 0, 82, 0
1, 143931, Note_on_c, 0, 80, 50
1, 143965, Note_on_c, 0, 80, 0
1, 143965, Note_on_c, 0, 79, 49
1, 143976, Note_on_c, 0, 63, 0
1, 143976, Note_on_c, 0, 61, 0
1, 143999, Note_on_c, 0, 79, 0
1, 144000, Tempo, 869565
1, 144000, Note_on_c, 0, 82, 56
1, 144000, Control_c, 0, 64, 0
1, 144060, Control_c, 0, 64, 127
1, 144360, Note_on_c, 0, 82, 0
1, 144360, Note_on_c, 0, 80, 44
1, 144480, Note_on_c, 0, 80, 0
1, 144480, Note_on_c, 0, 79, 47
1, 144480, Note_on_c, 0, 60, 25
1, 144480, Note_on_c, 0, 63, 30
1, 144489, Control_c, 0, 64, 0
1, 144561, Control_c, 0, 64, 127
1, 144660, Note_on_c, 0, 79, 0
1, 144660, Note_on_c, 0, 80, 44
1, 144720, Note_on_c, 0, 80, 0
1, 144720, Note_on_c, 0, 82, 51
1, 144738, Control_c, 0, 64, 0
1, 144777, Control_c, 0, 64, 127
1, 144840, Tempo, 983607
1, 144900, Note_on_c, 0, 82, 0
1, 144900, Note_on_c, 0, 80, 45
1, 144936, Note_on_c, 0, 63, 0
1, 144936, Note_on_c, 0, 60, 0
1, 144960, Tempo, 863309
1, 144960, Note_on_c, 0, 80, 0
1, 144960, Note_on_c, 0, 68, 57
1, 144960, Note_on_c, 0, 60, 25
1, 144960, Note_on_c, 0, 63, 30
1, 144967, Control_c, 0, 64, 0
1, 145020, Control_c, 0, 64, 127
1, 145416, Note_on_c, 0, 63, 0
1, 145416, Note_on_c, 0, 60, 0
1, 145440, Note_on_c, 0, 68, 0
1, 145440, Note_on_c, 0, 60, 25
1, 145440, Note_on_c, 0, 63, 30
1, 145896, Note_on_c, 0, 63, 0
1, 145896, Note_on_c, 0, 60, 0
1, 145920, Tempo, 1016949
1, 145920, Note_on_c, 0, 55, 25
1, 145920, Note_on_c, 0, 61, 25
1, 145920, Note_on_c, 0, 63, 30
1, 145920, Control_c, 0, 64, 0
1, 145920, Control_c, 0, 64, 0
1, 145955, Tempo, 1008403
1, 145960, Note_on_c, 0, 70, 30
1, 145966, Control_c, 0, 64, 127
1, 145974, Tempo, 1000000
1, 145994, Tempo, 991736
1, 146000, Note_on_c, 0, 70, 0
1, 146001, Note_on_c, 0, 72, 30
1, 146032, Tempo, 983607
1, 146041, Note_on_c, 0, 72, 0
1, 146041, Note_on_c, 0, 73, 41
1, 146051, Tempo, 975610
1, 146070, Tempo, 967742
1, 146081, Note_on_c, 0, 73, 0
1, 146081, Note_on_c, 0, 72, 33
1, 146090, Tempo, 960000
1, 146121, Note_on_c, 0, 72, 0
1, 146121, Note_on_c, 0, 70, 33
1, 146128, Tempo, 952381
1, 146147, Tempo, 944882
1, 146161, Note_on_c, 0, 70, 0
1, 146161, Note_on_c, 0, 79, 47
1, 146166, Tempo, 937500
1, 146186, Tempo, 930233
1, 146201, Note_on_c, 0, 79, 0
1, 146201, Note_on_c, 0, 77, 38
1, 146224, Tempo, 923077
1, 146241, Note_on_c, 0, 77, 0
1, 146241, Note_on_c, 0, 75, 39
1, 146243, Tempo, 916031
1, 146262, Tempo, 909091
1, 146281, Note_on_c, 0, 75, 0
1, 146282, Tempo, 902256
1, 146282, Note_on_c, 0, 82, 51
1, 146322, Note_on_c, 0, 82, 0
1, 146322, Note_on_c, 0, 80, 46
1, 146340, Tempo, 1250000
1, 146362, Note_on_c, 0, 80, 0
1, 146362, Note_on_c, 0, 79, 48
1, 146376, Note_on_c, 0, 63, 0
1, 146376, Note_on_c, 0, 55, 0
1, 146376, Note_on_c, 0, 61, 0
1, 146400, Note_on_c, 0, 85, 69
1, 146400, Note_on_c, 0, 55, 25
1, 146400, Note_on_c, 0, 58, 25
1, 146400, Note_on_c, 0, 61, 25
1, 146400, Note_on_c, 0, 63, 30
1, 146402, Note_on_c, 0, 79, 0
1, 146404, Control_c, 0, 64, 0
1, 146435, Tempo, 863309
1, 146454, Tempo, 857143
1, 146454, Control_c, 0, 64, 127
1, 146460, Tempo, 845070
1, 146474, Tempo, 851064
1, 146640, Tempo, 845070
1, 146645, Control_c, 0, 64, 0
1, 146686, Control_c, 0, 64, 127
1, 146856, Note_on_c, 0, 55, 0
1, 146856, Note_on_c, 0, 58, 0
1, 146856, Note_on_c, 0, 61, 0
1, 146856, Note_on_c, 0, 63, 0
1, 146880, Note_on_c, 0, 55, 25
1, 146880, Note_on_c, 0, 58, 25
1, 146880, Note_on_c, 0, 61, 25
1, 146880, Note_on_c, 0, 63, 30
1, 147336, Note_on_c, 0, 63, 0
1, 147336, Note_on_c, 0, 58, 0
1, 147336, Note_on_c, 0, 61, 0
1, 147336, Note_on_c, 0, 55, 0
1, 147357, Tempo, 845070
1, 147360, Tempo, 875912
1, 147360, Note_on_c, 0, 55, 25
1, 147360, Note_on_c, 0, 58, 25
1, 147360, Note_on_c, 0, 61, 25
1, 147360, Note_on_c, 0, 63, 30
1, 147587, Tempo, 952381
1, 147600, Tempo, 1188119
1, 147600, Note_on_c, 0, 85, 0
1, 147600, Note_on_c, 0, 84, 50
1, 147622, Note_on_c, 0, 84, 0
1, 147622, Note_on_c, 0, 85, 52
1, 147644, Note_on_c, 0, 85, 0
1, 147644, Note_on_c, 0, 87, 55
1, 147666, Note_on_c, 0, 85, 58
1, 147666, Note_on_c, 0, 87, 0
1, 147688, Note_on_c, 0, 85, 0
1, 147688, Note_on_c, 0, 84, 58
1, 147710, Note_on_c, 0, 84, 0
1, 147710, Note_on_c, 0, 82, 57
1, 147732, Note_on_c, 0, 82, 0
1, 147732, Note_on_c, 0, 80, 56
1, 147754, Note_on_c, 0, 80, 0
1, 147754, Note_on_c, 0, 79, 55
1, 147775, Note_on_c, 0, 77, 54
1, 147776, Note_on_c, 0, 79, 0
1, 147797, Note_on_c, 0, 77, 0
1, 147797, Note_on_c, 0, 75, 53
1, 147816, Note_on_c, 0, 63, 0
1, 147816, Note_on_c, 0, 61, 0
1, 147816, Note_on_c, 0, 55, 0
1, 147816, Note_on_c, 0, 58, 0
1, 147819, Note_on_c, 0, 75, 0
1, 147819, Note_on_c, 0, 73, 52
1, 147840, Tempo, 839161
1, 147840, Note_on_c, 0, 72, 62
1, 147840, Control_c, 0, 64, 0
1, 147841, Note_on_c, 0, 73, 0
1, 148320, Tempo, 875912
1, 148320, Note_on_c, 0, 56, 30
1, 148320, Note_on_c, 0, 60, 30
1, 148320, Note_on_c, 0, 63, 30
1, 148560, Note_on_c, 0, 72, 0
1, 148680, Note_on_c, 0, 72, 64
1, 148800, Tempo, 839161
1, 148800, Note_on_c, 0, 72, 0
1, 148800, Note_on_c, 0, 63, 0
1, 148800, Note_on_c, 0, 60, 0
1, 148800, Note_on_c, 0, 56, 0
1, 148800, Note_on_c, 0, 73, 71
1, 149280, Tempo, 882353
1, 149280, Note_on_c, 0, 58, 32
1, 149280, Note_on_c, 0, 61, 32
1, 149280, Note_on_c, 0, 63, 32
1, 149280, Note_on_c, 0, 67, 32
1, 149520, Note_on_c, 0, 73, 0
1, 149640, Note_on_c, 0, 73, 71
1, 149760, Tempo, 827586
1, 149760, Note_on_c, 0, 73, 0
1, 149760, Note_on_c, 0, 67, 0
1, 149760, Note_on_c, 0, 58, 0
1, 149760, Note_on_c, 0, 61, 0
1, 149760, Note_on_c, 0, 63, 0
1, 149760, Note_on_c, 0, 75, 81
1, 149760, Control_c, 0, 64, 0
1, 150240, Tempo, 882353
1, 150240, Note_on_c, 0, 60, 37
1, 150240, Note_on_c, 0, 63, 37
1, 150240, Note_on_c, 0, 68, 37
1, 150480, Note_on_c, 0, 75, 0
1, 150600, Note_on_c, 0, 75, 78
1, 150720, Tempo, 827586
1, 150720, Note_on_c, 0, 75, 0
1, 150720, Note_on_c, 0, 68, 0
1, 150720, Note_on_c, 0, 63, 0
1, 150720, Note_on_c, 0, 60, 0
1, 150720, Note_on_c, 0, 76, 89
1, 151200, Tempo, 882353
1, 151200, Note_on_c, 0, 60, 43
1, 151200, Note_on_c, 0, 64, 43
1, 151200, Note_on_c, 0, 68, 43
1, 151440, Note_on_c, 0, 76, 0
1, 151560, Note_on_c, 0, 76, 84
1, 151680, Tempo, 816327
1, 151680, Note_on_c, 0, 76, 0
1, 151680, Note_on_c, 0, 68, 0
1, 151680, Note_on_c, 0, 64, 0
1, 151680, Note_on_c, 0, 60, 0
1, 151680, Note_on_c, 0, 77, 92
1, 151680, Control_c, 0, 64, 0
1, 152160, Tempo, 863309
1, 152160, Note_on_c, 0, 61, 51
1, 152160, Note_on_c, 0, 65, 51
1, 152160, Note_on_c, 0, 68, 51
1, 152400, Note_on_c, 0, 77, 0
1, 152520, Note_on_c, 0, 77, 88
1, 152640, Tempo, 839161
1, 152640, Note_on_c, 0, 77, 0
1, 152640, Note_on_c, 0, 68, 0
1, 152640, Note_on_c, 0, 65, 0
1, 152640, Note_on_c, 0, 61, 0
1, 152640, Note_on_c, 0, 79, 94
1, 153120, Tempo, 944882
1, 153120, Note_on_c, 0, 64, 60
1, 153120, Note_on_c, 0, 61, 60
1, 153120, Note_on_c, 0, 67, 60
1, 153120, Note_on_c, 0, 70, 60
1, 153360, Note_on_c, 0, 79, 0
1, 153480, Note_on_c, 0, 79, 93
1, 153600, Tempo, 851064
1, 153600, Note_on_c, 0, 79, 0
1, 153600, Note_on_c, 0, 70, 0
1, 153600, Note_on_c, 0, 64, 0
1, 153600, Note_on_c, 0, 61, 0
1, 153600, Note_on_c, 0, 67, 0
1, 153600, Note_on_c, 0, 80, 100
1, 154080, Note_on_c, 0, 62, 60
1, 154080, Note_on_c, 0, 65, 60
1, 154080, Note_on_c, 0, 68, 60
1, 154080, Note_on_c, 0, 71, 60
1, 154320, Tempo, 944882
1, 154320, Note_on_c, 0, 80, 0
1, 154440, Note_on_c, 0, 82, 86
1, 154470, Note_on_c, 0, 82, 0
1, 154470, Note_on_c, 0, 80, 89
1, 154500, Note_on_c, 0, 80, 0
1, 154500, Note_on_c, 0, 79, 91
1, 154530, Note_on_c, 0, 79, 0
1, 154530, Note_on_c, 0, 80, 93
1, 154560, Tempo, 839161
1, 154560, Note_on_c, 0, 80, 0
1, 154560, Note_on_c, 0, 68, 0
1, 154560, Note_on_c, 0, 62, 0
1, 154560, Note_on_c, 0, 65, 0
1, 154560, Note_on_c, 0, 71, 0
1, 154560, Note_on_c, 0, 82, 95
1, 154800, Note_on_c, 0, 82, 0
1, 154800, Note_on_c, 0, 80, 87
1, 155040, Tempo, 857143
1, 155040, Note_on_c, 0, 80, 0
1, 155040, Note_on_c, 0, 79, 77
1, 155220, Note_on_c, 0, 79, 0
1, 155280, Note_on_c, 0, 77, 67
1, 155460, Note_on_c, 0, 77, 0
1, 155520, Tempo, 839161
1, 155520, Note_on_c, 0, 75, 60
1, 155760, Tempo, 882353
1, 155760, Note_on_c, 0, 74, 55
1, 155772, Note_on_c, 0, 75, 0
1, 156000, Tempo, 839161
1, 156000, Note_on_c, 0, 77, 60
1, 156000, Note_on_c, 0, 60, 40
1, 156000, Note_on_c, 0, 56, 34
1, 156000, Note_on_c, 0, 51, 34
1, 156012, Note_on_c, 0, 74, 0
1, 156240, Tempo, 909091
1, 156240, Note_on_c, 0, 75, 55
1, 156252, Note_on_c, 0, 77, 0
1, 156480, Tempo, 833333
1, 156480, Note_on_c, 0, 51, 0
1, 156480, Note_on_c, 0, 56, 0
1, 156480, Note_on_c, 0, 60, 0
1, 156480, Note_on_c, 0, 73, 60
1, 156492, Note_on_c, 0, 75, 0
1, 156720, Note_on_c, 0, 72, 56
1, 156732, Note_on_c, 0, 73, 0
1, 156960, Note_on_c, 0, 70, 60
1, 156960, Note_on_c, 0, 61, 40
1, 156960, Note_on_c, 0, 55, 34
1, 156960, Note_on_c, 0, 51, 34
1, 156972, Note_on_c, 0, 72, 0
1, 157200, Tempo, 937500
1, 157200, Note_on_c, 0, 75, 57
1, 157212, Note_on_c, 0, 70, 0
1, 157440, Tempo, 902256
1, 157440, Note_on_c, 0, 51, 0
1, 157440, Note_on_c, 0, 55, 0
1, 157440, Note_on_c, 0, 61, 0
1, 157440, Note_on_c, 0, 75, 0
1, 157440, Note_on_c, 0, 71, 60
1, 157600, Note_on_c, 0, 71, 0
1, 157600, Note_on_c, 0, 72, 51
1, 157627, Control_c, 0, 64, 127
1, 157680, Tempo, 857143
1, 157760, Note_on_c, 0, 72, 0
1, 157760, Note_on_c, 0, 60, 43
1, 157760, Note_on_c, 0, 56, 32
1, 157920, Note_on_c, 0, 56, 0
1, 157920, Note_on_c, 0, 60, 0
1, 157920, Note_on_c, 0, 51, 39
1, 157923, Control_c, 0, 64, 0
1, 157977, Control_c, 0, 64, 127
1, 158080, Tempo, 810811
1, 158080, Note_on_c, 0, 51, 0
1, 158080, Note_on_c, 0, 72, 60
1, 158080, Note_on_c, 0, 48, 32
1, 158240, Tempo, 902256
1, 158240, Note_on_c, 0, 48, 0
1, 158240, Note_on_c, 0, 72, 0
1, 158240, Note_on_c, 0, 60, 52
1, 158240, Note_on_c, 0, 44, 32
1, 158400, Tempo, 857143
1, 158400, Note_on_c, 0, 44, 0
1, 158400, Note_on_c, 0, 60, 0
1, 158400, Note_on_c, 0, 72, 60
1, 158406, Control_c, 0, 64, 0
1, 158560, Note_on_c, 0, 72, 0
1, 158560, Note_on_c, 0, 73, 51
1, 158644, Control_c, 0, 64, 127
1, 158720, Note_on_c, 0, 73, 0
1, 158720, Note_on_c, 0, 61, 43
1, 158720, Note_on_c, 0, 58, 34
1, 158880, Note_on_c, 0, 58, 0
1, 158880, Note_on_c, 0, 61, 0
1, 158880, Note_on_c, 0, 55, 39
1, 158888, Control_c, 0, 64, 0
1, 158930, Control_c, 0, 64, 127
1, 159040, Tempo, 810811
1, 159040, Note_on_c, 0, 55, 0
1, 159040, Note_on_c, 0, 73, 60
1, 159040, Note_on_c, 0, 51, 33
1, 159200, Tempo, 902256
1, 159200, Note_on_c, 0, 51, 0
1, 159200, Note_on_c, 0, 73, 0
1, 159200, Note_on_c, 0, 61, 54
1, 159200, Note_on_c, 0, 46, 33
1, 159360, Tempo, 857143
1, 159360, Note_on_c, 0, 46, 0
1, 159360, Note_on_c, 0, 61, 0
1, 159360, Note_on_c, 0, 74, 60
1, 159360, Control_c, 0, 64, 0
1, 159520, Note_on_c, 0, 74, 0
1, 159520, Note_on_c, 0, 75, 51
1, 159541, Control_c, 0, 64, 127
1, 159680, Note_on_c, 0, 75, 0
1, 159680, Note_on_c, 0, 63, 44
1, 159680, Note_on_c, 0, 60, 33
1, 159840, Note_on_c, 0, 60, 0
1, 159840, Note_on_c, 0, 63, 0
1, 159840, Note_on_c, 0, 56, 40
1, 159858, Control_c, 0, 64, 0
1, 159914, Control_c, 0, 64, 127
1, 160000, Tempo, 810811
1, 160000, Note_on_c, 0, 56, 0
1, 160000, Note_on_c, 0, 75, 64
1, 160000, Note_on_c, 0, 51, 34
1, 160160, Tempo, 902256
1, 160160, Note_on_c, 0, 51, 0
1, 160160, Note_on_c, 0, 75, 0
1, 160160, Note_on_c, 0, 63, 56
1, 160160, Note_on_c, 0, 48, 34
1, 160320, Tempo, 857143
1, 160320, Note_on_c, 0, 48, 0
1, 160320, Note_on_c, 0, 63, 0
1, 160320, Note_on_c, 0, 75, 66
1, 160338, Control_c, 0, 64, 0
1, 160480, Note_on_c, 0, 75, 0
1, 160480, Note_on_c, 0, 76, 63
1, 160532, Control_c, 0, 64, 127
1, 160640, Note_on_c, 0, 76, 0
1, 160640, Note_on_c, 0, 64, 58
1, 160640, Note_on_c, 0, 60, 46
1, 160800, Note_on_c, 0, 60, 0
1, 160800, Note_on_c, 0, 64, 0
1, 160800, Note_on_c, 0, 56, 53
1, 160812, Control_c, 0, 64, 0
1, 160857, Control_c, 0, 64, 127
1, 160960, Tempo, 810811
1, 160960, Note_on_c, 0, 56, 0
1, 160960, Note_on_c, 0, 76, 70
1, 160960, Note_on_c, 0, 52, 46
1, 161120, Tempo, 902256
1, 161120, Note_on_c, 0, 52, 0
1, 161120, Note_on_c, 0, 76, 0
1, 161120, Note_on_c, 0, 64, 64
1, 161120, Note_on_c, 0, 48, 46
1, 161280, Tempo, 857143
1, 161280, Note_on_c, 0, 48, 0
1, 161280, Note_on_c, 0, 64, 0
1, 161280, Note_on_c, 0, 76, 73
1, 161280, Control_c, 0, 64, 0
1, 161440, Note_on_c, 0, 76, 0
1, 161440, Note_on_c, 0, 77, 70
1, 161474, Control_c, 0, 64, 127
1, 161520, Tempo, 845070
1, 161600, Note_on_c, 0, 77, 0
1, 161600, Note_on_c, 0, 65, 63
1, 161600, Note_on_c, 0, 61, 47
1, 161760, Note_on_c, 0, 61, 0
1, 161760, Note_on_c, 0, 65, 0
1, 161760, Note_on_c, 0, 56, 58
1, 161774, Control_c, 0, 64, 0
1, 161810, Control_c, 0, 64, 127
1, 161920, Tempo, 810811
1, 161920, Note_on_c, 0, 56, 0
1, 161920, Note_on_c, 0, 77, 77
1, 161920, Note_on_c, 0, 53, 49
1, 162080, Tempo, 902256
1, 162080, Note_on_c, 0, 53, 0
1, 162080, Note_on_c, 0, 77, 0
1, 162080, Note_on_c, 0, 65, 68
1, 162080, Note_on_c, 0, 49, 49
1, 162240, Tempo, 857143
1, 162240, Note_on_c, 0, 49, 0
1, 162240, Note_on_c, 0, 65, 0
1, 162240, Note_on_c, 0, 78, 79
1, 162250, Control_c, 0, 64, 0
1, 162400, Note_on_c, 0, 78, 0
1, 162400, Note_on_c, 0, 79, 77
1, 162423, Control_c, 0, 64, 127
1, 162480, Tempo, 845070
1, 162560, Note_on_c, 0, 79, 0
1, 162560, Note_on_c, 0, 67, 69
1, 162560, Note_on_c, 0, 61, 56
1, 162720, Note_on_c, 0, 61, 0
1, 162720, Note_on_c, 0, 67, 0
1, 162720, Note_on_c, 0, 58, 63
1, 162732, Control_c, 0, 64, 0
1, 162777, Control_c, 0, 64, 127
1, 162880, Tempo, 810811
1, 162880, Note_on_c, 0, 58, 0
1, 162880, Note_on_c, 0, 79, 84
1, 162880, Note_on_c, 0, 55, 54
1, 163040, Tempo, 902256
1, 163040, Note_on_c, 0, 55, 0
1, 163040, Note_on_c, 0, 79, 0
1, 163040, Note_on_c, 0, 67, 76
1, 163040, Note_on_c, 0, 51, 55
1, 163200, Tempo, 857143
1, 163200, Note_on_c, 0, 51, 0
1, 163200, Note_on_c, 0, 67, 0
1, 163200, Note_on_c, 0, 79, 86
1, 163200, Control_c, 0, 64, 0
1, 163360, Note_on_c, 0, 79, 0
1, 163360, Note_on_c, 0, 80, 81
1, 163405, Control_c, 0, 64, 127
1, 163440, Tempo, 845070
1, 163520, Note_on_c, 0, 80, 0
1, 163520, Note_on_c, 0, 68, 75
1, 163520, Note_on_c, 0, 62, 78
1, 163680, Note_on_c, 0, 68, 0
1, 163680, Note_on_c, 0, 59, 57
1, 163840, Note_on_c, 0, 80, 87
1, 163840, Note_on_c, 0, 56, 61
1, 164000, Tempo, 937500
1, 164000, Note_on_c, 0, 80, 0
1, 164000, Note_on_c, 0, 68, 81
1, 164000, Note_on_c, 0, 52, 65
1, 164160, Tempo, 827586
1, 164160, Note_on_c, 0, 68, 0
1, 164160, Note_on_c, 0, 83, 87
1, 164320, Tempo, 888889
1, 164320, Note_on_c, 0, 83, 0
1, 164320, Note_on_c, 0, 71, 79
1, 164480, Tempo, 827586
1, 164480, Note_on_c, 0, 71, 0
1, 164480, Note_on_c, 0, 83, 87
1, 164640, Tempo, 882353
1, 164640, Note_on_c, 0, 83, 0
1, 164640, Note_on_c, 0, 68, 79
1, 164800, Tempo, 833333
1, 164800, Note_on_c, 0, 68, 0
1, 164800, Note_on_c, 0, 80, 86
1, 164960, Tempo, 937500
1, 164960, Note_on_c, 0, 80, 0
1, 164960, Note_on_c, 0, 68, 79
1, 165120, Note_on_c, 0, 68, 0
1, 165120, Note_on_c, 0, 62, 0
1, 165120, Note_on_c, 0, 56, 0
1, 165120, Note_on_c, 0, 59, 0
1, 165120, Note_on_c, 0, 52, 0
1, 165120, Note_on_c, 0, 75, 88
1, 165120, Control_c, 0, 64, 0
1, 165280, Tempo, 857143
1, 165280, Note_on_c, 0, 51, 64
1, 165360, Note_on_c, 0, 51, 0
1, 165440, Note_on_c, 0, 56, 64
1, 165480, Tempo, 839161
1, 165520, Note_on_c, 0, 56, 0
1, 165600, Note_on_c, 0, 60, 64
1, 165680, Note_on_c, 0, 60, 0
1, 165760, Note_on_c, 0, 63, 58
1, 165840, Note_on_c, 0, 63, 0
1, 165920, Note_on_c, 0, 68, 58
1, 166000, Note_on_c, 0, 68, 0
1, 166080, Tempo, 902256
1, 166080, Note_on_c, 0, 72, 64
1, 166200, Tempo, 839161
1, 166240, Tempo, 857143
1, 166240, Note_on_c, 0, 72, 0
1, 166240, Note_on_c, 0, 75, 0
1, 166240, Note_on_c, 0, 86, 79
1, 166240, Note_on_c, 0, 71, 58
1, 166320, Tempo, 845070
1, 166400, Note_on_c, 0, 71, 0
1, 166400, Note_on_c, 0, 86, 0
1, 166400, Note_on_c, 0, 89, 79
1, 166400, Note_on_c, 0, 73, 58
1, 166560, Note_on_c, 0, 73, 0
1, 166560, Note_on_c, 0, 89, 0
1, 166560, Note_on_c, 0, 87, 85
1, 166560, Note_on_c, 0, 72, 64
1, 166680, Note_on_c, 0, 72, 0
1, 166680, Note_on_c, 0, 87, 0
1, 166720, Note_on_c, 0, 85, 79
1, 166720, Note_on_c, 0, 70, 59
1, 166840, Note_on_c, 0, 70, 0
1, 166840, Note_on_c, 0, 85, 0
1, 166880, Tempo, 937500
1, 166880, Note_on_c, 0, 84, 79
1, 166880, Note_on_c, 0, 68, 59
1, 167000, Note_on_c, 0, 68, 0
1, 167000, Note_on_c, 0, 84, 0
1, 167040, Tempo, 827586
1, 167040, Note_on_c, 0, 80, 79
1, 167040, Note_on_c, 0, 82, 79
1, 167040, Note_on_c, 0, 73, 62
1, 167040, Note_on_c, 0, 63, 52
1, 167103, Control_c, 0, 64, 127
1, 167760, Tempo, 923077
1, 167880, Note_on_c, 0, 82, 0
1, 167880, Note_on_c, 0, 82, 74
1, 167904, Note_on_c, 0, 82, 0
1, 167904, Note_on_c, 0, 84, 68
1, 167928, Note_on_c, 0, 84, 0
1, 167928, Note_on_c, 0, 82, 74
1, 167952, Note_on_c, 0, 82, 0
1, 167952, Note_on_c, 0, 81, 66
1, 167976, Note_on_c, 0, 81, 0
1, 167976, Note_on_c, 0, 82, 67
1, 168000, Tempo, 816327
1, 168000, Note_on_c, 0, 82, 0
1, 168000, Note_on_c, 0, 80, 0
1, 168000, Note_on_c, 0, 79, 79
1, 168000, Note_on_c, 0, 87, 79
1, 168014, Control_c, 0, 64, 0
1, 168096, Control_c, 0, 64, 127
1, 168840, Note_on_c, 0, 87, 0
1, 168840, Note_on_c, 0, 87, 79
1, 168960, Note_on_c, 0, 87, 0
1, 168960, Note_on_c, 0, 79, 0
1, 168960, Note_on_c, 0, 73, 0
1, 168960, Note_on_c, 0, 63, 0
1, 168960, Note_on_c, 0, 72, 74
1, 168960, Note_on_c, 0, 80, 85
1, 169009, Control_c, 0, 64, 0
1, 169120, Tempo, 857143
1, 169120, Note_on_c, 0, 39, 64
1, 169200, Note_on_c, 0, 39, 0
1, 169280, Note_on_c, 0, 44, 64
1, 169360, Note_on_c, 0, 44, 0
1, 169440, Tempo, 839161
1, 169440, Note_on_c, 0, 80, 0
1, 169440, Note_on_c, 0, 72, 0
1, 169440, Note_on_c, 0, 48, 64
1, 169520, Note_on_c, 0, 48, 0
1, 169600, Note_on_c, 0, 51, 58
1, 169680, Note_on_c, 0, 51, 0
1, 169760, Note_on_c, 0, 56, 58
1, 169840, Note_on_c, 0, 56, 0
1, 169920, Tempo, 902256
1, 169920, Note_on_c, 0, 60, 64
1, 170080, Tempo, 857143
1, 170080, Note_on_c, 0, 60, 0
1, 170080, Note_on_c, 0, 74, 79
1, 170080, Note_on_c, 0, 59, 58
1, 170240, Note_on_c, 0, 59, 0
1, 170240, Note_on_c, 0, 74, 0
1, 170240, Note_on_c, 0, 77, 79
1, 170240, Note_on_c, 0, 61, 58
1, 170400, Note_on_c, 0, 61, 0
1, 170400, Note_on_c, 0, 77, 0
1, 170400, Note_on_c, 0, 75, 85
1, 170400, Note_on_c, 0, 60, 64
1, 170520, Note_on_c, 0, 60, 0
1, 170520, Note_on_c, 0, 75, 0
1, 170560, Note_on_c, 0, 73, 79
1, 170560, Note_on_c, 0, 58, 59
1, 170680, Note_on_c, 0, 58, 0
1, 170680, Note_on_c, 0, 73, 0
1, 170720, Tempo, 937500
1, 170720, Note_on_c, 0, 72, 79
1, 170720, Note_on_c, 0, 56, 59
1, 170840, Note_on_c, 0, 56, 0
1, 170840, Note_on_c, 0, 72, 0
1, 170880, Tempo, 827586
1, 170880, Note_on_c, 0, 68, 79
1, 170880, Note_on_c, 0, 70, 79
1, 170880, Note_on_c, 0, 61, 62
1, 170880, Note_on_c, 0, 51, 52
1, 170924, Control_c, 0, 64, 127
1, 171600, Tempo, 923077
1, 171720, Note_on_c, 0, 70, 0
1, 171720, Note_on_c, 0, 70, 74
1, 171744, Note_on_c, 0, 70, 0
1, 171744, Note_on_c, 0, 72, 68
1, 171768, Note_on_c, 0, 72, 0
1, 171768, Note_on_c, 0, 70, 74
1, 171792, Note_on_c, 0, 70, 0
1, 171792, Note_on_c, 0, 69, 66
1, 171816, Note_on_c, 0, 69, 0
1, 171816, Note_on_c, 0, 70, 67
1, 171840, Tempo, 816327
1, 171840, Note_on_c, 0, 70, 0
1, 171840, Note_on_c, 0, 68, 0
1, 171840, Note_on_c, 0, 67, 79
1, 171840, Note_on_c, 0, 75, 79
1, 171854, Control_c, 0, 64, 0
1, 171936, Control_c, 0, 64, 127
1, 172680, Tempo, 1008403
1, 172680, Note_on_c, 0, 75, 0
1, 172680, Note_on_c, 0, 75, 61
1, 172800, Tempo, 875912
1, 172800, Note_on_c, 0, 75, 0
1, 172800, Note_on_c, 0, 67, 0
1, 172800, Note_on_c, 0, 61, 0
1, 172800, Note_on_c, 0, 51, 0
1, 172800, Note_on_c, 0, 60, 30
1, 172800, Note_on_c, 0, 63, 30
1, 172800, Note_on_c, 0, 68, 50
1, 172800, Note_on_c, 0, 56, 39
1, 172800, Control_c, 0, 64, 0
1, 172857, Control_c, 0, 64, 127
1, 173028, Note_on_c, 0, 63, 0
1, 173028, Note_on_c, 0, 60, 0
1, 173040, Tempo, 851064
1, 173040, Note_on_c, 0, 60, 30
1, 173040, Note_on_c, 0, 63, 30
1, 173280, Note_on_c, 0, 56, 0
1, 173280, Note_on_c, 0, 51, 32
1, 173496, Note_on_c, 0, 63, 0
1, 173496, Note_on_c, 0, 60, 0
1, 173520, Tempo, 944882
1, 173520, Note_on_c, 0, 60, 30
1, 173520, Note_on_c, 0, 63, 30
1, 173748, Note_on_c, 0, 63, 0
1, 173748, Note_on_c, 0, 60, 0
1, 173760, Tempo, 869565
1, 173760, Note_on_c, 0, 68, 0
1, 173760, Note_on_c, 0, 51, 0
1, 173760, Note_on_c, 0, 61, 30
1, 173760, Note_on_c, 0, 63, 30
1, 173760, Note_on_c, 0, 72, 54
1, 173760, Note_on_c, 0, 55, 39
1, 173774, Control_c, 0, 64, 0
1, 173838, Control_c, 0, 64, 127
1, 173988, Note_on_c, 0, 63, 0
1, 173988, Note_on_c, 0, 61, 0
1, 174000, Note_on_c, 0, 61, 30
1, 174000, Note_on_c, 0, 63, 30
1, 174240, Note_on_c, 0, 55, 0
1, 174240, Note_on_c, 0, 51, 29
1, 174456, Note_on_c, 0, 63, 0
1, 174456, Note_on_c, 0, 61, 0
1, 174480, Tempo, 909091
1, 174480, Note_on_c, 0, 72, 0
1, 174480, Note_on_c, 0, 63, 30
1, 174480, Note_on_c, 0, 61, 30
1, 174480, Note_on_c, 0, 70, 45
1, 174708, Note_on_c, 0, 61, 0
1, 174708, Note_on_c, 0, 63, 0
1, 174720, Tempo, 888889
1, 174720, Note_on_c, 0, 51, 0
1, 174720, Note_on_c, 0, 70, 0
1, 174720, Note_on_c, 0, 60, 30
1, 174720, Note_on_c, 0, 63, 30
1, 174720, Note_on_c, 0, 68, 50
1, 174720, Note_on_c, 0, 56, 42
1, 174720, Control_c, 0, 64, 0
1, 174926, Control_c, 0, 64, 127
1, 174948, Note_on_c, 0, 63, 0
1, 174948, Note_on_c, 0, 60, 0
1, 174960, Note_on_c, 0, 60, 30
1, 174960, Note_on_c, 0, 63, 30
1, 175200, Tempo, 857143
1, 175200, Note_on_c, 0, 56, 0
1, 175200, Note_on_c, 0, 51, 36
1, 175416, Note_on_c, 0, 63, 0
1, 175416, Note_on_c, 0, 60, 0
1, 175440, Note_on_c, 0, 63, 30
1, 175440, Note_on_c, 0, 60, 30
1, 175680, Tempo, 888889
1, 175680, Note_on_c, 0, 51, 0
1, 175680, Note_on_c, 0, 48, 38
1, 175896, Note_on_c, 0, 60, 0
1, 175896, Note_on_c, 0, 63, 0
1, 175920, Note_on_c, 0, 60, 30
1, 175920, Note_on_c, 0, 63, 30
1, 176160, Tempo, 857143
1, 176160, Note_on_c, 0, 48, 0
1, 176160, Note_on_c, 0, 44, 40
1, 176376, Note_on_c, 0, 63, 0
1, 176376, Note_on_c, 0, 60, 0
1, 176400, Tempo, 915891
1, 176400, Note_on_c, 0, 68, 0
1, 176400, Note_on_c, 0, 69, 44
1, 176400, Note_on_c, 0, 60, 30
1, 176400, Note_on_c, 0, 63, 30
1, 176405, Control_c, 0, 64, 0
1, 176628, Note_on_c, 0, 63, 0
1, 176628, Note_on_c, 0, 60, 0
1, 176640, Tempo, 869565
1, 176640, Note_on_c, 0, 69, 0
1, 176640, Note_on_c, 0, 44, 0
1, 176640, Note_on_c, 0, 61, 30
1, 176640, Note_on_c, 0, 63, 30
1, 176640, Note_on_c, 0, 70, 52
1, 176640, Note_on_c, 0, 43, 46
1, 176712, Control_c, 0, 64, 127
1, 176868, Note_on_c, 0, 63, 0
1, 176868, Note_on_c, 0, 61, 0
1, 176880, Tempo, 857143
1, 176880, Note_on_c, 0, 63, 35
1, 177120, Note_on_c, 0, 43, 0
1, 177120, Note_on_c, 0, 39, 32
1, 177336, Note_on_c, 0, 63, 0
1, 177360, Tempo, 937500
1, 177360, Note_on_c, 0, 70, 0
1, 177360, Note_on_c, 0, 63, 30
1, 177360, Note_on_c, 0, 72, 50
1, 177420, Note_on_c, 0, 72, 0
1, 177420, Note_on_c, 0, 70, 46
1, 177480, Note_on_c, 0, 70, 0
1, 177480, Note_on_c, 0, 69, 46
1, 177540, Note_on_c, 0, 69, 0
1, 177540, Note_on_c, 0, 70, 46
1, 177595, Control_c, 0, 64, 0
1, 177600, Tempo, 863309
1, 177600, Note_on_c, 0, 70, 0
1, 177600, Note_on_c, 0, 39, 0
1, 177600, Note_on_c, 0, 73, 54
1, 177600, Note_on_c, 0, 68, 45
1, 177600, Note_on_c, 0, 44, 29
1, 177637, Control_c, 0, 64, 127
1, 177816, Note_on_c, 0, 63, 0
1, 177840, Tempo, 851064
1, 177840, Note_on_c, 0, 63, 30
1, 178080, Note_on_c, 0, 44, 0
1, 178080, Note_on_c, 0, 48, 32
1, 178296, Note_on_c, 0, 63, 0
1, 178320, Note_on_c, 0, 73, 0
1, 178320, Note_on_c, 0, 68, 0
1, 178320, Note_on_c, 0, 63, 30
1, 178320, Note_on_c, 0, 68, 45
1, 178320, Note_on_c, 0, 72, 45
1, 178380, Tempo, 909091
1, 178560, Tempo, 857143
1, 178560, Note_on_c, 0, 72, 0
1, 178560, Note_on_c, 0, 68, 0
1, 178560, Note_on_c, 0, 48, 0
1, 178560, Note_on_c, 0, 67, 42
1, 178560, Note_on_c, 0, 70, 50
1, 178560, Note_on_c, 0, 51, 36
1, 178560, Control_c, 0, 64, 0
1, 178776, Note_on_c, 0, 63, 0
1, 178800, Tempo, 833333
1, 178800, Note_on_c, 0, 63, 37
1, 178972, Control_c, 0, 64, 127
1, 179040, Note_on_c, 0, 51, 0
1, 179040, Note_on_c, 0, 53, 42
1, 179256, Note_on_c, 0, 63, 0
1, 179280, Note_on_c, 0, 63, 41
1, 179520, Tempo, 816327
1, 179520, Note_on_c, 0, 53, 0
1, 179520, Note_on_c, 0, 51, 36
1, 179529, Control_c, 0, 64, 0
1, 179690, Control_c, 0, 64, 127
1, 179736, Note_on_c, 0, 63, 0
1, 179760, Note_on_c, 0, 63, 39
1, 180000, Tempo, 827586
1, 180000, Note_on_c, 0, 49, 33
1, 180216, Note_on_c, 0, 63, 0
1, 180240, Tempo, 895522
1, 180240, Note_on_c, 0, 63, 34
1, 180480, Tempo, 839161
1, 180480, Note_on_c, 0, 67, 0
1, 180480, Note_on_c, 0, 49, 0
1, 180480, Note_on_c, 0, 70, 0
1, 180480, Note_on_c, 0, 75, 66
1, 180480, Note_on_c, 0, 48, 43
1, 180480, Control_c, 0, 64, 0
1, 180636, Control_c, 0, 64, 127
1, 180696, Note_on_c, 0, 63, 0
1, 180720, Note_on_c, 0, 63, 53
1, 180960, Tempo, 827586
1, 180960, Note_on_c, 0, 51, 0
1, 180960, Note_on_c, 0, 56, 43
1, 181176, Note_on_c, 0, 63, 0
1, 181200, Note_on_c, 0, 63, 52
1, 181440, Tempo, 833333
1, 181440, Note_on_c, 0, 48, 0
1, 181440, Note_on_c, 0, 75, 0
1, 181440, Note_on_c, 0, 73, 63
1, 181440, Note_on_c, 0, 46, 36
1, 181448, Control_c, 0, 64, 0
1, 181656, Note_on_c, 0, 63, 0
1, 181666, Control_c, 0, 64, 127
1, 181680, Note_on_c, 0, 63, 51
1, 181920, Note_on_c, 0, 56, 0
1, 181920, Note_on_c, 0, 55, 43
1, 182136, Note_on_c, 0, 63, 0
1, 182160, Tempo, 882353
1, 182160, Note_on_c, 0, 63, 52
1, 182400, Tempo, 845070
1, 182400, Note_on_c, 0, 46, 0
1, 182400, Note_on_c, 0, 73, 0
1, 182400, Note_on_c, 0, 72, 66
1, 182400, Note_on_c, 0, 44, 46
1, 182400, Control_c, 0, 64, 0
1, 182506, Control_c, 0, 64, 127
1, 182616, Note_on_c, 0, 63, 0
1, 182640, Note_on_c, 0, 63, 49
1, 182880, Tempo, 833333
1, 182880, Note_on_c, 0, 55, 0
1, 182880, Note_on_c, 0, 56, 43
1, 183096, Note_on_c, 0, 63, 0
1, 183120, Tempo, 833333
1, 183120, Note_on_c, 0, 64, 46
1, 183360, Tempo, 816327
1, 183360, Note_on_c, 0, 44, 0
1, 183360, Note_on_c, 0, 72, 0
1, 183360, Note_on_c, 0, 70, 58
1, 183360, Note_on_c, 0, 49, 45
1, 183375, Control_c, 0, 64, 0
1, 183516, Control_c, 0, 64, 127
1, 183576, Note_on_c, 0, 64, 0
1, 183600, Note_on_c, 0, 65, 54
1, 183840, Note_on_c, 0, 56, 0
1, 183840, Note_on_c, 0, 70, 0
1, 183840, Note_on_c, 0, 73, 64
1, 183840, Note_on_c, 0, 58, 43
1, 184056, Note_on_c, 0, 65, 0
1, 184080, Tempo, 875912
1, 184080, Note_on_c, 0, 58, 0
1, 184080, Note_on_c, 0, 65, 50
1, 184080, Note_on_c, 0, 61, 41
1, 184200, Note_on_c, 0, 73, 0
1, 184200, Note_on_c, 0, 70, 55
1, 184320, Tempo, 845070
1, 184320, Note_on_c, 0, 70, 0
1, 184320, Note_on_c, 0, 61, 0
1, 184320, Note_on_c, 0, 49, 0
1, 184320, Note_on_c, 0, 68, 66
1, 184320, Note_on_c, 0, 51, 53
1, 184320, Control_c, 0, 64, 0
1, 184518, Control_c, 0, 64, 127
1, 184560, Note_on_c, 0, 65, 0
1, 184560, Note_on_c, 0, 63, 47
1, 184800, Tempo, 839161
1, 184800, Note_on_c, 0, 60, 53
1, 185016, Note_on_c, 0, 63, 0
1, 185040, Note_on_c, 0, 63, 43
1, 185280, Tempo, 827586
1, 185280, Note_on_c, 0, 68, 0
1, 185280, Note_on_c, 0, 51, 0
1, 185280, Note_on_c, 0, 69, 58
1, 185280, Note_on_c, 0, 51, 36
1, 185298, Control_c, 0, 64, 0
1, 185464, Control_c, 0, 64, 127
1, 185496, Note_on_c, 0, 63, 0
1, 185520, Note_on_c, 0, 63, 45
1, 185760, Note_on_c, 0, 60, 0
1, 185760, Note_on_c, 0, 69, 0
1, 185760, Note_on_c, 0, 70, 59
1, 185760, Note_on_c, 0, 55, 53
1, 185976, Note_on_c, 0, 63, 0
1, 186000, Tempo, 909091
1, 186000, Note_on_c, 0, 63, 49
1, 186240, Tempo, 827586
1, 186240, Note_on_c, 0, 51, 0
1, 186240, Note_on_c, 0, 70, 0
1, 186240, Note_on_c, 0, 71, 64
1, 186240, Note_on_c, 0, 44, 49
1, 186240, Note_on_c, 0, 51, 49
1, 186244, Control_c, 0, 64, 0
1, 186456, Note_on_c, 0, 63, 0
1, 186480, Note_on_c, 0, 63, 55
1, 186480, Control_c, 0, 64, 127
1, 186720, Tempo, 816327
1, 186720, Note_on_c, 0, 55, 0
1, 186720, Note_on_c, 0, 71, 0
1, 186720, Note_on_c, 0, 60, 56
1, 186720, Note_on_c, 0, 72, 67
1, 186720, Note_on_c, 0, 56, 53
1, 186936, Note_on_c, 0, 63, 0
1, 186960, Note_on_c, 0, 63, 55
1, 187200, Tempo, 821918
1, 187200, Note_on_c, 0, 51, 0
1, 187200, Note_on_c, 0, 72, 0
1, 187200, Note_on_c, 0, 60, 0
1, 187200, Note_on_c, 0, 44, 0
1, 187200, Note_on_c, 0, 56, 0
1, 187200, Note_on_c, 0, 61, 59
1, 187200, Note_on_c, 0, 73, 70
1, 187200, Note_on_c, 0, 46, 46
1, 187200, Note_on_c, 0, 51, 46
1, 187200, Note_on_c, 0, 58, 55
1, 187213, Control_c, 0, 64, 0
1, 187384, Control_c, 0, 64, 127
1, 187416, Note_on_c, 0, 63, 0
1, 187440, Tempo, 839161
1, 187440, Note_on_c, 0, 63, 58
1, 187680, Tempo, 863309
1, 187680, Note_on_c, 0, 73, 0
1, 187680, Note_on_c, 0, 51, 0
1, 187680, Note_on_c, 0, 46, 0
1, 187680, Note_on_c, 0, 61, 0
1, 187680, Note_on_c, 0, 58, 0
1, 187680, Note_on_c, 0, 62, 62
1, 187680, Note_on_c, 0, 74, 73
1, 187680, Note_on_c, 0, 47, 50
1, 187680, Note_on_c, 0, 51, 50
1, 187680, Note_on_c, 0, 59, 59
1, 187896, Note_on_c, 0, 63, 0
1, 187920, Tempo, 960000
1, 187920, Note_on_c, 0, 63, 62
1, 188148, Note_on_c, 0, 63, 0
1, 188160, Tempo, 863309
1, 188160, Note_on_c, 0, 59, 0
1, 188160, Note_on_c, 0, 47, 0
1, 188160, Note_on_c, 0, 62, 0
1, 188160, Note_on_c, 0, 74, 0
1, 188160, Note_on_c, 0, 51, 0
1, 188160, Note_on_c, 0, 63, 30
1, 188160, Note_on_c, 0, 75, 77
1, 188160, Note_on_c, 0, 60, 53
1, 188160, Note_on_c, 0, 48, 64
1, 188160, Note_on_c, 0, 51, 64
1, 188160, Control_c, 0, 64, 0
1, 188400, Tempo, 845070
1, 188400, Note_on_c, 0, 56, 53
1, 188513, Control_c, 0, 64, 127
1, 188616, Note_on_c, 0, 63, 0
1, 188640, Note_on_c, 0, 60, 0
1, 188640, Note_on_c, 0, 63, 58
1, 188880, Tempo, 895522
1, 188880, Note_on_c, 0, 56, 0
1, 188880, Note_on_c, 0, 56, 53
1, 189096, Note_on_c, 0, 63, 0
1, 189120, Tempo, 863309
1, 189120, Note_on_c, 0, 51, 0
1, 189120, Note_on_c, 0, 75, 0
1, 189120, Note_on_c, 0, 48, 0
1, 189120, Note_on_c, 0, 61, 30
1, 189120, Note_on_c, 0, 63, 30
1, 189120, Note_on_c, 0, 73, 69
1, 189120, Note_on_c, 0, 46, 52
1, 189120, Note_on_c, 0, 51, 52
1, 189134, Control_c, 0, 64, 0
1, 189304, Control_c, 0, 64, 127
1, 189360, Tempo, 845070
1, 189360, Note_on_c, 0, 56, 0
1, 189360, Note_on_c, 0, 55, 53
1, 189576, Note_on_c, 0, 61, 0
1, 189576, Note_on_c, 0, 63, 0
1, 189600, Note_on_c, 0, 61, 58
1, 189600, Note_on_c, 0, 63, 58
1, 189840, Tempo, 895522
1, 189840, Note_on_c, 0, 55, 0
1, 189840, Note_on_c, 0, 55, 53
1, 190056, Note_on_c, 0, 61, 0
1, 190056, Note_on_c, 0, 63, 0
1, 190080, Tempo, 857143
1, 190080, Note_on_c, 0, 51, 0
1, 190080, Note_on_c, 0, 73, 0
1, 190080, Note_on_c, 0, 46, 0
1, 190080, Note_on_c, 0, 60, 30
1, 190080, Note_on_c, 0, 63, 30
1, 190080, Note_on_c, 0, 72, 65
1, 190080, Note_on_c, 0, 44, 55
1, 190080, Control_c, 0, 64, 0
1, 190193, Control_c, 0, 64, 127
1, 190320, Note_on_c, 0, 55, 0
1, 190320, Note_on_c, 0, 56, 53
1, 190536, Note_on_c, 0, 60, 0
1, 190536, Note_on_c, 0, 63, 0
1, 190560, Tempo, 833333
1, 190560, Note_on_c, 0, 60, 52
1, 190560, Note_on_c, 0, 64, 52
1, 190571, Control_c, 0, 64, 0
1, 190631, Control_c, 0, 64, 127
1, 190800, Note_on_c, 0, 56, 0
1, 190800, Note_on_c, 0, 56, 53
1, 191016, Note_on_c, 0, 60, 0
1, 191016, Note_on_c, 0, 64, 0
1, 191040, Tempo, 821918
1, 191040, Note_on_c, 0, 72, 0
1, 191040, Note_on_c, 0, 44, 0
1, 191040, Note_on_c, 0, 65, 30
1, 191040, Note_on_c, 0, 70, 62
1, 191040, Note_on_c, 0, 49, 48
1, 191054, Control_c, 0, 64, 0
1, 191167, Control_c, 0, 64, 127
1, 191280, Note_on_c, 0, 70, 0
1, 191280, Note_on_c, 0, 72, 64
1, 191280, Note_on_c, 0, 57, 53
1, 191520, Note_on_c, 0, 57, 0
1, 191520, Note_on_c, 0, 56, 0
1, 191520, Note_on_c, 0, 72, 0
1, 191520, Note_on_c, 0, 73, 67
1, 191520, Note_on_c, 0, 58, 53
1, 191534, Control_c, 0, 64, 0
1, 191704, Control_c, 0, 64, 127
1, 191760, Tempo, 875912
1, 191760, Note_on_c, 0, 58, 0
1, 191760, Note_on_c, 0, 65, 0
1, 191760, Note_on_c, 0, 65, 49
1, 191760, Note_on_c, 0, 61, 53
1, 191880, Note_on_c, 0, 73, 0
1, 191880, Note_on_c, 0, 70, 69
1, 192000, Tempo, 805369
1, 192000, Note_on_c, 0, 70, 0
1, 192000, Note_on_c, 0, 49, 0
1, 192000, Note_on_c, 0, 65, 0
1, 192000, Note_on_c, 0, 63, 30
1, 192000, Note_on_c, 0, 68, 70
1, 192000, Note_on_c, 0, 51, 58
1, 192014, Control_c, 0, 64, 0
1, 192212, Control_c, 0, 64, 127
1, 192240, Tempo, 839161
1, 192240, Note_on_c, 0, 75, 58
1, 192480, Tempo, 794702
1, 192480, Note_on_c, 0, 68, 0
1, 192480, Note_on_c, 0, 61, 0
1, 192480, Note_on_c, 0, 69, 71
1, 192480, Note_on_c, 0, 60, 53
1, 192696, Note_on_c, 0, 75, 0
1, 192720, Tempo, 839161
1, 192720, Note_on_c, 0, 75, 58
1, 192960, Tempo, 805369
1, 192960, Note_on_c, 0, 69, 0
1, 192960, Note_on_c, 0, 60, 0
1, 192960, Note_on_c, 0, 51, 0
1, 192960, Note_on_c, 0, 70, 73
1, 192960, Note_on_c, 0, 61, 53
1, 192960, Note_on_c, 0, 51, 52
1, 192967, Control_c, 0, 64, 0
1, 193158, Control_c, 0, 64, 127
1, 193176, Note_on_c, 0, 75, 0
1, 193200, Tempo, 863309
1, 193200, Note_on_c, 0, 75, 43
1, 193440, Tempo, 827586
1, 193440, Note_on_c, 0, 61, 0
1, 193440, Note_on_c, 0, 63, 0
1, 193440, Note_on_c, 0, 70, 0
1, 193440, Note_on_c, 0, 67, 51
1, 193440, Note_on_c, 0, 58, 46
1, 193440, Note_on_c, 0, 61, 46
1, 193656, Note_on_c, 0, 75, 0
1, 193680, Tempo, 909091
1, 193680, Note_on_c, 0, 75, 43
1, 193920, Tempo, 827586
1, 193920, Note_on_c, 0, 75, 0
1, 193920, Note_on_c, 0, 61, 0
1, 193920, Note_on_c, 0, 51, 0
1, 193920, Note_on_c, 0, 67, 0
1, 193920, Note_on_c, 0, 58, 0
1, 193920, Note_on_c, 0, 60, 30
1, 193920, Note_on_c, 0, 63, 30
1, 193920, Note_on_c, 0, 68, 57
1, 193920, Note_on_c, 0, 44, 40
1, 193920, Note_on_c, 0, 56, 40
1, 193920, Control_c, 0, 64, 0
1, 194090, Control_c, 0, 64, 127
1, 194148, Note_on_c, 0, 63, 0
1, 194148, Note_on_c, 0, 60, 0
1, 194160, Tempo, 839161
1, 194160, Note_on_c, 0, 63, 30
1, 194400, Note_on_c, 0, 44, 0
1, 194400, Note_on_c, 0, 56, 0
1, 194400, Note_on_c, 0, 68, 0
1, 194400, Note_on_c, 0, 48, 36
1, 194616, Note_on_c, 0, 63, 0
1, 194640, Tempo, 821918
1, 194640, Note_on_c, 0, 63, 30
1, 194880, Note_on_c, 0, 48, 0
1, 194880, Note_on_c, 0, 51, 36
1, 195096, Note_on_c, 0, 63, 0
1, 195120, Note_on_c, 0, 63, 30
1, 195360, Note_on_c, 0, 51, 0
1, 195360, Note_on_c, 0, 56, 36
1, 195576, Note_on_c, 0, 63, 0
1, 195600, Note_on_c, 0, 63, 30
1, 195840, Tempo, 816327
1, 195840, Note_on_c, 0, 56, 0
1, 195840, Note_on_c, 0, 70, 57
1, 195840, Note_on_c, 0, 73, 57
1, 195840, Note_on_c, 0, 55, 40
1, 195840, Control_c, 0, 64, 0
1, 196056, Note_on_c, 0, 63, 0
1, 196080, Tempo, 839161
1, 196080, Note_on_c, 0, 63, 30
1, 196137, Control_c, 0, 64, 127
1, 196320, Note_on_c, 0, 55, 0
1, 196320, Note_on_c, 0, 53, 36
1, 196536, Note_on_c, 0, 63, 0
1, 196560, Note_on_c, 0, 63, 30
1, 196800, Tempo, 816327
1, 196800, Note_on_c, 0, 70, 0
1, 196800, Note_on_c, 0, 53, 0
1, 196800, Note_on_c, 0, 73, 0
1, 196800, Note_on_c, 0, 70, 57
1, 196800, Note_on_c, 0, 73, 57
1, 196800, Note_on_c, 0, 51, 36
1, 196808, Control_c, 0, 64, 0
1, 196984, Control_c, 0, 64, 127
1, 197016, Note_on_c, 0, 63, 0
1, 197040, Note_on_c, 0, 63, 30
1, 197280, Note_on_c, 0, 51, 0
1, 197280, Note_on_c, 0, 55, 39
1, 197496, Note_on_c, 0, 63, 0
1, 197520, Tempo, 895522
1, 197520, Note_on_c, 0, 63, 30
1, 197760, Tempo, 821918
1, 197760, Note_on_c, 0, 70, 0
1, 197760, Note_on_c, 0, 55, 0
1, 197760, Note_on_c, 0, 73, 0
1, 197760, Note_on_c, 0, 68, 61
1, 197760, Note_on_c, 0, 72, 61
1, 197760, Note_on_c, 0, 56, 40
1, 197760, Control_c, 0, 64, 0
1, 197930, Control_c, 0, 64, 127
1, 197976, Note_on_c, 0, 63, 0
1, 198000, Tempo, 851064
1, 198000, Note_on_c, 0, 63, 30
1, 198240, Note_on_c, 0, 68, 0
1, 198240, Note_on_c, 0, 56, 0
1, 198240, Note_on_c, 0, 72, 0
1, 198240, Note_on_c, 0, 51, 36
1, 198456, Note_on_c, 0, 63, 0
1, 198480, Note_on_c, 0, 63, 30
1, 198720, Tempo, 827586
1, 198720, Note_on_c, 0, 51, 0
1, 198720, Note_on_c, 0, 48, 36
1, 198936, Note_on_c, 0, 63, 0
1, 198960, Note_on_c, 0, 63, 30
1, 199200, Note_on_c, 0, 48, 0
1, 199200, Note_on_c, 0, 44, 33
1, 199416, Note_on_c, 0, 63, 0
1, 199440, Note_on_c, 0, 63, 30
1, 199680, Tempo, 810811
1, 199680, Note_on_c, 0, 44, 0
1, 199680, Note_on_c, 0, 61, 57
1, 199680, Note_on_c, 0, 70, 57
1, 199680, Note_on_c, 0, 43, 40
1, 199680, Control_c, 0, 64, 0
1, 199864, Control_c, 0, 64, 127
1, 199896, Note_on_c, 0, 63, 0
1, 199920, Tempo, 833333
1, 199920, Note_on_c, 0, 63, 30
1, 200160, Note_on_c, 0, 43, 0
1, 200160, Note_on_c, 0, 41, 37
1, 200376, Note_on_c, 0, 63, 0
1, 200400, Note_on_c, 0, 63, 30
1, 200640, Note_on_c, 0, 61, 0
1, 200640, Note_on_c, 0, 41, 0
1, 200640, Note_on_c, 0, 70, 0
1, 200640, Note_on_c, 0, 61, 57
1, 200640, Note_on_c, 0, 70, 57
1, 200640, Note_on_c, 0, 39, 40
1, 200653, Control_c, 0, 64, 0
1, 200838, Control_c, 0, 64, 127
1, 200856, Note_on_c, 0, 63, 0
1, 200880, Note_on_c, 0, 63, 30
1, 201120, Note_on_c, 0, 39, 0
1, 201120, Note_on_c, 0, 43, 38
1, 201336, Note_on_c, 0, 63, 0
1, 201360, Note_on_c, 0, 63, 30
1, 201600, Tempo, 827586
1, 201600, Note_on_c, 0, 63, 0
1, 201600, Note_on_c, 0, 43, 0
1, 201600, Note_on_c, 0, 70, 0
1, 201600, Note_on_c, 0, 61, 0
1, 201600, Note_on_c, 0, 60, 25
1, 201600, Note_on_c, 0, 68, 57
1, 201600, Note_on_c, 0, 44, 40
1, 201600, Control_c, 0, 64, 0
1, 201770, Control_c, 0, 64, 127
1, 201840, Tempo, 839161
1, 201840, Note_on_c, 0, 68, 0
1, 201840, Note_on_c, 0, 60, 0
1, 201840, Note_on_c, 0, 63, 30
1, 201840, Note_on_c, 0, 51, 25
1, 202080, Note_on_c, 0, 44, 0
1, 202080, Note_on_c, 0, 39, 36
1, 202296, Note_on_c, 0, 51, 0
1, 202296, Note_on_c, 0, 63, 0
1, 202320, Tempo, 821918
1, 202320, Note_on_c, 0, 63, 30
1, 202320, Note_on_c, 0, 51, 25
1, 202560, Note_on_c, 0, 39, 0
1, 202560, Note_on_c, 0, 36, 36
1, 202776, Note_on_c, 0, 51, 0
1, 202776, Note_on_c, 0, 63, 0
1, 202800, Note_on_c, 0, 63, 30
1, 202800, Note_on_c, 0, 51, 25
1, 203040, Note_on_c, 0, 36, 0
1, 203040, Note_on_c, 0, 56, 42
1, 203040, Note_on_c, 0, 60, 50
1, 203040, Note_on_c, 0, 32, 30
1, 203040, Note_on_c, 0, 44, 36
1, 203256, Note_on_c, 0, 51, 0
1, 203256, Note_on_c, 0, 63, 0
1, 203280, Note_on_c, 0, 63, 30
1, 203280, Note_on_c, 0, 51, 25
1, 203520, Tempo, 816327
1, 203520, Note_on_c, 0, 32, 0
1, 203520, Note_on_c, 0, 56, 0
1, 203520, Note_on_c, 0, 60, 0
1, 203520, Note_on_c, 0, 44, 0
1, 203520, Note_on_c, 0, 58, 48
1, 203520, Note_on_c, 0, 61, 57
1, 203520, Note_on_c, 0, 31, 34
1, 203520, Note_on_c, 0, 43, 40
1, 203520, Control_c, 0, 64, 0
1, 203736, Note_on_c, 0, 51, 0
1, 203736, Note_on_c, 0, 63, 0
1, 203760, Tempo, 839161
1, 203760, Note_on_c, 0, 63, 30
1, 203760, Note_on_c, 0, 51, 25
1, 203817, Control_c, 0, 64, 127
1, 204000, Note_on_c, 0, 31, 0
1, 204000, Note_on_c, 0, 58, 0
1, 204000, Note_on_c, 0, 61, 0
1, 204000, Note_on_c, 0, 43, 0
1, 204000, Note_on_c, 0, 29, 30
1, 204000, Note_on_c, 0, 41, 36
1, 204240, Note_on_c, 0, 51, 0
1, 204240, Note_on_c, 0, 63, 0
1, 204240, Note_on_c, 0, 63, 30
1, 204240, Note_on_c, 0, 51, 25
1, 204480, Tempo, 827586
1, 204480, Note_on_c, 0, 29, 0
1, 204480, Note_on_c, 0, 41, 0
1, 204480, Note_on_c, 0, 58, 48
1, 204480, Note_on_c, 0, 61, 48
1, 204480, Note_on_c, 0, 31, 30
1, 204480, Note_on_c, 0, 43, 36
1, 204488, Control_c, 0, 64, 0
1, 204664, Control_c, 0, 64, 127
1, 204696, Note_on_c, 0, 63, 0
1, 204696, Note_on_c, 0, 51, 0
1, 204720, Note_on_c, 0, 63, 30
1, 204720, Note_on_c, 0, 51, 25
1, 204960, Note_on_c, 0, 31, 0
1, 204960, Note_on_c, 0, 58, 0
1, 204960, Note_on_c, 0, 61, 0
1, 204960, Note_on_c, 0, 43, 0
1, 204960, Note_on_c, 0, 39, 39
1, 205200, Tempo, 895522
1, 205200, Note_on_c, 0, 51, 0
1, 205200, Note_on_c, 0, 63, 0
1, 205200, Note_on_c, 0, 63, 30
1, 205200, Note_on_c, 0, 51, 25
1, 205440, Tempo, 821918
1, 205440, Note_on_c, 0, 39, 0
1, 205440, Note_on_c, 0, 56, 51
1, 205440, Note_on_c, 0, 60, 51
1, 205440, Note_on_c, 0, 32, 40
1, 205440, Control_c, 0, 64, 0
1, 205610, Control_c, 0, 64, 127
1, 205656, Note_on_c, 0, 51, 0
1, 205656, Note_on_c, 0, 63, 0
1, 205668, Note_on_c, 0, 60, 0
1, 205668, Note_on_c, 0, 56, 0
1, 205680, Tempo, 851064
1, 205680, Note_on_c, 0, 63, 30
1, 205680, Note_on_c, 0, 60, 25
1, 205680, Note_on_c, 0, 56, 25
1, 205680, Note_on_c, 0, 51, 25
1, 205920, Note_on_c, 0, 32, 0
1, 205920, Note_on_c, 0, 44, 35
1, 206136, Note_on_c, 0, 56, 0
1, 206136, Note_on_c, 0, 51, 0
1, 206136, Note_on_c, 0, 63, 0
1, 206136, Note_on_c, 0, 60, 0
1, 206160, Note_on_c, 0, 63, 29
1, 206160, Note_on_c, 0, 60, 24
1, 206160, Note_on_c, 0, 56, 24
1, 206160, Note_on_c, 0, 51, 24
1, 206400, Tempo, 816327
1, 206400, Note_on_c, 0, 39, 34
1, 206616, Note_on_c, 0, 51, 0
1, 206616, Note_on_c, 0, 56, 0
1, 206616, Note_on_c, 0, 60, 0
1, 206616, Note_on_c, 0, 63, 0
1, 206640, Tempo, 839161
1, 206640, Note_on_c, 0, 63, 28
1, 206640, Note_on_c, 0, 60, 24
1, 206640, Note_on_c, 0, 56, 24
1, 206640, Note_on_c, 0, 51, 24
1, 206880, Tempo, 816327
1, 206880, Note_on_c, 0, 39, 0
1, 206880, Note_on_c, 0, 36, 31
1, 207096, Note_on_c, 0, 63, 0
1, 207096, Note_on_c, 0, 56, 0
1, 207096, Note_on_c, 0, 60, 0
1, 207096, Note_on_c, 0, 51, 0
1, 207120, Tempo, 857143
1, 207120, Note_on_c, 0, 63, 28
1, 207120, Note_on_c, 0, 56, 23
1, 207120, Note_on_c, 0, 51, 23
1, 207120, Note_on_c, 0, 60, 23
1, 207360, Tempo, 810811
1, 207360, Note_on_c, 0, 36, 0
1, 207360, Note_on_c, 0, 32, 31
1, 207360, Control_c, 0, 64, 0
1, 207544, Control_c, 0, 64, 127
1, 207576, Note_on_c, 0, 63, 0
1, 207576, Note_on_c, 0, 51, 0
1, 207576, Note_on_c, 0, 56, 0
1, 207576, Note_on_c, 0, 60, 0
1, 207600, Tempo, 833333
1, 207600, Note_on_c, 0, 60, 27
1, 207600, Note_on_c, 0, 56, 23
1, 207600, Note_on_c, 0, 51, 23
1, 207840, Tempo, 810811
1, 207840, Note_on_c, 0, 44, 0
1, 207840, Note_on_c, 0, 32, 0
1, 207840, Note_on_c, 0, 44, 33
1, 208056, Note_on_c, 0, 56, 0
1, 208056, Note_on_c, 0, 51, 0
1, 208056, Note_on_c, 0, 60, 0
1, 208080, Tempo, 869565
1, 208080, Note_on_c, 0, 60, 27
1, 208080, Note_on_c, 0, 56, 22
1, 208080, Note_on_c, 0, 51, 22
1, 208320, Tempo, 827586
1, 208320, Note_on_c, 0, 39, 35
1, 208333, Control_c, 0, 64, 0
1, 208518, Control_c, 0, 64, 127
1, 208536, Note_on_c, 0, 51, 0
1, 208536, Note_on_c, 0, 56, 0
1, 208536, Note_on_c, 0, 60, 0
1, 208560, Tempo, 895522
1, 208560, Note_on_c, 0, 60, 26
1, 208560, Note_on_c, 0, 56, 22
1, 208560, Note_on_c, 0, 51, 22
1, 208800, Tempo, 839161
1, 208800, Note_on_c, 0, 39, 0
1, 208800, Note_on_c, 0, 36, 33
1, 209016, Note_on_c, 0, 56, 0
1, 209016, Note_on_c, 0, 51, 0
1, 209016, Note_on_c, 0, 60, 0
1, 209040, Tempo, 895522
1, 209040, Note_on_c, 0, 60, 26
1, 209040, Note_on_c, 0, 56, 21
1, 209040, Note_on_c, 0, 51, 21
1, 209280, Tempo, 827586
1, 209280, Note_on_c, 0, 36, 0
1, 209280, Note_on_c, 0, 32, 29
1, 209280, Control_c, 0, 64, 0
1, 209464, Control_c, 0, 64, 127
1, 209496, Note_on_c, 0, 56, 0
1, 209496, Note_on_c, 0, 51, 0
1, 209496, Note_on_c, 0, 60, 0
1, 209520, Tempo, 869565
1, 209520, Note_on_c, 0, 56, 25
1, 209520, Note_on_c, 0, 51, 21
1, 209520, Note_on_c, 0, 48, 21
1, 209760, Tempo, 821918
1, 209760, Note_on_c, 0, 44, 0
1, 209760, Note_on_c, 0, 32, 0
1, 209760, Note_on_c, 0, 44, 31
1, 209976, Note_on_c, 0, 51, 0
1, 209976, Note_on_c, 0, 48, 0
1, 209976, Note_on_c, 0, 56, 0
1, 210000, Tempo, 875912
1, 210000, Note_on_c, 0, 56, 24
1, 210000, Note_on_c, 0, 51, 20
1, 210000, Note_on_c, 0, 48, 20
1, 210240, Tempo, 827586
1, 210240, Note_on_c, 0, 39, 32
1, 210253, Control_c, 0, 64, 0
1, 210438, Control_c, 0, 64, 127
1, 210456, Note_on_c, 0, 48, 0
1, 210456, Note_on_c, 0, 51, 0
1, 210456, Note_on_c, 0, 56, 0
1, 210480, Tempo, 882353
1, 210480, Note_on_c, 0, 56, 24
1, 210480, Note_on_c, 0, 51, 20
1, 210480, Note_on_c, 0, 48, 20
1, 210720, Tempo, 845070
1, 210720, Note_on_c, 0, 39, 0
1, 210720, Note_on_c, 0, 36, 30
1, 210936, Note_on_c, 0, 51, 0
1, 210936, Note_on_c, 0, 48, 0
1, 210936, Note_on_c, 0, 56, 0
1, 210960, Tempo, 952381
1, 210960, Note_on_c, 0, 56, 23
1, 210960, Note_on_c, 0, 51, 19
1, 210960, Note_on_c, 0, 48, 19
1, 211200, Tempo, 895522
1, 211200, Note_on_c, 0, 36, 0
1, 211200, Note_on_c, 0, 32, 26
1, 211440, Note_on_c, 0, 51, 0
1, 211440, Note_on_c, 0, 48, 0
1, 211440, Note_on_c, 0, 56, 0
1, 211680, Note_on_c, 0, 44, 0
1, 211680, Note_on_c, 0, 32, 0
1, 212160, Tempo, 937500
1, 212160, Note_on_c, 0, 48, 22
1, 212160, Note_on_c, 0, 51, 27
1, 212160, Note_on_c, 0, 32, 24
1, 212640, Note_on_c, 0, 32, 0
1, 212640, Note_on_c, 0, 51, 0
1, 212640, Note_on_c, 0, 48, 0
1, 213120, Tempo, 1263158
1, 213120, Note_on_c, 0, 44, 19
1, 213120, Note_on_c, 0, 48, 23
1, 213120, Note_on_c, 0, 32, 25
1, 215040, Note_on_c, 0, 32, 0
1, 215040, Note_on_c, 0, 48, 0
1, 215040, Note_on_c, 0, 44, 0
1, 216427, Control_c, 0, 64, 0
1, 216427, End_track
0, 0, End_of_file
