0, 0, Header, 0, 1, 480
1, 0, Start_track
1, 0, Title_t, "Klaviersonate No. 5 -  1. Satz"
1, 0, Copyright_t, "Copyright © 2008 by Bernd Krueger"
1, 0, Text_t, "Ludwig van Beethoven"
1, 0, Text_t, "Allegro molto e con brio"
1, 0, Text_t, "Erstellt: 16.11.2008\012"
1, 0, Text_t, "Update am 2.5.2012\012"
1, 0, Text_t, "Dauer: 6:31 Minuten\012"
1, 0, Time_signature, 3, 2, 24, 8
1, 0, Key_signature, -3, "major"
1, 0, Tempo, 327297
1, 0, Marker_t, "Teil1"
1, 0, Program_c, 0, 0
1, 0, Note_on_c, 0, 63, 69
1, 0, Note_on_c, 0, 67, 69
1, 0, Note_on_c, 0, 72, 82
1, 0, Program_c, 0, 0
1, 0, Note_on_c, 0, 60, 70
1, 0, Note_on_c, 0, 55, 59
1, 0, Note_on_c, 0, 51, 59
1, 0, Note_on_c, 0, 48, 59
1, 0, Program_c, 0, 0
1, 156, Control_c, 0, 64, 127
1, 720, Note_on_c, 0, 48, 0
1, 720, Note_on_c, 0, 55, 0
1, 720, Note_on_c, 0, 67, 0
1, 720, Note_on_c, 0, 72, 0
1, 720, Note_on_c, 0, 63, 0
1, 720, Note_on_c, 0, 51, 0
1, 720, Note_on_c, 0, 60, 0
1, 840, Note_on_c, 0, 67, 70
1, 960, Tempo, 318302
1, 960, Note_on_c, 0, 67, 0
1, 960, Note_on_c, 0, 75, 78
1, 1320, Note_on_c, 0, 75, 0
1, 1320, Note_on_c, 0, 72, 70
1, 1440, Note_on_c, 0, 72, 0
1, 1440, Note_on_c, 0, 79, 79
1, 1800, Note_on_c, 0, 79, 0
1, 1800, Note_on_c, 0, 75, 70
1, 1920, Note_on_c, 0, 75, 0
1, 1920, Note_on_c, 0, 84, 79
1, 2280, Tempo, 353753
1, 2280, Note_on_c, 0, 84, 0
1, 2280, Note_on_c, 0, 79, 70
1, 2400, Tempo, 327297
1, 2400, Note_on_c, 0, 79, 0
1, 2400, Note_on_c, 0, 87, 84
1, 2421, Control_c, 0, 64, 0
1, 2520, Note_on_c, 0, 87, 0
1, 2880, Note_on_c, 0, 87, 84
1, 3000, Note_on_c, 0, 87, 0
1, 3360, Tempo, 351906
1, 3812, Control_c, 0, 64, 127
1, 3840, Tempo, 333537
1, 3840, Note_on_c, 0, 67, 39
1, 3840, Note_on_c, 0, 72, 46
1, 3840, Note_on_c, 0, 60, 34
1, 3840, Note_on_c, 0, 63, 41
1, 4080, Note_on_c, 0, 63, 0
1, 4080, Note_on_c, 0, 67, 0
1, 4080, Note_on_c, 0, 72, 0
1, 4080, Note_on_c, 0, 60, 0
1, 4320, Note_on_c, 0, 67, 42
1, 4320, Note_on_c, 0, 72, 50
1, 4320, Note_on_c, 0, 63, 41
1, 4320, Note_on_c, 0, 60, 34
1, 4800, Tempo, 343348
1, 5280, Tempo, 401016
1, 5280, Note_on_c, 0, 60, 0
1, 5280, Note_on_c, 0, 67, 0
1, 5280, Note_on_c, 0, 72, 0
1, 5280, Note_on_c, 0, 63, 0
1, 5280, Note_on_c, 0, 67, 39
1, 5280, Note_on_c, 0, 62, 32
1, 5280, Note_on_c, 0, 65, 38
1, 5290, Note_on_c, 0, 71, 46
1, 5290, Control_c, 0, 64, 0
1, 5750, Note_on_c, 0, 65, 0
1, 5750, Note_on_c, 0, 67, 0
1, 5750, Note_on_c, 0, 62, 0
1, 5760, Tempo, 327297
1, 5760, Note_on_c, 0, 71, 0
1, 5760, Note_on_c, 0, 68, 69
1, 5760, Note_on_c, 0, 65, 69
1, 5760, Note_on_c, 0, 71, 82
1, 5760, Note_on_c, 0, 53, 59
1, 5760, Note_on_c, 0, 59, 59
1, 5760, Note_on_c, 0, 56, 59
1, 5760, Note_on_c, 0, 62, 70
1, 5760, Note_on_c, 0, 50, 59
1, 5916, Control_c, 0, 64, 127
1, 6480, Note_on_c, 0, 50, 0
1, 6480, Note_on_c, 0, 68, 0
1, 6480, Note_on_c, 0, 59, 0
1, 6480, Note_on_c, 0, 65, 0
1, 6480, Note_on_c, 0, 71, 0
1, 6480, Note_on_c, 0, 53, 0
1, 6480, Note_on_c, 0, 56, 0
1, 6480, Note_on_c, 0, 62, 0
1, 6600, Note_on_c, 0, 71, 70
1, 6720, Tempo, 318302
1, 6720, Note_on_c, 0, 71, 0
1, 6720, Note_on_c, 0, 77, 78
1, 7080, Note_on_c, 0, 77, 0
1, 7080, Note_on_c, 0, 74, 70
1, 7200, Note_on_c, 0, 74, 0
1, 7200, Note_on_c, 0, 83, 79
1, 7560, Note_on_c, 0, 83, 0
1, 7560, Note_on_c, 0, 77, 70
1, 7680, Note_on_c, 0, 77, 0
1, 7680, Note_on_c, 0, 86, 79
1, 8040, Tempo, 353753
1, 8040, Note_on_c, 0, 86, 0
1, 8040, Note_on_c, 0, 83, 70
1, 8160, Tempo, 327297
1, 8160, Note_on_c, 0, 83, 0
1, 8160, Note_on_c, 0, 89, 84
1, 8181, Control_c, 0, 64, 0
1, 8280, Note_on_c, 0, 89, 0
1, 8640, Note_on_c, 0, 89, 84
1, 8760, Note_on_c, 0, 89, 0
1, 9120, Tempo, 342231
1, 9572, Control_c, 0, 64, 127
1, 9600, Tempo, 333537
1, 9600, Note_on_c, 0, 71, 39
1, 9600, Note_on_c, 0, 74, 46
1, 9600, Note_on_c, 0, 62, 34
1, 9600, Note_on_c, 0, 68, 41
1, 9600, Note_on_c, 0, 65, 34
1, 9840, Note_on_c, 0, 65, 0
1, 9840, Note_on_c, 0, 62, 0
1, 9840, Note_on_c, 0, 71, 0
1, 9840, Note_on_c, 0, 74, 0
1, 9840, Note_on_c, 0, 68, 0
1, 10080, Note_on_c, 0, 71, 42
1, 10080, Note_on_c, 0, 74, 50
1, 10080, Note_on_c, 0, 68, 41
1, 10080, Note_on_c, 0, 65, 34
1, 10080, Note_on_c, 0, 62, 34
1, 10560, Tempo, 343348
1, 11040, Tempo, 445203
1, 11040, Note_on_c, 0, 62, 0
1, 11040, Note_on_c, 0, 68, 0
1, 11040, Note_on_c, 0, 71, 0
1, 11040, Note_on_c, 0, 74, 0
1, 11040, Note_on_c, 0, 65, 0
1, 11040, Note_on_c, 0, 72, 46
1, 11040, Note_on_c, 0, 67, 38
1, 11040, Note_on_c, 0, 63, 32
1, 11109, Control_c, 0, 64, 0
1, 11400, Tempo, 386274
1, 11400, Note_on_c, 0, 72, 0
1, 11400, Note_on_c, 0, 72, 45
1, 11460, Note_on_c, 0, 72, 0
1, 11460, Note_on_c, 0, 75, 48
1, 11520, Tempo, 329345
1, 11520, Note_on_c, 0, 75, 0
1, 11520, Note_on_c, 0, 63, 0
1, 11520, Note_on_c, 0, 67, 0
1, 11520, Note_on_c, 0, 79, 53
1, 11580, Control_c, 0, 64, 127
1, 12240, Note_on_c, 0, 79, 0
1, 12240, Note_on_c, 0, 77, 41
1, 12480, Tempo, 351391
1, 12480, Note_on_c, 0, 77, 0
1, 12480, Note_on_c, 0, 75, 51
1, 12480, Note_on_c, 0, 60, 35
1, 12480, Note_on_c, 0, 55, 29
1, 12480, Note_on_c, 0, 51, 29
1, 12500, Control_c, 0, 64, 0
1, 12692, Control_c, 0, 64, 127
1, 12960, Tempo, 337819
1, 12960, Note_on_c, 0, 51, 0
1, 12960, Note_on_c, 0, 75, 0
1, 12960, Note_on_c, 0, 60, 0
1, 12960, Note_on_c, 0, 55, 0
1, 12960, Note_on_c, 0, 74, 47
1, 12960, Note_on_c, 0, 53, 33
1, 12960, Note_on_c, 0, 56, 33
1, 12960, Note_on_c, 0, 59, 39
1, 12960, Control_c, 0, 64, 0
1, 13200, Control_c, 0, 64, 127
1, 13920, Tempo, 407221
1, 13920, Note_on_c, 0, 59, 0
1, 13920, Note_on_c, 0, 74, 0
1, 13920, Note_on_c, 0, 53, 0
1, 13920, Note_on_c, 0, 56, 0
1, 13920, Note_on_c, 0, 72, 39
1, 13920, Note_on_c, 0, 60, 34
1, 13920, Note_on_c, 0, 55, 28
1, 13920, Note_on_c, 0, 51, 28
1, 13930, Control_c, 0, 64, 0
1, 14280, Tempo, 386274
1, 14280, Note_on_c, 0, 72, 0
1, 14280, Note_on_c, 0, 67, 27
1, 14320, Note_on_c, 0, 67, 0
1, 14320, Note_on_c, 0, 72, 45
1, 14360, Note_on_c, 0, 72, 0
1, 14360, Note_on_c, 0, 75, 48
1, 14400, Tempo, 329345
1, 14400, Note_on_c, 0, 75, 0
1, 14400, Note_on_c, 0, 51, 0
1, 14400, Note_on_c, 0, 55, 0
1, 14400, Note_on_c, 0, 60, 0
1, 14400, Note_on_c, 0, 79, 53
1, 14460, Control_c, 0, 64, 127
1, 15120, Note_on_c, 0, 79, 0
1, 15120, Note_on_c, 0, 77, 41
1, 15360, Tempo, 351391
1, 15360, Note_on_c, 0, 77, 0
1, 15360, Note_on_c, 0, 72, 43
1, 15360, Note_on_c, 0, 75, 51
1, 15360, Note_on_c, 0, 63, 29
1, 15360, Note_on_c, 0, 67, 35
1, 15380, Control_c, 0, 64, 0
1, 15572, Control_c, 0, 64, 127
1, 15840, Tempo, 337819
1, 15840, Note_on_c, 0, 67, 0
1, 15840, Note_on_c, 0, 72, 0
1, 15840, Note_on_c, 0, 75, 0
1, 15840, Note_on_c, 0, 63, 0
1, 15840, Note_on_c, 0, 71, 39
1, 15840, Note_on_c, 0, 74, 47
1, 15840, Note_on_c, 0, 68, 39
1, 15840, Note_on_c, 0, 65, 33
1, 15840, Control_c, 0, 64, 0
1, 16080, Control_c, 0, 64, 127
1, 16800, Note_on_c, 0, 65, 0
1, 16800, Note_on_c, 0, 71, 0
1, 16800, Note_on_c, 0, 74, 0
1, 16800, Note_on_c, 0, 68, 0
1, 16800, Note_on_c, 0, 72, 39
1, 16800, Note_on_c, 0, 63, 28
1, 16800, Note_on_c, 0, 67, 34
1, 16810, Control_c, 0, 64, 0
1, 17160, Tempo, 386274
1, 17160, Note_on_c, 0, 72, 0
1, 17160, Note_on_c, 0, 67, 60
1, 17200, Note_on_c, 0, 67, 0
1, 17200, Note_on_c, 0, 72, 63
1, 17240, Note_on_c, 0, 72, 0
1, 17240, Note_on_c, 0, 75, 69
1, 17280, Tempo, 325203
1, 17280, Note_on_c, 0, 75, 0
1, 17280, Note_on_c, 0, 67, 0
1, 17280, Note_on_c, 0, 63, 0
1, 17280, Note_on_c, 0, 67, 69
1, 17280, Note_on_c, 0, 79, 81
1, 17340, Control_c, 0, 64, 127
1, 18000, Note_on_c, 0, 79, 0
1, 18000, Note_on_c, 0, 67, 0
1, 18000, Note_on_c, 0, 77, 61
1, 18000, Note_on_c, 0, 65, 51
1, 18240, Tempo, 345602
1, 18240, Note_on_c, 0, 65, 0
1, 18240, Note_on_c, 0, 77, 0
1, 18240, Note_on_c, 0, 75, 73
1, 18240, Note_on_c, 0, 63, 62
1, 18240, Note_on_c, 0, 55, 39
1, 18240, Note_on_c, 0, 60, 47
1, 18240, Note_on_c, 0, 51, 39
1, 18246, Control_c, 0, 64, 0
1, 18424, Control_c, 0, 64, 127
1, 18720, Tempo, 329670
1, 18720, Note_on_c, 0, 51, 0
1, 18720, Note_on_c, 0, 55, 0
1, 18720, Note_on_c, 0, 60, 0
1, 18720, Note_on_c, 0, 59, 53
1, 18720, Note_on_c, 0, 53, 45
1, 18720, Note_on_c, 0, 56, 45
1, 18720, Control_c, 0, 64, 0
1, 19040, Control_c, 0, 64, 127
1, 19200, Tempo, 340020
1, 19200, Note_on_c, 0, 63, 0
1, 19200, Note_on_c, 0, 75, 0
1, 19200, Note_on_c, 0, 74, 72
1, 19200, Note_on_c, 0, 62, 61
1, 19230, Control_c, 0, 64, 0
1, 19320, Note_on_c, 0, 62, 0
1, 19320, Note_on_c, 0, 74, 0
1, 19680, Tempo, 329670
1, 19680, Note_on_c, 0, 56, 0
1, 19680, Note_on_c, 0, 59, 0
1, 19680, Note_on_c, 0, 53, 0
1, 19680, Note_on_c, 0, 72, 75
1, 19680, Note_on_c, 0, 60, 63
1, 19680, Note_on_c, 0, 55, 46
1, 19680, Note_on_c, 0, 51, 39
1, 19974, Control_c, 0, 64, 127
1, 20160, Tempo, 342231
1, 20160, Note_on_c, 0, 51, 0
1, 20160, Note_on_c, 0, 55, 0
1, 20160, Note_on_c, 0, 50, 46
1, 20160, Note_on_c, 0, 53, 56
1, 20164, Control_c, 0, 64, 0
1, 20480, Control_c, 0, 64, 127
1, 20640, Tempo, 330579
1, 20640, Note_on_c, 0, 60, 0
1, 20640, Note_on_c, 0, 72, 0
1, 20640, Note_on_c, 0, 59, 63
1, 20640, Note_on_c, 0, 71, 75
1, 20660, Control_c, 0, 64, 0
1, 20760, Note_on_c, 0, 71, 0
1, 20760, Note_on_c, 0, 59, 0
1, 21120, Tempo, 353753
1, 21120, Note_on_c, 0, 50, 0
1, 21120, Note_on_c, 0, 53, 0
1, 21120, Note_on_c, 0, 56, 62
1, 21120, Note_on_c, 0, 68, 74
1, 21120, Note_on_c, 0, 51, 49
1, 21120, Note_on_c, 0, 48, 41
1, 21280, Control_c, 0, 64, 127
1, 21600, Tempo, 345602
1, 21600, Note_on_c, 0, 48, 0
1, 21600, Note_on_c, 0, 51, 0
1, 21600, Note_on_c, 0, 50, 47
1, 21600, Note_on_c, 0, 47, 55
1, 21600, Control_c, 0, 64, 0
1, 21770, Control_c, 0, 64, 127
1, 22080, Tempo, 351391
1, 22080, Note_on_c, 0, 47, 0
1, 22080, Note_on_c, 0, 56, 0
1, 22080, Note_on_c, 0, 68, 0
1, 22080, Note_on_c, 0, 50, 0
1, 22080, Note_on_c, 0, 55, 57
1, 22080, Note_on_c, 0, 67, 67
1, 22097, Control_c, 0, 64, 0
1, 22320, Note_on_c, 0, 67, 0
1, 22320, Note_on_c, 0, 55, 0
1, 23040, Tempo, 342231
1, 23520, Note_on_c, 0, 59, 42
1, 23680, Note_on_c, 0, 59, 0
1, 23680, Note_on_c, 0, 62, 35
1, 23840, Note_on_c, 0, 62, 0
1, 23840, Note_on_c, 0, 65, 35
1, 23998, Tempo, 341122
1, 24000, Note_on_c, 0, 65, 0
1, 24000, Note_on_c, 0, 68, 43
1, 24000, Note_on_c, 0, 56, 34
1, 24000, Note_on_c, 0, 53, 28
1, 24000, Note_on_c, 0, 50, 28
1, 24000, Note_on_c, 0, 47, 28
1, 24022, Tempo, 342231
1, 24046, Tempo, 343348
1, 24070, Tempo, 344471
1, 24094, Tempo, 345602
1, 24118, Tempo, 347887
1, 24142, Tempo, 349040
1, 24160, Note_on_c, 0, 68, 0
1, 24160, Note_on_c, 0, 67, 36
1, 24166, Tempo, 350222
1, 24190, Tempo, 351391
1, 24214, Tempo, 353753
1, 24238, Tempo, 354946
1, 24262, Tempo, 356146
1, 24286, Tempo, 357356
1, 24310, Tempo, 358573
1, 24320, Note_on_c, 0, 67, 0
1, 24320, Note_on_c, 0, 65, 36
1, 24334, Tempo, 361054
1, 24358, Tempo, 362297
1, 24382, Tempo, 363548
1, 24406, Tempo, 364808
1, 24430, Tempo, 367354
1, 24480, Tempo, 341122
1, 24480, Note_on_c, 0, 65, 0
1, 24480, Note_on_c, 0, 50, 0
1, 24480, Note_on_c, 0, 56, 0
1, 24480, Note_on_c, 0, 53, 0
1, 24480, Note_on_c, 0, 47, 0
1, 24480, Note_on_c, 0, 63, 43
1, 24480, Note_on_c, 0, 55, 34
1, 24480, Note_on_c, 0, 51, 28
1, 24480, Note_on_c, 0, 48, 28
1, 24600, Note_on_c, 0, 48, 0
1, 24600, Note_on_c, 0, 63, 0
1, 24600, Note_on_c, 0, 55, 0
1, 24600, Note_on_c, 0, 51, 0
1, 26400, Tempo, 342231
1, 26400, Note_on_c, 0, 53, 42
1, 26560, Note_on_c, 0, 53, 0
1, 26560, Note_on_c, 0, 56, 35
1, 26720, Note_on_c, 0, 56, 0
1, 26720, Note_on_c, 0, 62, 35
1, 26878, Tempo, 341122
1, 26880, Note_on_c, 0, 62, 0
1, 26880, Note_on_c, 0, 65, 43
1, 26880, Note_on_c, 0, 50, 34
1, 26880, Note_on_c, 0, 44, 28
1, 26880, Note_on_c, 0, 41, 28
1, 26902, Tempo, 342231
1, 26926, Tempo, 343348
1, 26950, Tempo, 344471
1, 26974, Tempo, 345602
1, 26998, Tempo, 347887
1, 27022, Tempo, 349040
1, 27040, Note_on_c, 0, 65, 0
1, 27040, Note_on_c, 0, 63, 36
1, 27046, Tempo, 350222
1, 27070, Tempo, 351391
1, 27094, Tempo, 353753
1, 27118, Tempo, 354946
1, 27142, Tempo, 356146
1, 27166, Tempo, 357356
1, 27190, Tempo, 358573
1, 27200, Note_on_c, 0, 63, 0
1, 27200, Note_on_c, 0, 62, 36
1, 27214, Tempo, 361054
1, 27238, Tempo, 362297
1, 27262, Tempo, 363548
1, 27286, Tempo, 364808
1, 27310, Tempo, 367354
1, 27360, Tempo, 341122
1, 27360, Note_on_c, 0, 62, 0
1, 27360, Note_on_c, 0, 50, 0
1, 27360, Note_on_c, 0, 44, 0
1, 27360, Note_on_c, 0, 41, 0
1, 27360, Note_on_c, 0, 60, 43
1, 27360, Note_on_c, 0, 48, 28
1, 27360, Note_on_c, 0, 43, 28
1, 27360, Note_on_c, 0, 51, 34
1, 27480, Note_on_c, 0, 51, 0
1, 27480, Note_on_c, 0, 60, 0
1, 27480, Note_on_c, 0, 48, 0
1, 27480, Note_on_c, 0, 43, 0
1, 27840, Tempo, 342231
1, 28318, Tempo, 341122
1, 28342, Tempo, 342231
1, 28366, Tempo, 343348
1, 28390, Tempo, 344471
1, 28414, Tempo, 345602
1, 28438, Tempo, 347887
1, 28462, Tempo, 349040
1, 28486, Tempo, 350222
1, 28510, Tempo, 351391
1, 28534, Tempo, 353753
1, 28558, Tempo, 354946
1, 28582, Tempo, 356146
1, 28606, Tempo, 357356
1, 28630, Tempo, 358573
1, 28654, Tempo, 361054
1, 28678, Tempo, 362297
1, 28702, Tempo, 363548
1, 28726, Tempo, 364808
1, 28750, Tempo, 367354
1, 29280, Tempo, 342231
1, 29280, Note_on_c, 0, 55, 66
1, 29303, Control_c, 0, 64, 127
1, 29440, Note_on_c, 0, 55, 0
1, 29440, Note_on_c, 0, 59, 69
1, 29600, Note_on_c, 0, 59, 0
1, 29600, Note_on_c, 0, 62, 72
1, 29758, Tempo, 341122
1, 29760, Note_on_c, 0, 62, 0
1, 29760, Note_on_c, 0, 65, 75
1, 29760, Note_on_c, 0, 43, 73
1, 29760, Note_on_c, 0, 31, 73
1, 29782, Tempo, 342231
1, 29806, Tempo, 343348
1, 29830, Tempo, 344471
1, 29854, Tempo, 345602
1, 29878, Tempo, 347887
1, 29902, Tempo, 349040
1, 29920, Note_on_c, 0, 65, 0
1, 29920, Note_on_c, 0, 62, 67
1, 29926, Tempo, 350222
1, 29950, Tempo, 351391
1, 29974, Tempo, 353753
1, 29998, Tempo, 354946
1, 30000, Note_on_c, 0, 31, 0
1, 30000, Note_on_c, 0, 43, 0
1, 30022, Tempo, 356146
1, 30046, Tempo, 357356
1, 30070, Tempo, 358573
1, 30080, Note_on_c, 0, 62, 0
1, 30080, Note_on_c, 0, 59, 67
1, 30094, Tempo, 361054
1, 30118, Tempo, 362297
1, 30142, Tempo, 363548
1, 30166, Tempo, 364808
1, 30190, Tempo, 367354
1, 30240, Tempo, 327297
1, 30240, Note_on_c, 0, 59, 0
1, 30240, Note_on_c, 0, 55, 79
1, 30240, Note_on_c, 0, 51, 79
1, 30240, Note_on_c, 0, 60, 94
1, 30240, Note_on_c, 0, 43, 67
1, 30240, Note_on_c, 0, 36, 67
1, 30240, Note_on_c, 0, 48, 80
1, 30240, Note_on_c, 0, 39, 67
1, 30263, Control_c, 0, 64, 0
1, 30396, Control_c, 0, 64, 127
1, 30960, Note_on_c, 0, 39, 0
1, 30960, Note_on_c, 0, 36, 0
1, 30960, Note_on_c, 0, 51, 0
1, 30960, Note_on_c, 0, 60, 0
1, 30960, Note_on_c, 0, 55, 0
1, 30960, Note_on_c, 0, 48, 0
1, 30960, Note_on_c, 0, 43, 0
1, 31080, Note_on_c, 0, 60, 70
1, 31200, Tempo, 316623
1, 31200, Note_on_c, 0, 60, 0
1, 31200, Note_on_c, 0, 67, 78
1, 31560, Note_on_c, 0, 67, 0
1, 31560, Note_on_c, 0, 63, 70
1, 31680, Tempo, 314136
1, 31680, Note_on_c, 0, 63, 0
1, 31680, Note_on_c, 0, 72, 85
1, 32040, Note_on_c, 0, 72, 0
1, 32040, Note_on_c, 0, 67, 72
1, 32160, Note_on_c, 0, 67, 0
1, 32160, Note_on_c, 0, 75, 80
1, 32520, Tempo, 353753
1, 32520, Note_on_c, 0, 75, 0
1, 32520, Note_on_c, 0, 72, 83
1, 32640, Tempo, 327297
1, 32640, Note_on_c, 0, 72, 0
1, 32640, Note_on_c, 0, 79, 96
1, 32640, Note_on_c, 0, 67, 81
1, 32640, Note_on_c, 0, 48, 58
1, 32640, Note_on_c, 0, 55, 69
1, 32640, Note_on_c, 0, 51, 58
1, 32661, Control_c, 0, 64, 0
1, 32760, Note_on_c, 0, 51, 0
1, 32760, Note_on_c, 0, 48, 0
1, 32760, Note_on_c, 0, 79, 0
1, 32760, Note_on_c, 0, 67, 0
1, 32760, Note_on_c, 0, 55, 0
1, 33120, Note_on_c, 0, 79, 96
1, 33120, Note_on_c, 0, 67, 81
1, 33120, Note_on_c, 0, 47, 58
1, 33120, Note_on_c, 0, 50, 58
1, 33120, Note_on_c, 0, 55, 69
1, 33240, Note_on_c, 0, 55, 0
1, 33240, Note_on_c, 0, 47, 0
1, 33240, Note_on_c, 0, 79, 0
1, 33240, Note_on_c, 0, 67, 0
1, 33240, Note_on_c, 0, 50, 0
1, 33960, Tempo, 327297
1, 33960, Note_on_c, 0, 59, 70
1, 33977, Control_c, 0, 64, 127
1, 34080, Tempo, 317460
1, 34080, Note_on_c, 0, 59, 0
1, 34080, Note_on_c, 0, 67, 78
1, 34440, Note_on_c, 0, 67, 0
1, 34440, Note_on_c, 0, 62, 70
1, 34560, Tempo, 314961
1, 34560, Note_on_c, 0, 62, 0
1, 34560, Note_on_c, 0, 71, 85
1, 34920, Note_on_c, 0, 71, 0
1, 34920, Note_on_c, 0, 67, 74
1, 35040, Note_on_c, 0, 67, 0
1, 35040, Note_on_c, 0, 74, 86
1, 35400, Tempo, 353753
1, 35400, Note_on_c, 0, 74, 0
1, 35400, Note_on_c, 0, 71, 83
1, 35520, Tempo, 327297
1, 35520, Note_on_c, 0, 71, 0
1, 35520, Note_on_c, 0, 79, 96
1, 35520, Note_on_c, 0, 67, 81
1, 35520, Note_on_c, 0, 55, 69
1, 35520, Note_on_c, 0, 47, 58
1, 35520, Note_on_c, 0, 50, 58
1, 35541, Control_c, 0, 64, 0
1, 35640, Note_on_c, 0, 50, 0
1, 35640, Note_on_c, 0, 55, 0
1, 35640, Note_on_c, 0, 79, 0
1, 35640, Note_on_c, 0, 67, 0
1, 35640, Note_on_c, 0, 47, 0
1, 36000, Note_on_c, 0, 79, 96
1, 36000, Note_on_c, 0, 67, 81
1, 36000, Note_on_c, 0, 55, 69
1, 36000, Note_on_c, 0, 48, 58
1, 36000, Note_on_c, 0, 51, 58
1, 36120, Note_on_c, 0, 51, 0
1, 36120, Note_on_c, 0, 55, 0
1, 36120, Note_on_c, 0, 79, 0
1, 36120, Note_on_c, 0, 67, 0
1, 36120, Note_on_c, 0, 48, 0
1, 36840, Tempo, 327297
1, 36840, Note_on_c, 0, 63, 70
1, 36857, Control_c, 0, 64, 127
1, 36960, Tempo, 318302
1, 36960, Note_on_c, 0, 63, 0
1, 36960, Note_on_c, 0, 67, 78
1, 37320, Note_on_c, 0, 67, 0
1, 37320, Note_on_c, 0, 63, 70
1, 37440, Tempo, 314961
1, 37440, Note_on_c, 0, 63, 0
1, 37440, Note_on_c, 0, 72, 85
1, 37800, Note_on_c, 0, 72, 0
1, 37800, Note_on_c, 0, 67, 74
1, 37920, Note_on_c, 0, 67, 0
1, 37920, Note_on_c, 0, 75, 86
1, 38280, Tempo, 353753
1, 38280, Note_on_c, 0, 75, 0
1, 38280, Note_on_c, 0, 72, 83
1, 38400, Tempo, 327297
1, 38400, Note_on_c, 0, 72, 0
1, 38400, Note_on_c, 0, 79, 90
1, 38400, Note_on_c, 0, 51, 58
1, 38400, Note_on_c, 0, 60, 69
1, 38400, Note_on_c, 0, 55, 58
1, 38520, Note_on_c, 0, 55, 0
1, 38520, Note_on_c, 0, 60, 0
1, 38520, Note_on_c, 0, 51, 0
1, 38760, Note_on_c, 0, 79, 0
1, 38760, Note_on_c, 0, 75, 83
1, 38880, Tempo, 324272
1, 38880, Note_on_c, 0, 75, 0
1, 38880, Note_on_c, 0, 74, 96
1, 38880, Note_on_c, 0, 56, 58
1, 38880, Note_on_c, 0, 62, 69
1, 38880, Note_on_c, 0, 53, 58
1, 38880, Control_c, 0, 64, 0
1, 39000, Note_on_c, 0, 53, 0
1, 39000, Note_on_c, 0, 74, 0
1, 39000, Note_on_c, 0, 56, 0
1, 39000, Note_on_c, 0, 62, 0
1, 39360, Tempo, 333537
1, 39360, Note_on_c, 0, 89, 96
1, 39480, Note_on_c, 0, 89, 0
1, 40320, Tempo, 325274
1, 40320, Note_on_c, 0, 71, 96
1, 40320, Note_on_c, 0, 62, 69
1, 40320, Note_on_c, 0, 59, 58
1, 40320, Note_on_c, 0, 55, 58
1, 40440, Note_on_c, 0, 55, 0
1, 40440, Note_on_c, 0, 71, 0
1, 40440, Note_on_c, 0, 62, 0
1, 40440, Note_on_c, 0, 59, 0
1, 40800, Tempo, 331437
1, 40800, Note_on_c, 0, 86, 96
1, 40920, Note_on_c, 0, 86, 0
1, 41760, Tempo, 345602
1, 41760, Note_on_c, 0, 72, 96
1, 41760, Note_on_c, 0, 55, 58
1, 41760, Note_on_c, 0, 48, 58
1, 41760, Note_on_c, 0, 60, 69
1, 41760, Note_on_c, 0, 51, 58
1, 41880, Note_on_c, 0, 51, 0
1, 41880, Note_on_c, 0, 48, 0
1, 41880, Note_on_c, 0, 72, 0
1, 41880, Note_on_c, 0, 55, 0
1, 41880, Note_on_c, 0, 60, 0
1, 42240, Tempo, 341122
1, 42240, Note_on_c, 0, 84, 96
1, 42360, Note_on_c, 0, 84, 0
1, 44640, Tempo, 328317
1, 44640, Note_on_c, 0, 63, 69
1, 44694, Control_c, 0, 64, 127
1, 46080, Tempo, 336738
1, 46080, Note_on_c, 0, 61, 50
1, 46560, Tempo, 328317
1, 46560, Note_on_c, 0, 67, 50
1, 47040, Tempo, 341122
1, 47040, Note_on_c, 0, 75, 45
1, 47520, Tempo, 330396
1, 47520, Note_on_c, 0, 75, 0
1, 47520, Note_on_c, 0, 67, 0
1, 47520, Note_on_c, 0, 61, 0
1, 47520, Note_on_c, 0, 68, 42
1, 47520, Note_on_c, 0, 75, 50
1, 47520, Note_on_c, 0, 60, 49
1, 47526, Control_c, 0, 64, 0
1, 47840, Control_c, 0, 64, 127
1, 48000, Tempo, 336738
1, 48480, Note_on_c, 0, 75, 0
1, 48480, Note_on_c, 0, 75, 45
1, 48960, Tempo, 326282
1, 48960, Note_on_c, 0, 63, 0
1, 48960, Note_on_c, 0, 60, 0
1, 48960, Note_on_c, 0, 68, 0
1, 48960, Note_on_c, 0, 67, 42
1, 48960, Note_on_c, 0, 61, 34
1, 48960, Note_on_c, 0, 58, 28
1, 48967, Control_c, 0, 64, 0
1, 49235, Control_c, 0, 64, 127
1, 49440, Note_on_c, 0, 75, 0
1, 49440, Note_on_c, 0, 77, 45
1, 49920, Tempo, 346741
1, 49920, Note_on_c, 0, 77, 0
1, 49920, Note_on_c, 0, 73, 44
1, 50400, Tempo, 331437
1, 50400, Note_on_c, 0, 58, 0
1, 50400, Note_on_c, 0, 67, 0
1, 50400, Note_on_c, 0, 61, 0
1, 50400, Note_on_c, 0, 68, 42
1, 50400, Note_on_c, 0, 56, 28
1, 50400, Note_on_c, 0, 63, 33
1, 50400, Control_c, 0, 64, 0
1, 50697, Control_c, 0, 64, 127
1, 50880, Tempo, 341122
1, 50880, Note_on_c, 0, 73, 0
1, 50880, Note_on_c, 0, 71, 45
1, 51360, Note_on_c, 0, 71, 0
1, 51360, Note_on_c, 0, 72, 45
1, 51377, Control_c, 0, 64, 0
1, 51840, Tempo, 333537
1, 51840, Note_on_c, 0, 72, 0
1, 51840, Note_on_c, 0, 68, 0
1, 51840, Note_on_c, 0, 56, 0
1, 51840, Note_on_c, 0, 63, 0
1, 51840, Note_on_c, 0, 70, 50
1, 51840, Note_on_c, 0, 72, 60
1, 52320, Tempo, 323276
1, 52320, Note_on_c, 0, 76, 50
1, 52800, Tempo, 341122
1, 52800, Note_on_c, 0, 84, 45
1, 53280, Tempo, 324272
1, 53280, Note_on_c, 0, 84, 0
1, 53280, Note_on_c, 0, 76, 0
1, 53280, Note_on_c, 0, 70, 0
1, 53280, Note_on_c, 0, 77, 42
1, 53280, Note_on_c, 0, 84, 50
1, 53280, Note_on_c, 0, 68, 49
1, 53286, Control_c, 0, 64, 0
1, 53600, Control_c, 0, 64, 127
1, 53760, Tempo, 336738
1, 54240, Note_on_c, 0, 84, 0
1, 54240, Note_on_c, 0, 84, 45
1, 54720, Tempo, 326282
1, 54720, Note_on_c, 0, 72, 0
1, 54720, Note_on_c, 0, 68, 0
1, 54720, Note_on_c, 0, 77, 0
1, 54720, Note_on_c, 0, 76, 42
1, 54720, Note_on_c, 0, 67, 28
1, 54720, Note_on_c, 0, 70, 34
1, 54727, Control_c, 0, 64, 0
1, 54995, Control_c, 0, 64, 127
1, 55200, Note_on_c, 0, 84, 0
1, 55200, Note_on_c, 0, 85, 45
1, 55680, Tempo, 337819
1, 55680, Note_on_c, 0, 85, 0
1, 55680, Note_on_c, 0, 82, 44
1, 56160, Tempo, 326282
1, 56160, Note_on_c, 0, 70, 0
1, 56160, Note_on_c, 0, 76, 0
1, 56160, Note_on_c, 0, 67, 0
1, 56160, Note_on_c, 0, 72, 42
1, 56160, Note_on_c, 0, 65, 28
1, 56160, Note_on_c, 0, 68, 33
1, 56160, Control_c, 0, 64, 0
1, 56457, Control_c, 0, 64, 127
1, 56640, Tempo, 334597
1, 56640, Note_on_c, 0, 82, 0
1, 56640, Note_on_c, 0, 79, 45
1, 57120, Note_on_c, 0, 79, 0
1, 57120, Note_on_c, 0, 80, 45
1, 57137, Control_c, 0, 64, 0
1, 57600, Tempo, 336738
1, 57600, Note_on_c, 0, 80, 0
1, 57600, Note_on_c, 0, 72, 0
1, 57600, Note_on_c, 0, 65, 0
1, 57600, Note_on_c, 0, 68, 0
1, 57600, Note_on_c, 0, 66, 50
1, 57600, Note_on_c, 0, 68, 60
1, 58080, Tempo, 322286
1, 58080, Note_on_c, 0, 72, 50
1, 58560, Tempo, 341122
1, 58560, Note_on_c, 0, 80, 45
1, 59040, Tempo, 326282
1, 59040, Note_on_c, 0, 80, 0
1, 59040, Note_on_c, 0, 72, 0
1, 59040, Note_on_c, 0, 66, 0
1, 59040, Note_on_c, 0, 73, 42
1, 59040, Note_on_c, 0, 80, 50
1, 59040, Note_on_c, 0, 65, 49
1, 59046, Control_c, 0, 64, 0
1, 59360, Control_c, 0, 64, 127
1, 59520, Tempo, 336738
1, 60000, Note_on_c, 0, 80, 0
1, 60000, Note_on_c, 0, 80, 45
1, 60480, Tempo, 326282
1, 60480, Note_on_c, 0, 68, 0
1, 60480, Note_on_c, 0, 65, 0
1, 60480, Note_on_c, 0, 73, 0
1, 60480, Note_on_c, 0, 72, 42
1, 60480, Note_on_c, 0, 63, 44
1, 60480, Note_on_c, 0, 66, 44
1, 60487, Control_c, 0, 64, 0
1, 60755, Control_c, 0, 64, 127
1, 60960, Note_on_c, 0, 80, 0
1, 60960, Note_on_c, 0, 82, 45
1, 61440, Tempo, 337819
1, 61440, Note_on_c, 0, 82, 0
1, 61440, Note_on_c, 0, 78, 44
1, 61920, Tempo, 331437
1, 61920, Note_on_c, 0, 66, 0
1, 61920, Note_on_c, 0, 72, 0
1, 61920, Note_on_c, 0, 63, 0
1, 61920, Note_on_c, 0, 68, 49
1, 61920, Note_on_c, 0, 61, 28
1, 61920, Note_on_c, 0, 65, 33
1, 61920, Control_c, 0, 64, 0
1, 62217, Control_c, 0, 64, 127
1, 62400, Tempo, 337819
1, 62400, Note_on_c, 0, 78, 0
1, 62400, Note_on_c, 0, 76, 52
1, 62880, Note_on_c, 0, 76, 0
1, 62880, Note_on_c, 0, 77, 52
1, 62897, Control_c, 0, 64, 0
1, 63360, Tempo, 326282
1, 63360, Note_on_c, 0, 65, 0
1, 63360, Note_on_c, 0, 68, 0
1, 63360, Note_on_c, 0, 61, 0
1, 63360, Note_on_c, 0, 69, 50
1, 63360, Note_on_c, 0, 59, 42
1, 63360, Note_on_c, 0, 63, 48
1, 63367, Control_c, 0, 64, 0
1, 63635, Control_c, 0, 64, 127
1, 63840, Note_on_c, 0, 77, 0
1, 63840, Note_on_c, 0, 78, 55
1, 64320, Tempo, 346741
1, 64320, Note_on_c, 0, 78, 0
1, 64320, Note_on_c, 0, 75, 50
1, 64800, Tempo, 331437
1, 64800, Note_on_c, 0, 63, 0
1, 64800, Note_on_c, 0, 69, 0
1, 64800, Note_on_c, 0, 59, 0
1, 64800, Note_on_c, 0, 65, 42
1, 64800, Note_on_c, 0, 58, 33
1, 64800, Control_c, 0, 64, 0
1, 65097, Control_c, 0, 64, 127
1, 65280, Tempo, 341122
1, 65280, Note_on_c, 0, 75, 0
1, 65280, Note_on_c, 0, 75, 45
1, 65760, Note_on_c, 0, 75, 0
1, 65760, Note_on_c, 0, 74, 45
1, 65777, Control_c, 0, 64, 0
1, 66240, Tempo, 331437
1, 66240, Note_on_c, 0, 58, 0
1, 66240, Note_on_c, 0, 65, 0
1, 66240, Note_on_c, 0, 66, 42
1, 66240, Note_on_c, 0, 57, 33
1, 66367, Control_c, 0, 64, 127
1, 66720, Tempo, 341122
1, 66720, Note_on_c, 0, 74, 0
1, 66720, Note_on_c, 0, 75, 45
1, 67200, Note_on_c, 0, 75, 0
1, 67200, Note_on_c, 0, 66, 0
1, 67200, Note_on_c, 0, 63, 28
1, 67200, Note_on_c, 0, 66, 33
1, 67216, Control_c, 0, 64, 0
1, 67680, Note_on_c, 0, 66, 0
1, 67680, Note_on_c, 0, 63, 0
1, 67680, Note_on_c, 0, 57, 0
1, 67680, Note_on_c, 0, 62, 32
1, 67680, Note_on_c, 0, 65, 38
1, 67680, Note_on_c, 0, 46, 33
1, 68160, Tempo, 334597
1, 68160, Note_on_c, 0, 65, 0
1, 68160, Note_on_c, 0, 62, 0
1, 68160, Note_on_c, 0, 53, 33
1, 68640, Note_on_c, 0, 53, 0
1, 68640, Note_on_c, 0, 55, 37
1, 69120, Note_on_c, 0, 55, 0
1, 69120, Note_on_c, 0, 56, 41
1, 69600, Tempo, 326975
1, 69600, Note_on_c, 0, 56, 0
1, 69600, Note_on_c, 0, 72, 38
1, 69600, Note_on_c, 0, 52, 33
1, 69840, Note_on_c, 0, 72, 0
1, 70080, Tempo, 342231
1, 70080, Note_on_c, 0, 52, 0
1, 70080, Note_on_c, 0, 72, 38
1, 70080, Note_on_c, 0, 53, 35
1, 70320, Note_on_c, 0, 72, 0
1, 70560, Tempo, 332410
1, 70560, Note_on_c, 0, 53, 0
1, 70560, Note_on_c, 0, 46, 0
1, 70560, Note_on_c, 0, 72, 46
1, 70560, Note_on_c, 0, 46, 42
1, 70560, Note_on_c, 0, 55, 42
1, 71040, Note_on_c, 0, 55, 0
1, 71040, Note_on_c, 0, 72, 0
1, 71040, Note_on_c, 0, 70, 38
1, 71040, Note_on_c, 0, 50, 33
1, 71520, Note_on_c, 0, 50, 0
1, 71520, Note_on_c, 0, 70, 0
1, 71520, Note_on_c, 0, 51, 33
1, 72000, Note_on_c, 0, 51, 0
1, 72000, Note_on_c, 0, 53, 40
1, 72480, Tempo, 327869
1, 72480, Note_on_c, 0, 53, 0
1, 72480, Note_on_c, 0, 68, 38
1, 72480, Note_on_c, 0, 48, 33
1, 72720, Note_on_c, 0, 68, 0
1, 72960, Tempo, 342231
1, 72960, Note_on_c, 0, 48, 0
1, 72960, Note_on_c, 0, 68, 38
1, 72960, Note_on_c, 0, 50, 33
1, 73200, Note_on_c, 0, 68, 0
1, 73440, Tempo, 331492
1, 73440, Note_on_c, 0, 50, 0
1, 73440, Note_on_c, 0, 46, 0
1, 73440, Note_on_c, 0, 68, 43
1, 73440, Note_on_c, 0, 46, 39
1, 73440, Note_on_c, 0, 51, 39
1, 73920, Note_on_c, 0, 51, 0
1, 73920, Note_on_c, 0, 68, 0
1, 73920, Note_on_c, 0, 67, 38
1, 73920, Note_on_c, 0, 53, 33
1, 74400, Note_on_c, 0, 53, 0
1, 74400, Note_on_c, 0, 67, 0
1, 74400, Note_on_c, 0, 55, 36
1, 74880, Tempo, 321716
1, 74880, Note_on_c, 0, 55, 0
1, 74880, Note_on_c, 0, 56, 40
1, 75120, Note_on_c, 0, 72, 37
1, 75360, Tempo, 315789
1, 75360, Note_on_c, 0, 72, 0
1, 75360, Note_on_c, 0, 56, 0
1, 75360, Note_on_c, 0, 71, 38
1, 75360, Note_on_c, 0, 52, 33
1, 75417, Control_c, 0, 64, 127
1, 75600, Note_on_c, 0, 71, 0
1, 75600, Note_on_c, 0, 72, 34
1, 75840, Note_on_c, 0, 72, 0
1, 75840, Note_on_c, 0, 52, 0
1, 75840, Note_on_c, 0, 74, 43
1, 75840, Note_on_c, 0, 53, 33
1, 75852, Control_c, 0, 64, 0
1, 76035, Control_c, 0, 64, 127
1, 76080, Tempo, 349040
1, 76080, Note_on_c, 0, 74, 0
1, 76080, Note_on_c, 0, 72, 38
1, 76320, Tempo, 321716
1, 76320, Note_on_c, 0, 72, 0
1, 76320, Note_on_c, 0, 53, 0
1, 76320, Note_on_c, 0, 46, 0
1, 76320, Note_on_c, 0, 55, 42
1, 76320, Note_on_c, 0, 46, 42
1, 76320, Control_c, 0, 64, 0
1, 76560, Note_on_c, 0, 70, 36
1, 76800, Tempo, 314961
1, 76800, Note_on_c, 0, 70, 0
1, 76800, Note_on_c, 0, 55, 0
1, 76800, Note_on_c, 0, 69, 38
1, 76800, Note_on_c, 0, 50, 33
1, 77017, Control_c, 0, 64, 127
1, 77040, Note_on_c, 0, 69, 0
1, 77040, Note_on_c, 0, 70, 36
1, 77280, Note_on_c, 0, 70, 0
1, 77280, Note_on_c, 0, 50, 0
1, 77280, Note_on_c, 0, 72, 44
1, 77280, Note_on_c, 0, 51, 33
1, 77292, Control_c, 0, 64, 0
1, 77440, Control_c, 0, 64, 127
1, 77520, Tempo, 347887
1, 77520, Note_on_c, 0, 72, 0
1, 77520, Note_on_c, 0, 70, 38
1, 77760, Tempo, 325203
1, 77760, Note_on_c, 0, 70, 0
1, 77760, Note_on_c, 0, 51, 0
1, 77760, Note_on_c, 0, 53, 40
1, 77760, Control_c, 0, 64, 0
1, 78000, Note_on_c, 0, 68, 36
1, 78240, Tempo, 314136
1, 78240, Note_on_c, 0, 68, 0
1, 78240, Note_on_c, 0, 53, 0
1, 78240, Note_on_c, 0, 67, 38
1, 78240, Note_on_c, 0, 48, 33
1, 78480, Note_on_c, 0, 67, 0
1, 78480, Note_on_c, 0, 68, 35
1, 78494, Control_c, 0, 64, 127
1, 78720, Note_on_c, 0, 68, 0
1, 78720, Note_on_c, 0, 48, 0
1, 78720, Note_on_c, 0, 70, 44
1, 78720, Note_on_c, 0, 50, 33
1, 78819, Control_c, 0, 64, 0
1, 78932, Control_c, 0, 64, 127
1, 78960, Tempo, 340020
1, 78960, Note_on_c, 0, 70, 0
1, 78960, Note_on_c, 0, 68, 37
1, 79171, Tempo, 334597
1, 79200, Note_on_c, 0, 68, 0
1, 79200, Note_on_c, 0, 50, 0
1, 79200, Note_on_c, 0, 46, 0
1, 79200, Note_on_c, 0, 67, 46
1, 79200, Note_on_c, 0, 51, 40
1, 79200, Control_c, 0, 64, 0
1, 79339, Tempo, 333537
1, 79412, Control_c, 0, 64, 127
1, 79440, Note_on_c, 0, 51, 0
1, 79440, Note_on_c, 0, 58, 28
1, 79483, Tempo, 332484
1, 79651, Tempo, 331437
1, 79680, Note_on_c, 0, 58, 0
1, 79680, Note_on_c, 0, 55, 33
1, 79795, Tempo, 330396
1, 79920, Note_on_c, 0, 55, 0
1, 79920, Note_on_c, 0, 58, 27
1, 79963, Tempo, 329345
1, 80107, Tempo, 328317
1, 80160, Note_on_c, 0, 58, 0
1, 80174, Note_on_c, 0, 53, 33
1, 80176, Control_c, 0, 64, 0
1, 80194, Tempo, 329670
1, 80266, Tempo, 328767
1, 80316, Control_c, 0, 64, 127
1, 80338, Tempo, 327869
1, 80400, Note_on_c, 0, 58, 30
1, 80410, Tempo, 326975
1, 80414, Note_on_c, 0, 53, 0
1, 80458, Tempo, 326087
1, 80530, Tempo, 325203
1, 80602, Tempo, 324324
1, 80640, Note_on_c, 0, 58, 0
1, 80640, Note_on_c, 0, 51, 38
1, 80640, Control_c, 0, 64, 0
1, 80650, Tempo, 323450
1, 80722, Tempo, 322581
1, 80794, Tempo, 321716
1, 80810, Control_c, 0, 64, 127
1, 80842, Tempo, 320856
1, 80880, Tempo, 320000
1, 80880, Note_on_c, 0, 51, 0
1, 80880, Note_on_c, 0, 58, 28
1, 81120, Note_on_c, 0, 58, 0
1, 81120, Note_on_c, 0, 53, 42
1, 81138, Control_c, 0, 64, 0
1, 81304, Control_c, 0, 64, 127
1, 81360, Note_on_c, 0, 53, 0
1, 81360, Note_on_c, 0, 67, 0
1, 81360, Note_on_c, 0, 70, 56
1, 81360, Note_on_c, 0, 58, 35
1, 81600, Note_on_c, 0, 58, 0
1, 81600, Note_on_c, 0, 70, 0
1, 81600, Note_on_c, 0, 75, 62
1, 81600, Note_on_c, 0, 55, 46
1, 81614, Control_c, 0, 64, 0
1, 81727, Control_c, 0, 64, 127
1, 81840, Tempo, 344471
1, 81840, Note_on_c, 0, 55, 0
1, 81840, Note_on_c, 0, 58, 40
1, 82070, Note_on_c, 0, 75, 0
1, 82080, Note_on_c, 0, 58, 0
1, 82080, Note_on_c, 0, 75, 63
1, 82080, Note_on_c, 0, 53, 51
1, 82080, Control_c, 0, 64, 0
1, 82200, Tempo, 332484
1, 82221, Control_c, 0, 64, 127
1, 82315, Tempo, 329345
1, 82320, Note_on_c, 0, 53, 0
1, 82320, Note_on_c, 0, 58, 44
1, 82378, Tempo, 327869
1, 82474, Tempo, 326975
1, 82560, Note_on_c, 0, 58, 0
1, 82560, Note_on_c, 0, 55, 52
1, 82570, Tempo, 326087
1, 82575, Control_c, 0, 64, 0
1, 82659, Control_c, 0, 64, 127
1, 82666, Tempo, 325203
1, 82762, Tempo, 324324
1, 82800, Note_on_c, 0, 55, 0
1, 82800, Note_on_c, 0, 58, 43
1, 82858, Tempo, 323450
1, 82954, Tempo, 322581
1, 83002, Tempo, 323450
1, 83040, Note_on_c, 0, 58, 0
1, 83040, Note_on_c, 0, 56, 55
1, 83046, Control_c, 0, 64, 0
1, 83050, Tempo, 324324
1, 83098, Tempo, 325203
1, 83146, Tempo, 326087
1, 83181, Control_c, 0, 64, 127
1, 83194, Tempo, 326975
1, 83242, Tempo, 327869
1, 83280, Note_on_c, 0, 56, 0
1, 83280, Note_on_c, 0, 58, 47
1, 83290, Tempo, 328767
1, 83338, Tempo, 329670
1, 83386, Tempo, 330579
1, 83410, Tempo, 331492
1, 83443, Tempo, 333537
1, 83515, Tempo, 334597
1, 83520, Note_on_c, 0, 58, 0
1, 83520, Note_on_c, 0, 75, 0
1, 83520, Note_on_c, 0, 74, 57
1, 83520, Note_on_c, 0, 53, 60
1, 83520, Control_c, 0, 64, 0
1, 83647, Control_c, 0, 64, 127
1, 83760, Note_on_c, 0, 53, 0
1, 83760, Note_on_c, 0, 58, 39
1, 84000, Note_on_c, 0, 58, 0
1, 84000, Note_on_c, 0, 74, 0
1, 84000, Note_on_c, 0, 55, 46
1, 84012, Control_c, 0, 64, 0
1, 84156, Control_c, 0, 64, 127
1, 84240, Note_on_c, 0, 55, 0
1, 84240, Note_on_c, 0, 58, 33
1, 84480, Note_on_c, 0, 58, 0
1, 84480, Note_on_c, 0, 56, 41
1, 84494, Control_c, 0, 64, 0
1, 84607, Control_c, 0, 64, 127
1, 84720, Note_on_c, 0, 56, 0
1, 84720, Note_on_c, 0, 58, 33
1, 84960, Tempo, 334597
1, 84960, Note_on_c, 0, 58, 0
1, 84960, Note_on_c, 0, 70, 51
1, 84960, Note_on_c, 0, 50, 40
1, 84960, Control_c, 0, 64, 0
1, 85059, Control_c, 0, 64, 127
1, 85099, Tempo, 333537
1, 85200, Note_on_c, 0, 50, 0
1, 85200, Note_on_c, 0, 58, 28
1, 85243, Tempo, 332484
1, 85411, Tempo, 331437
1, 85440, Note_on_c, 0, 58, 0
1, 85440, Note_on_c, 0, 53, 33
1, 85555, Tempo, 330396
1, 85680, Note_on_c, 0, 53, 0
1, 85680, Note_on_c, 0, 58, 27
1, 85723, Tempo, 329345
1, 85867, Tempo, 328317
1, 85920, Note_on_c, 0, 58, 0
1, 85920, Note_on_c, 0, 51, 33
1, 85940, Control_c, 0, 64, 0
1, 86035, Tempo, 327297
1, 86047, Control_c, 0, 64, 127
1, 86160, Note_on_c, 0, 51, 0
1, 86160, Note_on_c, 0, 58, 30
1, 86179, Tempo, 326282
1, 86400, Note_on_c, 0, 58, 0
1, 86400, Note_on_c, 0, 70, 0
1, 86400, Note_on_c, 0, 70, 61
1, 86400, Note_on_c, 0, 50, 38
1, 86400, Control_c, 0, 64, 0
1, 86460, Control_c, 0, 64, 127
1, 86640, Tempo, 318302
1, 86640, Note_on_c, 0, 50, 0
1, 86640, Note_on_c, 0, 70, 0
1, 86640, Note_on_c, 0, 72, 57
1, 86640, Note_on_c, 0, 58, 31
1, 86720, Note_on_c, 0, 72, 0
1, 86720, Note_on_c, 0, 70, 52
1, 86800, Note_on_c, 0, 70, 0
1, 86800, Note_on_c, 0, 69, 52
1, 86880, Note_on_c, 0, 69, 0
1, 86880, Note_on_c, 0, 58, 0
1, 86880, Note_on_c, 0, 70, 61
1, 86880, Note_on_c, 0, 51, 46
1, 86898, Control_c, 0, 64, 0
1, 86949, Control_c, 0, 64, 127
1, 87120, Note_on_c, 0, 51, 0
1, 87120, Note_on_c, 0, 70, 0
1, 87120, Note_on_c, 0, 77, 65
1, 87120, Note_on_c, 0, 58, 38
1, 87360, Note_on_c, 0, 58, 0
1, 87360, Note_on_c, 0, 77, 0
1, 87360, Note_on_c, 0, 80, 73
1, 87360, Note_on_c, 0, 53, 50
1, 87374, Control_c, 0, 64, 0
1, 87487, Control_c, 0, 64, 127
1, 87600, Tempo, 344471
1, 87600, Note_on_c, 0, 53, 0
1, 87600, Note_on_c, 0, 58, 43
1, 87840, Note_on_c, 0, 58, 0
1, 87840, Note_on_c, 0, 80, 0
1, 87840, Note_on_c, 0, 80, 74
1, 87840, Note_on_c, 0, 51, 56
1, 87840, Control_c, 0, 64, 0
1, 87960, Tempo, 332484
1, 87970, Tempo, 329670
1, 87981, Control_c, 0, 64, 127
1, 88042, Tempo, 328767
1, 88080, Note_on_c, 0, 51, 0
1, 88080, Note_on_c, 0, 58, 42
1, 88090, Tempo, 327869
1, 88162, Tempo, 326975
1, 88210, Tempo, 326087
1, 88282, Tempo, 325203
1, 88320, Note_on_c, 0, 58, 0
1, 88320, Note_on_c, 0, 53, 54
1, 88330, Tempo, 324324
1, 88335, Control_c, 0, 64, 0
1, 88402, Tempo, 323450
1, 88419, Control_c, 0, 64, 127
1, 88450, Tempo, 322581
1, 88498, Tempo, 320856
1, 88560, Note_on_c, 0, 53, 0
1, 88560, Note_on_c, 0, 58, 44
1, 88570, Tempo, 321716
1, 88618, Tempo, 322581
1, 88690, Tempo, 323450
1, 88738, Tempo, 324324
1, 88800, Note_on_c, 0, 58, 0
1, 88800, Note_on_c, 0, 55, 46
1, 88806, Control_c, 0, 64, 0
1, 88810, Tempo, 325203
1, 88858, Tempo, 326087
1, 88906, Tempo, 326975
1, 88915, Tempo, 329345
1, 88941, Control_c, 0, 64, 127
1, 88987, Tempo, 330396
1, 89040, Note_on_c, 0, 55, 0
1, 89040, Note_on_c, 0, 58, 33
1, 89059, Tempo, 331437
1, 89131, Tempo, 332484
1, 89203, Tempo, 333537
1, 89275, Tempo, 334597
1, 89280, Note_on_c, 0, 58, 0
1, 89280, Note_on_c, 0, 80, 0
1, 89280, Note_on_c, 0, 79, 69
1, 89280, Note_on_c, 0, 51, 48
1, 89280, Control_c, 0, 64, 0
1, 89407, Control_c, 0, 64, 127
1, 89520, Note_on_c, 0, 51, 0
1, 89520, Note_on_c, 0, 58, 39
1, 89760, Note_on_c, 0, 58, 0
1, 89760, Note_on_c, 0, 79, 0
1, 89760, Note_on_c, 0, 53, 41
1, 89772, Control_c, 0, 64, 0
1, 89916, Control_c, 0, 64, 127
1, 90000, Note_on_c, 0, 53, 0
1, 90000, Note_on_c, 0, 58, 33
1, 90240, Note_on_c, 0, 58, 0
1, 90240, Note_on_c, 0, 55, 41
1, 90254, Control_c, 0, 64, 0
1, 90367, Control_c, 0, 64, 127
1, 90480, Note_on_c, 0, 55, 0
1, 90480, Note_on_c, 0, 58, 33
1, 90720, Tempo, 334597
1, 90720, Note_on_c, 0, 58, 0
1, 90720, Note_on_c, 0, 67, 56
1, 90720, Note_on_c, 0, 51, 40
1, 90720, Control_c, 0, 64, 0
1, 90754, Tempo, 331492
1, 90840, Note_on_c, 0, 67, 0
1, 90874, Tempo, 330579
1, 90960, Note_on_c, 0, 51, 0
1, 90960, Note_on_c, 0, 68, 58
1, 90960, Note_on_c, 0, 58, 28
1, 90994, Tempo, 329670
1, 91080, Note_on_c, 0, 68, 0
1, 91090, Tempo, 328767
1, 91200, Note_on_c, 0, 58, 0
1, 91200, Note_on_c, 0, 70, 60
1, 91200, Note_on_c, 0, 55, 33
1, 91210, Tempo, 327869
1, 91306, Tempo, 326975
1, 91320, Note_on_c, 0, 70, 0
1, 91426, Tempo, 326087
1, 91440, Note_on_c, 0, 55, 0
1, 91440, Note_on_c, 0, 72, 62
1, 91440, Note_on_c, 0, 58, 27
1, 91522, Tempo, 325203
1, 91560, Note_on_c, 0, 72, 0
1, 91642, Tempo, 324324
1, 91680, Note_on_c, 0, 58, 0
1, 91680, Note_on_c, 0, 74, 64
1, 91680, Note_on_c, 0, 51, 35
1, 91738, Tempo, 323450
1, 91800, Note_on_c, 0, 74, 0
1, 91858, Tempo, 322581
1, 91920, Note_on_c, 0, 51, 0
1, 91920, Note_on_c, 0, 75, 65
1, 91920, Note_on_c, 0, 58, 32
1, 91954, Tempo, 321716
1, 92040, Note_on_c, 0, 75, 0
1, 92074, Tempo, 320856
1, 92160, Note_on_c, 0, 58, 0
1, 92160, Note_on_c, 0, 77, 70
1, 92160, Note_on_c, 0, 51, 41
1, 92170, Tempo, 320000
1, 92280, Note_on_c, 0, 77, 0
1, 92400, Tempo, 316623
1, 92400, Note_on_c, 0, 51, 0
1, 92400, Note_on_c, 0, 79, 73
1, 92400, Note_on_c, 0, 58, 38
1, 92520, Note_on_c, 0, 79, 0
1, 92640, Note_on_c, 0, 58, 0
1, 92640, Note_on_c, 0, 80, 76
1, 92640, Note_on_c, 0, 55, 48
1, 92760, Note_on_c, 0, 80, 0
1, 92880, Note_on_c, 0, 55, 0
1, 92880, Note_on_c, 0, 82, 78
1, 92880, Note_on_c, 0, 58, 41
1, 93000, Note_on_c, 0, 82, 0
1, 93120, Note_on_c, 0, 58, 0
1, 93120, Note_on_c, 0, 84, 81
1, 93120, Note_on_c, 0, 51, 54
1, 93240, Note_on_c, 0, 84, 0
1, 93360, Tempo, 380952
1, 93360, Note_on_c, 0, 51, 0
1, 93360, Note_on_c, 0, 86, 84
1, 93360, Note_on_c, 0, 58, 51
1, 93480, Note_on_c, 0, 86, 0
1, 93600, Tempo, 353982
1, 93600, Note_on_c, 0, 58, 0
1, 93600, Note_on_c, 0, 87, 91
1, 93600, Note_on_c, 0, 53, 52
1, 93600, Control_c, 0, 64, 0
1, 93720, Tempo, 332484
1, 93741, Control_c, 0, 64, 127
1, 93755, Tempo, 327869
1, 93840, Note_on_c, 0, 53, 0
1, 93840, Note_on_c, 0, 58, 48
1, 93875, Tempo, 326975
1, 93971, Tempo, 326087
1, 94067, Tempo, 325203
1, 94080, Note_on_c, 0, 58, 0
1, 94080, Note_on_c, 0, 56, 52
1, 94095, Control_c, 0, 64, 0
1, 94179, Control_c, 0, 64, 127
1, 94187, Tempo, 324324
1, 94283, Tempo, 323450
1, 94320, Note_on_c, 0, 56, 0
1, 94320, Note_on_c, 0, 58, 44
1, 94379, Tempo, 322581
1, 94451, Tempo, 321716
1, 94523, Tempo, 322581
1, 94560, Note_on_c, 0, 58, 0
1, 94560, Note_on_c, 0, 53, 46
1, 94566, Control_c, 0, 64, 0
1, 94595, Tempo, 323450
1, 94667, Tempo, 324324
1, 94701, Control_c, 0, 64, 127
1, 94739, Tempo, 325203
1, 94800, Note_on_c, 0, 53, 0
1, 94800, Note_on_c, 0, 58, 43
1, 94811, Tempo, 326087
1, 94883, Tempo, 326975
1, 94955, Tempo, 327869
1, 94979, Tempo, 328767
1, 95003, Tempo, 328767
1, 95035, Tempo, 334597
1, 95040, Note_on_c, 0, 58, 0
1, 95040, Note_on_c, 0, 87, 0
1, 95040, Note_on_c, 0, 86, 71
1, 95040, Note_on_c, 0, 53, 43
1, 95046, Control_c, 0, 64, 0
1, 95051, Tempo, 328767
1, 95167, Control_c, 0, 64, 127
1, 95280, Note_on_c, 0, 53, 0
1, 95280, Note_on_c, 0, 58, 31
1, 95520, Note_on_c, 0, 58, 0
1, 95520, Note_on_c, 0, 86, 0
1, 95520, Note_on_c, 0, 56, 39
1, 95532, Control_c, 0, 64, 0
1, 95676, Control_c, 0, 64, 127
1, 95760, Note_on_c, 0, 56, 0
1, 95760, Note_on_c, 0, 58, 31
1, 96000, Note_on_c, 0, 58, 0
1, 96000, Note_on_c, 0, 53, 39
1, 96014, Control_c, 0, 64, 0
1, 96127, Control_c, 0, 64, 127
1, 96240, Note_on_c, 0, 53, 0
1, 96240, Note_on_c, 0, 58, 31
1, 96467, Tempo, 328767
1, 96478, Note_on_c, 0, 58, 0
1, 96480, Note_on_c, 0, 58, 56
1, 96480, Note_on_c, 0, 50, 40
1, 96480, Control_c, 0, 64, 0
1, 96600, Note_on_c, 0, 58, 0
1, 96659, Tempo, 327869
1, 96720, Note_on_c, 0, 50, 0
1, 96720, Note_on_c, 0, 60, 58
1, 96720, Note_on_c, 0, 58, 32
1, 96827, Tempo, 326975
1, 96840, Note_on_c, 0, 60, 0
1, 96960, Note_on_c, 0, 58, 0
1, 96960, Note_on_c, 0, 62, 60
1, 96960, Note_on_c, 0, 53, 39
1, 97019, Tempo, 326087
1, 97080, Note_on_c, 0, 62, 0
1, 97187, Tempo, 325203
1, 97200, Note_on_c, 0, 53, 0
1, 97200, Note_on_c, 0, 63, 62
1, 97200, Note_on_c, 0, 58, 29
1, 97320, Note_on_c, 0, 63, 0
1, 97379, Tempo, 324324
1, 97440, Note_on_c, 0, 58, 0
1, 97440, Note_on_c, 0, 65, 64
1, 97440, Note_on_c, 0, 50, 46
1, 97547, Tempo, 323450
1, 97560, Note_on_c, 0, 65, 0
1, 97680, Note_on_c, 0, 50, 0
1, 97680, Note_on_c, 0, 67, 65
1, 97680, Note_on_c, 0, 58, 37
1, 97739, Tempo, 322581
1, 97800, Note_on_c, 0, 67, 0
1, 97907, Tempo, 321716
1, 97920, Note_on_c, 0, 58, 0
1, 97920, Note_on_c, 0, 68, 67
1, 97920, Note_on_c, 0, 50, 52
1, 98040, Note_on_c, 0, 68, 0
1, 98160, Tempo, 318302
1, 98160, Note_on_c, 0, 50, 0
1, 98160, Note_on_c, 0, 70, 72
1, 98160, Note_on_c, 0, 58, 43
1, 98280, Note_on_c, 0, 70, 0
1, 98400, Note_on_c, 0, 58, 0
1, 98400, Note_on_c, 0, 72, 74
1, 98400, Note_on_c, 0, 53, 57
1, 98520, Note_on_c, 0, 72, 0
1, 98640, Note_on_c, 0, 53, 0
1, 98640, Note_on_c, 0, 74, 76
1, 98640, Note_on_c, 0, 58, 49
1, 98760, Note_on_c, 0, 74, 0
1, 98880, Note_on_c, 0, 58, 0
1, 98880, Note_on_c, 0, 75, 78
1, 98880, Note_on_c, 0, 50, 62
1, 99000, Note_on_c, 0, 75, 0
1, 99120, Tempo, 344471
1, 99120, Note_on_c, 0, 50, 0
1, 99120, Note_on_c, 0, 77, 80
1, 99120, Note_on_c, 0, 58, 51
1, 99240, Note_on_c, 0, 77, 0
1, 99360, Note_on_c, 0, 58, 0
1, 99360, Note_on_c, 0, 79, 94
1, 99600, Tempo, 334597
1, 99600, Note_on_c, 0, 51, 43
1, 99840, Tempo, 332484
1, 99840, Note_on_c, 0, 51, 0
1, 99840, Note_on_c, 0, 50, 50
1, 100080, Note_on_c, 0, 50, 0
1, 100080, Note_on_c, 0, 51, 44
1, 100320, Note_on_c, 0, 51, 0
1, 100320, Note_on_c, 0, 50, 53
1, 100560, Tempo, 344471
1, 100560, Note_on_c, 0, 50, 0
1, 100560, Note_on_c, 0, 51, 44
1, 100800, Tempo, 333537
1, 100800, Note_on_c, 0, 51, 0
1, 100800, Note_on_c, 0, 79, 0
1, 100800, Note_on_c, 0, 87, 100
1, 100800, Note_on_c, 0, 43, 67
1, 100899, Control_c, 0, 64, 127
1, 101040, Tempo, 330396
1, 101040, Note_on_c, 0, 43, 0
1, 101040, Note_on_c, 0, 51, 45
1, 101280, Note_on_c, 0, 51, 0
1, 101280, Note_on_c, 0, 44, 59
1, 101292, Control_c, 0, 64, 0
1, 101450, Control_c, 0, 64, 127
1, 101520, Note_on_c, 0, 44, 0
1, 101520, Note_on_c, 0, 51, 47
1, 101760, Tempo, 334597
1, 101760, Note_on_c, 0, 51, 0
1, 101760, Note_on_c, 0, 87, 0
1, 101760, Note_on_c, 0, 55, 77
1, 101760, Note_on_c, 0, 46, 61
1, 101776, Control_c, 0, 64, 0
1, 101901, Control_c, 0, 64, 127
1, 102000, Tempo, 344471
1, 102000, Note_on_c, 0, 46, 0
1, 102000, Note_on_c, 0, 51, 44
1, 102240, Tempo, 334597
1, 102240, Note_on_c, 0, 51, 0
1, 102240, Note_on_c, 0, 55, 0
1, 102240, Note_on_c, 0, 56, 82
1, 102240, Note_on_c, 0, 44, 65
1, 102240, Control_c, 0, 64, 0
1, 102424, Control_c, 0, 64, 127
1, 102480, Note_on_c, 0, 44, 0
1, 102480, Note_on_c, 0, 51, 45
1, 102720, Tempo, 332484
1, 102720, Note_on_c, 0, 51, 0
1, 102720, Note_on_c, 0, 46, 57
1, 102730, Control_c, 0, 64, 0
1, 102861, Control_c, 0, 64, 127
1, 102960, Note_on_c, 0, 46, 0
1, 102960, Note_on_c, 0, 51, 42
1, 103200, Note_on_c, 0, 51, 0
1, 103200, Note_on_c, 0, 48, 55
1, 103210, Control_c, 0, 64, 0
1, 103327, Control_c, 0, 64, 127
1, 103440, Tempo, 344471
1, 103440, Note_on_c, 0, 48, 0
1, 103440, Note_on_c, 0, 51, 45
1, 103680, Tempo, 332484
1, 103680, Note_on_c, 0, 51, 0
1, 103680, Note_on_c, 0, 56, 0
1, 103680, Note_on_c, 0, 57, 84
1, 103680, Note_on_c, 0, 45, 67
1, 103680, Control_c, 0, 64, 0
1, 103783, Control_c, 0, 64, 127
1, 103920, Note_on_c, 0, 45, 0
1, 103920, Note_on_c, 0, 51, 45
1, 104160, Note_on_c, 0, 51, 0
1, 104160, Note_on_c, 0, 46, 56
1, 104173, Control_c, 0, 64, 0
1, 104320, Control_c, 0, 64, 127
1, 104400, Note_on_c, 0, 46, 0
1, 104400, Note_on_c, 0, 51, 47
1, 104640, Note_on_c, 0, 51, 0
1, 104640, Note_on_c, 0, 48, 55
1, 104653, Control_c, 0, 64, 0
1, 104755, Control_c, 0, 64, 127
1, 104880, Tempo, 342231
1, 104880, Note_on_c, 0, 48, 0
1, 104880, Note_on_c, 0, 51, 44
1, 105120, Tempo, 331437
1, 105120, Note_on_c, 0, 51, 0
1, 105120, Note_on_c, 0, 57, 0
1, 105120, Note_on_c, 0, 58, 84
1, 105120, Note_on_c, 0, 46, 64
1, 105120, Control_c, 0, 64, 0
1, 105304, Control_c, 0, 64, 127
1, 105360, Note_on_c, 0, 46, 0
1, 105360, Note_on_c, 0, 55, 46
1, 105600, Note_on_c, 0, 55, 0
1, 105600, Note_on_c, 0, 51, 56
1, 105840, Note_on_c, 0, 51, 0
1, 105840, Note_on_c, 0, 55, 45
1, 106080, Note_on_c, 0, 55, 0
1, 106080, Note_on_c, 0, 46, 57
1, 106320, Tempo, 338906
1, 106320, Note_on_c, 0, 46, 0
1, 106320, Note_on_c, 0, 55, 46
1, 106545, Tempo, 338906
1, 106560, Note_on_c, 0, 55, 0
1, 106560, Note_on_c, 0, 58, 0
1, 106560, Note_on_c, 0, 56, 84
1, 106560, Note_on_c, 0, 46, 64
1, 106593, Tempo, 337819
1, 106617, Tempo, 336738
1, 106617, Control_c, 0, 64, 0
1, 106641, Tempo, 335664
1, 106665, Tempo, 334597
1, 106680, Note_on_c, 0, 56, 0
1, 106680, Note_on_c, 0, 58, 57
1, 106680, Control_c, 0, 64, 127
1, 106713, Tempo, 333537
1, 106737, Tempo, 332484
1, 106761, Tempo, 331437
1, 106785, Tempo, 330396
1, 106800, Note_on_c, 0, 58, 0
1, 106800, Note_on_c, 0, 46, 0
1, 106800, Note_on_c, 0, 56, 61
1, 106800, Note_on_c, 0, 53, 46
1, 106880, Note_on_c, 0, 56, 0
1, 106880, Note_on_c, 0, 58, 57
1, 106960, Note_on_c, 0, 58, 0
1, 106960, Note_on_c, 0, 56, 64
1, 107040, Note_on_c, 0, 56, 0
1, 107040, Note_on_c, 0, 53, 0
1, 107040, Note_on_c, 0, 58, 56
1, 107040, Note_on_c, 0, 50, 55
1, 107120, Note_on_c, 0, 58, 0
1, 107120, Note_on_c, 0, 56, 64
1, 107200, Note_on_c, 0, 56, 0
1, 107200, Note_on_c, 0, 58, 56
1, 107280, Note_on_c, 0, 58, 0
1, 107280, Note_on_c, 0, 50, 0
1, 107280, Note_on_c, 0, 56, 64
1, 107280, Note_on_c, 0, 53, 45
1, 107360, Note_on_c, 0, 56, 0
1, 107360, Note_on_c, 0, 58, 55
1, 107440, Note_on_c, 0, 58, 0
1, 107440, Note_on_c, 0, 56, 64
1, 107520, Note_on_c, 0, 56, 0
1, 107520, Note_on_c, 0, 53, 0
1, 107520, Note_on_c, 0, 58, 54
1, 107520, Note_on_c, 0, 46, 55
1, 107553, Tempo, 329345
1, 107601, Tempo, 330396
1, 107640, Note_on_c, 0, 58, 0
1, 107640, Note_on_c, 0, 56, 59
1, 107649, Tempo, 331437
1, 107697, Tempo, 332484
1, 107745, Tempo, 333537
1, 107760, Note_on_c, 0, 56, 0
1, 107760, Note_on_c, 0, 46, 0
1, 107760, Note_on_c, 0, 55, 55
1, 107760, Note_on_c, 0, 53, 46
1, 107793, Tempo, 334597
1, 107841, Tempo, 335664
1, 107880, Note_on_c, 0, 55, 0
1, 107880, Note_on_c, 0, 56, 57
1, 107889, Tempo, 336738
1, 107937, Tempo, 337819
1, 108000, Tempo, 332484
1, 108000, Note_on_c, 0, 56, 0
1, 108000, Note_on_c, 0, 53, 0
1, 108000, Note_on_c, 0, 55, 74
1, 108000, Note_on_c, 0, 39, 64
1, 108000, Note_on_c, 0, 51, 64
1, 108054, Control_c, 0, 64, 0
1, 108240, Tempo, 329670
1, 108240, Note_on_c, 0, 55, 0
1, 108240, Note_on_c, 0, 58, 60
1, 108283, Control_c, 0, 64, 127
1, 108480, Note_on_c, 0, 58, 0
1, 108480, Note_on_c, 0, 51, 0
1, 108480, Note_on_c, 0, 39, 0
1, 108480, Note_on_c, 0, 63, 68
1, 108720, Note_on_c, 0, 63, 0
1, 108720, Note_on_c, 0, 58, 61
1, 108960, Note_on_c, 0, 58, 0
1, 108960, Note_on_c, 0, 63, 69
1, 109200, Note_on_c, 0, 63, 0
1, 109200, Note_on_c, 0, 67, 63
1, 109440, Tempo, 326087
1, 109440, Note_on_c, 0, 67, 0
1, 109440, Note_on_c, 0, 70, 69
1, 109680, Note_on_c, 0, 70, 0
1, 109680, Note_on_c, 0, 67, 60
1, 109920, Note_on_c, 0, 67, 0
1, 109920, Note_on_c, 0, 70, 69
1, 110160, Note_on_c, 0, 70, 0
1, 110160, Note_on_c, 0, 75, 62
1, 110400, Note_on_c, 0, 75, 0
1, 110400, Note_on_c, 0, 79, 73
1, 110640, Note_on_c, 0, 79, 0
1, 110640, Note_on_c, 0, 82, 65
1, 110880, Tempo, 333537
1, 110880, Note_on_c, 0, 82, 0
1, 110880, Note_on_c, 0, 87, 89
1, 110880, Note_on_c, 0, 43, 67
1, 110880, Control_c, 0, 64, 0
1, 110979, Control_c, 0, 64, 127
1, 111120, Tempo, 330396
1, 111120, Note_on_c, 0, 43, 0
1, 111120, Note_on_c, 0, 87, 0
1, 111120, Note_on_c, 0, 51, 45
1, 111360, Note_on_c, 0, 51, 0
1, 111360, Note_on_c, 0, 44, 59
1, 111372, Control_c, 0, 64, 0
1, 111530, Control_c, 0, 64, 127
1, 111600, Note_on_c, 0, 44, 0
1, 111600, Note_on_c, 0, 51, 47
1, 111840, Tempo, 334597
1, 111840, Note_on_c, 0, 51, 0
1, 111840, Note_on_c, 0, 63, 84
1, 111840, Note_on_c, 0, 46, 61
1, 111856, Control_c, 0, 64, 0
1, 111981, Control_c, 0, 64, 127
1, 112080, Tempo, 344471
1, 112080, Note_on_c, 0, 46, 0
1, 112080, Note_on_c, 0, 51, 44
1, 112320, Tempo, 333537
1, 112320, Note_on_c, 0, 51, 0
1, 112320, Note_on_c, 0, 43, 67
1, 112419, Control_c, 0, 64, 127
1, 112560, Tempo, 330396
1, 112560, Note_on_c, 0, 43, 0
1, 112560, Note_on_c, 0, 51, 45
1, 112800, Note_on_c, 0, 51, 0
1, 112800, Note_on_c, 0, 44, 57
1, 112812, Control_c, 0, 64, 0
1, 112970, Control_c, 0, 64, 127
1, 113040, Note_on_c, 0, 44, 0
1, 113040, Note_on_c, 0, 51, 52
1, 113280, Tempo, 334597
1, 113280, Note_on_c, 0, 51, 0
1, 113280, Note_on_c, 0, 63, 0
1, 113280, Note_on_c, 0, 55, 81
1, 113280, Note_on_c, 0, 46, 61
1, 113296, Control_c, 0, 64, 0
1, 113421, Control_c, 0, 64, 127
1, 113520, Tempo, 344471
1, 113520, Note_on_c, 0, 46, 0
1, 113520, Note_on_c, 0, 51, 44
1, 113760, Tempo, 334597
1, 113760, Note_on_c, 0, 51, 0
1, 113760, Note_on_c, 0, 55, 0
1, 113760, Note_on_c, 0, 56, 84
1, 113760, Note_on_c, 0, 44, 65
1, 113760, Control_c, 0, 64, 0
1, 113944, Control_c, 0, 64, 127
1, 114000, Note_on_c, 0, 44, 0
1, 114000, Note_on_c, 0, 51, 45
1, 114240, Tempo, 328767
1, 114240, Note_on_c, 0, 51, 0
1, 114240, Note_on_c, 0, 46, 58
1, 114250, Control_c, 0, 64, 0
1, 114381, Control_c, 0, 64, 127
1, 114480, Note_on_c, 0, 46, 0
1, 114480, Note_on_c, 0, 51, 42
1, 114720, Note_on_c, 0, 51, 0
1, 114720, Note_on_c, 0, 56, 0
1, 114720, Note_on_c, 0, 63, 84
1, 114720, Note_on_c, 0, 48, 57
1, 114730, Control_c, 0, 64, 0
1, 114847, Control_c, 0, 64, 127
1, 114960, Tempo, 344471
1, 114960, Note_on_c, 0, 48, 0
1, 114960, Note_on_c, 0, 51, 45
1, 115200, Tempo, 332484
1, 115200, Note_on_c, 0, 51, 0
1, 115200, Note_on_c, 0, 63, 0
1, 115200, Note_on_c, 0, 57, 92
1, 115200, Note_on_c, 0, 45, 67
1, 115200, Control_c, 0, 64, 0
1, 115303, Control_c, 0, 64, 127
1, 115440, Note_on_c, 0, 45, 0
1, 115440, Note_on_c, 0, 51, 45
1, 115680, Tempo, 328767
1, 115680, Note_on_c, 0, 51, 0
1, 115680, Note_on_c, 0, 46, 56
1, 115693, Control_c, 0, 64, 0
1, 115840, Control_c, 0, 64, 127
1, 115920, Note_on_c, 0, 46, 0
1, 115920, Note_on_c, 0, 51, 47
1, 116160, Note_on_c, 0, 51, 0
1, 116160, Note_on_c, 0, 57, 0
1, 116160, Note_on_c, 0, 63, 84
1, 116160, Note_on_c, 0, 48, 58
1, 116173, Control_c, 0, 64, 0
1, 116275, Control_c, 0, 64, 127
1, 116400, Tempo, 342231
1, 116400, Note_on_c, 0, 48, 0
1, 116400, Note_on_c, 0, 51, 44
1, 116640, Tempo, 332484
1, 116640, Note_on_c, 0, 51, 0
1, 116640, Note_on_c, 0, 63, 0
1, 116640, Note_on_c, 0, 58, 77
1, 116640, Note_on_c, 0, 46, 67
1, 116640, Control_c, 0, 64, 0
1, 116743, Control_c, 0, 64, 127
1, 116880, Tempo, 325203
1, 116880, Note_on_c, 0, 46, 0
1, 116880, Note_on_c, 0, 58, 0
1, 116880, Note_on_c, 0, 63, 59
1, 116880, Note_on_c, 0, 51, 52
1, 117120, Note_on_c, 0, 51, 0
1, 117120, Note_on_c, 0, 63, 0
1, 117120, Note_on_c, 0, 62, 68
1, 117120, Note_on_c, 0, 50, 61
1, 117133, Control_c, 0, 64, 0
1, 117280, Control_c, 0, 64, 127
1, 117360, Note_on_c, 0, 50, 0
1, 117360, Note_on_c, 0, 62, 0
1, 117360, Note_on_c, 0, 63, 55
1, 117360, Note_on_c, 0, 51, 48
1, 117600, Note_on_c, 0, 51, 0
1, 117600, Note_on_c, 0, 63, 0
1, 117600, Note_on_c, 0, 59, 65
1, 117600, Note_on_c, 0, 47, 62
1, 117613, Control_c, 0, 64, 0
1, 117715, Control_c, 0, 64, 127
1, 117840, Tempo, 342231
1, 117840, Note_on_c, 0, 47, 0
1, 117840, Note_on_c, 0, 59, 0
1, 117840, Note_on_c, 0, 63, 59
1, 117840, Note_on_c, 0, 51, 53
1, 118080, Tempo, 332484
1, 118080, Note_on_c, 0, 51, 0
1, 118080, Note_on_c, 0, 63, 0
1, 118080, Note_on_c, 0, 60, 82
1, 118080, Note_on_c, 0, 48, 71
1, 118080, Control_c, 0, 64, 0
1, 118183, Control_c, 0, 64, 127
1, 118320, Tempo, 324324
1, 118320, Note_on_c, 0, 48, 0
1, 118320, Note_on_c, 0, 60, 0
1, 118320, Note_on_c, 0, 63, 62
1, 118320, Note_on_c, 0, 51, 54
1, 118560, Note_on_c, 0, 51, 0
1, 118560, Note_on_c, 0, 63, 0
1, 118560, Note_on_c, 0, 62, 71
1, 118560, Note_on_c, 0, 50, 65
1, 118573, Control_c, 0, 64, 0
1, 118720, Control_c, 0, 64, 127
1, 118800, Note_on_c, 0, 50, 0
1, 118800, Note_on_c, 0, 62, 0
1, 118800, Note_on_c, 0, 63, 59
1, 118800, Note_on_c, 0, 51, 52
1, 119040, Note_on_c, 0, 51, 0
1, 119040, Note_on_c, 0, 63, 0
1, 119040, Note_on_c, 0, 57, 66
1, 119040, Note_on_c, 0, 45, 64
1, 119053, Control_c, 0, 64, 0
1, 119155, Control_c, 0, 64, 127
1, 119280, Tempo, 342231
1, 119280, Note_on_c, 0, 45, 0
1, 119280, Note_on_c, 0, 57, 0
1, 119280, Note_on_c, 0, 63, 56
1, 119280, Note_on_c, 0, 51, 49
1, 119520, Tempo, 332484
1, 119520, Note_on_c, 0, 51, 0
1, 119520, Note_on_c, 0, 63, 0
1, 119520, Note_on_c, 0, 58, 88
1, 119520, Note_on_c, 0, 46, 77
1, 119520, Control_c, 0, 64, 0
1, 119623, Control_c, 0, 64, 127
1, 119760, Tempo, 323450
1, 119760, Note_on_c, 0, 46, 0
1, 119760, Note_on_c, 0, 58, 0
1, 119760, Note_on_c, 0, 63, 58
1, 119760, Note_on_c, 0, 51, 58
1, 120000, Note_on_c, 0, 51, 0
1, 120000, Note_on_c, 0, 63, 0
1, 120000, Note_on_c, 0, 61, 72
1, 120000, Note_on_c, 0, 49, 65
1, 120013, Control_c, 0, 64, 0
1, 120160, Control_c, 0, 64, 127
1, 120240, Note_on_c, 0, 49, 0
1, 120240, Note_on_c, 0, 61, 0
1, 120240, Note_on_c, 0, 63, 62
1, 120240, Note_on_c, 0, 51, 56
1, 120480, Note_on_c, 0, 51, 0
1, 120480, Note_on_c, 0, 63, 0
1, 120480, Note_on_c, 0, 59, 72
1, 120480, Note_on_c, 0, 47, 70
1, 120493, Control_c, 0, 64, 0
1, 120595, Control_c, 0, 64, 127
1, 120720, Tempo, 342231
1, 120720, Note_on_c, 0, 47, 0
1, 120720, Note_on_c, 0, 59, 0
1, 120720, Note_on_c, 0, 63, 64
1, 120720, Note_on_c, 0, 51, 54
1, 120960, Tempo, 332484
1, 120960, Note_on_c, 0, 51, 0
1, 120960, Note_on_c, 0, 63, 0
1, 120960, Note_on_c, 0, 60, 88
1, 120960, Note_on_c, 0, 48, 77
1, 120960, Control_c, 0, 64, 0
1, 121063, Control_c, 0, 64, 127
1, 121200, Tempo, 323450
1, 121200, Note_on_c, 0, 48, 0
1, 121200, Note_on_c, 0, 60, 0
1, 121200, Note_on_c, 0, 63, 65
1, 121200, Note_on_c, 0, 51, 57
1, 121440, Note_on_c, 0, 51, 0
1, 121440, Note_on_c, 0, 63, 0
1, 121440, Note_on_c, 0, 62, 75
1, 121440, Note_on_c, 0, 50, 63
1, 121453, Control_c, 0, 64, 0
1, 121600, Control_c, 0, 64, 127
1, 121680, Note_on_c, 0, 50, 0
1, 121680, Note_on_c, 0, 62, 0
1, 121680, Note_on_c, 0, 63, 65
1, 121680, Note_on_c, 0, 51, 58
1, 121920, Note_on_c, 0, 51, 0
1, 121920, Note_on_c, 0, 63, 0
1, 121920, Note_on_c, 0, 57, 80
1, 121920, Note_on_c, 0, 45, 71
1, 121933, Control_c, 0, 64, 0
1, 122035, Control_c, 0, 64, 127
1, 122160, Tempo, 342231
1, 122160, Note_on_c, 0, 45, 0
1, 122160, Note_on_c, 0, 57, 0
1, 122160, Note_on_c, 0, 63, 72
1, 122160, Note_on_c, 0, 51, 65
1, 122400, Note_on_c, 0, 51, 0
1, 122400, Note_on_c, 0, 63, 0
1, 122400, Note_on_c, 0, 58, 93
1, 122400, Note_on_c, 0, 46, 82
1, 122400, Control_c, 0, 64, 0
1, 122880, Note_on_c, 0, 46, 0
1, 122880, Note_on_c, 0, 58, 0
1, 122880, Note_on_c, 0, 46, 77
1, 122880, Note_on_c, 0, 51, 77
1, 122880, Note_on_c, 0, 55, 87
1, 123000, Note_on_c, 0, 55, 0
1, 123000, Note_on_c, 0, 51, 0
1, 123000, Note_on_c, 0, 46, 0
1, 123240, Note_on_c, 0, 63, 81
1, 123260, Control_c, 0, 64, 127
1, 123360, Tempo, 327869
1, 123360, Note_on_c, 0, 63, 0
1, 123360, Note_on_c, 0, 70, 87
1, 123720, Tempo, 354946
1, 123720, Note_on_c, 0, 70, 0
1, 123720, Note_on_c, 0, 67, 84
1, 123840, Tempo, 338906
1, 123840, Note_on_c, 0, 67, 0
1, 123840, Note_on_c, 0, 75, 93
1, 123840, Control_c, 0, 64, 0
1, 123960, Note_on_c, 0, 75, 0
1, 124320, Tempo, 342231
1, 124320, Note_on_c, 0, 51, 77
1, 124320, Note_on_c, 0, 48, 77
1, 124320, Note_on_c, 0, 54, 87
1, 124440, Note_on_c, 0, 54, 0
1, 124440, Note_on_c, 0, 48, 0
1, 124440, Note_on_c, 0, 51, 0
1, 124680, Note_on_c, 0, 63, 81
1, 124700, Control_c, 0, 64, 127
1, 124800, Tempo, 328767
1, 124800, Note_on_c, 0, 63, 0
1, 124800, Note_on_c, 0, 69, 87
1, 125160, Tempo, 354946
1, 125160, Note_on_c, 0, 69, 0
1, 125160, Note_on_c, 0, 66, 84
1, 125280, Tempo, 338906
1, 125280, Note_on_c, 0, 66, 0
1, 125280, Note_on_c, 0, 75, 93
1, 125280, Control_c, 0, 64, 0
1, 125400, Note_on_c, 0, 75, 0
1, 125760, Tempo, 342231
1, 125760, Note_on_c, 0, 55, 87
1, 125760, Note_on_c, 0, 46, 77
1, 125760, Note_on_c, 0, 51, 77
1, 125880, Note_on_c, 0, 51, 0
1, 125880, Note_on_c, 0, 46, 0
1, 125880, Note_on_c, 0, 55, 0
1, 126120, Note_on_c, 0, 63, 81
1, 126140, Control_c, 0, 64, 127
1, 126240, Tempo, 327869
1, 126240, Note_on_c, 0, 63, 0
1, 126240, Note_on_c, 0, 70, 87
1, 126600, Tempo, 354946
1, 126600, Note_on_c, 0, 70, 0
1, 126600, Note_on_c, 0, 67, 84
1, 126720, Tempo, 338906
1, 126720, Note_on_c, 0, 67, 0
1, 126720, Note_on_c, 0, 75, 93
1, 126720, Control_c, 0, 64, 0
1, 126840, Note_on_c, 0, 75, 0
1, 127200, Tempo, 342231
1, 127200, Note_on_c, 0, 57, 87
1, 127200, Note_on_c, 0, 51, 77
1, 127200, Note_on_c, 0, 54, 77
1, 127200, Note_on_c, 0, 45, 77
1, 127320, Note_on_c, 0, 45, 0
1, 127320, Note_on_c, 0, 57, 0
1, 127320, Note_on_c, 0, 51, 0
1, 127320, Note_on_c, 0, 54, 0
1, 127560, Note_on_c, 0, 72, 81
1, 127580, Control_c, 0, 64, 127
1, 127680, Tempo, 330579
1, 127680, Note_on_c, 0, 72, 0
1, 127680, Note_on_c, 0, 78, 87
1, 128040, Tempo, 354946
1, 128040, Note_on_c, 0, 78, 0
1, 128040, Note_on_c, 0, 75, 84
1, 128160, Tempo, 338906
1, 128160, Note_on_c, 0, 75, 0
1, 128160, Note_on_c, 0, 79, 95
1, 128160, Control_c, 0, 64, 0
1, 128640, Note_on_c, 0, 46, 77
1, 128640, Note_on_c, 0, 58, 87
1, 128640, Note_on_c, 0, 55, 77
1, 128640, Note_on_c, 0, 51, 77
1, 128760, Note_on_c, 0, 51, 0
1, 128760, Note_on_c, 0, 58, 0
1, 128760, Note_on_c, 0, 55, 0
1, 128760, Note_on_c, 0, 46, 0
1, 128880, Note_on_c, 0, 79, 0
1, 128880, Note_on_c, 0, 75, 85
1, 129120, Tempo, 332484
1, 129120, Note_on_c, 0, 75, 0
1, 129120, Note_on_c, 0, 75, 93
1, 129120, Control_c, 0, 64, 127
1, 129360, Note_on_c, 0, 75, 0
1, 129360, Note_on_c, 0, 70, 79
1, 129540, Note_on_c, 0, 70, 0
1, 129600, Tempo, 332484
1, 129600, Note_on_c, 0, 70, 88
1, 129840, Note_on_c, 0, 70, 0
1, 129840, Note_on_c, 0, 67, 78
1, 130020, Note_on_c, 0, 67, 0
1, 130080, Tempo, 327869
1, 130080, Note_on_c, 0, 67, 85
1, 130320, Tempo, 335664
1, 130320, Note_on_c, 0, 67, 0
1, 130320, Note_on_c, 0, 63, 77
1, 130500, Note_on_c, 0, 63, 0
1, 130560, Tempo, 326975
1, 130560, Note_on_c, 0, 63, 81
1, 130800, Tempo, 336738
1, 130800, Note_on_c, 0, 63, 0
1, 130800, Note_on_c, 0, 58, 77
1, 130980, Note_on_c, 0, 58, 0
1, 131040, Tempo, 327869
1, 131040, Note_on_c, 0, 58, 81
1, 131280, Tempo, 337819
1, 131280, Note_on_c, 0, 58, 0
1, 131280, Note_on_c, 0, 55, 77
1, 131460, Note_on_c, 0, 55, 0
1, 131520, Tempo, 331437
1, 131520, Note_on_c, 0, 55, 82
1, 131760, Tempo, 341122
1, 131760, Note_on_c, 0, 55, 0
1, 131760, Note_on_c, 0, 51, 77
1, 131940, Note_on_c, 0, 51, 0
1, 132000, Tempo, 332484
1, 132000, Note_on_c, 0, 51, 83
1, 132240, Tempo, 394971
1, 132240, Note_on_c, 0, 51, 0
1, 132240, Note_on_c, 0, 46, 77
1, 132420, Note_on_c, 0, 46, 0
1, 132480, Tempo, 352568
1, 132480, Note_on_c, 0, 46, 92
1, 132480, Note_on_c, 0, 34, 78
1, 132480, Control_c, 0, 64, 0
1, 133440, Tempo, 359799
1, 133440, Note_on_c, 0, 58, 66
1, 133440, Note_on_c, 0, 62, 78
1, 133440, Note_on_c, 0, 56, 70
1, 133440, Note_on_c, 0, 53, 59
1, 133920, Note_on_c, 0, 53, 0
1, 133920, Note_on_c, 0, 34, 0
1, 133920, Note_on_c, 0, 58, 0
1, 133920, Note_on_c, 0, 46, 0
1, 133920, Note_on_c, 0, 56, 0
1, 133920, Note_on_c, 0, 62, 0
1, 133920, Note_on_c, 0, 58, 70
1, 133920, Note_on_c, 0, 63, 83
1, 133920, Note_on_c, 0, 55, 79
1, 133920, Note_on_c, 0, 39, 67
1, 134400, Tempo, 346741
1, 134400, Note_on_c, 0, 39, 0
1, 134400, Note_on_c, 0, 58, 0
1, 134400, Note_on_c, 0, 63, 0
1, 134400, Note_on_c, 0, 55, 0
1, 134400, Note_on_c, 0, 46, 51
1, 134880, Note_on_c, 0, 45, 51
1, 135360, Tempo, 356146
1, 135360, Note_on_c, 0, 45, 0
1, 135360, Note_on_c, 0, 44, 51
1, 135840, Tempo, 346741
1, 135840, Note_on_c, 0, 44, 0
1, 135840, Note_on_c, 0, 70, 53
1, 135840, Note_on_c, 0, 65, 42
1, 135840, Note_on_c, 0, 68, 42
1, 135840, Note_on_c, 0, 62, 42
1, 135840, Note_on_c, 0, 43, 49
1, 136320, Tempo, 352568
1, 136320, Note_on_c, 0, 43, 0
1, 136320, Note_on_c, 0, 70, 0
1, 136320, Note_on_c, 0, 65, 0
1, 136320, Note_on_c, 0, 68, 0
1, 136320, Note_on_c, 0, 62, 0
1, 136320, Note_on_c, 0, 62, 38
1, 136320, Note_on_c, 0, 65, 38
1, 136320, Note_on_c, 0, 68, 38
1, 136320, Note_on_c, 0, 70, 48
1, 136320, Note_on_c, 0, 41, 49
1, 136800, Tempo, 347887
1, 136800, Note_on_c, 0, 41, 0
1, 136800, Note_on_c, 0, 62, 0
1, 136800, Note_on_c, 0, 65, 0
1, 136800, Note_on_c, 0, 46, 0
1, 136800, Note_on_c, 0, 70, 0
1, 136800, Note_on_c, 0, 68, 0
1, 136800, Note_on_c, 0, 63, 42
1, 136800, Note_on_c, 0, 67, 42
1, 136800, Note_on_c, 0, 72, 53
1, 136800, Note_on_c, 0, 39, 51
1, 136987, Control_c, 0, 64, 127
1, 137280, Note_on_c, 0, 39, 0
1, 137280, Note_on_c, 0, 72, 0
1, 137280, Note_on_c, 0, 70, 49
1, 137280, Note_on_c, 0, 43, 47
1, 137295, Control_c, 0, 64, 0
1, 137760, Note_on_c, 0, 43, 0
1, 137760, Note_on_c, 0, 63, 0
1, 137760, Note_on_c, 0, 67, 0
1, 137760, Note_on_c, 0, 70, 0
1, 137760, Note_on_c, 0, 46, 47
1, 138240, Tempo, 359799
1, 138240, Note_on_c, 0, 46, 0
1, 138240, Note_on_c, 0, 34, 51
1, 138720, Tempo, 346741
1, 138720, Note_on_c, 0, 34, 0
1, 138720, Note_on_c, 0, 65, 42
1, 138720, Note_on_c, 0, 68, 42
1, 138720, Note_on_c, 0, 74, 53
1, 138720, Note_on_c, 0, 41, 48
1, 138880, Control_c, 0, 64, 127
1, 139200, Tempo, 352568
1, 139200, Note_on_c, 0, 41, 0
1, 139200, Note_on_c, 0, 65, 0
1, 139200, Note_on_c, 0, 68, 0
1, 139200, Note_on_c, 0, 74, 0
1, 139200, Note_on_c, 0, 65, 38
1, 139200, Note_on_c, 0, 68, 38
1, 139200, Note_on_c, 0, 74, 48
1, 139200, Note_on_c, 0, 46, 48
1, 139680, Tempo, 346741
1, 139680, Note_on_c, 0, 46, 0
1, 139680, Note_on_c, 0, 65, 0
1, 139680, Note_on_c, 0, 68, 0
1, 139680, Note_on_c, 0, 74, 0
1, 139680, Note_on_c, 0, 67, 42
1, 139680, Note_on_c, 0, 70, 42
1, 139680, Note_on_c, 0, 77, 53
1, 139680, Note_on_c, 0, 39, 67
1, 139680, Control_c, 0, 64, 0
1, 140023, Control_c, 0, 64, 127
1, 140160, Tempo, 346741
1, 140160, Note_on_c, 0, 39, 0
1, 140160, Note_on_c, 0, 77, 0
1, 140160, Note_on_c, 0, 75, 49
1, 140160, Note_on_c, 0, 46, 51
1, 140180, Control_c, 0, 64, 0
1, 140640, Note_on_c, 0, 75, 0
1, 140640, Note_on_c, 0, 67, 0
1, 140640, Note_on_c, 0, 70, 0
1, 140640, Note_on_c, 0, 45, 51
1, 141120, Tempo, 356146
1, 141120, Note_on_c, 0, 45, 0
1, 141120, Note_on_c, 0, 44, 51
1, 141600, Tempo, 346741
1, 141600, Note_on_c, 0, 44, 0
1, 141600, Note_on_c, 0, 62, 42
1, 141600, Note_on_c, 0, 65, 42
1, 141600, Note_on_c, 0, 68, 42
1, 141600, Note_on_c, 0, 70, 53
1, 141600, Note_on_c, 0, 43, 49
1, 142080, Tempo, 352568
1, 142080, Note_on_c, 0, 43, 0
1, 142080, Note_on_c, 0, 62, 0
1, 142080, Note_on_c, 0, 65, 0
1, 142080, Note_on_c, 0, 68, 0
1, 142080, Note_on_c, 0, 70, 0
1, 142080, Note_on_c, 0, 70, 48
1, 142080, Note_on_c, 0, 65, 38
1, 142080, Note_on_c, 0, 68, 38
1, 142080, Note_on_c, 0, 62, 38
1, 142080, Note_on_c, 0, 41, 49
1, 142560, Tempo, 347887
1, 142560, Note_on_c, 0, 41, 0
1, 142560, Note_on_c, 0, 70, 0
1, 142560, Note_on_c, 0, 65, 0
1, 142560, Note_on_c, 0, 46, 0
1, 142560, Note_on_c, 0, 62, 0
1, 142560, Note_on_c, 0, 68, 0
1, 142560, Note_on_c, 0, 63, 42
1, 142560, Note_on_c, 0, 67, 42
1, 142560, Note_on_c, 0, 72, 53
1, 142560, Note_on_c, 0, 39, 51
1, 142800, Control_c, 0, 64, 127
1, 143040, Note_on_c, 0, 39, 0
1, 143040, Note_on_c, 0, 72, 0
1, 143040, Note_on_c, 0, 70, 49
1, 143040, Note_on_c, 0, 43, 47
1, 143060, Control_c, 0, 64, 0
1, 143520, Note_on_c, 0, 43, 0
1, 143520, Note_on_c, 0, 63, 0
1, 143520, Note_on_c, 0, 67, 0
1, 143520, Note_on_c, 0, 70, 0
1, 143520, Note_on_c, 0, 46, 47
1, 144000, Tempo, 359799
1, 144000, Note_on_c, 0, 46, 0
1, 144000, Note_on_c, 0, 34, 51
1, 144480, Tempo, 346741
1, 144480, Note_on_c, 0, 34, 0
1, 144480, Note_on_c, 0, 53, 42
1, 144480, Note_on_c, 0, 56, 42
1, 144480, Note_on_c, 0, 62, 53
1, 144480, Note_on_c, 0, 41, 48
1, 144694, Control_c, 0, 64, 127
1, 144960, Tempo, 352568
1, 144960, Note_on_c, 0, 41, 0
1, 144960, Note_on_c, 0, 53, 0
1, 144960, Note_on_c, 0, 56, 0
1, 144960, Note_on_c, 0, 62, 0
1, 144960, Note_on_c, 0, 53, 38
1, 144960, Note_on_c, 0, 56, 38
1, 144960, Note_on_c, 0, 62, 48
1, 144960, Note_on_c, 0, 46, 48
1, 145440, Tempo, 346741
1, 145440, Note_on_c, 0, 46, 0
1, 145440, Note_on_c, 0, 53, 0
1, 145440, Note_on_c, 0, 56, 0
1, 145440, Note_on_c, 0, 62, 0
1, 145440, Note_on_c, 0, 55, 42
1, 145440, Note_on_c, 0, 58, 42
1, 145440, Note_on_c, 0, 65, 53
1, 145440, Note_on_c, 0, 39, 51
1, 145440, Control_c, 0, 64, 0
1, 145680, Control_c, 0, 64, 127
1, 145920, Note_on_c, 0, 39, 0
1, 145920, Note_on_c, 0, 65, 0
1, 145920, Note_on_c, 0, 63, 49
1, 145920, Note_on_c, 0, 43, 47
1, 145940, Control_c, 0, 64, 0
1, 146400, Note_on_c, 0, 43, 0
1, 146400, Note_on_c, 0, 55, 0
1, 146400, Note_on_c, 0, 58, 0
1, 146400, Note_on_c, 0, 63, 0
1, 146400, Note_on_c, 0, 46, 47
1, 146880, Tempo, 359799
1, 146880, Note_on_c, 0, 46, 0
1, 146880, Note_on_c, 0, 34, 51
1, 147360, Tempo, 346741
1, 147360, Note_on_c, 0, 34, 0
1, 147360, Note_on_c, 0, 53, 42
1, 147360, Note_on_c, 0, 56, 42
1, 147360, Note_on_c, 0, 62, 53
1, 147360, Note_on_c, 0, 41, 48
1, 147440, Control_c, 0, 64, 127
1, 147840, Tempo, 375235
1, 147840, Note_on_c, 0, 41, 0
1, 147840, Note_on_c, 0, 53, 0
1, 147840, Note_on_c, 0, 56, 0
1, 147840, Note_on_c, 0, 62, 0
1, 147840, Note_on_c, 0, 53, 38
1, 147840, Note_on_c, 0, 56, 38
1, 147840, Note_on_c, 0, 62, 48
1, 147840, Note_on_c, 0, 46, 48
1, 148320, Tempo, 361054
1, 148320, Note_on_c, 0, 46, 0
1, 148320, Note_on_c, 0, 53, 0
1, 148320, Note_on_c, 0, 56, 0
1, 148320, Note_on_c, 0, 62, 0
1, 148320, Note_on_c, 0, 56, 42
1, 148320, Note_on_c, 0, 62, 42
1, 148320, Note_on_c, 0, 65, 53
1, 148320, Note_on_c, 0, 39, 51
1, 148320, Control_c, 0, 64, 0
1, 148694, Control_c, 0, 64, 127
1, 148800, Tempo, 384837
1, 148800, Note_on_c, 0, 39, 0
1, 148800, Note_on_c, 0, 43, 47
1, 149280, Tempo, 464900
1, 149280, Note_on_c, 0, 43, 0
1, 149280, Note_on_c, 0, 46, 47
1, 149760, Note_on_c, 0, 46, 0
1, 149760, Note_on_c, 0, 56, 0
1, 149760, Note_on_c, 0, 62, 0
1, 149760, Note_on_c, 0, 65, 0
1, 149760, Note_on_c, 0, 58, 44
1, 149760, Note_on_c, 0, 63, 49
1, 149760, Note_on_c, 0, 51, 40
1, 149760, Note_on_c, 0, 55, 44
1, 149760, Control_c, 0, 64, 0
1, 150240, Tempo, 464900
1, 150240, Note_on_c, 0, 55, 0
1, 150240, Note_on_c, 0, 58, 0
1, 150240, Note_on_c, 0, 63, 0
1, 150240, Note_on_c, 0, 51, 0
1, 151200, Tempo, 327297
1, 151200, Marker_t, "Teil1 Wiederholung"
1, 151200, Note_on_c, 0, 63, 69
1, 151200, Note_on_c, 0, 67, 69
1, 151200, Note_on_c, 0, 72, 82
1, 151200, Note_on_c, 0, 60, 70
1, 151200, Note_on_c, 0, 55, 59
1, 151200, Note_on_c, 0, 51, 59
1, 151200, Note_on_c, 0, 48, 59
1, 151356, Control_c, 0, 64, 127
1, 151920, Note_on_c, 0, 48, 0
1, 151920, Note_on_c, 0, 55, 0
1, 151920, Note_on_c, 0, 67, 0
1, 151920, Note_on_c, 0, 72, 0
1, 151920, Note_on_c, 0, 63, 0
1, 151920, Note_on_c, 0, 51, 0
1, 151920, Note_on_c, 0, 60, 0
1, 152040, Note_on_c, 0, 67, 70
1, 152160, Tempo, 318302
1, 152160, Note_on_c, 0, 67, 0
1, 152160, Note_on_c, 0, 75, 78
1, 152520, Note_on_c, 0, 75, 0
1, 152520, Note_on_c, 0, 72, 70
1, 152640, Note_on_c, 0, 72, 0
1, 152640, Note_on_c, 0, 79, 79
1, 153000, Note_on_c, 0, 79, 0
1, 153000, Note_on_c, 0, 75, 70
1, 153120, Note_on_c, 0, 75, 0
1, 153120, Note_on_c, 0, 84, 79
1, 153480, Tempo, 353753
1, 153480, Note_on_c, 0, 84, 0
1, 153480, Note_on_c, 0, 79, 70
1, 153600, Tempo, 327297
1, 153600, Note_on_c, 0, 79, 0
1, 153600, Note_on_c, 0, 87, 84
1, 153621, Control_c, 0, 64, 0
1, 153720, Note_on_c, 0, 87, 0
1, 154080, Note_on_c, 0, 87, 84
1, 154200, Note_on_c, 0, 87, 0
1, 154560, Tempo, 351906
1, 155012, Control_c, 0, 64, 127
1, 155040, Tempo, 333537
1, 155040, Note_on_c, 0, 67, 39
1, 155040, Note_on_c, 0, 72, 46
1, 155040, Note_on_c, 0, 60, 34
1, 155040, Note_on_c, 0, 63, 41
1, 155280, Note_on_c, 0, 63, 0
1, 155280, Note_on_c, 0, 67, 0
1, 155280, Note_on_c, 0, 72, 0
1, 155280, Note_on_c, 0, 60, 0
1, 155520, Note_on_c, 0, 67, 42
1, 155520, Note_on_c, 0, 72, 50
1, 155520, Note_on_c, 0, 63, 41
1, 155520, Note_on_c, 0, 60, 34
1, 156000, Tempo, 343348
1, 156480, Tempo, 401016
1, 156480, Note_on_c, 0, 60, 0
1, 156480, Note_on_c, 0, 67, 0
1, 156480, Note_on_c, 0, 72, 0
1, 156480, Note_on_c, 0, 63, 0
1, 156480, Note_on_c, 0, 67, 39
1, 156480, Note_on_c, 0, 62, 32
1, 156480, Note_on_c, 0, 65, 38
1, 156490, Note_on_c, 0, 71, 46
1, 156492, Control_c, 0, 64, 0
1, 156950, Note_on_c, 0, 65, 0
1, 156950, Note_on_c, 0, 67, 0
1, 156950, Note_on_c, 0, 62, 0
1, 156960, Tempo, 327297
1, 156960, Note_on_c, 0, 71, 0
1, 156960, Note_on_c, 0, 68, 69
1, 156960, Note_on_c, 0, 65, 69
1, 156960, Note_on_c, 0, 71, 82
1, 156960, Note_on_c, 0, 53, 59
1, 156960, Note_on_c, 0, 59, 59
1, 156960, Note_on_c, 0, 56, 59
1, 156960, Note_on_c, 0, 62, 70
1, 156960, Note_on_c, 0, 50, 59
1, 157116, Control_c, 0, 64, 127
1, 157680, Note_on_c, 0, 50, 0
1, 157680, Note_on_c, 0, 68, 0
1, 157680, Note_on_c, 0, 59, 0
1, 157680, Note_on_c, 0, 65, 0
1, 157680, Note_on_c, 0, 71, 0
1, 157680, Note_on_c, 0, 53, 0
1, 157680, Note_on_c, 0, 56, 0
1, 157680, Note_on_c, 0, 62, 0
1, 157800, Note_on_c, 0, 71, 70
1, 157920, Tempo, 318302
1, 157920, Note_on_c, 0, 71, 0
1, 157920, Note_on_c, 0, 77, 78
1, 158280, Note_on_c, 0, 77, 0
1, 158280, Note_on_c, 0, 74, 70
1, 158400, Note_on_c, 0, 74, 0
1, 158400, Note_on_c, 0, 83, 79
1, 158760, Note_on_c, 0, 83, 0
1, 158760, Note_on_c, 0, 77, 70
1, 158880, Note_on_c, 0, 77, 0
1, 158880, Note_on_c, 0, 86, 79
1, 159240, Tempo, 353753
1, 159240, Note_on_c, 0, 86, 0
1, 159240, Note_on_c, 0, 83, 70
1, 159360, Tempo, 327297
1, 159360, Note_on_c, 0, 83, 0
1, 159360, Note_on_c, 0, 89, 84
1, 159381, Control_c, 0, 64, 0
1, 159480, Note_on_c, 0, 89, 0
1, 159840, Note_on_c, 0, 89, 84
1, 159960, Note_on_c, 0, 89, 0
1, 160320, Tempo, 342231
1, 160772, Control_c, 0, 64, 127
1, 160800, Tempo, 333537
1, 160800, Note_on_c, 0, 71, 39
1, 160800, Note_on_c, 0, 74, 46
1, 160800, Note_on_c, 0, 62, 34
1, 160800, Note_on_c, 0, 68, 41
1, 160800, Note_on_c, 0, 65, 34
1, 161040, Note_on_c, 0, 65, 0
1, 161040, Note_on_c, 0, 62, 0
1, 161040, Note_on_c, 0, 71, 0
1, 161040, Note_on_c, 0, 74, 0
1, 161040, Note_on_c, 0, 68, 0
1, 161280, Note_on_c, 0, 71, 42
1, 161280, Note_on_c, 0, 74, 50
1, 161280, Note_on_c, 0, 68, 41
1, 161280, Note_on_c, 0, 65, 34
1, 161280, Note_on_c, 0, 62, 34
1, 161760, Tempo, 343348
1, 162240, Tempo, 445203
1, 162240, Note_on_c, 0, 62, 0
1, 162240, Note_on_c, 0, 68, 0
1, 162240, Note_on_c, 0, 71, 0
1, 162240, Note_on_c, 0, 74, 0
1, 162240, Note_on_c, 0, 65, 0
1, 162240, Note_on_c, 0, 72, 46
1, 162240, Note_on_c, 0, 67, 38
1, 162240, Note_on_c, 0, 63, 32
1, 162309, Control_c, 0, 64, 0
1, 162600, Tempo, 386274
1, 162600, Note_on_c, 0, 72, 0
1, 162600, Note_on_c, 0, 72, 45
1, 162660, Note_on_c, 0, 72, 0
1, 162660, Note_on_c, 0, 75, 48
1, 162720, Tempo, 329345
1, 162720, Note_on_c, 0, 75, 0
1, 162720, Note_on_c, 0, 63, 0
1, 162720, Note_on_c, 0, 67, 0
1, 162720, Note_on_c, 0, 79, 53
1, 162780, Control_c, 0, 64, 127
1, 163440, Note_on_c, 0, 79, 0
1, 163440, Note_on_c, 0, 77, 41
1, 163680, Tempo, 351391
1, 163680, Note_on_c, 0, 77, 0
1, 163680, Note_on_c, 0, 75, 51
1, 163680, Note_on_c, 0, 60, 35
1, 163680, Note_on_c, 0, 55, 29
1, 163680, Note_on_c, 0, 51, 29
1, 163700, Control_c, 0, 64, 0
1, 163892, Control_c, 0, 64, 127
1, 164160, Tempo, 337819
1, 164160, Note_on_c, 0, 51, 0
1, 164160, Note_on_c, 0, 75, 0
1, 164160, Note_on_c, 0, 60, 0
1, 164160, Note_on_c, 0, 55, 0
1, 164160, Note_on_c, 0, 74, 47
1, 164160, Note_on_c, 0, 53, 33
1, 164160, Note_on_c, 0, 56, 33
1, 164160, Note_on_c, 0, 59, 39
1, 164160, Control_c, 0, 64, 0
1, 164400, Control_c, 0, 64, 127
1, 165120, Tempo, 407221
1, 165120, Note_on_c, 0, 59, 0
1, 165120, Note_on_c, 0, 74, 0
1, 165120, Note_on_c, 0, 53, 0
1, 165120, Note_on_c, 0, 56, 0
1, 165120, Note_on_c, 0, 72, 39
1, 165120, Note_on_c, 0, 60, 34
1, 165120, Note_on_c, 0, 55, 28
1, 165120, Note_on_c, 0, 51, 28
1, 165130, Control_c, 0, 64, 0
1, 165480, Tempo, 386274
1, 165480, Note_on_c, 0, 72, 0
1, 165480, Note_on_c, 0, 67, 27
1, 165520, Note_on_c, 0, 67, 0
1, 165520, Note_on_c, 0, 72, 45
1, 165560, Note_on_c, 0, 72, 0
1, 165560, Note_on_c, 0, 75, 48
1, 165600, Tempo, 329345
1, 165600, Note_on_c, 0, 75, 0
1, 165600, Note_on_c, 0, 51, 0
1, 165600, Note_on_c, 0, 55, 0
1, 165600, Note_on_c, 0, 60, 0
1, 165600, Note_on_c, 0, 79, 53
1, 165660, Control_c, 0, 64, 127
1, 166320, Note_on_c, 0, 79, 0
1, 166320, Note_on_c, 0, 77, 41
1, 166560, Tempo, 351391
1, 166560, Note_on_c, 0, 77, 0
1, 166560, Note_on_c, 0, 72, 43
1, 166560, Note_on_c, 0, 75, 51
1, 166560, Note_on_c, 0, 63, 29
1, 166560, Note_on_c, 0, 67, 35
1, 166580, Control_c, 0, 64, 0
1, 166772, Control_c, 0, 64, 127
1, 167040, Tempo, 337819
1, 167040, Note_on_c, 0, 67, 0
1, 167040, Note_on_c, 0, 72, 0
1, 167040, Note_on_c, 0, 75, 0
1, 167040, Note_on_c, 0, 63, 0
1, 167040, Note_on_c, 0, 71, 39
1, 167040, Note_on_c, 0, 74, 47
1, 167040, Note_on_c, 0, 68, 39
1, 167040, Note_on_c, 0, 65, 33
1, 167040, Control_c, 0, 64, 0
1, 167280, Control_c, 0, 64, 127
1, 168000, Note_on_c, 0, 65, 0
1, 168000, Note_on_c, 0, 71, 0
1, 168000, Note_on_c, 0, 74, 0
1, 168000, Note_on_c, 0, 68, 0
1, 168000, Note_on_c, 0, 72, 39
1, 168000, Note_on_c, 0, 63, 28
1, 168000, Note_on_c, 0, 67, 34
1, 168010, Control_c, 0, 64, 0
1, 168360, Tempo, 386274
1, 168360, Note_on_c, 0, 72, 0
1, 168360, Note_on_c, 0, 67, 60
1, 168400, Note_on_c, 0, 67, 0
1, 168400, Note_on_c, 0, 72, 63
1, 168440, Note_on_c, 0, 72, 0
1, 168440, Note_on_c, 0, 75, 69
1, 168480, Tempo, 325203
1, 168480, Note_on_c, 0, 75, 0
1, 168480, Note_on_c, 0, 67, 0
1, 168480, Note_on_c, 0, 63, 0
1, 168480, Note_on_c, 0, 67, 69
1, 168480, Note_on_c, 0, 79, 81
1, 168540, Control_c, 0, 64, 127
1, 169200, Note_on_c, 0, 79, 0
1, 169200, Note_on_c, 0, 67, 0
1, 169200, Note_on_c, 0, 77, 61
1, 169200, Note_on_c, 0, 65, 51
1, 169440, Tempo, 345602
1, 169440, Note_on_c, 0, 65, 0
1, 169440, Note_on_c, 0, 77, 0
1, 169440, Note_on_c, 0, 75, 73
1, 169440, Note_on_c, 0, 63, 62
1, 169440, Note_on_c, 0, 55, 39
1, 169440, Note_on_c, 0, 60, 47
1, 169440, Note_on_c, 0, 51, 39
1, 169446, Control_c, 0, 64, 0
1, 169624, Control_c, 0, 64, 127
1, 169920, Tempo, 329670
1, 169920, Note_on_c, 0, 51, 0
1, 169920, Note_on_c, 0, 55, 0
1, 169920, Note_on_c, 0, 60, 0
1, 169920, Note_on_c, 0, 59, 53
1, 169920, Note_on_c, 0, 53, 45
1, 169920, Note_on_c, 0, 56, 45
1, 169920, Control_c, 0, 64, 0
1, 170240, Control_c, 0, 64, 127
1, 170400, Tempo, 340020
1, 170400, Note_on_c, 0, 63, 0
1, 170400, Note_on_c, 0, 75, 0
1, 170400, Note_on_c, 0, 74, 72
1, 170400, Note_on_c, 0, 62, 61
1, 170430, Control_c, 0, 64, 0
1, 170520, Note_on_c, 0, 62, 0
1, 170520, Note_on_c, 0, 74, 0
1, 170880, Tempo, 329670
1, 170880, Note_on_c, 0, 56, 0
1, 170880, Note_on_c, 0, 59, 0
1, 170880, Note_on_c, 0, 53, 0
1, 170880, Note_on_c, 0, 72, 75
1, 170880, Note_on_c, 0, 60, 63
1, 170880, Note_on_c, 0, 55, 46
1, 170880, Note_on_c, 0, 51, 39
1, 171174, Control_c, 0, 64, 127
1, 171360, Tempo, 342231
1, 171360, Note_on_c, 0, 51, 0
1, 171360, Note_on_c, 0, 55, 0
1, 171360, Note_on_c, 0, 50, 46
1, 171360, Note_on_c, 0, 53, 56
1, 171364, Control_c, 0, 64, 0
1, 171680, Control_c, 0, 64, 127
1, 171840, Tempo, 330579
1, 171840, Note_on_c, 0, 60, 0
1, 171840, Note_on_c, 0, 72, 0
1, 171840, Note_on_c, 0, 59, 63
1, 171840, Note_on_c, 0, 71, 75
1, 171860, Control_c, 0, 64, 0
1, 171960, Note_on_c, 0, 71, 0
1, 171960, Note_on_c, 0, 59, 0
1, 172320, Tempo, 353753
1, 172320, Note_on_c, 0, 50, 0
1, 172320, Note_on_c, 0, 53, 0
1, 172320, Note_on_c, 0, 56, 62
1, 172320, Note_on_c, 0, 68, 74
1, 172320, Note_on_c, 0, 51, 49
1, 172320, Note_on_c, 0, 48, 41
1, 172480, Control_c, 0, 64, 127
1, 172800, Tempo, 345602
1, 172800, Note_on_c, 0, 48, 0
1, 172800, Note_on_c, 0, 51, 0
1, 172800, Note_on_c, 0, 50, 47
1, 172800, Note_on_c, 0, 47, 56
1, 172800, Control_c, 0, 64, 0
1, 172970, Control_c, 0, 64, 127
1, 173280, Tempo, 351391
1, 173280, Note_on_c, 0, 47, 0
1, 173280, Note_on_c, 0, 56, 0
1, 173280, Note_on_c, 0, 68, 0
1, 173280, Note_on_c, 0, 50, 0
1, 173280, Note_on_c, 0, 55, 58
1, 173280, Note_on_c, 0, 67, 68
1, 173297, Control_c, 0, 64, 0
1, 173520, Note_on_c, 0, 67, 0
1, 173520, Note_on_c, 0, 55, 0
1, 174240, Tempo, 342231
1, 174720, Note_on_c, 0, 59, 42
1, 174880, Note_on_c, 0, 59, 0
1, 174880, Note_on_c, 0, 62, 35
1, 175040, Note_on_c, 0, 62, 0
1, 175040, Note_on_c, 0, 65, 35
1, 175198, Tempo, 341122
1, 175200, Note_on_c, 0, 65, 0
1, 175200, Note_on_c, 0, 68, 43
1, 175200, Note_on_c, 0, 56, 34
1, 175200, Note_on_c, 0, 53, 28
1, 175200, Note_on_c, 0, 50, 28
1, 175200, Note_on_c, 0, 47, 28
1, 175222, Tempo, 342231
1, 175246, Tempo, 343348
1, 175270, Tempo, 344471
1, 175294, Tempo, 345602
1, 175318, Tempo, 347887
1, 175342, Tempo, 349040
1, 175360, Note_on_c, 0, 68, 0
1, 175360, Note_on_c, 0, 67, 36
1, 175366, Tempo, 350222
1, 175390, Tempo, 351391
1, 175414, Tempo, 353753
1, 175438, Tempo, 354946
1, 175462, Tempo, 356146
1, 175486, Tempo, 357356
1, 175510, Tempo, 358573
1, 175520, Note_on_c, 0, 67, 0
1, 175520, Note_on_c, 0, 65, 36
1, 175534, Tempo, 361054
1, 175558, Tempo, 362297
1, 175582, Tempo, 363548
1, 175606, Tempo, 364808
1, 175630, Tempo, 367354
1, 175680, Tempo, 341122
1, 175680, Note_on_c, 0, 65, 0
1, 175680, Note_on_c, 0, 50, 0
1, 175680, Note_on_c, 0, 56, 0
1, 175680, Note_on_c, 0, 53, 0
1, 175680, Note_on_c, 0, 47, 0
1, 175680, Note_on_c, 0, 63, 43
1, 175680, Note_on_c, 0, 55, 34
1, 175680, Note_on_c, 0, 51, 28
1, 175680, Note_on_c, 0, 48, 28
1, 175800, Note_on_c, 0, 48, 0
1, 175800, Note_on_c, 0, 63, 0
1, 175800, Note_on_c, 0, 55, 0
1, 175800, Note_on_c, 0, 51, 0
1, 177600, Tempo, 342231
1, 177600, Note_on_c, 0, 53, 42
1, 177760, Note_on_c, 0, 53, 0
1, 177760, Note_on_c, 0, 56, 35
1, 177920, Note_on_c, 0, 56, 0
1, 177920, Note_on_c, 0, 62, 35
1, 178078, Tempo, 341122
1, 178080, Note_on_c, 0, 62, 0
1, 178080, Note_on_c, 0, 65, 43
1, 178080, Note_on_c, 0, 50, 34
1, 178080, Note_on_c, 0, 44, 28
1, 178080, Note_on_c, 0, 41, 28
1, 178102, Tempo, 342231
1, 178126, Tempo, 343348
1, 178150, Tempo, 344471
1, 178174, Tempo, 345602
1, 178198, Tempo, 347887
1, 178222, Tempo, 349040
1, 178240, Note_on_c, 0, 65, 0
1, 178240, Note_on_c, 0, 63, 36
1, 178246, Tempo, 350222
1, 178270, Tempo, 351391
1, 178294, Tempo, 353753
1, 178318, Tempo, 354946
1, 178342, Tempo, 356146
1, 178366, Tempo, 357356
1, 178390, Tempo, 358573
1, 178400, Note_on_c, 0, 63, 0
1, 178400, Note_on_c, 0, 62, 36
1, 178414, Tempo, 361054
1, 178438, Tempo, 362297
1, 178462, Tempo, 363548
1, 178486, Tempo, 364808
1, 178510, Tempo, 367354
1, 178560, Tempo, 341122
1, 178560, Note_on_c, 0, 62, 0
1, 178560, Note_on_c, 0, 50, 0
1, 178560, Note_on_c, 0, 44, 0
1, 178560, Note_on_c, 0, 41, 0
1, 178560, Note_on_c, 0, 60, 43
1, 178560, Note_on_c, 0, 48, 28
1, 178560, Note_on_c, 0, 43, 28
1, 178560, Note_on_c, 0, 51, 34
1, 178680, Note_on_c, 0, 51, 0
1, 178680, Note_on_c, 0, 60, 0
1, 178680, Note_on_c, 0, 48, 0
1, 178680, Note_on_c, 0, 43, 0
1, 179040, Tempo, 342231
1, 179518, Tempo, 341122
1, 179542, Tempo, 342231
1, 179566, Tempo, 343348
1, 179590, Tempo, 344471
1, 179614, Tempo, 345602
1, 179638, Tempo, 347887
1, 179662, Tempo, 349040
1, 179686, Tempo, 350222
1, 179710, Tempo, 351391
1, 179734, Tempo, 353753
1, 179758, Tempo, 354946
1, 179782, Tempo, 356146
1, 179806, Tempo, 357356
1, 179830, Tempo, 358573
1, 179854, Tempo, 361054
1, 179878, Tempo, 362297
1, 179902, Tempo, 363548
1, 179926, Tempo, 364808
1, 179950, Tempo, 367354
1, 180480, Tempo, 342231
1, 180480, Note_on_c, 0, 55, 66
1, 180503, Control_c, 0, 64, 127
1, 180640, Note_on_c, 0, 55, 0
1, 180640, Note_on_c, 0, 59, 69
1, 180800, Note_on_c, 0, 59, 0
1, 180800, Note_on_c, 0, 62, 72
1, 180958, Tempo, 341122
1, 180960, Note_on_c, 0, 62, 0
1, 180960, Note_on_c, 0, 65, 75
1, 180960, Note_on_c, 0, 43, 73
1, 180960, Note_on_c, 0, 31, 73
1, 180982, Tempo, 342231
1, 181006, Tempo, 343348
1, 181030, Tempo, 344471
1, 181054, Tempo, 345602
1, 181078, Tempo, 347887
1, 181102, Tempo, 349040
1, 181120, Note_on_c, 0, 65, 0
1, 181120, Note_on_c, 0, 62, 67
1, 181126, Tempo, 350222
1, 181150, Tempo, 351391
1, 181174, Tempo, 353753
1, 181198, Tempo, 354946
1, 181200, Note_on_c, 0, 31, 0
1, 181200, Note_on_c, 0, 43, 0
1, 181222, Tempo, 356146
1, 181246, Tempo, 357356
1, 181270, Tempo, 358573
1, 181280, Note_on_c, 0, 62, 0
1, 181280, Note_on_c, 0, 59, 67
1, 181294, Tempo, 361054
1, 181318, Tempo, 362297
1, 181342, Tempo, 363548
1, 181366, Tempo, 364808
1, 181390, Tempo, 367354
1, 181440, Tempo, 327297
1, 181440, Note_on_c, 0, 59, 0
1, 181440, Note_on_c, 0, 55, 79
1, 181440, Note_on_c, 0, 51, 79
1, 181440, Note_on_c, 0, 60, 94
1, 181440, Note_on_c, 0, 43, 67
1, 181440, Note_on_c, 0, 36, 67
1, 181440, Note_on_c, 0, 48, 80
1, 181440, Note_on_c, 0, 39, 67
1, 181463, Control_c, 0, 64, 0
1, 181596, Control_c, 0, 64, 127
1, 182160, Note_on_c, 0, 39, 0
1, 182160, Note_on_c, 0, 36, 0
1, 182160, Note_on_c, 0, 51, 0
1, 182160, Note_on_c, 0, 60, 0
1, 182160, Note_on_c, 0, 55, 0
1, 182160, Note_on_c, 0, 48, 0
1, 182160, Note_on_c, 0, 43, 0
1, 182280, Note_on_c, 0, 60, 70
1, 182400, Tempo, 316623
1, 182400, Note_on_c, 0, 60, 0
1, 182400, Note_on_c, 0, 67, 78
1, 182760, Note_on_c, 0, 67, 0
1, 182760, Note_on_c, 0, 63, 70
1, 182880, Tempo, 314136
1, 182880, Note_on_c, 0, 63, 0
1, 182880, Note_on_c, 0, 72, 85
1, 183240, Note_on_c, 0, 72, 0
1, 183240, Note_on_c, 0, 67, 72
1, 183360, Note_on_c, 0, 67, 0
1, 183360, Note_on_c, 0, 75, 80
1, 183720, Tempo, 353753
1, 183720, Note_on_c, 0, 75, 0
1, 183720, Note_on_c, 0, 72, 83
1, 183840, Tempo, 327297
1, 183840, Note_on_c, 0, 72, 0
1, 183840, Note_on_c, 0, 79, 96
1, 183840, Note_on_c, 0, 67, 81
1, 183840, Note_on_c, 0, 48, 58
1, 183840, Note_on_c, 0, 55, 69
1, 183840, Note_on_c, 0, 51, 58
1, 183861, Control_c, 0, 64, 0
1, 183960, Note_on_c, 0, 51, 0
1, 183960, Note_on_c, 0, 48, 0
1, 183960, Note_on_c, 0, 79, 0
1, 183960, Note_on_c, 0, 67, 0
1, 183960, Note_on_c, 0, 55, 0
1, 184320, Note_on_c, 0, 79, 96
1, 184320, Note_on_c, 0, 67, 81
1, 184320, Note_on_c, 0, 47, 58
1, 184320, Note_on_c, 0, 50, 58
1, 184320, Note_on_c, 0, 55, 69
1, 184440, Note_on_c, 0, 55, 0
1, 184440, Note_on_c, 0, 47, 0
1, 184440, Note_on_c, 0, 79, 0
1, 184440, Note_on_c, 0, 67, 0
1, 184440, Note_on_c, 0, 50, 0
1, 185160, Tempo, 327297
1, 185160, Note_on_c, 0, 59, 70
1, 185177, Control_c, 0, 64, 127
1, 185280, Tempo, 317460
1, 185280, Note_on_c, 0, 59, 0
1, 185280, Note_on_c, 0, 67, 78
1, 185640, Note_on_c, 0, 67, 0
1, 185640, Note_on_c, 0, 62, 70
1, 185760, Tempo, 314961
1, 185760, Note_on_c, 0, 62, 0
1, 185760, Note_on_c, 0, 71, 85
1, 186120, Note_on_c, 0, 71, 0
1, 186120, Note_on_c, 0, 67, 74
1, 186240, Note_on_c, 0, 67, 0
1, 186240, Note_on_c, 0, 74, 86
1, 186600, Tempo, 353753
1, 186600, Note_on_c, 0, 74, 0
1, 186600, Note_on_c, 0, 71, 83
1, 186720, Tempo, 327297
1, 186720, Note_on_c, 0, 71, 0
1, 186720, Note_on_c, 0, 79, 96
1, 186720, Note_on_c, 0, 67, 81
1, 186720, Note_on_c, 0, 55, 69
1, 186720, Note_on_c, 0, 47, 58
1, 186720, Note_on_c, 0, 50, 58
1, 186741, Control_c, 0, 64, 0
1, 186840, Note_on_c, 0, 50, 0
1, 186840, Note_on_c, 0, 55, 0
1, 186840, Note_on_c, 0, 79, 0
1, 186840, Note_on_c, 0, 67, 0
1, 186840, Note_on_c, 0, 47, 0
1, 187200, Note_on_c, 0, 79, 96
1, 187200, Note_on_c, 0, 67, 81
1, 187200, Note_on_c, 0, 55, 69
1, 187200, Note_on_c, 0, 48, 58
1, 187200, Note_on_c, 0, 51, 58
1, 187320, Note_on_c, 0, 51, 0
1, 187320, Note_on_c, 0, 55, 0
1, 187320, Note_on_c, 0, 79, 0
1, 187320, Note_on_c, 0, 67, 0
1, 187320, Note_on_c, 0, 48, 0
1, 188040, Tempo, 327297
1, 188040, Note_on_c, 0, 63, 70
1, 188057, Control_c, 0, 64, 127
1, 188160, Tempo, 318302
1, 188160, Note_on_c, 0, 63, 0
1, 188160, Note_on_c, 0, 67, 78
1, 188520, Note_on_c, 0, 67, 0
1, 188520, Note_on_c, 0, 63, 70
1, 188640, Tempo, 314961
1, 188640, Note_on_c, 0, 63, 0
1, 188640, Note_on_c, 0, 72, 85
1, 189000, Note_on_c, 0, 72, 0
1, 189000, Note_on_c, 0, 67, 74
1, 189120, Note_on_c, 0, 67, 0
1, 189120, Note_on_c, 0, 75, 86
1, 189480, Tempo, 353753
1, 189480, Note_on_c, 0, 75, 0
1, 189480, Note_on_c, 0, 72, 83
1, 189600, Tempo, 327297
1, 189600, Note_on_c, 0, 72, 0
1, 189600, Note_on_c, 0, 79, 90
1, 189600, Note_on_c, 0, 51, 58
1, 189600, Note_on_c, 0, 60, 69
1, 189600, Note_on_c, 0, 55, 58
1, 189720, Note_on_c, 0, 55, 0
1, 189720, Note_on_c, 0, 60, 0
1, 189720, Note_on_c, 0, 51, 0
1, 189960, Note_on_c, 0, 79, 0
1, 189960, Note_on_c, 0, 75, 83
1, 190080, Tempo, 324272
1, 190080, Note_on_c, 0, 75, 0
1, 190080, Note_on_c, 0, 74, 96
1, 190080, Note_on_c, 0, 56, 58
1, 190080, Note_on_c, 0, 62, 69
1, 190080, Note_on_c, 0, 53, 58
1, 190080, Control_c, 0, 64, 0
1, 190200, Note_on_c, 0, 53, 0
1, 190200, Note_on_c, 0, 74, 0
1, 190200, Note_on_c, 0, 56, 0
1, 190200, Note_on_c, 0, 62, 0
1, 190560, Tempo, 333537
1, 190560, Note_on_c, 0, 89, 96
1, 190680, Note_on_c, 0, 89, 0
1, 191520, Tempo, 325274
1, 191520, Note_on_c, 0, 71, 96
1, 191520, Note_on_c, 0, 62, 69
1, 191520, Note_on_c, 0, 59, 58
1, 191520, Note_on_c, 0, 55, 58
1, 191640, Note_on_c, 0, 55, 0
1, 191640, Note_on_c, 0, 71, 0
1, 191640, Note_on_c, 0, 62, 0
1, 191640, Note_on_c, 0, 59, 0
1, 192000, Tempo, 331437
1, 192000, Note_on_c, 0, 86, 96
1, 192120, Note_on_c, 0, 86, 0
1, 192960, Tempo, 345602
1, 192960, Note_on_c, 0, 72, 96
1, 192960, Note_on_c, 0, 55, 58
1, 192960, Note_on_c, 0, 48, 58
1, 192960, Note_on_c, 0, 60, 69
1, 192960, Note_on_c, 0, 51, 58
1, 193080, Note_on_c, 0, 51, 0
1, 193080, Note_on_c, 0, 48, 0
1, 193080, Note_on_c, 0, 72, 0
1, 193080, Note_on_c, 0, 55, 0
1, 193080, Note_on_c, 0, 60, 0
1, 193440, Tempo, 341122
1, 193440, Note_on_c, 0, 84, 96
1, 193560, Note_on_c, 0, 84, 0
1, 195840, Tempo, 328317
1, 195840, Note_on_c, 0, 63, 69
1, 195894, Control_c, 0, 64, 127
1, 197280, Tempo, 336738
1, 197280, Note_on_c, 0, 61, 50
1, 197760, Tempo, 328317
1, 197760, Note_on_c, 0, 67, 50
1, 198240, Tempo, 341122
1, 198240, Note_on_c, 0, 75, 45
1, 198720, Tempo, 330396
1, 198720, Note_on_c, 0, 75, 0
1, 198720, Note_on_c, 0, 67, 0
1, 198720, Note_on_c, 0, 61, 0
1, 198720, Note_on_c, 0, 68, 42
1, 198720, Note_on_c, 0, 75, 50
1, 198720, Note_on_c, 0, 60, 49
1, 198726, Control_c, 0, 64, 0
1, 199040, Control_c, 0, 64, 127
1, 199200, Tempo, 336738
1, 199680, Note_on_c, 0, 75, 0
1, 199680, Note_on_c, 0, 75, 45
1, 200160, Tempo, 326282
1, 200160, Note_on_c, 0, 63, 0
1, 200160, Note_on_c, 0, 60, 0
1, 200160, Note_on_c, 0, 68, 0
1, 200160, Note_on_c, 0, 67, 42
1, 200160, Note_on_c, 0, 61, 34
1, 200160, Note_on_c, 0, 58, 28
1, 200167, Control_c, 0, 64, 0
1, 200435, Control_c, 0, 64, 127
1, 200640, Note_on_c, 0, 75, 0
1, 200640, Note_on_c, 0, 77, 45
1, 201120, Tempo, 346741
1, 201120, Note_on_c, 0, 77, 0
1, 201120, Note_on_c, 0, 73, 44
1, 201600, Tempo, 331437
1, 201600, Note_on_c, 0, 58, 0
1, 201600, Note_on_c, 0, 67, 0
1, 201600, Note_on_c, 0, 61, 0
1, 201600, Note_on_c, 0, 68, 42
1, 201600, Note_on_c, 0, 56, 28
1, 201600, Note_on_c, 0, 63, 33
1, 201600, Control_c, 0, 64, 0
1, 201897, Control_c, 0, 64, 127
1, 202080, Tempo, 341122
1, 202080, Note_on_c, 0, 73, 0
1, 202080, Note_on_c, 0, 71, 45
1, 202560, Note_on_c, 0, 71, 0
1, 202560, Note_on_c, 0, 72, 45
1, 202577, Control_c, 0, 64, 0
1, 203040, Tempo, 333537
1, 203040, Note_on_c, 0, 72, 0
1, 203040, Note_on_c, 0, 68, 0
1, 203040, Note_on_c, 0, 56, 0
1, 203040, Note_on_c, 0, 63, 0
1, 203040, Note_on_c, 0, 70, 50
1, 203040, Note_on_c, 0, 72, 60
1, 203520, Tempo, 323276
1, 203520, Note_on_c, 0, 76, 50
1, 204000, Tempo, 341122
1, 204000, Note_on_c, 0, 84, 45
1, 204480, Tempo, 324272
1, 204480, Note_on_c, 0, 84, 0
1, 204480, Note_on_c, 0, 76, 0
1, 204480, Note_on_c, 0, 70, 0
1, 204480, Note_on_c, 0, 77, 42
1, 204480, Note_on_c, 0, 84, 50
1, 204480, Note_on_c, 0, 68, 49
1, 204486, Control_c, 0, 64, 0
1, 204800, Control_c, 0, 64, 127
1, 204960, Tempo, 336738
1, 205440, Note_on_c, 0, 84, 0
1, 205440, Note_on_c, 0, 84, 45
1, 205920, Tempo, 326282
1, 205920, Note_on_c, 0, 72, 0
1, 205920, Note_on_c, 0, 68, 0
1, 205920, Note_on_c, 0, 77, 0
1, 205920, Note_on_c, 0, 76, 42
1, 205920, Note_on_c, 0, 67, 28
1, 205920, Note_on_c, 0, 70, 34
1, 205927, Control_c, 0, 64, 0
1, 206195, Control_c, 0, 64, 127
1, 206400, Note_on_c, 0, 84, 0
1, 206400, Note_on_c, 0, 85, 45
1, 206880, Tempo, 337819
1, 206880, Note_on_c, 0, 85, 0
1, 206880, Note_on_c, 0, 82, 44
1, 207360, Tempo, 326282
1, 207360, Note_on_c, 0, 70, 0
1, 207360, Note_on_c, 0, 76, 0
1, 207360, Note_on_c, 0, 67, 0
1, 207360, Note_on_c, 0, 72, 42
1, 207360, Note_on_c, 0, 65, 28
1, 207360, Note_on_c, 0, 68, 33
1, 207360, Control_c, 0, 64, 0
1, 207657, Control_c, 0, 64, 127
1, 207840, Tempo, 334597
1, 207840, Note_on_c, 0, 82, 0
1, 207840, Note_on_c, 0, 79, 45
1, 208320, Note_on_c, 0, 79, 0
1, 208320, Note_on_c, 0, 80, 45
1, 208337, Control_c, 0, 64, 0
1, 208800, Tempo, 336738
1, 208800, Note_on_c, 0, 80, 0
1, 208800, Note_on_c, 0, 72, 0
1, 208800, Note_on_c, 0, 65, 0
1, 208800, Note_on_c, 0, 68, 0
1, 208800, Note_on_c, 0, 66, 50
1, 208800, Note_on_c, 0, 68, 60
1, 209280, Tempo, 322286
1, 209280, Note_on_c, 0, 72, 50
1, 209760, Tempo, 341122
1, 209760, Note_on_c, 0, 80, 45
1, 210240, Tempo, 326282
1, 210240, Note_on_c, 0, 80, 0
1, 210240, Note_on_c, 0, 72, 0
1, 210240, Note_on_c, 0, 66, 0
1, 210240, Note_on_c, 0, 73, 42
1, 210240, Note_on_c, 0, 80, 50
1, 210240, Note_on_c, 0, 65, 49
1, 210246, Control_c, 0, 64, 0
1, 210560, Control_c, 0, 64, 127
1, 210720, Tempo, 336738
1, 211200, Note_on_c, 0, 80, 0
1, 211200, Note_on_c, 0, 80, 45
1, 211680, Tempo, 326282
1, 211680, Note_on_c, 0, 68, 0
1, 211680, Note_on_c, 0, 65, 0
1, 211680, Note_on_c, 0, 73, 0
1, 211680, Note_on_c, 0, 72, 42
1, 211680, Note_on_c, 0, 63, 44
1, 211680, Note_on_c, 0, 66, 44
1, 211687, Control_c, 0, 64, 0
1, 211955, Control_c, 0, 64, 127
1, 212160, Note_on_c, 0, 80, 0
1, 212160, Note_on_c, 0, 82, 45
1, 212640, Tempo, 337819
1, 212640, Note_on_c, 0, 82, 0
1, 212640, Note_on_c, 0, 78, 44
1, 213120, Tempo, 331437
1, 213120, Note_on_c, 0, 66, 0
1, 213120, Note_on_c, 0, 72, 0
1, 213120, Note_on_c, 0, 63, 0
1, 213120, Note_on_c, 0, 68, 49
1, 213120, Note_on_c, 0, 61, 28
1, 213120, Note_on_c, 0, 65, 33
1, 213120, Control_c, 0, 64, 0
1, 213417, Control_c, 0, 64, 127
1, 213600, Tempo, 337819
1, 213600, Note_on_c, 0, 78, 0
1, 213600, Note_on_c, 0, 76, 52
1, 214080, Note_on_c, 0, 76, 0
1, 214080, Note_on_c, 0, 77, 52
1, 214097, Control_c, 0, 64, 0
1, 214560, Tempo, 326282
1, 214560, Note_on_c, 0, 65, 0
1, 214560, Note_on_c, 0, 68, 0
1, 214560, Note_on_c, 0, 61, 0
1, 214560, Note_on_c, 0, 69, 50
1, 214560, Note_on_c, 0, 59, 42
1, 214560, Note_on_c, 0, 63, 48
1, 214567, Control_c, 0, 64, 0
1, 214835, Control_c, 0, 64, 127
1, 215040, Note_on_c, 0, 77, 0
1, 215040, Note_on_c, 0, 78, 55
1, 215520, Tempo, 346741
1, 215520, Note_on_c, 0, 78, 0
1, 215520, Note_on_c, 0, 75, 50
1, 216000, Tempo, 331437
1, 216000, Note_on_c, 0, 63, 0
1, 216000, Note_on_c, 0, 69, 0
1, 216000, Note_on_c, 0, 59, 0
1, 216000, Note_on_c, 0, 65, 42
1, 216000, Note_on_c, 0, 58, 33
1, 216000, Control_c, 0, 64, 0
1, 216297, Control_c, 0, 64, 127
1, 216480, Tempo, 341122
1, 216480, Note_on_c, 0, 75, 0
1, 216480, Note_on_c, 0, 75, 45
1, 216960, Note_on_c, 0, 75, 0
1, 216960, Note_on_c, 0, 74, 45
1, 216977, Control_c, 0, 64, 0
1, 217440, Tempo, 331437
1, 217440, Note_on_c, 0, 58, 0
1, 217440, Note_on_c, 0, 65, 0
1, 217440, Note_on_c, 0, 66, 42
1, 217440, Note_on_c, 0, 57, 33
1, 217920, Tempo, 341122
1, 217920, Note_on_c, 0, 74, 0
1, 217920, Note_on_c, 0, 75, 45
1, 218400, Note_on_c, 0, 75, 0
1, 218400, Note_on_c, 0, 66, 0
1, 218400, Note_on_c, 0, 63, 28
1, 218400, Note_on_c, 0, 66, 33
1, 218880, Note_on_c, 0, 66, 0
1, 218880, Note_on_c, 0, 63, 0
1, 218880, Note_on_c, 0, 57, 0
1, 218880, Note_on_c, 0, 62, 32
1, 218880, Note_on_c, 0, 65, 38
1, 218880, Note_on_c, 0, 46, 33
1, 219360, Tempo, 334597
1, 219360, Note_on_c, 0, 65, 0
1, 219360, Note_on_c, 0, 62, 0
1, 219360, Note_on_c, 0, 53, 33
1, 219840, Note_on_c, 0, 53, 0
1, 219840, Note_on_c, 0, 55, 37
1, 220320, Note_on_c, 0, 55, 0
1, 220320, Note_on_c, 0, 56, 41
1, 220800, Tempo, 326975
1, 220800, Note_on_c, 0, 56, 0
1, 220800, Note_on_c, 0, 72, 38
1, 220800, Note_on_c, 0, 52, 33
1, 221040, Note_on_c, 0, 72, 0
1, 221280, Tempo, 342231
1, 221280, Note_on_c, 0, 52, 0
1, 221280, Note_on_c, 0, 72, 38
1, 221280, Note_on_c, 0, 53, 35
1, 221520, Note_on_c, 0, 72, 0
1, 221760, Tempo, 332410
1, 221760, Note_on_c, 0, 53, 0
1, 221760, Note_on_c, 0, 46, 0
1, 221760, Note_on_c, 0, 72, 46
1, 221760, Note_on_c, 0, 46, 42
1, 221760, Note_on_c, 0, 55, 42
1, 222240, Note_on_c, 0, 55, 0
1, 222240, Note_on_c, 0, 72, 0
1, 222240, Note_on_c, 0, 70, 38
1, 222240, Note_on_c, 0, 50, 33
1, 222720, Note_on_c, 0, 50, 0
1, 222720, Note_on_c, 0, 70, 0
1, 222720, Note_on_c, 0, 51, 33
1, 223200, Note_on_c, 0, 51, 0
1, 223200, Note_on_c, 0, 53, 40
1, 223680, Tempo, 327869
1, 223680, Note_on_c, 0, 53, 0
1, 223680, Note_on_c, 0, 68, 38
1, 223680, Note_on_c, 0, 48, 33
1, 223920, Note_on_c, 0, 68, 0
1, 224160, Tempo, 342231
1, 224160, Note_on_c, 0, 48, 0
1, 224160, Note_on_c, 0, 68, 38
1, 224160, Note_on_c, 0, 50, 33
1, 224400, Note_on_c, 0, 68, 0
1, 224640, Tempo, 331492
1, 224640, Note_on_c, 0, 50, 0
1, 224640, Note_on_c, 0, 46, 0
1, 224640, Note_on_c, 0, 68, 43
1, 224640, Note_on_c, 0, 46, 39
1, 224640, Note_on_c, 0, 51, 39
1, 225120, Note_on_c, 0, 51, 0
1, 225120, Note_on_c, 0, 68, 0
1, 225120, Note_on_c, 0, 67, 38
1, 225120, Note_on_c, 0, 53, 33
1, 225600, Note_on_c, 0, 53, 0
1, 225600, Note_on_c, 0, 67, 0
1, 225600, Note_on_c, 0, 55, 36
1, 226080, Tempo, 321716
1, 226080, Note_on_c, 0, 55, 0
1, 226080, Note_on_c, 0, 56, 40
1, 226320, Note_on_c, 0, 72, 37
1, 226560, Tempo, 315789
1, 226560, Note_on_c, 0, 72, 0
1, 226560, Note_on_c, 0, 56, 0
1, 226560, Note_on_c, 0, 71, 38
1, 226560, Note_on_c, 0, 52, 33
1, 226617, Control_c, 0, 64, 127
1, 226800, Note_on_c, 0, 71, 0
1, 226800, Note_on_c, 0, 72, 34
1, 227040, Note_on_c, 0, 72, 0
1, 227040, Note_on_c, 0, 52, 0
1, 227040, Note_on_c, 0, 74, 43
1, 227040, Note_on_c, 0, 53, 33
1, 227052, Control_c, 0, 64, 0
1, 227235, Control_c, 0, 64, 127
1, 227280, Tempo, 349040
1, 227280, Note_on_c, 0, 74, 0
1, 227280, Note_on_c, 0, 72, 38
1, 227520, Tempo, 321716
1, 227520, Note_on_c, 0, 72, 0
1, 227520, Note_on_c, 0, 53, 0
1, 227520, Note_on_c, 0, 46, 0
1, 227520, Note_on_c, 0, 55, 42
1, 227520, Note_on_c, 0, 46, 42
1, 227520, Control_c, 0, 64, 0
1, 227760, Note_on_c, 0, 70, 36
1, 228000, Tempo, 314961
1, 228000, Note_on_c, 0, 70, 0
1, 228000, Note_on_c, 0, 55, 0
1, 228000, Note_on_c, 0, 69, 38
1, 228000, Note_on_c, 0, 50, 33
1, 228217, Control_c, 0, 64, 127
1, 228240, Note_on_c, 0, 69, 0
1, 228240, Note_on_c, 0, 70, 36
1, 228480, Note_on_c, 0, 70, 0
1, 228480, Note_on_c, 0, 50, 0
1, 228480, Note_on_c, 0, 72, 44
1, 228480, Note_on_c, 0, 51, 33
1, 228492, Control_c, 0, 64, 0
1, 228640, Control_c, 0, 64, 127
1, 228720, Tempo, 347887
1, 228720, Note_on_c, 0, 72, 0
1, 228720, Note_on_c, 0, 70, 38
1, 228960, Tempo, 325203
1, 228960, Note_on_c, 0, 70, 0
1, 228960, Note_on_c, 0, 51, 0
1, 228960, Note_on_c, 0, 53, 40
1, 228960, Control_c, 0, 64, 0
1, 229200, Note_on_c, 0, 68, 36
1, 229440, Tempo, 314136
1, 229440, Note_on_c, 0, 68, 0
1, 229440, Note_on_c, 0, 53, 0
1, 229440, Note_on_c, 0, 67, 38
1, 229440, Note_on_c, 0, 48, 33
1, 229680, Note_on_c, 0, 67, 0
1, 229680, Note_on_c, 0, 68, 35
1, 229694, Control_c, 0, 64, 127
1, 229920, Note_on_c, 0, 68, 0
1, 229920, Note_on_c, 0, 48, 0
1, 229920, Note_on_c, 0, 70, 44
1, 229920, Note_on_c, 0, 50, 33
1, 230019, Control_c, 0, 64, 0
1, 230132, Control_c, 0, 64, 127
1, 230160, Tempo, 340020
1, 230160, Note_on_c, 0, 70, 0
1, 230160, Note_on_c, 0, 68, 37
1, 230371, Tempo, 334597
1, 230400, Note_on_c, 0, 68, 0
1, 230400, Note_on_c, 0, 50, 0
1, 230400, Note_on_c, 0, 46, 0
1, 230400, Note_on_c, 0, 67, 46
1, 230400, Note_on_c, 0, 51, 40
1, 230400, Control_c, 0, 64, 0
1, 230539, Tempo, 333537
1, 230612, Control_c, 0, 64, 127
1, 230640, Note_on_c, 0, 51, 0
1, 230640, Note_on_c, 0, 58, 28
1, 230683, Tempo, 332484
1, 230851, Tempo, 331437
1, 230880, Note_on_c, 0, 58, 0
1, 230880, Note_on_c, 0, 55, 33
1, 230995, Tempo, 330396
1, 231120, Note_on_c, 0, 55, 0
1, 231120, Note_on_c, 0, 58, 27
1, 231163, Tempo, 329345
1, 231307, Tempo, 328317
1, 231360, Note_on_c, 0, 58, 0
1, 231374, Note_on_c, 0, 53, 33
1, 231376, Control_c, 0, 64, 0
1, 231394, Tempo, 329670
1, 231466, Tempo, 328767
1, 231516, Control_c, 0, 64, 127
1, 231538, Tempo, 327869
1, 231600, Note_on_c, 0, 58, 30
1, 231610, Tempo, 326975
1, 231614, Note_on_c, 0, 53, 0
1, 231658, Tempo, 326087
1, 231730, Tempo, 325203
1, 231802, Tempo, 324324
1, 231840, Note_on_c, 0, 58, 0
1, 231840, Note_on_c, 0, 51, 38
1, 231840, Control_c, 0, 64, 0
1, 231850, Tempo, 323450
1, 231922, Tempo, 322581
1, 231994, Tempo, 321716
1, 232010, Control_c, 0, 64, 127
1, 232042, Tempo, 320856
1, 232080, Tempo, 320000
1, 232080, Note_on_c, 0, 51, 0
1, 232080, Note_on_c, 0, 58, 33
1, 232320, Note_on_c, 0, 58, 0
1, 232320, Note_on_c, 0, 53, 45
1, 232338, Control_c, 0, 64, 0
1, 232504, Control_c, 0, 64, 127
1, 232560, Note_on_c, 0, 53, 0
1, 232560, Note_on_c, 0, 67, 0
1, 232560, Note_on_c, 0, 70, 56
1, 232560, Note_on_c, 0, 58, 37
1, 232800, Note_on_c, 0, 58, 0
1, 232800, Note_on_c, 0, 70, 0
1, 232800, Note_on_c, 0, 75, 62
1, 232800, Note_on_c, 0, 55, 48
1, 232814, Control_c, 0, 64, 0
1, 232927, Control_c, 0, 64, 127
1, 233040, Tempo, 344471
1, 233040, Note_on_c, 0, 55, 0
1, 233040, Note_on_c, 0, 58, 43
1, 233270, Note_on_c, 0, 75, 0
1, 233280, Note_on_c, 0, 58, 0
1, 233280, Note_on_c, 0, 75, 63
1, 233280, Note_on_c, 0, 53, 55
1, 233280, Control_c, 0, 64, 0
1, 233400, Tempo, 332484
1, 233421, Control_c, 0, 64, 127
1, 233515, Tempo, 329345
1, 233520, Note_on_c, 0, 53, 0
1, 233520, Note_on_c, 0, 58, 40
1, 233578, Tempo, 327869
1, 233674, Tempo, 326975
1, 233760, Note_on_c, 0, 58, 0
1, 233760, Note_on_c, 0, 55, 48
1, 233770, Tempo, 326087
1, 233775, Control_c, 0, 64, 0
1, 233859, Control_c, 0, 64, 127
1, 233866, Tempo, 325203
1, 233962, Tempo, 324324
1, 234000, Note_on_c, 0, 55, 0
1, 234000, Note_on_c, 0, 58, 30
1, 234058, Tempo, 323450
1, 234154, Tempo, 322581
1, 234202, Tempo, 323450
1, 234240, Note_on_c, 0, 58, 0
1, 234240, Note_on_c, 0, 56, 40
1, 234246, Control_c, 0, 64, 0
1, 234250, Tempo, 324324
1, 234298, Tempo, 325203
1, 234346, Tempo, 326087
1, 234381, Control_c, 0, 64, 127
1, 234394, Tempo, 326975
1, 234442, Tempo, 327869
1, 234480, Note_on_c, 0, 56, 0
1, 234480, Note_on_c, 0, 58, 33
1, 234490, Tempo, 328767
1, 234538, Tempo, 329670
1, 234586, Tempo, 330579
1, 234610, Tempo, 331492
1, 234643, Tempo, 333537
1, 234715, Tempo, 334597
1, 234720, Note_on_c, 0, 58, 0
1, 234720, Note_on_c, 0, 75, 0
1, 234720, Note_on_c, 0, 74, 57
1, 234720, Note_on_c, 0, 53, 39
1, 234720, Control_c, 0, 64, 0
1, 234847, Control_c, 0, 64, 127
1, 234960, Note_on_c, 0, 53, 0
1, 234960, Note_on_c, 0, 58, 33
1, 235200, Note_on_c, 0, 58, 0
1, 235200, Note_on_c, 0, 74, 0
1, 235200, Note_on_c, 0, 55, 41
1, 235212, Control_c, 0, 64, 0
1, 235356, Control_c, 0, 64, 127
1, 235440, Note_on_c, 0, 55, 0
1, 235440, Note_on_c, 0, 58, 33
1, 235680, Note_on_c, 0, 58, 0
1, 235680, Note_on_c, 0, 56, 41
1, 235694, Control_c, 0, 64, 0
1, 235807, Control_c, 0, 64, 127
1, 235920, Note_on_c, 0, 56, 0
1, 235920, Note_on_c, 0, 58, 33
1, 236160, Tempo, 334597
1, 236160, Note_on_c, 0, 58, 0
1, 236160, Note_on_c, 0, 70, 51
1, 236160, Note_on_c, 0, 50, 40
1, 236160, Control_c, 0, 64, 0
1, 236259, Control_c, 0, 64, 127
1, 236299, Tempo, 333537
1, 236400, Note_on_c, 0, 50, 0
1, 236400, Note_on_c, 0, 58, 28
1, 236443, Tempo, 332484
1, 236611, Tempo, 331437
1, 236640, Note_on_c, 0, 58, 0
1, 236640, Note_on_c, 0, 53, 33
1, 236755, Tempo, 330396
1, 236880, Note_on_c, 0, 53, 0
1, 236880, Note_on_c, 0, 58, 27
1, 236923, Tempo, 329345
1, 237067, Tempo, 328317
1, 237120, Note_on_c, 0, 58, 0
1, 237120, Note_on_c, 0, 51, 38
1, 237140, Control_c, 0, 64, 0
1, 237235, Tempo, 327297
1, 237247, Control_c, 0, 64, 127
1, 237360, Note_on_c, 0, 51, 0
1, 237360, Note_on_c, 0, 58, 34
1, 237379, Tempo, 326282
1, 237600, Note_on_c, 0, 58, 0
1, 237600, Note_on_c, 0, 70, 0
1, 237600, Note_on_c, 0, 70, 61
1, 237600, Note_on_c, 0, 50, 38
1, 237600, Control_c, 0, 64, 0
1, 237660, Control_c, 0, 64, 127
1, 237840, Tempo, 318302
1, 237840, Note_on_c, 0, 50, 0
1, 237840, Note_on_c, 0, 70, 0
1, 237840, Note_on_c, 0, 72, 57
1, 237840, Note_on_c, 0, 58, 34
1, 237920, Note_on_c, 0, 72, 0
1, 237920, Note_on_c, 0, 70, 52
1, 238000, Note_on_c, 0, 70, 0
1, 238000, Note_on_c, 0, 69, 52
1, 238080, Note_on_c, 0, 69, 0
1, 238080, Note_on_c, 0, 58, 0
1, 238080, Note_on_c, 0, 70, 61
1, 238080, Note_on_c, 0, 51, 46
1, 238098, Control_c, 0, 64, 0
1, 238149, Control_c, 0, 64, 127
1, 238320, Note_on_c, 0, 51, 0
1, 238320, Note_on_c, 0, 70, 0
1, 238320, Note_on_c, 0, 77, 65
1, 238320, Note_on_c, 0, 58, 39
1, 238560, Note_on_c, 0, 58, 0
1, 238560, Note_on_c, 0, 77, 0
1, 238560, Note_on_c, 0, 80, 75
1, 238560, Note_on_c, 0, 53, 48
1, 238574, Control_c, 0, 64, 0
1, 238687, Control_c, 0, 64, 127
1, 238800, Tempo, 344471
1, 238800, Note_on_c, 0, 53, 0
1, 238800, Note_on_c, 0, 58, 44
1, 239040, Note_on_c, 0, 58, 0
1, 239040, Note_on_c, 0, 80, 0
1, 239040, Note_on_c, 0, 80, 78
1, 239040, Note_on_c, 0, 51, 55
1, 239040, Control_c, 0, 64, 0
1, 239160, Tempo, 332484
1, 239170, Tempo, 329670
1, 239181, Control_c, 0, 64, 127
1, 239242, Tempo, 328767
1, 239280, Note_on_c, 0, 51, 0
1, 239280, Note_on_c, 0, 58, 43
1, 239290, Tempo, 327869
1, 239362, Tempo, 326975
1, 239410, Tempo, 326087
1, 239482, Tempo, 325203
1, 239520, Note_on_c, 0, 58, 0
1, 239520, Note_on_c, 0, 53, 52
1, 239530, Tempo, 324324
1, 239535, Control_c, 0, 64, 0
1, 239602, Tempo, 323450
1, 239619, Control_c, 0, 64, 127
1, 239650, Tempo, 322581
1, 239698, Tempo, 320856
1, 239760, Note_on_c, 0, 53, 0
1, 239760, Note_on_c, 0, 58, 37
1, 239770, Tempo, 321716
1, 239818, Tempo, 322581
1, 239890, Tempo, 323450
1, 239938, Tempo, 324324
1, 240000, Note_on_c, 0, 58, 0
1, 240000, Note_on_c, 0, 55, 46
1, 240006, Control_c, 0, 64, 0
1, 240010, Tempo, 325203
1, 240058, Tempo, 326087
1, 240106, Tempo, 326975
1, 240115, Tempo, 329345
1, 240141, Control_c, 0, 64, 127
1, 240187, Tempo, 330396
1, 240240, Note_on_c, 0, 55, 0
1, 240240, Note_on_c, 0, 58, 33
1, 240259, Tempo, 331437
1, 240331, Tempo, 332484
1, 240403, Tempo, 333537
1, 240475, Tempo, 334597
1, 240480, Note_on_c, 0, 58, 0
1, 240480, Note_on_c, 0, 80, 0
1, 240480, Note_on_c, 0, 79, 69
1, 240480, Note_on_c, 0, 51, 44
1, 240480, Control_c, 0, 64, 0
1, 240607, Control_c, 0, 64, 127
1, 240720, Note_on_c, 0, 51, 0
1, 240720, Note_on_c, 0, 58, 39
1, 240960, Note_on_c, 0, 58, 0
1, 240960, Note_on_c, 0, 79, 0
1, 240960, Note_on_c, 0, 53, 41
1, 240972, Control_c, 0, 64, 0
1, 241116, Control_c, 0, 64, 127
1, 241200, Note_on_c, 0, 53, 0
1, 241200, Note_on_c, 0, 58, 33
1, 241440, Note_on_c, 0, 58, 0
1, 241440, Note_on_c, 0, 55, 41
1, 241454, Control_c, 0, 64, 0
1, 241567, Control_c, 0, 64, 127
1, 241680, Note_on_c, 0, 55, 0
1, 241680, Note_on_c, 0, 58, 33
1, 241920, Tempo, 334597
1, 241920, Note_on_c, 0, 58, 0
1, 241920, Note_on_c, 0, 67, 56
1, 241920, Note_on_c, 0, 51, 40
1, 241920, Control_c, 0, 64, 0
1, 241954, Tempo, 331492
1, 242040, Note_on_c, 0, 67, 0
1, 242074, Tempo, 330579
1, 242160, Note_on_c, 0, 51, 0
1, 242160, Note_on_c, 0, 68, 58
1, 242160, Note_on_c, 0, 58, 28
1, 242194, Tempo, 329670
1, 242280, Note_on_c, 0, 68, 0
1, 242290, Tempo, 328767
1, 242400, Note_on_c, 0, 58, 0
1, 242400, Note_on_c, 0, 70, 60
1, 242400, Note_on_c, 0, 55, 33
1, 242410, Tempo, 327869
1, 242506, Tempo, 326975
1, 242520, Note_on_c, 0, 70, 0
1, 242626, Tempo, 326087
1, 242640, Note_on_c, 0, 55, 0
1, 242640, Note_on_c, 0, 72, 62
1, 242640, Note_on_c, 0, 58, 27
1, 242722, Tempo, 325203
1, 242760, Note_on_c, 0, 72, 0
1, 242842, Tempo, 324324
1, 242880, Note_on_c, 0, 58, 0
1, 242880, Note_on_c, 0, 74, 64
1, 242880, Note_on_c, 0, 51, 40
1, 242938, Tempo, 323450
1, 243000, Note_on_c, 0, 74, 0
1, 243058, Tempo, 322581
1, 243120, Note_on_c, 0, 51, 0
1, 243120, Note_on_c, 0, 75, 65
1, 243120, Note_on_c, 0, 58, 31
1, 243154, Tempo, 321716
1, 243240, Note_on_c, 0, 75, 0
1, 243274, Tempo, 320856
1, 243360, Note_on_c, 0, 58, 0
1, 243360, Note_on_c, 0, 77, 68
1, 243360, Note_on_c, 0, 51, 43
1, 243370, Tempo, 320000
1, 243480, Note_on_c, 0, 77, 0
1, 243600, Tempo, 316623
1, 243600, Note_on_c, 0, 51, 0
1, 243600, Note_on_c, 0, 79, 70
1, 243600, Note_on_c, 0, 58, 38
1, 243720, Note_on_c, 0, 79, 0
1, 243840, Note_on_c, 0, 58, 0
1, 243840, Note_on_c, 0, 80, 73
1, 243840, Note_on_c, 0, 55, 52
1, 243960, Note_on_c, 0, 80, 0
1, 244080, Note_on_c, 0, 55, 0
1, 244080, Note_on_c, 0, 82, 76
1, 244080, Note_on_c, 0, 58, 45
1, 244200, Note_on_c, 0, 82, 0
1, 244320, Note_on_c, 0, 58, 0
1, 244320, Note_on_c, 0, 84, 79
1, 244320, Note_on_c, 0, 51, 54
1, 244440, Note_on_c, 0, 84, 0
1, 244560, Tempo, 389610
1, 244560, Note_on_c, 0, 51, 0
1, 244560, Note_on_c, 0, 86, 81
1, 244560, Note_on_c, 0, 58, 47
1, 244680, Note_on_c, 0, 86, 0
1, 244800, Tempo, 353982
1, 244800, Note_on_c, 0, 58, 0
1, 244800, Note_on_c, 0, 87, 88
1, 244800, Note_on_c, 0, 53, 52
1, 244800, Control_c, 0, 64, 0
1, 244920, Tempo, 332484
1, 244941, Control_c, 0, 64, 127
1, 244955, Tempo, 327869
1, 245040, Note_on_c, 0, 53, 0
1, 245040, Note_on_c, 0, 58, 43
1, 245075, Tempo, 326975
1, 245171, Tempo, 326087
1, 245267, Tempo, 325203
1, 245280, Note_on_c, 0, 58, 0
1, 245280, Note_on_c, 0, 56, 51
1, 245295, Control_c, 0, 64, 0
1, 245379, Control_c, 0, 64, 127
1, 245387, Tempo, 324324
1, 245483, Tempo, 323450
1, 245520, Note_on_c, 0, 56, 0
1, 245520, Note_on_c, 0, 58, 40
1, 245579, Tempo, 322581
1, 245651, Tempo, 321716
1, 245723, Tempo, 322581
1, 245760, Note_on_c, 0, 58, 0
1, 245760, Note_on_c, 0, 53, 46
1, 245766, Control_c, 0, 64, 0
1, 245795, Tempo, 323450
1, 245867, Tempo, 324324
1, 245901, Control_c, 0, 64, 127
1, 245939, Tempo, 325203
1, 246000, Note_on_c, 0, 53, 0
1, 246000, Note_on_c, 0, 58, 37
1, 246011, Tempo, 326087
1, 246083, Tempo, 326975
1, 246155, Tempo, 327869
1, 246179, Tempo, 328767
1, 246203, Tempo, 328767
1, 246235, Tempo, 334597
1, 246240, Note_on_c, 0, 58, 0
1, 246240, Note_on_c, 0, 87, 0
1, 246240, Note_on_c, 0, 86, 81
1, 246240, Note_on_c, 0, 53, 37
1, 246247, Control_c, 0, 64, 0
1, 246251, Tempo, 328767
1, 246367, Control_c, 0, 64, 127
1, 246480, Note_on_c, 0, 53, 0
1, 246480, Note_on_c, 0, 58, 31
1, 246720, Note_on_c, 0, 58, 0
1, 246720, Note_on_c, 0, 86, 0
1, 246720, Note_on_c, 0, 56, 39
1, 246732, Control_c, 0, 64, 0
1, 246876, Control_c, 0, 64, 127
1, 246960, Note_on_c, 0, 56, 0
1, 246960, Note_on_c, 0, 58, 31
1, 247200, Note_on_c, 0, 58, 0
1, 247200, Note_on_c, 0, 53, 39
1, 247214, Control_c, 0, 64, 0
1, 247327, Control_c, 0, 64, 127
1, 247440, Note_on_c, 0, 53, 0
1, 247440, Note_on_c, 0, 58, 31
1, 247667, Tempo, 328767
1, 247678, Note_on_c, 0, 58, 0
1, 247680, Note_on_c, 0, 58, 56
1, 247680, Note_on_c, 0, 50, 40
1, 247680, Control_c, 0, 64, 0
1, 247800, Note_on_c, 0, 58, 0
1, 247859, Tempo, 327869
1, 247920, Note_on_c, 0, 50, 0
1, 247920, Note_on_c, 0, 60, 58
1, 247920, Note_on_c, 0, 58, 32
1, 248027, Tempo, 326975
1, 248040, Note_on_c, 0, 60, 0
1, 248160, Note_on_c, 0, 58, 0
1, 248160, Note_on_c, 0, 62, 60
1, 248160, Note_on_c, 0, 53, 39
1, 248219, Tempo, 326087
1, 248280, Note_on_c, 0, 62, 0
1, 248387, Tempo, 325203
1, 248400, Note_on_c, 0, 53, 0
1, 248400, Note_on_c, 0, 63, 62
1, 248400, Note_on_c, 0, 58, 29
1, 248520, Note_on_c, 0, 63, 0
1, 248579, Tempo, 324324
1, 248640, Note_on_c, 0, 58, 0
1, 248640, Note_on_c, 0, 65, 64
1, 248640, Note_on_c, 0, 50, 45
1, 248747, Tempo, 323450
1, 248760, Note_on_c, 0, 65, 0
1, 248880, Note_on_c, 0, 50, 0
1, 248880, Note_on_c, 0, 67, 65
1, 248880, Note_on_c, 0, 58, 36
1, 248939, Tempo, 322581
1, 249000, Note_on_c, 0, 67, 0
1, 249107, Tempo, 321716
1, 249120, Note_on_c, 0, 58, 0
1, 249120, Note_on_c, 0, 68, 67
1, 249120, Note_on_c, 0, 50, 48
1, 249240, Note_on_c, 0, 68, 0
1, 249360, Tempo, 318302
1, 249360, Note_on_c, 0, 50, 0
1, 249360, Note_on_c, 0, 70, 70
1, 249360, Note_on_c, 0, 58, 40
1, 249480, Note_on_c, 0, 70, 0
1, 249600, Note_on_c, 0, 58, 0
1, 249600, Note_on_c, 0, 72, 73
1, 249600, Note_on_c, 0, 53, 53
1, 249720, Note_on_c, 0, 72, 0
1, 249840, Note_on_c, 0, 53, 0
1, 249840, Note_on_c, 0, 74, 76
1, 249840, Note_on_c, 0, 58, 45
1, 249960, Note_on_c, 0, 74, 0
1, 250080, Note_on_c, 0, 58, 0
1, 250080, Note_on_c, 0, 75, 79
1, 250080, Note_on_c, 0, 50, 60
1, 250200, Note_on_c, 0, 75, 0
1, 250320, Tempo, 344471
1, 250320, Note_on_c, 0, 50, 0
1, 250320, Note_on_c, 0, 77, 82
1, 250320, Note_on_c, 0, 58, 50
1, 250440, Note_on_c, 0, 77, 0
1, 250560, Note_on_c, 0, 58, 0
1, 250560, Note_on_c, 0, 79, 89
1, 250800, Tempo, 334597
1, 250800, Note_on_c, 0, 51, 43
1, 251040, Tempo, 332484
1, 251040, Note_on_c, 0, 51, 0
1, 251040, Note_on_c, 0, 50, 61
1, 251280, Note_on_c, 0, 50, 0
1, 251280, Note_on_c, 0, 51, 48
1, 251520, Note_on_c, 0, 51, 0
1, 251520, Note_on_c, 0, 50, 60
1, 251760, Tempo, 344471
1, 251760, Note_on_c, 0, 50, 0
1, 251760, Note_on_c, 0, 51, 50
1, 252000, Tempo, 333537
1, 252000, Note_on_c, 0, 51, 0
1, 252000, Note_on_c, 0, 79, 0
1, 252000, Note_on_c, 0, 87, 100
1, 252000, Note_on_c, 0, 43, 67
1, 252099, Control_c, 0, 64, 127
1, 252240, Tempo, 330396
1, 252240, Note_on_c, 0, 43, 0
1, 252240, Note_on_c, 0, 51, 45
1, 252480, Note_on_c, 0, 51, 0
1, 252480, Note_on_c, 0, 44, 59
1, 252492, Control_c, 0, 64, 0
1, 252650, Control_c, 0, 64, 127
1, 252720, Note_on_c, 0, 44, 0
1, 252720, Note_on_c, 0, 51, 51
1, 252960, Tempo, 334597
1, 252960, Note_on_c, 0, 51, 0
1, 252960, Note_on_c, 0, 87, 0
1, 252960, Note_on_c, 0, 55, 77
1, 252960, Note_on_c, 0, 46, 60
1, 252976, Control_c, 0, 64, 0
1, 253101, Control_c, 0, 64, 127
1, 253200, Tempo, 344471
1, 253200, Note_on_c, 0, 46, 0
1, 253200, Note_on_c, 0, 51, 44
1, 253440, Tempo, 334597
1, 253440, Note_on_c, 0, 51, 0
1, 253440, Note_on_c, 0, 55, 0
1, 253440, Note_on_c, 0, 56, 82
1, 253440, Note_on_c, 0, 44, 65
1, 253440, Control_c, 0, 64, 0
1, 253624, Control_c, 0, 64, 127
1, 253680, Note_on_c, 0, 44, 0
1, 253680, Note_on_c, 0, 51, 49
1, 253920, Tempo, 332484
1, 253920, Note_on_c, 0, 51, 0
1, 253920, Note_on_c, 0, 46, 60
1, 253930, Control_c, 0, 64, 0
1, 254061, Control_c, 0, 64, 127
1, 254160, Note_on_c, 0, 46, 0
1, 254160, Note_on_c, 0, 51, 47
1, 254400, Note_on_c, 0, 51, 0
1, 254400, Note_on_c, 0, 48, 59
1, 254410, Control_c, 0, 64, 0
1, 254527, Control_c, 0, 64, 127
1, 254640, Tempo, 344471
1, 254640, Note_on_c, 0, 48, 0
1, 254640, Note_on_c, 0, 51, 48
1, 254880, Tempo, 332484
1, 254880, Note_on_c, 0, 51, 0
1, 254880, Note_on_c, 0, 56, 0
1, 254880, Note_on_c, 0, 57, 84
1, 254880, Note_on_c, 0, 45, 67
1, 254880, Control_c, 0, 64, 0
1, 254983, Control_c, 0, 64, 127
1, 255120, Note_on_c, 0, 45, 0
1, 255120, Note_on_c, 0, 51, 49
1, 255360, Note_on_c, 0, 51, 0
1, 255360, Note_on_c, 0, 46, 59
1, 255373, Control_c, 0, 64, 0
1, 255520, Control_c, 0, 64, 127
1, 255600, Note_on_c, 0, 46, 0
1, 255600, Note_on_c, 0, 51, 47
1, 255840, Note_on_c, 0, 51, 0
1, 255840, Note_on_c, 0, 48, 57
1, 255853, Control_c, 0, 64, 0
1, 255955, Control_c, 0, 64, 127
1, 256080, Tempo, 342231
1, 256080, Note_on_c, 0, 48, 0
1, 256080, Note_on_c, 0, 51, 44
1, 256320, Tempo, 331437
1, 256320, Note_on_c, 0, 51, 0
1, 256320, Note_on_c, 0, 57, 0
1, 256320, Note_on_c, 0, 58, 84
1, 256320, Note_on_c, 0, 46, 64
1, 256320, Control_c, 0, 64, 0
1, 256504, Control_c, 0, 64, 127
1, 256560, Note_on_c, 0, 46, 0
1, 256560, Note_on_c, 0, 55, 46
1, 256800, Note_on_c, 0, 55, 0
1, 256800, Note_on_c, 0, 51, 57
1, 257040, Note_on_c, 0, 51, 0
1, 257040, Note_on_c, 0, 55, 45
1, 257280, Note_on_c, 0, 55, 0
1, 257280, Note_on_c, 0, 46, 56
1, 257520, Tempo, 338906
1, 257520, Note_on_c, 0, 46, 0
1, 257520, Note_on_c, 0, 55, 56
1, 257745, Tempo, 338906
1, 257760, Note_on_c, 0, 55, 0
1, 257760, Note_on_c, 0, 58, 0
1, 257760, Note_on_c, 0, 56, 84
1, 257760, Note_on_c, 0, 46, 64
1, 257793, Tempo, 337819
1, 257817, Tempo, 336738
1, 257817, Control_c, 0, 64, 0
1, 257841, Tempo, 335664
1, 257865, Tempo, 334597
1, 257880, Note_on_c, 0, 56, 0
1, 257880, Note_on_c, 0, 58, 57
1, 257880, Control_c, 0, 64, 127
1, 257913, Tempo, 333537
1, 257937, Tempo, 332484
1, 257961, Tempo, 331437
1, 257985, Tempo, 330396
1, 258000, Note_on_c, 0, 58, 0
1, 258000, Note_on_c, 0, 46, 0
1, 258000, Note_on_c, 0, 56, 61
1, 258000, Note_on_c, 0, 53, 46
1, 258080, Note_on_c, 0, 56, 0
1, 258080, Note_on_c, 0, 58, 57
1, 258160, Note_on_c, 0, 58, 0
1, 258160, Note_on_c, 0, 56, 64
1, 258240, Note_on_c, 0, 56, 0
1, 258240, Note_on_c, 0, 53, 0
1, 258240, Note_on_c, 0, 58, 56
1, 258240, Note_on_c, 0, 50, 56
1, 258320, Note_on_c, 0, 58, 0
1, 258320, Note_on_c, 0, 56, 64
1, 258400, Note_on_c, 0, 56, 0
1, 258400, Note_on_c, 0, 58, 56
1, 258480, Note_on_c, 0, 58, 0
1, 258480, Note_on_c, 0, 50, 0
1, 258480, Note_on_c, 0, 56, 64
1, 258480, Note_on_c, 0, 53, 45
1, 258560, Note_on_c, 0, 56, 0
1, 258560, Note_on_c, 0, 58, 55
1, 258640, Note_on_c, 0, 58, 0
1, 258640, Note_on_c, 0, 56, 64
1, 258720, Note_on_c, 0, 56, 0
1, 258720, Note_on_c, 0, 53, 0
1, 258720, Note_on_c, 0, 58, 54
1, 258720, Note_on_c, 0, 46, 58
1, 258753, Tempo, 329345
1, 258801, Tempo, 330396
1, 258840, Note_on_c, 0, 58, 0
1, 258840, Note_on_c, 0, 56, 59
1, 258849, Tempo, 331437
1, 258897, Tempo, 332484
1, 258945, Tempo, 333537
1, 258960, Note_on_c, 0, 56, 0
1, 258960, Note_on_c, 0, 46, 0
1, 258960, Note_on_c, 0, 55, 55
1, 258960, Note_on_c, 0, 53, 53
1, 258993, Tempo, 334597
1, 259041, Tempo, 335664
1, 259080, Note_on_c, 0, 55, 0
1, 259080, Note_on_c, 0, 56, 57
1, 259089, Tempo, 336738
1, 259137, Tempo, 337819
1, 259200, Tempo, 332484
1, 259200, Note_on_c, 0, 56, 0
1, 259200, Note_on_c, 0, 53, 0
1, 259200, Note_on_c, 0, 55, 74
1, 259200, Note_on_c, 0, 39, 64
1, 259200, Note_on_c, 0, 51, 64
1, 259254, Control_c, 0, 64, 0
1, 259440, Tempo, 329670
1, 259440, Note_on_c, 0, 55, 0
1, 259440, Note_on_c, 0, 58, 60
1, 259483, Control_c, 0, 64, 127
1, 259680, Note_on_c, 0, 58, 0
1, 259680, Note_on_c, 0, 51, 0
1, 259680, Note_on_c, 0, 39, 0
1, 259680, Note_on_c, 0, 63, 68
1, 259920, Note_on_c, 0, 63, 0
1, 259920, Note_on_c, 0, 58, 61
1, 260160, Note_on_c, 0, 58, 0
1, 260160, Note_on_c, 0, 63, 69
1, 260400, Note_on_c, 0, 63, 0
1, 260400, Note_on_c, 0, 67, 63
1, 260640, Tempo, 326087
1, 260640, Note_on_c, 0, 67, 0
1, 260640, Note_on_c, 0, 70, 69
1, 260880, Note_on_c, 0, 70, 0
1, 260880, Note_on_c, 0, 67, 60
1, 261120, Note_on_c, 0, 67, 0
1, 261120, Note_on_c, 0, 70, 69
1, 261360, Note_on_c, 0, 70, 0
1, 261360, Note_on_c, 0, 75, 62
1, 261600, Note_on_c, 0, 75, 0
1, 261600, Note_on_c, 0, 79, 78
1, 261840, Note_on_c, 0, 79, 0
1, 261840, Note_on_c, 0, 82, 73
1, 262080, Tempo, 333537
1, 262080, Note_on_c, 0, 82, 0
1, 262080, Note_on_c, 0, 87, 89
1, 262080, Note_on_c, 0, 43, 67
1, 262080, Control_c, 0, 64, 0
1, 262179, Control_c, 0, 64, 127
1, 262320, Tempo, 330396
1, 262320, Note_on_c, 0, 43, 0
1, 262320, Note_on_c, 0, 87, 0
1, 262320, Note_on_c, 0, 51, 45
1, 262560, Note_on_c, 0, 51, 0
1, 262560, Note_on_c, 0, 44, 50
1, 262572, Control_c, 0, 64, 0
1, 262730, Control_c, 0, 64, 127
1, 262800, Note_on_c, 0, 44, 0
1, 262800, Note_on_c, 0, 51, 47
1, 263040, Tempo, 334597
1, 263040, Note_on_c, 0, 51, 0
1, 263040, Note_on_c, 0, 63, 84
1, 263040, Note_on_c, 0, 46, 54
1, 263056, Control_c, 0, 64, 0
1, 263181, Control_c, 0, 64, 127
1, 263280, Tempo, 344471
1, 263280, Note_on_c, 0, 46, 0
1, 263280, Note_on_c, 0, 51, 44
1, 263520, Tempo, 333537
1, 263520, Note_on_c, 0, 51, 0
1, 263520, Note_on_c, 0, 43, 67
1, 263619, Control_c, 0, 64, 127
1, 263760, Tempo, 330396
1, 263760, Note_on_c, 0, 43, 0
1, 263760, Note_on_c, 0, 51, 45
1, 264000, Note_on_c, 0, 51, 0
1, 264000, Note_on_c, 0, 44, 50
1, 264012, Control_c, 0, 64, 0
1, 264170, Control_c, 0, 64, 127
1, 264240, Note_on_c, 0, 44, 0
1, 264240, Note_on_c, 0, 51, 47
1, 264480, Tempo, 334597
1, 264480, Note_on_c, 0, 51, 0
1, 264480, Note_on_c, 0, 63, 0
1, 264480, Note_on_c, 0, 55, 81
1, 264480, Note_on_c, 0, 46, 54
1, 264496, Control_c, 0, 64, 0
1, 264621, Control_c, 0, 64, 127
1, 264720, Tempo, 344471
1, 264720, Note_on_c, 0, 46, 0
1, 264720, Note_on_c, 0, 51, 44
1, 264960, Tempo, 334597
1, 264960, Note_on_c, 0, 51, 0
1, 264960, Note_on_c, 0, 55, 0
1, 264960, Note_on_c, 0, 56, 84
1, 264960, Note_on_c, 0, 44, 65
1, 264960, Control_c, 0, 64, 0
1, 265144, Control_c, 0, 64, 127
1, 265200, Note_on_c, 0, 44, 0
1, 265200, Note_on_c, 0, 51, 45
1, 265440, Tempo, 328767
1, 265440, Note_on_c, 0, 51, 0
1, 265440, Note_on_c, 0, 46, 59
1, 265450, Control_c, 0, 64, 0
1, 265581, Control_c, 0, 64, 127
1, 265680, Note_on_c, 0, 46, 0
1, 265680, Note_on_c, 0, 51, 42
1, 265920, Note_on_c, 0, 51, 0
1, 265920, Note_on_c, 0, 56, 0
1, 265920, Note_on_c, 0, 63, 84
1, 265920, Note_on_c, 0, 48, 58
1, 265930, Control_c, 0, 64, 0
1, 266047, Control_c, 0, 64, 127
1, 266160, Tempo, 344471
1, 266160, Note_on_c, 0, 48, 0
1, 266160, Note_on_c, 0, 51, 45
1, 266400, Tempo, 332484
1, 266400, Note_on_c, 0, 51, 0
1, 266400, Note_on_c, 0, 63, 0
1, 266400, Note_on_c, 0, 57, 92
1, 266400, Note_on_c, 0, 45, 67
1, 266400, Control_c, 0, 64, 0
1, 266503, Control_c, 0, 64, 127
1, 266640, Note_on_c, 0, 45, 0
1, 266640, Note_on_c, 0, 51, 45
1, 266880, Tempo, 328767
1, 266880, Note_on_c, 0, 51, 0
1, 266880, Note_on_c, 0, 46, 60
1, 266893, Control_c, 0, 64, 0
1, 267040, Control_c, 0, 64, 127
1, 267120, Note_on_c, 0, 46, 0
1, 267120, Note_on_c, 0, 51, 47
1, 267360, Note_on_c, 0, 51, 0
1, 267360, Note_on_c, 0, 57, 0
1, 267360, Note_on_c, 0, 63, 84
1, 267360, Note_on_c, 0, 48, 58
1, 267373, Control_c, 0, 64, 0
1, 267475, Control_c, 0, 64, 127
1, 267600, Tempo, 342231
1, 267600, Note_on_c, 0, 48, 0
1, 267600, Note_on_c, 0, 51, 44
1, 267840, Tempo, 332484
1, 267840, Note_on_c, 0, 51, 0
1, 267840, Note_on_c, 0, 63, 0
1, 267840, Note_on_c, 0, 58, 77
1, 267840, Note_on_c, 0, 46, 67
1, 267840, Control_c, 0, 64, 0
1, 267943, Control_c, 0, 64, 127
1, 268080, Tempo, 325203
1, 268080, Note_on_c, 0, 46, 0
1, 268080, Note_on_c, 0, 58, 0
1, 268080, Note_on_c, 0, 63, 60
1, 268080, Note_on_c, 0, 51, 53
1, 268320, Note_on_c, 0, 51, 0
1, 268320, Note_on_c, 0, 63, 0
1, 268320, Note_on_c, 0, 62, 69
1, 268320, Note_on_c, 0, 50, 61
1, 268333, Control_c, 0, 64, 0
1, 268480, Control_c, 0, 64, 127
1, 268560, Note_on_c, 0, 50, 0
1, 268560, Note_on_c, 0, 62, 0
1, 268560, Note_on_c, 0, 63, 55
1, 268560, Note_on_c, 0, 51, 48
1, 268800, Note_on_c, 0, 51, 0
1, 268800, Note_on_c, 0, 63, 0
1, 268800, Note_on_c, 0, 59, 68
1, 268800, Note_on_c, 0, 47, 61
1, 268813, Control_c, 0, 64, 0
1, 268915, Control_c, 0, 64, 127
1, 269040, Tempo, 342231
1, 269040, Note_on_c, 0, 47, 0
1, 269040, Note_on_c, 0, 59, 0
1, 269040, Note_on_c, 0, 63, 61
1, 269040, Note_on_c, 0, 51, 49
1, 269280, Tempo, 332484
1, 269280, Note_on_c, 0, 51, 0
1, 269280, Note_on_c, 0, 63, 0
1, 269280, Note_on_c, 0, 60, 82
1, 269280, Note_on_c, 0, 48, 71
1, 269280, Control_c, 0, 64, 0
1, 269383, Control_c, 0, 64, 127
1, 269520, Tempo, 324324
1, 269520, Note_on_c, 0, 48, 0
1, 269520, Note_on_c, 0, 60, 0
1, 269520, Note_on_c, 0, 63, 63
1, 269520, Note_on_c, 0, 51, 52
1, 269760, Note_on_c, 0, 51, 0
1, 269760, Note_on_c, 0, 63, 0
1, 269760, Note_on_c, 0, 62, 70
1, 269760, Note_on_c, 0, 50, 63
1, 269773, Control_c, 0, 64, 0
1, 269920, Control_c, 0, 64, 127
1, 270000, Note_on_c, 0, 50, 0
1, 270000, Note_on_c, 0, 62, 0
1, 270000, Note_on_c, 0, 63, 62
1, 270000, Note_on_c, 0, 51, 55
1, 270240, Note_on_c, 0, 51, 0
1, 270240, Note_on_c, 0, 63, 0
1, 270240, Note_on_c, 0, 57, 70
1, 270240, Note_on_c, 0, 45, 66
1, 270253, Control_c, 0, 64, 0
1, 270355, Control_c, 0, 64, 127
1, 270480, Tempo, 342231
1, 270480, Note_on_c, 0, 45, 0
1, 270480, Note_on_c, 0, 57, 0
1, 270480, Note_on_c, 0, 63, 61
1, 270480, Note_on_c, 0, 51, 49
1, 270720, Tempo, 332484
1, 270720, Note_on_c, 0, 51, 0
1, 270720, Note_on_c, 0, 63, 0
1, 270720, Note_on_c, 0, 58, 88
1, 270720, Note_on_c, 0, 46, 77
1, 270720, Control_c, 0, 64, 0
1, 270823, Control_c, 0, 64, 127
1, 270960, Tempo, 323450
1, 270960, Note_on_c, 0, 46, 0
1, 270960, Note_on_c, 0, 58, 0
1, 270960, Note_on_c, 0, 63, 66
1, 270960, Note_on_c, 0, 51, 56
1, 271200, Note_on_c, 0, 51, 0
1, 271200, Note_on_c, 0, 63, 0
1, 271200, Note_on_c, 0, 61, 75
1, 271200, Note_on_c, 0, 49, 66
1, 271213, Control_c, 0, 64, 0
1, 271360, Control_c, 0, 64, 127
1, 271440, Note_on_c, 0, 49, 0
1, 271440, Note_on_c, 0, 61, 0
1, 271440, Note_on_c, 0, 63, 62
1, 271440, Note_on_c, 0, 51, 54
1, 271680, Note_on_c, 0, 51, 0
1, 271680, Note_on_c, 0, 63, 0
1, 271680, Note_on_c, 0, 59, 74
1, 271680, Note_on_c, 0, 47, 67
1, 271693, Control_c, 0, 64, 0
1, 271795, Control_c, 0, 64, 127
1, 271920, Tempo, 342231
1, 271920, Note_on_c, 0, 47, 0
1, 271920, Note_on_c, 0, 59, 0
1, 271920, Note_on_c, 0, 63, 65
1, 271920, Note_on_c, 0, 51, 56
1, 272160, Tempo, 332484
1, 272160, Note_on_c, 0, 51, 0
1, 272160, Note_on_c, 0, 63, 0
1, 272160, Note_on_c, 0, 60, 88
1, 272160, Note_on_c, 0, 48, 77
1, 272160, Control_c, 0, 64, 0
1, 272263, Control_c, 0, 64, 127
1, 272400, Tempo, 323450
1, 272400, Note_on_c, 0, 48, 0
1, 272400, Note_on_c, 0, 60, 0
1, 272400, Note_on_c, 0, 63, 65
1, 272400, Note_on_c, 0, 51, 58
1, 272640, Note_on_c, 0, 51, 0
1, 272640, Note_on_c, 0, 63, 0
1, 272640, Note_on_c, 0, 62, 71
1, 272640, Note_on_c, 0, 50, 63
1, 272653, Control_c, 0, 64, 0
1, 272800, Control_c, 0, 64, 127
1, 272880, Note_on_c, 0, 50, 0
1, 272880, Note_on_c, 0, 62, 0
1, 272880, Note_on_c, 0, 63, 65
1, 272880, Note_on_c, 0, 51, 58
1, 273120, Note_on_c, 0, 51, 0
1, 273120, Note_on_c, 0, 63, 0
1, 273120, Note_on_c, 0, 57, 80
1, 273120, Note_on_c, 0, 45, 71
1, 273133, Control_c, 0, 64, 0
1, 273235, Control_c, 0, 64, 127
1, 273360, Tempo, 342231
1, 273360, Note_on_c, 0, 45, 0
1, 273360, Note_on_c, 0, 57, 0
1, 273360, Note_on_c, 0, 63, 72
1, 273360, Note_on_c, 0, 51, 65
1, 273600, Note_on_c, 0, 51, 0
1, 273600, Note_on_c, 0, 63, 0
1, 273600, Note_on_c, 0, 58, 93
1, 273600, Note_on_c, 0, 46, 82
1, 273600, Control_c, 0, 64, 0
1, 274080, Note_on_c, 0, 46, 0
1, 274080, Note_on_c, 0, 58, 0
1, 274080, Note_on_c, 0, 46, 77
1, 274080, Note_on_c, 0, 51, 77
1, 274080, Note_on_c, 0, 55, 87
1, 274200, Note_on_c, 0, 55, 0
1, 274200, Note_on_c, 0, 51, 0
1, 274200, Note_on_c, 0, 46, 0
1, 274440, Note_on_c, 0, 63, 81
1, 274460, Control_c, 0, 64, 127
1, 274560, Tempo, 327869
1, 274560, Note_on_c, 0, 63, 0
1, 274560, Note_on_c, 0, 70, 87
1, 274920, Tempo, 354946
1, 274920, Note_on_c, 0, 70, 0
1, 274920, Note_on_c, 0, 67, 84
1, 275040, Tempo, 338906
1, 275040, Note_on_c, 0, 67, 0
1, 275040, Note_on_c, 0, 75, 93
1, 275040, Control_c, 0, 64, 0
1, 275160, Note_on_c, 0, 75, 0
1, 275520, Tempo, 342231
1, 275520, Note_on_c, 0, 51, 77
1, 275520, Note_on_c, 0, 48, 77
1, 275520, Note_on_c, 0, 54, 87
1, 275640, Note_on_c, 0, 54, 0
1, 275640, Note_on_c, 0, 48, 0
1, 275640, Note_on_c, 0, 51, 0
1, 275880, Note_on_c, 0, 63, 81
1, 275900, Control_c, 0, 64, 127
1, 276000, Tempo, 328767
1, 276000, Note_on_c, 0, 63, 0
1, 276000, Note_on_c, 0, 69, 87
1, 276360, Tempo, 354946
1, 276360, Note_on_c, 0, 69, 0
1, 276360, Note_on_c, 0, 66, 84
1, 276480, Tempo, 338906
1, 276480, Note_on_c, 0, 66, 0
1, 276480, Note_on_c, 0, 75, 93
1, 276480, Control_c, 0, 64, 0
1, 276600, Note_on_c, 0, 75, 0
1, 276960, Tempo, 342231
1, 276960, Note_on_c, 0, 55, 87
1, 276960, Note_on_c, 0, 46, 77
1, 276960, Note_on_c, 0, 51, 77
1, 277080, Note_on_c, 0, 51, 0
1, 277080, Note_on_c, 0, 46, 0
1, 277080, Note_on_c, 0, 55, 0
1, 277320, Note_on_c, 0, 63, 81
1, 277340, Control_c, 0, 64, 127
1, 277440, Tempo, 327869
1, 277440, Note_on_c, 0, 63, 0
1, 277440, Note_on_c, 0, 70, 87
1, 277800, Tempo, 354946
1, 277800, Note_on_c, 0, 70, 0
1, 277800, Note_on_c, 0, 67, 84
1, 277920, Tempo, 338906
1, 277920, Note_on_c, 0, 67, 0
1, 277920, Note_on_c, 0, 75, 93
1, 277920, Control_c, 0, 64, 0
1, 278040, Note_on_c, 0, 75, 0
1, 278400, Tempo, 342231
1, 278400, Note_on_c, 0, 57, 87
1, 278400, Note_on_c, 0, 51, 77
1, 278400, Note_on_c, 0, 54, 77
1, 278400, Note_on_c, 0, 45, 77
1, 278520, Note_on_c, 0, 45, 0
1, 278520, Note_on_c, 0, 57, 0
1, 278520, Note_on_c, 0, 51, 0
1, 278520, Note_on_c, 0, 54, 0
1, 278760, Note_on_c, 0, 72, 81
1, 278780, Control_c, 0, 64, 127
1, 278880, Tempo, 330579
1, 278880, Note_on_c, 0, 72, 0
1, 278880, Note_on_c, 0, 78, 87
1, 279240, Tempo, 354946
1, 279240, Note_on_c, 0, 78, 0
1, 279240, Note_on_c, 0, 75, 84
1, 279360, Tempo, 338906
1, 279360, Note_on_c, 0, 75, 0
1, 279360, Note_on_c, 0, 79, 95
1, 279360, Control_c, 0, 64, 0
1, 279840, Note_on_c, 0, 46, 77
1, 279840, Note_on_c, 0, 58, 87
1, 279840, Note_on_c, 0, 55, 77
1, 279840, Note_on_c, 0, 51, 77
1, 279960, Note_on_c, 0, 51, 0
1, 279960, Note_on_c, 0, 58, 0
1, 279960, Note_on_c, 0, 55, 0
1, 279960, Note_on_c, 0, 46, 0
1, 280080, Note_on_c, 0, 79, 0
1, 280080, Note_on_c, 0, 75, 85
1, 280320, Tempo, 332484
1, 280320, Note_on_c, 0, 75, 0
1, 280320, Note_on_c, 0, 75, 93
1, 280320, Control_c, 0, 64, 127
1, 280560, Note_on_c, 0, 75, 0
1, 280560, Note_on_c, 0, 70, 79
1, 280740, Note_on_c, 0, 70, 0
1, 280800, Tempo, 332484
1, 280800, Note_on_c, 0, 70, 88
1, 281040, Note_on_c, 0, 70, 0
1, 281040, Note_on_c, 0, 67, 78
1, 281220, Note_on_c, 0, 67, 0
1, 281280, Tempo, 327869
1, 281280, Note_on_c, 0, 67, 85
1, 281520, Tempo, 335664
1, 281520, Note_on_c, 0, 67, 0
1, 281520, Note_on_c, 0, 63, 77
1, 281700, Note_on_c, 0, 63, 0
1, 281760, Tempo, 326975
1, 281760, Note_on_c, 0, 63, 81
1, 282000, Tempo, 336738
1, 282000, Note_on_c, 0, 63, 0
1, 282000, Note_on_c, 0, 58, 77
1, 282180, Note_on_c, 0, 58, 0
1, 282240, Tempo, 327869
1, 282240, Note_on_c, 0, 58, 81
1, 282480, Tempo, 337819
1, 282480, Note_on_c, 0, 58, 0
1, 282480, Note_on_c, 0, 55, 77
1, 282660, Note_on_c, 0, 55, 0
1, 282720, Tempo, 331437
1, 282720, Note_on_c, 0, 55, 82
1, 282960, Tempo, 341122
1, 282960, Note_on_c, 0, 55, 0
1, 282960, Note_on_c, 0, 51, 77
1, 283140, Note_on_c, 0, 51, 0
1, 283200, Tempo, 332484
1, 283200, Note_on_c, 0, 51, 83
1, 283440, Tempo, 394971
1, 283440, Note_on_c, 0, 51, 0
1, 283440, Note_on_c, 0, 46, 77
1, 283620, Note_on_c, 0, 46, 0
1, 283680, Tempo, 352568
1, 283680, Note_on_c, 0, 46, 92
1, 283680, Note_on_c, 0, 34, 78
1, 283680, Control_c, 0, 64, 0
1, 284640, Tempo, 359799
1, 284640, Note_on_c, 0, 58, 66
1, 284640, Note_on_c, 0, 62, 78
1, 284640, Note_on_c, 0, 56, 70
1, 284640, Note_on_c, 0, 53, 59
1, 285120, Note_on_c, 0, 53, 0
1, 285120, Note_on_c, 0, 34, 0
1, 285120, Note_on_c, 0, 58, 0
1, 285120, Note_on_c, 0, 46, 0
1, 285120, Note_on_c, 0, 56, 0
1, 285120, Note_on_c, 0, 62, 0
1, 285120, Note_on_c, 0, 58, 70
1, 285120, Note_on_c, 0, 63, 83
1, 285120, Note_on_c, 0, 55, 79
1, 285120, Note_on_c, 0, 39, 67
1, 285600, Tempo, 346741
1, 285600, Note_on_c, 0, 39, 0
1, 285600, Note_on_c, 0, 58, 0
1, 285600, Note_on_c, 0, 63, 0
1, 285600, Note_on_c, 0, 55, 0
1, 285600, Note_on_c, 0, 46, 51
1, 286080, Note_on_c, 0, 45, 51
1, 286560, Tempo, 356146
1, 286560, Note_on_c, 0, 45, 0
1, 286560, Note_on_c, 0, 44, 51
1, 287040, Tempo, 346741
1, 287040, Note_on_c, 0, 44, 0
1, 287040, Note_on_c, 0, 70, 53
1, 287040, Note_on_c, 0, 65, 42
1, 287040, Note_on_c, 0, 68, 42
1, 287040, Note_on_c, 0, 62, 42
1, 287040, Note_on_c, 0, 43, 49
1, 287520, Tempo, 352568
1, 287520, Note_on_c, 0, 43, 0
1, 287520, Note_on_c, 0, 70, 0
1, 287520, Note_on_c, 0, 65, 0
1, 287520, Note_on_c, 0, 68, 0
1, 287520, Note_on_c, 0, 62, 0
1, 287520, Note_on_c, 0, 62, 38
1, 287520, Note_on_c, 0, 65, 38
1, 287520, Note_on_c, 0, 68, 38
1, 287520, Note_on_c, 0, 70, 48
1, 287520, Note_on_c, 0, 41, 49
1, 288000, Tempo, 347887
1, 288000, Note_on_c, 0, 41, 0
1, 288000, Note_on_c, 0, 62, 0
1, 288000, Note_on_c, 0, 65, 0
1, 288000, Note_on_c, 0, 46, 0
1, 288000, Note_on_c, 0, 70, 0
1, 288000, Note_on_c, 0, 68, 0
1, 288000, Note_on_c, 0, 63, 42
1, 288000, Note_on_c, 0, 67, 42
1, 288000, Note_on_c, 0, 72, 53
1, 288000, Note_on_c, 0, 39, 51
1, 288187, Control_c, 0, 64, 127
1, 288480, Note_on_c, 0, 39, 0
1, 288480, Note_on_c, 0, 72, 0
1, 288480, Note_on_c, 0, 70, 49
1, 288480, Note_on_c, 0, 43, 47
1, 288495, Control_c, 0, 64, 0
1, 288960, Note_on_c, 0, 43, 0
1, 288960, Note_on_c, 0, 63, 0
1, 288960, Note_on_c, 0, 67, 0
1, 288960, Note_on_c, 0, 70, 0
1, 288960, Note_on_c, 0, 46, 47
1, 289440, Tempo, 359799
1, 289440, Note_on_c, 0, 46, 0
1, 289440, Note_on_c, 0, 34, 51
1, 289920, Tempo, 346741
1, 289920, Note_on_c, 0, 34, 0
1, 289920, Note_on_c, 0, 65, 42
1, 289920, Note_on_c, 0, 68, 42
1, 289920, Note_on_c, 0, 74, 53
1, 289920, Note_on_c, 0, 41, 48
1, 290080, Control_c, 0, 64, 127
1, 290400, Tempo, 352568
1, 290400, Note_on_c, 0, 41, 0
1, 290400, Note_on_c, 0, 65, 0
1, 290400, Note_on_c, 0, 68, 0
1, 290400, Note_on_c, 0, 74, 0
1, 290400, Note_on_c, 0, 65, 38
1, 290400, Note_on_c, 0, 68, 38
1, 290400, Note_on_c, 0, 74, 48
1, 290400, Note_on_c, 0, 46, 48
1, 290880, Tempo, 346741
1, 290880, Note_on_c, 0, 46, 0
1, 290880, Note_on_c, 0, 65, 0
1, 290880, Note_on_c, 0, 68, 0
1, 290880, Note_on_c, 0, 74, 0
1, 290880, Note_on_c, 0, 67, 42
1, 290880, Note_on_c, 0, 70, 42
1, 290880, Note_on_c, 0, 77, 53
1, 290880, Note_on_c, 0, 39, 67
1, 290880, Control_c, 0, 64, 0
1, 291223, Control_c, 0, 64, 127
1, 291360, Tempo, 346741
1, 291360, Note_on_c, 0, 39, 0
1, 291360, Note_on_c, 0, 77, 0
1, 291360, Note_on_c, 0, 75, 49
1, 291360, Note_on_c, 0, 46, 51
1, 291380, Control_c, 0, 64, 0
1, 291840, Note_on_c, 0, 75, 0
1, 291840, Note_on_c, 0, 67, 0
1, 291840, Note_on_c, 0, 70, 0
1, 291840, Note_on_c, 0, 45, 51
1, 292320, Tempo, 356146
1, 292320, Note_on_c, 0, 45, 0
1, 292320, Note_on_c, 0, 44, 51
1, 292800, Tempo, 346741
1, 292800, Note_on_c, 0, 44, 0
1, 292800, Note_on_c, 0, 62, 42
1, 292800, Note_on_c, 0, 65, 42
1, 292800, Note_on_c, 0, 68, 42
1, 292800, Note_on_c, 0, 70, 53
1, 292800, Note_on_c, 0, 43, 49
1, 293280, Tempo, 352568
1, 293280, Note_on_c, 0, 43, 0
1, 293280, Note_on_c, 0, 62, 0
1, 293280, Note_on_c, 0, 65, 0
1, 293280, Note_on_c, 0, 68, 0
1, 293280, Note_on_c, 0, 70, 0
1, 293280, Note_on_c, 0, 70, 48
1, 293280, Note_on_c, 0, 65, 38
1, 293280, Note_on_c, 0, 68, 38
1, 293280, Note_on_c, 0, 62, 38
1, 293280, Note_on_c, 0, 41, 49
1, 293760, Tempo, 347887
1, 293760, Note_on_c, 0, 41, 0
1, 293760, Note_on_c, 0, 70, 0
1, 293760, Note_on_c, 0, 65, 0
1, 293760, Note_on_c, 0, 46, 0
1, 293760, Note_on_c, 0, 62, 0
1, 293760, Note_on_c, 0, 68, 0
1, 293760, Note_on_c, 0, 63, 42
1, 293760, Note_on_c, 0, 67, 42
1, 293760, Note_on_c, 0, 72, 53
1, 293760, Note_on_c, 0, 39, 51
1, 294000, Control_c, 0, 64, 127
1, 294240, Note_on_c, 0, 39, 0
1, 294240, Note_on_c, 0, 72, 0
1, 294240, Note_on_c, 0, 70, 49
1, 294240, Note_on_c, 0, 43, 47
1, 294260, Control_c, 0, 64, 0
1, 294720, Note_on_c, 0, 43, 0
1, 294720, Note_on_c, 0, 63, 0
1, 294720, Note_on_c, 0, 67, 0
1, 294720, Note_on_c, 0, 70, 0
1, 294720, Note_on_c, 0, 46, 47
1, 295200, Tempo, 359799
1, 295200, Note_on_c, 0, 46, 0
1, 295200, Note_on_c, 0, 34, 51
1, 295680, Tempo, 346741
1, 295680, Note_on_c, 0, 34, 0
1, 295680, Note_on_c, 0, 53, 42
1, 295680, Note_on_c, 0, 56, 42
1, 295680, Note_on_c, 0, 62, 53
1, 295680, Note_on_c, 0, 41, 48
1, 295894, Control_c, 0, 64, 127
1, 296160, Tempo, 352568
1, 296160, Note_on_c, 0, 41, 0
1, 296160, Note_on_c, 0, 53, 0
1, 296160, Note_on_c, 0, 56, 0
1, 296160, Note_on_c, 0, 62, 0
1, 296160, Note_on_c, 0, 53, 38
1, 296160, Note_on_c, 0, 56, 38
1, 296160, Note_on_c, 0, 62, 48
1, 296160, Note_on_c, 0, 46, 48
1, 296640, Tempo, 346741
1, 296640, Note_on_c, 0, 46, 0
1, 296640, Note_on_c, 0, 53, 0
1, 296640, Note_on_c, 0, 56, 0
1, 296640, Note_on_c, 0, 62, 0
1, 296640, Note_on_c, 0, 55, 42
1, 296640, Note_on_c, 0, 58, 42
1, 296640, Note_on_c, 0, 65, 53
1, 296640, Note_on_c, 0, 39, 51
1, 296640, Control_c, 0, 64, 0
1, 296880, Control_c, 0, 64, 127
1, 297120, Note_on_c, 0, 39, 0
1, 297120, Note_on_c, 0, 65, 0
1, 297120, Note_on_c, 0, 63, 49
1, 297120, Note_on_c, 0, 43, 47
1, 297140, Control_c, 0, 64, 0
1, 297600, Note_on_c, 0, 43, 0
1, 297600, Note_on_c, 0, 55, 0
1, 297600, Note_on_c, 0, 58, 0
1, 297600, Note_on_c, 0, 63, 0
1, 297600, Note_on_c, 0, 46, 47
1, 298080, Tempo, 359799
1, 298080, Note_on_c, 0, 46, 0
1, 298080, Note_on_c, 0, 34, 51
1, 298560, Tempo, 346741
1, 298560, Note_on_c, 0, 34, 0
1, 298560, Note_on_c, 0, 53, 42
1, 298560, Note_on_c, 0, 56, 42
1, 298560, Note_on_c, 0, 62, 53
1, 298560, Note_on_c, 0, 41, 48
1, 298640, Control_c, 0, 64, 127
1, 299040, Tempo, 375235
1, 299040, Note_on_c, 0, 41, 0
1, 299040, Note_on_c, 0, 53, 0
1, 299040, Note_on_c, 0, 56, 0
1, 299040, Note_on_c, 0, 62, 0
1, 299040, Note_on_c, 0, 53, 38
1, 299040, Note_on_c, 0, 56, 38
1, 299040, Note_on_c, 0, 62, 48
1, 299040, Note_on_c, 0, 46, 48
1, 299520, Tempo, 361054
1, 299520, Note_on_c, 0, 46, 0
1, 299520, Note_on_c, 0, 53, 0
1, 299520, Note_on_c, 0, 56, 0
1, 299520, Note_on_c, 0, 62, 0
1, 299520, Note_on_c, 0, 56, 42
1, 299520, Note_on_c, 0, 62, 42
1, 299520, Note_on_c, 0, 65, 53
1, 299520, Note_on_c, 0, 39, 51
1, 299520, Control_c, 0, 64, 0
1, 299894, Control_c, 0, 64, 127
1, 300000, Tempo, 384837
1, 300000, Note_on_c, 0, 39, 0
1, 300000, Note_on_c, 0, 43, 47
1, 300480, Tempo, 464900
1, 300480, Note_on_c, 0, 43, 0
1, 300480, Note_on_c, 0, 46, 47
1, 300960, Note_on_c, 0, 46, 0
1, 300960, Note_on_c, 0, 56, 0
1, 300960, Note_on_c, 0, 62, 0
1, 300960, Note_on_c, 0, 65, 0
1, 300960, Note_on_c, 0, 58, 44
1, 300960, Note_on_c, 0, 63, 49
1, 300960, Note_on_c, 0, 51, 40
1, 300960, Note_on_c, 0, 55, 44
1, 300960, Control_c, 0, 64, 0
1, 301440, Tempo, 464900
1, 301440, Note_on_c, 0, 55, 0
1, 301440, Note_on_c, 0, 58, 0
1, 301440, Note_on_c, 0, 63, 0
1, 301440, Note_on_c, 0, 51, 0
1, 302400, Tempo, 327297
1, 302400, Marker_t, "Teil2"
1, 302400, Note_on_c, 0, 64, 69
1, 302400, Note_on_c, 0, 67, 69
1, 302400, Note_on_c, 0, 72, 82
1, 302400, Note_on_c, 0, 60, 70
1, 302400, Note_on_c, 0, 55, 59
1, 302400, Note_on_c, 0, 52, 59
1, 302400, Note_on_c, 0, 48, 59
1, 302556, Control_c, 0, 64, 127
1, 303120, Note_on_c, 0, 48, 0
1, 303120, Note_on_c, 0, 55, 0
1, 303120, Note_on_c, 0, 67, 0
1, 303120, Note_on_c, 0, 72, 0
1, 303120, Note_on_c, 0, 64, 0
1, 303120, Note_on_c, 0, 52, 0
1, 303120, Note_on_c, 0, 60, 0
1, 303240, Note_on_c, 0, 67, 70
1, 303360, Tempo, 318302
1, 303360, Note_on_c, 0, 67, 0
1, 303360, Note_on_c, 0, 76, 78
1, 303720, Note_on_c, 0, 76, 0
1, 303720, Note_on_c, 0, 72, 70
1, 303840, Note_on_c, 0, 72, 0
1, 303840, Note_on_c, 0, 79, 79
1, 304200, Note_on_c, 0, 79, 0
1, 304200, Note_on_c, 0, 76, 70
1, 304320, Note_on_c, 0, 76, 0
1, 304320, Note_on_c, 0, 84, 79
1, 304680, Tempo, 353753
1, 304680, Note_on_c, 0, 84, 0
1, 304680, Note_on_c, 0, 79, 70
1, 304800, Tempo, 327297
1, 304800, Note_on_c, 0, 79, 0
1, 304800, Note_on_c, 0, 88, 84
1, 304821, Control_c, 0, 64, 0
1, 304920, Note_on_c, 0, 88, 0
1, 305280, Note_on_c, 0, 88, 84
1, 305400, Note_on_c, 0, 88, 0
1, 305760, Tempo, 351906
1, 306212, Control_c, 0, 64, 127
1, 306240, Tempo, 333537
1, 306240, Note_on_c, 0, 72, 39
1, 306240, Note_on_c, 0, 76, 46
1, 306240, Note_on_c, 0, 64, 34
1, 306240, Note_on_c, 0, 67, 41
1, 306480, Note_on_c, 0, 67, 0
1, 306480, Note_on_c, 0, 72, 0
1, 306480, Note_on_c, 0, 76, 0
1, 306480, Note_on_c, 0, 64, 0
1, 306720, Note_on_c, 0, 72, 42
1, 306720, Note_on_c, 0, 76, 50
1, 306720, Note_on_c, 0, 67, 41
1, 306720, Note_on_c, 0, 64, 34
1, 307200, Tempo, 343348
1, 307680, Tempo, 401016
1, 307680, Note_on_c, 0, 64, 0
1, 307680, Note_on_c, 0, 72, 0
1, 307680, Note_on_c, 0, 76, 0
1, 307680, Note_on_c, 0, 67, 0
1, 307680, Note_on_c, 0, 74, 46
1, 307680, Note_on_c, 0, 71, 39
1, 307680, Note_on_c, 0, 65, 32
1, 307680, Note_on_c, 0, 68, 38
1, 307692, Control_c, 0, 64, 0
1, 308150, Note_on_c, 0, 68, 0
1, 308150, Note_on_c, 0, 74, 0
1, 308150, Note_on_c, 0, 71, 0
1, 308150, Note_on_c, 0, 65, 0
1, 308160, Tempo, 327297
1, 308160, Note_on_c, 0, 71, 42
1, 308160, Note_on_c, 0, 74, 50
1, 308160, Note_on_c, 0, 65, 34
1, 308160, Note_on_c, 0, 68, 41
1, 308316, Control_c, 0, 64, 127
1, 308880, Note_on_c, 0, 68, 0
1, 308880, Note_on_c, 0, 71, 0
1, 308880, Note_on_c, 0, 74, 0
1, 308880, Note_on_c, 0, 65, 0
1, 309000, Note_on_c, 0, 71, 70
1, 309120, Tempo, 318302
1, 309120, Note_on_c, 0, 71, 0
1, 309120, Note_on_c, 0, 77, 78
1, 309480, Note_on_c, 0, 77, 0
1, 309480, Note_on_c, 0, 74, 70
1, 309600, Note_on_c, 0, 74, 0
1, 309600, Note_on_c, 0, 83, 79
1, 309960, Note_on_c, 0, 83, 0
1, 309960, Note_on_c, 0, 77, 70
1, 310080, Note_on_c, 0, 77, 0
1, 310080, Note_on_c, 0, 86, 79
1, 310440, Tempo, 353753
1, 310440, Note_on_c, 0, 86, 0
1, 310440, Note_on_c, 0, 83, 70
1, 310560, Tempo, 327297
1, 310560, Note_on_c, 0, 83, 0
1, 310560, Note_on_c, 0, 89, 84
1, 310581, Control_c, 0, 64, 0
1, 310680, Note_on_c, 0, 89, 0
1, 311040, Note_on_c, 0, 89, 84
1, 311160, Note_on_c, 0, 89, 0
1, 311520, Tempo, 342231
1, 312000, Tempo, 333537
1, 312000, Note_on_c, 0, 74, 39
1, 312000, Note_on_c, 0, 77, 46
1, 312000, Note_on_c, 0, 65, 34
1, 312000, Note_on_c, 0, 68, 41
1, 312177, Control_c, 0, 64, 127
1, 312240, Note_on_c, 0, 68, 0
1, 312240, Note_on_c, 0, 74, 0
1, 312240, Note_on_c, 0, 77, 0
1, 312240, Note_on_c, 0, 65, 0
1, 312480, Note_on_c, 0, 74, 42
1, 312480, Note_on_c, 0, 77, 50
1, 312480, Note_on_c, 0, 68, 41
1, 312480, Note_on_c, 0, 65, 34
1, 312960, Tempo, 343348
1, 313440, Tempo, 401016
1, 313440, Note_on_c, 0, 65, 0
1, 313440, Note_on_c, 0, 74, 0
1, 313440, Note_on_c, 0, 77, 0
1, 313440, Note_on_c, 0, 68, 0
1, 313440, Note_on_c, 0, 76, 46
1, 313440, Note_on_c, 0, 73, 39
1, 313440, Note_on_c, 0, 67, 32
1, 313440, Note_on_c, 0, 70, 38
1, 313450, Control_c, 0, 64, 0
1, 313910, Note_on_c, 0, 70, 0
1, 313910, Note_on_c, 0, 76, 0
1, 313910, Note_on_c, 0, 73, 0
1, 313910, Note_on_c, 0, 67, 0
1, 313920, Tempo, 327297
1, 313920, Note_on_c, 0, 73, 42
1, 313920, Note_on_c, 0, 76, 50
1, 313920, Note_on_c, 0, 67, 34
1, 313920, Note_on_c, 0, 70, 41
1, 314076, Control_c, 0, 64, 127
1, 314640, Note_on_c, 0, 70, 0
1, 314640, Note_on_c, 0, 73, 0
1, 314640, Note_on_c, 0, 76, 0
1, 314640, Note_on_c, 0, 67, 0
1, 314760, Note_on_c, 0, 70, 70
1, 314880, Tempo, 318302
1, 314880, Note_on_c, 0, 70, 0
1, 314880, Note_on_c, 0, 76, 78
1, 315240, Note_on_c, 0, 76, 0
1, 315240, Note_on_c, 0, 73, 70
1, 315360, Note_on_c, 0, 73, 0
1, 315360, Note_on_c, 0, 79, 84
1, 315720, Note_on_c, 0, 79, 0
1, 315720, Note_on_c, 0, 76, 70
1, 315840, Note_on_c, 0, 76, 0
1, 315840, Note_on_c, 0, 82, 85
1, 316200, Tempo, 353753
1, 316200, Note_on_c, 0, 82, 0
1, 316200, Note_on_c, 0, 79, 70
1, 316320, Tempo, 327297
1, 316320, Note_on_c, 0, 79, 0
1, 316320, Note_on_c, 0, 85, 89
1, 316341, Control_c, 0, 64, 0
1, 316440, Note_on_c, 0, 85, 0
1, 316800, Tempo, 324272
1, 316800, Note_on_c, 0, 67, 87
1, 316800, Control_c, 0, 64, 0
1, 316920, Note_on_c, 0, 67, 0
1, 317280, Tempo, 333537
1, 317280, Note_on_c, 0, 82, 86
1, 317400, Note_on_c, 0, 82, 0
1, 318240, Tempo, 325274
1, 318240, Note_on_c, 0, 64, 85
1, 318360, Note_on_c, 0, 64, 0
1, 318720, Tempo, 331437
1, 318720, Note_on_c, 0, 79, 79
1, 318840, Note_on_c, 0, 79, 0
1, 319200, Tempo, 360664
1, 319675, Tempo, 336134
1, 319680, Note_on_c, 0, 65, 42
1, 319680, Note_on_c, 0, 77, 50
1, 319680, Note_on_c, 0, 53, 40
1, 319892, Control_c, 0, 64, 127
1, 319920, Note_on_c, 0, 53, 0
1, 319920, Note_on_c, 0, 60, 32
1, 319931, Tempo, 335196
1, 320155, Tempo, 334262
1, 320160, Note_on_c, 0, 60, 0
1, 320160, Note_on_c, 0, 56, 34
1, 320379, Tempo, 333333
1, 320400, Note_on_c, 0, 56, 0
1, 320400, Note_on_c, 0, 60, 32
1, 320635, Tempo, 332410
1, 320640, Note_on_c, 0, 60, 0
1, 320640, Note_on_c, 0, 53, 34
1, 320859, Tempo, 331492
1, 320880, Note_on_c, 0, 53, 0
1, 320880, Note_on_c, 0, 60, 32
1, 321083, Tempo, 330579
1, 321120, Note_on_c, 0, 60, 0
1, 321120, Note_on_c, 0, 77, 0
1, 321120, Note_on_c, 0, 65, 0
1, 321120, Note_on_c, 0, 84, 53
1, 321120, Note_on_c, 0, 72, 45
1, 321120, Note_on_c, 0, 53, 40
1, 321120, Control_c, 0, 64, 0
1, 321261, Control_c, 0, 64, 127
1, 321360, Note_on_c, 0, 53, 0
1, 321360, Note_on_c, 0, 60, 33
1, 321600, Note_on_c, 0, 60, 0
1, 321600, Note_on_c, 0, 56, 34
1, 321840, Note_on_c, 0, 56, 0
1, 321840, Note_on_c, 0, 60, 32
1, 322070, Note_on_c, 0, 72, 0
1, 322070, Note_on_c, 0, 84, 0
1, 322080, Note_on_c, 0, 60, 0
1, 322080, Note_on_c, 0, 84, 50
1, 322080, Note_on_c, 0, 72, 42
1, 322080, Note_on_c, 0, 53, 35
1, 322320, Note_on_c, 0, 53, 0
1, 322320, Note_on_c, 0, 60, 32
1, 322550, Note_on_c, 0, 72, 0
1, 322550, Note_on_c, 0, 84, 0
1, 322560, Tempo, 326087
1, 322560, Note_on_c, 0, 60, 0
1, 322560, Note_on_c, 0, 84, 54
1, 322560, Note_on_c, 0, 72, 45
1, 322560, Note_on_c, 0, 55, 40
1, 322560, Control_c, 0, 64, 0
1, 322716, Control_c, 0, 64, 127
1, 322800, Note_on_c, 0, 55, 0
1, 322800, Note_on_c, 0, 60, 32
1, 323040, Note_on_c, 0, 60, 0
1, 323040, Note_on_c, 0, 72, 0
1, 323040, Note_on_c, 0, 84, 0
1, 323040, Note_on_c, 0, 83, 50
1, 323040, Note_on_c, 0, 71, 42
1, 323040, Note_on_c, 0, 58, 34
1, 323049, Control_c, 0, 64, 0
1, 323196, Control_c, 0, 64, 127
1, 323280, Note_on_c, 0, 58, 0
1, 323280, Note_on_c, 0, 60, 32
1, 323520, Tempo, 339943
1, 323520, Note_on_c, 0, 60, 0
1, 323520, Note_on_c, 0, 71, 0
1, 323520, Note_on_c, 0, 83, 0
1, 323520, Note_on_c, 0, 85, 50
1, 323520, Note_on_c, 0, 73, 42
1, 323520, Note_on_c, 0, 55, 37
1, 323529, Control_c, 0, 64, 0
1, 323647, Control_c, 0, 64, 127
1, 323760, Note_on_c, 0, 55, 0
1, 323760, Note_on_c, 0, 60, 32
1, 324000, Tempo, 329670
1, 324000, Note_on_c, 0, 60, 0
1, 324000, Note_on_c, 0, 73, 0
1, 324000, Note_on_c, 0, 85, 0
1, 324000, Note_on_c, 0, 72, 42
1, 324000, Note_on_c, 0, 84, 50
1, 324000, Note_on_c, 0, 52, 32
1, 324000, Control_c, 0, 64, 0
1, 324149, Control_c, 0, 64, 127
1, 324240, Note_on_c, 0, 52, 0
1, 324240, Note_on_c, 0, 60, 32
1, 324480, Note_on_c, 0, 60, 0
1, 324480, Note_on_c, 0, 84, 0
1, 324480, Note_on_c, 0, 72, 0
1, 324480, Note_on_c, 0, 82, 50
1, 324480, Note_on_c, 0, 70, 42
1, 324480, Note_on_c, 0, 55, 35
1, 324720, Note_on_c, 0, 55, 0
1, 324720, Note_on_c, 0, 60, 32
1, 324960, Tempo, 340909
1, 324960, Note_on_c, 0, 60, 0
1, 324960, Note_on_c, 0, 70, 0
1, 324960, Note_on_c, 0, 82, 0
1, 324960, Note_on_c, 0, 79, 50
1, 324960, Note_on_c, 0, 67, 42
1, 324960, Note_on_c, 0, 52, 37
1, 325200, Note_on_c, 0, 52, 0
1, 325200, Note_on_c, 0, 60, 32
1, 325440, Tempo, 327869
1, 325440, Note_on_c, 0, 60, 0
1, 325440, Note_on_c, 0, 67, 0
1, 325440, Note_on_c, 0, 79, 0
1, 325440, Note_on_c, 0, 76, 56
1, 325440, Note_on_c, 0, 64, 47
1, 325440, Note_on_c, 0, 48, 40
1, 325440, Control_c, 0, 64, 0
1, 325577, Control_c, 0, 64, 127
1, 325680, Note_on_c, 0, 48, 0
1, 325680, Note_on_c, 0, 60, 31
1, 325920, Note_on_c, 0, 60, 0
1, 325920, Note_on_c, 0, 52, 36
1, 326160, Note_on_c, 0, 52, 0
1, 326160, Note_on_c, 0, 60, 32
1, 326400, Tempo, 338983
1, 326400, Note_on_c, 0, 60, 0
1, 326400, Note_on_c, 0, 64, 0
1, 326400, Note_on_c, 0, 76, 0
1, 326400, Note_on_c, 0, 67, 50
1, 326400, Note_on_c, 0, 79, 59
1, 326400, Note_on_c, 0, 55, 38
1, 326640, Note_on_c, 0, 55, 0
1, 326640, Note_on_c, 0, 60, 33
1, 326880, Tempo, 327869
1, 326880, Note_on_c, 0, 60, 0
1, 326880, Note_on_c, 0, 79, 0
1, 326880, Note_on_c, 0, 67, 0
1, 326880, Note_on_c, 0, 84, 65
1, 326880, Note_on_c, 0, 72, 55
1, 326880, Note_on_c, 0, 52, 45
1, 326880, Control_c, 0, 64, 0
1, 327097, Control_c, 0, 64, 127
1, 327120, Note_on_c, 0, 52, 0
1, 327120, Note_on_c, 0, 60, 35
1, 327360, Note_on_c, 0, 60, 0
1, 327360, Note_on_c, 0, 55, 38
1, 327600, Note_on_c, 0, 55, 0
1, 327600, Note_on_c, 0, 60, 31
1, 327840, Tempo, 353982
1, 327840, Note_on_c, 0, 60, 0
1, 327840, Note_on_c, 0, 72, 0
1, 327840, Note_on_c, 0, 84, 0
1, 327840, Note_on_c, 0, 79, 59
1, 327840, Note_on_c, 0, 67, 50
1, 327840, Note_on_c, 0, 58, 37
1, 328080, Note_on_c, 0, 58, 0
1, 328080, Note_on_c, 0, 60, 31
1, 328320, Tempo, 334262
1, 328320, Note_on_c, 0, 60, 0
1, 328320, Note_on_c, 0, 67, 0
1, 328320, Note_on_c, 0, 79, 0
1, 328320, Note_on_c, 0, 70, 54
1, 328320, Note_on_c, 0, 82, 64
1, 328320, Note_on_c, 0, 53, 45
1, 328320, Control_c, 0, 64, 0
1, 328476, Control_c, 0, 64, 127
1, 328560, Note_on_c, 0, 53, 0
1, 328560, Note_on_c, 0, 60, 31
1, 328800, Note_on_c, 0, 60, 0
1, 328800, Note_on_c, 0, 56, 36
1, 329040, Note_on_c, 0, 56, 0
1, 329040, Note_on_c, 0, 60, 31
1, 329280, Tempo, 344828
1, 329280, Note_on_c, 0, 60, 0
1, 329280, Note_on_c, 0, 53, 36
1, 329520, Note_on_c, 0, 53, 0
1, 329520, Note_on_c, 0, 60, 31
1, 329760, Tempo, 336134
1, 329760, Note_on_c, 0, 60, 0
1, 329760, Note_on_c, 0, 82, 0
1, 329760, Note_on_c, 0, 70, 0
1, 329760, Note_on_c, 0, 80, 58
1, 329760, Note_on_c, 0, 68, 49
1, 329760, Note_on_c, 0, 53, 40
1, 329760, Control_c, 0, 64, 0
1, 329943, Control_c, 0, 64, 127
1, 330000, Note_on_c, 0, 53, 0
1, 330000, Note_on_c, 0, 60, 30
1, 330240, Note_on_c, 0, 60, 0
1, 330240, Note_on_c, 0, 68, 0
1, 330240, Note_on_c, 0, 80, 0
1, 330240, Note_on_c, 0, 52, 42
1, 330255, Control_c, 0, 64, 0
1, 330366, Control_c, 0, 64, 127
1, 330480, Note_on_c, 0, 52, 0
1, 330480, Note_on_c, 0, 53, 40
1, 330720, Note_on_c, 0, 53, 0
1, 330720, Note_on_c, 0, 69, 48
1, 330720, Note_on_c, 0, 81, 57
1, 330720, Note_on_c, 0, 51, 49
1, 330734, Control_c, 0, 64, 0
1, 330857, Control_c, 0, 64, 127
1, 330960, Note_on_c, 0, 51, 0
1, 330960, Note_on_c, 0, 53, 43
1, 331200, Tempo, 336134
1, 331200, Note_on_c, 0, 53, 0
1, 331200, Note_on_c, 0, 81, 0
1, 331200, Note_on_c, 0, 69, 0
1, 331200, Note_on_c, 0, 70, 52
1, 331200, Note_on_c, 0, 82, 62
1, 331200, Note_on_c, 0, 49, 52
1, 331200, Control_c, 0, 64, 0
1, 331412, Control_c, 0, 64, 127
1, 331440, Note_on_c, 0, 49, 0
1, 331440, Note_on_c, 0, 53, 38
1, 331451, Tempo, 335196
1, 331675, Tempo, 334262
1, 331680, Note_on_c, 0, 53, 0
1, 331680, Note_on_c, 0, 48, 43
1, 331688, Control_c, 0, 64, 0
1, 331840, Control_c, 0, 64, 127
1, 331899, Tempo, 333333
1, 331920, Note_on_c, 0, 48, 0
1, 331920, Note_on_c, 0, 53, 32
1, 332155, Tempo, 332410
1, 332160, Note_on_c, 0, 53, 0
1, 332160, Note_on_c, 0, 49, 38
1, 332169, Control_c, 0, 64, 0
1, 332332, Control_c, 0, 64, 127
1, 332379, Tempo, 331492
1, 332400, Note_on_c, 0, 49, 0
1, 332400, Note_on_c, 0, 53, 32
1, 332603, Tempo, 330579
1, 332640, Note_on_c, 0, 53, 0
1, 332640, Note_on_c, 0, 82, 0
1, 332640, Note_on_c, 0, 70, 0
1, 332640, Note_on_c, 0, 89, 66
1, 332640, Note_on_c, 0, 77, 56
1, 332640, Note_on_c, 0, 46, 45
1, 332640, Control_c, 0, 64, 0
1, 332781, Control_c, 0, 64, 127
1, 332880, Note_on_c, 0, 46, 0
1, 332880, Note_on_c, 0, 53, 33
1, 333120, Note_on_c, 0, 53, 0
1, 333120, Note_on_c, 0, 48, 34
1, 333128, Control_c, 0, 64, 0
1, 333223, Control_c, 0, 64, 127
1, 333360, Note_on_c, 0, 48, 0
1, 333360, Note_on_c, 0, 53, 32
1, 333590, Note_on_c, 0, 77, 0
1, 333590, Note_on_c, 0, 89, 0
1, 333600, Note_on_c, 0, 53, 0
1, 333600, Note_on_c, 0, 89, 62
1, 333600, Note_on_c, 0, 77, 52
1, 333600, Note_on_c, 0, 49, 35
1, 333604, Control_c, 0, 64, 0
1, 333715, Control_c, 0, 64, 127
1, 333840, Note_on_c, 0, 49, 0
1, 333840, Note_on_c, 0, 53, 32
1, 334070, Note_on_c, 0, 77, 0
1, 334070, Note_on_c, 0, 89, 0
1, 334080, Tempo, 326087
1, 334080, Note_on_c, 0, 53, 0
1, 334080, Note_on_c, 0, 89, 68
1, 334080, Note_on_c, 0, 77, 57
1, 334080, Note_on_c, 0, 48, 46
1, 334080, Control_c, 0, 64, 0
1, 334236, Control_c, 0, 64, 127
1, 334320, Note_on_c, 0, 48, 0
1, 334320, Note_on_c, 0, 53, 32
1, 334560, Note_on_c, 0, 53, 0
1, 334560, Note_on_c, 0, 77, 0
1, 334560, Note_on_c, 0, 89, 0
1, 334560, Note_on_c, 0, 88, 62
1, 334560, Note_on_c, 0, 76, 52
1, 334560, Note_on_c, 0, 51, 34
1, 334569, Control_c, 0, 64, 0
1, 334716, Control_c, 0, 64, 127
1, 334800, Note_on_c, 0, 51, 0
1, 334800, Note_on_c, 0, 53, 32
1, 335040, Tempo, 339943
1, 335040, Note_on_c, 0, 53, 0
1, 335040, Note_on_c, 0, 76, 0
1, 335040, Note_on_c, 0, 88, 0
1, 335040, Note_on_c, 0, 90, 62
1, 335040, Note_on_c, 0, 78, 52
1, 335040, Note_on_c, 0, 48, 37
1, 335049, Control_c, 0, 64, 0
1, 335167, Control_c, 0, 64, 127
1, 335280, Note_on_c, 0, 48, 0
1, 335280, Note_on_c, 0, 53, 32
1, 335520, Tempo, 329670
1, 335520, Note_on_c, 0, 53, 0
1, 335520, Note_on_c, 0, 78, 0
1, 335520, Note_on_c, 0, 90, 0
1, 335520, Note_on_c, 0, 77, 52
1, 335520, Note_on_c, 0, 89, 62
1, 335520, Note_on_c, 0, 45, 40
1, 335520, Control_c, 0, 64, 0
1, 335669, Control_c, 0, 64, 127
1, 335760, Note_on_c, 0, 45, 0
1, 335760, Note_on_c, 0, 53, 32
1, 336000, Note_on_c, 0, 53, 0
1, 336000, Note_on_c, 0, 89, 0
1, 336000, Note_on_c, 0, 77, 0
1, 336000, Note_on_c, 0, 87, 62
1, 336000, Note_on_c, 0, 75, 52
1, 336000, Note_on_c, 0, 48, 35
1, 336240, Note_on_c, 0, 48, 0
1, 336240, Note_on_c, 0, 53, 32
1, 336480, Tempo, 340909
1, 336480, Note_on_c, 0, 53, 0
1, 336480, Note_on_c, 0, 75, 0
1, 336480, Note_on_c, 0, 87, 0
1, 336480, Note_on_c, 0, 84, 62
1, 336480, Note_on_c, 0, 72, 52
1, 336480, Note_on_c, 0, 45, 37
1, 336720, Note_on_c, 0, 45, 0
1, 336720, Note_on_c, 0, 53, 32
1, 336960, Tempo, 327869
1, 336960, Note_on_c, 0, 53, 0
1, 336960, Note_on_c, 0, 72, 0
1, 336960, Note_on_c, 0, 84, 0
1, 336960, Note_on_c, 0, 81, 70
1, 336960, Note_on_c, 0, 69, 59
1, 336960, Note_on_c, 0, 41, 40
1, 336960, Control_c, 0, 64, 0
1, 337097, Control_c, 0, 64, 127
1, 337200, Note_on_c, 0, 41, 0
1, 337200, Note_on_c, 0, 53, 31
1, 337440, Note_on_c, 0, 53, 0
1, 337440, Note_on_c, 0, 45, 45
1, 337680, Note_on_c, 0, 45, 0
1, 337680, Note_on_c, 0, 53, 37
1, 337920, Tempo, 338983
1, 337920, Note_on_c, 0, 53, 0
1, 337920, Note_on_c, 0, 69, 0
1, 337920, Note_on_c, 0, 81, 0
1, 337920, Note_on_c, 0, 72, 61
1, 337920, Note_on_c, 0, 84, 73
1, 337920, Note_on_c, 0, 48, 46
1, 338160, Note_on_c, 0, 48, 0
1, 338160, Note_on_c, 0, 53, 39
1, 338400, Tempo, 327869
1, 338400, Note_on_c, 0, 53, 0
1, 338400, Note_on_c, 0, 84, 0
1, 338400, Note_on_c, 0, 72, 0
1, 338400, Note_on_c, 0, 89, 81
1, 338400, Note_on_c, 0, 77, 68
1, 338400, Note_on_c, 0, 45, 51
1, 338400, Control_c, 0, 64, 0
1, 338617, Control_c, 0, 64, 127
1, 338640, Note_on_c, 0, 45, 0
1, 338640, Note_on_c, 0, 53, 44
1, 338880, Note_on_c, 0, 53, 0
1, 338880, Note_on_c, 0, 48, 38
1, 339120, Note_on_c, 0, 48, 0
1, 339120, Note_on_c, 0, 53, 31
1, 339360, Tempo, 353982
1, 339360, Note_on_c, 0, 53, 0
1, 339360, Note_on_c, 0, 77, 0
1, 339360, Note_on_c, 0, 89, 0
1, 339360, Note_on_c, 0, 84, 73
1, 339360, Note_on_c, 0, 72, 61
1, 339360, Note_on_c, 0, 51, 37
1, 339600, Note_on_c, 0, 51, 0
1, 339600, Note_on_c, 0, 53, 31
1, 339840, Tempo, 334262
1, 339840, Note_on_c, 0, 53, 0
1, 339840, Note_on_c, 0, 72, 0
1, 339840, Note_on_c, 0, 84, 0
1, 339840, Note_on_c, 0, 75, 68
1, 339840, Note_on_c, 0, 87, 80
1, 339840, Note_on_c, 0, 46, 45
1, 339840, Control_c, 0, 64, 0
1, 339996, Control_c, 0, 64, 127
1, 340080, Note_on_c, 0, 46, 0
1, 340080, Note_on_c, 0, 53, 31
1, 340320, Note_on_c, 0, 53, 0
1, 340320, Note_on_c, 0, 49, 36
1, 340560, Note_on_c, 0, 49, 0
1, 340560, Note_on_c, 0, 53, 31
1, 340800, Tempo, 344828
1, 340800, Note_on_c, 0, 53, 0
1, 340800, Note_on_c, 0, 46, 36
1, 341040, Note_on_c, 0, 46, 0
1, 341040, Note_on_c, 0, 53, 31
1, 341280, Tempo, 336134
1, 341280, Note_on_c, 0, 53, 0
1, 341280, Note_on_c, 0, 87, 0
1, 341280, Note_on_c, 0, 75, 0
1, 341280, Note_on_c, 0, 85, 72
1, 341280, Note_on_c, 0, 73, 61
1, 341280, Note_on_c, 0, 46, 40
1, 341280, Control_c, 0, 64, 0
1, 341463, Control_c, 0, 64, 127
1, 341520, Note_on_c, 0, 46, 0
1, 341520, Note_on_c, 0, 53, 30
1, 341760, Note_on_c, 0, 53, 0
1, 341760, Note_on_c, 0, 73, 0
1, 341760, Note_on_c, 0, 85, 0
1, 341760, Note_on_c, 0, 49, 33
1, 341775, Control_c, 0, 64, 0
1, 341886, Control_c, 0, 64, 127
1, 342000, Note_on_c, 0, 49, 0
1, 342000, Note_on_c, 0, 53, 30
1, 342240, Note_on_c, 0, 53, 0
1, 342240, Note_on_c, 0, 73, 61
1, 342240, Note_on_c, 0, 46, 33
1, 342480, Note_on_c, 0, 46, 0
1, 342480, Note_on_c, 0, 53, 30
1, 342720, Note_on_c, 0, 53, 0
1, 342720, Note_on_c, 0, 73, 0
1, 342720, Note_on_c, 0, 72, 67
1, 342720, Note_on_c, 0, 44, 40
1, 342720, Control_c, 0, 64, 0
1, 342816, Control_c, 0, 64, 127
1, 342960, Tempo, 331492
1, 342960, Note_on_c, 0, 44, 0
1, 342960, Note_on_c, 0, 54, 32
1, 343200, Note_on_c, 0, 54, 0
1, 343200, Note_on_c, 0, 51, 48
1, 343440, Note_on_c, 0, 51, 0
1, 343440, Note_on_c, 0, 54, 40
1, 343680, Note_on_c, 0, 54, 0
1, 343680, Note_on_c, 0, 72, 0
1, 343680, Note_on_c, 0, 75, 61
1, 343680, Note_on_c, 0, 44, 51
1, 343800, Note_on_c, 0, 75, 0
1, 343800, Note_on_c, 0, 77, 57
1, 343880, Note_on_c, 0, 77, 0
1, 343880, Note_on_c, 0, 75, 61
1, 343920, Tempo, 344828
1, 343920, Note_on_c, 0, 44, 0
1, 343920, Note_on_c, 0, 54, 46
1, 343960, Note_on_c, 0, 75, 0
1, 343960, Note_on_c, 0, 74, 65
1, 344040, Note_on_c, 0, 74, 0
1, 344040, Note_on_c, 0, 75, 69
1, 344160, Tempo, 335196
1, 344160, Note_on_c, 0, 75, 0
1, 344160, Note_on_c, 0, 54, 0
1, 344160, Note_on_c, 0, 80, 74
1, 344160, Note_on_c, 0, 44, 52
1, 344160, Control_c, 0, 64, 0
1, 344320, Control_c, 0, 64, 127
1, 344400, Note_on_c, 0, 44, 0
1, 344400, Note_on_c, 0, 54, 40
1, 344640, Note_on_c, 0, 54, 0
1, 344640, Note_on_c, 0, 48, 40
1, 344880, Note_on_c, 0, 48, 0
1, 344880, Note_on_c, 0, 54, 35
1, 345120, Note_on_c, 0, 54, 0
1, 345120, Note_on_c, 0, 80, 0
1, 345120, Note_on_c, 0, 75, 66
1, 345120, Note_on_c, 0, 44, 40
1, 345360, Tempo, 347826
1, 345360, Note_on_c, 0, 44, 0
1, 345360, Note_on_c, 0, 54, 34
1, 345600, Tempo, 332410
1, 345600, Note_on_c, 0, 54, 0
1, 345600, Note_on_c, 0, 75, 0
1, 345600, Note_on_c, 0, 77, 70
1, 345600, Note_on_c, 0, 49, 40
1, 345600, Note_on_c, 0, 53, 40
1, 345669, Control_c, 0, 64, 0
1, 346080, Note_on_c, 0, 53, 0
1, 346080, Note_on_c, 0, 49, 0
1, 346080, Note_on_c, 0, 77, 0
1, 346080, Note_on_c, 0, 76, 61
1, 346560, Tempo, 342857
1, 346560, Note_on_c, 0, 76, 0
1, 346560, Note_on_c, 0, 78, 61
1, 347040, Tempo, 330579
1, 347040, Note_on_c, 0, 78, 0
1, 347040, Note_on_c, 0, 77, 70
1, 347040, Note_on_c, 0, 68, 45
1, 347520, Note_on_c, 0, 68, 0
1, 347520, Note_on_c, 0, 77, 0
1, 347520, Note_on_c, 0, 75, 61
1, 347520, Note_on_c, 0, 66, 38
1, 348000, Tempo, 337079
1, 348000, Note_on_c, 0, 66, 0
1, 348000, Note_on_c, 0, 75, 0
1, 348000, Note_on_c, 0, 72, 61
1, 348000, Note_on_c, 0, 63, 38
1, 348480, Tempo, 330579
1, 348480, Note_on_c, 0, 63, 0
1, 348480, Note_on_c, 0, 72, 0
1, 348480, Note_on_c, 0, 80, 70
1, 348480, Note_on_c, 0, 65, 45
1, 348960, Note_on_c, 0, 65, 0
1, 348960, Note_on_c, 0, 80, 0
1, 348960, Note_on_c, 0, 79, 61
1, 348960, Note_on_c, 0, 64, 38
1, 349440, Tempo, 337079
1, 349440, Note_on_c, 0, 64, 0
1, 349440, Note_on_c, 0, 79, 0
1, 349440, Note_on_c, 0, 82, 61
1, 349440, Note_on_c, 0, 66, 38
1, 349920, Tempo, 330579
1, 349920, Note_on_c, 0, 66, 0
1, 349920, Note_on_c, 0, 82, 0
1, 349920, Note_on_c, 0, 80, 70
1, 349920, Note_on_c, 0, 65, 45
1, 350400, Note_on_c, 0, 65, 0
1, 350400, Note_on_c, 0, 80, 0
1, 350400, Note_on_c, 0, 78, 61
1, 350400, Note_on_c, 0, 63, 38
1, 350880, Tempo, 337079
1, 350880, Note_on_c, 0, 63, 0
1, 350880, Note_on_c, 0, 78, 0
1, 350880, Note_on_c, 0, 75, 61
1, 350880, Note_on_c, 0, 60, 38
1, 351360, Tempo, 330579
1, 351360, Note_on_c, 0, 60, 0
1, 351360, Note_on_c, 0, 75, 0
1, 351360, Note_on_c, 0, 77, 70
1, 351360, Note_on_c, 0, 61, 45
1, 351840, Note_on_c, 0, 61, 0
1, 351840, Note_on_c, 0, 77, 0
1, 351840, Note_on_c, 0, 76, 61
1, 351840, Note_on_c, 0, 60, 38
1, 352320, Tempo, 337079
1, 352320, Note_on_c, 0, 60, 0
1, 352320, Note_on_c, 0, 76, 0
1, 352320, Note_on_c, 0, 78, 61
1, 352320, Note_on_c, 0, 63, 38
1, 352800, Tempo, 330579
1, 352800, Note_on_c, 0, 63, 0
1, 352800, Note_on_c, 0, 78, 0
1, 352800, Note_on_c, 0, 77, 70
1, 352800, Note_on_c, 0, 61, 45
1, 353280, Note_on_c, 0, 61, 0
1, 353280, Note_on_c, 0, 77, 0
1, 353280, Note_on_c, 0, 75, 61
1, 353280, Note_on_c, 0, 60, 38
1, 353760, Tempo, 337079
1, 353760, Note_on_c, 0, 60, 0
1, 353760, Note_on_c, 0, 75, 0
1, 353760, Note_on_c, 0, 72, 61
1, 353760, Note_on_c, 0, 57, 38
1, 354240, Tempo, 331492
1, 354240, Note_on_c, 0, 57, 0
1, 354240, Note_on_c, 0, 72, 0
1, 354240, Note_on_c, 0, 73, 66
1, 354240, Note_on_c, 0, 58, 45
1, 354560, Control_c, 0, 64, 127
1, 354720, Tempo, 337079
1, 354720, Note_on_c, 0, 58, 0
1, 354720, Note_on_c, 0, 61, 37
1, 355200, Note_on_c, 0, 61, 0
1, 355200, Note_on_c, 0, 56, 37
1, 355680, Tempo, 333333
1, 355680, Note_on_c, 0, 56, 0
1, 355680, Note_on_c, 0, 73, 0
1, 355680, Note_on_c, 0, 82, 71
1, 355680, Note_on_c, 0, 73, 57
1, 355680, Note_on_c, 0, 55, 45
1, 355680, Control_c, 0, 64, 0
1, 356080, Control_c, 0, 64, 127
1, 356160, Note_on_c, 0, 55, 0
1, 356160, Note_on_c, 0, 58, 43
1, 356630, Note_on_c, 0, 73, 0
1, 356630, Note_on_c, 0, 82, 0
1, 356640, Tempo, 344828
1, 356640, Note_on_c, 0, 58, 0
1, 356640, Note_on_c, 0, 82, 74
1, 356640, Note_on_c, 0, 73, 60
1, 356640, Note_on_c, 0, 53, 48
1, 356652, Control_c, 0, 64, 0
1, 357110, Note_on_c, 0, 73, 0
1, 357110, Note_on_c, 0, 82, 0
1, 357120, Tempo, 331492
1, 357120, Note_on_c, 0, 53, 0
1, 357120, Note_on_c, 0, 82, 78
1, 357120, Note_on_c, 0, 72, 63
1, 357120, Note_on_c, 0, 52, 53
1, 357372, Control_c, 0, 64, 127
1, 357600, Note_on_c, 0, 52, 0
1, 357600, Note_on_c, 0, 55, 44
1, 358080, Tempo, 334262
1, 358080, Note_on_c, 0, 55, 0
1, 358080, Note_on_c, 0, 50, 44
1, 358092, Control_c, 0, 64, 0
1, 358560, Tempo, 331492
1, 358560, Note_on_c, 0, 50, 0
1, 358560, Note_on_c, 0, 48, 52
1, 359040, Note_on_c, 0, 48, 0
1, 359040, Note_on_c, 0, 50, 44
1, 359520, Tempo, 338028
1, 359520, Note_on_c, 0, 50, 0
1, 359520, Note_on_c, 0, 72, 0
1, 359520, Note_on_c, 0, 82, 0
1, 359520, Note_on_c, 0, 67, 61
1, 359520, Note_on_c, 0, 70, 72
1, 359520, Note_on_c, 0, 52, 44
1, 360000, Tempo, 332410
1, 360000, Note_on_c, 0, 52, 0
1, 360000, Note_on_c, 0, 70, 0
1, 360000, Note_on_c, 0, 67, 0
1, 360000, Note_on_c, 0, 65, 58
1, 360000, Note_on_c, 0, 68, 69
1, 360000, Note_on_c, 0, 53, 53
1, 360240, Control_c, 0, 64, 127
1, 360480, Note_on_c, 0, 53, 0
1, 360480, Note_on_c, 0, 56, 45
1, 360960, Note_on_c, 0, 56, 0
1, 360960, Note_on_c, 0, 51, 45
1, 360965, Control_c, 0, 64, 0
1, 361440, Tempo, 333333
1, 361440, Note_on_c, 0, 51, 0
1, 361440, Note_on_c, 0, 68, 0
1, 361440, Note_on_c, 0, 65, 0
1, 361440, Note_on_c, 0, 80, 78
1, 361440, Note_on_c, 0, 77, 62
1, 361440, Note_on_c, 0, 50, 45
1, 361440, Control_c, 0, 64, 0
1, 361840, Control_c, 0, 64, 127
1, 361920, Note_on_c, 0, 50, 0
1, 361920, Note_on_c, 0, 53, 43
1, 362390, Note_on_c, 0, 77, 0
1, 362390, Note_on_c, 0, 80, 0
1, 362400, Tempo, 344828
1, 362400, Note_on_c, 0, 53, 0
1, 362400, Note_on_c, 0, 77, 66
1, 362400, Note_on_c, 0, 80, 81
1, 362400, Note_on_c, 0, 48, 48
1, 362412, Control_c, 0, 64, 0
1, 362880, Tempo, 331492
1, 362880, Note_on_c, 0, 48, 0
1, 362880, Note_on_c, 0, 80, 0
1, 362880, Note_on_c, 0, 77, 0
1, 362880, Note_on_c, 0, 79, 85
1, 362880, Note_on_c, 0, 77, 69
1, 362880, Note_on_c, 0, 47, 56
1, 363132, Control_c, 0, 64, 127
1, 363360, Note_on_c, 0, 47, 0
1, 363360, Note_on_c, 0, 50, 46
1, 363840, Tempo, 334262
1, 363840, Note_on_c, 0, 50, 0
1, 363840, Note_on_c, 0, 45, 46
1, 363852, Control_c, 0, 64, 0
1, 364320, Tempo, 331492
1, 364320, Note_on_c, 0, 45, 0
1, 364320, Note_on_c, 0, 43, 55
1, 364800, Note_on_c, 0, 43, 0
1, 364800, Note_on_c, 0, 45, 48
1, 365280, Tempo, 338028
1, 365280, Note_on_c, 0, 45, 0
1, 365280, Note_on_c, 0, 77, 0
1, 365280, Note_on_c, 0, 79, 0
1, 365280, Note_on_c, 0, 62, 61
1, 365280, Note_on_c, 0, 65, 72
1, 365280, Note_on_c, 0, 47, 48
1, 365760, Tempo, 332410
1, 365760, Note_on_c, 0, 47, 0
1, 365760, Note_on_c, 0, 65, 0
1, 365760, Note_on_c, 0, 62, 0
1, 365760, Note_on_c, 0, 60, 58
1, 365760, Note_on_c, 0, 63, 69
1, 365760, Note_on_c, 0, 48, 62
1, 366000, Control_c, 0, 64, 127
1, 366240, Note_on_c, 0, 48, 0
1, 366240, Note_on_c, 0, 63, 0
1, 366240, Note_on_c, 0, 60, 0
1, 366240, Note_on_c, 0, 51, 52
1, 366720, Note_on_c, 0, 51, 0
1, 366720, Note_on_c, 0, 46, 52
1, 366725, Control_c, 0, 64, 0
1, 367200, Tempo, 333333
1, 367200, Note_on_c, 0, 46, 0
1, 367200, Note_on_c, 0, 72, 72
1, 367200, Note_on_c, 0, 84, 85
1, 367200, Note_on_c, 0, 75, 72
1, 367200, Note_on_c, 0, 44, 61
1, 367200, Control_c, 0, 64, 0
1, 367600, Control_c, 0, 64, 127
1, 367680, Note_on_c, 0, 44, 0
1, 367680, Note_on_c, 0, 48, 53
1, 368150, Note_on_c, 0, 72, 0
1, 368150, Note_on_c, 0, 75, 0
1, 368150, Note_on_c, 0, 84, 0
1, 368160, Tempo, 344828
1, 368160, Note_on_c, 0, 48, 0
1, 368160, Note_on_c, 0, 72, 71
1, 368160, Note_on_c, 0, 75, 71
1, 368160, Note_on_c, 0, 84, 84
1, 368160, Note_on_c, 0, 43, 53
1, 368172, Control_c, 0, 64, 0
1, 368630, Note_on_c, 0, 84, 0
1, 368630, Note_on_c, 0, 72, 0
1, 368630, Note_on_c, 0, 75, 0
1, 368640, Tempo, 331492
1, 368640, Note_on_c, 0, 43, 0
1, 368640, Note_on_c, 0, 72, 76
1, 368640, Note_on_c, 0, 84, 90
1, 368640, Note_on_c, 0, 80, 76
1, 368640, Note_on_c, 0, 41, 61
1, 368892, Control_c, 0, 64, 127
1, 369120, Note_on_c, 0, 41, 0
1, 369120, Note_on_c, 0, 44, 53
1, 369600, Tempo, 334262
1, 369600, Note_on_c, 0, 44, 0
1, 369600, Note_on_c, 0, 39, 53
1, 369612, Control_c, 0, 64, 0
1, 370080, Tempo, 333333
1, 370080, Note_on_c, 0, 39, 0
1, 370080, Note_on_c, 0, 72, 0
1, 370080, Note_on_c, 0, 84, 0
1, 370080, Note_on_c, 0, 80, 0
1, 370080, Note_on_c, 0, 77, 82
1, 370080, Note_on_c, 0, 89, 97
1, 370080, Note_on_c, 0, 80, 82
1, 370080, Note_on_c, 0, 38, 70
1, 370080, Control_c, 0, 64, 0
1, 370480, Control_c, 0, 64, 127
1, 370560, Note_on_c, 0, 38, 0
1, 370560, Note_on_c, 0, 41, 60
1, 371030, Note_on_c, 0, 77, 0
1, 371030, Note_on_c, 0, 80, 0
1, 371030, Note_on_c, 0, 89, 0
1, 371040, Tempo, 344828
1, 371040, Note_on_c, 0, 41, 0
1, 371040, Note_on_c, 0, 77, 81
1, 371040, Note_on_c, 0, 80, 81
1, 371040, Note_on_c, 0, 89, 96
1, 371040, Note_on_c, 0, 36, 60
1, 371052, Control_c, 0, 64, 0
1, 371510, Note_on_c, 0, 89, 0
1, 371510, Note_on_c, 0, 77, 0
1, 371510, Note_on_c, 0, 80, 0
1, 371520, Tempo, 331492
1, 371520, Note_on_c, 0, 36, 0
1, 371520, Note_on_c, 0, 79, 87
1, 371520, Note_on_c, 0, 77, 87
1, 371520, Note_on_c, 0, 89, 103
1, 371520, Note_on_c, 0, 86, 87
1, 371520, Note_on_c, 0, 35, 70
1, 371772, Control_c, 0, 64, 127
1, 372000, Note_on_c, 0, 35, 0
1, 372000, Note_on_c, 0, 38, 60
1, 372480, Tempo, 334262
1, 372480, Note_on_c, 0, 38, 0
1, 372480, Note_on_c, 0, 33, 60
1, 372492, Control_c, 0, 64, 0
1, 372960, Note_on_c, 0, 33, 0
1, 372960, Note_on_c, 0, 31, 66
1, 373440, Note_on_c, 0, 31, 0
1, 373440, Note_on_c, 0, 33, 57
1, 373920, Tempo, 331492
1, 373920, Note_on_c, 0, 33, 0
1, 373920, Note_on_c, 0, 89, 0
1, 373920, Note_on_c, 0, 79, 0
1, 373920, Note_on_c, 0, 77, 0
1, 373920, Note_on_c, 0, 86, 0
1, 373920, Note_on_c, 0, 74, 67
1, 373920, Note_on_c, 0, 77, 79
1, 373920, Note_on_c, 0, 35, 57
1, 374400, Tempo, 335196
1, 374400, Note_on_c, 0, 35, 0
1, 374400, Note_on_c, 0, 77, 0
1, 374400, Note_on_c, 0, 74, 0
1, 374400, Note_on_c, 0, 72, 72
1, 374400, Note_on_c, 0, 75, 85
1, 374400, Note_on_c, 0, 36, 62
1, 374880, Note_on_c, 0, 36, 0
1, 374880, Note_on_c, 0, 38, 57
1, 375360, Tempo, 331492
1, 375360, Note_on_c, 0, 38, 0
1, 375360, Note_on_c, 0, 75, 0
1, 375360, Note_on_c, 0, 72, 0
1, 375360, Note_on_c, 0, 67, 64
1, 375360, Note_on_c, 0, 75, 76
1, 375360, Note_on_c, 0, 39, 62
1, 375840, Tempo, 337079
1, 375840, Note_on_c, 0, 39, 0
1, 375840, Note_on_c, 0, 68, 80
1, 375840, Note_on_c, 0, 41, 57
1, 376320, Note_on_c, 0, 75, 0
1, 376320, Note_on_c, 0, 67, 0
1, 376320, Note_on_c, 0, 65, 62
1, 376320, Note_on_c, 0, 74, 74
1, 376800, Tempo, 329670
1, 376800, Note_on_c, 0, 74, 0
1, 376800, Note_on_c, 0, 41, 0
1, 376800, Note_on_c, 0, 68, 0
1, 376800, Note_on_c, 0, 65, 0
1, 376800, Note_on_c, 0, 63, 60
1, 376800, Note_on_c, 0, 69, 60
1, 376800, Note_on_c, 0, 72, 71
1, 376800, Note_on_c, 0, 42, 50
1, 377280, Tempo, 337079
1, 377280, Note_on_c, 0, 42, 0
1, 377280, Note_on_c, 0, 63, 0
1, 377280, Note_on_c, 0, 69, 0
1, 377280, Note_on_c, 0, 72, 0
1, 377280, Note_on_c, 0, 62, 64
1, 377280, Note_on_c, 0, 67, 64
1, 377280, Note_on_c, 0, 71, 76
1, 377280, Note_on_c, 0, 43, 57
1, 377520, Note_on_c, 0, 43, 0
1, 377760, Note_on_c, 0, 62, 0
1, 377760, Note_on_c, 0, 67, 0
1, 377760, Note_on_c, 0, 71, 0
1, 377760, Note_on_c, 0, 55, 54
1, 378240, Tempo, 329670
1, 378240, Note_on_c, 0, 55, 0
1, 378240, Note_on_c, 0, 71, 48
1, 378240, Note_on_c, 0, 74, 48
1, 378240, Note_on_c, 0, 79, 57
1, 378720, Tempo, 335196
1, 378720, Note_on_c, 0, 79, 0
1, 378720, Note_on_c, 0, 74, 0
1, 378720, Note_on_c, 0, 71, 0
1, 378720, Note_on_c, 0, 68, 51
1, 378720, Note_on_c, 0, 72, 51
1, 378720, Note_on_c, 0, 77, 60
1, 379200, Note_on_c, 0, 77, 0
1, 379200, Note_on_c, 0, 72, 0
1, 379200, Note_on_c, 0, 68, 0
1, 379200, Note_on_c, 0, 55, 45
1, 379680, Tempo, 330579
1, 379680, Note_on_c, 0, 55, 0
1, 379680, Note_on_c, 0, 67, 47
1, 379680, Note_on_c, 0, 70, 47
1, 379680, Note_on_c, 0, 75, 56
1, 380160, Tempo, 336134
1, 380160, Note_on_c, 0, 75, 0
1, 380160, Note_on_c, 0, 70, 0
1, 380160, Note_on_c, 0, 67, 0
1, 380160, Note_on_c, 0, 65, 51
1, 380160, Note_on_c, 0, 68, 51
1, 380160, Note_on_c, 0, 74, 60
1, 380640, Note_on_c, 0, 74, 0
1, 380640, Note_on_c, 0, 68, 0
1, 380640, Note_on_c, 0, 65, 0
1, 380640, Note_on_c, 0, 55, 46
1, 381120, Tempo, 329670
1, 381120, Note_on_c, 0, 55, 0
1, 381120, Note_on_c, 0, 63, 48
1, 381120, Note_on_c, 0, 67, 48
1, 381120, Note_on_c, 0, 72, 57
1, 381600, Tempo, 337079
1, 381600, Note_on_c, 0, 72, 0
1, 381600, Note_on_c, 0, 67, 0
1, 381600, Note_on_c, 0, 63, 0
1, 381600, Note_on_c, 0, 62, 51
1, 381600, Note_on_c, 0, 65, 51
1, 381600, Note_on_c, 0, 71, 60
1, 382080, Note_on_c, 0, 71, 0
1, 382080, Note_on_c, 0, 65, 0
1, 382080, Note_on_c, 0, 62, 0
1, 382080, Note_on_c, 0, 55, 47
1, 382560, Tempo, 330579
1, 382560, Note_on_c, 0, 55, 0
1, 382560, Note_on_c, 0, 60, 45
1, 382560, Note_on_c, 0, 63, 45
1, 382560, Note_on_c, 0, 68, 54
1, 383040, Tempo, 338028
1, 383040, Note_on_c, 0, 68, 0
1, 383040, Note_on_c, 0, 63, 0
1, 383040, Note_on_c, 0, 60, 0
1, 383040, Note_on_c, 0, 59, 51
1, 383040, Note_on_c, 0, 62, 51
1, 383040, Note_on_c, 0, 67, 60
1, 383520, Note_on_c, 0, 67, 0
1, 383520, Note_on_c, 0, 62, 0
1, 383520, Note_on_c, 0, 59, 0
1, 383520, Note_on_c, 0, 43, 47
1, 384000, Tempo, 329670
1, 384000, Note_on_c, 0, 43, 0
1, 384000, Note_on_c, 0, 71, 43
1, 384000, Note_on_c, 0, 74, 43
1, 384000, Note_on_c, 0, 79, 51
1, 384480, Tempo, 335196
1, 384480, Note_on_c, 0, 79, 0
1, 384480, Note_on_c, 0, 74, 0
1, 384480, Note_on_c, 0, 71, 0
1, 384480, Note_on_c, 0, 68, 45
1, 384480, Note_on_c, 0, 72, 45
1, 384480, Note_on_c, 0, 77, 53
1, 384960, Note_on_c, 0, 77, 0
1, 384960, Note_on_c, 0, 72, 0
1, 384960, Note_on_c, 0, 68, 0
1, 384960, Note_on_c, 0, 43, 39
1, 385440, Tempo, 330579
1, 385440, Note_on_c, 0, 43, 0
1, 385440, Note_on_c, 0, 67, 40
1, 385440, Note_on_c, 0, 70, 40
1, 385440, Note_on_c, 0, 75, 48
1, 385920, Tempo, 336134
1, 385920, Note_on_c, 0, 75, 0
1, 385920, Note_on_c, 0, 70, 0
1, 385920, Note_on_c, 0, 67, 0
1, 385920, Note_on_c, 0, 65, 43
1, 385920, Note_on_c, 0, 68, 43
1, 385920, Note_on_c, 0, 74, 51
1, 386400, Note_on_c, 0, 74, 0
1, 386400, Note_on_c, 0, 68, 0
1, 386400, Note_on_c, 0, 65, 0
1, 386400, Note_on_c, 0, 43, 38
1, 386880, Tempo, 329670
1, 386880, Note_on_c, 0, 43, 0
1, 386880, Note_on_c, 0, 63, 39
1, 386880, Note_on_c, 0, 67, 39
1, 386880, Note_on_c, 0, 72, 47
1, 387360, Tempo, 337079
1, 387360, Note_on_c, 0, 72, 0
1, 387360, Note_on_c, 0, 67, 0
1, 387360, Note_on_c, 0, 63, 0
1, 387360, Note_on_c, 0, 62, 41
1, 387360, Note_on_c, 0, 65, 41
1, 387360, Note_on_c, 0, 71, 49
1, 387840, Note_on_c, 0, 71, 0
1, 387840, Note_on_c, 0, 65, 0
1, 387840, Note_on_c, 0, 62, 0
1, 387840, Note_on_c, 0, 43, 37
1, 388320, Tempo, 330579
1, 388320, Note_on_c, 0, 43, 0
1, 388320, Note_on_c, 0, 60, 35
1, 388320, Note_on_c, 0, 63, 35
1, 388320, Note_on_c, 0, 68, 42
1, 388800, Tempo, 338028
1, 388800, Note_on_c, 0, 68, 0
1, 388800, Note_on_c, 0, 63, 0
1, 388800, Note_on_c, 0, 60, 0
1, 388800, Note_on_c, 0, 59, 39
1, 388800, Note_on_c, 0, 62, 39
1, 388800, Note_on_c, 0, 67, 46
1, 389261, Tempo, 338028
1, 389280, Note_on_c, 0, 67, 0
1, 389280, Note_on_c, 0, 62, 0
1, 389280, Note_on_c, 0, 59, 0
1, 389280, Note_on_c, 0, 31, 36
1, 389280, Note_on_c, 0, 43, 36
1, 389357, Tempo, 338983
1, 389453, Tempo, 339943
1, 389549, Tempo, 340909
1, 389645, Tempo, 341880
1, 389709, Tempo, 342857
1, 389760, Note_on_c, 0, 43, 0
1, 389760, Note_on_c, 0, 31, 0
1, 389760, Note_on_c, 0, 60, 34
1, 389760, Note_on_c, 0, 56, 34
1, 389760, Note_on_c, 0, 65, 41
1, 389805, Tempo, 343840
1, 389901, Tempo, 344828
1, 389997, Tempo, 345821
1, 390061, Tempo, 346821
1, 390157, Tempo, 347826
1, 390240, Note_on_c, 0, 65, 0
1, 390240, Note_on_c, 0, 56, 0
1, 390240, Note_on_c, 0, 60, 0
1, 390240, Note_on_c, 0, 55, 36
1, 390240, Note_on_c, 0, 60, 36
1, 390240, Note_on_c, 0, 63, 43
1, 390253, Tempo, 351906
1, 390317, Tempo, 352941
1, 390381, Tempo, 353982
1, 390413, Tempo, 355030
1, 390477, Tempo, 356083
1, 390509, Tempo, 357143
1, 390573, Tempo, 358209
1, 390605, Tempo, 359281
1, 390669, Tempo, 360360
1, 390701, Tempo, 361446
1, 390720, Tempo, 376176
1, 390720, Note_on_c, 0, 63, 0
1, 390720, Note_on_c, 0, 60, 0
1, 390720, Note_on_c, 0, 55, 0
1, 390720, Note_on_c, 0, 31, 28
1, 390720, Note_on_c, 0, 43, 33
1, 391200, Tempo, 433213
1, 391200, Note_on_c, 0, 43, 0
1, 391200, Note_on_c, 0, 31, 0
1, 391200, Note_on_c, 0, 53, 32
1, 391200, Note_on_c, 0, 59, 32
1, 391200, Note_on_c, 0, 62, 38
1, 391680, Tempo, 327297
1, 391680, Note_on_c, 0, 62, 0
1, 391680, Note_on_c, 0, 59, 0
1, 391680, Note_on_c, 0, 53, 0
1, 391680, Note_on_c, 0, 51, 69
1, 391680, Note_on_c, 0, 55, 69
1, 391680, Note_on_c, 0, 60, 82
1, 391680, Note_on_c, 0, 48, 70
1, 391680, Note_on_c, 0, 43, 59
1, 391680, Note_on_c, 0, 39, 59
1, 391680, Note_on_c, 0, 36, 59
1, 391836, Control_c, 0, 64, 127
1, 392400, Note_on_c, 0, 36, 0
1, 392400, Note_on_c, 0, 43, 0
1, 392400, Note_on_c, 0, 55, 0
1, 392400, Note_on_c, 0, 60, 0
1, 392400, Note_on_c, 0, 51, 0
1, 392400, Note_on_c, 0, 39, 0
1, 392400, Note_on_c, 0, 48, 0
1, 392520, Note_on_c, 0, 67, 70
1, 392640, Tempo, 318302
1, 392640, Note_on_c, 0, 67, 0
1, 392640, Note_on_c, 0, 75, 78
1, 393000, Note_on_c, 0, 75, 0
1, 393000, Note_on_c, 0, 72, 70
1, 393120, Note_on_c, 0, 72, 0
1, 393120, Note_on_c, 0, 79, 79
1, 393480, Note_on_c, 0, 79, 0
1, 393480, Note_on_c, 0, 75, 70
1, 393600, Note_on_c, 0, 75, 0
1, 393600, Note_on_c, 0, 84, 79
1, 393960, Tempo, 353753
1, 393960, Note_on_c, 0, 84, 0
1, 393960, Note_on_c, 0, 79, 70
1, 394080, Tempo, 327297
1, 394080, Note_on_c, 0, 79, 0
1, 394080, Note_on_c, 0, 87, 84
1, 394101, Control_c, 0, 64, 0
1, 394200, Note_on_c, 0, 87, 0
1, 394560, Note_on_c, 0, 87, 84
1, 394680, Note_on_c, 0, 87, 0
1, 395040, Tempo, 351906
1, 395492, Control_c, 0, 64, 127
1, 395520, Tempo, 333537
1, 395520, Note_on_c, 0, 67, 39
1, 395520, Note_on_c, 0, 72, 46
1, 395520, Note_on_c, 0, 60, 34
1, 395520, Note_on_c, 0, 63, 41
1, 395760, Note_on_c, 0, 63, 0
1, 395760, Note_on_c, 0, 67, 0
1, 395760, Note_on_c, 0, 72, 0
1, 395760, Note_on_c, 0, 60, 0
1, 396000, Note_on_c, 0, 67, 42
1, 396000, Note_on_c, 0, 72, 50
1, 396000, Note_on_c, 0, 63, 41
1, 396000, Note_on_c, 0, 60, 34
1, 396480, Tempo, 343348
1, 396960, Tempo, 401016
1, 396960, Note_on_c, 0, 60, 0
1, 396960, Note_on_c, 0, 67, 0
1, 396960, Note_on_c, 0, 72, 0
1, 396960, Note_on_c, 0, 63, 0
1, 396960, Note_on_c, 0, 67, 39
1, 396960, Note_on_c, 0, 62, 32
1, 396960, Note_on_c, 0, 65, 38
1, 396970, Note_on_c, 0, 71, 46
1, 396973, Control_c, 0, 64, 0
1, 397430, Note_on_c, 0, 65, 0
1, 397430, Note_on_c, 0, 67, 0
1, 397430, Note_on_c, 0, 62, 0
1, 397440, Tempo, 327297
1, 397440, Note_on_c, 0, 71, 0
1, 397440, Note_on_c, 0, 68, 69
1, 397440, Note_on_c, 0, 65, 69
1, 397440, Note_on_c, 0, 71, 82
1, 397440, Note_on_c, 0, 53, 59
1, 397440, Note_on_c, 0, 59, 59
1, 397440, Note_on_c, 0, 56, 59
1, 397440, Note_on_c, 0, 62, 70
1, 397440, Note_on_c, 0, 50, 59
1, 397596, Control_c, 0, 64, 127
1, 398160, Note_on_c, 0, 50, 0
1, 398160, Note_on_c, 0, 68, 0
1, 398160, Note_on_c, 0, 59, 0
1, 398160, Note_on_c, 0, 65, 0
1, 398160, Note_on_c, 0, 71, 0
1, 398160, Note_on_c, 0, 53, 0
1, 398160, Note_on_c, 0, 56, 0
1, 398160, Note_on_c, 0, 62, 0
1, 398280, Note_on_c, 0, 71, 70
1, 398400, Tempo, 318302
1, 398400, Note_on_c, 0, 71, 0
1, 398400, Note_on_c, 0, 77, 78
1, 398760, Note_on_c, 0, 77, 0
1, 398760, Note_on_c, 0, 74, 70
1, 398880, Note_on_c, 0, 74, 0
1, 398880, Note_on_c, 0, 83, 79
1, 399240, Note_on_c, 0, 83, 0
1, 399240, Note_on_c, 0, 77, 70
1, 399360, Note_on_c, 0, 77, 0
1, 399360, Note_on_c, 0, 86, 79
1, 399720, Tempo, 353753
1, 399720, Note_on_c, 0, 86, 0
1, 399720, Note_on_c, 0, 83, 70
1, 399840, Tempo, 327297
1, 399840, Note_on_c, 0, 83, 0
1, 399840, Note_on_c, 0, 89, 84
1, 399861, Control_c, 0, 64, 0
1, 399960, Note_on_c, 0, 89, 0
1, 400320, Note_on_c, 0, 89, 84
1, 400440, Note_on_c, 0, 89, 0
1, 400800, Tempo, 342231
1, 401252, Control_c, 0, 64, 127
1, 401280, Tempo, 333537
1, 401280, Note_on_c, 0, 71, 39
1, 401280, Note_on_c, 0, 74, 46
1, 401280, Note_on_c, 0, 62, 34
1, 401280, Note_on_c, 0, 68, 41
1, 401280, Note_on_c, 0, 65, 34
1, 401520, Note_on_c, 0, 65, 0
1, 401520, Note_on_c, 0, 62, 0
1, 401520, Note_on_c, 0, 71, 0
1, 401520, Note_on_c, 0, 74, 0
1, 401520, Note_on_c, 0, 68, 0
1, 401760, Note_on_c, 0, 71, 42
1, 401760, Note_on_c, 0, 74, 50
1, 401760, Note_on_c, 0, 68, 41
1, 401760, Note_on_c, 0, 65, 34
1, 401760, Note_on_c, 0, 62, 34
1, 402240, Tempo, 343348
1, 402720, Tempo, 445203
1, 402720, Note_on_c, 0, 62, 0
1, 402720, Note_on_c, 0, 68, 0
1, 402720, Note_on_c, 0, 71, 0
1, 402720, Note_on_c, 0, 74, 0
1, 402720, Note_on_c, 0, 65, 0
1, 402720, Note_on_c, 0, 72, 46
1, 402720, Note_on_c, 0, 67, 38
1, 402720, Note_on_c, 0, 63, 32
1, 402789, Control_c, 0, 64, 0
1, 403080, Tempo, 386274
1, 403080, Note_on_c, 0, 72, 0
1, 403080, Note_on_c, 0, 72, 45
1, 403140, Note_on_c, 0, 72, 0
1, 403140, Note_on_c, 0, 75, 48
1, 403200, Tempo, 329345
1, 403200, Note_on_c, 0, 75, 0
1, 403200, Note_on_c, 0, 63, 0
1, 403200, Note_on_c, 0, 67, 0
1, 403200, Note_on_c, 0, 79, 53
1, 403260, Control_c, 0, 64, 127
1, 403920, Note_on_c, 0, 79, 0
1, 403920, Note_on_c, 0, 77, 41
1, 404160, Tempo, 351391
1, 404160, Note_on_c, 0, 77, 0
1, 404160, Note_on_c, 0, 75, 51
1, 404160, Note_on_c, 0, 60, 35
1, 404160, Note_on_c, 0, 55, 29
1, 404160, Note_on_c, 0, 51, 29
1, 404180, Control_c, 0, 64, 0
1, 404372, Control_c, 0, 64, 127
1, 404640, Tempo, 337819
1, 404640, Note_on_c, 0, 51, 0
1, 404640, Note_on_c, 0, 75, 0
1, 404640, Note_on_c, 0, 60, 0
1, 404640, Note_on_c, 0, 55, 0
1, 404640, Note_on_c, 0, 74, 47
1, 404640, Note_on_c, 0, 53, 33
1, 404640, Note_on_c, 0, 56, 33
1, 404640, Note_on_c, 0, 59, 39
1, 404640, Control_c, 0, 64, 0
1, 404880, Control_c, 0, 64, 127
1, 405600, Tempo, 407221
1, 405600, Note_on_c, 0, 59, 0
1, 405600, Note_on_c, 0, 74, 0
1, 405600, Note_on_c, 0, 53, 0
1, 405600, Note_on_c, 0, 56, 0
1, 405600, Note_on_c, 0, 72, 39
1, 405600, Note_on_c, 0, 60, 34
1, 405600, Note_on_c, 0, 55, 28
1, 405600, Note_on_c, 0, 51, 28
1, 405610, Control_c, 0, 64, 0
1, 405960, Tempo, 386274
1, 405960, Note_on_c, 0, 72, 0
1, 405960, Note_on_c, 0, 67, 27
1, 406000, Note_on_c, 0, 67, 0
1, 406000, Note_on_c, 0, 72, 45
1, 406040, Note_on_c, 0, 72, 0
1, 406040, Note_on_c, 0, 75, 48
1, 406080, Tempo, 329345
1, 406080, Note_on_c, 0, 75, 0
1, 406080, Note_on_c, 0, 51, 0
1, 406080, Note_on_c, 0, 55, 0
1, 406080, Note_on_c, 0, 60, 0
1, 406080, Note_on_c, 0, 79, 53
1, 406140, Control_c, 0, 64, 127
1, 406800, Note_on_c, 0, 79, 0
1, 406800, Note_on_c, 0, 77, 41
1, 407040, Tempo, 351391
1, 407040, Note_on_c, 0, 77, 0
1, 407040, Note_on_c, 0, 72, 43
1, 407040, Note_on_c, 0, 75, 51
1, 407040, Note_on_c, 0, 63, 29
1, 407040, Note_on_c, 0, 67, 35
1, 407060, Control_c, 0, 64, 0
1, 407252, Control_c, 0, 64, 127
1, 407520, Tempo, 337819
1, 407520, Note_on_c, 0, 67, 0
1, 407520, Note_on_c, 0, 72, 0
1, 407520, Note_on_c, 0, 75, 0
1, 407520, Note_on_c, 0, 63, 0
1, 407520, Note_on_c, 0, 71, 39
1, 407520, Note_on_c, 0, 74, 47
1, 407520, Note_on_c, 0, 68, 39
1, 407520, Note_on_c, 0, 65, 33
1, 407520, Control_c, 0, 64, 0
1, 407760, Control_c, 0, 64, 127
1, 408480, Note_on_c, 0, 65, 0
1, 408480, Note_on_c, 0, 71, 0
1, 408480, Note_on_c, 0, 74, 0
1, 408480, Note_on_c, 0, 68, 0
1, 408480, Note_on_c, 0, 72, 39
1, 408480, Note_on_c, 0, 63, 28
1, 408480, Note_on_c, 0, 67, 34
1, 408490, Control_c, 0, 64, 0
1, 408840, Tempo, 386274
1, 408840, Note_on_c, 0, 72, 0
1, 408840, Note_on_c, 0, 67, 60
1, 408880, Note_on_c, 0, 67, 0
1, 408880, Note_on_c, 0, 72, 63
1, 408920, Note_on_c, 0, 72, 0
1, 408920, Note_on_c, 0, 75, 69
1, 408960, Tempo, 325203
1, 408960, Note_on_c, 0, 75, 0
1, 408960, Note_on_c, 0, 67, 0
1, 408960, Note_on_c, 0, 63, 0
1, 408960, Note_on_c, 0, 67, 69
1, 408960, Note_on_c, 0, 79, 81
1, 409020, Control_c, 0, 64, 127
1, 409680, Note_on_c, 0, 79, 0
1, 409680, Note_on_c, 0, 67, 0
1, 409680, Note_on_c, 0, 77, 61
1, 409680, Note_on_c, 0, 65, 51
1, 409920, Tempo, 345602
1, 409920, Note_on_c, 0, 65, 0
1, 409920, Note_on_c, 0, 77, 0
1, 409920, Note_on_c, 0, 75, 73
1, 409920, Note_on_c, 0, 63, 62
1, 409920, Note_on_c, 0, 55, 39
1, 409920, Note_on_c, 0, 60, 47
1, 409920, Note_on_c, 0, 51, 39
1, 409926, Control_c, 0, 64, 0
1, 410104, Control_c, 0, 64, 127
1, 410400, Tempo, 329670
1, 410400, Note_on_c, 0, 51, 0
1, 410400, Note_on_c, 0, 55, 0
1, 410400, Note_on_c, 0, 60, 0
1, 410400, Note_on_c, 0, 59, 53
1, 410400, Note_on_c, 0, 53, 45
1, 410400, Note_on_c, 0, 56, 45
1, 410400, Control_c, 0, 64, 0
1, 410720, Control_c, 0, 64, 127
1, 410880, Tempo, 340020
1, 410880, Note_on_c, 0, 63, 0
1, 410880, Note_on_c, 0, 75, 0
1, 410880, Note_on_c, 0, 74, 72
1, 410880, Note_on_c, 0, 62, 61
1, 410910, Control_c, 0, 64, 0
1, 411000, Note_on_c, 0, 62, 0
1, 411000, Note_on_c, 0, 74, 0
1, 411360, Tempo, 329670
1, 411360, Note_on_c, 0, 56, 0
1, 411360, Note_on_c, 0, 59, 0
1, 411360, Note_on_c, 0, 53, 0
1, 411360, Note_on_c, 0, 72, 75
1, 411360, Note_on_c, 0, 60, 63
1, 411360, Note_on_c, 0, 55, 46
1, 411360, Note_on_c, 0, 51, 39
1, 411654, Control_c, 0, 64, 127
1, 411840, Tempo, 342231
1, 411840, Note_on_c, 0, 51, 0
1, 411840, Note_on_c, 0, 55, 0
1, 411840, Note_on_c, 0, 50, 46
1, 411840, Note_on_c, 0, 53, 56
1, 411844, Control_c, 0, 64, 0
1, 412160, Control_c, 0, 64, 127
1, 412320, Tempo, 330579
1, 412320, Note_on_c, 0, 60, 0
1, 412320, Note_on_c, 0, 72, 0
1, 412320, Note_on_c, 0, 59, 63
1, 412320, Note_on_c, 0, 71, 75
1, 412340, Control_c, 0, 64, 0
1, 412440, Note_on_c, 0, 71, 0
1, 412440, Note_on_c, 0, 59, 0
1, 412800, Tempo, 353753
1, 412800, Note_on_c, 0, 50, 0
1, 412800, Note_on_c, 0, 53, 0
1, 412800, Note_on_c, 0, 56, 62
1, 412800, Note_on_c, 0, 68, 74
1, 412800, Note_on_c, 0, 51, 49
1, 412800, Note_on_c, 0, 48, 41
1, 412960, Control_c, 0, 64, 127
1, 413280, Tempo, 345602
1, 413280, Note_on_c, 0, 48, 0
1, 413280, Note_on_c, 0, 51, 0
1, 413280, Note_on_c, 0, 50, 47
1, 413280, Note_on_c, 0, 47, 56
1, 413280, Control_c, 0, 64, 0
1, 413450, Control_c, 0, 64, 127
1, 413760, Tempo, 351391
1, 413760, Note_on_c, 0, 47, 0
1, 413760, Note_on_c, 0, 56, 0
1, 413760, Note_on_c, 0, 68, 0
1, 413760, Note_on_c, 0, 50, 0
1, 413760, Note_on_c, 0, 55, 57
1, 413760, Note_on_c, 0, 67, 67
1, 413777, Control_c, 0, 64, 0
1, 414000, Note_on_c, 0, 67, 0
1, 414000, Note_on_c, 0, 55, 0
1, 414720, Tempo, 342231
1, 415200, Note_on_c, 0, 59, 42
1, 415360, Note_on_c, 0, 59, 0
1, 415360, Note_on_c, 0, 62, 35
1, 415520, Note_on_c, 0, 62, 0
1, 415520, Note_on_c, 0, 65, 35
1, 415678, Tempo, 341122
1, 415680, Note_on_c, 0, 65, 0
1, 415680, Note_on_c, 0, 68, 43
1, 415680, Note_on_c, 0, 56, 34
1, 415680, Note_on_c, 0, 53, 28
1, 415680, Note_on_c, 0, 50, 28
1, 415680, Note_on_c, 0, 47, 28
1, 415702, Tempo, 342231
1, 415726, Tempo, 343348
1, 415750, Tempo, 344471
1, 415774, Tempo, 345602
1, 415798, Tempo, 347887
1, 415822, Tempo, 349040
1, 415840, Note_on_c, 0, 68, 0
1, 415840, Note_on_c, 0, 67, 36
1, 415846, Tempo, 350222
1, 415870, Tempo, 351391
1, 415894, Tempo, 353753
1, 415918, Tempo, 354946
1, 415942, Tempo, 356146
1, 415966, Tempo, 357356
1, 415990, Tempo, 358573
1, 416000, Note_on_c, 0, 67, 0
1, 416000, Note_on_c, 0, 65, 36
1, 416014, Tempo, 361054
1, 416038, Tempo, 362297
1, 416062, Tempo, 363548
1, 416086, Tempo, 364808
1, 416110, Tempo, 367354
1, 416160, Tempo, 341122
1, 416160, Note_on_c, 0, 65, 0
1, 416160, Note_on_c, 0, 50, 0
1, 416160, Note_on_c, 0, 56, 0
1, 416160, Note_on_c, 0, 53, 0
1, 416160, Note_on_c, 0, 47, 0
1, 416160, Note_on_c, 0, 63, 43
1, 416160, Note_on_c, 0, 55, 34
1, 416160, Note_on_c, 0, 51, 28
1, 416160, Note_on_c, 0, 48, 28
1, 416280, Note_on_c, 0, 48, 0
1, 416280, Note_on_c, 0, 63, 0
1, 416280, Note_on_c, 0, 55, 0
1, 416280, Note_on_c, 0, 51, 0
1, 418080, Tempo, 342231
1, 418080, Note_on_c, 0, 53, 42
1, 418240, Note_on_c, 0, 53, 0
1, 418240, Note_on_c, 0, 56, 35
1, 418400, Note_on_c, 0, 56, 0
1, 418400, Note_on_c, 0, 62, 35
1, 418558, Tempo, 341122
1, 418560, Note_on_c, 0, 62, 0
1, 418560, Note_on_c, 0, 65, 43
1, 418560, Note_on_c, 0, 50, 34
1, 418560, Note_on_c, 0, 44, 28
1, 418560, Note_on_c, 0, 41, 28
1, 418582, Tempo, 342231
1, 418606, Tempo, 343348
1, 418630, Tempo, 344471
1, 418654, Tempo, 345602
1, 418678, Tempo, 347887
1, 418702, Tempo, 349040
1, 418720, Note_on_c, 0, 65, 0
1, 418720, Note_on_c, 0, 63, 36
1, 418726, Tempo, 350222
1, 418750, Tempo, 351391
1, 418774, Tempo, 353753
1, 418798, Tempo, 354946
1, 418822, Tempo, 356146
1, 418846, Tempo, 357356
1, 418870, Tempo, 358573
1, 418880, Note_on_c, 0, 63, 0
1, 418880, Note_on_c, 0, 62, 36
1, 418894, Tempo, 361054
1, 418918, Tempo, 362297
1, 418942, Tempo, 363548
1, 418966, Tempo, 364808
1, 418990, Tempo, 367354
1, 419040, Tempo, 341122
1, 419040, Note_on_c, 0, 62, 0
1, 419040, Note_on_c, 0, 50, 0
1, 419040, Note_on_c, 0, 44, 0
1, 419040, Note_on_c, 0, 41, 0
1, 419040, Note_on_c, 0, 60, 43
1, 419040, Note_on_c, 0, 48, 28
1, 419040, Note_on_c, 0, 43, 28
1, 419040, Note_on_c, 0, 51, 34
1, 419160, Note_on_c, 0, 51, 0
1, 419160, Note_on_c, 0, 60, 0
1, 419160, Note_on_c, 0, 48, 0
1, 419160, Note_on_c, 0, 43, 0
1, 419520, Tempo, 342231
1, 419998, Tempo, 341122
1, 420022, Tempo, 342231
1, 420046, Tempo, 343348
1, 420070, Tempo, 344471
1, 420094, Tempo, 345602
1, 420118, Tempo, 347887
1, 420142, Tempo, 349040
1, 420166, Tempo, 350222
1, 420190, Tempo, 351391
1, 420214, Tempo, 353753
1, 420238, Tempo, 354946
1, 420262, Tempo, 356146
1, 420286, Tempo, 357356
1, 420310, Tempo, 358573
1, 420334, Tempo, 361054
1, 420358, Tempo, 362297
1, 420382, Tempo, 363548
1, 420406, Tempo, 364808
1, 420430, Tempo, 367354
1, 420960, Tempo, 342231
1, 420960, Note_on_c, 0, 55, 66
1, 420983, Control_c, 0, 64, 127
1, 421120, Note_on_c, 0, 55, 0
1, 421120, Note_on_c, 0, 59, 69
1, 421280, Note_on_c, 0, 59, 0
1, 421280, Note_on_c, 0, 62, 72
1, 421438, Tempo, 341122
1, 421440, Note_on_c, 0, 62, 0
1, 421440, Note_on_c, 0, 65, 75
1, 421440, Note_on_c, 0, 43, 73
1, 421440, Note_on_c, 0, 31, 73
1, 421462, Tempo, 342231
1, 421486, Tempo, 343348
1, 421510, Tempo, 344471
1, 421534, Tempo, 345602
1, 421558, Tempo, 347887
1, 421582, Tempo, 349040
1, 421600, Note_on_c, 0, 65, 0
1, 421600, Note_on_c, 0, 62, 67
1, 421606, Tempo, 350222
1, 421630, Tempo, 351391
1, 421654, Tempo, 353753
1, 421678, Tempo, 354946
1, 421680, Note_on_c, 0, 31, 0
1, 421680, Note_on_c, 0, 43, 0
1, 421702, Tempo, 356146
1, 421726, Tempo, 357356
1, 421750, Tempo, 358573
1, 421760, Note_on_c, 0, 62, 0
1, 421760, Note_on_c, 0, 59, 71
1, 421774, Tempo, 361054
1, 421798, Tempo, 362297
1, 421822, Tempo, 363548
1, 421846, Tempo, 364808
1, 421870, Tempo, 367354
1, 421920, Tempo, 327297
1, 421920, Note_on_c, 0, 59, 0
1, 421920, Note_on_c, 0, 60, 94
1, 421920, Note_on_c, 0, 36, 67
1, 421920, Note_on_c, 0, 48, 80
1, 421943, Control_c, 0, 64, 0
1, 422160, Note_on_c, 0, 48, 0
1, 422160, Note_on_c, 0, 36, 0
1, 422160, Note_on_c, 0, 60, 0
1, 424800, Tempo, 328317
1, 424800, Note_on_c, 0, 61, 69
1, 424854, Control_c, 0, 64, 127
1, 426240, Tempo, 336738
1, 426240, Note_on_c, 0, 59, 50
1, 426720, Tempo, 328317
1, 426720, Note_on_c, 0, 65, 50
1, 427200, Tempo, 341122
1, 427200, Note_on_c, 0, 73, 45
1, 427680, Tempo, 330396
1, 427680, Note_on_c, 0, 73, 0
1, 427680, Note_on_c, 0, 65, 0
1, 427680, Note_on_c, 0, 59, 0
1, 427680, Note_on_c, 0, 66, 42
1, 427680, Note_on_c, 0, 73, 50
1, 427680, Note_on_c, 0, 58, 49
1, 427686, Control_c, 0, 64, 0
1, 428000, Control_c, 0, 64, 127
1, 428160, Tempo, 336738
1, 428640, Note_on_c, 0, 73, 0
1, 428640, Note_on_c, 0, 73, 45
1, 429120, Tempo, 326282
1, 429120, Note_on_c, 0, 61, 0
1, 429120, Note_on_c, 0, 58, 0
1, 429120, Note_on_c, 0, 66, 0
1, 429120, Note_on_c, 0, 65, 42
1, 429120, Note_on_c, 0, 59, 34
1, 429120, Note_on_c, 0, 56, 28
1, 429127, Control_c, 0, 64, 0
1, 429395, Control_c, 0, 64, 127
1, 429600, Note_on_c, 0, 73, 0
1, 429600, Note_on_c, 0, 75, 45
1, 430080, Tempo, 346741
1, 430080, Note_on_c, 0, 75, 0
1, 430080, Note_on_c, 0, 71, 44
1, 430560, Tempo, 331437
1, 430560, Note_on_c, 0, 56, 0
1, 430560, Note_on_c, 0, 65, 0
1, 430560, Note_on_c, 0, 59, 0
1, 430560, Note_on_c, 0, 66, 42
1, 430560, Note_on_c, 0, 54, 28
1, 430560, Note_on_c, 0, 61, 33
1, 430560, Control_c, 0, 64, 0
1, 430857, Control_c, 0, 64, 127
1, 431040, Tempo, 341122
1, 431040, Note_on_c, 0, 71, 0
1, 431040, Note_on_c, 0, 69, 45
1, 431520, Note_on_c, 0, 69, 0
1, 431520, Note_on_c, 0, 70, 45
1, 431537, Control_c, 0, 64, 0
1, 432000, Tempo, 333537
1, 432000, Note_on_c, 0, 70, 0
1, 432000, Note_on_c, 0, 66, 0
1, 432000, Note_on_c, 0, 54, 0
1, 432000, Note_on_c, 0, 61, 0
1, 432000, Note_on_c, 0, 71, 50
1, 432000, Note_on_c, 0, 73, 60
1, 432480, Tempo, 323276
1, 432480, Note_on_c, 0, 77, 50
1, 432960, Tempo, 341122
1, 432960, Note_on_c, 0, 85, 45
1, 433440, Tempo, 324272
1, 433440, Note_on_c, 0, 85, 0
1, 433440, Note_on_c, 0, 77, 0
1, 433440, Note_on_c, 0, 71, 0
1, 433440, Note_on_c, 0, 78, 42
1, 433440, Note_on_c, 0, 85, 50
1, 433440, Note_on_c, 0, 70, 49
1, 433446, Control_c, 0, 64, 0
1, 433760, Control_c, 0, 64, 127
1, 433920, Tempo, 336738
1, 434400, Note_on_c, 0, 85, 0
1, 434400, Note_on_c, 0, 85, 45
1, 434880, Tempo, 326282
1, 434880, Note_on_c, 0, 73, 0
1, 434880, Note_on_c, 0, 70, 0
1, 434880, Note_on_c, 0, 78, 0
1, 434880, Note_on_c, 0, 77, 42
1, 434880, Note_on_c, 0, 68, 28
1, 434880, Note_on_c, 0, 71, 34
1, 434887, Control_c, 0, 64, 0
1, 435155, Control_c, 0, 64, 127
1, 435360, Note_on_c, 0, 85, 0
1, 435360, Note_on_c, 0, 87, 45
1, 435840, Tempo, 337819
1, 435840, Note_on_c, 0, 87, 0
1, 435840, Note_on_c, 0, 83, 44
1, 436320, Tempo, 326282
1, 436320, Note_on_c, 0, 71, 0
1, 436320, Note_on_c, 0, 77, 0
1, 436320, Note_on_c, 0, 68, 0
1, 436320, Note_on_c, 0, 78, 42
1, 436320, Note_on_c, 0, 66, 28
1, 436320, Note_on_c, 0, 73, 33
1, 436320, Control_c, 0, 64, 0
1, 436617, Control_c, 0, 64, 127
1, 436800, Tempo, 334597
1, 436800, Note_on_c, 0, 83, 0
1, 436800, Note_on_c, 0, 81, 45
1, 437280, Note_on_c, 0, 81, 0
1, 437280, Note_on_c, 0, 82, 45
1, 437297, Control_c, 0, 64, 0
1, 437760, Tempo, 336738
1, 437760, Note_on_c, 0, 82, 0
1, 437760, Note_on_c, 0, 78, 0
1, 437760, Note_on_c, 0, 66, 0
1, 437760, Note_on_c, 0, 73, 0
1, 437760, Note_on_c, 0, 68, 50
1, 437760, Note_on_c, 0, 70, 60
1, 438240, Tempo, 322286
1, 438240, Note_on_c, 0, 74, 50
1, 438720, Tempo, 341122
1, 438720, Note_on_c, 0, 82, 45
1, 439200, Tempo, 326282
1, 439200, Note_on_c, 0, 82, 0
1, 439200, Note_on_c, 0, 74, 0
1, 439200, Note_on_c, 0, 68, 0
1, 439200, Note_on_c, 0, 75, 42
1, 439200, Note_on_c, 0, 82, 50
1, 439200, Note_on_c, 0, 66, 49
1, 439206, Control_c, 0, 64, 0
1, 439520, Control_c, 0, 64, 127
1, 439680, Tempo, 336738
1, 440160, Note_on_c, 0, 82, 0
1, 440160, Note_on_c, 0, 82, 45
1, 440640, Tempo, 326282
1, 440640, Note_on_c, 0, 70, 0
1, 440640, Note_on_c, 0, 66, 0
1, 440640, Note_on_c, 0, 75, 0
1, 440640, Note_on_c, 0, 74, 42
1, 440640, Note_on_c, 0, 65, 44
1, 440640, Note_on_c, 0, 68, 44
1, 440647, Control_c, 0, 64, 0
1, 440915, Control_c, 0, 64, 127
1, 441120, Note_on_c, 0, 82, 0
1, 441120, Note_on_c, 0, 83, 45
1, 441600, Tempo, 337819
1, 441600, Note_on_c, 0, 83, 0
1, 441600, Note_on_c, 0, 80, 44
1, 442080, Tempo, 331437
1, 442080, Note_on_c, 0, 68, 0
1, 442080, Note_on_c, 0, 74, 0
1, 442080, Note_on_c, 0, 65, 0
1, 442080, Note_on_c, 0, 70, 49
1, 442080, Note_on_c, 0, 63, 28
1, 442080, Note_on_c, 0, 66, 33
1, 442080, Control_c, 0, 64, 0
1, 442377, Control_c, 0, 64, 127
1, 442560, Tempo, 337819
1, 442560, Note_on_c, 0, 80, 0
1, 442560, Note_on_c, 0, 77, 52
1, 443040, Note_on_c, 0, 77, 0
1, 443040, Note_on_c, 0, 78, 52
1, 443057, Control_c, 0, 64, 0
1, 443520, Tempo, 326282
1, 443520, Note_on_c, 0, 66, 0
1, 443520, Note_on_c, 0, 70, 0
1, 443520, Note_on_c, 0, 63, 0
1, 443520, Note_on_c, 0, 71, 50
1, 443520, Note_on_c, 0, 61, 42
1, 443520, Note_on_c, 0, 65, 48
1, 443527, Control_c, 0, 64, 0
1, 443795, Control_c, 0, 64, 127
1, 444000, Note_on_c, 0, 78, 0
1, 444000, Note_on_c, 0, 80, 55
1, 444480, Tempo, 346741
1, 444480, Note_on_c, 0, 80, 0
1, 444480, Note_on_c, 0, 77, 50
1, 444960, Tempo, 331437
1, 444960, Note_on_c, 0, 65, 0
1, 444960, Note_on_c, 0, 71, 0
1, 444960, Note_on_c, 0, 61, 0
1, 444960, Note_on_c, 0, 72, 42
1, 444960, Note_on_c, 0, 67, 33
1, 444960, Note_on_c, 0, 60, 28
1, 444960, Control_c, 0, 64, 0
1, 445257, Control_c, 0, 64, 127
1, 445440, Tempo, 341122
1, 445440, Note_on_c, 0, 77, 0
1, 445440, Note_on_c, 0, 77, 45
1, 445920, Note_on_c, 0, 77, 0
1, 445920, Note_on_c, 0, 76, 45
1, 445937, Control_c, 0, 64, 0
1, 446400, Tempo, 331437
1, 446400, Note_on_c, 0, 60, 0
1, 446400, Note_on_c, 0, 72, 0
1, 446400, Note_on_c, 0, 67, 0
1, 446400, Note_on_c, 0, 68, 42
1, 446400, Note_on_c, 0, 59, 33
1, 446880, Tempo, 341122
1, 446880, Note_on_c, 0, 76, 0
1, 446880, Note_on_c, 0, 77, 45
1, 447360, Note_on_c, 0, 77, 0
1, 447360, Note_on_c, 0, 68, 0
1, 447360, Note_on_c, 0, 65, 28
1, 447360, Note_on_c, 0, 68, 33
1, 447840, Note_on_c, 0, 68, 0
1, 447840, Note_on_c, 0, 65, 0
1, 447840, Note_on_c, 0, 59, 0
1, 447840, Note_on_c, 0, 64, 32
1, 447840, Note_on_c, 0, 67, 38
1, 447840, Note_on_c, 0, 60, 42
1, 447840, Note_on_c, 0, 48, 33
1, 448320, Tempo, 334597
1, 448320, Note_on_c, 0, 60, 0
1, 448320, Note_on_c, 0, 64, 0
1, 448320, Note_on_c, 0, 67, 0
1, 448320, Note_on_c, 0, 55, 33
1, 448800, Note_on_c, 0, 55, 0
1, 448800, Note_on_c, 0, 56, 37
1, 449280, Note_on_c, 0, 56, 0
1, 449280, Note_on_c, 0, 58, 41
1, 449760, Tempo, 326975
1, 449760, Note_on_c, 0, 58, 0
1, 449760, Note_on_c, 0, 73, 38
1, 449760, Note_on_c, 0, 53, 33
1, 450000, Note_on_c, 0, 73, 0
1, 450240, Tempo, 342231
1, 450240, Note_on_c, 0, 53, 0
1, 450240, Note_on_c, 0, 73, 38
1, 450240, Note_on_c, 0, 55, 35
1, 450480, Note_on_c, 0, 73, 0
1, 450720, Tempo, 332410
1, 450720, Note_on_c, 0, 55, 0
1, 450720, Note_on_c, 0, 48, 0
1, 450720, Note_on_c, 0, 73, 46
1, 450720, Note_on_c, 0, 48, 42
1, 450720, Note_on_c, 0, 56, 42
1, 451200, Note_on_c, 0, 56, 0
1, 451200, Note_on_c, 0, 73, 0
1, 451200, Note_on_c, 0, 72, 38
1, 451200, Note_on_c, 0, 52, 33
1, 451680, Note_on_c, 0, 52, 0
1, 451680, Note_on_c, 0, 72, 0
1, 451680, Note_on_c, 0, 53, 33
1, 452160, Note_on_c, 0, 53, 0
1, 452160, Note_on_c, 0, 55, 40
1, 452640, Tempo, 327869
1, 452640, Note_on_c, 0, 55, 0
1, 452640, Note_on_c, 0, 70, 38
1, 452640, Note_on_c, 0, 50, 33
1, 452880, Note_on_c, 0, 70, 0
1, 453120, Tempo, 342231
1, 453120, Note_on_c, 0, 50, 0
1, 453120, Note_on_c, 0, 70, 38
1, 453120, Note_on_c, 0, 52, 33
1, 453360, Note_on_c, 0, 70, 0
1, 453600, Tempo, 331492
1, 453600, Note_on_c, 0, 52, 0
1, 453600, Note_on_c, 0, 48, 0
1, 453600, Note_on_c, 0, 70, 43
1, 453600, Note_on_c, 0, 48, 39
1, 453600, Note_on_c, 0, 53, 39
1, 454080, Note_on_c, 0, 53, 0
1, 454080, Note_on_c, 0, 70, 0
1, 454080, Note_on_c, 0, 69, 38
1, 454080, Note_on_c, 0, 55, 33
1, 454560, Note_on_c, 0, 55, 0
1, 454560, Note_on_c, 0, 69, 0
1, 454560, Note_on_c, 0, 57, 36
1, 455040, Tempo, 321716
1, 455040, Note_on_c, 0, 57, 0
1, 455040, Note_on_c, 0, 58, 40
1, 455280, Note_on_c, 0, 74, 37
1, 455520, Tempo, 315789
1, 455520, Note_on_c, 0, 74, 0
1, 455520, Note_on_c, 0, 58, 0
1, 455520, Note_on_c, 0, 73, 38
1, 455520, Note_on_c, 0, 54, 33
1, 455577, Control_c, 0, 64, 127
1, 455760, Note_on_c, 0, 73, 0
1, 455760, Note_on_c, 0, 74, 34
1, 456000, Note_on_c, 0, 74, 0
1, 456000, Note_on_c, 0, 54, 0
1, 456000, Note_on_c, 0, 76, 43
1, 456000, Note_on_c, 0, 55, 33
1, 456012, Control_c, 0, 64, 0
1, 456195, Control_c, 0, 64, 127
1, 456240, Tempo, 349040
1, 456240, Note_on_c, 0, 76, 0
1, 456240, Note_on_c, 0, 74, 38
1, 456480, Tempo, 321716
1, 456480, Note_on_c, 0, 74, 0
1, 456480, Note_on_c, 0, 55, 0
1, 456480, Note_on_c, 0, 48, 0
1, 456480, Note_on_c, 0, 57, 42
1, 456480, Note_on_c, 0, 48, 42
1, 456480, Control_c, 0, 64, 0
1, 456720, Note_on_c, 0, 72, 36
1, 456960, Tempo, 314961
1, 456960, Note_on_c, 0, 72, 0
1, 456960, Note_on_c, 0, 57, 0
1, 456960, Note_on_c, 0, 71, 38
1, 456960, Note_on_c, 0, 52, 33
1, 457177, Control_c, 0, 64, 127
1, 457200, Note_on_c, 0, 71, 0
1, 457200, Note_on_c, 0, 72, 36
1, 457440, Note_on_c, 0, 72, 0
1, 457440, Note_on_c, 0, 52, 0
1, 457440, Note_on_c, 0, 74, 44
1, 457440, Note_on_c, 0, 53, 33
1, 457452, Control_c, 0, 64, 0
1, 457600, Control_c, 0, 64, 127
1, 457680, Tempo, 347887
1, 457680, Note_on_c, 0, 74, 0
1, 457680, Note_on_c, 0, 72, 38
1, 457920, Tempo, 325203
1, 457920, Note_on_c, 0, 72, 0
1, 457920, Note_on_c, 0, 53, 0
1, 457920, Note_on_c, 0, 55, 40
1, 457920, Control_c, 0, 64, 0
1, 458160, Note_on_c, 0, 70, 36
1, 458400, Tempo, 314136
1, 458400, Note_on_c, 0, 70, 0
1, 458400, Note_on_c, 0, 55, 0
1, 458400, Note_on_c, 0, 69, 38
1, 458400, Note_on_c, 0, 50, 33
1, 458640, Note_on_c, 0, 69, 0
1, 458640, Note_on_c, 0, 70, 35
1, 458654, Control_c, 0, 64, 127
1, 458880, Note_on_c, 0, 70, 0
1, 458880, Note_on_c, 0, 50, 0
1, 458880, Note_on_c, 0, 72, 44
1, 458880, Note_on_c, 0, 52, 33
1, 458979, Control_c, 0, 64, 0
1, 459092, Control_c, 0, 64, 127
1, 459120, Tempo, 340020
1, 459120, Note_on_c, 0, 72, 0
1, 459120, Note_on_c, 0, 70, 37
1, 459331, Tempo, 334597
1, 459360, Note_on_c, 0, 70, 0
1, 459360, Note_on_c, 0, 52, 0
1, 459360, Note_on_c, 0, 48, 0
1, 459360, Note_on_c, 0, 69, 46
1, 459360, Note_on_c, 0, 53, 40
1, 459360, Control_c, 0, 64, 0
1, 459499, Tempo, 333537
1, 459572, Control_c, 0, 64, 127
1, 459600, Note_on_c, 0, 53, 0
1, 459600, Note_on_c, 0, 60, 28
1, 459643, Tempo, 332484
1, 459811, Tempo, 331437
1, 459840, Note_on_c, 0, 60, 0
1, 459840, Note_on_c, 0, 57, 33
1, 459955, Tempo, 330396
1, 460080, Note_on_c, 0, 57, 0
1, 460080, Note_on_c, 0, 60, 27
1, 460123, Tempo, 329345
1, 460267, Tempo, 328317
1, 460320, Note_on_c, 0, 60, 0
1, 460334, Note_on_c, 0, 55, 33
1, 460336, Control_c, 0, 64, 0
1, 460354, Tempo, 329670
1, 460426, Tempo, 328767
1, 460476, Control_c, 0, 64, 127
1, 460498, Tempo, 327869
1, 460560, Note_on_c, 0, 60, 30
1, 460570, Tempo, 326975
1, 460574, Note_on_c, 0, 55, 0
1, 460618, Tempo, 326087
1, 460690, Tempo, 325203
1, 460762, Tempo, 324324
1, 460800, Note_on_c, 0, 60, 0
1, 460800, Note_on_c, 0, 53, 38
1, 460800, Control_c, 0, 64, 0
1, 460810, Tempo, 323450
1, 460882, Tempo, 322581
1, 460954, Tempo, 321716
1, 460970, Control_c, 0, 64, 127
1, 461002, Tempo, 320856
1, 461040, Tempo, 320000
1, 461040, Note_on_c, 0, 53, 0
1, 461040, Note_on_c, 0, 60, 28
1, 461280, Note_on_c, 0, 60, 0
1, 461280, Note_on_c, 0, 55, 43
1, 461298, Control_c, 0, 64, 0
1, 461464, Control_c, 0, 64, 127
1, 461520, Note_on_c, 0, 55, 0
1, 461520, Note_on_c, 0, 69, 0
1, 461520, Note_on_c, 0, 72, 56
1, 461520, Note_on_c, 0, 60, 38
1, 461760, Note_on_c, 0, 60, 0
1, 461760, Note_on_c, 0, 72, 0
1, 461760, Note_on_c, 0, 77, 62
1, 461760, Note_on_c, 0, 57, 51
1, 461774, Control_c, 0, 64, 0
1, 461887, Control_c, 0, 64, 127
1, 462000, Tempo, 344471
1, 462000, Note_on_c, 0, 57, 0
1, 462000, Note_on_c, 0, 60, 41
1, 462240, Note_on_c, 0, 60, 0
1, 462240, Note_on_c, 0, 77, 0
1, 462240, Note_on_c, 0, 77, 63
1, 462240, Note_on_c, 0, 55, 53
1, 462240, Control_c, 0, 64, 0
1, 462360, Tempo, 332484
1, 462381, Control_c, 0, 64, 127
1, 462475, Tempo, 329345
1, 462480, Note_on_c, 0, 55, 0
1, 462480, Note_on_c, 0, 60, 40
1, 462538, Tempo, 327869
1, 462634, Tempo, 326975
1, 462720, Note_on_c, 0, 60, 0
1, 462720, Note_on_c, 0, 57, 45
1, 462730, Tempo, 326087
1, 462735, Control_c, 0, 64, 0
1, 462819, Control_c, 0, 64, 127
1, 462826, Tempo, 325203
1, 462922, Tempo, 324324
1, 462960, Note_on_c, 0, 57, 0
1, 462960, Note_on_c, 0, 60, 35
1, 463018, Tempo, 323450
1, 463114, Tempo, 322581
1, 463162, Tempo, 323450
1, 463200, Note_on_c, 0, 60, 0
1, 463200, Note_on_c, 0, 58, 40
1, 463206, Control_c, 0, 64, 0
1, 463210, Tempo, 324324
1, 463258, Tempo, 325203
1, 463306, Tempo, 326087
1, 463341, Control_c, 0, 64, 127
1, 463354, Tempo, 326975
1, 463402, Tempo, 327869
1, 463440, Note_on_c, 0, 58, 0
1, 463440, Note_on_c, 0, 60, 33
1, 463450, Tempo, 328767
1, 463498, Tempo, 329670
1, 463546, Tempo, 330579
1, 463570, Tempo, 331492
1, 463603, Tempo, 333537
1, 463675, Tempo, 334597
1, 463680, Note_on_c, 0, 60, 0
1, 463680, Note_on_c, 0, 77, 0
1, 463680, Note_on_c, 0, 76, 57
1, 463680, Note_on_c, 0, 55, 39
1, 463680, Control_c, 0, 64, 0
1, 463807, Control_c, 0, 64, 127
1, 463920, Note_on_c, 0, 55, 0
1, 463920, Note_on_c, 0, 60, 33
1, 464160, Note_on_c, 0, 60, 0
1, 464160, Note_on_c, 0, 76, 0
1, 464160, Note_on_c, 0, 57, 41
1, 464172, Control_c, 0, 64, 0
1, 464316, Control_c, 0, 64, 127
1, 464400, Note_on_c, 0, 57, 0
1, 464400, Note_on_c, 0, 60, 33
1, 464640, Note_on_c, 0, 60, 0
1, 464640, Note_on_c, 0, 58, 41
1, 464654, Control_c, 0, 64, 0
1, 464767, Control_c, 0, 64, 127
1, 464880, Note_on_c, 0, 58, 0
1, 464880, Note_on_c, 0, 60, 33
1, 465120, Tempo, 334597
1, 465120, Note_on_c, 0, 60, 0
1, 465120, Note_on_c, 0, 72, 51
1, 465120, Note_on_c, 0, 52, 40
1, 465120, Control_c, 0, 64, 0
1, 465219, Control_c, 0, 64, 127
1, 465259, Tempo, 333537
1, 465360, Note_on_c, 0, 52, 0
1, 465360, Note_on_c, 0, 60, 28
1, 465403, Tempo, 332484
1, 465571, Tempo, 331437
1, 465600, Note_on_c, 0, 60, 0
1, 465600, Note_on_c, 0, 55, 33
1, 465715, Tempo, 330396
1, 465840, Note_on_c, 0, 55, 0
1, 465840, Note_on_c, 0, 60, 27
1, 465883, Tempo, 329345
1, 466027, Tempo, 328317
1, 466080, Note_on_c, 0, 60, 0
1, 466080, Note_on_c, 0, 53, 33
1, 466100, Control_c, 0, 64, 0
1, 466195, Tempo, 327297
1, 466207, Control_c, 0, 64, 127
1, 466320, Note_on_c, 0, 53, 0
1, 466320, Note_on_c, 0, 60, 30
1, 466339, Tempo, 326282
1, 466560, Note_on_c, 0, 60, 0
1, 466560, Note_on_c, 0, 72, 0
1, 466560, Note_on_c, 0, 72, 61
1, 466560, Note_on_c, 0, 52, 38
1, 466560, Control_c, 0, 64, 0
1, 466620, Control_c, 0, 64, 127
1, 466800, Tempo, 318302
1, 466800, Note_on_c, 0, 52, 0
1, 466800, Note_on_c, 0, 72, 0
1, 466800, Note_on_c, 0, 74, 57
1, 466800, Note_on_c, 0, 60, 28
1, 466880, Note_on_c, 0, 74, 0
1, 466880, Note_on_c, 0, 72, 52
1, 466960, Note_on_c, 0, 72, 0
1, 466960, Note_on_c, 0, 71, 52
1, 467040, Note_on_c, 0, 71, 0
1, 467040, Note_on_c, 0, 60, 0
1, 467040, Note_on_c, 0, 72, 61
1, 467040, Note_on_c, 0, 53, 47
1, 467058, Control_c, 0, 64, 0
1, 467109, Control_c, 0, 64, 127
1, 467280, Note_on_c, 0, 53, 0
1, 467280, Note_on_c, 0, 72, 0
1, 467280, Note_on_c, 0, 79, 71
1, 467280, Note_on_c, 0, 60, 41
1, 467520, Note_on_c, 0, 60, 0
1, 467520, Note_on_c, 0, 79, 0
1, 467520, Note_on_c, 0, 82, 76
1, 467520, Note_on_c, 0, 55, 49
1, 467534, Control_c, 0, 64, 0
1, 467647, Control_c, 0, 64, 127
1, 467760, Tempo, 344471
1, 467760, Note_on_c, 0, 55, 0
1, 467760, Note_on_c, 0, 60, 40
1, 468000, Note_on_c, 0, 60, 0
1, 468000, Note_on_c, 0, 82, 0
1, 468000, Note_on_c, 0, 82, 78
1, 468000, Note_on_c, 0, 53, 54
1, 468000, Control_c, 0, 64, 0
1, 468120, Tempo, 332484
1, 468130, Tempo, 329670
1, 468141, Control_c, 0, 64, 127
1, 468202, Tempo, 328767
1, 468240, Note_on_c, 0, 53, 0
1, 468240, Note_on_c, 0, 60, 43
1, 468250, Tempo, 327869
1, 468322, Tempo, 326975
1, 468370, Tempo, 326087
1, 468442, Tempo, 325203
1, 468480, Note_on_c, 0, 60, 0
1, 468480, Note_on_c, 0, 55, 45
1, 468490, Tempo, 324324
1, 468495, Control_c, 0, 64, 0
1, 468562, Tempo, 323450
1, 468579, Control_c, 0, 64, 127
1, 468610, Tempo, 322581
1, 468658, Tempo, 320856
1, 468720, Note_on_c, 0, 55, 0
1, 468720, Note_on_c, 0, 60, 37
1, 468730, Tempo, 321716
1, 468778, Tempo, 322581
1, 468850, Tempo, 323450
1, 468898, Tempo, 324324
1, 468960, Note_on_c, 0, 60, 0
1, 468960, Note_on_c, 0, 57, 46
1, 468966, Control_c, 0, 64, 0
1, 468970, Tempo, 325203
1, 469018, Tempo, 326087
1, 469066, Tempo, 326975
1, 469075, Tempo, 329345
1, 469101, Control_c, 0, 64, 127
1, 469147, Tempo, 330396
1, 469200, Note_on_c, 0, 57, 0
1, 469200, Note_on_c, 0, 60, 33
1, 469219, Tempo, 331437
1, 469291, Tempo, 332484
1, 469363, Tempo, 333537
1, 469435, Tempo, 334597
1, 469440, Note_on_c, 0, 60, 0
1, 469440, Note_on_c, 0, 82, 0
1, 469440, Note_on_c, 0, 81, 69
1, 469440, Note_on_c, 0, 53, 44
1, 469440, Control_c, 0, 64, 0
1, 469567, Control_c, 0, 64, 127
1, 469680, Note_on_c, 0, 53, 0
1, 469680, Note_on_c, 0, 60, 39
1, 469920, Note_on_c, 0, 60, 0
1, 469920, Note_on_c, 0, 81, 0
1, 469932, Control_c, 0, 64, 0
1, 469934, Note_on_c, 0, 55, 41
1, 470076, Control_c, 0, 64, 127
1, 470160, Note_on_c, 0, 60, 33
1, 470174, Note_on_c, 0, 55, 0
1, 470400, Note_on_c, 0, 60, 0
1, 470400, Note_on_c, 0, 57, 41
1, 470414, Control_c, 0, 64, 0
1, 470527, Control_c, 0, 64, 127
1, 470640, Note_on_c, 0, 57, 0
1, 470640, Note_on_c, 0, 60, 33
1, 470880, Tempo, 334597
1, 470880, Note_on_c, 0, 60, 0
1, 470880, Note_on_c, 0, 69, 56
1, 470880, Note_on_c, 0, 53, 40
1, 470880, Control_c, 0, 64, 0
1, 470914, Tempo, 331492
1, 471000, Note_on_c, 0, 69, 0
1, 471034, Tempo, 330579
1, 471120, Note_on_c, 0, 53, 0
1, 471120, Note_on_c, 0, 70, 58
1, 471120, Note_on_c, 0, 60, 28
1, 471154, Tempo, 329670
1, 471240, Note_on_c, 0, 70, 0
1, 471250, Tempo, 328767
1, 471360, Note_on_c, 0, 60, 0
1, 471360, Note_on_c, 0, 72, 60
1, 471360, Note_on_c, 0, 57, 33
1, 471370, Tempo, 327869
1, 471466, Tempo, 326975
1, 471480, Note_on_c, 0, 72, 0
1, 471586, Tempo, 326087
1, 471600, Note_on_c, 0, 57, 0
1, 471600, Note_on_c, 0, 74, 62
1, 471600, Note_on_c, 0, 60, 27
1, 471682, Tempo, 325203
1, 471720, Note_on_c, 0, 74, 0
1, 471802, Tempo, 324324
1, 471840, Note_on_c, 0, 60, 0
1, 471840, Note_on_c, 0, 76, 64
1, 471840, Note_on_c, 0, 53, 34
1, 471898, Tempo, 323450
1, 471960, Note_on_c, 0, 76, 0
1, 472018, Tempo, 322581
1, 472080, Note_on_c, 0, 53, 0
1, 472080, Note_on_c, 0, 77, 65
1, 472080, Note_on_c, 0, 60, 31
1, 472114, Tempo, 321716
1, 472200, Note_on_c, 0, 77, 0
1, 472234, Tempo, 320856
1, 472320, Note_on_c, 0, 60, 0
1, 472320, Note_on_c, 0, 79, 67
1, 472320, Note_on_c, 0, 53, 40
1, 472330, Tempo, 320000
1, 472440, Note_on_c, 0, 79, 0
1, 472560, Tempo, 316623
1, 472560, Note_on_c, 0, 53, 0
1, 472560, Note_on_c, 0, 81, 71
1, 472560, Note_on_c, 0, 60, 36
1, 472680, Note_on_c, 0, 81, 0
1, 472800, Note_on_c, 0, 60, 0
1, 472800, Note_on_c, 0, 82, 74
1, 472800, Note_on_c, 0, 57, 48
1, 472920, Note_on_c, 0, 82, 0
1, 473040, Note_on_c, 0, 57, 0
1, 473040, Note_on_c, 0, 84, 77
1, 473040, Note_on_c, 0, 60, 40
1, 473160, Note_on_c, 0, 84, 0
1, 473280, Note_on_c, 0, 60, 0
1, 473280, Note_on_c, 0, 86, 80
1, 473280, Note_on_c, 0, 53, 51
1, 473400, Note_on_c, 0, 86, 0
1, 473520, Tempo, 380952
1, 473520, Note_on_c, 0, 53, 0
1, 473520, Note_on_c, 0, 88, 83
1, 473520, Note_on_c, 0, 60, 42
1, 473640, Note_on_c, 0, 88, 0
1, 473760, Tempo, 353982
1, 473760, Note_on_c, 0, 60, 0
1, 473760, Note_on_c, 0, 89, 90
1, 473760, Note_on_c, 0, 55, 59
1, 473760, Control_c, 0, 64, 0
1, 473880, Tempo, 332484
1, 473901, Control_c, 0, 64, 127
1, 473915, Tempo, 327869
1, 474000, Note_on_c, 0, 55, 0
1, 474000, Note_on_c, 0, 60, 47
1, 474035, Tempo, 326975
1, 474131, Tempo, 326087
1, 474227, Tempo, 325203
1, 474240, Note_on_c, 0, 60, 0
1, 474240, Note_on_c, 0, 58, 46
1, 474255, Control_c, 0, 64, 0
1, 474339, Control_c, 0, 64, 127
1, 474347, Tempo, 324324
1, 474443, Tempo, 323450
1, 474480, Note_on_c, 0, 58, 0
1, 474480, Note_on_c, 0, 60, 38
1, 474539, Tempo, 322581
1, 474611, Tempo, 321716
1, 474683, Tempo, 322581
1, 474720, Note_on_c, 0, 60, 0
1, 474720, Note_on_c, 0, 55, 46
1, 474726, Control_c, 0, 64, 0
1, 474755, Tempo, 323450
1, 474827, Tempo, 324324
1, 474861, Control_c, 0, 64, 127
1, 474899, Tempo, 325203
1, 474960, Note_on_c, 0, 55, 0
1, 474960, Note_on_c, 0, 60, 37
1, 474971, Tempo, 326087
1, 475043, Tempo, 326975
1, 475115, Tempo, 327869
1, 475139, Tempo, 328767
1, 475163, Tempo, 328767
1, 475195, Tempo, 334597
1, 475200, Note_on_c, 0, 60, 0
1, 475200, Note_on_c, 0, 89, 0
1, 475200, Note_on_c, 0, 88, 71
1, 475200, Note_on_c, 0, 55, 44
1, 475200, Control_c, 0, 64, 0
1, 475211, Tempo, 328767
1, 475327, Control_c, 0, 64, 127
1, 475440, Note_on_c, 0, 55, 0
1, 475440, Note_on_c, 0, 60, 37
1, 475680, Note_on_c, 0, 60, 0
1, 475680, Note_on_c, 0, 88, 0
1, 475680, Note_on_c, 0, 58, 47
1, 475692, Control_c, 0, 64, 0
1, 475836, Control_c, 0, 64, 127
1, 475920, Note_on_c, 0, 58, 0
1, 475920, Note_on_c, 0, 60, 37
1, 476160, Note_on_c, 0, 60, 0
1, 476160, Note_on_c, 0, 55, 47
1, 476174, Control_c, 0, 64, 0
1, 476287, Control_c, 0, 64, 127
1, 476400, Note_on_c, 0, 55, 0
1, 476400, Note_on_c, 0, 60, 37
1, 476627, Tempo, 328767
1, 476638, Note_on_c, 0, 60, 0
1, 476640, Note_on_c, 0, 60, 56
1, 476640, Note_on_c, 0, 52, 40
1, 476640, Control_c, 0, 64, 0
1, 476760, Note_on_c, 0, 60, 0
1, 476819, Tempo, 327869
1, 476880, Note_on_c, 0, 52, 0
1, 476880, Note_on_c, 0, 62, 58
1, 476880, Note_on_c, 0, 60, 32
1, 476987, Tempo, 326975
1, 477000, Note_on_c, 0, 62, 0
1, 477120, Note_on_c, 0, 60, 0
1, 477120, Note_on_c, 0, 64, 60
1, 477120, Note_on_c, 0, 55, 39
1, 477179, Tempo, 326087
1, 477240, Note_on_c, 0, 64, 0
1, 477347, Tempo, 325203
1, 477360, Note_on_c, 0, 55, 0
1, 477360, Note_on_c, 0, 65, 62
1, 477360, Note_on_c, 0, 60, 29
1, 477480, Note_on_c, 0, 65, 0
1, 477539, Tempo, 324324
1, 477600, Note_on_c, 0, 60, 0
1, 477600, Note_on_c, 0, 67, 64
1, 477600, Note_on_c, 0, 52, 40
1, 477707, Tempo, 323450
1, 477720, Note_on_c, 0, 67, 0
1, 477840, Note_on_c, 0, 52, 0
1, 477840, Note_on_c, 0, 69, 65
1, 477840, Note_on_c, 0, 60, 31
1, 477899, Tempo, 322581
1, 477960, Note_on_c, 0, 69, 0
1, 478067, Tempo, 321716
1, 478080, Note_on_c, 0, 60, 0
1, 478080, Note_on_c, 0, 70, 71
1, 478080, Note_on_c, 0, 52, 46
1, 478200, Note_on_c, 0, 70, 0
1, 478320, Tempo, 318302
1, 478320, Note_on_c, 0, 52, 0
1, 478320, Note_on_c, 0, 72, 71
1, 478320, Note_on_c, 0, 60, 41
1, 478440, Note_on_c, 0, 72, 0
1, 478560, Note_on_c, 0, 60, 0
1, 478560, Note_on_c, 0, 74, 73
1, 478560, Note_on_c, 0, 55, 52
1, 478680, Note_on_c, 0, 74, 0
1, 478800, Note_on_c, 0, 55, 0
1, 478800, Note_on_c, 0, 76, 75
1, 478800, Note_on_c, 0, 60, 40
1, 478920, Note_on_c, 0, 76, 0
1, 479040, Note_on_c, 0, 60, 0
1, 479040, Note_on_c, 0, 77, 82
1, 479040, Note_on_c, 0, 52, 57
1, 479160, Note_on_c, 0, 77, 0
1, 479280, Tempo, 344471
1, 479280, Note_on_c, 0, 52, 0
1, 479280, Note_on_c, 0, 79, 84
1, 479280, Note_on_c, 0, 60, 44
1, 479400, Note_on_c, 0, 79, 0
1, 479520, Note_on_c, 0, 60, 0
1, 479520, Note_on_c, 0, 80, 92
1, 479520, Note_on_c, 0, 53, 45
1, 479520, Control_c, 0, 64, 127
1, 479760, Tempo, 334597
1, 479760, Note_on_c, 0, 53, 0
1, 479760, Note_on_c, 0, 60, 36
1, 480000, Tempo, 332484
1, 480000, Note_on_c, 0, 60, 0
1, 480000, Note_on_c, 0, 55, 49
1, 480013, Control_c, 0, 64, 0
1, 480212, Control_c, 0, 64, 127
1, 480240, Note_on_c, 0, 55, 0
1, 480240, Note_on_c, 0, 60, 42
1, 480480, Note_on_c, 0, 60, 0
1, 480480, Note_on_c, 0, 56, 51
1, 480492, Control_c, 0, 64, 0
1, 480678, Control_c, 0, 64, 127
1, 480720, Tempo, 344471
1, 480720, Note_on_c, 0, 56, 0
1, 480720, Note_on_c, 0, 60, 44
1, 480960, Tempo, 335196
1, 480960, Note_on_c, 0, 60, 0
1, 480960, Note_on_c, 0, 53, 47
1, 480960, Control_c, 0, 64, 0
1, 481200, Tempo, 326087
1, 481200, Note_on_c, 0, 53, 0
1, 481200, Note_on_c, 0, 60, 37
1, 481200, Control_c, 0, 64, 127
1, 481440, Note_on_c, 0, 60, 0
1, 481440, Note_on_c, 0, 80, 0
1, 481440, Note_on_c, 0, 79, 77
1, 481440, Note_on_c, 0, 55, 41
1, 481455, Control_c, 0, 64, 0
1, 481610, Control_c, 0, 64, 127
1, 481680, Note_on_c, 0, 55, 0
1, 481680, Note_on_c, 0, 60, 37
1, 481920, Note_on_c, 0, 60, 0
1, 481920, Note_on_c, 0, 79, 0
1, 481920, Note_on_c, 0, 77, 77
1, 481920, Note_on_c, 0, 56, 41
1, 481935, Control_c, 0, 64, 0
1, 482061, Control_c, 0, 64, 127
1, 482160, Tempo, 349854
1, 482160, Note_on_c, 0, 56, 0
1, 482160, Note_on_c, 0, 60, 37
1, 482400, Tempo, 330579
1, 482400, Note_on_c, 0, 60, 0
1, 482400, Note_on_c, 0, 77, 0
1, 482400, Note_on_c, 0, 75, 84
1, 482400, Note_on_c, 0, 55, 51
1, 482400, Control_c, 0, 64, 0
1, 482570, Control_c, 0, 64, 127
1, 482640, Note_on_c, 0, 55, 0
1, 482640, Note_on_c, 0, 63, 36
1, 482880, Note_on_c, 0, 63, 0
1, 482880, Note_on_c, 0, 60, 41
1, 483120, Note_on_c, 0, 60, 0
1, 483120, Note_on_c, 0, 63, 36
1, 483360, Note_on_c, 0, 63, 0
1, 483360, Note_on_c, 0, 55, 41
1, 483480, Note_on_c, 0, 75, 0
1, 483480, Note_on_c, 0, 77, 57
1, 483560, Note_on_c, 0, 77, 0
1, 483560, Note_on_c, 0, 75, 61
1, 483600, Tempo, 346821
1, 483600, Note_on_c, 0, 55, 0
1, 483600, Note_on_c, 0, 63, 36
1, 483640, Note_on_c, 0, 75, 0
1, 483640, Note_on_c, 0, 74, 65
1, 483720, Note_on_c, 0, 74, 0
1, 483720, Note_on_c, 0, 75, 69
1, 483840, Tempo, 330579
1, 483840, Note_on_c, 0, 75, 0
1, 483840, Note_on_c, 0, 63, 0
1, 483840, Note_on_c, 0, 79, 84
1, 483840, Note_on_c, 0, 55, 47
1, 483840, Control_c, 0, 64, 0
1, 484012, Control_c, 0, 64, 127
1, 484080, Note_on_c, 0, 55, 0
1, 484080, Note_on_c, 0, 62, 36
1, 484320, Tempo, 334262
1, 484320, Note_on_c, 0, 62, 0
1, 484320, Note_on_c, 0, 79, 0
1, 484320, Note_on_c, 0, 77, 78
1, 484320, Note_on_c, 0, 59, 42
1, 484560, Note_on_c, 0, 59, 0
1, 484560, Note_on_c, 0, 62, 34
1, 484800, Note_on_c, 0, 62, 0
1, 484800, Note_on_c, 0, 77, 0
1, 484800, Note_on_c, 0, 74, 78
1, 484800, Note_on_c, 0, 55, 40
1, 484920, Tempo, 339943
1, 485040, Note_on_c, 0, 55, 0
1, 485040, Note_on_c, 0, 62, 35
1, 485280, Tempo, 334597
1, 485280, Note_on_c, 0, 62, 0
1, 485280, Note_on_c, 0, 74, 0
1, 485280, Note_on_c, 0, 63, 66
1, 485280, Note_on_c, 0, 75, 89
1, 485280, Note_on_c, 0, 48, 60
1, 485280, Control_c, 0, 64, 0
1, 485280, Control_c, 0, 64, 0
1, 485419, Tempo, 333537
1, 485492, Control_c, 0, 64, 127
1, 485520, Note_on_c, 0, 48, 0
1, 485520, Note_on_c, 0, 55, 37
1, 485563, Tempo, 332484
1, 485731, Tempo, 331437
1, 485760, Note_on_c, 0, 55, 0
1, 485760, Note_on_c, 0, 51, 52
1, 485875, Tempo, 330396
1, 486000, Note_on_c, 0, 51, 0
1, 486000, Note_on_c, 0, 55, 36
1, 486043, Tempo, 329345
1, 486187, Tempo, 328317
1, 486240, Note_on_c, 0, 55, 0
1, 486254, Note_on_c, 0, 50, 52
1, 486256, Control_c, 0, 64, 0
1, 486274, Tempo, 329670
1, 486346, Tempo, 328767
1, 486396, Control_c, 0, 64, 127
1, 486418, Tempo, 327869
1, 486480, Note_on_c, 0, 55, 46
1, 486490, Tempo, 326975
1, 486494, Note_on_c, 0, 50, 0
1, 486538, Tempo, 326087
1, 486610, Tempo, 325203
1, 486682, Tempo, 324324
1, 486720, Note_on_c, 0, 55, 0
1, 486720, Note_on_c, 0, 48, 57
1, 486720, Control_c, 0, 64, 0
1, 486730, Tempo, 323450
1, 486802, Tempo, 322581
1, 486874, Tempo, 321716
1, 486890, Control_c, 0, 64, 127
1, 486922, Tempo, 320856
1, 486960, Tempo, 320000
1, 486960, Note_on_c, 0, 48, 0
1, 486960, Note_on_c, 0, 55, 46
1, 487200, Note_on_c, 0, 55, 0
1, 487200, Note_on_c, 0, 50, 57
1, 487218, Control_c, 0, 64, 0
1, 487384, Control_c, 0, 64, 127
1, 487440, Note_on_c, 0, 50, 0
1, 487440, Note_on_c, 0, 75, 0
1, 487440, Note_on_c, 0, 63, 0
1, 487440, Note_on_c, 0, 67, 63
1, 487440, Note_on_c, 0, 79, 84
1, 487440, Note_on_c, 0, 55, 50
1, 487680, Note_on_c, 0, 55, 0
1, 487680, Note_on_c, 0, 79, 0
1, 487680, Note_on_c, 0, 67, 0
1, 487680, Note_on_c, 0, 72, 72
1, 487680, Note_on_c, 0, 84, 97
1, 487680, Note_on_c, 0, 51, 61
1, 487694, Control_c, 0, 64, 0
1, 487807, Control_c, 0, 64, 127
1, 487920, Tempo, 344471
1, 487920, Note_on_c, 0, 51, 0
1, 487920, Note_on_c, 0, 55, 56
1, 488160, Note_on_c, 0, 55, 0
1, 488160, Note_on_c, 0, 84, 0
1, 488160, Note_on_c, 0, 72, 0
1, 488160, Note_on_c, 0, 72, 73
1, 488160, Note_on_c, 0, 84, 98
1, 488160, Note_on_c, 0, 50, 66
1, 488160, Control_c, 0, 64, 0
1, 488280, Tempo, 332484
1, 488301, Control_c, 0, 64, 127
1, 488395, Tempo, 329345
1, 488400, Note_on_c, 0, 50, 0
1, 488400, Note_on_c, 0, 55, 43
1, 488458, Tempo, 327869
1, 488554, Tempo, 326975
1, 488640, Note_on_c, 0, 55, 0
1, 488640, Note_on_c, 0, 51, 59
1, 488650, Tempo, 326087
1, 488655, Control_c, 0, 64, 0
1, 488739, Control_c, 0, 64, 127
1, 488746, Tempo, 325203
1, 488842, Tempo, 324324
1, 488880, Note_on_c, 0, 51, 0
1, 488880, Note_on_c, 0, 55, 51
1, 488938, Tempo, 323450
1, 489034, Tempo, 322581
1, 489082, Tempo, 323450
1, 489120, Note_on_c, 0, 55, 0
1, 489120, Note_on_c, 0, 53, 60
1, 489126, Control_c, 0, 64, 0
1, 489130, Tempo, 324324
1, 489178, Tempo, 325203
1, 489226, Tempo, 326087
1, 489261, Control_c, 0, 64, 127
1, 489274, Tempo, 326975
1, 489322, Tempo, 327869
1, 489360, Note_on_c, 0, 53, 0
1, 489360, Note_on_c, 0, 55, 53
1, 489370, Tempo, 328767
1, 489418, Tempo, 329670
1, 489466, Tempo, 330579
1, 489490, Tempo, 331492
1, 489523, Tempo, 333537
1, 489595, Tempo, 334597
1, 489600, Note_on_c, 0, 55, 0
1, 489600, Note_on_c, 0, 84, 0
1, 489600, Note_on_c, 0, 72, 0
1, 489600, Note_on_c, 0, 71, 63
1, 489600, Note_on_c, 0, 83, 85
1, 489600, Note_on_c, 0, 50, 63
1, 489600, Control_c, 0, 64, 0
1, 489727, Control_c, 0, 64, 127
1, 489840, Note_on_c, 0, 50, 0
1, 489840, Note_on_c, 0, 55, 44
1, 490080, Note_on_c, 0, 55, 0
1, 490080, Note_on_c, 0, 83, 0
1, 490080, Note_on_c, 0, 71, 0
1, 490080, Note_on_c, 0, 51, 54
1, 490092, Control_c, 0, 64, 0
1, 490236, Control_c, 0, 64, 127
1, 490320, Note_on_c, 0, 51, 0
1, 490320, Note_on_c, 0, 55, 44
1, 490560, Note_on_c, 0, 55, 0
1, 490560, Note_on_c, 0, 53, 54
1, 490574, Control_c, 0, 64, 0
1, 490687, Control_c, 0, 64, 127
1, 490800, Note_on_c, 0, 53, 0
1, 490800, Note_on_c, 0, 55, 44
1, 491040, Tempo, 334597
1, 491040, Note_on_c, 0, 55, 0
1, 491040, Note_on_c, 0, 67, 66
1, 491040, Note_on_c, 0, 79, 89
1, 491040, Note_on_c, 0, 47, 54
1, 491040, Control_c, 0, 64, 0
1, 491040, Control_c, 0, 64, 0
1, 491179, Tempo, 333537
1, 491252, Control_c, 0, 64, 127
1, 491280, Note_on_c, 0, 47, 0
1, 491280, Note_on_c, 0, 55, 37
1, 491323, Tempo, 332484
1, 491491, Tempo, 331437
1, 491520, Note_on_c, 0, 55, 0
1, 491520, Note_on_c, 0, 50, 44
1, 491635, Tempo, 330396
1, 491760, Note_on_c, 0, 50, 0
1, 491760, Note_on_c, 0, 55, 36
1, 491803, Tempo, 329345
1, 491947, Tempo, 328317
1, 492000, Note_on_c, 0, 55, 0
1, 492000, Note_on_c, 0, 48, 44
1, 492016, Control_c, 0, 64, 0
1, 492034, Tempo, 329670
1, 492106, Tempo, 328767
1, 492156, Control_c, 0, 64, 127
1, 492178, Tempo, 327869
1, 492240, Note_on_c, 0, 48, 0
1, 492240, Note_on_c, 0, 55, 40
1, 492250, Tempo, 326975
1, 492298, Tempo, 326087
1, 492370, Tempo, 325203
1, 492442, Tempo, 324324
1, 492480, Note_on_c, 0, 55, 0
1, 492480, Note_on_c, 0, 47, 51
1, 492480, Control_c, 0, 64, 0
1, 492490, Tempo, 323450
1, 492562, Tempo, 322581
1, 492634, Tempo, 321716
1, 492650, Control_c, 0, 64, 127
1, 492682, Tempo, 320856
1, 492720, Tempo, 320000
1, 492720, Note_on_c, 0, 47, 0
1, 492720, Note_on_c, 0, 55, 44
1, 492960, Note_on_c, 0, 55, 0
1, 492960, Note_on_c, 0, 48, 57
1, 492978, Control_c, 0, 64, 0
1, 493144, Control_c, 0, 64, 127
1, 493200, Note_on_c, 0, 48, 0
1, 493200, Note_on_c, 0, 79, 0
1, 493200, Note_on_c, 0, 67, 0
1, 493200, Note_on_c, 0, 74, 63
1, 493200, Note_on_c, 0, 86, 84
1, 493200, Note_on_c, 0, 55, 52
1, 493440, Note_on_c, 0, 55, 0
1, 493440, Note_on_c, 0, 86, 0
1, 493440, Note_on_c, 0, 74, 0
1, 493440, Note_on_c, 0, 77, 72
1, 493440, Note_on_c, 0, 89, 97
1, 493440, Note_on_c, 0, 50, 61
1, 493454, Control_c, 0, 64, 0
1, 493567, Control_c, 0, 64, 127
1, 493680, Tempo, 344471
1, 493680, Note_on_c, 0, 50, 0
1, 493680, Note_on_c, 0, 55, 46
1, 493910, Note_on_c, 0, 89, 0
1, 493910, Note_on_c, 0, 77, 0
1, 493920, Note_on_c, 0, 55, 0
1, 493920, Note_on_c, 0, 77, 73
1, 493920, Note_on_c, 0, 89, 98
1, 493920, Note_on_c, 0, 48, 69
1, 493920, Control_c, 0, 64, 0
1, 494040, Tempo, 332484
1, 494061, Control_c, 0, 64, 127
1, 494155, Tempo, 329345
1, 494160, Note_on_c, 0, 48, 0
1, 494160, Note_on_c, 0, 55, 53
1, 494218, Tempo, 327869
1, 494314, Tempo, 326975
1, 494400, Note_on_c, 0, 55, 0
1, 494400, Note_on_c, 0, 50, 60
1, 494410, Tempo, 326087
1, 494415, Control_c, 0, 64, 0
1, 494499, Control_c, 0, 64, 127
1, 494506, Tempo, 325203
1, 494602, Tempo, 324324
1, 494640, Note_on_c, 0, 50, 0
1, 494640, Note_on_c, 0, 55, 44
1, 494698, Tempo, 323450
1, 494794, Tempo, 322581
1, 494842, Tempo, 323450
1, 494880, Note_on_c, 0, 55, 0
1, 494880, Note_on_c, 0, 51, 54
1, 494886, Control_c, 0, 64, 0
1, 494890, Tempo, 324324
1, 494938, Tempo, 325203
1, 494986, Tempo, 326087
1, 495021, Control_c, 0, 64, 127
1, 495034, Tempo, 326975
1, 495082, Tempo, 327869
1, 495120, Note_on_c, 0, 51, 0
1, 495120, Note_on_c, 0, 55, 44
1, 495130, Tempo, 328767
1, 495178, Tempo, 329670
1, 495226, Tempo, 330579
1, 495250, Tempo, 331492
1, 495283, Tempo, 333537
1, 495355, Tempo, 334597
1, 495360, Note_on_c, 0, 55, 0
1, 495360, Note_on_c, 0, 89, 0
1, 495360, Note_on_c, 0, 77, 0
1, 495360, Note_on_c, 0, 75, 66
1, 495360, Note_on_c, 0, 87, 88
1, 495360, Note_on_c, 0, 48, 52
1, 495360, Control_c, 0, 64, 0
1, 495487, Control_c, 0, 64, 127
1, 495600, Note_on_c, 0, 48, 0
1, 495600, Note_on_c, 0, 55, 44
1, 495840, Note_on_c, 0, 55, 0
1, 495840, Note_on_c, 0, 87, 0
1, 495840, Note_on_c, 0, 75, 0
1, 495840, Note_on_c, 0, 50, 54
1, 495852, Control_c, 0, 64, 0
1, 495996, Control_c, 0, 64, 127
1, 496080, Note_on_c, 0, 50, 0
1, 496080, Note_on_c, 0, 55, 44
1, 496320, Note_on_c, 0, 55, 0
1, 496320, Note_on_c, 0, 51, 54
1, 496334, Control_c, 0, 64, 0
1, 496447, Control_c, 0, 64, 127
1, 496560, Note_on_c, 0, 51, 0
1, 496560, Note_on_c, 0, 55, 44
1, 496800, Tempo, 334597
1, 496800, Note_on_c, 0, 55, 0
1, 496800, Note_on_c, 0, 63, 89
1, 496800, Note_on_c, 0, 48, 54
1, 496800, Control_c, 0, 64, 0
1, 496800, Control_c, 0, 64, 0
1, 496939, Tempo, 333537
1, 497012, Control_c, 0, 64, 127
1, 497040, Note_on_c, 0, 48, 0
1, 497040, Note_on_c, 0, 63, 0
1, 497040, Note_on_c, 0, 67, 75
1, 497040, Note_on_c, 0, 55, 37
1, 497083, Tempo, 332484
1, 497251, Tempo, 331437
1, 497280, Note_on_c, 0, 55, 0
1, 497280, Note_on_c, 0, 67, 0
1, 497280, Note_on_c, 0, 72, 79
1, 497280, Note_on_c, 0, 51, 44
1, 497395, Tempo, 330396
1, 497520, Note_on_c, 0, 51, 0
1, 497520, Note_on_c, 0, 72, 0
1, 497520, Note_on_c, 0, 67, 79
1, 497520, Note_on_c, 0, 55, 36
1, 497563, Tempo, 329345
1, 497707, Tempo, 328317
1, 497760, Note_on_c, 0, 55, 0
1, 497760, Note_on_c, 0, 67, 0
1, 497760, Note_on_c, 0, 72, 83
1, 497760, Note_on_c, 0, 48, 44
1, 497794, Tempo, 329670
1, 497866, Tempo, 328767
1, 497938, Tempo, 327869
1, 498000, Note_on_c, 0, 48, 0
1, 498000, Note_on_c, 0, 72, 0
1, 498000, Note_on_c, 0, 75, 89
1, 498000, Note_on_c, 0, 55, 40
1, 498010, Tempo, 326975
1, 498058, Tempo, 326087
1, 498130, Tempo, 325203
1, 498202, Tempo, 324324
1, 498240, Note_on_c, 0, 55, 0
1, 498240, Note_on_c, 0, 75, 0
1, 498240, Note_on_c, 0, 72, 89
1, 498240, Note_on_c, 0, 48, 51
1, 498250, Tempo, 323450
1, 498322, Tempo, 322581
1, 498394, Tempo, 321716
1, 498442, Tempo, 320856
1, 498480, Tempo, 320000
1, 498480, Note_on_c, 0, 48, 0
1, 498480, Note_on_c, 0, 72, 0
1, 498480, Note_on_c, 0, 75, 77
1, 498480, Note_on_c, 0, 55, 42
1, 498720, Note_on_c, 0, 55, 0
1, 498720, Note_on_c, 0, 75, 0
1, 498720, Note_on_c, 0, 79, 83
1, 498720, Note_on_c, 0, 51, 51
1, 498960, Note_on_c, 0, 51, 0
1, 498960, Note_on_c, 0, 79, 0
1, 498960, Note_on_c, 0, 75, 89
1, 498960, Note_on_c, 0, 55, 42
1, 499200, Note_on_c, 0, 55, 0
1, 499200, Note_on_c, 0, 75, 0
1, 499200, Note_on_c, 0, 79, 83
1, 499200, Note_on_c, 0, 48, 60
1, 499440, Tempo, 344471
1, 499440, Note_on_c, 0, 48, 0
1, 499440, Note_on_c, 0, 79, 0
1, 499440, Note_on_c, 0, 84, 89
1, 499440, Note_on_c, 0, 55, 53
1, 499670, Note_on_c, 0, 84, 0
1, 499680, Note_on_c, 0, 55, 0
1, 499680, Note_on_c, 0, 84, 98
1, 499680, Note_on_c, 0, 50, 66
1, 499680, Control_c, 0, 64, 0
1, 499800, Tempo, 332484
1, 499821, Control_c, 0, 64, 127
1, 499915, Tempo, 329345
1, 499920, Note_on_c, 0, 50, 0
1, 499920, Note_on_c, 0, 55, 43
1, 499978, Tempo, 327869
1, 500074, Tempo, 326975
1, 500160, Note_on_c, 0, 55, 0
1, 500160, Note_on_c, 0, 53, 54
1, 500170, Tempo, 326087
1, 500266, Tempo, 325203
1, 500362, Tempo, 324324
1, 500400, Note_on_c, 0, 53, 0
1, 500400, Note_on_c, 0, 55, 45
1, 500458, Tempo, 323450
1, 500554, Tempo, 322581
1, 500602, Tempo, 323450
1, 500640, Note_on_c, 0, 55, 0
1, 500640, Note_on_c, 0, 50, 54
1, 500650, Tempo, 324324
1, 500698, Tempo, 325203
1, 500746, Tempo, 326087
1, 500794, Tempo, 326975
1, 500842, Tempo, 327869
1, 500880, Note_on_c, 0, 50, 0
1, 500880, Note_on_c, 0, 55, 44
1, 500890, Tempo, 328767
1, 500938, Tempo, 329670
1, 500986, Tempo, 330579
1, 501010, Tempo, 331492
1, 501043, Tempo, 333537
1, 501115, Tempo, 334597
1, 501120, Note_on_c, 0, 55, 0
1, 501120, Note_on_c, 0, 84, 0
1, 501120, Note_on_c, 0, 83, 92
1, 501120, Note_on_c, 0, 50, 52
1, 501120, Control_c, 0, 64, 0
1, 501247, Control_c, 0, 64, 127
1, 501360, Note_on_c, 0, 50, 0
1, 501360, Note_on_c, 0, 55, 44
1, 501600, Note_on_c, 0, 55, 0
1, 501600, Note_on_c, 0, 83, 0
1, 501600, Note_on_c, 0, 53, 54
1, 501612, Control_c, 0, 64, 0
1, 501756, Control_c, 0, 64, 127
1, 501840, Note_on_c, 0, 53, 0
1, 501840, Note_on_c, 0, 55, 44
1, 502080, Note_on_c, 0, 55, 0
1, 502080, Note_on_c, 0, 50, 54
1, 502320, Note_on_c, 0, 50, 0
1, 502320, Note_on_c, 0, 55, 44
1, 502558, Note_on_c, 0, 55, 0
1, 502560, Tempo, 334597
1, 502560, Note_on_c, 0, 55, 80
1, 502560, Note_on_c, 0, 47, 54
1, 502560, Control_c, 0, 64, 0
1, 502560, Control_c, 0, 64, 0
1, 502699, Tempo, 333537
1, 502772, Control_c, 0, 64, 127
1, 502800, Note_on_c, 0, 47, 0
1, 502800, Note_on_c, 0, 55, 0
1, 502800, Note_on_c, 0, 59, 67
1, 502800, Note_on_c, 0, 55, 37
1, 502843, Tempo, 332484
1, 503011, Tempo, 331437
1, 503040, Note_on_c, 0, 55, 0
1, 503040, Note_on_c, 0, 59, 0
1, 503040, Note_on_c, 0, 62, 71
1, 503040, Note_on_c, 0, 50, 49
1, 503155, Tempo, 330396
1, 503280, Note_on_c, 0, 50, 0
1, 503280, Note_on_c, 0, 62, 0
1, 503280, Note_on_c, 0, 59, 71
1, 503280, Note_on_c, 0, 55, 36
1, 503323, Tempo, 329345
1, 503467, Tempo, 328317
1, 503520, Note_on_c, 0, 55, 0
1, 503520, Note_on_c, 0, 59, 0
1, 503520, Note_on_c, 0, 62, 74
1, 503520, Note_on_c, 0, 47, 50
1, 503554, Tempo, 329670
1, 503626, Tempo, 328767
1, 503698, Tempo, 327869
1, 503760, Note_on_c, 0, 47, 0
1, 503760, Note_on_c, 0, 62, 0
1, 503760, Note_on_c, 0, 67, 80
1, 503760, Note_on_c, 0, 55, 40
1, 503770, Tempo, 326975
1, 503818, Tempo, 326087
1, 503890, Tempo, 325203
1, 503962, Tempo, 324324
1, 504000, Note_on_c, 0, 55, 0
1, 504000, Note_on_c, 0, 67, 0
1, 504000, Note_on_c, 0, 62, 80
1, 504000, Note_on_c, 0, 47, 58
1, 504010, Tempo, 323450
1, 504082, Tempo, 322581
1, 504154, Tempo, 321716
1, 504202, Tempo, 320856
1, 504240, Tempo, 320000
1, 504240, Note_on_c, 0, 47, 0
1, 504240, Note_on_c, 0, 62, 0
1, 504240, Note_on_c, 0, 67, 69
1, 504240, Note_on_c, 0, 55, 45
1, 504480, Note_on_c, 0, 55, 0
1, 504480, Note_on_c, 0, 67, 0
1, 504480, Note_on_c, 0, 71, 74
1, 504480, Note_on_c, 0, 50, 51
1, 504720, Note_on_c, 0, 50, 0
1, 504720, Note_on_c, 0, 71, 0
1, 504720, Note_on_c, 0, 67, 80
1, 504720, Note_on_c, 0, 55, 45
1, 504960, Note_on_c, 0, 55, 0
1, 504960, Note_on_c, 0, 67, 0
1, 504960, Note_on_c, 0, 71, 74
1, 504960, Note_on_c, 0, 47, 56
1, 505200, Tempo, 344471
1, 505200, Note_on_c, 0, 47, 0
1, 505200, Note_on_c, 0, 71, 0
1, 505200, Note_on_c, 0, 74, 80
1, 505200, Note_on_c, 0, 55, 37
1, 505440, Tempo, 344471
1, 505440, Note_on_c, 0, 55, 0
1, 505440, Note_on_c, 0, 74, 0
1, 505440, Note_on_c, 0, 75, 86
1, 505440, Control_c, 0, 64, 0
1, 505680, Tempo, 334597
1, 505680, Note_on_c, 0, 48, 43
1, 505920, Tempo, 332484
1, 505920, Note_on_c, 0, 48, 0
1, 505920, Note_on_c, 0, 75, 0
1, 505920, Note_on_c, 0, 47, 61
1, 506160, Note_on_c, 0, 47, 0
1, 506160, Note_on_c, 0, 48, 44
1, 506400, Note_on_c, 0, 48, 0
1, 506400, Note_on_c, 0, 84, 100
1, 506400, Note_on_c, 0, 47, 63
1, 506640, Tempo, 344471
1, 506640, Note_on_c, 0, 47, 0
1, 506640, Note_on_c, 0, 48, 50
1, 506880, Tempo, 333537
1, 506880, Note_on_c, 0, 48, 0
1, 506880, Note_on_c, 0, 40, 67
1, 506979, Control_c, 0, 64, 127
1, 507120, Tempo, 330396
1, 507120, Note_on_c, 0, 40, 0
1, 507120, Note_on_c, 0, 48, 52
1, 507360, Note_on_c, 0, 48, 0
1, 507360, Note_on_c, 0, 41, 57
1, 507372, Control_c, 0, 64, 0
1, 507530, Control_c, 0, 64, 127
1, 507600, Note_on_c, 0, 41, 0
1, 507600, Note_on_c, 0, 48, 47
1, 507840, Tempo, 334597
1, 507840, Note_on_c, 0, 48, 0
1, 507840, Note_on_c, 0, 84, 0
1, 507840, Note_on_c, 0, 52, 77
1, 507840, Note_on_c, 0, 43, 61
1, 507856, Control_c, 0, 64, 0
1, 507981, Control_c, 0, 64, 127
1, 508080, Tempo, 344471
1, 508080, Note_on_c, 0, 43, 0
1, 508080, Note_on_c, 0, 48, 44
1, 508320, Tempo, 334597
1, 508320, Note_on_c, 0, 48, 0
1, 508320, Note_on_c, 0, 52, 0
1, 508320, Note_on_c, 0, 53, 82
1, 508320, Note_on_c, 0, 41, 65
1, 508320, Control_c, 0, 64, 0
1, 508504, Control_c, 0, 64, 127
1, 508560, Note_on_c, 0, 41, 0
1, 508560, Note_on_c, 0, 48, 45
1, 508800, Tempo, 332484
1, 508800, Note_on_c, 0, 48, 0
1, 508800, Note_on_c, 0, 43, 57
1, 508810, Control_c, 0, 64, 0
1, 508941, Control_c, 0, 64, 127
1, 509040, Note_on_c, 0, 43, 0
1, 509040, Note_on_c, 0, 48, 48
1, 509280, Note_on_c, 0, 48, 0
1, 509280, Note_on_c, 0, 44, 56
1, 509290, Control_c, 0, 64, 0
1, 509407, Control_c, 0, 64, 127
1, 509520, Tempo, 344471
1, 509520, Note_on_c, 0, 44, 0
1, 509520, Note_on_c, 0, 48, 50
1, 509760, Tempo, 332484
1, 509760, Note_on_c, 0, 48, 0
1, 509760, Note_on_c, 0, 53, 0
1, 509760, Note_on_c, 0, 54, 84
1, 509760, Note_on_c, 0, 42, 67
1, 509760, Control_c, 0, 64, 0
1, 509863, Control_c, 0, 64, 127
1, 510000, Note_on_c, 0, 42, 0
1, 510000, Note_on_c, 0, 48, 51
1, 510240, Note_on_c, 0, 48, 0
1, 510240, Note_on_c, 0, 43, 58
1, 510253, Control_c, 0, 64, 0
1, 510400, Control_c, 0, 64, 127
1, 510480, Note_on_c, 0, 43, 0
1, 510480, Note_on_c, 0, 48, 49
1, 510720, Note_on_c, 0, 48, 0
1, 510720, Note_on_c, 0, 45, 60
1, 510733, Control_c, 0, 64, 0
1, 510835, Control_c, 0, 64, 127
1, 510960, Tempo, 342231
1, 510960, Note_on_c, 0, 45, 0
1, 510960, Note_on_c, 0, 48, 44
1, 511200, Tempo, 331437
1, 511200, Note_on_c, 0, 48, 0
1, 511200, Note_on_c, 0, 54, 0
1, 511200, Note_on_c, 0, 55, 84
1, 511200, Note_on_c, 0, 43, 64
1, 511200, Control_c, 0, 64, 0
1, 511384, Control_c, 0, 64, 127
1, 511440, Note_on_c, 0, 43, 0
1, 511440, Note_on_c, 0, 51, 51
1, 511680, Note_on_c, 0, 51, 0
1, 511680, Note_on_c, 0, 48, 59
1, 511920, Note_on_c, 0, 48, 0
1, 511920, Note_on_c, 0, 51, 50
1, 512160, Note_on_c, 0, 51, 0
1, 512160, Note_on_c, 0, 43, 57
1, 512400, Tempo, 338906
1, 512400, Note_on_c, 0, 43, 0
1, 512400, Note_on_c, 0, 51, 46
1, 512625, Tempo, 338906
1, 512640, Note_on_c, 0, 51, 0
1, 512640, Note_on_c, 0, 55, 0
1, 512640, Note_on_c, 0, 53, 84
1, 512640, Note_on_c, 0, 43, 64
1, 512673, Tempo, 337819
1, 512697, Tempo, 336738
1, 512697, Control_c, 0, 64, 0
1, 512721, Tempo, 335664
1, 512745, Tempo, 334597
1, 512760, Note_on_c, 0, 53, 0
1, 512760, Note_on_c, 0, 55, 57
1, 512760, Control_c, 0, 64, 127
1, 512793, Tempo, 333537
1, 512817, Tempo, 332484
1, 512841, Tempo, 331437
1, 512865, Tempo, 330396
1, 512880, Note_on_c, 0, 55, 0
1, 512880, Note_on_c, 0, 43, 0
1, 512880, Note_on_c, 0, 53, 61
1, 512880, Note_on_c, 0, 50, 46
1, 512960, Note_on_c, 0, 53, 0
1, 512960, Note_on_c, 0, 55, 57
1, 513040, Note_on_c, 0, 55, 0
1, 513040, Note_on_c, 0, 53, 64
1, 513120, Note_on_c, 0, 53, 0
1, 513120, Note_on_c, 0, 50, 0
1, 513120, Note_on_c, 0, 55, 56
1, 513120, Note_on_c, 0, 47, 58
1, 513200, Note_on_c, 0, 55, 0
1, 513200, Note_on_c, 0, 53, 64
1, 513280, Note_on_c, 0, 53, 0
1, 513280, Note_on_c, 0, 55, 56
1, 513360, Note_on_c, 0, 55, 0
1, 513360, Note_on_c, 0, 47, 0
1, 513360, Note_on_c, 0, 53, 64
1, 513360, Note_on_c, 0, 50, 47
1, 513440, Note_on_c, 0, 53, 0
1, 513440, Note_on_c, 0, 55, 55
1, 513520, Note_on_c, 0, 55, 0
1, 513520, Note_on_c, 0, 53, 64
1, 513600, Note_on_c, 0, 53, 0
1, 513600, Note_on_c, 0, 50, 0
1, 513600, Note_on_c, 0, 55, 54
1, 513600, Note_on_c, 0, 43, 56
1, 513633, Tempo, 329345
1, 513681, Tempo, 330396
1, 513720, Note_on_c, 0, 55, 0
1, 513720, Note_on_c, 0, 53, 59
1, 513729, Tempo, 331437
1, 513777, Tempo, 332484
1, 513825, Tempo, 333537
1, 513840, Note_on_c, 0, 53, 0
1, 513840, Note_on_c, 0, 43, 0
1, 513840, Note_on_c, 0, 52, 55
1, 513840, Note_on_c, 0, 50, 46
1, 513873, Tempo, 334597
1, 513921, Tempo, 335664
1, 513960, Note_on_c, 0, 52, 0
1, 513960, Note_on_c, 0, 53, 57
1, 513969, Tempo, 336738
1, 514017, Tempo, 337819
1, 514080, Tempo, 332484
1, 514080, Note_on_c, 0, 53, 0
1, 514080, Note_on_c, 0, 50, 0
1, 514080, Note_on_c, 0, 51, 74
1, 514080, Note_on_c, 0, 36, 64
1, 514080, Note_on_c, 0, 48, 64
1, 514134, Control_c, 0, 64, 0
1, 514320, Tempo, 329670
1, 514320, Note_on_c, 0, 51, 0
1, 514320, Note_on_c, 0, 55, 60
1, 514363, Control_c, 0, 64, 127
1, 514560, Note_on_c, 0, 55, 0
1, 514560, Note_on_c, 0, 48, 0
1, 514560, Note_on_c, 0, 36, 0
1, 514560, Note_on_c, 0, 60, 68
1, 514800, Note_on_c, 0, 60, 0
1, 514800, Note_on_c, 0, 55, 61
1, 515040, Note_on_c, 0, 55, 0
1, 515040, Note_on_c, 0, 60, 69
1, 515280, Note_on_c, 0, 60, 0
1, 515280, Note_on_c, 0, 63, 63
1, 515520, Tempo, 326087
1, 515520, Note_on_c, 0, 63, 0
1, 515520, Note_on_c, 0, 67, 69
1, 515760, Note_on_c, 0, 67, 0
1, 515760, Note_on_c, 0, 63, 60
1, 516000, Note_on_c, 0, 63, 0
1, 516000, Note_on_c, 0, 67, 73
1, 516240, Note_on_c, 0, 67, 0
1, 516240, Note_on_c, 0, 72, 68
1, 516480, Note_on_c, 0, 72, 0
1, 516480, Note_on_c, 0, 75, 80
1, 516720, Note_on_c, 0, 75, 0
1, 516720, Note_on_c, 0, 79, 73
1, 516960, Tempo, 333537
1, 516960, Note_on_c, 0, 79, 0
1, 516960, Note_on_c, 0, 84, 89
1, 516960, Note_on_c, 0, 39, 67
1, 516960, Control_c, 0, 64, 0
1, 517059, Control_c, 0, 64, 127
1, 517200, Tempo, 330396
1, 517200, Note_on_c, 0, 39, 0
1, 517200, Note_on_c, 0, 84, 0
1, 517200, Note_on_c, 0, 48, 45
1, 517440, Note_on_c, 0, 48, 0
1, 517440, Note_on_c, 0, 41, 50
1, 517452, Control_c, 0, 64, 0
1, 517610, Control_c, 0, 64, 127
1, 517680, Note_on_c, 0, 41, 0
1, 517680, Note_on_c, 0, 48, 47
1, 517920, Tempo, 334597
1, 517920, Note_on_c, 0, 48, 0
1, 517920, Note_on_c, 0, 60, 84
1, 517920, Note_on_c, 0, 43, 56
1, 517936, Control_c, 0, 64, 0
1, 518061, Control_c, 0, 64, 127
1, 518160, Tempo, 344471
1, 518160, Note_on_c, 0, 43, 0
1, 518160, Note_on_c, 0, 48, 50
1, 518400, Tempo, 333537
1, 518400, Note_on_c, 0, 48, 0
1, 518400, Note_on_c, 0, 40, 67
1, 518499, Control_c, 0, 64, 127
1, 518640, Tempo, 330396
1, 518640, Note_on_c, 0, 40, 0
1, 518640, Note_on_c, 0, 48, 45
1, 518880, Note_on_c, 0, 48, 0
1, 518880, Note_on_c, 0, 41, 61
1, 518892, Control_c, 0, 64, 0
1, 519050, Control_c, 0, 64, 127
1, 519120, Note_on_c, 0, 41, 0
1, 519120, Note_on_c, 0, 48, 47
1, 519360, Tempo, 334597
1, 519360, Note_on_c, 0, 48, 0
1, 519360, Note_on_c, 0, 60, 0
1, 519360, Note_on_c, 0, 52, 81
1, 519360, Note_on_c, 0, 43, 60
1, 519376, Control_c, 0, 64, 0
1, 519501, Control_c, 0, 64, 127
1, 519600, Tempo, 344471
1, 519600, Note_on_c, 0, 43, 0
1, 519600, Note_on_c, 0, 48, 44
1, 519840, Tempo, 334597
1, 519840, Note_on_c, 0, 48, 0
1, 519840, Note_on_c, 0, 52, 0
1, 519840, Note_on_c, 0, 53, 84
1, 519840, Note_on_c, 0, 41, 65
1, 519840, Control_c, 0, 64, 0
1, 520024, Control_c, 0, 64, 127
1, 520080, Note_on_c, 0, 41, 0
1, 520080, Note_on_c, 0, 48, 45
1, 520320, Tempo, 328767
1, 520320, Note_on_c, 0, 48, 0
1, 520320, Note_on_c, 0, 43, 57
1, 520330, Control_c, 0, 64, 0
1, 520461, Control_c, 0, 64, 127
1, 520560, Note_on_c, 0, 43, 0
1, 520560, Note_on_c, 0, 48, 42
1, 520800, Note_on_c, 0, 48, 0
1, 520800, Note_on_c, 0, 53, 0
1, 520800, Note_on_c, 0, 60, 84
1, 520800, Note_on_c, 0, 44, 58
1, 520810, Control_c, 0, 64, 0
1, 520927, Control_c, 0, 64, 127
1, 521040, Tempo, 344471
1, 521040, Note_on_c, 0, 44, 0
1, 521040, Note_on_c, 0, 48, 45
1, 521280, Tempo, 332484
1, 521280, Note_on_c, 0, 48, 0
1, 521280, Note_on_c, 0, 60, 0
1, 521280, Note_on_c, 0, 54, 92
1, 521280, Note_on_c, 0, 42, 67
1, 521280, Control_c, 0, 64, 0
1, 521383, Control_c, 0, 64, 127
1, 521520, Note_on_c, 0, 42, 0
1, 521520, Note_on_c, 0, 48, 51
1, 521760, Tempo, 328767
1, 521760, Note_on_c, 0, 48, 0
1, 521760, Note_on_c, 0, 43, 58
1, 521773, Control_c, 0, 64, 0
1, 521920, Control_c, 0, 64, 127
1, 522000, Note_on_c, 0, 43, 0
1, 522000, Note_on_c, 0, 48, 47
1, 522240, Note_on_c, 0, 48, 0
1, 522240, Note_on_c, 0, 54, 0
1, 522240, Note_on_c, 0, 60, 84
1, 522240, Note_on_c, 0, 45, 58
1, 522253, Control_c, 0, 64, 0
1, 522355, Control_c, 0, 64, 127
1, 522480, Tempo, 342231
1, 522480, Note_on_c, 0, 45, 0
1, 522480, Note_on_c, 0, 48, 44
1, 522720, Tempo, 332484
1, 522720, Note_on_c, 0, 48, 0
1, 522720, Note_on_c, 0, 60, 0
1, 522720, Note_on_c, 0, 55, 88
1, 522720, Note_on_c, 0, 43, 67
1, 522720, Control_c, 0, 64, 0
1, 522823, Control_c, 0, 64, 127
1, 522960, Tempo, 325203
1, 522960, Note_on_c, 0, 43, 0
1, 522960, Note_on_c, 0, 55, 0
1, 522960, Note_on_c, 0, 60, 62
1, 522960, Note_on_c, 0, 48, 51
1, 523200, Note_on_c, 0, 48, 0
1, 523200, Note_on_c, 0, 60, 0
1, 523200, Note_on_c, 0, 59, 74
1, 523200, Note_on_c, 0, 47, 57
1, 523213, Control_c, 0, 64, 0
1, 523360, Control_c, 0, 64, 127
1, 523440, Note_on_c, 0, 47, 0
1, 523440, Note_on_c, 0, 59, 0
1, 523440, Note_on_c, 0, 60, 62
1, 523440, Note_on_c, 0, 48, 48
1, 523680, Note_on_c, 0, 48, 0
1, 523680, Note_on_c, 0, 60, 0
1, 523680, Note_on_c, 0, 55, 72
1, 523680, Note_on_c, 0, 43, 61
1, 523693, Control_c, 0, 64, 0
1, 523795, Control_c, 0, 64, 127
1, 523920, Tempo, 342231
1, 523920, Note_on_c, 0, 43, 0
1, 523920, Note_on_c, 0, 55, 0
1, 523920, Note_on_c, 0, 60, 62
1, 523920, Note_on_c, 0, 48, 50
1, 524160, Tempo, 332484
1, 524160, Note_on_c, 0, 48, 0
1, 524160, Note_on_c, 0, 60, 0
1, 524160, Note_on_c, 0, 56, 82
1, 524160, Note_on_c, 0, 44, 71
1, 524160, Control_c, 0, 64, 0
1, 524263, Control_c, 0, 64, 127
1, 524400, Tempo, 324324
1, 524400, Note_on_c, 0, 44, 0
1, 524400, Note_on_c, 0, 56, 0
1, 524400, Note_on_c, 0, 60, 62
1, 524400, Note_on_c, 0, 48, 56
1, 524640, Note_on_c, 0, 48, 0
1, 524640, Note_on_c, 0, 60, 0
1, 524640, Note_on_c, 0, 59, 73
1, 524640, Note_on_c, 0, 47, 64
1, 524653, Control_c, 0, 64, 0
1, 524800, Control_c, 0, 64, 127
1, 524880, Note_on_c, 0, 47, 0
1, 524880, Note_on_c, 0, 59, 0
1, 524880, Note_on_c, 0, 60, 64
1, 524880, Note_on_c, 0, 48, 55
1, 525120, Note_on_c, 0, 48, 0
1, 525120, Note_on_c, 0, 60, 0
1, 525120, Note_on_c, 0, 54, 73
1, 525120, Note_on_c, 0, 42, 65
1, 525133, Control_c, 0, 64, 0
1, 525235, Control_c, 0, 64, 127
1, 525360, Tempo, 342231
1, 525360, Note_on_c, 0, 42, 0
1, 525360, Note_on_c, 0, 54, 0
1, 525360, Note_on_c, 0, 60, 62
1, 525360, Note_on_c, 0, 48, 54
1, 525600, Tempo, 332484
1, 525600, Note_on_c, 0, 48, 0
1, 525600, Note_on_c, 0, 60, 0
1, 525600, Note_on_c, 0, 55, 88
1, 525600, Note_on_c, 0, 43, 77
1, 525600, Control_c, 0, 64, 0
1, 525703, Control_c, 0, 64, 127
1, 525840, Tempo, 323450
1, 525840, Note_on_c, 0, 43, 0
1, 525840, Note_on_c, 0, 55, 0
1, 525840, Note_on_c, 0, 60, 63
1, 525840, Note_on_c, 0, 48, 58
1, 526080, Note_on_c, 0, 48, 0
1, 526080, Note_on_c, 0, 60, 0
1, 526080, Note_on_c, 0, 59, 73
1, 526080, Note_on_c, 0, 47, 68
1, 526093, Control_c, 0, 64, 0
1, 526240, Control_c, 0, 64, 127
1, 526320, Note_on_c, 0, 47, 0
1, 526320, Note_on_c, 0, 59, 0
1, 526320, Note_on_c, 0, 60, 62
1, 526320, Note_on_c, 0, 48, 54
1, 526560, Note_on_c, 0, 48, 0
1, 526560, Note_on_c, 0, 60, 0
1, 526560, Note_on_c, 0, 52, 74
1, 526560, Note_on_c, 0, 40, 65
1, 526573, Control_c, 0, 64, 0
1, 526675, Control_c, 0, 64, 127
1, 526800, Tempo, 342231
1, 526800, Note_on_c, 0, 40, 0
1, 526800, Note_on_c, 0, 52, 0
1, 526800, Note_on_c, 0, 60, 65
1, 526800, Note_on_c, 0, 48, 50
1, 527040, Tempo, 332484
1, 527040, Note_on_c, 0, 48, 0
1, 527040, Note_on_c, 0, 60, 0
1, 527040, Note_on_c, 0, 53, 88
1, 527040, Note_on_c, 0, 41, 77
1, 527040, Control_c, 0, 64, 0
1, 527143, Control_c, 0, 64, 127
1, 527280, Tempo, 323450
1, 527280, Note_on_c, 0, 41, 0
1, 527280, Note_on_c, 0, 53, 0
1, 527280, Note_on_c, 0, 60, 64
1, 527280, Note_on_c, 0, 48, 51
1, 527520, Note_on_c, 0, 48, 0
1, 527520, Note_on_c, 0, 60, 0
1, 527520, Note_on_c, 0, 56, 71
1, 527520, Note_on_c, 0, 44, 63
1, 527533, Control_c, 0, 64, 0
1, 527680, Control_c, 0, 64, 127
1, 527760, Note_on_c, 0, 44, 0
1, 527760, Note_on_c, 0, 56, 0
1, 527760, Note_on_c, 0, 60, 65
1, 527760, Note_on_c, 0, 48, 58
1, 528000, Note_on_c, 0, 48, 0
1, 528000, Note_on_c, 0, 60, 0
1, 528000, Note_on_c, 0, 54, 80
1, 528000, Note_on_c, 0, 42, 71
1, 528013, Control_c, 0, 64, 0
1, 528115, Control_c, 0, 64, 127
1, 528240, Tempo, 342231
1, 528240, Note_on_c, 0, 42, 0
1, 528240, Note_on_c, 0, 54, 0
1, 528240, Note_on_c, 0, 60, 72
1, 528240, Note_on_c, 0, 48, 65
1, 528480, Note_on_c, 0, 48, 0
1, 528480, Note_on_c, 0, 60, 0
1, 528480, Note_on_c, 0, 55, 93
1, 528480, Note_on_c, 0, 43, 82
1, 528480, Control_c, 0, 64, 0
1, 528960, Note_on_c, 0, 43, 0
1, 528960, Note_on_c, 0, 55, 0
1, 528960, Note_on_c, 0, 55, 77
1, 528960, Note_on_c, 0, 60, 77
1, 528960, Note_on_c, 0, 63, 87
1, 529080, Note_on_c, 0, 63, 0
1, 529080, Note_on_c, 0, 60, 0
1, 529080, Note_on_c, 0, 55, 0
1, 529320, Note_on_c, 0, 67, 81
1, 529340, Control_c, 0, 64, 127
1, 529440, Tempo, 327869
1, 529440, Note_on_c, 0, 67, 0
1, 529440, Note_on_c, 0, 75, 87
1, 529800, Tempo, 354946
1, 529800, Note_on_c, 0, 75, 0
1, 529800, Note_on_c, 0, 72, 84
1, 529920, Tempo, 338906
1, 529920, Note_on_c, 0, 72, 0
1, 529920, Note_on_c, 0, 78, 93
1, 529920, Control_c, 0, 64, 0
1, 530040, Note_on_c, 0, 78, 0
1, 530400, Tempo, 342231
1, 530400, Note_on_c, 0, 60, 77
1, 530400, Note_on_c, 0, 56, 77
1, 530400, Note_on_c, 0, 63, 87
1, 530520, Note_on_c, 0, 63, 0
1, 530520, Note_on_c, 0, 56, 0
1, 530520, Note_on_c, 0, 60, 0
1, 530760, Note_on_c, 0, 66, 81
1, 530780, Control_c, 0, 64, 127
1, 530880, Tempo, 328767
1, 530880, Note_on_c, 0, 66, 0
1, 530880, Note_on_c, 0, 75, 87
1, 531240, Tempo, 354946
1, 531240, Note_on_c, 0, 75, 0
1, 531240, Note_on_c, 0, 72, 84
1, 531360, Tempo, 338906
1, 531360, Note_on_c, 0, 72, 0
1, 531360, Note_on_c, 0, 79, 93
1, 531360, Control_c, 0, 64, 0
1, 531480, Note_on_c, 0, 79, 0
1, 531840, Tempo, 342231
1, 531840, Note_on_c, 0, 63, 87
1, 531840, Note_on_c, 0, 55, 77
1, 531840, Note_on_c, 0, 60, 77
1, 531960, Note_on_c, 0, 60, 0
1, 531960, Note_on_c, 0, 55, 0
1, 531960, Note_on_c, 0, 63, 0
1, 532200, Note_on_c, 0, 67, 81
1, 532220, Control_c, 0, 64, 127
1, 532320, Tempo, 327869
1, 532320, Note_on_c, 0, 67, 0
1, 532320, Note_on_c, 0, 75, 87
1, 532680, Tempo, 354946
1, 532680, Note_on_c, 0, 75, 0
1, 532680, Note_on_c, 0, 72, 84
1, 532800, Tempo, 338906
1, 532800, Note_on_c, 0, 72, 0
1, 532800, Note_on_c, 0, 81, 93
1, 532800, Control_c, 0, 64, 0
1, 532920, Note_on_c, 0, 81, 0
1, 533280, Tempo, 342231
1, 533280, Note_on_c, 0, 63, 87
1, 533280, Note_on_c, 0, 60, 77
1, 533280, Note_on_c, 0, 54, 77
1, 533400, Note_on_c, 0, 54, 0
1, 533400, Note_on_c, 0, 60, 0
1, 533400, Note_on_c, 0, 63, 0
1, 533640, Note_on_c, 0, 69, 81
1, 533660, Control_c, 0, 64, 127
1, 533760, Tempo, 330579
1, 533760, Note_on_c, 0, 69, 0
1, 533760, Note_on_c, 0, 75, 87
1, 534120, Tempo, 354946
1, 534120, Note_on_c, 0, 75, 0
1, 534120, Note_on_c, 0, 72, 84
1, 534240, Tempo, 338906
1, 534240, Note_on_c, 0, 72, 0
1, 534240, Note_on_c, 0, 79, 95
1, 534240, Control_c, 0, 64, 0
1, 534720, Note_on_c, 0, 55, 77
1, 534720, Note_on_c, 0, 63, 87
1, 534720, Note_on_c, 0, 60, 77
1, 534840, Note_on_c, 0, 60, 0
1, 534840, Note_on_c, 0, 63, 0
1, 534840, Note_on_c, 0, 55, 0
1, 534960, Note_on_c, 0, 79, 0
1, 534960, Note_on_c, 0, 75, 85
1, 535200, Tempo, 332484
1, 535200, Note_on_c, 0, 75, 0
1, 535200, Note_on_c, 0, 75, 93
1, 535200, Control_c, 0, 64, 127
1, 535440, Note_on_c, 0, 75, 0
1, 535440, Note_on_c, 0, 72, 79
1, 535620, Note_on_c, 0, 72, 0
1, 535680, Tempo, 332484
1, 535680, Note_on_c, 0, 72, 88
1, 535920, Note_on_c, 0, 72, 0
1, 535920, Note_on_c, 0, 67, 78
1, 536100, Note_on_c, 0, 67, 0
1, 536160, Tempo, 327869
1, 536160, Note_on_c, 0, 67, 85
1, 536400, Tempo, 335664
1, 536400, Note_on_c, 0, 67, 0
1, 536400, Note_on_c, 0, 63, 77
1, 536580, Note_on_c, 0, 63, 0
1, 536640, Tempo, 326975
1, 536640, Note_on_c, 0, 63, 81
1, 536880, Tempo, 336738
1, 536880, Note_on_c, 0, 63, 0
1, 536880, Note_on_c, 0, 60, 77
1, 537060, Note_on_c, 0, 60, 0
1, 537120, Tempo, 327869
1, 537120, Note_on_c, 0, 60, 81
1, 537360, Tempo, 337819
1, 537360, Note_on_c, 0, 60, 0
1, 537360, Note_on_c, 0, 55, 77
1, 537540, Note_on_c, 0, 55, 0
1, 537600, Tempo, 331437
1, 537600, Note_on_c, 0, 55, 82
1, 537840, Tempo, 341122
1, 537840, Note_on_c, 0, 55, 0
1, 537840, Note_on_c, 0, 51, 77
1, 538020, Note_on_c, 0, 51, 0
1, 538080, Tempo, 332484
1, 538080, Note_on_c, 0, 51, 83
1, 538320, Tempo, 394971
1, 538320, Note_on_c, 0, 51, 0
1, 538320, Note_on_c, 0, 48, 77
1, 538500, Note_on_c, 0, 48, 0
1, 538560, Tempo, 352568
1, 538560, Note_on_c, 0, 43, 92
1, 538560, Note_on_c, 0, 31, 78
1, 538560, Control_c, 0, 64, 0
1, 539520, Tempo, 359799
1, 539520, Note_on_c, 0, 55, 66
1, 539520, Note_on_c, 0, 59, 78
1, 539520, Note_on_c, 0, 53, 70
1, 539520, Note_on_c, 0, 50, 59
1, 540000, Note_on_c, 0, 50, 0
1, 540000, Note_on_c, 0, 31, 0
1, 540000, Note_on_c, 0, 55, 0
1, 540000, Note_on_c, 0, 43, 0
1, 540000, Note_on_c, 0, 53, 0
1, 540000, Note_on_c, 0, 59, 0
1, 540000, Note_on_c, 0, 55, 70
1, 540000, Note_on_c, 0, 60, 83
1, 540000, Note_on_c, 0, 51, 79
1, 540000, Note_on_c, 0, 36, 67
1, 540480, Tempo, 346741
1, 540480, Note_on_c, 0, 36, 0
1, 540480, Note_on_c, 0, 55, 0
1, 540480, Note_on_c, 0, 60, 0
1, 540480, Note_on_c, 0, 51, 0
1, 540480, Note_on_c, 0, 43, 51
1, 540960, Note_on_c, 0, 42, 51
1, 541440, Tempo, 356146
1, 541440, Note_on_c, 0, 42, 0
1, 541440, Note_on_c, 0, 41, 51
1, 541920, Tempo, 346741
1, 541920, Note_on_c, 0, 41, 0
1, 541920, Note_on_c, 0, 67, 53
1, 541920, Note_on_c, 0, 62, 42
1, 541920, Note_on_c, 0, 65, 42
1, 541920, Note_on_c, 0, 59, 42
1, 541920, Note_on_c, 0, 39, 49
1, 542400, Tempo, 352568
1, 542400, Note_on_c, 0, 39, 0
1, 542400, Note_on_c, 0, 67, 0
1, 542400, Note_on_c, 0, 62, 0
1, 542400, Note_on_c, 0, 65, 0
1, 542400, Note_on_c, 0, 59, 0
1, 542400, Note_on_c, 0, 59, 38
1, 542400, Note_on_c, 0, 62, 38
1, 542400, Note_on_c, 0, 65, 38
1, 542400, Note_on_c, 0, 67, 48
1, 542400, Note_on_c, 0, 38, 49
1, 542880, Tempo, 347887
1, 542880, Note_on_c, 0, 38, 0
1, 542880, Note_on_c, 0, 59, 0
1, 542880, Note_on_c, 0, 62, 0
1, 542880, Note_on_c, 0, 43, 0
1, 542880, Note_on_c, 0, 67, 0
1, 542880, Note_on_c, 0, 65, 0
1, 542880, Note_on_c, 0, 60, 42
1, 542880, Note_on_c, 0, 63, 42
1, 542880, Note_on_c, 0, 68, 53
1, 542880, Note_on_c, 0, 36, 51
1, 543067, Control_c, 0, 64, 127
1, 543360, Note_on_c, 0, 36, 0
1, 543360, Note_on_c, 0, 68, 0
1, 543360, Note_on_c, 0, 67, 49
1, 543360, Note_on_c, 0, 39, 47
1, 543375, Control_c, 0, 64, 0
1, 543840, Note_on_c, 0, 39, 0
1, 543840, Note_on_c, 0, 60, 0
1, 543840, Note_on_c, 0, 63, 0
1, 543840, Note_on_c, 0, 67, 0
1, 543840, Note_on_c, 0, 43, 47
1, 544320, Tempo, 359799
1, 544320, Note_on_c, 0, 43, 0
1, 544320, Note_on_c, 0, 31, 51
1, 544800, Tempo, 346741
1, 544800, Note_on_c, 0, 31, 0
1, 544800, Note_on_c, 0, 62, 42
1, 544800, Note_on_c, 0, 65, 42
1, 544800, Note_on_c, 0, 71, 53
1, 544800, Note_on_c, 0, 38, 48
1, 544960, Control_c, 0, 64, 127
1, 545280, Tempo, 352568
1, 545280, Note_on_c, 0, 38, 0
1, 545280, Note_on_c, 0, 62, 0
1, 545280, Note_on_c, 0, 65, 0
1, 545280, Note_on_c, 0, 71, 0
1, 545280, Note_on_c, 0, 62, 38
1, 545280, Note_on_c, 0, 65, 38
1, 545280, Note_on_c, 0, 71, 48
1, 545280, Note_on_c, 0, 43, 48
1, 545760, Tempo, 346741
1, 545760, Note_on_c, 0, 43, 0
1, 545760, Note_on_c, 0, 62, 0
1, 545760, Note_on_c, 0, 65, 0
1, 545760, Note_on_c, 0, 71, 0
1, 545760, Note_on_c, 0, 63, 42
1, 545760, Note_on_c, 0, 67, 42
1, 545760, Note_on_c, 0, 74, 53
1, 545760, Note_on_c, 0, 36, 67
1, 545760, Control_c, 0, 64, 0
1, 546103, Control_c, 0, 64, 127
1, 546240, Tempo, 346741
1, 546240, Note_on_c, 0, 36, 0
1, 546240, Note_on_c, 0, 74, 0
1, 546240, Note_on_c, 0, 72, 49
1, 546240, Note_on_c, 0, 43, 51
1, 546260, Control_c, 0, 64, 0
1, 546720, Note_on_c, 0, 72, 0
1, 546720, Note_on_c, 0, 63, 0
1, 546720, Note_on_c, 0, 67, 0
1, 546720, Note_on_c, 0, 42, 51
1, 547200, Tempo, 356146
1, 547200, Note_on_c, 0, 42, 0
1, 547200, Note_on_c, 0, 41, 51
1, 547680, Tempo, 346741
1, 547680, Note_on_c, 0, 41, 0
1, 547680, Note_on_c, 0, 59, 42
1, 547680, Note_on_c, 0, 62, 42
1, 547680, Note_on_c, 0, 65, 42
1, 547680, Note_on_c, 0, 67, 53
1, 547680, Note_on_c, 0, 39, 49
1, 548160, Tempo, 352568
1, 548160, Note_on_c, 0, 39, 0
1, 548160, Note_on_c, 0, 59, 0
1, 548160, Note_on_c, 0, 62, 0
1, 548160, Note_on_c, 0, 65, 0
1, 548160, Note_on_c, 0, 67, 0
1, 548160, Note_on_c, 0, 67, 48
1, 548160, Note_on_c, 0, 62, 38
1, 548160, Note_on_c, 0, 65, 38
1, 548160, Note_on_c, 0, 59, 38
1, 548160, Note_on_c, 0, 38, 49
1, 548640, Tempo, 347887
1, 548640, Note_on_c, 0, 38, 0
1, 548640, Note_on_c, 0, 67, 0
1, 548640, Note_on_c, 0, 62, 0
1, 548640, Note_on_c, 0, 43, 0
1, 548640, Note_on_c, 0, 59, 0
1, 548640, Note_on_c, 0, 65, 0
1, 548640, Note_on_c, 0, 60, 42
1, 548640, Note_on_c, 0, 63, 42
1, 548640, Note_on_c, 0, 68, 53
1, 548640, Note_on_c, 0, 36, 51
1, 548880, Control_c, 0, 64, 127
1, 549120, Note_on_c, 0, 36, 0
1, 549120, Note_on_c, 0, 68, 0
1, 549120, Note_on_c, 0, 67, 49
1, 549120, Note_on_c, 0, 39, 47
1, 549140, Control_c, 0, 64, 0
1, 549600, Note_on_c, 0, 39, 0
1, 549600, Note_on_c, 0, 60, 0
1, 549600, Note_on_c, 0, 63, 0
1, 549600, Note_on_c, 0, 67, 0
1, 549600, Note_on_c, 0, 43, 47
1, 550080, Tempo, 359799
1, 550080, Note_on_c, 0, 43, 0
1, 550080, Note_on_c, 0, 31, 51
1, 550560, Tempo, 346741
1, 550560, Note_on_c, 0, 31, 0
1, 550560, Note_on_c, 0, 50, 42
1, 550560, Note_on_c, 0, 53, 42
1, 550560, Note_on_c, 0, 59, 53
1, 550560, Note_on_c, 0, 38, 48
1, 550774, Control_c, 0, 64, 127
1, 551040, Tempo, 352568
1, 551040, Note_on_c, 0, 38, 0
1, 551040, Note_on_c, 0, 50, 0
1, 551040, Note_on_c, 0, 53, 0
1, 551040, Note_on_c, 0, 59, 0
1, 551040, Note_on_c, 0, 50, 38
1, 551040, Note_on_c, 0, 53, 38
1, 551040, Note_on_c, 0, 59, 48
1, 551040, Note_on_c, 0, 43, 48
1, 551520, Tempo, 346741
1, 551520, Note_on_c, 0, 43, 0
1, 551520, Note_on_c, 0, 50, 0
1, 551520, Note_on_c, 0, 53, 0
1, 551520, Note_on_c, 0, 59, 0
1, 551520, Note_on_c, 0, 51, 42
1, 551520, Note_on_c, 0, 55, 42
1, 551520, Note_on_c, 0, 62, 53
1, 551520, Note_on_c, 0, 36, 51
1, 551520, Control_c, 0, 64, 0
1, 551760, Control_c, 0, 64, 127
1, 552000, Note_on_c, 0, 36, 0
1, 552000, Note_on_c, 0, 62, 0
1, 552000, Note_on_c, 0, 60, 49
1, 552000, Note_on_c, 0, 39, 47
1, 552020, Control_c, 0, 64, 0
1, 552480, Note_on_c, 0, 39, 0
1, 552480, Note_on_c, 0, 51, 0
1, 552480, Note_on_c, 0, 55, 0
1, 552480, Note_on_c, 0, 60, 0
1, 552480, Note_on_c, 0, 43, 47
1, 552960, Tempo, 359799
1, 552960, Note_on_c, 0, 43, 0
1, 552960, Note_on_c, 0, 31, 51
1, 553440, Tempo, 346741
1, 553440, Note_on_c, 0, 31, 0
1, 553440, Note_on_c, 0, 50, 42
1, 553440, Note_on_c, 0, 53, 42
1, 553440, Note_on_c, 0, 59, 53
1, 553440, Note_on_c, 0, 38, 48
1, 553520, Control_c, 0, 64, 127
1, 553920, Tempo, 375235
1, 553920, Note_on_c, 0, 38, 0
1, 553920, Note_on_c, 0, 50, 0
1, 553920, Note_on_c, 0, 53, 0
1, 553920, Note_on_c, 0, 59, 0
1, 553920, Note_on_c, 0, 50, 38
1, 553920, Note_on_c, 0, 53, 38
1, 553920, Note_on_c, 0, 59, 48
1, 553920, Note_on_c, 0, 43, 48
1, 554400, Tempo, 361054
1, 554400, Note_on_c, 0, 43, 0
1, 554400, Note_on_c, 0, 50, 0
1, 554400, Note_on_c, 0, 53, 0
1, 554400, Note_on_c, 0, 59, 0
1, 554400, Note_on_c, 0, 51, 42
1, 554400, Note_on_c, 0, 55, 42
1, 554400, Note_on_c, 0, 60, 53
1, 554400, Note_on_c, 0, 36, 51
1, 554400, Control_c, 0, 64, 0
1, 554774, Control_c, 0, 64, 127
1, 554880, Tempo, 384837
1, 554880, Note_on_c, 0, 36, 0
1, 554880, Note_on_c, 0, 51, 0
1, 554880, Note_on_c, 0, 55, 0
1, 554880, Note_on_c, 0, 60, 0
1, 555227, Control_c, 0, 64, 0
1, 555360, Tempo, 402522
1, 555840, Note_on_c, 0, 67, 82
1, 555840, Note_on_c, 0, 71, 82
1, 555840, Note_on_c, 0, 74, 82
1, 555840, Note_on_c, 0, 79, 97
1, 555840, Note_on_c, 0, 31, 60
1, 555840, Note_on_c, 0, 35, 60
1, 555840, Note_on_c, 0, 38, 60
1, 555840, Note_on_c, 0, 43, 71
1, 555863, Control_c, 0, 64, 127
1, 556320, Tempo, 431468
1, 556320, Note_on_c, 0, 43, 0
1, 556320, Note_on_c, 0, 67, 0
1, 556320, Note_on_c, 0, 31, 0
1, 556320, Note_on_c, 0, 71, 0
1, 556320, Note_on_c, 0, 74, 0
1, 556320, Note_on_c, 0, 79, 0
1, 556320, Note_on_c, 0, 35, 0
1, 556320, Note_on_c, 0, 38, 0
1, 556480, Control_c, 0, 64, 0
1, 557280, Note_on_c, 0, 60, 82
1, 557280, Note_on_c, 0, 63, 82
1, 557280, Note_on_c, 0, 67, 82
1, 557280, Note_on_c, 0, 72, 97
1, 557280, Note_on_c, 0, 36, 60
1, 557280, Note_on_c, 0, 39, 60
1, 557280, Note_on_c, 0, 43, 60
1, 557280, Note_on_c, 0, 48, 71
1, 557440, Control_c, 0, 64, 127
1, 557760, Note_on_c, 0, 48, 0
1, 557760, Note_on_c, 0, 60, 0
1, 557760, Note_on_c, 0, 36, 0
1, 557760, Note_on_c, 0, 63, 0
1, 557760, Note_on_c, 0, 67, 0
1, 557760, Note_on_c, 0, 72, 0
1, 557760, Note_on_c, 0, 39, 0
1, 557760, Note_on_c, 0, 43, 0
1, 557966, Control_c, 0, 64, 0
1, 557966, End_track
0, 0, End_of_file
