0, 0, Header, 0, 1, 480
1, 0, Start_track
1, 0, Title_t, "Für Elise"
1, 0, Copyright_t, "Copyright © 2004 by Bernd Krueger"
1, 0, Text_t, "Ludwig van Beethoven"
1, 0, Text_t, "Poco moto"
1, 0, Text_t, "Fertiggestellt am 9.10.2004\012"
1, 0, Text_t, "Update am 30.8.2012\012"
1, 0, Text_t, "Dauer: 2:48 Minuten\012"
1, 0, SMPTE_offset, 96, 0, 3, 0, 0
1, 0, Time_signature, 3, 3, 12, 8
1, 0, Key_signature, 0, "major"
1, 0, Tempo, 867303
1, 0, Program_c, 0, 0
1, 0, Control_c, 0, 7, 100
1, 0, Control_c, 0, 10, 64
1, 0, Control_c, 0, 91, 127
1, 0, Text_t, "bdca426d104a26ac9dcb070447587523"
1, 0, Program_c, 0, 0
1, 0, Control_c, 0, 7, 100
1, 0, Control_c, 0, 10, 64
1, 460, Tempo, 861203
1, 480, Tempo, 887574
1, 480, Note_on_c, 0, 76, 36
1, 520, Tempo, 881187
1, 560, Tempo, 874763
1, 600, Tempo, 868558
1, 600, Note_on_c, 0, 76, 0
1, 600, Note_on_c, 0, 75, 33
1, 640, Tempo, 862441
1, 680, Tempo, 856287
1, 720, Tempo, 856287
1, 720, Note_on_c, 0, 75, 0
1, 720, Note_on_c, 0, 76, 39
1, 824, Tempo, 850340
1, 840, Note_on_c, 0, 76, 0
1, 840, Note_on_c, 0, 75, 36
1, 920, Tempo, 844476
1, 932, Tempo, 827130
1, 960, Tempo, 837287
1, 960, Note_on_c, 0, 75, 0
1, 960, Note_on_c, 0, 76, 45
1, 980, Tempo, 843289
1, 1000, Tempo, 849137
1, 1020, Tempo, 854944
1, 1040, Tempo, 861203
1, 1080, Tempo, 861203
1, 1080, Note_on_c, 0, 76, 0
1, 1080, Note_on_c, 0, 71, 40
1, 1200, Note_on_c, 0, 71, 0
1, 1200, Note_on_c, 0, 74, 47
1, 1320, Tempo, 956175
1, 1320, Note_on_c, 0, 74, 0
1, 1320, Note_on_c, 0, 72, 39
1, 1440, Tempo, 867303
1, 1440, Note_on_c, 0, 72, 0
1, 1440, Note_on_c, 0, 69, 51
1, 1440, Note_on_c, 0, 45, 37
1, 1476, Control_c, 0, 64, 127
1, 1560, Note_on_c, 0, 45, 0
1, 1560, Note_on_c, 0, 52, 33
1, 1680, Note_on_c, 0, 52, 0
1, 1680, Note_on_c, 0, 69, 0
1, 1680, Note_on_c, 0, 57, 33
1, 1800, Tempo, 837287
1, 1800, Note_on_c, 0, 57, 0
1, 1800, Note_on_c, 0, 60, 34
1, 1920, Note_on_c, 0, 60, 0
1, 1920, Note_on_c, 0, 64, 38
1, 2040, Tempo, 926927
1, 2040, Note_on_c, 0, 64, 0
1, 2040, Note_on_c, 0, 69, 42
1, 2160, Tempo, 867303
1, 2160, Note_on_c, 0, 69, 0
1, 2160, Note_on_c, 0, 71, 46
1, 2160, Note_on_c, 0, 40, 40
1, 2179, Control_c, 0, 64, 0
1, 2217, Control_c, 0, 64, 127
1, 2280, Note_on_c, 0, 40, 0
1, 2280, Note_on_c, 0, 52, 33
1, 2400, Tempo, 843289
1, 2400, Note_on_c, 0, 52, 0
1, 2400, Note_on_c, 0, 71, 0
1, 2400, Note_on_c, 0, 56, 34
1, 2520, Note_on_c, 0, 56, 0
1, 2520, Note_on_c, 0, 64, 36
1, 2640, Note_on_c, 0, 64, 0
1, 2640, Note_on_c, 0, 68, 39
1, 2760, Tempo, 956175
1, 2760, Note_on_c, 0, 68, 0
1, 2760, Note_on_c, 0, 71, 42
1, 2880, Tempo, 867303
1, 2880, Note_on_c, 0, 71, 0
1, 2880, Note_on_c, 0, 72, 45
1, 2880, Note_on_c, 0, 45, 38
1, 2886, Control_c, 0, 64, 0
1, 2931, Control_c, 0, 64, 127
1, 3000, Note_on_c, 0, 45, 0
1, 3000, Note_on_c, 0, 52, 35
1, 3120, Note_on_c, 0, 52, 0
1, 3120, Note_on_c, 0, 72, 0
1, 3120, Note_on_c, 0, 57, 35
1, 3240, Note_on_c, 0, 57, 0
1, 3240, Note_on_c, 0, 64, 35
1, 3274, Control_c, 0, 64, 0
1, 3360, Tempo, 868558
1, 3360, Note_on_c, 0, 64, 0
1, 3360, Note_on_c, 0, 76, 38
1, 3424, Tempo, 862441
1, 3480, Tempo, 856287
1, 3480, Note_on_c, 0, 76, 0
1, 3480, Note_on_c, 0, 75, 34
1, 3544, Tempo, 850340
1, 3600, Tempo, 844476
1, 3600, Note_on_c, 0, 75, 0
1, 3600, Note_on_c, 0, 76, 41
1, 3612, Tempo, 838574
1, 3720, Note_on_c, 0, 76, 0
1, 3720, Note_on_c, 0, 75, 37
1, 3840, Note_on_c, 0, 75, 0
1, 3840, Note_on_c, 0, 76, 46
1, 3864, Tempo, 844476
1, 3880, Tempo, 843289
1, 3900, Tempo, 849137
1, 3920, Tempo, 854944
1, 3940, Tempo, 861203
1, 3960, Tempo, 873490
1, 3960, Note_on_c, 0, 76, 0
1, 3960, Note_on_c, 0, 71, 39
1, 4080, Note_on_c, 0, 71, 0
1, 4080, Note_on_c, 0, 74, 48
1, 4200, Tempo, 914216
1, 4200, Note_on_c, 0, 74, 0
1, 4200, Note_on_c, 0, 72, 39
1, 4320, Tempo, 867303
1, 4320, Note_on_c, 0, 72, 0
1, 4320, Note_on_c, 0, 69, 48
1, 4320, Note_on_c, 0, 45, 36
1, 4370, Control_c, 0, 64, 127
1, 4440, Note_on_c, 0, 45, 0
1, 4440, Note_on_c, 0, 52, 35
1, 4560, Note_on_c, 0, 52, 0
1, 4560, Note_on_c, 0, 69, 0
1, 4560, Note_on_c, 0, 57, 34
1, 4680, Tempo, 843289
1, 4680, Note_on_c, 0, 57, 0
1, 4680, Note_on_c, 0, 60, 34
1, 4800, Note_on_c, 0, 60, 0
1, 4800, Note_on_c, 0, 64, 37
1, 4920, Tempo, 926927
1, 4920, Note_on_c, 0, 64, 0
1, 4920, Note_on_c, 0, 69, 41
1, 5040, Tempo, 867303
1, 5040, Note_on_c, 0, 69, 0
1, 5040, Note_on_c, 0, 71, 45
1, 5040, Note_on_c, 0, 40, 38
1, 5051, Control_c, 0, 64, 0
1, 5109, Control_c, 0, 64, 127
1, 5160, Note_on_c, 0, 40, 0
1, 5160, Note_on_c, 0, 52, 35
1, 5280, Tempo, 856287
1, 5280, Note_on_c, 0, 52, 0
1, 5280, Note_on_c, 0, 71, 0
1, 5280, Note_on_c, 0, 56, 36
1, 5400, Tempo, 881187
1, 5400, Note_on_c, 0, 56, 0
1, 5400, Note_on_c, 0, 64, 37
1, 5520, Tempo, 881187
1, 5520, Note_on_c, 0, 64, 0
1, 5520, Note_on_c, 0, 72, 40
1, 5640, Tempo, 900766
1, 5640, Note_on_c, 0, 72, 0
1, 5640, Note_on_c, 0, 71, 38
1, 5760, Tempo, 919963
1, 5760, Note_on_c, 0, 71, 0
1, 5760, Note_on_c, 0, 69, 40
1, 5760, Note_on_c, 0, 45, 38
1, 5778, Control_c, 0, 64, 0
1, 5816, Control_c, 0, 64, 127
1, 5880, Note_on_c, 0, 45, 0
1, 5880, Note_on_c, 0, 52, 32
1, 6000, Note_on_c, 0, 52, 0
1, 6000, Note_on_c, 0, 69, 0
1, 6000, Note_on_c, 0, 57, 32
1, 6120, Tempo, 1070473
1, 6120, Note_on_c, 0, 57, 0
1, 6143, Control_c, 0, 64, 0
1, 6240, Tempo, 890869
1, 6240, Note_on_c, 0, 76, 36
1, 6252, Tempo, 914216
1, 6280, Tempo, 907441
1, 6304, Tempo, 900766
1, 6332, Tempo, 894055
1, 6344, Tempo, 887574
1, 6360, Note_on_c, 0, 76, 0
1, 6360, Note_on_c, 0, 75, 33
1, 6372, Tempo, 881187
1, 6400, Tempo, 874763
1, 6412, Tempo, 868558
1, 6440, Tempo, 862441
1, 6464, Tempo, 856287
1, 6480, Tempo, 850340
1, 6480, Note_on_c, 0, 75, 0
1, 6480, Note_on_c, 0, 76, 39
1, 6600, Note_on_c, 0, 76, 0
1, 6600, Note_on_c, 0, 75, 36
1, 6700, Tempo, 850340
1, 6720, Tempo, 868558
1, 6720, Note_on_c, 0, 75, 0
1, 6720, Note_on_c, 0, 76, 45
1, 6820, Tempo, 862441
1, 6840, Tempo, 856287
1, 6840, Note_on_c, 0, 76, 0
1, 6840, Note_on_c, 0, 71, 40
1, 6960, Note_on_c, 0, 71, 0
1, 6960, Note_on_c, 0, 74, 47
1, 7080, Tempo, 956175
1, 7080, Note_on_c, 0, 74, 0
1, 7080, Note_on_c, 0, 72, 39
1, 7200, Tempo, 867303
1, 7200, Note_on_c, 0, 72, 0
1, 7200, Note_on_c, 0, 69, 51
1, 7200, Note_on_c, 0, 45, 37
1, 7243, Control_c, 0, 64, 127
1, 7320, Note_on_c, 0, 45, 0
1, 7320, Note_on_c, 0, 52, 33
1, 7440, Note_on_c, 0, 52, 0
1, 7440, Note_on_c, 0, 69, 0
1, 7440, Note_on_c, 0, 57, 33
1, 7560, Tempo, 837287
1, 7560, Note_on_c, 0, 57, 0
1, 7560, Note_on_c, 0, 60, 34
1, 7680, Note_on_c, 0, 60, 0
1, 7680, Note_on_c, 0, 64, 38
1, 7800, Tempo, 926927
1, 7800, Note_on_c, 0, 64, 0
1, 7800, Note_on_c, 0, 69, 42
1, 7920, Tempo, 867303
1, 7920, Note_on_c, 0, 69, 0
1, 7920, Note_on_c, 0, 71, 46
1, 7920, Note_on_c, 0, 40, 40
1, 7939, Control_c, 0, 64, 0
1, 7977, Control_c, 0, 64, 127
1, 8040, Note_on_c, 0, 40, 0
1, 8040, Note_on_c, 0, 52, 33
1, 8160, Tempo, 843289
1, 8160, Note_on_c, 0, 52, 0
1, 8160, Note_on_c, 0, 71, 0
1, 8160, Note_on_c, 0, 56, 34
1, 8280, Note_on_c, 0, 56, 0
1, 8280, Note_on_c, 0, 64, 36
1, 8400, Note_on_c, 0, 64, 0
1, 8400, Note_on_c, 0, 68, 39
1, 8520, Tempo, 956175
1, 8520, Note_on_c, 0, 68, 0
1, 8520, Note_on_c, 0, 71, 42
1, 8640, Tempo, 867303
1, 8640, Note_on_c, 0, 71, 0
1, 8640, Note_on_c, 0, 72, 45
1, 8640, Note_on_c, 0, 45, 38
1, 8646, Control_c, 0, 64, 0
1, 8691, Control_c, 0, 64, 127
1, 8760, Note_on_c, 0, 45, 0
1, 8760, Note_on_c, 0, 52, 35
1, 8880, Note_on_c, 0, 52, 0
1, 8880, Note_on_c, 0, 72, 0
1, 8880, Note_on_c, 0, 57, 35
1, 9000, Note_on_c, 0, 57, 0
1, 9000, Note_on_c, 0, 64, 35
1, 9034, Control_c, 0, 64, 0
1, 9104, Tempo, 881187
1, 9120, Note_on_c, 0, 64, 0
1, 9120, Note_on_c, 0, 76, 38
1, 9132, Tempo, 881187
1, 9172, Tempo, 874763
1, 9212, Tempo, 868558
1, 9240, Note_on_c, 0, 76, 0
1, 9240, Note_on_c, 0, 75, 34
1, 9252, Tempo, 862441
1, 9292, Tempo, 856287
1, 9332, Tempo, 850340
1, 9360, Tempo, 850340
1, 9360, Note_on_c, 0, 75, 0
1, 9360, Note_on_c, 0, 76, 41
1, 9480, Note_on_c, 0, 76, 0
1, 9480, Note_on_c, 0, 75, 37
1, 9600, Tempo, 838574
1, 9600, Note_on_c, 0, 75, 0
1, 9600, Note_on_c, 0, 76, 46
1, 9620, Tempo, 837287
1, 9640, Tempo, 843289
1, 9660, Tempo, 849137
1, 9680, Tempo, 854944
1, 9700, Tempo, 861203
1, 9720, Tempo, 873490
1, 9720, Note_on_c, 0, 76, 0
1, 9720, Note_on_c, 0, 71, 39
1, 9840, Note_on_c, 0, 71, 0
1, 9840, Note_on_c, 0, 74, 48
1, 9960, Tempo, 907441
1, 9960, Note_on_c, 0, 74, 0
1, 9960, Note_on_c, 0, 72, 39
1, 10080, Tempo, 867303
1, 10080, Note_on_c, 0, 72, 0
1, 10080, Note_on_c, 0, 69, 48
1, 10080, Note_on_c, 0, 45, 38
1, 10144, Control_c, 0, 64, 127
1, 10200, Note_on_c, 0, 45, 0
1, 10200, Note_on_c, 0, 52, 35
1, 10320, Note_on_c, 0, 52, 0
1, 10320, Note_on_c, 0, 69, 0
1, 10320, Note_on_c, 0, 57, 34
1, 10440, Tempo, 843289
1, 10440, Note_on_c, 0, 57, 0
1, 10440, Note_on_c, 0, 60, 34
1, 10560, Note_on_c, 0, 60, 0
1, 10560, Note_on_c, 0, 64, 37
1, 10680, Tempo, 926927
1, 10680, Note_on_c, 0, 64, 0
1, 10680, Note_on_c, 0, 69, 41
1, 10800, Tempo, 867303
1, 10800, Note_on_c, 0, 69, 0
1, 10800, Note_on_c, 0, 71, 45
1, 10800, Note_on_c, 0, 40, 38
1, 10811, Control_c, 0, 64, 0
1, 10869, Control_c, 0, 64, 127
1, 10920, Note_on_c, 0, 40, 0
1, 10920, Note_on_c, 0, 52, 37
1, 11040, Tempo, 868558
1, 11040, Note_on_c, 0, 52, 0
1, 11040, Note_on_c, 0, 71, 0
1, 11040, Note_on_c, 0, 56, 37
1, 11160, Tempo, 900766
1, 11160, Note_on_c, 0, 56, 0
1, 11160, Note_on_c, 0, 64, 37
1, 11280, Note_on_c, 0, 64, 0
1, 11280, Note_on_c, 0, 72, 40
1, 11400, Tempo, 928218
1, 11400, Note_on_c, 0, 72, 0
1, 11400, Note_on_c, 0, 71, 38
1, 11520, Tempo, 942655
1, 11520, Note_on_c, 0, 71, 0
1, 11520, Note_on_c, 0, 69, 40
1, 11520, Note_on_c, 0, 45, 38
1, 11538, Control_c, 0, 64, 0
1, 11576, Control_c, 0, 64, 127
1, 11640, Tempo, 907441
1, 11640, Note_on_c, 0, 45, 0
1, 11640, Note_on_c, 0, 52, 32
1, 11760, Tempo, 874763
1, 11760, Note_on_c, 0, 52, 0
1, 11760, Note_on_c, 0, 69, 0
1, 11760, Note_on_c, 0, 57, 32
1, 11802, Control_c, 0, 64, 0
1, 11880, Tempo, 884956
1, 11880, Note_on_c, 0, 57, 0
1, 11880, Note_on_c, 0, 71, 42
1, 12000, Note_on_c, 0, 71, 0
1, 12000, Note_on_c, 0, 72, 45
1, 12120, Tempo, 914634
1, 12120, Note_on_c, 0, 72, 0
1, 12120, Note_on_c, 0, 74, 48
1, 12240, Tempo, 855920
1, 12240, Note_on_c, 0, 74, 0
1, 12240, Note_on_c, 0, 76, 51
1, 12240, Note_on_c, 0, 48, 44
1, 12251, Control_c, 0, 64, 0
1, 12309, Control_c, 0, 64, 127
1, 12360, Note_on_c, 0, 48, 0
1, 12360, Note_on_c, 0, 55, 38
1, 12480, Tempo, 887574
1, 12480, Note_on_c, 0, 55, 0
1, 12480, Note_on_c, 0, 60, 39
1, 12600, Tempo, 867428
1, 12600, Note_on_c, 0, 60, 0
1, 12600, Note_on_c, 0, 76, 0
1, 12600, Note_on_c, 0, 67, 40
1, 12720, Tempo, 873235
1, 12720, Note_on_c, 0, 67, 0
1, 12720, Note_on_c, 0, 77, 46
1, 12840, Note_on_c, 0, 77, 0
1, 12840, Note_on_c, 0, 76, 43
1, 12960, Tempo, 855920
1, 12960, Note_on_c, 0, 76, 0
1, 12960, Note_on_c, 0, 74, 50
1, 12960, Note_on_c, 0, 43, 44
1, 12971, Control_c, 0, 64, 0
1, 13029, Control_c, 0, 64, 127
1, 13080, Note_on_c, 0, 43, 0
1, 13080, Note_on_c, 0, 55, 38
1, 13200, Tempo, 887574
1, 13200, Note_on_c, 0, 55, 0
1, 13200, Note_on_c, 0, 59, 39
1, 13300, Tempo, 867428
1, 13320, Tempo, 879121
1, 13320, Note_on_c, 0, 59, 0
1, 13320, Note_on_c, 0, 74, 0
1, 13320, Note_on_c, 0, 65, 40
1, 13440, Tempo, 879121
1, 13440, Note_on_c, 0, 65, 0
1, 13440, Note_on_c, 0, 76, 46
1, 13560, Note_on_c, 0, 76, 0
1, 13560, Note_on_c, 0, 74, 43
1, 13680, Tempo, 855920
1, 13680, Note_on_c, 0, 74, 0
1, 13680, Note_on_c, 0, 72, 50
1, 13680, Note_on_c, 0, 45, 44
1, 13691, Control_c, 0, 64, 0
1, 13749, Control_c, 0, 64, 127
1, 13800, Note_on_c, 0, 45, 0
1, 13800, Note_on_c, 0, 52, 38
1, 13920, Tempo, 887574
1, 13920, Note_on_c, 0, 52, 0
1, 13920, Note_on_c, 0, 57, 39
1, 14040, Tempo, 903342
1, 14040, Note_on_c, 0, 57, 0
1, 14040, Note_on_c, 0, 72, 0
1, 14040, Note_on_c, 0, 64, 40
1, 14160, Tempo, 868558
1, 14160, Note_on_c, 0, 64, 0
1, 14160, Note_on_c, 0, 74, 46
1, 14280, Tempo, 874763
1, 14280, Note_on_c, 0, 74, 0
1, 14280, Note_on_c, 0, 72, 43
1, 14400, Tempo, 867428
1, 14400, Note_on_c, 0, 72, 0
1, 14400, Note_on_c, 0, 71, 50
1, 14400, Note_on_c, 0, 40, 44
1, 14411, Control_c, 0, 64, 0
1, 14469, Control_c, 0, 64, 127
1, 14520, Note_on_c, 0, 40, 0
1, 14520, Note_on_c, 0, 52, 38
1, 14640, Tempo, 909642
1, 14640, Note_on_c, 0, 52, 0
1, 14640, Note_on_c, 0, 71, 0
1, 14640, Note_on_c, 0, 64, 39
1, 14730, Note_on_c, 0, 64, 0
1, 14760, Tempo, 856287
1, 14760, Note_on_c, 0, 64, 39
1, 14880, Tempo, 896861
1, 14880, Note_on_c, 0, 64, 0
1, 14880, Note_on_c, 0, 76, 45
1, 14970, Note_on_c, 0, 76, 0
1, 15000, Tempo, 856287
1, 15000, Note_on_c, 0, 64, 39
1, 15120, Tempo, 903342
1, 15120, Note_on_c, 0, 64, 0
1, 15120, Note_on_c, 0, 76, 44
1, 15210, Note_on_c, 0, 76, 0
1, 15240, Tempo, 935308
1, 15240, Note_on_c, 0, 76, 43
1, 15360, Tempo, 900766
1, 15360, Note_on_c, 0, 76, 0
1, 15360, Note_on_c, 0, 88, 48
1, 15438, Control_c, 0, 64, 0
1, 15450, Note_on_c, 0, 88, 0
1, 15480, Tempo, 909642
1, 15480, Note_on_c, 0, 75, 42
1, 15492, Tempo, 850943
1, 15560, Tempo, 856287
1, 15600, Tempo, 844476
1, 15600, Note_on_c, 0, 75, 0
1, 15600, Note_on_c, 0, 76, 50
1, 15690, Note_on_c, 0, 76, 0
1, 15720, Note_on_c, 0, 75, 42
1, 15800, Tempo, 850340
1, 15840, Tempo, 862441
1, 15840, Note_on_c, 0, 75, 0
1, 15840, Note_on_c, 0, 76, 48
1, 15930, Note_on_c, 0, 76, 0
1, 15960, Tempo, 868558
1, 15960, Note_on_c, 0, 75, 39
1, 16060, Tempo, 874763
1, 16080, Note_on_c, 0, 75, 0
1, 16080, Note_on_c, 0, 76, 41
1, 16160, Tempo, 881187
1, 16170, Note_on_c, 0, 76, 0
1, 16200, Note_on_c, 0, 75, 35
1, 16260, Tempo, 887574
1, 16320, Note_on_c, 0, 75, 0
1, 16320, Note_on_c, 0, 76, 37
1, 16360, Tempo, 894055
1, 16440, Note_on_c, 0, 76, 0
1, 16440, Note_on_c, 0, 75, 34
1, 16460, Tempo, 900766
1, 16560, Tempo, 907441
1, 16560, Note_on_c, 0, 75, 0
1, 16560, Note_on_c, 0, 76, 40
1, 16580, Tempo, 874763
1, 16680, Tempo, 900766
1, 16680, Note_on_c, 0, 76, 0
1, 16680, Note_on_c, 0, 75, 36
1, 16784, Tempo, 907441
1, 16800, Tempo, 921234
1, 16800, Note_on_c, 0, 75, 0
1, 16800, Note_on_c, 0, 76, 40
1, 16860, Tempo, 914216
1, 16920, Tempo, 928218
1, 16920, Note_on_c, 0, 76, 0
1, 16920, Note_on_c, 0, 71, 35
1, 17040, Tempo, 887574
1, 17040, Note_on_c, 0, 71, 0
1, 17040, Note_on_c, 0, 74, 42
1, 17160, Tempo, 956175
1, 17160, Note_on_c, 0, 74, 0
1, 17160, Note_on_c, 0, 72, 37
1, 17280, Tempo, 867303
1, 17280, Note_on_c, 0, 72, 0
1, 17280, Note_on_c, 0, 69, 45
1, 17280, Note_on_c, 0, 45, 36
1, 17330, Control_c, 0, 64, 127
1, 17400, Note_on_c, 0, 45, 0
1, 17400, Note_on_c, 0, 52, 33
1, 17520, Note_on_c, 0, 52, 0
1, 17520, Note_on_c, 0, 69, 0
1, 17520, Note_on_c, 0, 57, 33
1, 17640, Tempo, 837287
1, 17640, Note_on_c, 0, 57, 0
1, 17640, Note_on_c, 0, 60, 34
1, 17760, Note_on_c, 0, 60, 0
1, 17760, Note_on_c, 0, 64, 38
1, 17880, Tempo, 926927
1, 17880, Note_on_c, 0, 64, 0
1, 17880, Note_on_c, 0, 69, 42
1, 18000, Tempo, 867303
1, 18000, Note_on_c, 0, 69, 0
1, 18000, Note_on_c, 0, 71, 46
1, 18000, Note_on_c, 0, 40, 40
1, 18019, Control_c, 0, 64, 0
1, 18057, Control_c, 0, 64, 127
1, 18120, Note_on_c, 0, 40, 0
1, 18120, Note_on_c, 0, 52, 33
1, 18240, Tempo, 843289
1, 18240, Note_on_c, 0, 52, 0
1, 18240, Note_on_c, 0, 71, 0
1, 18240, Note_on_c, 0, 56, 34
1, 18360, Note_on_c, 0, 56, 0
1, 18360, Note_on_c, 0, 64, 36
1, 18480, Note_on_c, 0, 64, 0
1, 18480, Note_on_c, 0, 68, 39
1, 18600, Tempo, 956175
1, 18600, Note_on_c, 0, 68, 0
1, 18600, Note_on_c, 0, 71, 42
1, 18720, Tempo, 867303
1, 18720, Note_on_c, 0, 71, 0
1, 18720, Note_on_c, 0, 72, 45
1, 18720, Note_on_c, 0, 45, 38
1, 18726, Control_c, 0, 64, 0
1, 18771, Control_c, 0, 64, 127
1, 18840, Note_on_c, 0, 45, 0
1, 18840, Note_on_c, 0, 52, 35
1, 18960, Note_on_c, 0, 52, 0
1, 18960, Note_on_c, 0, 72, 0
1, 18960, Note_on_c, 0, 57, 35
1, 19080, Note_on_c, 0, 57, 0
1, 19080, Note_on_c, 0, 64, 35
1, 19114, Control_c, 0, 64, 0
1, 19200, Tempo, 874763
1, 19200, Note_on_c, 0, 64, 0
1, 19200, Note_on_c, 0, 76, 38
1, 19280, Tempo, 868558
1, 19320, Note_on_c, 0, 76, 0
1, 19320, Note_on_c, 0, 75, 34
1, 19340, Tempo, 862441
1, 19400, Tempo, 856287
1, 19440, Note_on_c, 0, 75, 0
1, 19440, Note_on_c, 0, 76, 41
1, 19460, Tempo, 850340
1, 19560, Note_on_c, 0, 76, 0
1, 19560, Note_on_c, 0, 75, 37
1, 19660, Tempo, 850340
1, 19680, Note_on_c, 0, 75, 0
1, 19680, Note_on_c, 0, 76, 46
1, 19740, Tempo, 856287
1, 19800, Tempo, 862441
1, 19800, Note_on_c, 0, 76, 0
1, 19800, Note_on_c, 0, 71, 39
1, 19920, Note_on_c, 0, 71, 0
1, 19920, Note_on_c, 0, 74, 48
1, 20040, Tempo, 900766
1, 20040, Note_on_c, 0, 74, 0
1, 20040, Note_on_c, 0, 72, 39
1, 20160, Tempo, 867303
1, 20160, Note_on_c, 0, 72, 0
1, 20160, Note_on_c, 0, 69, 46
1, 20160, Note_on_c, 0, 45, 38
1, 20217, Control_c, 0, 64, 127
1, 20280, Note_on_c, 0, 45, 0
1, 20280, Note_on_c, 0, 52, 35
1, 20400, Note_on_c, 0, 52, 0
1, 20400, Note_on_c, 0, 69, 0
1, 20400, Note_on_c, 0, 57, 34
1, 20520, Tempo, 843289
1, 20520, Note_on_c, 0, 57, 0
1, 20520, Note_on_c, 0, 60, 34
1, 20640, Note_on_c, 0, 60, 0
1, 20640, Note_on_c, 0, 64, 37
1, 20760, Tempo, 926927
1, 20760, Note_on_c, 0, 64, 0
1, 20760, Note_on_c, 0, 69, 41
1, 20880, Tempo, 867303
1, 20880, Note_on_c, 0, 69, 0
1, 20880, Note_on_c, 0, 71, 45
1, 20880, Note_on_c, 0, 40, 38
1, 20891, Control_c, 0, 64, 0
1, 20949, Control_c, 0, 64, 127
1, 21000, Note_on_c, 0, 40, 0
1, 21000, Note_on_c, 0, 52, 37
1, 21120, Tempo, 874763
1, 21120, Note_on_c, 0, 52, 0
1, 21120, Note_on_c, 0, 71, 0
1, 21120, Note_on_c, 0, 56, 37
1, 21240, Tempo, 874763
1, 21240, Note_on_c, 0, 56, 0
1, 21240, Note_on_c, 0, 64, 37
1, 21360, Tempo, 894055
1, 21360, Note_on_c, 0, 64, 0
1, 21360, Note_on_c, 0, 72, 40
1, 21480, Tempo, 900766
1, 21480, Note_on_c, 0, 72, 0
1, 21480, Note_on_c, 0, 71, 38
1, 21600, Tempo, 919963
1, 21600, Note_on_c, 0, 71, 0
1, 21600, Note_on_c, 0, 69, 40
1, 21600, Note_on_c, 0, 45, 38
1, 21618, Control_c, 0, 64, 0
1, 21656, Control_c, 0, 64, 127
1, 21720, Note_on_c, 0, 45, 0
1, 21720, Note_on_c, 0, 52, 32
1, 21840, Tempo, 900766
1, 21840, Note_on_c, 0, 52, 0
1, 21840, Note_on_c, 0, 69, 0
1, 21840, Note_on_c, 0, 57, 32
1, 21960, Tempo, 884956
1, 21960, Note_on_c, 0, 57, 0
1, 21960, Note_on_c, 0, 71, 43
1, 21983, Control_c, 0, 64, 0
1, 22080, Note_on_c, 0, 71, 0
1, 22080, Note_on_c, 0, 72, 45
1, 22200, Tempo, 914634
1, 22200, Note_on_c, 0, 72, 0
1, 22200, Note_on_c, 0, 74, 47
1, 22320, Tempo, 855920
1, 22320, Note_on_c, 0, 74, 0
1, 22320, Note_on_c, 0, 76, 50
1, 22320, Note_on_c, 0, 48, 44
1, 22331, Control_c, 0, 64, 0
1, 22389, Control_c, 0, 64, 127
1, 22440, Note_on_c, 0, 48, 0
1, 22440, Note_on_c, 0, 55, 38
1, 22560, Tempo, 887574
1, 22560, Note_on_c, 0, 55, 0
1, 22560, Note_on_c, 0, 60, 39
1, 22680, Tempo, 867428
1, 22680, Note_on_c, 0, 60, 0
1, 22680, Note_on_c, 0, 76, 0
1, 22680, Note_on_c, 0, 67, 40
1, 22800, Tempo, 873235
1, 22800, Note_on_c, 0, 67, 0
1, 22800, Note_on_c, 0, 77, 46
1, 22920, Note_on_c, 0, 77, 0
1, 22920, Note_on_c, 0, 76, 43
1, 23040, Tempo, 855920
1, 23040, Note_on_c, 0, 76, 0
1, 23040, Note_on_c, 0, 74, 50
1, 23040, Note_on_c, 0, 43, 44
1, 23051, Control_c, 0, 64, 0
1, 23109, Control_c, 0, 64, 127
1, 23160, Note_on_c, 0, 43, 0
1, 23160, Note_on_c, 0, 55, 38
1, 23280, Tempo, 887574
1, 23280, Note_on_c, 0, 55, 0
1, 23280, Note_on_c, 0, 59, 39
1, 23380, Tempo, 867428
1, 23400, Tempo, 879121
1, 23400, Note_on_c, 0, 59, 0
1, 23400, Note_on_c, 0, 74, 0
1, 23400, Note_on_c, 0, 65, 40
1, 23520, Tempo, 879121
1, 23520, Note_on_c, 0, 65, 0
1, 23520, Note_on_c, 0, 76, 46
1, 23640, Note_on_c, 0, 76, 0
1, 23640, Note_on_c, 0, 74, 43
1, 23760, Tempo, 855920
1, 23760, Note_on_c, 0, 74, 0
1, 23760, Note_on_c, 0, 72, 50
1, 23760, Note_on_c, 0, 45, 44
1, 23771, Control_c, 0, 64, 0
1, 23829, Control_c, 0, 64, 127
1, 23880, Note_on_c, 0, 45, 0
1, 23880, Note_on_c, 0, 52, 38
1, 24000, Tempo, 887574
1, 24000, Note_on_c, 0, 52, 0
1, 24000, Note_on_c, 0, 57, 39
1, 24120, Tempo, 903342
1, 24120, Note_on_c, 0, 57, 0
1, 24120, Note_on_c, 0, 72, 0
1, 24120, Note_on_c, 0, 64, 40
1, 24240, Tempo, 868558
1, 24240, Note_on_c, 0, 64, 0
1, 24240, Note_on_c, 0, 74, 46
1, 24360, Tempo, 868558
1, 24360, Note_on_c, 0, 74, 0
1, 24360, Note_on_c, 0, 72, 43
1, 24480, Tempo, 867428
1, 24480, Note_on_c, 0, 72, 0
1, 24480, Note_on_c, 0, 71, 50
1, 24480, Note_on_c, 0, 40, 44
1, 24491, Control_c, 0, 64, 0
1, 24549, Control_c, 0, 64, 127
1, 24600, Note_on_c, 0, 40, 0
1, 24600, Note_on_c, 0, 52, 38
1, 24720, Tempo, 909642
1, 24720, Note_on_c, 0, 52, 0
1, 24720, Note_on_c, 0, 71, 0
1, 24720, Note_on_c, 0, 64, 39
1, 24810, Note_on_c, 0, 64, 0
1, 24840, Tempo, 856287
1, 24840, Note_on_c, 0, 64, 39
1, 24960, Tempo, 896861
1, 24960, Note_on_c, 0, 64, 0
1, 24960, Note_on_c, 0, 76, 45
1, 25050, Note_on_c, 0, 76, 0
1, 25080, Tempo, 856287
1, 25080, Note_on_c, 0, 64, 39
1, 25200, Tempo, 903342
1, 25200, Note_on_c, 0, 64, 0
1, 25200, Note_on_c, 0, 76, 44
1, 25290, Note_on_c, 0, 76, 0
1, 25320, Tempo, 921234
1, 25320, Note_on_c, 0, 76, 43
1, 25440, Tempo, 894055
1, 25440, Note_on_c, 0, 76, 0
1, 25440, Note_on_c, 0, 88, 48
1, 25518, Control_c, 0, 64, 0
1, 25530, Note_on_c, 0, 88, 0
1, 25560, Tempo, 909642
1, 25560, Note_on_c, 0, 75, 42
1, 25572, Tempo, 850943
1, 25640, Tempo, 856287
1, 25660, Tempo, 844476
1, 25680, Tempo, 838574
1, 25680, Note_on_c, 0, 75, 0
1, 25680, Note_on_c, 0, 76, 50
1, 25770, Note_on_c, 0, 76, 0
1, 25800, Tempo, 844476
1, 25800, Note_on_c, 0, 75, 42
1, 25900, Tempo, 850340
1, 25920, Tempo, 856287
1, 25920, Note_on_c, 0, 75, 0
1, 25920, Note_on_c, 0, 76, 48
1, 26010, Note_on_c, 0, 76, 0
1, 26020, Tempo, 862441
1, 26040, Note_on_c, 0, 75, 39
1, 26100, Tempo, 868558
1, 26160, Note_on_c, 0, 75, 0
1, 26160, Note_on_c, 0, 76, 41
1, 26200, Tempo, 874763
1, 26250, Note_on_c, 0, 76, 0
1, 26280, Tempo, 881187
1, 26280, Note_on_c, 0, 75, 35
1, 26380, Tempo, 887574
1, 26400, Note_on_c, 0, 75, 0
1, 26400, Note_on_c, 0, 76, 37
1, 26460, Tempo, 894055
1, 26520, Note_on_c, 0, 76, 0
1, 26520, Note_on_c, 0, 75, 34
1, 26560, Tempo, 900766
1, 26640, Tempo, 907441
1, 26640, Note_on_c, 0, 75, 0
1, 26640, Note_on_c, 0, 76, 39
1, 26660, Tempo, 894055
1, 26760, Tempo, 900766
1, 26760, Note_on_c, 0, 76, 0
1, 26760, Note_on_c, 0, 75, 36
1, 26880, Note_on_c, 0, 75, 0
1, 26880, Note_on_c, 0, 76, 39
1, 26900, Tempo, 928218
1, 27000, Tempo, 900766
1, 27000, Note_on_c, 0, 76, 0
1, 27000, Note_on_c, 0, 71, 35
1, 27120, Tempo, 881187
1, 27120, Note_on_c, 0, 71, 0
1, 27120, Note_on_c, 0, 74, 40
1, 27240, Tempo, 956175
1, 27240, Note_on_c, 0, 74, 0
1, 27240, Note_on_c, 0, 72, 33
1, 27360, Tempo, 867303
1, 27360, Note_on_c, 0, 72, 0
1, 27360, Note_on_c, 0, 69, 46
1, 27360, Note_on_c, 0, 45, 34
1, 27410, Control_c, 0, 64, 127
1, 27480, Note_on_c, 0, 45, 0
1, 27480, Note_on_c, 0, 52, 32
1, 27600, Note_on_c, 0, 52, 0
1, 27600, Note_on_c, 0, 69, 0
1, 27600, Note_on_c, 0, 57, 32
1, 27720, Tempo, 837287
1, 27720, Note_on_c, 0, 57, 0
1, 27720, Note_on_c, 0, 60, 34
1, 27840, Note_on_c, 0, 60, 0
1, 27840, Note_on_c, 0, 64, 38
1, 27960, Tempo, 926927
1, 27960, Note_on_c, 0, 64, 0
1, 27960, Note_on_c, 0, 69, 42
1, 28080, Tempo, 867303
1, 28080, Note_on_c, 0, 69, 0
1, 28080, Note_on_c, 0, 71, 46
1, 28080, Note_on_c, 0, 40, 38
1, 28099, Control_c, 0, 64, 0
1, 28137, Control_c, 0, 64, 127
1, 28200, Note_on_c, 0, 40, 0
1, 28200, Note_on_c, 0, 52, 33
1, 28320, Tempo, 843289
1, 28320, Note_on_c, 0, 52, 0
1, 28320, Note_on_c, 0, 71, 0
1, 28320, Note_on_c, 0, 56, 34
1, 28440, Note_on_c, 0, 56, 0
1, 28440, Note_on_c, 0, 64, 36
1, 28560, Note_on_c, 0, 64, 0
1, 28560, Note_on_c, 0, 68, 39
1, 28680, Tempo, 956175
1, 28680, Note_on_c, 0, 68, 0
1, 28680, Note_on_c, 0, 71, 42
1, 28800, Tempo, 867303
1, 28800, Note_on_c, 0, 71, 0
1, 28800, Note_on_c, 0, 72, 45
1, 28800, Note_on_c, 0, 45, 38
1, 28806, Control_c, 0, 64, 0
1, 28851, Control_c, 0, 64, 127
1, 28920, Note_on_c, 0, 45, 0
1, 28920, Note_on_c, 0, 52, 35
1, 29040, Note_on_c, 0, 52, 0
1, 29040, Note_on_c, 0, 72, 0
1, 29040, Note_on_c, 0, 57, 35
1, 29160, Note_on_c, 0, 57, 0
1, 29160, Note_on_c, 0, 64, 35
1, 29194, Control_c, 0, 64, 0
1, 29268, Tempo, 868558
1, 29280, Note_on_c, 0, 64, 0
1, 29280, Note_on_c, 0, 76, 38
1, 29336, Tempo, 862441
1, 29388, Tempo, 856287
1, 29400, Note_on_c, 0, 76, 0
1, 29400, Note_on_c, 0, 75, 34
1, 29456, Tempo, 850340
1, 29508, Tempo, 844476
1, 29520, Note_on_c, 0, 75, 0
1, 29520, Note_on_c, 0, 76, 41
1, 29640, Note_on_c, 0, 76, 0
1, 29640, Note_on_c, 0, 75, 37
1, 29736, Tempo, 844476
1, 29760, Tempo, 850340
1, 29760, Note_on_c, 0, 75, 0
1, 29760, Note_on_c, 0, 76, 46
1, 29788, Tempo, 856287
1, 29816, Tempo, 862441
1, 29840, Tempo, 868558
1, 29860, Tempo, 861203
1, 29880, Tempo, 873490
1, 29880, Note_on_c, 0, 76, 0
1, 29880, Note_on_c, 0, 71, 39
1, 30000, Note_on_c, 0, 71, 0
1, 30000, Note_on_c, 0, 74, 48
1, 30120, Tempo, 956175
1, 30120, Note_on_c, 0, 74, 0
1, 30120, Note_on_c, 0, 72, 39
1, 30240, Tempo, 867303
1, 30240, Note_on_c, 0, 72, 0
1, 30240, Note_on_c, 0, 69, 48
1, 30240, Note_on_c, 0, 45, 38
1, 30297, Control_c, 0, 64, 127
1, 30360, Note_on_c, 0, 45, 0
1, 30360, Note_on_c, 0, 52, 35
1, 30480, Note_on_c, 0, 52, 0
1, 30480, Note_on_c, 0, 69, 0
1, 30480, Note_on_c, 0, 57, 34
1, 30600, Tempo, 843289
1, 30600, Note_on_c, 0, 57, 0
1, 30600, Note_on_c, 0, 60, 34
1, 30720, Note_on_c, 0, 60, 0
1, 30720, Note_on_c, 0, 64, 37
1, 30840, Tempo, 926927
1, 30840, Note_on_c, 0, 64, 0
1, 30840, Note_on_c, 0, 69, 41
1, 30960, Tempo, 867303
1, 30960, Note_on_c, 0, 69, 0
1, 30960, Note_on_c, 0, 71, 45
1, 30960, Note_on_c, 0, 40, 38
1, 30971, Control_c, 0, 64, 0
1, 31029, Control_c, 0, 64, 127
1, 31080, Note_on_c, 0, 40, 0
1, 31080, Note_on_c, 0, 52, 37
1, 31200, Tempo, 899415
1, 31200, Note_on_c, 0, 52, 0
1, 31200, Note_on_c, 0, 71, 0
1, 31200, Note_on_c, 0, 56, 37
1, 31320, Tempo, 914216
1, 31320, Note_on_c, 0, 56, 0
1, 31320, Note_on_c, 0, 64, 37
1, 31440, Tempo, 942655
1, 31440, Note_on_c, 0, 64, 0
1, 31440, Note_on_c, 0, 72, 40
1, 31560, Tempo, 979272
1, 31560, Note_on_c, 0, 72, 0
1, 31560, Note_on_c, 0, 71, 38
1, 31680, Tempo, 942655
1, 31680, Note_on_c, 0, 71, 0
1, 31680, Note_on_c, 0, 69, 40
1, 31680, Note_on_c, 0, 45, 38
1, 31698, Control_c, 0, 64, 0
1, 31736, Control_c, 0, 64, 127
1, 31800, Note_on_c, 0, 45, 0
1, 31800, Note_on_c, 0, 52, 32
1, 31920, Note_on_c, 0, 52, 0
1, 31920, Note_on_c, 0, 69, 0
1, 31920, Note_on_c, 0, 57, 32
1, 31980, Tempo, 914216
1, 32040, Note_on_c, 0, 57, 0
1, 32040, Note_on_c, 0, 64, 40
1, 32040, Note_on_c, 0, 72, 46
1, 32040, Control_c, 0, 64, 0
1, 32040, Note_on_c, 0, 58, 34
1, 32040, Note_on_c, 0, 60, 34
1, 32060, Tempo, 907441
1, 32130, Note_on_c, 0, 60, 0
1, 32130, Note_on_c, 0, 64, 0
1, 32130, Note_on_c, 0, 72, 0
1, 32130, Note_on_c, 0, 58, 0
1, 32140, Tempo, 900766
1, 32160, Tempo, 894055
1, 32160, Note_on_c, 0, 65, 41
1, 32160, Note_on_c, 0, 72, 47
1, 32160, Note_on_c, 0, 57, 34
1, 32160, Note_on_c, 0, 60, 34
1, 32200, Tempo, 881187
1, 32240, Tempo, 874763
1, 32250, Note_on_c, 0, 60, 0
1, 32250, Note_on_c, 0, 65, 0
1, 32250, Note_on_c, 0, 72, 0
1, 32250, Note_on_c, 0, 57, 0
1, 32280, Tempo, 1030574
1, 32280, Note_on_c, 0, 64, 43
1, 32280, Note_on_c, 0, 67, 43
1, 32280, Note_on_c, 0, 72, 49
1, 32280, Note_on_c, 0, 55, 34
1, 32280, Note_on_c, 0, 58, 34
1, 32280, Note_on_c, 0, 60, 34
1, 32340, Tempo, 1351047
1, 32340, Note_on_c, 0, 60, 0
1, 32340, Note_on_c, 0, 67, 0
1, 32340, Note_on_c, 0, 72, 0
1, 32340, Note_on_c, 0, 64, 0
1, 32340, Note_on_c, 0, 58, 0
1, 32340, Note_on_c, 0, 55, 0
1, 32340, Note_on_c, 0, 65, 43
1, 32370, Note_on_c, 0, 65, 0
1, 32370, Note_on_c, 0, 69, 41
1, 32378, Control_c, 0, 64, 127
1, 32400, Tempo, 894055
1, 32400, Note_on_c, 0, 69, 0
1, 32400, Note_on_c, 0, 72, 55
1, 32400, Note_on_c, 0, 53, 44
1, 32520, Note_on_c, 0, 53, 0
1, 32520, Note_on_c, 0, 57, 38
1, 32640, Note_on_c, 0, 57, 0
1, 32640, Note_on_c, 0, 60, 36
1, 32760, Tempo, 887574
1, 32760, Note_on_c, 0, 60, 0
1, 32760, Note_on_c, 0, 57, 37
1, 32880, Tempo, 894055
1, 32880, Note_on_c, 0, 57, 0
1, 32880, Note_on_c, 0, 72, 0
1, 32880, Note_on_c, 0, 77, 57
1, 32880, Note_on_c, 0, 60, 37
1, 32900, Tempo, 928218
1, 33000, Note_on_c, 0, 60, 0
1, 33000, Note_on_c, 0, 57, 37
1, 33060, Tempo, 996678
1, 33060, Note_on_c, 0, 77, 0
1, 33060, Note_on_c, 0, 76, 52
1, 33118, Note_on_c, 0, 76, 0
1, 33120, Tempo, 900766
1, 33120, Note_on_c, 0, 57, 0
1, 33120, Note_on_c, 0, 76, 57
1, 33120, Note_on_c, 0, 53, 44
1, 33134, Control_c, 0, 64, 0
1, 33198, Control_c, 0, 64, 127
1, 33240, Note_on_c, 0, 53, 0
1, 33240, Note_on_c, 0, 58, 38
1, 33360, Tempo, 894055
1, 33360, Note_on_c, 0, 58, 0
1, 33360, Note_on_c, 0, 76, 0
1, 33360, Note_on_c, 0, 74, 51
1, 33360, Note_on_c, 0, 62, 37
1, 33480, Tempo, 928218
1, 33480, Note_on_c, 0, 62, 0
1, 33480, Note_on_c, 0, 58, 37
1, 33600, Tempo, 887574
1, 33600, Note_on_c, 0, 58, 0
1, 33600, Note_on_c, 0, 74, 0
1, 33600, Note_on_c, 0, 82, 62
1, 33600, Note_on_c, 0, 62, 37
1, 33720, Note_on_c, 0, 62, 0
1, 33720, Note_on_c, 0, 58, 38
1, 33760, Tempo, 942655
1, 33780, Note_on_c, 0, 82, 0
1, 33780, Note_on_c, 0, 81, 56
1, 33838, Note_on_c, 0, 81, 0
1, 33840, Tempo, 856287
1, 33840, Note_on_c, 0, 58, 0
1, 33840, Note_on_c, 0, 81, 56
1, 33840, Note_on_c, 0, 53, 44
1, 33860, Tempo, 862441
1, 33861, Control_c, 0, 64, 0
1, 33890, Control_c, 0, 64, 127
1, 33920, Tempo, 868558
1, 33960, Note_on_c, 0, 53, 0
1, 33960, Note_on_c, 0, 81, 0
1, 33960, Note_on_c, 0, 79, 56
1, 33960, Note_on_c, 0, 64, 37
1, 33980, Tempo, 874763
1, 34040, Tempo, 881187
1, 34080, Note_on_c, 0, 64, 0
1, 34080, Note_on_c, 0, 79, 0
1, 34080, Note_on_c, 0, 77, 55
1, 34080, Note_on_c, 0, 53, 36
1, 34080, Note_on_c, 0, 58, 36
1, 34080, Note_on_c, 0, 55, 36
1, 34100, Tempo, 887574
1, 34160, Tempo, 894055
1, 34200, Note_on_c, 0, 55, 0
1, 34200, Note_on_c, 0, 77, 0
1, 34200, Note_on_c, 0, 53, 0
1, 34200, Note_on_c, 0, 58, 0
1, 34200, Note_on_c, 0, 76, 55
1, 34200, Note_on_c, 0, 64, 36
1, 34220, Tempo, 900766
1, 34280, Tempo, 907441
1, 34320, Tempo, 914216
1, 34320, Note_on_c, 0, 64, 0
1, 34320, Note_on_c, 0, 76, 0
1, 34320, Note_on_c, 0, 74, 55
1, 34320, Note_on_c, 0, 53, 36
1, 34320, Note_on_c, 0, 55, 36
1, 34320, Note_on_c, 0, 58, 36
1, 34440, Tempo, 935308
1, 34440, Note_on_c, 0, 58, 0
1, 34440, Note_on_c, 0, 74, 0
1, 34440, Note_on_c, 0, 53, 0
1, 34440, Note_on_c, 0, 55, 0
1, 34440, Note_on_c, 0, 72, 54
1, 34440, Note_on_c, 0, 64, 36
1, 34560, Tempo, 874763
1, 34560, Note_on_c, 0, 64, 0
1, 34560, Note_on_c, 0, 72, 0
1, 34560, Note_on_c, 0, 70, 54
1, 34560, Note_on_c, 0, 53, 44
1, 34570, Control_c, 0, 64, 0
1, 34631, Control_c, 0, 64, 127
1, 34680, Note_on_c, 0, 53, 0
1, 34680, Note_on_c, 0, 57, 36
1, 34800, Note_on_c, 0, 57, 0
1, 34800, Note_on_c, 0, 70, 0
1, 34800, Note_on_c, 0, 69, 51
1, 34800, Note_on_c, 0, 60, 36
1, 34920, Tempo, 928218
1, 34920, Note_on_c, 0, 60, 0
1, 34920, Note_on_c, 0, 57, 36
1, 35010, Note_on_c, 0, 69, 0
1, 35010, Note_on_c, 0, 70, 44
1, 35040, Tempo, 894055
1, 35040, Note_on_c, 0, 70, 0
1, 35040, Note_on_c, 0, 57, 0
1, 35040, Note_on_c, 0, 69, 49
1, 35040, Note_on_c, 0, 60, 36
1, 35100, Note_on_c, 0, 69, 0
1, 35100, Note_on_c, 0, 67, 50
1, 35160, Note_on_c, 0, 67, 0
1, 35160, Note_on_c, 0, 60, 0
1, 35160, Note_on_c, 0, 69, 51
1, 35160, Note_on_c, 0, 57, 36
1, 35220, Note_on_c, 0, 69, 0
1, 35220, Note_on_c, 0, 70, 52
1, 35280, Tempo, 874763
1, 35280, Note_on_c, 0, 70, 0
1, 35280, Note_on_c, 0, 57, 0
1, 35280, Note_on_c, 0, 72, 54
1, 35280, Note_on_c, 0, 53, 42
1, 35288, Control_c, 0, 64, 0
1, 35354, Control_c, 0, 64, 127
1, 35400, Note_on_c, 0, 53, 0
1, 35400, Note_on_c, 0, 57, 34
1, 35520, Note_on_c, 0, 57, 0
1, 35520, Note_on_c, 0, 60, 35
1, 35640, Tempo, 914216
1, 35640, Note_on_c, 0, 60, 0
1, 35640, Note_on_c, 0, 57, 36
1, 35760, Tempo, 887574
1, 35760, Note_on_c, 0, 57, 0
1, 35760, Note_on_c, 0, 72, 0
1, 35760, Note_on_c, 0, 74, 55
1, 35760, Note_on_c, 0, 60, 38
1, 35880, Note_on_c, 0, 60, 0
1, 35880, Note_on_c, 0, 74, 0
1, 35880, Note_on_c, 0, 75, 57
1, 35880, Note_on_c, 0, 57, 39
1, 36000, Tempo, 874763
1, 36000, Note_on_c, 0, 57, 0
1, 36000, Note_on_c, 0, 75, 0
1, 36000, Note_on_c, 0, 76, 59
1, 36000, Note_on_c, 0, 52, 49
1, 36014, Control_c, 0, 64, 0
1, 36078, Control_c, 0, 64, 127
1, 36120, Note_on_c, 0, 52, 0
1, 36120, Note_on_c, 0, 57, 38
1, 36240, Note_on_c, 0, 57, 0
1, 36240, Note_on_c, 0, 60, 38
1, 36360, Tempo, 907441
1, 36360, Note_on_c, 0, 60, 0
1, 36360, Note_on_c, 0, 76, 0
1, 36360, Note_on_c, 0, 76, 58
1, 36360, Note_on_c, 0, 57, 38
1, 36480, Note_on_c, 0, 57, 0
1, 36480, Note_on_c, 0, 76, 0
1, 36480, Note_on_c, 0, 77, 63
1, 36480, Note_on_c, 0, 50, 38
1, 36480, Note_on_c, 0, 62, 38
1, 36488, Control_c, 0, 64, 0
1, 36551, Control_c, 0, 64, 127
1, 36600, Note_on_c, 0, 62, 0
1, 36600, Note_on_c, 0, 50, 0
1, 36600, Note_on_c, 0, 77, 0
1, 36600, Note_on_c, 0, 69, 58
1, 36600, Note_on_c, 0, 53, 38
1, 36720, Tempo, 874763
1, 36720, Note_on_c, 0, 53, 0
1, 36720, Note_on_c, 0, 69, 0
1, 36720, Note_on_c, 0, 72, 64
1, 36720, Note_on_c, 0, 55, 47
1, 36731, Control_c, 0, 64, 0
1, 36798, Control_c, 0, 64, 127
1, 36840, Note_on_c, 0, 55, 0
1, 36840, Note_on_c, 0, 64, 38
1, 36960, Note_on_c, 0, 64, 0
1, 36960, Note_on_c, 0, 55, 40
1, 37080, Note_on_c, 0, 55, 0
1, 37080, Note_on_c, 0, 64, 38
1, 37200, Tempo, 900766
1, 37200, Note_on_c, 0, 64, 0
1, 37200, Note_on_c, 0, 72, 0
1, 37200, Note_on_c, 0, 74, 64
1, 37200, Note_on_c, 0, 55, 41
1, 37209, Control_c, 0, 64, 0
1, 37249, Control_c, 0, 64, 127
1, 37320, Note_on_c, 0, 55, 0
1, 37320, Note_on_c, 0, 65, 38
1, 37380, Note_on_c, 0, 74, 0
1, 37380, Note_on_c, 0, 71, 57
1, 37420, Tempo, 887574
1, 37440, Tempo, 914216
1, 37440, Note_on_c, 0, 71, 0
1, 37440, Note_on_c, 0, 65, 0
1, 37440, Note_on_c, 0, 72, 64
1, 37440, Note_on_c, 0, 60, 45
1, 37440, Note_on_c, 0, 64, 45
1, 37443, Control_c, 0, 64, 0
1, 37472, Control_c, 0, 64, 127
1, 37500, Tempo, 907441
1, 37500, Note_on_c, 0, 72, 0
1, 37500, Note_on_c, 0, 79, 57
1, 37540, Tempo, 900766
1, 37560, Note_on_c, 0, 79, 0
1, 37560, Note_on_c, 0, 67, 64
1, 37580, Tempo, 894055
1, 37620, Note_on_c, 0, 67, 0
1, 37620, Note_on_c, 0, 79, 57
1, 37640, Tempo, 887574
1, 37680, Tempo, 881187
1, 37680, Note_on_c, 0, 79, 0
1, 37680, Note_on_c, 0, 64, 0
1, 37680, Note_on_c, 0, 60, 0
1, 37680, Note_on_c, 0, 69, 64
1, 37720, Tempo, 874763
1, 37740, Note_on_c, 0, 69, 0
1, 37740, Note_on_c, 0, 79, 63
1, 37780, Tempo, 868558
1, 37789, Control_c, 0, 64, 0
1, 37800, Note_on_c, 0, 79, 0
1, 37800, Note_on_c, 0, 71, 66
1, 37800, Note_on_c, 0, 65, 40
1, 37800, Note_on_c, 0, 67, 40
1, 37820, Tempo, 862441
1, 37860, Tempo, 856287
1, 37860, Note_on_c, 0, 71, 0
1, 37860, Note_on_c, 0, 79, 63
1, 37890, Note_on_c, 0, 67, 0
1, 37890, Note_on_c, 0, 65, 0
1, 37900, Tempo, 850340
1, 37920, Note_on_c, 0, 79, 0
1, 37920, Note_on_c, 0, 72, 68
1, 37920, Note_on_c, 0, 64, 43
1, 37920, Note_on_c, 0, 67, 43
1, 37980, Note_on_c, 0, 72, 0
1, 37980, Note_on_c, 0, 79, 66
1, 38010, Note_on_c, 0, 67, 0
1, 38010, Note_on_c, 0, 64, 0
1, 38040, Note_on_c, 0, 79, 0
1, 38040, Note_on_c, 0, 74, 70
1, 38040, Note_on_c, 0, 62, 46
1, 38040, Note_on_c, 0, 65, 46
1, 38040, Note_on_c, 0, 67, 46
1, 38100, Note_on_c, 0, 74, 0
1, 38100, Note_on_c, 0, 79, 65
1, 38120, Tempo, 844476
1, 38130, Note_on_c, 0, 62, 0
1, 38130, Note_on_c, 0, 67, 0
1, 38130, Note_on_c, 0, 65, 0
1, 38160, Tempo, 856287
1, 38160, Note_on_c, 0, 79, 0
1, 38160, Note_on_c, 0, 76, 72
1, 38160, Note_on_c, 0, 60, 49
1, 38160, Note_on_c, 0, 64, 49
1, 38160, Note_on_c, 0, 67, 49
1, 38220, Tempo, 907441
1, 38220, Note_on_c, 0, 76, 0
1, 38220, Note_on_c, 0, 79, 63
1, 38280, Tempo, 907441
1, 38280, Note_on_c, 0, 79, 0
1, 38280, Note_on_c, 0, 84, 67
1, 38340, Note_on_c, 0, 84, 0
1, 38340, Note_on_c, 0, 83, 62
1, 38400, Note_on_c, 0, 83, 0
1, 38400, Note_on_c, 0, 67, 0
1, 38400, Note_on_c, 0, 64, 0
1, 38400, Note_on_c, 0, 60, 0
1, 38400, Note_on_c, 0, 81, 67
1, 38400, Note_on_c, 0, 53, 42
1, 38400, Note_on_c, 0, 57, 42
1, 38420, Tempo, 856287
1, 38440, Tempo, 868558
1, 38460, Note_on_c, 0, 81, 0
1, 38460, Note_on_c, 0, 79, 62
1, 38520, Note_on_c, 0, 79, 0
1, 38520, Note_on_c, 0, 77, 67
1, 38580, Note_on_c, 0, 77, 0
1, 38580, Note_on_c, 0, 76, 61
1, 38640, Note_on_c, 0, 76, 0
1, 38640, Note_on_c, 0, 57, 0
1, 38640, Note_on_c, 0, 53, 0
1, 38640, Note_on_c, 0, 74, 69
1, 38640, Note_on_c, 0, 55, 42
1, 38640, Note_on_c, 0, 59, 42
1, 38700, Note_on_c, 0, 74, 0
1, 38700, Note_on_c, 0, 79, 63
1, 38720, Tempo, 868558
1, 38760, Note_on_c, 0, 79, 0
1, 38760, Note_on_c, 0, 77, 69
1, 38780, Tempo, 868558
1, 38800, Tempo, 887574
1, 38820, Tempo, 907441
1, 38820, Note_on_c, 0, 77, 0
1, 38820, Note_on_c, 0, 74, 64
1, 38840, Tempo, 928218
1, 38860, Tempo, 949968
1, 38880, Tempo, 972763
1, 38880, Note_on_c, 0, 74, 0
1, 38880, Note_on_c, 0, 59, 0
1, 38880, Note_on_c, 0, 55, 0
1, 38880, Note_on_c, 0, 72, 64
1, 38880, Note_on_c, 0, 60, 45
1, 38900, Tempo, 921234
1, 38912, Control_c, 0, 64, 127
1, 38940, Tempo, 914216
1, 38940, Note_on_c, 0, 72, 0
1, 38940, Note_on_c, 0, 79, 57
1, 38980, Tempo, 907441
1, 39000, Note_on_c, 0, 79, 0
1, 39000, Note_on_c, 0, 67, 64
1, 39020, Tempo, 900766
1, 39060, Tempo, 894055
1, 39060, Note_on_c, 0, 67, 0
1, 39060, Note_on_c, 0, 79, 57
1, 39100, Tempo, 887574
1, 39120, Note_on_c, 0, 79, 0
1, 39120, Note_on_c, 0, 60, 0
1, 39120, Note_on_c, 0, 69, 64
1, 39140, Tempo, 881187
1, 39180, Tempo, 862441
1, 39180, Note_on_c, 0, 69, 0
1, 39180, Note_on_c, 0, 79, 63
1, 39229, Control_c, 0, 64, 0
1, 39240, Note_on_c, 0, 79, 0
1, 39240, Note_on_c, 0, 71, 66
1, 39240, Note_on_c, 0, 65, 40
1, 39240, Note_on_c, 0, 67, 40
1, 39260, Tempo, 856287
1, 39300, Note_on_c, 0, 71, 0
1, 39300, Note_on_c, 0, 79, 63
1, 39330, Note_on_c, 0, 67, 0
1, 39330, Note_on_c, 0, 65, 0
1, 39340, Tempo, 850340
1, 39360, Note_on_c, 0, 79, 0
1, 39360, Note_on_c, 0, 72, 68
1, 39360, Note_on_c, 0, 64, 43
1, 39360, Note_on_c, 0, 67, 43
1, 39420, Note_on_c, 0, 72, 0
1, 39420, Note_on_c, 0, 79, 66
1, 39450, Note_on_c, 0, 67, 0
1, 39450, Note_on_c, 0, 64, 0
1, 39480, Note_on_c, 0, 79, 0
1, 39480, Note_on_c, 0, 74, 70
1, 39480, Note_on_c, 0, 62, 46
1, 39480, Note_on_c, 0, 65, 46
1, 39480, Note_on_c, 0, 67, 46
1, 39540, Note_on_c, 0, 74, 0
1, 39540, Note_on_c, 0, 79, 65
1, 39560, Tempo, 844476
1, 39570, Note_on_c, 0, 62, 0
1, 39570, Note_on_c, 0, 67, 0
1, 39570, Note_on_c, 0, 65, 0
1, 39600, Note_on_c, 0, 79, 0
1, 39600, Note_on_c, 0, 76, 72
1, 39600, Note_on_c, 0, 60, 49
1, 39600, Note_on_c, 0, 64, 49
1, 39600, Note_on_c, 0, 67, 49
1, 39660, Tempo, 894055
1, 39660, Note_on_c, 0, 76, 0
1, 39660, Note_on_c, 0, 79, 65
1, 39720, Tempo, 907441
1, 39720, Note_on_c, 0, 79, 0
1, 39720, Note_on_c, 0, 84, 69
1, 39780, Note_on_c, 0, 84, 0
1, 39780, Note_on_c, 0, 83, 64
1, 39840, Note_on_c, 0, 83, 0
1, 39840, Note_on_c, 0, 67, 0
1, 39840, Note_on_c, 0, 64, 0
1, 39840, Note_on_c, 0, 60, 0
1, 39840, Note_on_c, 0, 81, 70
1, 39840, Note_on_c, 0, 53, 42
1, 39840, Note_on_c, 0, 57, 42
1, 39860, Tempo, 856287
1, 39900, Note_on_c, 0, 81, 0
1, 39900, Note_on_c, 0, 79, 60
1, 39960, Note_on_c, 0, 79, 0
1, 39960, Note_on_c, 0, 77, 64
1, 40020, Tempo, 862441
1, 40020, Note_on_c, 0, 77, 0
1, 40020, Note_on_c, 0, 76, 55
1, 40080, Note_on_c, 0, 76, 0
1, 40080, Note_on_c, 0, 57, 0
1, 40080, Note_on_c, 0, 53, 0
1, 40080, Note_on_c, 0, 74, 65
1, 40080, Note_on_c, 0, 55, 42
1, 40080, Note_on_c, 0, 59, 42
1, 40140, Note_on_c, 0, 74, 0
1, 40140, Note_on_c, 0, 79, 57
1, 40160, Tempo, 868558
1, 40200, Note_on_c, 0, 79, 0
1, 40200, Note_on_c, 0, 77, 63
1, 40260, Tempo, 965096
1, 40260, Note_on_c, 0, 77, 0
1, 40260, Note_on_c, 0, 74, 53
1, 40320, Tempo, 942655
1, 40320, Note_on_c, 0, 74, 0
1, 40320, Note_on_c, 0, 59, 0
1, 40320, Note_on_c, 0, 55, 0
1, 40320, Note_on_c, 0, 76, 57
1, 40320, Note_on_c, 0, 59, 42
1, 40320, Note_on_c, 0, 56, 42
1, 40380, Note_on_c, 0, 76, 0
1, 40380, Note_on_c, 0, 77, 50
1, 40440, Note_on_c, 0, 77, 0
1, 40440, Note_on_c, 0, 76, 50
1, 40500, Tempo, 980552
1, 40500, Note_on_c, 0, 76, 0
1, 40500, Note_on_c, 0, 75, 50
1, 40560, Tempo, 935308
1, 40560, Note_on_c, 0, 75, 0
1, 40560, Note_on_c, 0, 56, 0
1, 40560, Note_on_c, 0, 59, 0
1, 40560, Note_on_c, 0, 76, 57
1, 40620, Note_on_c, 0, 76, 0
1, 40620, Note_on_c, 0, 71, 49
1, 40680, Note_on_c, 0, 71, 0
1, 40680, Note_on_c, 0, 76, 54
1, 40740, Tempo, 972763
1, 40740, Note_on_c, 0, 76, 0
1, 40740, Note_on_c, 0, 75, 52
1, 40800, Tempo, 944882
1, 40800, Note_on_c, 0, 75, 0
1, 40800, Note_on_c, 0, 76, 57
1, 40860, Note_on_c, 0, 76, 0
1, 40860, Note_on_c, 0, 71, 51
1, 40920, Tempo, 907441
1, 40920, Note_on_c, 0, 71, 0
1, 40920, Note_on_c, 0, 76, 54
1, 40980, Tempo, 1048218
1, 40980, Note_on_c, 0, 76, 0
1, 40980, Note_on_c, 0, 75, 49
1, 41040, Tempo, 894055
1, 41040, Note_on_c, 0, 75, 0
1, 41040, Note_on_c, 0, 76, 57
1, 41400, Note_on_c, 0, 76, 0
1, 41400, Note_on_c, 0, 71, 52
1, 41520, Note_on_c, 0, 71, 0
1, 41520, Note_on_c, 0, 76, 57
1, 41640, Tempo, 928218
1, 41640, Note_on_c, 0, 76, 0
1, 41640, Note_on_c, 0, 75, 49
1, 41760, Tempo, 868558
1, 41760, Note_on_c, 0, 75, 0
1, 41760, Note_on_c, 0, 76, 56
1, 42120, Tempo, 909642
1, 42120, Note_on_c, 0, 76, 0
1, 42120, Note_on_c, 0, 71, 42
1, 42132, Tempo, 850943
1, 42200, Tempo, 856287
1, 42240, Tempo, 844476
1, 42240, Note_on_c, 0, 71, 0
1, 42240, Note_on_c, 0, 76, 50
1, 42330, Note_on_c, 0, 76, 0
1, 42360, Note_on_c, 0, 75, 42
1, 42440, Tempo, 850340
1, 42480, Tempo, 862441
1, 42480, Note_on_c, 0, 75, 0
1, 42480, Note_on_c, 0, 76, 48
1, 42570, Note_on_c, 0, 76, 0
1, 42600, Tempo, 868558
1, 42600, Note_on_c, 0, 75, 39
1, 42700, Tempo, 874763
1, 42720, Note_on_c, 0, 75, 0
1, 42720, Note_on_c, 0, 76, 41
1, 42800, Tempo, 881187
1, 42810, Note_on_c, 0, 76, 0
1, 42840, Note_on_c, 0, 75, 35
1, 42900, Tempo, 887574
1, 42960, Note_on_c, 0, 75, 0
1, 42960, Note_on_c, 0, 76, 37
1, 43000, Tempo, 894055
1, 43050, Note_on_c, 0, 76, 0
1, 43080, Note_on_c, 0, 75, 34
1, 43100, Tempo, 900766
1, 43200, Tempo, 907441
1, 43200, Note_on_c, 0, 75, 0
1, 43200, Note_on_c, 0, 76, 40
1, 43220, Tempo, 874763
1, 43320, Tempo, 900766
1, 43320, Note_on_c, 0, 76, 0
1, 43320, Note_on_c, 0, 75, 36
1, 43424, Tempo, 907441
1, 43440, Tempo, 949968
1, 43440, Note_on_c, 0, 75, 0
1, 43440, Note_on_c, 0, 76, 40
1, 43532, Tempo, 856287
1, 43560, Tempo, 887574
1, 43560, Note_on_c, 0, 76, 0
1, 43560, Note_on_c, 0, 71, 36
1, 43680, Tempo, 868558
1, 43680, Note_on_c, 0, 71, 0
1, 43680, Note_on_c, 0, 74, 43
1, 43800, Tempo, 956175
1, 43800, Note_on_c, 0, 74, 0
1, 43800, Note_on_c, 0, 72, 35
1, 43920, Tempo, 867303
1, 43920, Note_on_c, 0, 72, 0
1, 43920, Note_on_c, 0, 69, 45
1, 43920, Note_on_c, 0, 45, 35
1, 43984, Control_c, 0, 64, 127
1, 44040, Note_on_c, 0, 45, 0
1, 44040, Note_on_c, 0, 52, 31
1, 44160, Note_on_c, 0, 52, 0
1, 44160, Note_on_c, 0, 69, 0
1, 44160, Note_on_c, 0, 57, 31
1, 44280, Tempo, 837287
1, 44280, Note_on_c, 0, 57, 0
1, 44280, Note_on_c, 0, 60, 34
1, 44400, Note_on_c, 0, 60, 0
1, 44400, Note_on_c, 0, 64, 38
1, 44520, Tempo, 926927
1, 44520, Note_on_c, 0, 64, 0
1, 44520, Note_on_c, 0, 69, 42
1, 44640, Tempo, 867303
1, 44640, Note_on_c, 0, 69, 0
1, 44640, Note_on_c, 0, 71, 46
1, 44640, Note_on_c, 0, 40, 40
1, 44659, Control_c, 0, 64, 0
1, 44697, Control_c, 0, 64, 127
1, 44760, Note_on_c, 0, 40, 0
1, 44760, Note_on_c, 0, 52, 33
1, 44880, Tempo, 843289
1, 44880, Note_on_c, 0, 52, 0
1, 44880, Note_on_c, 0, 71, 0
1, 44880, Note_on_c, 0, 56, 34
1, 45000, Note_on_c, 0, 56, 0
1, 45000, Note_on_c, 0, 64, 36
1, 45120, Note_on_c, 0, 64, 0
1, 45120, Note_on_c, 0, 68, 39
1, 45240, Tempo, 956175
1, 45240, Note_on_c, 0, 68, 0
1, 45240, Note_on_c, 0, 71, 42
1, 45360, Tempo, 867303
1, 45360, Note_on_c, 0, 71, 0
1, 45360, Note_on_c, 0, 72, 45
1, 45360, Note_on_c, 0, 45, 38
1, 45366, Control_c, 0, 64, 0
1, 45411, Control_c, 0, 64, 127
1, 45480, Note_on_c, 0, 45, 0
1, 45480, Note_on_c, 0, 52, 35
1, 45600, Note_on_c, 0, 52, 0
1, 45600, Note_on_c, 0, 72, 0
1, 45600, Note_on_c, 0, 57, 35
1, 45720, Note_on_c, 0, 57, 0
1, 45720, Note_on_c, 0, 64, 35
1, 45754, Control_c, 0, 64, 0
1, 45824, Tempo, 881187
1, 45840, Note_on_c, 0, 64, 0
1, 45840, Note_on_c, 0, 76, 38
1, 45852, Tempo, 881187
1, 45892, Tempo, 874763
1, 45932, Tempo, 868558
1, 45960, Note_on_c, 0, 76, 0
1, 45960, Note_on_c, 0, 75, 34
1, 45972, Tempo, 862441
1, 46012, Tempo, 856287
1, 46052, Tempo, 850340
1, 46080, Tempo, 850340
1, 46080, Note_on_c, 0, 75, 0
1, 46080, Note_on_c, 0, 76, 41
1, 46200, Note_on_c, 0, 76, 0
1, 46200, Note_on_c, 0, 75, 37
1, 46320, Tempo, 838574
1, 46320, Note_on_c, 0, 75, 0
1, 46320, Note_on_c, 0, 76, 46
1, 46340, Tempo, 837287
1, 46360, Tempo, 843289
1, 46380, Tempo, 849137
1, 46400, Tempo, 854944
1, 46420, Tempo, 861203
1, 46440, Tempo, 873490
1, 46440, Note_on_c, 0, 76, 0
1, 46440, Note_on_c, 0, 71, 39
1, 46560, Note_on_c, 0, 71, 0
1, 46560, Note_on_c, 0, 74, 48
1, 46680, Tempo, 907441
1, 46680, Note_on_c, 0, 74, 0
1, 46680, Note_on_c, 0, 72, 39
1, 46800, Tempo, 867303
1, 46800, Note_on_c, 0, 72, 0
1, 46800, Note_on_c, 0, 69, 48
1, 46800, Note_on_c, 0, 45, 38
1, 46857, Control_c, 0, 64, 127
1, 46920, Note_on_c, 0, 45, 0
1, 46920, Note_on_c, 0, 52, 35
1, 47040, Note_on_c, 0, 52, 0
1, 47040, Note_on_c, 0, 69, 0
1, 47040, Note_on_c, 0, 57, 34
1, 47160, Tempo, 843289
1, 47160, Note_on_c, 0, 57, 0
1, 47160, Note_on_c, 0, 60, 34
1, 47280, Note_on_c, 0, 60, 0
1, 47280, Note_on_c, 0, 64, 37
1, 47400, Tempo, 926927
1, 47400, Note_on_c, 0, 64, 0
1, 47400, Note_on_c, 0, 69, 41
1, 47520, Tempo, 867303
1, 47520, Note_on_c, 0, 69, 0
1, 47520, Note_on_c, 0, 71, 45
1, 47520, Note_on_c, 0, 40, 38
1, 47531, Control_c, 0, 64, 0
1, 47589, Control_c, 0, 64, 127
1, 47640, Note_on_c, 0, 40, 0
1, 47640, Note_on_c, 0, 52, 37
1, 47760, Tempo, 862441
1, 47760, Note_on_c, 0, 52, 0
1, 47760, Note_on_c, 0, 71, 0
1, 47760, Note_on_c, 0, 56, 37
1, 47880, Tempo, 900766
1, 47880, Note_on_c, 0, 56, 0
1, 47880, Note_on_c, 0, 64, 37
1, 48000, Note_on_c, 0, 64, 0
1, 48000, Note_on_c, 0, 72, 40
1, 48120, Tempo, 928218
1, 48120, Note_on_c, 0, 72, 0
1, 48120, Note_on_c, 0, 71, 38
1, 48240, Tempo, 942655
1, 48240, Note_on_c, 0, 71, 0
1, 48240, Note_on_c, 0, 69, 40
1, 48240, Note_on_c, 0, 45, 38
1, 48258, Control_c, 0, 64, 0
1, 48296, Control_c, 0, 64, 127
1, 48360, Tempo, 894055
1, 48360, Note_on_c, 0, 45, 0
1, 48360, Note_on_c, 0, 52, 32
1, 48480, Tempo, 874763
1, 48480, Note_on_c, 0, 52, 0
1, 48480, Note_on_c, 0, 69, 0
1, 48480, Note_on_c, 0, 57, 32
1, 48522, Control_c, 0, 64, 0
1, 48600, Tempo, 884956
1, 48600, Note_on_c, 0, 57, 0
1, 48600, Note_on_c, 0, 71, 44
1, 48720, Note_on_c, 0, 71, 0
1, 48720, Note_on_c, 0, 72, 46
1, 48840, Tempo, 914634
1, 48840, Note_on_c, 0, 72, 0
1, 48840, Note_on_c, 0, 74, 48
1, 48960, Tempo, 855920
1, 48960, Note_on_c, 0, 74, 0
1, 48960, Note_on_c, 0, 76, 52
1, 48960, Note_on_c, 0, 48, 44
1, 48971, Control_c, 0, 64, 0
1, 49029, Control_c, 0, 64, 127
1, 49080, Note_on_c, 0, 48, 0
1, 49080, Note_on_c, 0, 55, 38
1, 49200, Tempo, 887574
1, 49200, Note_on_c, 0, 55, 0
1, 49200, Note_on_c, 0, 60, 39
1, 49320, Tempo, 867428
1, 49320, Note_on_c, 0, 60, 0
1, 49320, Note_on_c, 0, 76, 0
1, 49320, Note_on_c, 0, 67, 40
1, 49440, Tempo, 873235
1, 49440, Note_on_c, 0, 67, 0
1, 49440, Note_on_c, 0, 77, 46
1, 49560, Note_on_c, 0, 77, 0
1, 49560, Note_on_c, 0, 76, 43
1, 49680, Tempo, 855920
1, 49680, Note_on_c, 0, 76, 0
1, 49680, Note_on_c, 0, 74, 50
1, 49680, Note_on_c, 0, 43, 44
1, 49691, Control_c, 0, 64, 0
1, 49749, Control_c, 0, 64, 127
1, 49800, Note_on_c, 0, 43, 0
1, 49800, Note_on_c, 0, 55, 38
1, 49920, Tempo, 887574
1, 49920, Note_on_c, 0, 55, 0
1, 49920, Note_on_c, 0, 59, 39
1, 50020, Tempo, 867428
1, 50040, Tempo, 879121
1, 50040, Note_on_c, 0, 59, 0
1, 50040, Note_on_c, 0, 74, 0
1, 50040, Note_on_c, 0, 65, 40
1, 50160, Tempo, 879121
1, 50160, Note_on_c, 0, 65, 0
1, 50160, Note_on_c, 0, 76, 46
1, 50280, Note_on_c, 0, 76, 0
1, 50280, Note_on_c, 0, 74, 43
1, 50400, Tempo, 855920
1, 50400, Note_on_c, 0, 74, 0
1, 50400, Note_on_c, 0, 72, 50
1, 50400, Note_on_c, 0, 45, 44
1, 50411, Control_c, 0, 64, 0
1, 50469, Control_c, 0, 64, 127
1, 50520, Note_on_c, 0, 45, 0
1, 50520, Note_on_c, 0, 52, 38
1, 50640, Tempo, 887574
1, 50640, Note_on_c, 0, 52, 0
1, 50640, Note_on_c, 0, 57, 39
1, 50760, Tempo, 903342
1, 50760, Note_on_c, 0, 57, 0
1, 50760, Note_on_c, 0, 72, 0
1, 50760, Note_on_c, 0, 64, 40
1, 50880, Tempo, 868558
1, 50880, Note_on_c, 0, 64, 0
1, 50880, Note_on_c, 0, 74, 46
1, 51000, Tempo, 874763
1, 51000, Note_on_c, 0, 74, 0
1, 51000, Note_on_c, 0, 72, 43
1, 51120, Tempo, 867428
1, 51120, Note_on_c, 0, 72, 0
1, 51120, Note_on_c, 0, 71, 50
1, 51120, Note_on_c, 0, 40, 44
1, 51131, Control_c, 0, 64, 0
1, 51189, Control_c, 0, 64, 127
1, 51240, Note_on_c, 0, 40, 0
1, 51240, Note_on_c, 0, 52, 38
1, 51360, Tempo, 909642
1, 51360, Note_on_c, 0, 52, 0
1, 51360, Note_on_c, 0, 71, 0
1, 51360, Note_on_c, 0, 64, 39
1, 51450, Note_on_c, 0, 64, 0
1, 51480, Tempo, 856287
1, 51480, Note_on_c, 0, 64, 39
1, 51600, Tempo, 896861
1, 51600, Note_on_c, 0, 64, 0
1, 51600, Note_on_c, 0, 76, 45
1, 51690, Note_on_c, 0, 76, 0
1, 51720, Tempo, 856287
1, 51720, Note_on_c, 0, 64, 39
1, 51840, Tempo, 903342
1, 51840, Note_on_c, 0, 64, 0
1, 51840, Note_on_c, 0, 76, 44
1, 51930, Note_on_c, 0, 76, 0
1, 51960, Tempo, 921234
1, 51960, Note_on_c, 0, 76, 43
1, 52080, Tempo, 900766
1, 52080, Note_on_c, 0, 76, 0
1, 52080, Note_on_c, 0, 88, 48
1, 52158, Control_c, 0, 64, 0
1, 52170, Note_on_c, 0, 88, 0
1, 52200, Tempo, 909642
1, 52200, Note_on_c, 0, 75, 42
1, 52212, Tempo, 850943
1, 52280, Tempo, 856287
1, 52320, Tempo, 844476
1, 52320, Note_on_c, 0, 75, 0
1, 52320, Note_on_c, 0, 76, 50
1, 52410, Note_on_c, 0, 76, 0
1, 52440, Note_on_c, 0, 75, 42
1, 52520, Tempo, 850340
1, 52560, Tempo, 862441
1, 52560, Note_on_c, 0, 75, 0
1, 52560, Note_on_c, 0, 76, 48
1, 52650, Note_on_c, 0, 76, 0
1, 52680, Tempo, 868558
1, 52680, Note_on_c, 0, 75, 39
1, 52780, Tempo, 874763
1, 52800, Note_on_c, 0, 75, 0
1, 52800, Note_on_c, 0, 76, 41
1, 52880, Tempo, 881187
1, 52890, Note_on_c, 0, 76, 0
1, 52920, Note_on_c, 0, 75, 35
1, 52980, Tempo, 887574
1, 53040, Note_on_c, 0, 75, 0
1, 53040, Note_on_c, 0, 76, 37
1, 53080, Tempo, 894055
1, 53160, Note_on_c, 0, 76, 0
1, 53160, Note_on_c, 0, 75, 34
1, 53180, Tempo, 900766
1, 53280, Tempo, 907441
1, 53280, Note_on_c, 0, 75, 0
1, 53280, Note_on_c, 0, 76, 40
1, 53300, Tempo, 874763
1, 53400, Tempo, 900766
1, 53400, Note_on_c, 0, 76, 0
1, 53400, Note_on_c, 0, 75, 36
1, 53504, Tempo, 907441
1, 53520, Tempo, 949968
1, 53520, Note_on_c, 0, 75, 0
1, 53520, Note_on_c, 0, 76, 43
1, 53600, Tempo, 900766
1, 53640, Note_on_c, 0, 76, 0
1, 53640, Note_on_c, 0, 71, 38
1, 53760, Tempo, 874763
1, 53760, Note_on_c, 0, 71, 0
1, 53760, Note_on_c, 0, 74, 44
1, 53880, Tempo, 956175
1, 53880, Note_on_c, 0, 74, 0
1, 53880, Note_on_c, 0, 72, 38
1, 54000, Tempo, 867303
1, 54000, Note_on_c, 0, 72, 0
1, 54000, Note_on_c, 0, 69, 47
1, 54000, Note_on_c, 0, 45, 35
1, 54064, Control_c, 0, 64, 127
1, 54120, Note_on_c, 0, 45, 0
1, 54120, Note_on_c, 0, 52, 33
1, 54240, Note_on_c, 0, 52, 0
1, 54240, Note_on_c, 0, 69, 0
1, 54240, Note_on_c, 0, 57, 33
1, 54360, Tempo, 837287
1, 54360, Note_on_c, 0, 57, 0
1, 54360, Note_on_c, 0, 60, 34
1, 54480, Note_on_c, 0, 60, 0
1, 54480, Note_on_c, 0, 64, 38
1, 54600, Tempo, 926927
1, 54600, Note_on_c, 0, 64, 0
1, 54600, Note_on_c, 0, 69, 42
1, 54720, Tempo, 867303
1, 54720, Note_on_c, 0, 69, 0
1, 54720, Note_on_c, 0, 71, 46
1, 54720, Note_on_c, 0, 40, 37
1, 54739, Control_c, 0, 64, 0
1, 54777, Control_c, 0, 64, 127
1, 54840, Note_on_c, 0, 40, 0
1, 54840, Note_on_c, 0, 52, 33
1, 54960, Tempo, 843289
1, 54960, Note_on_c, 0, 52, 0
1, 54960, Note_on_c, 0, 71, 0
1, 54960, Note_on_c, 0, 56, 34
1, 55080, Note_on_c, 0, 56, 0
1, 55080, Note_on_c, 0, 64, 36
1, 55200, Note_on_c, 0, 64, 0
1, 55200, Note_on_c, 0, 68, 39
1, 55320, Tempo, 956175
1, 55320, Note_on_c, 0, 68, 0
1, 55320, Note_on_c, 0, 71, 42
1, 55440, Tempo, 867303
1, 55440, Note_on_c, 0, 71, 0
1, 55440, Note_on_c, 0, 72, 45
1, 55440, Note_on_c, 0, 45, 38
1, 55446, Control_c, 0, 64, 0
1, 55491, Control_c, 0, 64, 127
1, 55560, Note_on_c, 0, 45, 0
1, 55560, Note_on_c, 0, 52, 33
1, 55680, Note_on_c, 0, 52, 0
1, 55680, Note_on_c, 0, 72, 0
1, 55680, Note_on_c, 0, 57, 33
1, 55800, Note_on_c, 0, 57, 0
1, 55800, Note_on_c, 0, 64, 35
1, 55834, Control_c, 0, 64, 0
1, 55920, Tempo, 868558
1, 55920, Note_on_c, 0, 64, 0
1, 55920, Note_on_c, 0, 76, 38
1, 55984, Tempo, 862441
1, 56040, Tempo, 856287
1, 56040, Note_on_c, 0, 76, 0
1, 56040, Note_on_c, 0, 75, 34
1, 56104, Tempo, 850340
1, 56160, Tempo, 844476
1, 56160, Note_on_c, 0, 75, 0
1, 56160, Note_on_c, 0, 76, 41
1, 56184, Tempo, 838574
1, 56280, Note_on_c, 0, 76, 0
1, 56280, Note_on_c, 0, 75, 37
1, 56380, Tempo, 832871
1, 56400, Tempo, 838574
1, 56400, Note_on_c, 0, 75, 0
1, 56400, Note_on_c, 0, 76, 41
1, 56420, Tempo, 844476
1, 56440, Tempo, 850340
1, 56460, Tempo, 856287
1, 56464, Tempo, 844476
1, 56520, Tempo, 881187
1, 56520, Note_on_c, 0, 76, 0
1, 56520, Note_on_c, 0, 71, 34
1, 56640, Note_on_c, 0, 71, 0
1, 56640, Note_on_c, 0, 74, 45
1, 56760, Tempo, 900766
1, 56760, Note_on_c, 0, 74, 0
1, 56760, Note_on_c, 0, 72, 36
1, 56880, Tempo, 867303
1, 56880, Note_on_c, 0, 72, 0
1, 56880, Note_on_c, 0, 69, 46
1, 56880, Note_on_c, 0, 45, 36
1, 56937, Control_c, 0, 64, 127
1, 57000, Note_on_c, 0, 45, 0
1, 57000, Note_on_c, 0, 52, 35
1, 57120, Note_on_c, 0, 52, 0
1, 57120, Note_on_c, 0, 69, 0
1, 57120, Note_on_c, 0, 57, 34
1, 57240, Tempo, 843289
1, 57240, Note_on_c, 0, 57, 0
1, 57240, Note_on_c, 0, 60, 34
1, 57360, Note_on_c, 0, 60, 0
1, 57360, Note_on_c, 0, 64, 37
1, 57480, Tempo, 926927
1, 57480, Note_on_c, 0, 64, 0
1, 57480, Note_on_c, 0, 69, 41
1, 57600, Tempo, 867303
1, 57600, Note_on_c, 0, 69, 0
1, 57600, Note_on_c, 0, 71, 45
1, 57600, Note_on_c, 0, 40, 38
1, 57611, Control_c, 0, 64, 0
1, 57669, Control_c, 0, 64, 127
1, 57720, Note_on_c, 0, 40, 0
1, 57720, Note_on_c, 0, 52, 37
1, 57840, Tempo, 874763
1, 57840, Note_on_c, 0, 52, 0
1, 57840, Note_on_c, 0, 71, 0
1, 57840, Note_on_c, 0, 56, 37
1, 57960, Tempo, 907441
1, 57960, Note_on_c, 0, 56, 0
1, 57960, Note_on_c, 0, 64, 37
1, 58080, Tempo, 894055
1, 58080, Note_on_c, 0, 64, 0
1, 58080, Note_on_c, 0, 72, 40
1, 58200, Tempo, 900766
1, 58200, Note_on_c, 0, 72, 0
1, 58200, Note_on_c, 0, 71, 38
1, 58320, Tempo, 919963
1, 58320, Note_on_c, 0, 71, 0
1, 58320, Note_on_c, 0, 69, 40
1, 58320, Note_on_c, 0, 45, 38
1, 58338, Control_c, 0, 64, 0
1, 58410, Note_on_c, 0, 45, 0
1, 58440, Tempo, 874763
1, 58440, Note_on_c, 0, 45, 35
1, 58530, Note_on_c, 0, 45, 0
1, 58560, Note_on_c, 0, 69, 0
1, 58560, Note_on_c, 0, 45, 38
1, 58650, Note_on_c, 0, 45, 0
1, 58680, Note_on_c, 0, 45, 34
1, 58770, Note_on_c, 0, 45, 0
1, 58800, Note_on_c, 0, 45, 38
1, 58890, Note_on_c, 0, 45, 0
1, 58920, Note_on_c, 0, 45, 35
1, 59010, Note_on_c, 0, 45, 0
1, 59032, Tempo, 881187
1, 59040, Note_on_c, 0, 64, 45
1, 59040, Note_on_c, 0, 67, 45
1, 59040, Note_on_c, 0, 70, 45
1, 59040, Note_on_c, 0, 73, 53
1, 59040, Note_on_c, 0, 45, 44
1, 59044, Tempo, 874763
1, 59060, Tempo, 868558
1, 59072, Tempo, 862441
1, 59084, Tempo, 856287
1, 59112, Tempo, 894055
1, 59124, Tempo, 887574
1, 59130, Note_on_c, 0, 45, 0
1, 59140, Tempo, 874763
1, 59152, Tempo, 868558
1, 59160, Note_on_c, 0, 45, 38
1, 59180, Tempo, 862441
1, 59192, Tempo, 856287
1, 59244, Tempo, 862441
1, 59250, Note_on_c, 0, 45, 0
1, 59260, Tempo, 868558
1, 59272, Tempo, 874763
1, 59280, Note_on_c, 0, 45, 45
1, 59300, Tempo, 862441
1, 59324, Tempo, 856287
1, 59340, Tempo, 850340
1, 59352, Tempo, 844476
1, 59370, Note_on_c, 0, 45, 0
1, 59380, Tempo, 862441
1, 59392, Tempo, 894055
1, 59400, Note_on_c, 0, 45, 39
1, 59404, Tempo, 881187
1, 59432, Tempo, 874763
1, 59444, Tempo, 868558
1, 59460, Tempo, 862441
1, 59472, Tempo, 856287
1, 59484, Tempo, 850340
1, 59490, Note_on_c, 0, 45, 0
1, 59512, Tempo, 844476
1, 59520, Note_on_c, 0, 45, 46
1, 59540, Tempo, 862441
1, 59552, Tempo, 856287
1, 59580, Tempo, 862441
1, 59610, Note_on_c, 0, 45, 0
1, 59640, Tempo, 856287
1, 59640, Note_on_c, 0, 45, 40
1, 59660, Tempo, 850340
1, 59700, Tempo, 980552
1, 59730, Note_on_c, 0, 45, 0
1, 59760, Tempo, 850340
1, 59760, Note_on_c, 0, 73, 0
1, 59760, Note_on_c, 0, 64, 0
1, 59760, Note_on_c, 0, 67, 0
1, 59760, Note_on_c, 0, 70, 0
1, 59760, Note_on_c, 0, 65, 49
1, 59760, Note_on_c, 0, 69, 49
1, 59760, Note_on_c, 0, 74, 59
1, 59760, Note_on_c, 0, 45, 47
1, 59768, Tempo, 844476
1, 59780, Tempo, 838574
1, 59808, Tempo, 832871
1, 59820, Tempo, 856287
1, 59828, Tempo, 862441
1, 59848, Tempo, 868558
1, 59850, Note_on_c, 0, 45, 0
1, 59868, Tempo, 862441
1, 59880, Tempo, 856287
1, 59880, Note_on_c, 0, 45, 42
1, 59888, Tempo, 844476
1, 59900, Tempo, 838574
1, 59920, Tempo, 832871
1, 59940, Tempo, 827130
1, 59948, Tempo, 821580
1, 59970, Note_on_c, 0, 45, 0
1, 59980, Tempo, 827130
1, 59988, Tempo, 844476
1, 60000, Tempo, 850340
1, 60000, Note_on_c, 0, 45, 48
1, 60008, Tempo, 844476
1, 60028, Tempo, 838574
1, 60048, Tempo, 827130
1, 60080, Tempo, 832871
1, 60088, Tempo, 844476
1, 60090, Note_on_c, 0, 45, 0
1, 60100, Tempo, 862441
1, 60120, Note_on_c, 0, 45, 43
1, 60140, Tempo, 856287
1, 60148, Tempo, 850340
1, 60168, Tempo, 844476
1, 60180, Tempo, 856287
1, 60210, Note_on_c, 0, 45, 0
1, 60240, Tempo, 881187
1, 60240, Note_on_c, 0, 74, 0
1, 60240, Note_on_c, 0, 69, 0
1, 60240, Note_on_c, 0, 65, 0
1, 60240, Note_on_c, 0, 73, 54
1, 60240, Note_on_c, 0, 76, 64
1, 60240, Note_on_c, 0, 45, 50
1, 60330, Note_on_c, 0, 45, 0
1, 60330, Note_on_c, 0, 76, 0
1, 60330, Note_on_c, 0, 73, 0
1, 60360, Tempo, 928218
1, 60360, Note_on_c, 0, 74, 59
1, 60360, Note_on_c, 0, 77, 70
1, 60360, Note_on_c, 0, 45, 47
1, 60450, Note_on_c, 0, 45, 0
1, 60450, Note_on_c, 0, 77, 0
1, 60450, Note_on_c, 0, 74, 0
1, 60480, Tempo, 856287
1, 60480, Note_on_c, 0, 68, 65
1, 60480, Note_on_c, 0, 74, 65
1, 60480, Note_on_c, 0, 77, 77
1, 60480, Note_on_c, 0, 45, 53
1, 60488, Tempo, 856287
1, 60500, Tempo, 850340
1, 60520, Tempo, 844476
1, 60528, Tempo, 838574
1, 60540, Tempo, 832871
1, 60568, Tempo, 844476
1, 60570, Note_on_c, 0, 45, 0
1, 60580, Tempo, 856287
1, 60588, Tempo, 868558
1, 60600, Note_on_c, 0, 45, 48
1, 60628, Tempo, 856287
1, 60640, Tempo, 850340
1, 60648, Tempo, 838574
1, 60660, Tempo, 862441
1, 60690, Note_on_c, 0, 45, 0
1, 60720, Note_on_c, 0, 45, 53
1, 60740, Tempo, 850340
1, 60752, Tempo, 844476
1, 60780, Tempo, 838574
1, 60804, Tempo, 832871
1, 60810, Note_on_c, 0, 45, 0
1, 60816, Tempo, 838574
1, 60828, Tempo, 844476
1, 60840, Note_on_c, 0, 45, 50
1, 60844, Tempo, 850340
1, 60856, Tempo, 856287
1, 60868, Tempo, 862441
1, 60884, Tempo, 874763
1, 60896, Tempo, 881187
1, 60908, Tempo, 887574
1, 60924, Tempo, 894055
1, 60930, Note_on_c, 0, 45, 0
1, 60936, Tempo, 907441
1, 60960, Tempo, 850340
1, 60960, Note_on_c, 0, 77, 0
1, 60960, Note_on_c, 0, 74, 0
1, 60960, Note_on_c, 0, 68, 0
1, 60960, Note_on_c, 0, 68, 63
1, 60960, Note_on_c, 0, 74, 63
1, 60960, Note_on_c, 0, 77, 75
1, 60960, Note_on_c, 0, 45, 54
1, 60968, Tempo, 862441
1, 61008, Tempo, 856287
1, 61020, Tempo, 850340
1, 61028, Tempo, 844476
1, 61050, Note_on_c, 0, 45, 0
1, 61060, Tempo, 856287
1, 61068, Tempo, 862441
1, 61080, Note_on_c, 0, 45, 50
1, 61140, Tempo, 1095490
1, 61170, Note_on_c, 0, 45, 0
1, 61200, Tempo, 850340
1, 61200, Note_on_c, 0, 77, 0
1, 61200, Note_on_c, 0, 74, 0
1, 61200, Note_on_c, 0, 68, 0
1, 61200, Note_on_c, 0, 69, 60
1, 61200, Note_on_c, 0, 72, 60
1, 61200, Note_on_c, 0, 76, 72
1, 61200, Note_on_c, 0, 45, 55
1, 61260, Tempo, 844476
1, 61290, Note_on_c, 0, 45, 0
1, 61320, Tempo, 838574
1, 61320, Note_on_c, 0, 45, 49
1, 61348, Tempo, 832871
1, 61360, Tempo, 862441
1, 61388, Tempo, 856287
1, 61400, Tempo, 850340
1, 61408, Tempo, 844476
1, 61410, Note_on_c, 0, 45, 0
1, 61420, Tempo, 838574
1, 61440, Note_on_c, 0, 45, 55
1, 61448, Tempo, 850340
1, 61460, Tempo, 862441
1, 61500, Tempo, 856287
1, 61508, Tempo, 844476
1, 61530, Note_on_c, 0, 45, 0
1, 61540, Tempo, 862441
1, 61560, Tempo, 868558
1, 61560, Note_on_c, 0, 45, 51
1, 61568, Tempo, 856287
1, 61580, Tempo, 844476
1, 61588, Tempo, 838574
1, 61620, Tempo, 832871
1, 61650, Note_on_c, 0, 45, 0
1, 61680, Note_on_c, 0, 45, 55
1, 61720, Tempo, 850340
1, 61728, Tempo, 856287
1, 61740, Tempo, 862441
1, 61768, Tempo, 856287
1, 61770, Note_on_c, 0, 45, 0
1, 61800, Tempo, 907441
1, 61800, Note_on_c, 0, 45, 52
1, 61860, Tempo, 965096
1, 61890, Note_on_c, 0, 45, 0
1, 61920, Note_on_c, 0, 76, 0
1, 61920, Note_on_c, 0, 72, 0
1, 61920, Note_on_c, 0, 69, 0
1, 61920, Note_on_c, 0, 65, 69
1, 61920, Note_on_c, 0, 74, 82
1, 61920, Note_on_c, 0, 38, 50
1, 61920, Note_on_c, 0, 45, 60
1, 61960, Tempo, 827130
1, 61988, Tempo, 868558
1, 62010, Note_on_c, 0, 45, 0
1, 62010, Note_on_c, 0, 38, 0
1, 62040, Tempo, 862441
1, 62040, Note_on_c, 0, 38, 46
1, 62040, Note_on_c, 0, 45, 55
1, 62048, Tempo, 850340
1, 62060, Tempo, 838574
1, 62068, Tempo, 832871
1, 62100, Tempo, 850340
1, 62108, Tempo, 856287
1, 62128, Tempo, 850340
1, 62130, Note_on_c, 0, 45, 0
1, 62130, Note_on_c, 0, 38, 0
1, 62148, Tempo, 844476
1, 62160, Note_on_c, 0, 38, 49
1, 62160, Note_on_c, 0, 45, 58
1, 62180, Tempo, 862441
1, 62188, Tempo, 856287
1, 62200, Tempo, 850340
1, 62208, Tempo, 844476
1, 62228, Tempo, 838574
1, 62250, Note_on_c, 0, 45, 0
1, 62250, Note_on_c, 0, 38, 0
1, 62260, Tempo, 832871
1, 62280, Note_on_c, 0, 38, 46
1, 62280, Note_on_c, 0, 45, 55
1, 62300, Tempo, 838574
1, 62308, Tempo, 832871
1, 62340, Tempo, 838574
1, 62360, Tempo, 844476
1, 62368, Tempo, 850340
1, 62370, Note_on_c, 0, 45, 0
1, 62370, Note_on_c, 0, 38, 0
1, 62400, Note_on_c, 0, 74, 0
1, 62400, Note_on_c, 0, 65, 0
1, 62400, Note_on_c, 0, 64, 61
1, 62400, Note_on_c, 0, 72, 73
1, 62400, Note_on_c, 0, 38, 48
1, 62400, Note_on_c, 0, 45, 57
1, 62460, Tempo, 914216
1, 62490, Note_on_c, 0, 45, 0
1, 62490, Note_on_c, 0, 64, 0
1, 62490, Note_on_c, 0, 72, 0
1, 62490, Note_on_c, 0, 38, 0
1, 62520, Tempo, 850340
1, 62520, Note_on_c, 0, 62, 61
1, 62520, Note_on_c, 0, 71, 73
1, 62520, Note_on_c, 0, 38, 44
1, 62520, Note_on_c, 0, 45, 52
1, 62610, Note_on_c, 0, 45, 0
1, 62610, Note_on_c, 0, 62, 0
1, 62610, Note_on_c, 0, 71, 0
1, 62610, Note_on_c, 0, 38, 0
1, 62640, Note_on_c, 0, 60, 67
1, 62640, Note_on_c, 0, 66, 67
1, 62640, Note_on_c, 0, 69, 79
1, 62640, Note_on_c, 0, 39, 46
1, 62640, Note_on_c, 0, 45, 55
1, 62730, Note_on_c, 0, 45, 0
1, 62730, Note_on_c, 0, 39, 0
1, 62760, Tempo, 856287
1, 62760, Note_on_c, 0, 39, 42
1, 62760, Note_on_c, 0, 45, 50
1, 62850, Note_on_c, 0, 45, 0
1, 62850, Note_on_c, 0, 39, 0
1, 62880, Note_on_c, 0, 39, 45
1, 62880, Note_on_c, 0, 45, 53
1, 62970, Note_on_c, 0, 45, 0
1, 62970, Note_on_c, 0, 39, 0
1, 63000, Note_on_c, 0, 39, 41
1, 63000, Note_on_c, 0, 45, 49
1, 63090, Note_on_c, 0, 45, 0
1, 63090, Note_on_c, 0, 39, 0
1, 63120, Tempo, 881187
1, 63120, Note_on_c, 0, 69, 0
1, 63120, Note_on_c, 0, 66, 0
1, 63120, Note_on_c, 0, 60, 0
1, 63120, Note_on_c, 0, 60, 66
1, 63120, Note_on_c, 0, 69, 78
1, 63120, Note_on_c, 0, 39, 42
1, 63120, Note_on_c, 0, 45, 51
1, 63210, Note_on_c, 0, 45, 0
1, 63210, Note_on_c, 0, 39, 0
1, 63240, Note_on_c, 0, 39, 42
1, 63240, Note_on_c, 0, 45, 50
1, 63330, Note_on_c, 0, 45, 0
1, 63330, Note_on_c, 0, 39, 0
1, 63360, Tempo, 856287
1, 63360, Note_on_c, 0, 69, 0
1, 63360, Note_on_c, 0, 60, 0
1, 63360, Note_on_c, 0, 60, 68
1, 63360, Note_on_c, 0, 69, 80
1, 63360, Note_on_c, 0, 40, 47
1, 63360, Note_on_c, 0, 45, 56
1, 63450, Note_on_c, 0, 45, 0
1, 63450, Note_on_c, 0, 40, 0
1, 63480, Note_on_c, 0, 40, 41
1, 63480, Note_on_c, 0, 45, 49
1, 63570, Note_on_c, 0, 45, 0
1, 63570, Note_on_c, 0, 40, 0
1, 63600, Tempo, 900766
1, 63600, Note_on_c, 0, 69, 0
1, 63600, Note_on_c, 0, 60, 0
1, 63600, Note_on_c, 0, 64, 66
1, 63600, Note_on_c, 0, 72, 78
1, 63600, Note_on_c, 0, 40, 44
1, 63600, Note_on_c, 0, 45, 52
1, 63690, Note_on_c, 0, 45, 0
1, 63690, Note_on_c, 0, 40, 0
1, 63720, Note_on_c, 0, 40, 41
1, 63720, Note_on_c, 0, 45, 49
1, 63810, Note_on_c, 0, 45, 0
1, 63810, Note_on_c, 0, 40, 0
1, 63840, Note_on_c, 0, 72, 0
1, 63840, Note_on_c, 0, 64, 0
1, 63840, Note_on_c, 0, 62, 61
1, 63840, Note_on_c, 0, 71, 73
1, 63840, Note_on_c, 0, 44, 50
1, 63840, Note_on_c, 0, 40, 42
1, 63930, Note_on_c, 0, 40, 0
1, 63930, Note_on_c, 0, 44, 0
1, 63960, Note_on_c, 0, 44, 50
1, 63960, Note_on_c, 0, 40, 42
1, 64020, Tempo, 988631
1, 64050, Note_on_c, 0, 40, 0
1, 64050, Note_on_c, 0, 44, 0
1, 64080, Tempo, 874763
1, 64080, Note_on_c, 0, 71, 0
1, 64080, Note_on_c, 0, 62, 0
1, 64080, Note_on_c, 0, 60, 56
1, 64080, Note_on_c, 0, 69, 67
1, 64080, Note_on_c, 0, 33, 42
1, 64080, Note_on_c, 0, 45, 50
1, 64170, Note_on_c, 0, 45, 0
1, 64170, Note_on_c, 0, 33, 0
1, 64200, Note_on_c, 0, 45, 42
1, 64290, Note_on_c, 0, 45, 0
1, 64320, Note_on_c, 0, 45, 45
1, 64410, Note_on_c, 0, 45, 0
1, 64440, Note_on_c, 0, 45, 42
1, 64530, Note_on_c, 0, 45, 0
1, 64560, Note_on_c, 0, 45, 44
1, 64650, Note_on_c, 0, 45, 0
1, 64680, Note_on_c, 0, 45, 42
1, 64770, Note_on_c, 0, 45, 0
1, 64792, Tempo, 874763
1, 64800, Note_on_c, 0, 69, 0
1, 64800, Note_on_c, 0, 60, 0
1, 64800, Note_on_c, 0, 64, 45
1, 64800, Note_on_c, 0, 67, 45
1, 64800, Note_on_c, 0, 70, 45
1, 64800, Note_on_c, 0, 73, 53
1, 64800, Note_on_c, 0, 45, 44
1, 64804, Tempo, 862441
1, 64820, Tempo, 856287
1, 64860, Tempo, 868558
1, 64872, Tempo, 887574
1, 64890, Note_on_c, 0, 45, 0
1, 64920, Note_on_c, 0, 45, 38
1, 64992, Tempo, 881187
1, 65004, Tempo, 868558
1, 65010, Note_on_c, 0, 45, 0
1, 65020, Tempo, 856287
1, 65040, Note_on_c, 0, 45, 45
1, 65044, Tempo, 850340
1, 65060, Tempo, 862441
1, 65072, Tempo, 887574
1, 65100, Tempo, 881187
1, 65112, Tempo, 862441
1, 65124, Tempo, 856287
1, 65130, Note_on_c, 0, 45, 0
1, 65140, Tempo, 850340
1, 65152, Tempo, 844476
1, 65160, Note_on_c, 0, 45, 39
1, 65204, Tempo, 850340
1, 65220, Tempo, 856287
1, 65250, Note_on_c, 0, 45, 0
1, 65260, Tempo, 850340
1, 65280, Tempo, 856287
1, 65280, Note_on_c, 0, 45, 46
1, 65300, Tempo, 850340
1, 65308, Tempo, 844476
1, 65340, Tempo, 862441
1, 65370, Note_on_c, 0, 45, 0
1, 65400, Tempo, 856287
1, 65400, Note_on_c, 0, 45, 40
1, 65420, Tempo, 850340
1, 65460, Tempo, 980552
1, 65490, Note_on_c, 0, 45, 0
1, 65520, Tempo, 850340
1, 65520, Note_on_c, 0, 73, 0
1, 65520, Note_on_c, 0, 64, 0
1, 65520, Note_on_c, 0, 67, 0
1, 65520, Note_on_c, 0, 70, 0
1, 65520, Note_on_c, 0, 65, 49
1, 65520, Note_on_c, 0, 69, 49
1, 65520, Note_on_c, 0, 74, 59
1, 65520, Note_on_c, 0, 45, 47
1, 65528, Tempo, 844476
1, 65540, Tempo, 838574
1, 65568, Tempo, 832871
1, 65580, Tempo, 856287
1, 65588, Tempo, 862441
1, 65592, Tempo, 887574
1, 65610, Note_on_c, 0, 45, 0
1, 65620, Tempo, 881187
1, 65632, Tempo, 874763
1, 65640, Note_on_c, 0, 45, 42
1, 65644, Tempo, 862441
1, 65660, Tempo, 850340
1, 65672, Tempo, 844476
1, 65684, Tempo, 838574
1, 65712, Tempo, 850340
1, 65730, Note_on_c, 0, 45, 0
1, 65760, Note_on_c, 0, 45, 48
1, 65792, Tempo, 844476
1, 65808, Tempo, 827130
1, 65840, Tempo, 832871
1, 65848, Tempo, 844476
1, 65850, Note_on_c, 0, 45, 0
1, 65860, Tempo, 862441
1, 65880, Note_on_c, 0, 45, 43
1, 65900, Tempo, 856287
1, 65908, Tempo, 850340
1, 65928, Tempo, 844476
1, 65940, Tempo, 856287
1, 65970, Note_on_c, 0, 45, 0
1, 66000, Tempo, 881187
1, 66000, Note_on_c, 0, 74, 0
1, 66000, Note_on_c, 0, 69, 0
1, 66000, Note_on_c, 0, 65, 0
1, 66000, Note_on_c, 0, 73, 54
1, 66000, Note_on_c, 0, 76, 64
1, 66000, Note_on_c, 0, 45, 50
1, 66090, Note_on_c, 0, 45, 0
1, 66090, Note_on_c, 0, 76, 0
1, 66090, Note_on_c, 0, 73, 0
1, 66120, Tempo, 928218
1, 66120, Note_on_c, 0, 74, 59
1, 66120, Note_on_c, 0, 77, 70
1, 66120, Note_on_c, 0, 45, 47
1, 66210, Note_on_c, 0, 45, 0
1, 66210, Note_on_c, 0, 77, 0
1, 66210, Note_on_c, 0, 74, 0
1, 66240, Tempo, 856287
1, 66240, Note_on_c, 0, 74, 65
1, 66240, Note_on_c, 0, 77, 77
1, 66240, Note_on_c, 0, 45, 53
1, 66248, Tempo, 856287
1, 66260, Tempo, 850340
1, 66280, Tempo, 844476
1, 66288, Tempo, 838574
1, 66300, Tempo, 832871
1, 66328, Tempo, 844476
1, 66330, Note_on_c, 0, 45, 0
1, 66340, Tempo, 856287
1, 66348, Tempo, 868558
1, 66360, Note_on_c, 0, 45, 48
1, 66388, Tempo, 856287
1, 66400, Tempo, 850340
1, 66408, Tempo, 838574
1, 66448, Tempo, 850340
1, 66450, Note_on_c, 0, 45, 0
1, 66460, Tempo, 856287
1, 66480, Note_on_c, 0, 45, 53
1, 66488, Tempo, 850340
1, 66500, Tempo, 844476
1, 66508, Tempo, 838574
1, 66520, Tempo, 832871
1, 66528, Tempo, 827130
1, 66540, Tempo, 821580
1, 66548, Tempo, 816104
1, 66560, Tempo, 810592
1, 66570, Note_on_c, 0, 45, 0
1, 66588, Tempo, 816104
1, 66600, Tempo, 821580
1, 66600, Note_on_c, 0, 45, 50
1, 66608, Tempo, 827130
1, 66620, Tempo, 844476
1, 66648, Tempo, 832871
1, 66668, Tempo, 827130
1, 66680, Tempo, 821580
1, 66690, Note_on_c, 0, 45, 0
1, 66708, Tempo, 832871
1, 66720, Tempo, 850340
1, 66720, Note_on_c, 0, 77, 0
1, 66720, Note_on_c, 0, 74, 0
1, 66720, Note_on_c, 0, 74, 63
1, 66720, Note_on_c, 0, 77, 75
1, 66720, Note_on_c, 0, 45, 54
1, 66728, Tempo, 862441
1, 66768, Tempo, 856287
1, 66780, Tempo, 850340
1, 66788, Tempo, 844476
1, 66810, Note_on_c, 0, 45, 0
1, 66820, Tempo, 856287
1, 66828, Tempo, 862441
1, 66840, Tempo, 894055
1, 66840, Note_on_c, 0, 45, 50
1, 66900, Tempo, 1136364
1, 66930, Note_on_c, 0, 45, 0
1, 66960, Tempo, 850340
1, 66960, Note_on_c, 0, 77, 0
1, 66960, Note_on_c, 0, 74, 0
1, 66960, Note_on_c, 0, 74, 60
1, 66960, Note_on_c, 0, 77, 72
1, 66960, Note_on_c, 0, 46, 55
1, 67020, Tempo, 844476
1, 67050, Note_on_c, 0, 46, 0
1, 67080, Tempo, 838574
1, 67080, Note_on_c, 0, 46, 49
1, 67108, Tempo, 832871
1, 67120, Tempo, 862441
1, 67148, Tempo, 856287
1, 67160, Tempo, 850340
1, 67168, Tempo, 844476
1, 67170, Note_on_c, 0, 46, 0
1, 67180, Tempo, 838574
1, 67200, Note_on_c, 0, 46, 55
1, 67208, Tempo, 850340
1, 67220, Tempo, 862441
1, 67260, Tempo, 856287
1, 67268, Tempo, 844476
1, 67290, Note_on_c, 0, 46, 0
1, 67300, Tempo, 862441
1, 67320, Tempo, 868558
1, 67320, Note_on_c, 0, 46, 51
1, 67328, Tempo, 856287
1, 67340, Tempo, 844476
1, 67348, Tempo, 838574
1, 67380, Tempo, 832871
1, 67410, Note_on_c, 0, 46, 0
1, 67440, Note_on_c, 0, 46, 55
1, 67480, Tempo, 850340
1, 67488, Tempo, 856287
1, 67500, Tempo, 862441
1, 67528, Tempo, 856287
1, 67530, Note_on_c, 0, 46, 0
1, 67560, Tempo, 907441
1, 67560, Note_on_c, 0, 46, 52
1, 67620, Tempo, 965096
1, 67650, Note_on_c, 0, 46, 0
1, 67680, Tempo, 856287
1, 67680, Note_on_c, 0, 77, 0
1, 67680, Note_on_c, 0, 74, 0
1, 67680, Note_on_c, 0, 67, 69
1, 67680, Note_on_c, 0, 75, 82
1, 67680, Note_on_c, 0, 46, 60
1, 67688, Tempo, 838574
1, 67700, Tempo, 832871
1, 67720, Tempo, 827130
1, 67748, Tempo, 868558
1, 67770, Note_on_c, 0, 46, 0
1, 67800, Tempo, 862441
1, 67800, Note_on_c, 0, 46, 55
1, 67808, Tempo, 850340
1, 67820, Tempo, 838574
1, 67828, Tempo, 832871
1, 67860, Tempo, 850340
1, 67868, Tempo, 856287
1, 67888, Tempo, 850340
1, 67890, Note_on_c, 0, 46, 0
1, 67908, Tempo, 844476
1, 67920, Note_on_c, 0, 46, 58
1, 67940, Tempo, 862441
1, 67948, Tempo, 856287
1, 67960, Tempo, 850340
1, 67968, Tempo, 844476
1, 67988, Tempo, 838574
1, 68010, Note_on_c, 0, 46, 0
1, 68020, Tempo, 832871
1, 68040, Note_on_c, 0, 46, 55
1, 68060, Tempo, 838574
1, 68068, Tempo, 832871
1, 68100, Tempo, 838574
1, 68120, Tempo, 844476
1, 68128, Tempo, 850340
1, 68130, Note_on_c, 0, 46, 0
1, 68160, Note_on_c, 0, 75, 0
1, 68160, Note_on_c, 0, 67, 0
1, 68160, Note_on_c, 0, 65, 61
1, 68160, Note_on_c, 0, 74, 73
1, 68160, Note_on_c, 0, 46, 57
1, 68250, Note_on_c, 0, 46, 0
1, 68250, Note_on_c, 0, 74, 0
1, 68250, Note_on_c, 0, 65, 0
1, 68280, Note_on_c, 0, 63, 61
1, 68280, Note_on_c, 0, 72, 73
1, 68280, Note_on_c, 0, 46, 52
1, 68370, Note_on_c, 0, 46, 0
1, 68370, Note_on_c, 0, 72, 0
1, 68370, Note_on_c, 0, 63, 0
1, 68400, Note_on_c, 0, 62, 67
1, 68400, Note_on_c, 0, 65, 67
1, 68400, Note_on_c, 0, 70, 79
1, 68400, Note_on_c, 0, 46, 55
1, 68490, Note_on_c, 0, 46, 0
1, 68520, Tempo, 856287
1, 68520, Note_on_c, 0, 46, 50
1, 68610, Note_on_c, 0, 46, 0
1, 68640, Note_on_c, 0, 46, 53
1, 68730, Note_on_c, 0, 46, 0
1, 68760, Note_on_c, 0, 46, 49
1, 68850, Note_on_c, 0, 46, 0
1, 68880, Tempo, 907441
1, 68880, Note_on_c, 0, 70, 0
1, 68880, Note_on_c, 0, 65, 0
1, 68880, Note_on_c, 0, 62, 0
1, 68880, Note_on_c, 0, 65, 66
1, 68880, Note_on_c, 0, 62, 66
1, 68880, Note_on_c, 0, 69, 78
1, 68880, Note_on_c, 0, 46, 51
1, 68970, Note_on_c, 0, 46, 0
1, 69000, Note_on_c, 0, 46, 50
1, 69090, Note_on_c, 0, 46, 0
1, 69120, Tempo, 868558
1, 69120, Note_on_c, 0, 69, 0
1, 69120, Note_on_c, 0, 62, 0
1, 69120, Note_on_c, 0, 65, 0
1, 69120, Note_on_c, 0, 65, 68
1, 69120, Note_on_c, 0, 62, 68
1, 69120, Note_on_c, 0, 68, 80
1, 69120, Note_on_c, 0, 47, 56
1, 69210, Note_on_c, 0, 47, 0
1, 69240, Note_on_c, 0, 47, 49
1, 69330, Note_on_c, 0, 47, 0
1, 69360, Tempo, 900766
1, 69360, Note_on_c, 0, 47, 52
1, 69450, Note_on_c, 0, 47, 0
1, 69480, Note_on_c, 0, 47, 49
1, 69570, Note_on_c, 0, 47, 0
1, 69600, Tempo, 914216
1, 69600, Note_on_c, 0, 68, 0
1, 69600, Note_on_c, 0, 62, 0
1, 69600, Note_on_c, 0, 65, 0
1, 69600, Note_on_c, 0, 65, 61
1, 69600, Note_on_c, 0, 62, 61
1, 69600, Note_on_c, 0, 68, 73
1, 69600, Note_on_c, 0, 47, 50
1, 69690, Note_on_c, 0, 47, 0
1, 69720, Note_on_c, 0, 47, 50
1, 69780, Tempo, 988631
1, 69810, Note_on_c, 0, 47, 0
1, 69840, Tempo, 900766
1, 69840, Note_on_c, 0, 68, 0
1, 69840, Note_on_c, 0, 62, 0
1, 69840, Note_on_c, 0, 65, 0
1, 69840, Note_on_c, 0, 64, 61
1, 69840, Note_on_c, 0, 60, 61
1, 69840, Note_on_c, 0, 69, 73
1, 69840, Note_on_c, 0, 48, 55
1, 70320, Note_on_c, 0, 48, 0
1, 70320, Note_on_c, 0, 64, 0
1, 70320, Note_on_c, 0, 60, 0
1, 70320, Note_on_c, 0, 69, 0
1, 70560, Note_on_c, 0, 64, 49
1, 70560, Note_on_c, 0, 71, 58
1, 70560, Note_on_c, 0, 52, 39
1, 70560, Note_on_c, 0, 56, 44
1, 70800, Note_on_c, 0, 56, 0
1, 70800, Note_on_c, 0, 64, 0
1, 70800, Note_on_c, 0, 71, 0
1, 70800, Note_on_c, 0, 52, 0
1, 71280, Tempo, 894055
1, 71280, Note_on_c, 0, 57, 42
1, 71280, Note_on_c, 0, 33, 35
1, 71312, Control_c, 0, 64, 127
1, 71360, Tempo, 887574
1, 71360, Note_on_c, 0, 57, 0
1, 71360, Note_on_c, 0, 60, 44
1, 71420, Tempo, 881187
1, 71440, Note_on_c, 0, 60, 0
1, 71440, Note_on_c, 0, 64, 45
1, 71480, Tempo, 874763
1, 71520, Note_on_c, 0, 64, 0
1, 71520, Note_on_c, 0, 33, 0
1, 71520, Note_on_c, 0, 69, 47
1, 71540, Tempo, 868558
1, 71600, Note_on_c, 0, 69, 0
1, 71600, Note_on_c, 0, 72, 43
1, 71680, Note_on_c, 0, 72, 0
1, 71680, Note_on_c, 0, 76, 43
1, 71760, Tempo, 868558
1, 71760, Note_on_c, 0, 76, 0
1, 71760, Note_on_c, 0, 74, 47
1, 71760, Note_on_c, 0, 64, 32
1, 71760, Note_on_c, 0, 60, 27
1, 71760, Note_on_c, 0, 57, 27
1, 71820, Tempo, 874763
1, 71840, Note_on_c, 0, 74, 0
1, 71840, Note_on_c, 0, 72, 43
1, 71880, Tempo, 881187
1, 71920, Note_on_c, 0, 72, 0
1, 71920, Note_on_c, 0, 71, 43
1, 71940, Tempo, 887574
1, 71980, Tempo, 900766
1, 72000, Note_on_c, 0, 71, 0
1, 72000, Note_on_c, 0, 64, 0
1, 72000, Note_on_c, 0, 60, 0
1, 72000, Note_on_c, 0, 57, 0
1, 72000, Note_on_c, 0, 69, 45
1, 72000, Note_on_c, 0, 64, 33
1, 72000, Note_on_c, 0, 60, 28
1, 72000, Note_on_c, 0, 57, 28
1, 72020, Tempo, 894055
1, 72060, Tempo, 887574
1, 72080, Note_on_c, 0, 69, 0
1, 72080, Note_on_c, 0, 72, 47
1, 72100, Tempo, 881187
1, 72120, Tempo, 874763
1, 72160, Tempo, 868558
1, 72160, Note_on_c, 0, 72, 0
1, 72160, Note_on_c, 0, 76, 48
1, 72200, Tempo, 862441
1, 72220, Tempo, 856287
1, 72240, Note_on_c, 0, 76, 0
1, 72240, Note_on_c, 0, 64, 0
1, 72240, Note_on_c, 0, 60, 0
1, 72240, Note_on_c, 0, 57, 0
1, 72240, Note_on_c, 0, 81, 50
1, 72320, Note_on_c, 0, 81, 0
1, 72320, Note_on_c, 0, 84, 47
1, 72400, Note_on_c, 0, 84, 0
1, 72400, Note_on_c, 0, 88, 47
1, 72460, Tempo, 856287
1, 72480, Note_on_c, 0, 88, 0
1, 72480, Note_on_c, 0, 86, 52
1, 72480, Note_on_c, 0, 64, 32
1, 72480, Note_on_c, 0, 60, 27
1, 72480, Note_on_c, 0, 57, 27
1, 72540, Tempo, 862441
1, 72560, Note_on_c, 0, 86, 0
1, 72560, Note_on_c, 0, 84, 47
1, 72600, Tempo, 868558
1, 72640, Note_on_c, 0, 84, 0
1, 72640, Note_on_c, 0, 83, 47
1, 72660, Tempo, 874763
1, 72700, Tempo, 874763
1, 72720, Note_on_c, 0, 83, 0
1, 72720, Note_on_c, 0, 64, 0
1, 72720, Note_on_c, 0, 60, 0
1, 72720, Note_on_c, 0, 57, 0
1, 72720, Note_on_c, 0, 81, 49
1, 72720, Note_on_c, 0, 64, 34
1, 72720, Note_on_c, 0, 60, 28
1, 72720, Note_on_c, 0, 57, 28
1, 72760, Tempo, 868558
1, 72800, Note_on_c, 0, 81, 0
1, 72800, Note_on_c, 0, 84, 51
1, 72820, Tempo, 862441
1, 72860, Tempo, 856287
1, 72880, Note_on_c, 0, 84, 0
1, 72880, Note_on_c, 0, 88, 53
1, 72920, Tempo, 850340
1, 72960, Tempo, 844476
1, 72960, Note_on_c, 0, 88, 0
1, 72960, Note_on_c, 0, 64, 0
1, 72960, Note_on_c, 0, 60, 0
1, 72960, Note_on_c, 0, 57, 0
1, 72960, Note_on_c, 0, 93, 53
1, 73040, Note_on_c, 0, 93, 0
1, 73040, Note_on_c, 0, 96, 50
1, 73120, Note_on_c, 0, 96, 0
1, 73120, Note_on_c, 0, 100, 50
1, 73200, Note_on_c, 0, 100, 0
1, 73200, Note_on_c, 0, 98, 54
1, 73200, Note_on_c, 0, 64, 32
1, 73200, Note_on_c, 0, 60, 27
1, 73200, Note_on_c, 0, 57, 27
1, 73280, Note_on_c, 0, 98, 0
1, 73280, Note_on_c, 0, 96, 49
1, 73360, Note_on_c, 0, 96, 0
1, 73360, Note_on_c, 0, 95, 50
1, 73440, Note_on_c, 0, 95, 0
1, 73440, Note_on_c, 0, 64, 0
1, 73440, Note_on_c, 0, 60, 0
1, 73440, Note_on_c, 0, 57, 0
1, 73440, Note_on_c, 0, 94, 54
1, 73440, Note_on_c, 0, 64, 33
1, 73440, Note_on_c, 0, 60, 28
1, 73440, Note_on_c, 0, 57, 28
1, 73460, Tempo, 827130
1, 73520, Note_on_c, 0, 94, 0
1, 73520, Note_on_c, 0, 93, 50
1, 73600, Note_on_c, 0, 93, 0
1, 73600, Note_on_c, 0, 92, 49
1, 73680, Note_on_c, 0, 92, 0
1, 73680, Note_on_c, 0, 64, 0
1, 73680, Note_on_c, 0, 60, 0
1, 73680, Note_on_c, 0, 57, 0
1, 73680, Note_on_c, 0, 91, 51
1, 73760, Note_on_c, 0, 91, 0
1, 73760, Note_on_c, 0, 90, 49
1, 73840, Note_on_c, 0, 90, 0
1, 73840, Note_on_c, 0, 89, 48
1, 73920, Note_on_c, 0, 89, 0
1, 73920, Note_on_c, 0, 88, 51
1, 74000, Note_on_c, 0, 88, 0
1, 74000, Note_on_c, 0, 87, 49
1, 74080, Note_on_c, 0, 87, 0
1, 74080, Note_on_c, 0, 86, 50
1, 74160, Tempo, 832871
1, 74160, Note_on_c, 0, 86, 0
1, 74160, Note_on_c, 0, 85, 50
1, 74240, Note_on_c, 0, 85, 0
1, 74240, Note_on_c, 0, 84, 49
1, 74320, Note_on_c, 0, 84, 0
1, 74320, Note_on_c, 0, 83, 49
1, 74360, Tempo, 832871
1, 74380, Tempo, 832871
1, 74400, Note_on_c, 0, 83, 0
1, 74400, Note_on_c, 0, 82, 48
1, 74440, Tempo, 838574
1, 74480, Tempo, 844476
1, 74480, Note_on_c, 0, 82, 0
1, 74480, Note_on_c, 0, 81, 48
1, 74520, Tempo, 850340
1, 74560, Tempo, 856287
1, 74560, Note_on_c, 0, 81, 0
1, 74560, Note_on_c, 0, 80, 47
1, 74600, Tempo, 868558
1, 74620, Tempo, 874763
1, 74640, Tempo, 894055
1, 74640, Note_on_c, 0, 80, 0
1, 74640, Note_on_c, 0, 79, 47
1, 74660, Tempo, 907441
1, 74680, Tempo, 928218
1, 74700, Tempo, 942655
1, 74720, Tempo, 965096
1, 74720, Note_on_c, 0, 79, 0
1, 74720, Note_on_c, 0, 78, 46
1, 74740, Tempo, 988631
1, 74760, Tempo, 1005025
1, 74780, Tempo, 1030574
1, 74800, Tempo, 1057455
1, 74800, Note_on_c, 0, 78, 0
1, 74800, Note_on_c, 0, 77, 46
1, 74820, Tempo, 1095490
1, 74840, Tempo, 1307474
1, 74860, Tempo, 900766
1, 74880, Tempo, 914216
1, 74880, Note_on_c, 0, 77, 0
1, 74880, Note_on_c, 0, 76, 39
1, 74880, Control_c, 0, 64, 0
1, 75000, Note_on_c, 0, 76, 0
1, 75000, Note_on_c, 0, 75, 36
1, 75120, Tempo, 942655
1, 75120, Note_on_c, 0, 75, 0
1, 75120, Note_on_c, 0, 76, 41
1, 75220, Tempo, 862441
1, 75240, Tempo, 868558
1, 75240, Note_on_c, 0, 76, 0
1, 75240, Note_on_c, 0, 71, 35
1, 75360, Tempo, 914216
1, 75360, Note_on_c, 0, 71, 0
1, 75360, Note_on_c, 0, 74, 43
1, 75480, Tempo, 956175
1, 75480, Note_on_c, 0, 74, 0
1, 75480, Note_on_c, 0, 72, 39
1, 75600, Tempo, 867303
1, 75600, Note_on_c, 0, 72, 0
1, 75600, Note_on_c, 0, 69, 46
1, 75600, Note_on_c, 0, 45, 37
1, 75643, Control_c, 0, 64, 127
1, 75720, Note_on_c, 0, 45, 0
1, 75720, Note_on_c, 0, 52, 33
1, 75840, Note_on_c, 0, 52, 0
1, 75840, Note_on_c, 0, 69, 0
1, 75840, Note_on_c, 0, 57, 33
1, 75960, Tempo, 837287
1, 75960, Note_on_c, 0, 57, 0
1, 75960, Note_on_c, 0, 60, 34
1, 76080, Note_on_c, 0, 60, 0
1, 76080, Note_on_c, 0, 64, 38
1, 76200, Tempo, 926927
1, 76200, Note_on_c, 0, 64, 0
1, 76200, Note_on_c, 0, 69, 42
1, 76320, Tempo, 867303
1, 76320, Note_on_c, 0, 69, 0
1, 76320, Note_on_c, 0, 71, 46
1, 76320, Note_on_c, 0, 40, 40
1, 76339, Control_c, 0, 64, 0
1, 76377, Control_c, 0, 64, 127
1, 76440, Note_on_c, 0, 40, 0
1, 76440, Note_on_c, 0, 52, 33
1, 76560, Tempo, 843289
1, 76560, Note_on_c, 0, 52, 0
1, 76560, Note_on_c, 0, 71, 0
1, 76560, Note_on_c, 0, 56, 34
1, 76680, Note_on_c, 0, 56, 0
1, 76680, Note_on_c, 0, 64, 36
1, 76800, Note_on_c, 0, 64, 0
1, 76800, Note_on_c, 0, 68, 39
1, 76920, Tempo, 956175
1, 76920, Note_on_c, 0, 68, 0
1, 76920, Note_on_c, 0, 71, 42
1, 77040, Tempo, 867303
1, 77040, Note_on_c, 0, 71, 0
1, 77040, Note_on_c, 0, 72, 45
1, 77040, Note_on_c, 0, 45, 38
1, 77046, Control_c, 0, 64, 0
1, 77091, Control_c, 0, 64, 127
1, 77160, Note_on_c, 0, 45, 0
1, 77160, Note_on_c, 0, 52, 35
1, 77280, Note_on_c, 0, 52, 0
1, 77280, Note_on_c, 0, 72, 0
1, 77280, Note_on_c, 0, 57, 35
1, 77400, Note_on_c, 0, 57, 0
1, 77400, Note_on_c, 0, 64, 35
1, 77434, Control_c, 0, 64, 0
1, 77504, Tempo, 881187
1, 77520, Note_on_c, 0, 64, 0
1, 77520, Note_on_c, 0, 76, 38
1, 77532, Tempo, 881187
1, 77572, Tempo, 874763
1, 77612, Tempo, 868558
1, 77640, Note_on_c, 0, 76, 0
1, 77640, Note_on_c, 0, 75, 34
1, 77652, Tempo, 862441
1, 77692, Tempo, 856287
1, 77732, Tempo, 850340
1, 77760, Tempo, 850340
1, 77760, Note_on_c, 0, 75, 0
1, 77760, Note_on_c, 0, 76, 41
1, 77880, Note_on_c, 0, 76, 0
1, 77880, Note_on_c, 0, 75, 37
1, 78000, Tempo, 838574
1, 78000, Note_on_c, 0, 75, 0
1, 78000, Note_on_c, 0, 76, 46
1, 78020, Tempo, 837287
1, 78040, Tempo, 843289
1, 78060, Tempo, 849137
1, 78080, Tempo, 854944
1, 78100, Tempo, 861203
1, 78120, Tempo, 873490
1, 78120, Note_on_c, 0, 76, 0
1, 78120, Note_on_c, 0, 71, 39
1, 78240, Note_on_c, 0, 71, 0
1, 78240, Note_on_c, 0, 74, 48
1, 78360, Tempo, 907441
1, 78360, Note_on_c, 0, 74, 0
1, 78360, Note_on_c, 0, 72, 39
1, 78480, Tempo, 867303
1, 78480, Note_on_c, 0, 72, 0
1, 78480, Note_on_c, 0, 69, 48
1, 78480, Note_on_c, 0, 45, 38
1, 78537, Control_c, 0, 64, 127
1, 78600, Note_on_c, 0, 45, 0
1, 78600, Note_on_c, 0, 52, 35
1, 78720, Note_on_c, 0, 52, 0
1, 78720, Note_on_c, 0, 69, 0
1, 78720, Note_on_c, 0, 57, 34
1, 78840, Tempo, 843289
1, 78840, Note_on_c, 0, 57, 0
1, 78840, Note_on_c, 0, 60, 34
1, 78960, Note_on_c, 0, 60, 0
1, 78960, Note_on_c, 0, 64, 37
1, 79080, Tempo, 926927
1, 79080, Note_on_c, 0, 64, 0
1, 79080, Note_on_c, 0, 69, 41
1, 79200, Tempo, 867303
1, 79200, Note_on_c, 0, 69, 0
1, 79200, Note_on_c, 0, 71, 45
1, 79200, Note_on_c, 0, 40, 38
1, 79211, Control_c, 0, 64, 0
1, 79269, Control_c, 0, 64, 127
1, 79320, Note_on_c, 0, 40, 0
1, 79320, Note_on_c, 0, 52, 37
1, 79440, Tempo, 856287
1, 79440, Note_on_c, 0, 52, 0
1, 79440, Note_on_c, 0, 71, 0
1, 79440, Note_on_c, 0, 56, 37
1, 79560, Tempo, 874763
1, 79560, Note_on_c, 0, 56, 0
1, 79560, Note_on_c, 0, 64, 37
1, 79680, Note_on_c, 0, 64, 0
1, 79680, Note_on_c, 0, 72, 40
1, 79800, Tempo, 928218
1, 79800, Note_on_c, 0, 72, 0
1, 79800, Note_on_c, 0, 71, 38
1, 79920, Tempo, 942655
1, 79920, Note_on_c, 0, 71, 0
1, 79920, Note_on_c, 0, 69, 40
1, 79920, Note_on_c, 0, 45, 38
1, 79938, Control_c, 0, 64, 0
1, 79976, Control_c, 0, 64, 127
1, 80040, Tempo, 894055
1, 80040, Note_on_c, 0, 45, 0
1, 80040, Note_on_c, 0, 52, 32
1, 80160, Tempo, 874763
1, 80160, Note_on_c, 0, 52, 0
1, 80160, Note_on_c, 0, 69, 0
1, 80160, Note_on_c, 0, 57, 32
1, 80202, Control_c, 0, 64, 0
1, 80280, Tempo, 884956
1, 80280, Note_on_c, 0, 57, 0
1, 80280, Note_on_c, 0, 71, 38
1, 80400, Note_on_c, 0, 71, 0
1, 80400, Note_on_c, 0, 72, 42
1, 80520, Tempo, 914634
1, 80520, Note_on_c, 0, 72, 0
1, 80520, Note_on_c, 0, 74, 46
1, 80640, Tempo, 855920
1, 80640, Note_on_c, 0, 74, 0
1, 80640, Note_on_c, 0, 76, 50
1, 80640, Note_on_c, 0, 48, 44
1, 80651, Control_c, 0, 64, 0
1, 80709, Control_c, 0, 64, 127
1, 80760, Note_on_c, 0, 48, 0
1, 80760, Note_on_c, 0, 55, 38
1, 80880, Tempo, 887574
1, 80880, Note_on_c, 0, 55, 0
1, 80880, Note_on_c, 0, 60, 39
1, 81000, Tempo, 867428
1, 81000, Note_on_c, 0, 60, 0
1, 81000, Note_on_c, 0, 76, 0
1, 81000, Note_on_c, 0, 67, 40
1, 81120, Tempo, 873235
1, 81120, Note_on_c, 0, 67, 0
1, 81120, Note_on_c, 0, 77, 46
1, 81240, Note_on_c, 0, 77, 0
1, 81240, Note_on_c, 0, 76, 43
1, 81360, Tempo, 855920
1, 81360, Note_on_c, 0, 76, 0
1, 81360, Note_on_c, 0, 74, 50
1, 81360, Note_on_c, 0, 43, 44
1, 81371, Control_c, 0, 64, 0
1, 81429, Control_c, 0, 64, 127
1, 81480, Note_on_c, 0, 43, 0
1, 81480, Note_on_c, 0, 55, 38
1, 81600, Tempo, 887574
1, 81600, Note_on_c, 0, 55, 0
1, 81600, Note_on_c, 0, 59, 39
1, 81700, Tempo, 867428
1, 81720, Tempo, 879121
1, 81720, Note_on_c, 0, 59, 0
1, 81720, Note_on_c, 0, 74, 0
1, 81720, Note_on_c, 0, 65, 40
1, 81840, Tempo, 879121
1, 81840, Note_on_c, 0, 65, 0
1, 81840, Note_on_c, 0, 76, 46
1, 81960, Note_on_c, 0, 76, 0
1, 81960, Note_on_c, 0, 74, 43
1, 82080, Tempo, 855920
1, 82080, Note_on_c, 0, 74, 0
1, 82080, Note_on_c, 0, 72, 50
1, 82080, Note_on_c, 0, 45, 44
1, 82091, Control_c, 0, 64, 0
1, 82149, Control_c, 0, 64, 127
1, 82200, Note_on_c, 0, 45, 0
1, 82200, Note_on_c, 0, 52, 38
1, 82320, Tempo, 887574
1, 82320, Note_on_c, 0, 52, 0
1, 82320, Note_on_c, 0, 57, 39
1, 82440, Tempo, 903342
1, 82440, Note_on_c, 0, 57, 0
1, 82440, Note_on_c, 0, 72, 0
1, 82440, Note_on_c, 0, 64, 40
1, 82560, Tempo, 868558
1, 82560, Note_on_c, 0, 64, 0
1, 82560, Note_on_c, 0, 74, 46
1, 82680, Tempo, 874763
1, 82680, Note_on_c, 0, 74, 0
1, 82680, Note_on_c, 0, 72, 43
1, 82800, Tempo, 867428
1, 82800, Note_on_c, 0, 72, 0
1, 82800, Note_on_c, 0, 71, 50
1, 82800, Note_on_c, 0, 40, 44
1, 82811, Control_c, 0, 64, 0
1, 82869, Control_c, 0, 64, 127
1, 82920, Note_on_c, 0, 40, 0
1, 82920, Note_on_c, 0, 52, 38
1, 83040, Tempo, 909642
1, 83040, Note_on_c, 0, 52, 0
1, 83040, Note_on_c, 0, 71, 0
1, 83040, Note_on_c, 0, 64, 39
1, 83130, Note_on_c, 0, 64, 0
1, 83160, Tempo, 856287
1, 83160, Note_on_c, 0, 64, 39
1, 83280, Tempo, 896861
1, 83280, Note_on_c, 0, 64, 0
1, 83280, Note_on_c, 0, 76, 45
1, 83370, Note_on_c, 0, 76, 0
1, 83400, Tempo, 856287
1, 83400, Note_on_c, 0, 64, 39
1, 83520, Tempo, 903342
1, 83520, Note_on_c, 0, 64, 0
1, 83520, Note_on_c, 0, 76, 44
1, 83610, Note_on_c, 0, 76, 0
1, 83640, Tempo, 935308
1, 83640, Note_on_c, 0, 76, 43
1, 83760, Tempo, 900766
1, 83760, Note_on_c, 0, 76, 0
1, 83760, Note_on_c, 0, 88, 48
1, 83838, Control_c, 0, 64, 0
1, 83850, Note_on_c, 0, 88, 0
1, 83880, Tempo, 909642
1, 83880, Note_on_c, 0, 75, 42
1, 83892, Tempo, 850943
1, 83960, Tempo, 856287
1, 84000, Tempo, 844476
1, 84000, Note_on_c, 0, 75, 0
1, 84000, Note_on_c, 0, 76, 50
1, 84090, Note_on_c, 0, 76, 0
1, 84120, Note_on_c, 0, 75, 42
1, 84200, Tempo, 850340
1, 84240, Tempo, 862441
1, 84240, Note_on_c, 0, 75, 0
1, 84240, Note_on_c, 0, 76, 48
1, 84330, Note_on_c, 0, 76, 0
1, 84360, Tempo, 868558
1, 84360, Note_on_c, 0, 75, 39
1, 84460, Tempo, 874763
1, 84480, Note_on_c, 0, 75, 0
1, 84480, Note_on_c, 0, 76, 41
1, 84560, Tempo, 881187
1, 84570, Note_on_c, 0, 76, 0
1, 84600, Note_on_c, 0, 75, 35
1, 84660, Tempo, 887574
1, 84720, Note_on_c, 0, 75, 0
1, 84720, Note_on_c, 0, 76, 37
1, 84760, Tempo, 894055
1, 84840, Note_on_c, 0, 76, 0
1, 84840, Note_on_c, 0, 75, 34
1, 84860, Tempo, 900766
1, 84960, Tempo, 907441
1, 84960, Note_on_c, 0, 75, 0
1, 84960, Note_on_c, 0, 76, 40
1, 84980, Tempo, 874763
1, 85080, Tempo, 900766
1, 85080, Note_on_c, 0, 76, 0
1, 85080, Note_on_c, 0, 75, 36
1, 85184, Tempo, 907441
1, 85200, Tempo, 942655
1, 85200, Note_on_c, 0, 75, 0
1, 85200, Note_on_c, 0, 76, 42
1, 85292, Tempo, 856287
1, 85320, Tempo, 881187
1, 85320, Note_on_c, 0, 76, 0
1, 85320, Note_on_c, 0, 71, 36
1, 85440, Tempo, 856287
1, 85440, Note_on_c, 0, 71, 0
1, 85440, Note_on_c, 0, 74, 43
1, 85560, Tempo, 956175
1, 85560, Note_on_c, 0, 74, 0
1, 85560, Note_on_c, 0, 72, 35
1, 85680, Tempo, 867303
1, 85680, Note_on_c, 0, 72, 0
1, 85680, Note_on_c, 0, 69, 48
1, 85680, Note_on_c, 0, 45, 36
1, 85751, Control_c, 0, 64, 127
1, 85800, Note_on_c, 0, 45, 0
1, 85800, Note_on_c, 0, 52, 33
1, 85920, Note_on_c, 0, 52, 0
1, 85920, Note_on_c, 0, 69, 0
1, 85920, Note_on_c, 0, 57, 33
1, 86040, Tempo, 837287
1, 86040, Note_on_c, 0, 57, 0
1, 86040, Note_on_c, 0, 60, 34
1, 86160, Note_on_c, 0, 60, 0
1, 86160, Note_on_c, 0, 64, 38
1, 86280, Tempo, 926927
1, 86280, Note_on_c, 0, 64, 0
1, 86280, Note_on_c, 0, 69, 42
1, 86400, Tempo, 867303
1, 86400, Note_on_c, 0, 69, 0
1, 86400, Note_on_c, 0, 71, 46
1, 86400, Note_on_c, 0, 40, 40
1, 86419, Control_c, 0, 64, 0
1, 86457, Control_c, 0, 64, 127
1, 86520, Note_on_c, 0, 40, 0
1, 86520, Note_on_c, 0, 52, 33
1, 86640, Tempo, 843289
1, 86640, Note_on_c, 0, 52, 0
1, 86640, Note_on_c, 0, 71, 0
1, 86640, Note_on_c, 0, 56, 34
1, 86760, Note_on_c, 0, 56, 0
1, 86760, Note_on_c, 0, 64, 36
1, 86880, Note_on_c, 0, 64, 0
1, 86880, Note_on_c, 0, 68, 39
1, 87000, Tempo, 956175
1, 87000, Note_on_c, 0, 68, 0
1, 87000, Note_on_c, 0, 71, 42
1, 87120, Tempo, 867303
1, 87120, Note_on_c, 0, 71, 0
1, 87120, Note_on_c, 0, 72, 45
1, 87120, Note_on_c, 0, 45, 38
1, 87126, Control_c, 0, 64, 0
1, 87171, Control_c, 0, 64, 127
1, 87240, Note_on_c, 0, 45, 0
1, 87240, Note_on_c, 0, 52, 35
1, 87360, Note_on_c, 0, 52, 0
1, 87360, Note_on_c, 0, 72, 0
1, 87360, Note_on_c, 0, 57, 35
1, 87480, Note_on_c, 0, 57, 0
1, 87480, Note_on_c, 0, 64, 35
1, 87514, Control_c, 0, 64, 0
1, 87600, Tempo, 868558
1, 87600, Note_on_c, 0, 64, 0
1, 87600, Note_on_c, 0, 76, 38
1, 87664, Tempo, 862441
1, 87720, Tempo, 856287
1, 87720, Note_on_c, 0, 76, 0
1, 87720, Note_on_c, 0, 75, 34
1, 87784, Tempo, 850340
1, 87840, Tempo, 844476
1, 87840, Note_on_c, 0, 75, 0
1, 87840, Note_on_c, 0, 76, 41
1, 87864, Tempo, 838574
1, 87960, Note_on_c, 0, 76, 0
1, 87960, Note_on_c, 0, 75, 37
1, 88080, Tempo, 838574
1, 88080, Note_on_c, 0, 75, 0
1, 88080, Note_on_c, 0, 76, 46
1, 88144, Tempo, 844476
1, 88200, Tempo, 850340
1, 88200, Note_on_c, 0, 76, 0
1, 88200, Note_on_c, 0, 71, 39
1, 88320, Tempo, 862441
1, 88320, Note_on_c, 0, 71, 0
1, 88320, Note_on_c, 0, 74, 48
1, 88440, Tempo, 900766
1, 88440, Note_on_c, 0, 74, 0
1, 88440, Note_on_c, 0, 72, 39
1, 88560, Tempo, 867303
1, 88560, Note_on_c, 0, 72, 0
1, 88560, Note_on_c, 0, 69, 48
1, 88560, Note_on_c, 0, 45, 38
1, 88610, Control_c, 0, 64, 127
1, 88680, Note_on_c, 0, 45, 0
1, 88680, Note_on_c, 0, 52, 35
1, 88800, Note_on_c, 0, 52, 0
1, 88800, Note_on_c, 0, 69, 0
1, 88800, Note_on_c, 0, 57, 34
1, 88920, Tempo, 843289
1, 88920, Note_on_c, 0, 57, 0
1, 88920, Note_on_c, 0, 60, 34
1, 89040, Note_on_c, 0, 60, 0
1, 89040, Note_on_c, 0, 64, 37
1, 89160, Tempo, 926927
1, 89160, Note_on_c, 0, 64, 0
1, 89160, Note_on_c, 0, 69, 41
1, 89280, Tempo, 867303
1, 89280, Note_on_c, 0, 69, 0
1, 89280, Note_on_c, 0, 71, 45
1, 89280, Note_on_c, 0, 40, 38
1, 89291, Control_c, 0, 64, 0
1, 89349, Control_c, 0, 64, 127
1, 89400, Note_on_c, 0, 40, 0
1, 89400, Note_on_c, 0, 52, 37
1, 89520, Tempo, 874763
1, 89520, Note_on_c, 0, 52, 0
1, 89520, Note_on_c, 0, 71, 0
1, 89520, Note_on_c, 0, 56, 37
1, 89640, Tempo, 1021798
1, 89640, Note_on_c, 0, 56, 0
1, 89640, Note_on_c, 0, 64, 37
1, 89760, Tempo, 1105380
1, 89760, Note_on_c, 0, 64, 0
1, 89760, Note_on_c, 0, 72, 40
1, 89880, Tempo, 1712818
1, 89880, Note_on_c, 0, 72, 0
1, 89880, Note_on_c, 0, 71, 38
1, 90000, Tempo, 1228250
1, 90000, Note_on_c, 0, 71, 0
1, 90000, Note_on_c, 0, 69, 36
1, 90000, Note_on_c, 0, 33, 17
1, 90000, Note_on_c, 0, 45, 25
1, 90018, Control_c, 0, 64, 0
1, 90093, Control_c, 0, 64, 127
1, 90240, Note_on_c, 0, 45, 0
1, 90240, Note_on_c, 0, 33, 0
1, 90240, Note_on_c, 0, 69, 0
1, 90240, Control_c, 0, 64, 0
1, 90242, Tempo, 1212121
1, 90242, End_track
0, 0, End_of_file
