0, 0, Header, 1, 4, 480
1, 0, Start_track
1, 0, Title_t, "Let It Go"
1, 0, Key_signature, -4, "major"
1, 0, Time_signature, 4, 2, 24, 8
1, 0, Tempo, 882353
1, 65280, Time_signature, 2, 2, 24, 8
1, 66240, Time_signature, 4, 2, 24, 8
1, 98880, Time_signature, 2, 2, 24, 8
1, 99840, Time_signature, 4, 2, 24, 8
1, 99840, End_track
2, 0, Start_track
2, 0, Program_c, 0, 0
2, 0, Instrument_name_t, "Piano"
2, 7560, Note_on_c, 0, 60, 127
2, 7668, Note_off_c, 0, 60, 0
2, 7680, Note_on_c, 0, 60, 127
2, 7896, Note_off_c, 0, 60, 0
2, 7920, Note_on_c, 0, 60, 127
2, 8136, Note_off_c, 0, 60, 0
2, 8160, Note_on_c, 0, 60, 127
2, 8376, Note_off_c, 0, 60, 0
2, 8400, Note_on_c, 0, 60, 127
2, 8508, Note_off_c, 0, 60, 0
2, 8520, Note_on_c, 0, 60, 127
2, 8628, Note_off_c, 0, 60, 0
2, 8640, Note_on_c, 0, 60, 127
2, 8748, Note_off_c, 0, 60, 0
2, 8760, Note_on_c, 0, 58, 127
2, 8868, Note_off_c, 0, 58, 0
2, 8880, Note_on_c, 0, 56, 127
2, 8988, Note_off_c, 0, 56, 0
2, 9000, Note_on_c, 0, 56, 127
2, 9324, Note_off_c, 0, 56, 0
2, 9360, Note_on_c, 0, 56, 127
2, 9468, Note_off_c, 0, 56, 0
2, 9480, Note_on_c, 0, 58, 127
2, 9588, Note_off_c, 0, 58, 0
2, 9600, Note_on_c, 0, 58, 127
2, 9708, Note_off_c, 0, 58, 0
2, 9720, Note_on_c, 0, 58, 127
2, 10152, Note_off_c, 0, 58, 0
2, 10200, Note_on_c, 0, 56, 127
2, 10308, Note_off_c, 0, 56, 0
2, 10320, Note_on_c, 0, 55, 127
2, 10428, Note_off_c, 0, 55, 0
2, 10440, Note_on_c, 0, 53, 127
2, 10986, Note_off_c, 0, 53, 0
2, 11400, Note_on_c, 0, 60, 127
2, 11508, Note_off_c, 0, 60, 0
2, 11520, Note_on_c, 0, 60, 127
2, 11628, Note_off_c, 0, 60, 0
2, 11640, Note_on_c, 0, 60, 127
2, 11748, Note_off_c, 0, 60, 0
2, 11760, Note_on_c, 0, 60, 127
2, 11868, Note_off_c, 0, 60, 0
2, 11880, Note_on_c, 0, 60, 127
2, 12204, Note_off_c, 0, 60, 0
2, 12240, Note_on_c, 0, 63, 127
2, 12348, Note_off_c, 0, 63, 0
2, 12360, Note_on_c, 0, 63, 127
2, 12480, Note_off_c, 0, 63, 0
2, 12480, Note_on_c, 0, 60, 127
2, 12600, Note_off_c, 0, 60, 0
2, 12600, Note_on_c, 0, 60, 127
2, 12924, Note_off_c, 0, 60, 0
2, 13200, Note_on_c, 0, 58, 127
2, 13308, Note_off_c, 0, 58, 0
2, 13320, Note_on_c, 0, 58, 127
2, 13428, Note_off_c, 0, 58, 0
2, 13440, Note_on_c, 0, 58, 127
2, 13548, Note_off_c, 0, 58, 0
2, 13560, Note_on_c, 0, 60, 127
2, 13884, Note_off_c, 0, 60, 0
2, 14040, Note_on_c, 0, 58, 127
2, 14148, Note_off_c, 0, 58, 0
2, 14160, Note_on_c, 0, 56, 127
2, 14268, Note_off_c, 0, 56, 0
2, 14280, Note_on_c, 0, 58, 127
2, 14604, Note_off_c, 0, 58, 0
2, 15600, Note_on_c, 0, 60, 127
2, 15708, Note_off_c, 0, 60, 0
2, 15720, Note_on_c, 0, 60, 127
2, 15936, Note_off_c, 0, 60, 0
2, 15960, Note_on_c, 0, 63, 127
2, 16176, Note_off_c, 0, 63, 0
2, 16200, Note_on_c, 0, 65, 127
2, 16416, Note_off_c, 0, 65, 0
2, 16440, Note_on_c, 0, 63, 127
2, 16656, Note_off_c, 0, 63, 0
2, 16680, Note_on_c, 0, 60, 127
2, 16896, Note_off_c, 0, 60, 0
2, 16920, Note_on_c, 0, 63, 127
2, 17136, Note_off_c, 0, 63, 0
2, 17160, Note_on_c, 0, 63, 127
2, 17376, Note_off_c, 0, 63, 0
2, 17400, Note_on_c, 0, 63, 127
2, 17616, Note_off_c, 0, 63, 0
2, 17640, Note_on_c, 0, 61, 127
2, 17760, Note_off_c, 0, 61, 0
2, 17760, Note_on_c, 0, 60, 127
2, 17880, Note_off_c, 0, 60, 0
2, 17880, Note_on_c, 0, 60, 127
2, 18096, Note_off_c, 0, 60, 0
2, 18120, Note_on_c, 0, 61, 127
2, 18240, Note_off_c, 0, 61, 0
2, 18240, Note_on_c, 0, 60, 127
2, 18720, Note_off_c, 0, 60, 0
2, 19440, Note_on_c, 0, 60, 127
2, 19548, Note_off_c, 0, 60, 0
2, 19560, Note_on_c, 0, 60, 127
2, 19668, Note_off_c, 0, 60, 0
2, 19680, Note_on_c, 0, 58, 127
2, 19788, Note_off_c, 0, 58, 0
2, 19800, Note_on_c, 0, 56, 127
2, 20016, Note_off_c, 0, 56, 0
2, 20040, Note_on_c, 0, 58, 127
2, 20256, Note_off_c, 0, 58, 0
2, 20400, Note_on_c, 0, 60, 127
2, 20508, Note_off_c, 0, 60, 0
2, 20520, Note_on_c, 0, 60, 127
2, 20628, Note_off_c, 0, 60, 0
2, 20640, Note_on_c, 0, 58, 127
2, 20856, Note_off_c, 0, 58, 0
2, 20880, Note_on_c, 0, 56, 127
2, 21096, Note_off_c, 0, 56, 0
2, 21360, Note_on_c, 0, 53, 127
2, 22026, Note_off_c, 0, 53, 0
2, 23280, Note_on_c, 0, 58, 127
2, 23388, Note_off_c, 0, 58, 0
2, 23400, Note_on_c, 0, 58, 127
2, 23616, Note_off_c, 0, 58, 0
2, 23640, Note_on_c, 0, 63, 127
2, 23856, Note_off_c, 0, 63, 0
2, 23880, Note_on_c, 0, 63, 127
2, 24096, Note_off_c, 0, 63, 0
2, 24120, Note_on_c, 0, 58, 127
2, 24336, Note_off_c, 0, 58, 0
2, 24360, Note_on_c, 0, 58, 127
2, 24576, Note_off_c, 0, 58, 0
2, 24600, Note_on_c, 0, 65, 127
2, 24816, Note_off_c, 0, 65, 0
2, 24840, Note_on_c, 0, 65, 127
2, 25164, Note_off_c, 0, 65, 0
2, 25200, Note_on_c, 0, 65, 127
2, 25308, Note_off_c, 0, 65, 0
2, 25320, Note_on_c, 0, 63, 127
2, 25428, Note_off_c, 0, 63, 0
2, 25440, Note_on_c, 0, 65, 127
2, 25548, Note_off_c, 0, 65, 0
2, 25560, Note_on_c, 0, 65, 127
2, 25776, Note_off_c, 0, 65, 0
2, 25800, Note_on_c, 0, 65, 127
2, 25908, Note_off_c, 0, 65, 0
2, 25920, Note_on_c, 0, 65, 127
2, 26028, Note_off_c, 0, 65, 0
2, 26040, Note_on_c, 0, 67, 127
2, 26256, Note_off_c, 0, 67, 0
2, 26280, Note_on_c, 0, 68, 127
2, 26496, Note_off_c, 0, 68, 0
2, 26520, Note_on_c, 0, 67, 127
2, 26736, Note_off_c, 0, 67, 0
2, 26760, Note_on_c, 0, 67, 127
2, 26976, Note_off_c, 0, 67, 0
2, 27120, Note_on_c, 0, 58, 127
2, 27228, Note_off_c, 0, 58, 0
2, 27240, Note_on_c, 0, 58, 127
2, 27456, Note_off_c, 0, 58, 0
2, 27480, Note_on_c, 0, 63, 127
2, 27696, Note_off_c, 0, 63, 0
2, 27720, Note_on_c, 0, 63, 127
2, 27936, Note_off_c, 0, 63, 0
2, 28080, Note_on_c, 0, 58, 127
2, 28188, Note_off_c, 0, 58, 0
2, 28200, Note_on_c, 0, 58, 127
2, 28416, Note_off_c, 0, 58, 0
2, 28440, Note_on_c, 0, 65, 127
2, 28656, Note_off_c, 0, 65, 0
2, 28680, Note_on_c, 0, 65, 127
2, 30186, Note_off_c, 0, 65, 0
2, 30480, Note_on_c, 0, 63, 127
2, 30588, Note_off_c, 0, 63, 0
2, 30600, Note_on_c, 0, 65, 127
2, 30816, Note_off_c, 0, 65, 0
2, 30840, Note_on_c, 0, 67, 127
2, 31164, Note_off_c, 0, 67, 0
2, 31200, Note_on_c, 0, 68, 127
2, 32106, Note_off_c, 0, 68, 0
2, 32280, Note_on_c, 0, 65, 127
2, 32388, Note_off_c, 0, 65, 0
2, 32400, Note_on_c, 0, 67, 127
2, 32508, Note_off_c, 0, 67, 0
2, 32520, Note_on_c, 0, 68, 127
2, 33066, Note_off_c, 0, 68, 0
2, 33240, Note_on_c, 0, 63, 127
2, 33348, Note_off_c, 0, 63, 0
2, 33360, Note_on_c, 0, 63, 127
2, 33468, Note_off_c, 0, 63, 0
2, 33480, Note_on_c, 0, 70, 127
2, 34026, Note_off_c, 0, 70, 0
2, 34320, Note_on_c, 0, 68, 127
2, 34440, Note_off_c, 0, 68, 0
2, 34440, Note_on_c, 0, 65, 127
2, 34560, Note_off_c, 0, 65, 0
2, 34560, Note_on_c, 0, 65, 127
2, 34668, Note_off_c, 0, 65, 0
2, 34680, Note_on_c, 0, 65, 127
2, 34788, Note_off_c, 0, 65, 0
2, 34800, Note_on_c, 0, 65, 127
2, 35016, Note_off_c, 0, 65, 0
2, 35040, Note_on_c, 0, 65, 127
2, 35148, Note_off_c, 0, 65, 0
2, 35160, Note_on_c, 0, 67, 127
2, 35376, Note_off_c, 0, 67, 0
2, 35400, Note_on_c, 0, 68, 127
2, 35946, Note_off_c, 0, 68, 0
2, 36120, Note_on_c, 0, 65, 127
2, 36228, Note_off_c, 0, 65, 0
2, 36240, Note_on_c, 0, 67, 127
2, 36348, Note_off_c, 0, 67, 0
2, 36360, Note_on_c, 0, 68, 127
2, 36906, Note_off_c, 0, 68, 0
2, 37080, Note_on_c, 0, 63, 127
2, 37188, Note_off_c, 0, 63, 0
2, 37200, Note_on_c, 0, 72, 127
2, 37308, Note_off_c, 0, 72, 0
2, 37320, Note_on_c, 0, 72, 127
2, 37560, Note_off_c, 0, 72, 0
2, 37560, Note_on_c, 0, 70, 127
2, 37920, Note_off_c, 0, 70, 0
2, 38040, Note_on_c, 0, 68, 127
2, 38148, Note_off_c, 0, 68, 0
2, 38160, Note_on_c, 0, 70, 127
2, 38268, Note_off_c, 0, 70, 0
2, 38280, Note_on_c, 0, 72, 127
2, 38496, Note_off_c, 0, 72, 0
2, 38520, Note_on_c, 0, 72, 127
2, 38736, Note_off_c, 0, 72, 0
2, 38760, Note_on_c, 0, 73, 127
2, 38880, Note_off_c, 0, 73, 0
2, 38880, Note_on_c, 0, 72, 127
2, 39120, Note_off_c, 0, 72, 0
2, 39120, Note_on_c, 0, 70, 127
2, 39240, Note_off_c, 0, 70, 0
2, 39240, Note_on_c, 0, 68, 127
2, 39360, Note_off_c, 0, 68, 0
2, 39360, Note_on_c, 0, 70, 127
2, 39480, Note_off_c, 0, 70, 0
2, 39480, Note_on_c, 0, 68, 127
2, 39840, Note_off_c, 0, 68, 0
2, 40320, Note_on_c, 0, 75, 127
2, 40560, Note_off_c, 0, 75, 0
2, 40560, Note_on_c, 0, 72, 127
2, 40680, Note_off_c, 0, 72, 0
2, 40680, Note_on_c, 0, 72, 127
2, 40920, Note_off_c, 0, 72, 0
2, 40920, Note_on_c, 0, 70, 127
2, 41040, Note_off_c, 0, 70, 0
2, 41040, Note_on_c, 0, 70, 127
2, 41472, Note_off_c, 0, 70, 0
2, 41760, Note_on_c, 0, 68, 127
2, 41976, Note_off_c, 0, 68, 0
2, 42000, Note_on_c, 0, 68, 127
2, 42216, Note_off_c, 0, 68, 0
2, 42240, Note_on_c, 0, 75, 127
2, 42348, Note_off_c, 0, 75, 0
2, 42360, Note_on_c, 0, 75, 127
2, 42576, Note_off_c, 0, 75, 0
2, 42600, Note_on_c, 0, 72, 127
2, 42840, Note_off_c, 0, 72, 0
2, 42840, Note_on_c, 0, 68, 127
2, 42960, Note_off_c, 0, 68, 0
2, 42960, Note_on_c, 0, 68, 127
2, 43392, Note_off_c, 0, 68, 0
2, 43920, Note_on_c, 0, 68, 127
2, 44028, Note_off_c, 0, 68, 0
2, 44040, Note_on_c, 0, 68, 127
2, 44148, Note_off_c, 0, 68, 0
2, 44160, Note_on_c, 0, 67, 127
2, 44400, Note_off_c, 0, 67, 0
2, 44400, Note_on_c, 0, 63, 127
2, 44520, Note_off_c, 0, 63, 0
2, 44520, Note_on_c, 0, 63, 127
2, 44844, Note_off_c, 0, 63, 0
2, 44880, Note_on_c, 0, 63, 127
2, 45546, Note_off_c, 0, 63, 0
2, 45960, Note_on_c, 0, 61, 127
2, 46068, Note_off_c, 0, 61, 0
2, 46080, Note_on_c, 0, 61, 127
2, 46296, Note_off_c, 0, 61, 0
2, 46320, Note_on_c, 0, 61, 127
2, 46428, Note_off_c, 0, 61, 0
2, 46440, Note_on_c, 0, 60, 127
2, 46548, Note_off_c, 0, 60, 0
2, 46560, Note_on_c, 0, 61, 127
2, 46668, Note_off_c, 0, 61, 0
2, 46680, Note_on_c, 0, 60, 127
2, 46788, Note_off_c, 0, 60, 0
2, 46800, Note_on_c, 0, 61, 127
2, 46908, Note_off_c, 0, 61, 0
2, 46920, Note_on_c, 0, 61, 127
2, 47028, Note_off_c, 0, 61, 0
2, 47040, Note_on_c, 0, 60, 127
2, 47148, Note_off_c, 0, 60, 0
2, 47160, Note_on_c, 0, 56, 127
2, 47484, Note_off_c, 0, 56, 0
2, 50040, Note_on_c, 0, 60, 127
2, 50148, Note_off_c, 0, 60, 0
2, 50160, Note_on_c, 0, 60, 127
2, 50268, Note_off_c, 0, 60, 0
2, 50280, Note_on_c, 0, 60, 127
2, 50388, Note_off_c, 0, 60, 0
2, 50400, Note_on_c, 0, 60, 127
2, 50508, Note_off_c, 0, 60, 0
2, 50520, Note_on_c, 0, 60, 127
2, 50736, Note_off_c, 0, 60, 0
2, 50760, Note_on_c, 0, 60, 127
2, 50976, Note_off_c, 0, 60, 0
2, 51000, Note_on_c, 0, 56, 127
2, 51324, Note_off_c, 0, 56, 0
2, 51600, Note_on_c, 0, 56, 127
2, 51816, Note_off_c, 0, 56, 0
2, 51840, Note_on_c, 0, 63, 127
2, 52056, Note_off_c, 0, 63, 0
2, 52080, Note_on_c, 0, 63, 127
2, 52188, Note_off_c, 0, 63, 0
2, 52200, Note_on_c, 0, 61, 127
2, 52416, Note_off_c, 0, 61, 0
2, 52440, Note_on_c, 0, 60, 127
2, 52656, Note_off_c, 0, 60, 0
2, 52680, Note_on_c, 0, 58, 127
2, 53226, Note_off_c, 0, 58, 0
2, 53520, Note_on_c, 0, 58, 127
2, 53628, Note_off_c, 0, 58, 0
2, 53640, Note_on_c, 0, 58, 127
2, 53748, Note_off_c, 0, 58, 0
2, 53760, Note_on_c, 0, 60, 127
2, 53976, Note_off_c, 0, 60, 0
2, 54000, Note_on_c, 0, 60, 127
2, 54108, Note_off_c, 0, 60, 0
2, 54120, Note_on_c, 0, 60, 127
2, 54336, Note_off_c, 0, 60, 0
2, 54360, Note_on_c, 0, 63, 127
2, 54576, Note_off_c, 0, 63, 0
2, 54600, Note_on_c, 0, 65, 127
2, 54924, Note_off_c, 0, 65, 0
2, 54960, Note_on_c, 0, 63, 127
2, 55176, Note_off_c, 0, 63, 0
2, 55440, Note_on_c, 0, 63, 127
2, 55656, Note_off_c, 0, 63, 0
2, 55680, Note_on_c, 0, 68, 127
2, 55896, Note_off_c, 0, 68, 0
2, 55920, Note_on_c, 0, 68, 127
2, 56028, Note_off_c, 0, 68, 0
2, 56040, Note_on_c, 0, 67, 127
2, 56256, Note_off_c, 0, 67, 0
2, 56280, Note_on_c, 0, 65, 127
2, 56496, Note_off_c, 0, 65, 0
2, 56520, Note_on_c, 0, 63, 127
2, 56640, Note_off_c, 0, 63, 0
2, 56640, Note_on_c, 0, 65, 127
2, 57360, Note_off_c, 0, 65, 0
2, 57840, Note_on_c, 0, 58, 127
2, 57948, Note_off_c, 0, 58, 0
2, 57960, Note_on_c, 0, 58, 127
2, 58176, Note_off_c, 0, 58, 0
2, 58200, Note_on_c, 0, 63, 127
2, 58416, Note_off_c, 0, 63, 0
2, 58440, Note_on_c, 0, 63, 127
2, 58656, Note_off_c, 0, 63, 0
2, 58680, Note_on_c, 0, 58, 127
2, 58896, Note_off_c, 0, 58, 0
2, 58920, Note_on_c, 0, 58, 127
2, 59136, Note_off_c, 0, 58, 0
2, 59160, Note_on_c, 0, 63, 127
2, 59376, Note_off_c, 0, 63, 0
2, 59400, Note_on_c, 0, 65, 127
2, 59724, Note_off_c, 0, 65, 0
2, 59760, Note_on_c, 0, 63, 127
2, 59868, Note_off_c, 0, 63, 0
2, 59880, Note_on_c, 0, 65, 127
2, 60096, Note_off_c, 0, 65, 0
2, 60120, Note_on_c, 0, 63, 127
2, 60336, Note_off_c, 0, 63, 0
2, 60360, Note_on_c, 0, 65, 127
2, 60576, Note_off_c, 0, 65, 0
2, 60600, Note_on_c, 0, 67, 127
2, 60816, Note_off_c, 0, 67, 0
2, 60840, Note_on_c, 0, 68, 127
2, 61056, Note_off_c, 0, 68, 0
2, 61080, Note_on_c, 0, 70, 127
2, 61296, Note_off_c, 0, 70, 0
2, 61320, Note_on_c, 0, 63, 127
2, 61644, Note_off_c, 0, 63, 0
2, 61680, Note_on_c, 0, 58, 127
2, 61788, Note_off_c, 0, 58, 0
2, 61800, Note_on_c, 0, 58, 127
2, 62016, Note_off_c, 0, 58, 0
2, 62040, Note_on_c, 0, 63, 127
2, 62256, Note_off_c, 0, 63, 0
2, 62280, Note_on_c, 0, 63, 127
2, 62496, Note_off_c, 0, 63, 0
2, 62520, Note_on_c, 0, 58, 127
2, 62736, Note_off_c, 0, 58, 0
2, 62760, Note_on_c, 0, 63, 127
2, 62976, Note_off_c, 0, 63, 0
2, 63000, Note_on_c, 0, 58, 127
2, 63108, Note_off_c, 0, 58, 0
2, 63120, Note_on_c, 0, 65, 127
2, 63786, Note_off_c, 0, 65, 0
2, 63960, Note_on_c, 0, 67, 127
2, 64176, Note_off_c, 0, 67, 0
2, 64200, Note_on_c, 0, 68, 127
2, 65706, Note_off_c, 0, 68, 0
2, 65880, Note_on_c, 0, 65, 127
2, 65988, Note_off_c, 0, 65, 0
2, 66000, Note_on_c, 0, 67, 127
2, 66108, Note_off_c, 0, 67, 0
2, 66120, Note_on_c, 0, 68, 127
2, 66666, Note_off_c, 0, 68, 0
2, 66840, Note_on_c, 0, 63, 127
2, 66948, Note_off_c, 0, 63, 0
2, 66960, Note_on_c, 0, 63, 127
2, 67068, Note_off_c, 0, 63, 0
2, 67080, Note_on_c, 0, 70, 127
2, 67626, Note_off_c, 0, 70, 0
2, 67800, Note_on_c, 0, 68, 127
2, 67908, Note_off_c, 0, 68, 0
2, 67920, Note_on_c, 0, 65, 127
2, 68028, Note_off_c, 0, 65, 0
2, 68040, Note_on_c, 0, 65, 127
2, 68256, Note_off_c, 0, 65, 0
2, 68280, Note_on_c, 0, 65, 127
2, 68388, Note_off_c, 0, 65, 0
2, 68400, Note_on_c, 0, 65, 127
2, 68508, Note_off_c, 0, 65, 0
2, 68520, Note_on_c, 0, 65, 127
2, 68736, Note_off_c, 0, 65, 0
2, 68760, Note_on_c, 0, 67, 127
2, 68976, Note_off_c, 0, 67, 0
2, 69000, Note_on_c, 0, 68, 127
2, 69240, Note_off_c, 0, 68, 0
2, 69240, Note_on_c, 0, 70, 127
2, 69360, Note_off_c, 0, 70, 0
2, 69360, Note_on_c, 0, 68, 127
2, 69600, Note_off_c, 0, 68, 0
2, 69720, Note_on_c, 0, 65, 127
2, 69828, Note_off_c, 0, 65, 0
2, 69840, Note_on_c, 0, 67, 127
2, 69948, Note_off_c, 0, 67, 0
2, 69960, Note_on_c, 0, 68, 127
2, 70506, Note_off_c, 0, 68, 0
2, 70680, Note_on_c, 0, 63, 127
2, 70788, Note_off_c, 0, 63, 0
2, 70800, Note_on_c, 0, 72, 127
2, 70908, Note_off_c, 0, 72, 0
2, 70920, Note_on_c, 0, 72, 127
2, 71040, Note_off_c, 0, 72, 0
2, 71040, Note_on_c, 0, 70, 127
2, 71520, Note_off_c, 0, 70, 0
2, 71760, Note_on_c, 0, 68, 127
2, 71868, Note_off_c, 0, 68, 0
2, 71880, Note_on_c, 0, 72, 127
2, 72096, Note_off_c, 0, 72, 0
2, 72120, Note_on_c, 0, 72, 127
2, 72336, Note_off_c, 0, 72, 0
2, 72360, Note_on_c, 0, 73, 127
2, 72480, Note_off_c, 0, 73, 0
2, 72480, Note_on_c, 0, 72, 127
2, 72720, Note_off_c, 0, 72, 0
2, 72720, Note_on_c, 0, 70, 127
2, 72840, Note_off_c, 0, 70, 0
2, 72840, Note_on_c, 0, 68, 127
2, 72960, Note_off_c, 0, 68, 0
2, 72960, Note_on_c, 0, 70, 127
2, 73080, Note_off_c, 0, 70, 0
2, 73080, Note_on_c, 0, 68, 127
2, 73680, Note_off_c, 0, 68, 0
2, 73920, Note_on_c, 0, 75, 127
2, 74244, Note_off_c, 0, 75, 0
2, 74280, Note_on_c, 0, 72, 127
2, 74604, Note_off_c, 0, 72, 0
2, 74640, Note_on_c, 0, 70, 127
2, 75546, Note_off_c, 0, 70, 0
2, 75600, Note_on_c, 0, 68, 127
2, 75816, Note_off_c, 0, 68, 0
2, 75840, Note_on_c, 0, 75, 127
2, 76164, Note_off_c, 0, 75, 0
2, 76200, Note_on_c, 0, 72, 127
2, 76524, Note_off_c, 0, 72, 0
2, 76560, Note_on_c, 0, 68, 127
2, 77466, Note_off_c, 0, 68, 0
2, 77520, Note_on_c, 0, 68, 127
2, 77628, Note_off_c, 0, 68, 0
2, 77640, Note_on_c, 0, 68, 127
2, 77748, Note_off_c, 0, 68, 0
2, 77760, Note_on_c, 0, 67, 127
2, 78000, Note_off_c, 0, 67, 0
2, 78000, Note_on_c, 0, 63, 127
2, 78120, Note_off_c, 0, 63, 0
2, 78120, Note_on_c, 0, 63, 127
2, 78444, Note_off_c, 0, 63, 0
2, 78480, Note_on_c, 0, 63, 127
2, 79146, Note_off_c, 0, 63, 0
2, 83760, Note_on_c, 0, 61, 127
2, 83868, Note_off_c, 0, 61, 0
2, 83880, Note_on_c, 0, 60, 127
2, 84096, Note_off_c, 0, 60, 0
2, 84120, Note_on_c, 0, 61, 127
2, 84336, Note_off_c, 0, 61, 0
2, 84360, Note_on_c, 0, 63, 127
2, 84576, Note_off_c, 0, 63, 0
2, 84600, Note_on_c, 0, 65, 127
2, 84816, Note_off_c, 0, 65, 0
2, 84840, Note_on_c, 0, 66, 127
2, 85056, Note_off_c, 0, 66, 0
2, 85080, Note_on_c, 0, 68, 127
2, 85296, Note_off_c, 0, 68, 0
2, 85320, Note_on_c, 0, 71, 127
2, 85536, Note_off_c, 0, 71, 0
2, 85560, Note_on_c, 0, 70, 127
2, 85776, Note_off_c, 0, 70, 0
2, 85800, Note_on_c, 0, 68, 127
2, 86016, Note_off_c, 0, 68, 0
2, 86040, Note_on_c, 0, 66, 127
2, 86256, Note_off_c, 0, 66, 0
2, 86280, Note_on_c, 0, 68, 127
2, 87306, Note_off_c, 0, 68, 0
2, 87600, Note_on_c, 0, 61, 127
2, 87708, Note_off_c, 0, 61, 0
2, 87720, Note_on_c, 0, 60, 127
2, 87936, Note_off_c, 0, 60, 0
2, 87960, Note_on_c, 0, 61, 127
2, 88176, Note_off_c, 0, 61, 0
2, 88200, Note_on_c, 0, 63, 127
2, 88416, Note_off_c, 0, 63, 0
2, 88440, Note_on_c, 0, 65, 127
2, 88656, Note_off_c, 0, 65, 0
2, 88680, Note_on_c, 0, 66, 127
2, 88896, Note_off_c, 0, 66, 0
2, 88920, Note_on_c, 0, 68, 127
2, 89136, Note_off_c, 0, 68, 0
2, 89160, Note_on_c, 0, 71, 127
2, 89376, Note_off_c, 0, 71, 0
2, 89400, Note_on_c, 0, 70, 127
2, 89616, Note_off_c, 0, 70, 0
2, 89640, Note_on_c, 0, 68, 127
2, 89856, Note_off_c, 0, 68, 0
2, 89880, Note_on_c, 0, 67, 127
2, 90096, Note_off_c, 0, 67, 0
2, 90120, Note_on_c, 0, 71, 127
2, 90336, Note_off_c, 0, 71, 0
2, 90360, Note_on_c, 0, 70, 127
2, 90576, Note_off_c, 0, 70, 0
2, 90600, Note_on_c, 0, 70, 127
2, 90720, Note_off_c, 0, 70, 0
2, 90720, Note_on_c, 0, 68, 127
2, 91200, Note_off_c, 0, 68, 0
2, 91440, Note_on_c, 0, 63, 127
2, 91548, Note_off_c, 0, 63, 0
2, 91560, Note_on_c, 0, 62, 127
2, 91776, Note_off_c, 0, 62, 0
2, 91800, Note_on_c, 0, 63, 127
2, 92016, Note_off_c, 0, 63, 0
2, 92040, Note_on_c, 0, 65, 127
2, 92256, Note_off_c, 0, 65, 0
2, 92280, Note_on_c, 0, 67, 127
2, 92496, Note_off_c, 0, 67, 0
2, 92520, Note_on_c, 0, 68, 127
2, 92736, Note_off_c, 0, 68, 0
2, 92760, Note_on_c, 0, 70, 127
2, 92976, Note_off_c, 0, 70, 0
2, 93000, Note_on_c, 0, 73, 127
2, 93216, Note_off_c, 0, 73, 0
2, 93240, Note_on_c, 0, 72, 127
2, 93456, Note_off_c, 0, 72, 0
2, 93480, Note_on_c, 0, 70, 127
2, 93696, Note_off_c, 0, 70, 0
2, 93720, Note_on_c, 0, 68, 127
2, 93936, Note_off_c, 0, 68, 0
2, 93960, Note_on_c, 0, 70, 127
2, 94986, Note_off_c, 0, 70, 0
2, 95280, Note_on_c, 0, 72, 127
2, 95388, Note_off_c, 0, 72, 0
2, 95400, Note_on_c, 0, 72, 127
2, 95616, Note_off_c, 0, 72, 0
2, 95640, Note_on_c, 0, 72, 127
2, 95856, Note_off_c, 0, 72, 0
2, 95880, Note_on_c, 0, 72, 127
2, 96204, Note_off_c, 0, 72, 0
2, 96240, Note_on_c, 0, 68, 127
2, 96348, Note_off_c, 0, 68, 0
2, 96360, Note_on_c, 0, 68, 127
2, 96792, Note_off_c, 0, 68, 0
2, 96840, Note_on_c, 0, 68, 127
2, 96948, Note_off_c, 0, 68, 0
2, 96960, Note_on_c, 0, 70, 127
2, 97176, Note_off_c, 0, 70, 0
2, 97200, Note_on_c, 0, 68, 127
2, 97308, Note_off_c, 0, 68, 0
2, 97320, Note_on_c, 0, 70, 127
2, 97536, Note_off_c, 0, 70, 0
2, 97560, Note_on_c, 0, 72, 127
2, 97776, Note_off_c, 0, 72, 0
2, 97800, Note_on_c, 0, 73, 127
2, 99306, Note_off_c, 0, 73, 0
2, 99480, Note_on_c, 0, 73, 127
2, 99588, Note_off_c, 0, 73, 0
2, 99600, Note_on_c, 0, 73, 127
2, 99708, Note_off_c, 0, 73, 0
2, 99720, Note_on_c, 0, 73, 127
2, 99840, Note_off_c, 0, 73, 0
2, 99840, Note_on_c, 0, 72, 127
2, 100320, Note_off_c, 0, 72, 0
2, 100440, Note_on_c, 0, 63, 127
2, 100548, Note_off_c, 0, 63, 0
2, 100560, Note_on_c, 0, 63, 127
2, 100668, Note_off_c, 0, 63, 0
2, 100680, Note_on_c, 0, 70, 127
2, 101226, Note_off_c, 0, 70, 0
2, 101400, Note_on_c, 0, 68, 127
2, 101508, Note_off_c, 0, 68, 0
2, 101520, Note_on_c, 0, 65, 127
2, 101628, Note_off_c, 0, 65, 0
2, 101640, Note_on_c, 0, 65, 127
2, 101856, Note_off_c, 0, 65, 0
2, 101880, Note_on_c, 0, 65, 127
2, 101988, Note_off_c, 0, 65, 0
2, 102000, Note_on_c, 0, 65, 127
2, 102108, Note_off_c, 0, 65, 0
2, 102120, Note_on_c, 0, 65, 127
2, 102336, Note_off_c, 0, 65, 0
2, 102360, Note_on_c, 0, 67, 127
2, 102576, Note_off_c, 0, 67, 0
2, 102600, Note_on_c, 0, 68, 127
2, 102840, Note_off_c, 0, 68, 0
2, 102840, Note_on_c, 0, 70, 127
2, 102960, Note_off_c, 0, 70, 0
2, 102960, Note_on_c, 0, 68, 127
2, 103200, Note_off_c, 0, 68, 0
2, 103320, Note_on_c, 0, 65, 127
2, 103428, Note_off_c, 0, 65, 0
2, 103440, Note_on_c, 0, 67, 127
2, 103548, Note_off_c, 0, 67, 0
2, 103560, Note_on_c, 0, 68, 127
2, 104106, Note_off_c, 0, 68, 0
2, 104280, Note_on_c, 0, 63, 127
2, 104388, Note_off_c, 0, 63, 0
2, 104400, Note_on_c, 0, 72, 127
2, 104508, Note_off_c, 0, 72, 0
2, 104520, Note_on_c, 0, 72, 127
2, 104640, Note_off_c, 0, 72, 0
2, 104640, Note_on_c, 0, 70, 127
2, 105120, Note_off_c, 0, 70, 0
2, 105360, Note_on_c, 0, 68, 127
2, 105468, Note_off_c, 0, 68, 0
2, 105480, Note_on_c, 0, 72, 127
2, 105696, Note_off_c, 0, 72, 0
2, 105720, Note_on_c, 0, 72, 127
2, 105936, Note_off_c, 0, 72, 0
2, 105960, Note_on_c, 0, 73, 127
2, 106200, Note_off_c, 0, 73, 0
2, 106200, Note_on_c, 0, 72, 127
2, 106320, Note_off_c, 0, 72, 0
2, 106320, Note_on_c, 0, 70, 127
2, 106440, Note_off_c, 0, 70, 0
2, 106440, Note_on_c, 0, 68, 127
2, 106560, Note_off_c, 0, 68, 0
2, 106560, Note_on_c, 0, 70, 127
2, 106680, Note_off_c, 0, 70, 0
2, 106680, Note_on_c, 0, 68, 127
2, 107280, Note_off_c, 0, 68, 0
2, 107520, Note_on_c, 0, 75, 127
2, 107844, Note_off_c, 0, 75, 0
2, 107880, Note_on_c, 0, 72, 127
2, 108204, Note_off_c, 0, 72, 0
2, 108240, Note_on_c, 0, 70, 127
2, 108906, Note_off_c, 0, 70, 0
2, 108960, Note_on_c, 0, 68, 127
2, 109176, Note_off_c, 0, 68, 0
2, 109200, Note_on_c, 0, 68, 127
2, 109416, Note_off_c, 0, 68, 0
2, 109440, Note_on_c, 0, 75, 127
2, 109764, Note_off_c, 0, 75, 0
2, 109800, Note_on_c, 0, 72, 127
2, 110124, Note_off_c, 0, 72, 0
2, 110160, Note_on_c, 0, 73, 127
2, 110268, Note_off_c, 0, 73, 0
2, 110280, Note_on_c, 0, 72, 127
2, 110496, Note_off_c, 0, 72, 0
2, 110520, Note_on_c, 0, 70, 127
2, 110628, Note_off_c, 0, 70, 0
2, 110640, Note_on_c, 0, 68, 127
2, 111786, Note_off_c, 0, 68, 0
2, 112080, Note_on_c, 0, 68, 127
2, 112188, Note_off_c, 0, 68, 0
2, 112200, Note_on_c, 0, 68, 127
2, 112308, Note_off_c, 0, 68, 0
2, 112320, Note_on_c, 0, 67, 127
2, 112644, Note_off_c, 0, 67, 0
2, 112680, Note_on_c, 0, 68, 127
2, 113004, Note_off_c, 0, 68, 0
2, 113040, Note_on_c, 0, 75, 127
2, 114666, Note_off_c, 0, 75, 0
2, 115080, Note_on_c, 0, 60, 127
2, 115188, Note_off_c, 0, 60, 0
2, 115200, Note_on_c, 0, 61, 127
2, 115416, Note_off_c, 0, 61, 0
2, 115440, Note_on_c, 0, 61, 127
2, 115548, Note_off_c, 0, 61, 0
2, 115560, Note_on_c, 0, 60, 127
2, 115668, Note_off_c, 0, 60, 0
2, 115680, Note_on_c, 0, 61, 127
2, 115788, Note_off_c, 0, 61, 0
2, 115800, Note_on_c, 0, 60, 127
2, 115908, Note_off_c, 0, 60, 0
2, 115920, Note_on_c, 0, 61, 127
2, 116028, Note_off_c, 0, 61, 0
2, 116040, Note_on_c, 0, 61, 127
2, 116148, Note_off_c, 0, 61, 0
2, 116160, Note_on_c, 0, 60, 127
2, 116268, Note_off_c, 0, 60, 0
2, 116280, Note_on_c, 0, 56, 127
2, 116604, Note_off_c, 0, 56, 0
2, 117084, End_track
3, 0, Start_track
3, 0, Program_c, 1, 0
3, 0, Instrument_name_t, "Piano"
3, 0, Note_on_c, 1, 79, 95
3, 108, Note_off_c, 1, 79, 0
3, 120, Note_on_c, 1, 80, 95
3, 228, Note_off_c, 1, 80, 0
3, 240, Note_on_c, 1, 72, 95
3, 348, Note_off_c, 1, 72, 0
3, 360, Note_on_c, 1, 79, 95
3, 576, Note_off_c, 1, 79, 0
3, 600, Note_on_c, 1, 80, 95
3, 924, Note_off_c, 1, 80, 0
3, 960, Note_on_c, 1, 79, 95
3, 1068, Note_off_c, 1, 79, 0
3, 1080, Note_on_c, 1, 80, 95
3, 1188, Note_off_c, 1, 80, 0
3, 1200, Note_on_c, 1, 72, 95
3, 1308, Note_off_c, 1, 72, 0
3, 1320, Note_on_c, 1, 80, 95
3, 1536, Note_off_c, 1, 80, 0
3, 1560, Note_on_c, 1, 79, 95
3, 1776, Note_off_c, 1, 79, 0
3, 1800, Note_on_c, 1, 70, 95
3, 1908, Note_off_c, 1, 70, 0
3, 1920, Note_on_c, 1, 77, 95
3, 2028, Note_off_c, 1, 77, 0
3, 2040, Note_on_c, 1, 79, 95
3, 2148, Note_off_c, 1, 79, 0
3, 2160, Note_on_c, 1, 70, 95
3, 2268, Note_off_c, 1, 70, 0
3, 2280, Note_on_c, 1, 77, 95
3, 2496, Note_off_c, 1, 77, 0
3, 2520, Note_on_c, 1, 79, 95
3, 2736, Note_off_c, 1, 79, 0
3, 2760, Note_on_c, 1, 70, 95
3, 2868, Note_off_c, 1, 70, 0
3, 2880, Note_on_c, 1, 75, 95
3, 3312, Note_off_c, 1, 75, 0
3, 3360, Note_on_c, 1, 73, 95
3, 3792, Note_off_c, 1, 73, 0
3, 3840, Note_on_c, 1, 79, 95
3, 3948, Note_off_c, 1, 79, 0
3, 3960, Note_on_c, 1, 80, 95
3, 4068, Note_off_c, 1, 80, 0
3, 4080, Note_on_c, 1, 72, 95
3, 4188, Note_off_c, 1, 72, 0
3, 4200, Note_on_c, 1, 79, 95
3, 4416, Note_off_c, 1, 79, 0
3, 4440, Note_on_c, 1, 80, 95
3, 4764, Note_off_c, 1, 80, 0
3, 4800, Note_on_c, 1, 80, 95
3, 4908, Note_off_c, 1, 80, 0
3, 4920, Note_on_c, 1, 79, 95
3, 5028, Note_off_c, 1, 79, 0
3, 5040, Note_on_c, 1, 72, 95
3, 5148, Note_off_c, 1, 72, 0
3, 5160, Note_on_c, 1, 80, 95
3, 5376, Note_off_c, 1, 80, 0
3, 5400, Note_on_c, 1, 79, 95
3, 5616, Note_off_c, 1, 79, 0
3, 5640, Note_on_c, 1, 70, 95
3, 5748, Note_off_c, 1, 70, 0
3, 5760, Note_on_c, 1, 77, 95
3, 5868, Note_off_c, 1, 77, 0
3, 5880, Note_on_c, 1, 79, 95
3, 5988, Note_off_c, 1, 79, 0
3, 6000, Note_on_c, 1, 70, 95
3, 6108, Note_off_c, 1, 70, 0
3, 6120, Note_on_c, 1, 77, 95
3, 6336, Note_off_c, 1, 77, 0
3, 6360, Note_on_c, 1, 79, 95
3, 6576, Note_off_c, 1, 79, 0
3, 6600, Note_on_c, 1, 70, 95
3, 6720, Note_on_c, 1, 75, 95
3, 7146, Note_off_c, 1, 70, 0
3, 7152, Note_off_c, 1, 75, 0
3, 7200, Note_on_c, 1, 70, 95
3, 7200, Note_on_c, 1, 74, 95
3, 7632, Note_off_c, 1, 70, 0
3, 7632, Note_off_c, 1, 74, 0
3, 7680, Note_on_c, 1, 67, 95
3, 7788, Note_off_c, 1, 67, 0
3, 7800, Note_on_c, 1, 68, 95
3, 7908, Note_off_c, 1, 68, 0
3, 7920, Note_on_c, 1, 60, 95
3, 8028, Note_off_c, 1, 60, 0
3, 8040, Note_on_c, 1, 67, 95
3, 8256, Note_off_c, 1, 67, 0
3, 8280, Note_on_c, 1, 68, 95
3, 8604, Note_off_c, 1, 68, 0
3, 8640, Note_on_c, 1, 68, 95
3, 8748, Note_off_c, 1, 68, 0
3, 8760, Note_on_c, 1, 67, 95
3, 8868, Note_off_c, 1, 67, 0
3, 8880, Note_on_c, 1, 60, 95
3, 8988, Note_off_c, 1, 60, 0
3, 9000, Note_on_c, 1, 68, 95
3, 9216, Note_off_c, 1, 68, 0
3, 9240, Note_on_c, 1, 67, 95
3, 9456, Note_off_c, 1, 67, 0
3, 9480, Note_on_c, 1, 58, 95
3, 9588, Note_off_c, 1, 58, 0
3, 9600, Note_on_c, 1, 65, 95
3, 9708, Note_off_c, 1, 65, 0
3, 9720, Note_on_c, 1, 67, 95
3, 9828, Note_off_c, 1, 67, 0
3, 9840, Note_on_c, 1, 58, 95
3, 9948, Note_off_c, 1, 58, 0
3, 9960, Note_on_c, 1, 65, 95
3, 10176, Note_off_c, 1, 65, 0
3, 10200, Note_on_c, 1, 67, 95
3, 10416, Note_off_c, 1, 67, 0
3, 10440, Note_on_c, 1, 58, 95
3, 10548, Note_off_c, 1, 58, 0
3, 10560, Note_on_c, 1, 63, 95
3, 10776, Note_off_c, 1, 63, 0
3, 10800, Note_on_c, 1, 58, 95
3, 11016, Note_off_c, 1, 58, 0
3, 11040, Note_on_c, 1, 61, 95
3, 11256, Note_off_c, 1, 61, 0
3, 11280, Note_on_c, 1, 58, 95
3, 11496, Note_off_c, 1, 58, 0
3, 11520, Note_on_c, 1, 67, 95
3, 11628, Note_off_c, 1, 67, 0
3, 11640, Note_on_c, 1, 68, 95
3, 11748, Note_off_c, 1, 68, 0
3, 11760, Note_on_c, 1, 60, 95
3, 11868, Note_off_c, 1, 60, 0
3, 11880, Note_on_c, 1, 68, 95
3, 12096, Note_off_c, 1, 68, 0
3, 12120, Note_on_c, 1, 67, 95
3, 12444, Note_off_c, 1, 67, 0
3, 12480, Note_on_c, 1, 68, 95
3, 12588, Note_off_c, 1, 68, 0
3, 12600, Note_on_c, 1, 67, 95
3, 12708, Note_off_c, 1, 67, 0
3, 12720, Note_on_c, 1, 60, 95
3, 12828, Note_off_c, 1, 60, 0
3, 12840, Note_on_c, 1, 68, 95
3, 13056, Note_off_c, 1, 68, 0
3, 13080, Note_on_c, 1, 67, 95
3, 13296, Note_off_c, 1, 67, 0
3, 13320, Note_on_c, 1, 58, 95
3, 13428, Note_off_c, 1, 58, 0
3, 13440, Note_on_c, 1, 65, 95
3, 13548, Note_off_c, 1, 65, 0
3, 13560, Note_on_c, 1, 67, 95
3, 13668, Note_off_c, 1, 67, 0
3, 13680, Note_on_c, 1, 58, 95
3, 13788, Note_off_c, 1, 58, 0
3, 13800, Note_on_c, 1, 65, 95
3, 14016, Note_off_c, 1, 65, 0
3, 14040, Note_on_c, 1, 63, 95
3, 14256, Note_off_c, 1, 63, 0
3, 14280, Note_on_c, 1, 58, 95
3, 14400, Note_on_c, 1, 63, 95
3, 14826, Note_off_c, 1, 58, 0
3, 14832, Note_off_c, 1, 63, 0
3, 14880, Note_on_c, 1, 58, 95
3, 14880, Note_on_c, 1, 62, 95
3, 15312, Note_off_c, 1, 58, 0
3, 15312, Note_off_c, 1, 62, 0
3, 15360, Note_on_c, 1, 67, 95
3, 15468, Note_off_c, 1, 67, 0
3, 15480, Note_on_c, 1, 68, 95
3, 15588, Note_off_c, 1, 68, 0
3, 15600, Note_on_c, 1, 60, 95
3, 15708, Note_off_c, 1, 60, 0
3, 15720, Note_on_c, 1, 67, 95
3, 15936, Note_off_c, 1, 67, 0
3, 15960, Note_on_c, 1, 68, 95
3, 16176, Note_off_c, 1, 68, 0
3, 16200, Note_on_c, 1, 60, 95
3, 16308, Note_off_c, 1, 60, 0
3, 16320, Note_on_c, 1, 68, 95
3, 16428, Note_off_c, 1, 68, 0
3, 16440, Note_on_c, 1, 67, 95
3, 16548, Note_off_c, 1, 67, 0
3, 16560, Note_on_c, 1, 60, 95
3, 16668, Note_off_c, 1, 60, 0
3, 16680, Note_on_c, 1, 68, 95
3, 16896, Note_off_c, 1, 68, 0
3, 16920, Note_on_c, 1, 67, 95
3, 17136, Note_off_c, 1, 67, 0
3, 17160, Note_on_c, 1, 58, 95
3, 17268, Note_off_c, 1, 58, 0
3, 17280, Note_on_c, 1, 65, 95
3, 17388, Note_off_c, 1, 65, 0
3, 17400, Note_on_c, 1, 67, 95
3, 17508, Note_off_c, 1, 67, 0
3, 17520, Note_on_c, 1, 58, 95
3, 17628, Note_off_c, 1, 58, 0
3, 17640, Note_on_c, 1, 65, 95
3, 17856, Note_off_c, 1, 65, 0
3, 17880, Note_on_c, 1, 67, 95
3, 18096, Note_off_c, 1, 67, 0
3, 18120, Note_on_c, 1, 58, 95
3, 18228, Note_off_c, 1, 58, 0
3, 18240, Note_on_c, 1, 63, 95
3, 18456, Note_off_c, 1, 63, 0
3, 18480, Note_on_c, 1, 58, 95
3, 18696, Note_off_c, 1, 58, 0
3, 18720, Note_on_c, 1, 61, 95
3, 18936, Note_off_c, 1, 61, 0
3, 18960, Note_on_c, 1, 58, 95
3, 19176, Note_off_c, 1, 58, 0
3, 19200, Note_on_c, 1, 60, 95
3, 19200, Note_on_c, 1, 68, 95
3, 19986, Note_off_c, 1, 60, 0
3, 19986, Note_off_c, 1, 68, 0
3, 20040, Note_on_c, 1, 58, 95
3, 20040, Note_on_c, 1, 67, 95
3, 21066, Note_off_c, 1, 58, 0
3, 21066, Note_off_c, 1, 67, 0
3, 21120, Note_on_c, 1, 62, 95
3, 21120, Note_on_c, 1, 65, 95
3, 21552, Note_off_c, 1, 62, 0
3, 21552, Note_off_c, 1, 65, 0
3, 21600, Note_on_c, 1, 63, 95
3, 21600, Note_on_c, 1, 65, 95
3, 21816, Note_off_c, 1, 63, 0
3, 21816, Note_off_c, 1, 65, 0
3, 21840, Note_on_c, 1, 58, 95
3, 22056, Note_off_c, 1, 58, 0
3, 22080, Note_on_c, 1, 65, 95
3, 22080, Note_on_c, 1, 62, 95
3, 22296, Note_off_c, 1, 65, 0
3, 22296, Note_off_c, 1, 62, 0
3, 22320, Note_on_c, 1, 58, 95
3, 22536, Note_off_c, 1, 58, 0
3, 22560, Note_on_c, 1, 70, 95
3, 22560, Note_on_c, 1, 62, 95
3, 22560, Note_on_c, 1, 65, 95
3, 22776, Note_off_c, 1, 70, 0
3, 22776, Note_off_c, 1, 62, 0
3, 22776, Note_off_c, 1, 65, 0
3, 22800, Note_on_c, 1, 58, 95
3, 22986, Note_on_c, 1, 58, 95
3, 23013, Note_on_c, 1, 63, 95
3, 23016, Note_off_c, 1, 58, 0
3, 23040, Note_on_c, 1, 67, 95
3, 24906, Note_off_c, 1, 58, 0
3, 24906, Note_on_c, 1, 56, 95
3, 24906, Note_off_c, 1, 63, 0
3, 24906, Note_off_c, 1, 67, 0
3, 24933, Note_on_c, 1, 61, 95
3, 24960, Note_on_c, 1, 65, 95
3, 26826, Note_off_c, 1, 56, 0
3, 26826, Note_on_c, 1, 58, 95
3, 26826, Note_off_c, 1, 61, 0
3, 26826, Note_off_c, 1, 65, 0
3, 26853, Note_on_c, 1, 63, 95
3, 26880, Note_on_c, 1, 67, 95
3, 28746, Note_off_c, 1, 58, 0
3, 28746, Note_off_c, 1, 63, 0
3, 28746, Note_off_c, 1, 67, 0
3, 28800, Note_on_c, 1, 65, 95
3, 28800, Note_on_c, 1, 61, 95
3, 28908, Note_off_c, 1, 65, 0
3, 28908, Note_off_c, 1, 61, 0
3, 28920, Note_on_c, 1, 56, 95
3, 29028, Note_off_c, 1, 56, 0
3, 29040, Note_on_c, 1, 61, 95
3, 29040, Note_on_c, 1, 65, 95
3, 29148, Note_off_c, 1, 61, 0
3, 29148, Note_off_c, 1, 65, 0
3, 29160, Note_on_c, 1, 56, 95
3, 29268, Note_off_c, 1, 56, 0
3, 29280, Note_on_c, 1, 61, 95
3, 29280, Note_on_c, 1, 65, 95
3, 29388, Note_off_c, 1, 61, 0
3, 29388, Note_off_c, 1, 65, 0
3, 29400, Note_on_c, 1, 56, 95
3, 29508, Note_off_c, 1, 56, 0
3, 29520, Note_on_c, 1, 65, 95
3, 29520, Note_on_c, 1, 61, 95
3, 29628, Note_off_c, 1, 65, 0
3, 29628, Note_off_c, 1, 61, 0
3, 29640, Note_on_c, 1, 56, 95
3, 29748, Note_off_c, 1, 56, 0
3, 29760, Note_on_c, 1, 61, 95
3, 29760, Note_on_c, 1, 65, 95
3, 29868, Note_off_c, 1, 61, 0
3, 29868, Note_off_c, 1, 65, 0
3, 29880, Note_on_c, 1, 56, 95
3, 29988, Note_off_c, 1, 56, 0
3, 30000, Note_on_c, 1, 61, 95
3, 30000, Note_on_c, 1, 65, 95
3, 30108, Note_off_c, 1, 61, 0
3, 30108, Note_off_c, 1, 65, 0
3, 30120, Note_on_c, 1, 56, 95
3, 30228, Note_off_c, 1, 56, 0
3, 30240, Note_on_c, 1, 65, 95
3, 30240, Note_on_c, 1, 61, 95
3, 30348, Note_off_c, 1, 65, 0
3, 30348, Note_off_c, 1, 61, 0
3, 30360, Note_on_c, 1, 56, 95
3, 30468, Note_off_c, 1, 56, 0
3, 30480, Note_on_c, 1, 61, 95
3, 30480, Note_on_c, 1, 65, 95
3, 30588, Note_off_c, 1, 61, 0
3, 30588, Note_off_c, 1, 65, 0
3, 30600, Note_on_c, 1, 56, 95
3, 30708, Note_off_c, 1, 56, 0
3, 30720, Note_on_c, 1, 65, 95
3, 30720, Note_on_c, 1, 61, 95
3, 30828, Note_off_c, 1, 65, 0
3, 30828, Note_off_c, 1, 61, 0
3, 30840, Note_on_c, 1, 56, 95
3, 30948, Note_off_c, 1, 56, 0
3, 30960, Note_on_c, 1, 61, 95
3, 30960, Note_on_c, 1, 65, 95
3, 31068, Note_off_c, 1, 61, 0
3, 31068, Note_off_c, 1, 65, 0
3, 31080, Note_on_c, 1, 56, 95
3, 31188, Note_off_c, 1, 56, 0
3, 31200, Note_on_c, 1, 65, 95
3, 31200, Note_on_c, 1, 61, 95
3, 31308, Note_off_c, 1, 65, 0
3, 31308, Note_off_c, 1, 61, 0
3, 31320, Note_on_c, 1, 56, 95
3, 31428, Note_off_c, 1, 56, 0
3, 31440, Note_on_c, 1, 61, 95
3, 31440, Note_on_c, 1, 65, 95
3, 31548, Note_off_c, 1, 61, 0
3, 31548, Note_off_c, 1, 65, 0
3, 31560, Note_on_c, 1, 56, 95
3, 31668, Note_off_c, 1, 56, 0
3, 31680, Note_on_c, 1, 61, 95
3, 31680, Note_on_c, 1, 65, 95
3, 31788, Note_off_c, 1, 61, 0
3, 31788, Note_off_c, 1, 65, 0
3, 31800, Note_on_c, 1, 56, 95
3, 31908, Note_off_c, 1, 56, 0
3, 31920, Note_on_c, 1, 65, 95
3, 31920, Note_on_c, 1, 61, 95
3, 32028, Note_off_c, 1, 65, 0
3, 32028, Note_off_c, 1, 61, 0
3, 32040, Note_on_c, 1, 56, 95
3, 32148, Note_off_c, 1, 56, 0
3, 32160, Note_on_c, 1, 65, 95
3, 32160, Note_on_c, 1, 61, 95
3, 32376, Note_off_c, 1, 65, 0
3, 32376, Note_off_c, 1, 61, 0
3, 32640, Note_on_c, 1, 87, 95
3, 32640, Note_on_c, 1, 84, 95
3, 32640, Note_on_c, 1, 80, 95
3, 32748, Note_off_c, 1, 87, 0
3, 32748, Note_off_c, 1, 84, 0
3, 32748, Note_off_c, 1, 80, 0
3, 32760, Note_on_c, 1, 75, 95
3, 32868, Note_off_c, 1, 75, 0
3, 32880, Note_on_c, 1, 87, 95
3, 32880, Note_on_c, 1, 84, 95
3, 32880, Note_on_c, 1, 80, 95
3, 32988, Note_off_c, 1, 87, 0
3, 32988, Note_off_c, 1, 84, 0
3, 32988, Note_off_c, 1, 80, 0
3, 33000, Note_on_c, 1, 75, 95
3, 33108, Note_off_c, 1, 75, 0
3, 33120, Note_on_c, 1, 80, 95
3, 33120, Note_on_c, 1, 87, 95
3, 33120, Note_on_c, 1, 84, 95
3, 33228, Note_off_c, 1, 80, 0
3, 33228, Note_off_c, 1, 87, 0
3, 33228, Note_off_c, 1, 84, 0
3, 33240, Note_on_c, 1, 75, 95
3, 33348, Note_off_c, 1, 75, 0
3, 33360, Note_on_c, 1, 87, 95
3, 33360, Note_on_c, 1, 84, 95
3, 33360, Note_on_c, 1, 80, 95
3, 33468, Note_off_c, 1, 87, 0
3, 33468, Note_off_c, 1, 84, 0
3, 33468, Note_off_c, 1, 80, 0
3, 33480, Note_on_c, 1, 75, 95
3, 33588, Note_off_c, 1, 75, 0
3, 33600, Note_on_c, 1, 79, 95
3, 33600, Note_on_c, 1, 82, 95
3, 33600, Note_on_c, 1, 87, 95
3, 33708, Note_off_c, 1, 79, 0
3, 33708, Note_off_c, 1, 82, 0
3, 33708, Note_off_c, 1, 87, 0
3, 33720, Note_on_c, 1, 75, 95
3, 33828, Note_off_c, 1, 75, 0
3, 33840, Note_on_c, 1, 79, 95
3, 33840, Note_on_c, 1, 87, 95
3, 33840, Note_on_c, 1, 82, 95
3, 33948, Note_off_c, 1, 79, 0
3, 33948, Note_off_c, 1, 87, 0
3, 33948, Note_off_c, 1, 82, 0
3, 33960, Note_on_c, 1, 75, 95
3, 34068, Note_off_c, 1, 75, 0
3, 34080, Note_on_c, 1, 79, 95
3, 34080, Note_on_c, 1, 82, 95
3, 34080, Note_on_c, 1, 87, 95
3, 34188, Note_off_c, 1, 79, 0
3, 34188, Note_off_c, 1, 82, 0
3, 34188, Note_off_c, 1, 87, 0
3, 34200, Note_on_c, 1, 75, 95
3, 34308, Note_off_c, 1, 75, 0
3, 34320, Note_on_c, 1, 79, 95
3, 34320, Note_on_c, 1, 82, 95
3, 34320, Note_on_c, 1, 87, 95
3, 34428, Note_off_c, 1, 79, 0
3, 34428, Note_off_c, 1, 82, 0
3, 34428, Note_off_c, 1, 87, 0
3, 34440, Note_on_c, 1, 75, 95
3, 34548, Note_off_c, 1, 75, 0
3, 34560, Note_on_c, 1, 80, 95
3, 34560, Note_on_c, 1, 84, 95
3, 34668, Note_off_c, 1, 80, 0
3, 34668, Note_off_c, 1, 84, 0
3, 34680, Note_on_c, 1, 77, 95
3, 34788, Note_off_c, 1, 77, 0
3, 34800, Note_on_c, 1, 80, 95
3, 34800, Note_on_c, 1, 84, 95
3, 34908, Note_off_c, 1, 80, 0
3, 34908, Note_off_c, 1, 84, 0
3, 34920, Note_on_c, 1, 77, 95
3, 35028, Note_off_c, 1, 77, 0
3, 35040, Note_on_c, 1, 80, 95
3, 35040, Note_on_c, 1, 84, 95
3, 35148, Note_off_c, 1, 80, 0
3, 35148, Note_off_c, 1, 84, 0
3, 35160, Note_on_c, 1, 77, 95
3, 35268, Note_off_c, 1, 77, 0
3, 35280, Note_on_c, 1, 84, 95
3, 35280, Note_on_c, 1, 80, 95
3, 35388, Note_off_c, 1, 84, 0
3, 35388, Note_off_c, 1, 80, 0
3, 35400, Note_on_c, 1, 77, 95
3, 35508, Note_off_c, 1, 77, 0
3, 35520, Note_on_c, 1, 85, 95
3, 35520, Note_on_c, 1, 80, 95
3, 35628, Note_off_c, 1, 85, 0
3, 35628, Note_off_c, 1, 80, 0
3, 35640, Note_on_c, 1, 77, 95
3, 35748, Note_off_c, 1, 77, 0
3, 35760, Note_on_c, 1, 80, 95
3, 35760, Note_on_c, 1, 85, 95
3, 35868, Note_off_c, 1, 80, 0
3, 35868, Note_off_c, 1, 85, 0
3, 35880, Note_on_c, 1, 77, 95
3, 35988, Note_off_c, 1, 77, 0
3, 36000, Note_on_c, 1, 80, 95
3, 36000, Note_on_c, 1, 85, 95
3, 36108, Note_off_c, 1, 80, 0
3, 36108, Note_off_c, 1, 85, 0
3, 36120, Note_on_c, 1, 77, 95
3, 36228, Note_off_c, 1, 77, 0
3, 36240, Note_on_c, 1, 80, 95
3, 36240, Note_on_c, 1, 85, 95
3, 36348, Note_off_c, 1, 80, 0
3, 36348, Note_off_c, 1, 85, 0
3, 36360, Note_on_c, 1, 77, 95
3, 36468, Note_off_c, 1, 77, 0
3, 36480, Note_on_c, 1, 84, 95
3, 36480, Note_on_c, 1, 80, 95
3, 36588, Note_off_c, 1, 84, 0
3, 36588, Note_off_c, 1, 80, 0
3, 36600, Note_on_c, 1, 75, 95
3, 36708, Note_off_c, 1, 75, 0
3, 36720, Note_on_c, 1, 84, 95
3, 36720, Note_on_c, 1, 80, 95
3, 36828, Note_off_c, 1, 84, 0
3, 36828, Note_off_c, 1, 80, 0
3, 36840, Note_on_c, 1, 75, 95
3, 36948, Note_off_c, 1, 75, 0
3, 36960, Note_on_c, 1, 80, 95
3, 36960, Note_on_c, 1, 84, 95
3, 37068, Note_off_c, 1, 80, 0
3, 37068, Note_off_c, 1, 84, 0
3, 37080, Note_on_c, 1, 75, 95
3, 37188, Note_off_c, 1, 75, 0
3, 37200, Note_on_c, 1, 80, 95
3, 37200, Note_on_c, 1, 84, 95
3, 37308, Note_off_c, 1, 80, 0
3, 37308, Note_off_c, 1, 84, 0
3, 37320, Note_on_c, 1, 75, 95
3, 37428, Note_off_c, 1, 75, 0
3, 37440, Note_on_c, 1, 79, 95
3, 37440, Note_on_c, 1, 82, 95
3, 37548, Note_off_c, 1, 79, 0
3, 37548, Note_off_c, 1, 82, 0
3, 37560, Note_on_c, 1, 75, 95
3, 37668, Note_off_c, 1, 75, 0
3, 37680, Note_on_c, 1, 79, 95
3, 37680, Note_on_c, 1, 82, 95
3, 37788, Note_off_c, 1, 79, 0
3, 37788, Note_off_c, 1, 82, 0
3, 37800, Note_on_c, 1, 75, 95
3, 37908, Note_off_c, 1, 75, 0
3, 37920, Note_on_c, 1, 82, 95
3, 37920, Note_on_c, 1, 79, 95
3, 38028, Note_off_c, 1, 82, 0
3, 38028, Note_off_c, 1, 79, 0
3, 38040, Note_on_c, 1, 75, 95
3, 38148, Note_off_c, 1, 75, 0
3, 38160, Note_on_c, 1, 79, 95
3, 38160, Note_on_c, 1, 82, 95
3, 38268, Note_off_c, 1, 79, 0
3, 38268, Note_off_c, 1, 82, 0
3, 38280, Note_on_c, 1, 75, 95
3, 38388, Note_off_c, 1, 75, 0
3, 38400, Note_on_c, 1, 80, 95
3, 38400, Note_on_c, 1, 84, 95
3, 38508, Note_off_c, 1, 80, 0
3, 38508, Note_off_c, 1, 84, 0
3, 38520, Note_on_c, 1, 77, 95
3, 38628, Note_off_c, 1, 77, 0
3, 38640, Note_on_c, 1, 80, 95
3, 38640, Note_on_c, 1, 84, 95
3, 38748, Note_off_c, 1, 80, 0
3, 38748, Note_off_c, 1, 84, 0
3, 38760, Note_on_c, 1, 77, 95
3, 38868, Note_off_c, 1, 77, 0
3, 38880, Note_on_c, 1, 80, 95
3, 38880, Note_on_c, 1, 84, 95
3, 38988, Note_off_c, 1, 80, 0
3, 38988, Note_off_c, 1, 84, 0
3, 39000, Note_on_c, 1, 77, 95
3, 39108, Note_off_c, 1, 77, 0
3, 39120, Note_on_c, 1, 84, 95
3, 39120, Note_on_c, 1, 80, 95
3, 39228, Note_off_c, 1, 84, 0
3, 39228, Note_off_c, 1, 80, 0
3, 39240, Note_on_c, 1, 77, 95
3, 39348, Note_off_c, 1, 77, 0
3, 39360, Note_on_c, 1, 80, 95
3, 39360, Note_on_c, 1, 85, 95
3, 39468, Note_off_c, 1, 80, 0
3, 39468, Note_off_c, 1, 85, 0
3, 39480, Note_on_c, 1, 77, 95
3, 39588, Note_off_c, 1, 77, 0
3, 39600, Note_on_c, 1, 85, 95
3, 39600, Note_on_c, 1, 80, 95
3, 39708, Note_off_c, 1, 85, 0
3, 39708, Note_off_c, 1, 80, 0
3, 39720, Note_on_c, 1, 77, 95
3, 39828, Note_off_c, 1, 77, 0
3, 39840, Note_on_c, 1, 80, 95
3, 39840, Note_on_c, 1, 85, 95
3, 39948, Note_off_c, 1, 80, 0
3, 39948, Note_off_c, 1, 85, 0
3, 39960, Note_on_c, 1, 77, 95
3, 40068, Note_off_c, 1, 77, 0
3, 40080, Note_on_c, 1, 85, 95
3, 40080, Note_on_c, 1, 80, 95
3, 40188, Note_off_c, 1, 85, 0
3, 40188, Note_off_c, 1, 80, 0
3, 40200, Note_on_c, 1, 77, 95
3, 40308, Note_off_c, 1, 77, 0
3, 40320, Note_on_c, 1, 80, 95
3, 40320, Note_on_c, 1, 75, 95
3, 40428, Note_off_c, 1, 80, 0
3, 40428, Note_off_c, 1, 75, 0
3, 40440, Note_on_c, 1, 72, 95
3, 40548, Note_off_c, 1, 72, 0
3, 40560, Note_on_c, 1, 75, 95
3, 40560, Note_on_c, 1, 80, 95
3, 40668, Note_off_c, 1, 75, 0
3, 40668, Note_off_c, 1, 80, 0
3, 40680, Note_on_c, 1, 72, 95
3, 40788, Note_off_c, 1, 72, 0
3, 40800, Note_on_c, 1, 80, 95
3, 40800, Note_on_c, 1, 75, 95
3, 40908, Note_off_c, 1, 80, 0
3, 40908, Note_off_c, 1, 75, 0
3, 40920, Note_on_c, 1, 72, 95
3, 41028, Note_off_c, 1, 72, 0
3, 41040, Note_on_c, 1, 80, 95
3, 41040, Note_on_c, 1, 75, 95
3, 41148, Note_off_c, 1, 80, 0
3, 41148, Note_off_c, 1, 75, 0
3, 41160, Note_on_c, 1, 72, 95
3, 41268, Note_off_c, 1, 72, 0
3, 41280, Note_on_c, 1, 79, 95
3, 41280, Note_on_c, 1, 75, 95
3, 41388, Note_off_c, 1, 79, 0
3, 41388, Note_off_c, 1, 75, 0
3, 41400, Note_on_c, 1, 70, 95
3, 41508, Note_off_c, 1, 70, 0
3, 41520, Note_on_c, 1, 79, 95
3, 41520, Note_on_c, 1, 75, 95
3, 41628, Note_off_c, 1, 79, 0
3, 41628, Note_off_c, 1, 75, 0
3, 41640, Note_on_c, 1, 70, 95
3, 41748, Note_off_c, 1, 70, 0
3, 41760, Note_on_c, 1, 75, 95
3, 41760, Note_on_c, 1, 79, 95
3, 41868, Note_off_c, 1, 75, 0
3, 41868, Note_off_c, 1, 79, 0
3, 41880, Note_on_c, 1, 70, 95
3, 41988, Note_off_c, 1, 70, 0
3, 42000, Note_on_c, 1, 79, 95
3, 42000, Note_on_c, 1, 75, 95
3, 42108, Note_off_c, 1, 79, 0
3, 42108, Note_off_c, 1, 75, 0
3, 42120, Note_on_c, 1, 70, 95
3, 42228, Note_off_c, 1, 70, 0
3, 42240, Note_on_c, 1, 80, 95
3, 42240, Note_on_c, 1, 77, 95
3, 42348, Note_off_c, 1, 80, 0
3, 42348, Note_off_c, 1, 77, 0
3, 42360, Note_on_c, 1, 72, 95
3, 42468, Note_off_c, 1, 72, 0
3, 42480, Note_on_c, 1, 80, 95
3, 42480, Note_on_c, 1, 77, 95
3, 42588, Note_off_c, 1, 80, 0
3, 42588, Note_off_c, 1, 77, 0
3, 42600, Note_on_c, 1, 72, 95
3, 42708, Note_off_c, 1, 72, 0
3, 42720, Note_on_c, 1, 77, 95
3, 42720, Note_on_c, 1, 80, 95
3, 42936, Note_off_c, 1, 77, 0
3, 42936, Note_off_c, 1, 80, 0
3, 42960, Note_on_c, 1, 72, 95
3, 43176, Note_off_c, 1, 72, 0
3, 43200, Note_on_c, 1, 73, 95
3, 43200, Note_on_c, 1, 68, 95
3, 43200, Note_on_c, 1, 77, 95
3, 43632, Note_off_c, 1, 73, 0
3, 43632, Note_off_c, 1, 68, 0
3, 43632, Note_off_c, 1, 77, 0
3, 43680, Note_on_c, 1, 61, 95
3, 43680, Note_on_c, 1, 65, 95
3, 43680, Note_on_c, 1, 56, 95
3, 44112, Note_off_c, 1, 61, 0
3, 44112, Note_off_c, 1, 65, 0
3, 44112, Note_off_c, 1, 56, 0
3, 44160, Note_on_c, 1, 63, 95
3, 44160, Note_on_c, 1, 67, 95
3, 44160, Note_on_c, 1, 60, 95
3, 44592, Note_off_c, 1, 63, 0
3, 44592, Note_off_c, 1, 67, 0
3, 44592, Note_off_c, 1, 60, 0
3, 44640, Note_on_c, 1, 67, 95
3, 44640, Note_on_c, 1, 63, 95
3, 44640, Note_on_c, 1, 60, 95
3, 45072, Note_off_c, 1, 67, 0
3, 45072, Note_off_c, 1, 63, 0
3, 45072, Note_off_c, 1, 60, 0
3, 45120, Note_on_c, 1, 63, 95
3, 45120, Note_on_c, 1, 66, 95
3, 45120, Note_on_c, 1, 59, 95
3, 45336, Note_off_c, 1, 63, 0
3, 45336, Note_off_c, 1, 66, 0
3, 45336, Note_off_c, 1, 59, 0
3, 45360, Note_on_c, 1, 66, 95
3, 45360, Note_on_c, 1, 63, 95
3, 45360, Note_on_c, 1, 59, 95
3, 45576, Note_off_c, 1, 66, 0
3, 45576, Note_off_c, 1, 63, 0
3, 45576, Note_off_c, 1, 59, 0
3, 45600, Note_on_c, 1, 66, 95
3, 45600, Note_on_c, 1, 59, 95
3, 45600, Note_on_c, 1, 63, 95
3, 45816, Note_off_c, 1, 66, 0
3, 45816, Note_off_c, 1, 59, 0
3, 45816, Note_off_c, 1, 63, 0
3, 45840, Note_on_c, 1, 63, 95
3, 45840, Note_on_c, 1, 59, 95
3, 45840, Note_on_c, 1, 66, 95
3, 46056, Note_off_c, 1, 63, 0
3, 46056, Note_off_c, 1, 59, 0
3, 46056, Note_off_c, 1, 66, 0
3, 46080, Note_on_c, 1, 56, 95
3, 46080, Note_on_c, 1, 61, 95
3, 46080, Note_on_c, 1, 68, 95
3, 46080, Note_on_c, 1, 65, 95
3, 46986, Note_off_c, 1, 56, 0
3, 46986, Note_off_c, 1, 61, 0
3, 46986, Note_off_c, 1, 68, 0
3, 46986, Note_off_c, 1, 65, 0
3, 47520, Note_on_c, 1, 75, 95
3, 47520, Note_on_c, 1, 80, 95
3, 47736, Note_off_c, 1, 75, 0
3, 47736, Note_off_c, 1, 80, 0
3, 47760, Note_on_c, 1, 73, 95
3, 47760, Note_on_c, 1, 80, 95
3, 47868, Note_off_c, 1, 73, 0
3, 47868, Note_off_c, 1, 80, 0
3, 47880, Note_on_c, 1, 72, 95
3, 47988, Note_off_c, 1, 72, 0
3, 48240, Note_on_c, 1, 68, 95
3, 48348, Note_off_c, 1, 68, 0
3, 48360, Note_on_c, 1, 75, 95
3, 48468, Note_off_c, 1, 75, 0
3, 48480, Note_on_c, 1, 80, 95
3, 48480, Note_on_c, 1, 68, 95
3, 48588, Note_off_c, 1, 80, 0
3, 48588, Note_off_c, 1, 68, 0
3, 48600, Note_on_c, 1, 75, 95
3, 48708, Note_off_c, 1, 75, 0
3, 48720, Note_on_c, 1, 68, 95
3, 48720, Note_on_c, 1, 80, 95
3, 48828, Note_off_c, 1, 68, 0
3, 48828, Note_off_c, 1, 80, 0
3, 48840, Note_on_c, 1, 82, 95
3, 48948, Note_off_c, 1, 82, 0
3, 49080, Note_on_c, 1, 75, 95
3, 49188, Note_off_c, 1, 75, 0
3, 49200, Note_on_c, 1, 70, 95
3, 49308, Note_off_c, 1, 70, 0
3, 49320, Note_on_c, 1, 75, 95
3, 49428, Note_off_c, 1, 75, 0
3, 49440, Note_on_c, 1, 70, 95
3, 49440, Note_on_c, 1, 82, 95
3, 49548, Note_off_c, 1, 70, 0
3, 49548, Note_off_c, 1, 82, 0
3, 49560, Note_on_c, 1, 80, 95
3, 49668, Note_off_c, 1, 80, 0
3, 49680, Note_on_c, 1, 79, 95
3, 49680, Note_on_c, 1, 70, 95
3, 49788, Note_off_c, 1, 79, 0
3, 49788, Note_off_c, 1, 70, 0
3, 49800, Note_on_c, 1, 80, 95
3, 49908, Note_off_c, 1, 80, 0
3, 49920, Note_on_c, 1, 56, 95
3, 49920, Note_on_c, 1, 65, 95
3, 49920, Note_on_c, 1, 60, 95
3, 50136, Note_off_c, 1, 56, 0
3, 50136, Note_off_c, 1, 65, 0
3, 50136, Note_off_c, 1, 60, 0
3, 50160, Note_on_c, 1, 65, 95
3, 50160, Note_on_c, 1, 60, 95
3, 50160, Note_on_c, 1, 56, 95
3, 50376, Note_off_c, 1, 65, 0
3, 50376, Note_off_c, 1, 60, 0
3, 50376, Note_off_c, 1, 56, 0
3, 50400, Note_on_c, 1, 60, 95
3, 50400, Note_on_c, 1, 65, 95
3, 50400, Note_on_c, 1, 56, 95
3, 50616, Note_off_c, 1, 60, 0
3, 50616, Note_off_c, 1, 65, 0
3, 50616, Note_off_c, 1, 56, 0
3, 50640, Note_on_c, 1, 65, 95
3, 50640, Note_on_c, 1, 60, 95
3, 50640, Note_on_c, 1, 56, 95
3, 50856, Note_off_c, 1, 65, 0
3, 50856, Note_off_c, 1, 60, 0
3, 50856, Note_off_c, 1, 56, 0
3, 50880, Note_on_c, 1, 65, 95
3, 50880, Note_on_c, 1, 56, 95
3, 50880, Note_on_c, 1, 60, 95
3, 51096, Note_off_c, 1, 65, 0
3, 51096, Note_off_c, 1, 56, 0
3, 51096, Note_off_c, 1, 60, 0
3, 51120, Note_on_c, 1, 65, 95
3, 51120, Note_on_c, 1, 60, 95
3, 51120, Note_on_c, 1, 56, 95
3, 51336, Note_off_c, 1, 65, 0
3, 51336, Note_off_c, 1, 60, 0
3, 51336, Note_off_c, 1, 56, 0
3, 51360, Note_on_c, 1, 60, 95
3, 51360, Note_on_c, 1, 56, 95
3, 51360, Note_on_c, 1, 65, 95
3, 51576, Note_off_c, 1, 60, 0
3, 51576, Note_off_c, 1, 56, 0
3, 51576, Note_off_c, 1, 65, 0
3, 51600, Note_on_c, 1, 56, 95
3, 51600, Note_on_c, 1, 65, 95
3, 51600, Note_on_c, 1, 60, 95
3, 51816, Note_off_c, 1, 56, 0
3, 51816, Note_off_c, 1, 65, 0
3, 51816, Note_off_c, 1, 60, 0
3, 51840, Note_on_c, 1, 55, 95
3, 51840, Note_on_c, 1, 63, 95
3, 51840, Note_on_c, 1, 58, 95
3, 52056, Note_off_c, 1, 55, 0
3, 52056, Note_off_c, 1, 63, 0
3, 52056, Note_off_c, 1, 58, 0
3, 52080, Note_on_c, 1, 58, 95
3, 52080, Note_on_c, 1, 55, 95
3, 52080, Note_on_c, 1, 63, 95
3, 52296, Note_off_c, 1, 58, 0
3, 52296, Note_off_c, 1, 55, 0
3, 52296, Note_off_c, 1, 63, 0
3, 52320, Note_on_c, 1, 55, 95
3, 52320, Note_on_c, 1, 63, 95
3, 52320, Note_on_c, 1, 58, 95
3, 52536, Note_off_c, 1, 55, 0
3, 52536, Note_off_c, 1, 63, 0
3, 52536, Note_off_c, 1, 58, 0
3, 52560, Note_on_c, 1, 63, 95
3, 52560, Note_on_c, 1, 55, 95
3, 52560, Note_on_c, 1, 58, 95
3, 52776, Note_off_c, 1, 63, 0
3, 52776, Note_off_c, 1, 55, 0
3, 52776, Note_off_c, 1, 58, 0
3, 52800, Note_on_c, 1, 58, 95
3, 52800, Note_on_c, 1, 53, 95
3, 52800, Note_on_c, 1, 61, 95
3, 53016, Note_off_c, 1, 58, 0
3, 53016, Note_off_c, 1, 53, 0
3, 53016, Note_off_c, 1, 61, 0
3, 53040, Note_on_c, 1, 53, 95
3, 53040, Note_on_c, 1, 58, 95
3, 53040, Note_on_c, 1, 61, 95
3, 53256, Note_off_c, 1, 53, 0
3, 53256, Note_off_c, 1, 58, 0
3, 53256, Note_off_c, 1, 61, 0
3, 53280, Note_on_c, 1, 58, 95
3, 53280, Note_on_c, 1, 61, 95
3, 53280, Note_on_c, 1, 53, 95
3, 53496, Note_off_c, 1, 58, 0
3, 53496, Note_off_c, 1, 61, 0
3, 53496, Note_off_c, 1, 53, 0
3, 53520, Note_on_c, 1, 53, 95
3, 53520, Note_on_c, 1, 58, 95
3, 53520, Note_on_c, 1, 61, 95
3, 53736, Note_off_c, 1, 53, 0
3, 53736, Note_off_c, 1, 58, 0
3, 53736, Note_off_c, 1, 61, 0
3, 53760, Note_on_c, 1, 60, 95
3, 53760, Note_on_c, 1, 68, 95
3, 53760, Note_on_c, 1, 65, 95
3, 53976, Note_off_c, 1, 60, 0
3, 53976, Note_off_c, 1, 68, 0
3, 53976, Note_off_c, 1, 65, 0
3, 54000, Note_on_c, 1, 65, 95
3, 54000, Note_on_c, 1, 68, 95
3, 54000, Note_on_c, 1, 60, 95
3, 54216, Note_off_c, 1, 65, 0
3, 54216, Note_off_c, 1, 68, 0
3, 54216, Note_off_c, 1, 60, 0
3, 54240, Note_on_c, 1, 60, 95
3, 54240, Note_on_c, 1, 65, 95
3, 54240, Note_on_c, 1, 68, 95
3, 54456, Note_off_c, 1, 60, 0
3, 54456, Note_off_c, 1, 65, 0
3, 54456, Note_off_c, 1, 68, 0
3, 54480, Note_on_c, 1, 65, 95
3, 54480, Note_on_c, 1, 68, 95
3, 54480, Note_on_c, 1, 60, 95
3, 54696, Note_off_c, 1, 65, 0
3, 54696, Note_off_c, 1, 68, 0
3, 54696, Note_off_c, 1, 60, 0
3, 54720, Note_on_c, 1, 58, 95
3, 54720, Note_on_c, 1, 63, 95
3, 54720, Note_on_c, 1, 67, 95
3, 54936, Note_off_c, 1, 58, 0
3, 54936, Note_off_c, 1, 63, 0
3, 54936, Note_off_c, 1, 67, 0
3, 54960, Note_on_c, 1, 63, 95
3, 54960, Note_on_c, 1, 67, 95
3, 54960, Note_on_c, 1, 58, 95
3, 55176, Note_off_c, 1, 63, 0
3, 55176, Note_off_c, 1, 67, 0
3, 55176, Note_off_c, 1, 58, 0
3, 55200, Note_on_c, 1, 58, 95
3, 55200, Note_on_c, 1, 63, 95
3, 55200, Note_on_c, 1, 67, 95
3, 55416, Note_off_c, 1, 58, 0
3, 55416, Note_off_c, 1, 63, 0
3, 55416, Note_off_c, 1, 67, 0
3, 55440, Note_on_c, 1, 67, 95
3, 55440, Note_on_c, 1, 63, 95
3, 55440, Note_on_c, 1, 58, 95
3, 55656, Note_off_c, 1, 67, 0
3, 55656, Note_off_c, 1, 63, 0
3, 55656, Note_off_c, 1, 58, 0
3, 55680, Note_on_c, 1, 65, 95
3, 55680, Note_on_c, 1, 63, 95
3, 55680, Note_on_c, 1, 58, 95
3, 56004, Note_off_c, 1, 65, 0
3, 56004, Note_off_c, 1, 63, 0
3, 56004, Note_off_c, 1, 58, 0
3, 56040, Note_on_c, 1, 65, 95
3, 56040, Note_on_c, 1, 63, 95
3, 56040, Note_on_c, 1, 58, 95
3, 56472, Note_off_c, 1, 65, 0
3, 56472, Note_off_c, 1, 63, 0
3, 56472, Note_off_c, 1, 58, 0
3, 56520, Note_on_c, 1, 58, 95
3, 56628, Note_off_c, 1, 58, 0
3, 56640, Note_on_c, 1, 65, 95
3, 56640, Note_on_c, 1, 62, 95
3, 57072, Note_off_c, 1, 65, 0
3, 57072, Note_off_c, 1, 62, 0
3, 57120, Note_on_c, 1, 70, 95
3, 57228, Note_off_c, 1, 70, 0
3, 57240, Note_on_c, 1, 72, 95
3, 57348, Note_off_c, 1, 72, 0
3, 57360, Note_on_c, 1, 74, 95
3, 57576, Note_off_c, 1, 74, 0
3, 57600, Note_on_c, 1, 58, 95
3, 57600, Note_on_c, 1, 67, 95
3, 57600, Note_on_c, 1, 63, 95
3, 58440, Note_on_c, 1, 63, 95
3, 58440, Note_on_c, 1, 67, 95
3, 58656, Note_off_c, 1, 63, 0
3, 58656, Note_off_c, 1, 67, 0
3, 58680, Note_on_c, 1, 58, 95
3, 58896, Note_off_c, 1, 58, 0
3, 58920, Note_on_c, 1, 63, 95
3, 58920, Note_on_c, 1, 67, 95
3, 59136, Note_off_c, 1, 63, 0
3, 59136, Note_off_c, 1, 67, 0
3, 59160, Note_on_c, 1, 58, 95
3, 59280, Note_on_c, 1, 67, 95
3, 59280, Note_on_c, 1, 63, 95
3, 59466, Note_off_c, 1, 58, 0
3, 59466, Note_off_c, 1, 67, 0
3, 59466, Note_off_c, 1, 63, 0
3, 59484, Note_off_c, 1, 58, 0
3, 59496, Note_off_c, 1, 67, 0
3, 59496, Note_off_c, 1, 63, 0
3, 59520, Note_on_c, 1, 61, 95
3, 59520, Note_on_c, 1, 56, 95
3, 59520, Note_on_c, 1, 65, 95
3, 59952, Note_off_c, 1, 61, 0
3, 59952, Note_off_c, 1, 56, 0
3, 59952, Note_off_c, 1, 65, 0
3, 60000, Note_on_c, 1, 65, 95
3, 60000, Note_on_c, 1, 61, 95
3, 60000, Note_on_c, 1, 56, 95
3, 60480, Note_on_c, 1, 67, 95
3, 60912, Note_off_c, 1, 67, 0
3, 60960, Note_on_c, 1, 68, 95
3, 61386, Note_off_c, 1, 65, 0
3, 61386, Note_off_c, 1, 61, 0
3, 61386, Note_off_c, 1, 56, 0
3, 61392, Note_off_c, 1, 68, 0
3, 61440, Note_on_c, 1, 58, 95
3, 61440, Note_on_c, 1, 67, 95
3, 61440, Note_on_c, 1, 63, 95
3, 61440, Note_on_c, 1, 70, 95
3, 62040, Note_on_c, 1, 58, 95
3, 62148, Note_off_c, 1, 58, 0
3, 62160, Note_on_c, 1, 63, 95
3, 62280, Note_on_c, 1, 67, 95
3, 62484, Note_off_c, 1, 63, 0
3, 62496, Note_off_c, 1, 67, 0
3, 62520, Note_on_c, 1, 58, 95
3, 62736, Note_off_c, 1, 58, 0
3, 62760, Note_on_c, 1, 63, 95
3, 62760, Note_on_c, 1, 67, 95
3, 62976, Note_off_c, 1, 63, 0
3, 62976, Note_off_c, 1, 67, 0
3, 63000, Note_on_c, 1, 58, 95
3, 63120, Note_on_c, 1, 67, 95
3, 63120, Note_on_c, 1, 63, 95
3, 63306, Note_off_c, 1, 58, 0
3, 63306, Note_off_c, 1, 67, 0
3, 63306, Note_off_c, 1, 63, 0
3, 63306, Note_off_c, 1, 70, 0
3, 63324, Note_off_c, 1, 58, 0
3, 63336, Note_off_c, 1, 67, 0
3, 63336, Note_off_c, 1, 63, 0
3, 63360, Note_on_c, 1, 61, 95
3, 63360, Note_on_c, 1, 53, 95
3, 63360, Note_on_c, 1, 56, 95
3, 63360, Note_on_c, 1, 65, 95
3, 63576, Note_off_c, 1, 61, 0
3, 63576, Note_off_c, 1, 53, 0
3, 63576, Note_off_c, 1, 56, 0
3, 63576, Note_off_c, 1, 65, 0
3, 63600, Note_on_c, 1, 56, 95
3, 63600, Note_on_c, 1, 65, 95
3, 63600, Note_on_c, 1, 61, 95
3, 63816, Note_off_c, 1, 56, 0
3, 63816, Note_off_c, 1, 65, 0
3, 63816, Note_off_c, 1, 61, 0
3, 63840, Note_on_c, 1, 65, 95
3, 63840, Note_on_c, 1, 56, 95
3, 63840, Note_on_c, 1, 61, 95
3, 64056, Note_off_c, 1, 65, 0
3, 64056, Note_off_c, 1, 56, 0
3, 64056, Note_off_c, 1, 61, 0
3, 64080, Note_on_c, 1, 61, 95
3, 64080, Note_on_c, 1, 65, 95
3, 64080, Note_on_c, 1, 56, 95
3, 64296, Note_off_c, 1, 61, 0
3, 64296, Note_off_c, 1, 65, 0
3, 64296, Note_off_c, 1, 56, 0
3, 64320, Note_on_c, 1, 65, 95
3, 64320, Note_on_c, 1, 56, 95
3, 64320, Note_on_c, 1, 61, 95
3, 64440, Note_on_c, 1, 73, 95
3, 64536, Note_off_c, 1, 65, 0
3, 64536, Note_off_c, 1, 56, 0
3, 64536, Note_off_c, 1, 61, 0
3, 64548, Note_off_c, 1, 73, 0
3, 64560, Note_on_c, 1, 65, 95
3, 64560, Note_on_c, 1, 68, 95
3, 64560, Note_on_c, 1, 56, 95
3, 64560, Note_on_c, 1, 61, 95
3, 64668, Note_off_c, 1, 68, 0
3, 64680, Note_on_c, 1, 73, 95
3, 64776, Note_off_c, 1, 65, 0
3, 64776, Note_off_c, 1, 56, 0
3, 64776, Note_off_c, 1, 61, 0
3, 64788, Note_off_c, 1, 73, 0
3, 64800, Note_on_c, 1, 56, 95
3, 64800, Note_on_c, 1, 75, 95
3, 64800, Note_on_c, 1, 61, 95
3, 64800, Note_on_c, 1, 65, 95
3, 64908, Note_off_c, 1, 75, 0
3, 64920, Note_on_c, 1, 73, 95
3, 65016, Note_off_c, 1, 56, 0
3, 65016, Note_off_c, 1, 61, 0
3, 65016, Note_off_c, 1, 65, 0
3, 65028, Note_off_c, 1, 73, 0
3, 65040, Note_on_c, 1, 61, 95
3, 65040, Note_on_c, 1, 56, 95
3, 65040, Note_on_c, 1, 65, 95
3, 65040, Note_on_c, 1, 75, 95
3, 65148, Note_off_c, 1, 75, 0
3, 65160, Note_on_c, 1, 79, 95
3, 65256, Note_off_c, 1, 61, 0
3, 65256, Note_off_c, 1, 56, 0
3, 65256, Note_off_c, 1, 65, 0
3, 65268, Note_off_c, 1, 79, 0
3, 65280, Note_on_c, 1, 56, 95
3, 65280, Note_on_c, 1, 61, 95
3, 65280, Note_on_c, 1, 80, 95
3, 65280, Note_on_c, 1, 65, 95
3, 65388, Note_off_c, 1, 80, 0
3, 65400, Note_on_c, 1, 73, 95
3, 65496, Note_off_c, 1, 56, 0
3, 65496, Note_off_c, 1, 61, 0
3, 65496, Note_off_c, 1, 65, 0
3, 65508, Note_off_c, 1, 73, 0
3, 65520, Note_on_c, 1, 56, 95
3, 65520, Note_on_c, 1, 61, 95
3, 65520, Note_on_c, 1, 65, 95
3, 65520, Note_on_c, 1, 75, 95
3, 65628, Note_off_c, 1, 75, 0
3, 65640, Note_on_c, 1, 79, 95
3, 65736, Note_off_c, 1, 56, 0
3, 65736, Note_off_c, 1, 61, 0
3, 65736, Note_off_c, 1, 65, 0
3, 65748, Note_off_c, 1, 79, 0
3, 65760, Note_on_c, 1, 65, 95
3, 65760, Note_on_c, 1, 61, 95
3, 65760, Note_on_c, 1, 56, 95
3, 65760, Note_on_c, 1, 80, 95
3, 65868, Note_off_c, 1, 80, 0
3, 65976, Note_off_c, 1, 65, 0
3, 65976, Note_off_c, 1, 61, 0
3, 65976, Note_off_c, 1, 56, 0
3, 66240, Note_on_c, 1, 75, 95
3, 66240, Note_on_c, 1, 72, 95
3, 66240, Note_on_c, 1, 80, 95
3, 66456, Note_off_c, 1, 75, 0
3, 66456, Note_off_c, 1, 72, 0
3, 66456, Note_off_c, 1, 80, 0
3, 66480, Note_on_c, 1, 75, 95
3, 66480, Note_on_c, 1, 72, 95
3, 66480, Note_on_c, 1, 80, 95
3, 66696, Note_off_c, 1, 75, 0
3, 66696, Note_off_c, 1, 72, 0
3, 66696, Note_off_c, 1, 80, 0
3, 66720, Note_on_c, 1, 72, 95
3, 66720, Note_on_c, 1, 80, 95
3, 66720, Note_on_c, 1, 75, 95
3, 66936, Note_off_c, 1, 72, 0
3, 66936, Note_off_c, 1, 80, 0
3, 66936, Note_off_c, 1, 75, 0
3, 66960, Note_on_c, 1, 72, 95
3, 66960, Note_on_c, 1, 75, 95
3, 66960, Note_on_c, 1, 80, 95
3, 67176, Note_off_c, 1, 72, 0
3, 67176, Note_off_c, 1, 75, 0
3, 67176, Note_off_c, 1, 80, 0
3, 67200, Note_on_c, 1, 70, 95
3, 67200, Note_on_c, 1, 79, 95
3, 67200, Note_on_c, 1, 75, 95
3, 67416, Note_off_c, 1, 70, 0
3, 67416, Note_off_c, 1, 79, 0
3, 67416, Note_off_c, 1, 75, 0
3, 67440, Note_on_c, 1, 79, 95
3, 67440, Note_on_c, 1, 70, 95
3, 67440, Note_on_c, 1, 75, 95
3, 67656, Note_off_c, 1, 79, 0
3, 67656, Note_off_c, 1, 70, 0
3, 67656, Note_off_c, 1, 75, 0
3, 67680, Note_on_c, 1, 75, 95
3, 67680, Note_on_c, 1, 79, 95
3, 67680, Note_on_c, 1, 70, 95
3, 67896, Note_off_c, 1, 75, 0
3, 67896, Note_off_c, 1, 79, 0
3, 67896, Note_off_c, 1, 70, 0
3, 67920, Note_on_c, 1, 70, 95
3, 67920, Note_on_c, 1, 79, 95
3, 67920, Note_on_c, 1, 75, 95
3, 68136, Note_off_c, 1, 70, 0
3, 68136, Note_off_c, 1, 79, 0
3, 68136, Note_off_c, 1, 75, 0
3, 68160, Note_on_c, 1, 77, 95
3, 68160, Note_on_c, 1, 72, 95
3, 68160, Note_on_c, 1, 68, 95
3, 68376, Note_off_c, 1, 77, 0
3, 68376, Note_off_c, 1, 72, 0
3, 68376, Note_off_c, 1, 68, 0
3, 68400, Note_on_c, 1, 77, 95
3, 68400, Note_on_c, 1, 72, 95
3, 68400, Note_on_c, 1, 68, 95
3, 68616, Note_off_c, 1, 77, 0
3, 68616, Note_off_c, 1, 72, 0
3, 68616, Note_off_c, 1, 68, 0
3, 68640, Note_on_c, 1, 72, 95
3, 68640, Note_on_c, 1, 68, 95
3, 68640, Note_on_c, 1, 77, 95
3, 68856, Note_off_c, 1, 72, 0
3, 68856, Note_off_c, 1, 68, 0
3, 68856, Note_off_c, 1, 77, 0
3, 68880, Note_on_c, 1, 68, 95
3, 68880, Note_on_c, 1, 77, 95
3, 68880, Note_on_c, 1, 72, 95
3, 69096, Note_off_c, 1, 68, 0
3, 69096, Note_off_c, 1, 77, 0
3, 69096, Note_off_c, 1, 72, 0
3, 69120, Note_on_c, 1, 77, 95
3, 69120, Note_on_c, 1, 73, 95
3, 69120, Note_on_c, 1, 68, 95
3, 69336, Note_off_c, 1, 77, 0
3, 69336, Note_off_c, 1, 73, 0
3, 69336, Note_off_c, 1, 68, 0
3, 69360, Note_on_c, 1, 68, 95
3, 69360, Note_on_c, 1, 73, 95
3, 69360, Note_on_c, 1, 77, 95
3, 69576, Note_off_c, 1, 68, 0
3, 69576, Note_off_c, 1, 73, 0
3, 69576, Note_off_c, 1, 77, 0
3, 69600, Note_on_c, 1, 68, 95
3, 69600, Note_on_c, 1, 77, 95
3, 69600, Note_on_c, 1, 73, 95
3, 69816, Note_off_c, 1, 68, 0
3, 69816, Note_off_c, 1, 77, 0
3, 69816, Note_off_c, 1, 73, 0
3, 69840, Note_on_c, 1, 73, 95
3, 69840, Note_on_c, 1, 68, 95
3, 69840, Note_on_c, 1, 77, 95
3, 70056, Note_off_c, 1, 73, 0
3, 70056, Note_off_c, 1, 68, 0
3, 70056, Note_off_c, 1, 77, 0
3, 70080, Note_on_c, 1, 80, 95
3, 70080, Note_on_c, 1, 75, 95
3, 70080, Note_on_c, 1, 72, 95
3, 70296, Note_off_c, 1, 80, 0
3, 70296, Note_off_c, 1, 75, 0
3, 70296, Note_off_c, 1, 72, 0
3, 70320, Note_on_c, 1, 75, 95
3, 70320, Note_on_c, 1, 72, 95
3, 70320, Note_on_c, 1, 80, 95
3, 70536, Note_off_c, 1, 75, 0
3, 70536, Note_off_c, 1, 72, 0
3, 70536, Note_off_c, 1, 80, 0
3, 70560, Note_on_c, 1, 72, 95
3, 70560, Note_on_c, 1, 75, 95
3, 70560, Note_on_c, 1, 80, 95
3, 70776, Note_off_c, 1, 72, 0
3, 70776, Note_off_c, 1, 75, 0
3, 70776, Note_off_c, 1, 80, 0
3, 70800, Note_on_c, 1, 80, 95
3, 70800, Note_on_c, 1, 72, 95
3, 70800, Note_on_c, 1, 75, 95
3, 71016, Note_off_c, 1, 80, 0
3, 71016, Note_off_c, 1, 72, 0
3, 71016, Note_off_c, 1, 75, 0
3, 71040, Note_on_c, 1, 70, 95
3, 71040, Note_on_c, 1, 79, 95
3, 71040, Note_on_c, 1, 75, 95
3, 71256, Note_off_c, 1, 70, 0
3, 71256, Note_off_c, 1, 79, 0
3, 71256, Note_off_c, 1, 75, 0
3, 71280, Note_on_c, 1, 79, 95
3, 71280, Note_on_c, 1, 75, 95
3, 71280, Note_on_c, 1, 70, 95
3, 71496, Note_off_c, 1, 79, 0
3, 71496, Note_off_c, 1, 75, 0
3, 71496, Note_off_c, 1, 70, 0
3, 71520, Note_on_c, 1, 79, 95
3, 71520, Note_on_c, 1, 70, 95
3, 71520, Note_on_c, 1, 75, 95
3, 71736, Note_off_c, 1, 79, 0
3, 71736, Note_off_c, 1, 70, 0
3, 71736, Note_off_c, 1, 75, 0
3, 71760, Note_on_c, 1, 79, 95
3, 71760, Note_on_c, 1, 70, 95
3, 71760, Note_on_c, 1, 75, 95
3, 71976, Note_off_c, 1, 79, 0
3, 71976, Note_off_c, 1, 70, 0
3, 71976, Note_off_c, 1, 75, 0
3, 72000, Note_on_c, 1, 68, 95
3, 72000, Note_on_c, 1, 77, 95
3, 72000, Note_on_c, 1, 72, 95
3, 72216, Note_off_c, 1, 68, 0
3, 72216, Note_off_c, 1, 77, 0
3, 72216, Note_off_c, 1, 72, 0
3, 72240, Note_on_c, 1, 77, 95
3, 72240, Note_on_c, 1, 68, 95
3, 72240, Note_on_c, 1, 72, 95
3, 72456, Note_off_c, 1, 77, 0
3, 72456, Note_off_c, 1, 68, 0
3, 72456, Note_off_c, 1, 72, 0
3, 72480, Note_on_c, 1, 77, 95
3, 72480, Note_on_c, 1, 72, 95
3, 72480, Note_on_c, 1, 68, 95
3, 72696, Note_off_c, 1, 77, 0
3, 72696, Note_off_c, 1, 72, 0
3, 72696, Note_off_c, 1, 68, 0
3, 72720, Note_on_c, 1, 72, 95
3, 72720, Note_on_c, 1, 68, 95
3, 72720, Note_on_c, 1, 77, 95
3, 72936, Note_off_c, 1, 72, 0
3, 72936, Note_off_c, 1, 68, 0
3, 72936, Note_off_c, 1, 77, 0
3, 72960, Note_on_c, 1, 73, 95
3, 72960, Note_on_c, 1, 77, 95
3, 72960, Note_on_c, 1, 68, 95
3, 73176, Note_off_c, 1, 73, 0
3, 73176, Note_off_c, 1, 77, 0
3, 73176, Note_off_c, 1, 68, 0
3, 73200, Note_on_c, 1, 68, 95
3, 73200, Note_on_c, 1, 73, 95
3, 73200, Note_on_c, 1, 77, 95
3, 73416, Note_off_c, 1, 68, 0
3, 73416, Note_off_c, 1, 73, 0
3, 73416, Note_off_c, 1, 77, 0
3, 73440, Note_on_c, 1, 73, 95
3, 73440, Note_on_c, 1, 77, 95
3, 73440, Note_on_c, 1, 68, 95
3, 73656, Note_off_c, 1, 73, 0
3, 73656, Note_off_c, 1, 77, 0
3, 73656, Note_off_c, 1, 68, 0
3, 73680, Note_on_c, 1, 68, 95
3, 73680, Note_on_c, 1, 77, 95
3, 73680, Note_on_c, 1, 73, 95
3, 73896, Note_off_c, 1, 68, 0
3, 73896, Note_off_c, 1, 77, 0
3, 73896, Note_off_c, 1, 73, 0
3, 73920, Note_on_c, 1, 72, 95
3, 73920, Note_on_c, 1, 80, 95
3, 73920, Note_on_c, 1, 75, 95
3, 74244, Note_off_c, 1, 72, 0
3, 74244, Note_off_c, 1, 80, 0
3, 74244, Note_off_c, 1, 75, 0
3, 74280, Note_on_c, 1, 75, 95
3, 74280, Note_on_c, 1, 80, 95
3, 74280, Note_on_c, 1, 72, 95
3, 74604, Note_off_c, 1, 75, 0
3, 74604, Note_off_c, 1, 80, 0
3, 74604, Note_off_c, 1, 72, 0
3, 74640, Note_on_c, 1, 75, 95
3, 74640, Note_on_c, 1, 70, 95
3, 74640, Note_on_c, 1, 79, 95
3, 75306, Note_off_c, 1, 75, 0
3, 75306, Note_off_c, 1, 70, 0
3, 75306, Note_off_c, 1, 79, 0
3, 75360, Note_on_c, 1, 70, 95
3, 75360, Note_on_c, 1, 75, 95
3, 75360, Note_on_c, 1, 79, 95
3, 75792, Note_off_c, 1, 70, 0
3, 75792, Note_off_c, 1, 75, 0
3, 75792, Note_off_c, 1, 79, 0
3, 75840, Note_on_c, 1, 72, 95
3, 75840, Note_on_c, 1, 68, 95
3, 75840, Note_on_c, 1, 77, 95
3, 76164, Note_off_c, 1, 72, 0
3, 76164, Note_off_c, 1, 68, 0
3, 76164, Note_off_c, 1, 77, 0
3, 76200, Note_on_c, 1, 77, 95
3, 76200, Note_on_c, 1, 68, 95
3, 76200, Note_on_c, 1, 72, 95
3, 76524, Note_off_c, 1, 77, 0
3, 76524, Note_off_c, 1, 68, 0
3, 76524, Note_off_c, 1, 72, 0
3, 76560, Note_on_c, 1, 68, 95
3, 76560, Note_on_c, 1, 72, 95
3, 76560, Note_on_c, 1, 77, 95
3, 77226, Note_off_c, 1, 68, 0
3, 77226, Note_off_c, 1, 72, 0
3, 77226, Note_off_c, 1, 77, 0
3, 77280, Note_on_c, 1, 68, 95
3, 77280, Note_on_c, 1, 72, 95
3, 77280, Note_on_c, 1, 77, 95
3, 77712, Note_off_c, 1, 68, 0
3, 77712, Note_off_c, 1, 72, 0
3, 77712, Note_off_c, 1, 77, 0
3, 77760, Note_on_c, 1, 72, 95
3, 77760, Note_on_c, 1, 75, 95
3, 77760, Note_on_c, 1, 79, 95
3, 78426, Note_off_c, 1, 72, 0
3, 78426, Note_off_c, 1, 75, 0
3, 78426, Note_off_c, 1, 79, 0
3, 78480, Note_on_c, 1, 78, 95
3, 78480, Note_on_c, 1, 75, 95
3, 78480, Note_on_c, 1, 71, 95
3, 79146, Note_off_c, 1, 78, 0
3, 79146, Note_off_c, 1, 75, 0
3, 79146, Note_off_c, 1, 71, 0
3, 79200, Note_on_c, 1, 68, 95
3, 79308, Note_off_c, 1, 68, 0
3, 79320, Note_on_c, 1, 70, 95
3, 79428, Note_off_c, 1, 70, 0
3, 79440, Note_on_c, 1, 71, 95
3, 79548, Note_off_c, 1, 71, 0
3, 79560, Note_on_c, 1, 72, 95
3, 79668, Note_off_c, 1, 72, 0
3, 79680, Note_on_c, 1, 73, 95
3, 79788, Note_off_c, 1, 73, 0
3, 79800, Note_on_c, 1, 66, 95
3, 79908, Note_off_c, 1, 66, 0
3, 79920, Note_on_c, 1, 68, 95
3, 80028, Note_off_c, 1, 68, 0
3, 80040, Note_on_c, 1, 66, 95
3, 80148, Note_off_c, 1, 66, 0
3, 80160, Note_on_c, 1, 71, 95
3, 80268, Note_off_c, 1, 71, 0
3, 80280, Note_on_c, 1, 70, 95
3, 80388, Note_off_c, 1, 70, 0
3, 80400, Note_on_c, 1, 68, 95
3, 80508, Note_off_c, 1, 68, 0
3, 80520, Note_on_c, 1, 66, 95
3, 80628, Note_off_c, 1, 66, 0
3, 80640, Note_on_c, 1, 64, 95
3, 80748, Note_off_c, 1, 64, 0
3, 80760, Note_on_c, 1, 66, 95
3, 80868, Note_off_c, 1, 66, 0
3, 80880, Note_on_c, 1, 68, 95
3, 80988, Note_off_c, 1, 68, 0
3, 81000, Note_on_c, 1, 65, 95
3, 81108, Note_off_c, 1, 65, 0
3, 81120, Note_on_c, 1, 66, 95
3, 81228, Note_off_c, 1, 66, 0
3, 81240, Note_on_c, 1, 68, 95
3, 81348, Note_off_c, 1, 68, 0
3, 81360, Note_on_c, 1, 59, 95
3, 81468, Note_off_c, 1, 59, 0
3, 81480, Note_on_c, 1, 60, 95
3, 81588, Note_off_c, 1, 60, 0
3, 81600, Note_on_c, 1, 73, 95
3, 81654, Note_off_c, 1, 73, 0
3, 81660, Note_on_c, 1, 66, 95
3, 81714, Note_off_c, 1, 66, 0
3, 81720, Note_on_c, 1, 68, 95
3, 81774, Note_off_c, 1, 68, 0
3, 81780, Note_on_c, 1, 66, 95
3, 81834, Note_off_c, 1, 66, 0
3, 81840, Note_on_c, 1, 71, 95
3, 81894, Note_off_c, 1, 71, 0
3, 81900, Note_on_c, 1, 70, 95
3, 81954, Note_off_c, 1, 70, 0
3, 81960, Note_on_c, 1, 68, 95
3, 82014, Note_off_c, 1, 68, 0
3, 82020, Note_on_c, 1, 66, 95
3, 82074, Note_off_c, 1, 66, 0
3, 82080, Note_on_c, 1, 64, 95
3, 82134, Note_off_c, 1, 64, 0
3, 82140, Note_on_c, 1, 66, 95
3, 82194, Note_off_c, 1, 66, 0
3, 82200, Note_on_c, 1, 68, 95
3, 82254, Note_off_c, 1, 68, 0
3, 82260, Note_on_c, 1, 65, 95
3, 82314, Note_off_c, 1, 65, 0
3, 82320, Note_on_c, 1, 66, 95
3, 82374, Note_off_c, 1, 66, 0
3, 82380, Note_on_c, 1, 68, 95
3, 82434, Note_off_c, 1, 68, 0
3, 82440, Note_on_c, 1, 59, 95
3, 82494, Note_off_c, 1, 59, 0
3, 82500, Note_on_c, 1, 60, 95
3, 82554, Note_off_c, 1, 60, 0
3, 82560, Note_on_c, 1, 61, 95
3, 82614, Note_off_c, 1, 61, 0
3, 82620, Note_on_c, 1, 66, 95
3, 82674, Note_off_c, 1, 66, 0
3, 82680, Note_on_c, 1, 68, 95
3, 82734, Note_off_c, 1, 68, 0
3, 82740, Note_on_c, 1, 66, 95
3, 82794, Note_off_c, 1, 66, 0
3, 82800, Note_on_c, 1, 71, 95
3, 82854, Note_off_c, 1, 71, 0
3, 82860, Note_on_c, 1, 70, 95
3, 82914, Note_off_c, 1, 70, 0
3, 82920, Note_on_c, 1, 68, 95
3, 82974, Note_off_c, 1, 68, 0
3, 82980, Note_on_c, 1, 66, 95
3, 83034, Note_off_c, 1, 66, 0
3, 83040, Note_on_c, 1, 64, 95
3, 83094, Note_off_c, 1, 64, 0
3, 83100, Note_on_c, 1, 66, 95
3, 83154, Note_off_c, 1, 66, 0
3, 83160, Note_on_c, 1, 68, 95
3, 83214, Note_off_c, 1, 68, 0
3, 83220, Note_on_c, 1, 65, 95
3, 83274, Note_off_c, 1, 65, 0
3, 83280, Note_on_c, 1, 66, 95
3, 83334, Note_off_c, 1, 66, 0
3, 83340, Note_on_c, 1, 68, 95
3, 83394, Note_off_c, 1, 68, 0
3, 83400, Note_on_c, 1, 71, 95
3, 83454, Note_off_c, 1, 71, 0
3, 83460, Note_on_c, 1, 72, 95
3, 83514, Note_off_c, 1, 72, 0
3, 83520, Note_on_c, 1, 73, 127
3, 83628, Note_off_c, 1, 73, 0
3, 83640, Note_on_c, 1, 61, 95
3, 83640, Note_on_c, 1, 56, 95
3, 83640, Note_on_c, 1, 65, 95
3, 83748, Note_off_c, 1, 61, 0
3, 83748, Note_off_c, 1, 56, 0
3, 83748, Note_off_c, 1, 65, 0
3, 83760, Note_on_c, 1, 65, 95
3, 83760, Note_on_c, 1, 56, 95
3, 83760, Note_on_c, 1, 61, 95
3, 83868, Note_off_c, 1, 65, 0
3, 83868, Note_off_c, 1, 56, 0
3, 83868, Note_off_c, 1, 61, 0
3, 83880, Note_on_c, 1, 61, 127
3, 83880, Note_on_c, 1, 56, 127
3, 83880, Note_on_c, 1, 65, 127
3, 83988, Note_off_c, 1, 61, 0
3, 83988, Note_off_c, 1, 56, 0
3, 83988, Note_off_c, 1, 65, 0
3, 84000, Note_on_c, 1, 56, 95
3, 84000, Note_on_c, 1, 65, 95
3, 84000, Note_on_c, 1, 61, 95
3, 84108, Note_off_c, 1, 56, 0
3, 84108, Note_off_c, 1, 65, 0
3, 84108, Note_off_c, 1, 61, 0
3, 84120, Note_on_c, 1, 65, 95
3, 84120, Note_on_c, 1, 56, 95
3, 84120, Note_on_c, 1, 61, 95
3, 84228, Note_off_c, 1, 65, 0
3, 84228, Note_off_c, 1, 56, 0
3, 84228, Note_off_c, 1, 61, 0
3, 84240, Note_on_c, 1, 56, 127
3, 84240, Note_on_c, 1, 65, 127
3, 84240, Note_on_c, 1, 61, 127
3, 84348, Note_off_c, 1, 56, 0
3, 84348, Note_off_c, 1, 65, 0
3, 84348, Note_off_c, 1, 61, 0
3, 84360, Note_on_c, 1, 61, 95
3, 84360, Note_on_c, 1, 65, 95
3, 84360, Note_on_c, 1, 56, 95
3, 84468, Note_off_c, 1, 61, 0
3, 84468, Note_off_c, 1, 65, 0
3, 84468, Note_off_c, 1, 56, 0
3, 84480, Note_on_c, 1, 61, 127
3, 84480, Note_on_c, 1, 56, 127
3, 84480, Note_on_c, 1, 65, 127
3, 84588, Note_off_c, 1, 61, 0
3, 84588, Note_off_c, 1, 56, 0
3, 84588, Note_off_c, 1, 65, 0
3, 84600, Note_on_c, 1, 65, 95
3, 84600, Note_on_c, 1, 61, 95
3, 84600, Note_on_c, 1, 56, 95
3, 84708, Note_off_c, 1, 65, 0
3, 84708, Note_off_c, 1, 61, 0
3, 84708, Note_off_c, 1, 56, 0
3, 84720, Note_on_c, 1, 56, 95
3, 84720, Note_on_c, 1, 65, 95
3, 84720, Note_on_c, 1, 61, 95
3, 84828, Note_off_c, 1, 56, 0
3, 84828, Note_off_c, 1, 65, 0
3, 84828, Note_off_c, 1, 61, 0
3, 84840, Note_on_c, 1, 56, 127
3, 84840, Note_on_c, 1, 61, 127
3, 84840, Note_on_c, 1, 65, 127
3, 84948, Note_off_c, 1, 56, 0
3, 84948, Note_off_c, 1, 61, 0
3, 84948, Note_off_c, 1, 65, 0
3, 84960, Note_on_c, 1, 61, 95
3, 84960, Note_on_c, 1, 65, 95
3, 84960, Note_on_c, 1, 56, 95
3, 85068, Note_off_c, 1, 61, 0
3, 85068, Note_off_c, 1, 65, 0
3, 85068, Note_off_c, 1, 56, 0
3, 85080, Note_on_c, 1, 61, 95
3, 85080, Note_on_c, 1, 65, 95
3, 85080, Note_on_c, 1, 56, 95
3, 85188, Note_off_c, 1, 61, 0
3, 85188, Note_off_c, 1, 65, 0
3, 85188, Note_off_c, 1, 56, 0
3, 85200, Note_on_c, 1, 65, 127
3, 85200, Note_on_c, 1, 61, 127
3, 85200, Note_on_c, 1, 56, 127
3, 85308, Note_off_c, 1, 65, 0
3, 85308, Note_off_c, 1, 61, 0
3, 85308, Note_off_c, 1, 56, 0
3, 85320, Note_on_c, 1, 65, 95
3, 85320, Note_on_c, 1, 61, 95
3, 85320, Note_on_c, 1, 56, 95
3, 85428, Note_off_c, 1, 65, 0
3, 85428, Note_off_c, 1, 61, 0
3, 85428, Note_off_c, 1, 56, 0
3, 85440, Note_on_c, 1, 61, 127
3, 85440, Note_on_c, 1, 56, 127
3, 85440, Note_on_c, 1, 65, 127
3, 85548, Note_off_c, 1, 61, 0
3, 85548, Note_off_c, 1, 56, 0
3, 85548, Note_off_c, 1, 65, 0
3, 85560, Note_on_c, 1, 65, 95
3, 85560, Note_on_c, 1, 61, 95
3, 85560, Note_on_c, 1, 56, 95
3, 85668, Note_off_c, 1, 65, 0
3, 85668, Note_off_c, 1, 61, 0
3, 85668, Note_off_c, 1, 56, 0
3, 85680, Note_on_c, 1, 56, 95
3, 85680, Note_on_c, 1, 61, 95
3, 85680, Note_on_c, 1, 65, 95
3, 85788, Note_off_c, 1, 56, 0
3, 85788, Note_off_c, 1, 61, 0
3, 85788, Note_off_c, 1, 65, 0
3, 85800, Note_on_c, 1, 61, 127
3, 85800, Note_on_c, 1, 65, 127
3, 85800, Note_on_c, 1, 56, 127
3, 85908, Note_off_c, 1, 61, 0
3, 85908, Note_off_c, 1, 65, 0
3, 85908, Note_off_c, 1, 56, 0
3, 85920, Note_on_c, 1, 56, 95
3, 85920, Note_on_c, 1, 61, 95
3, 85920, Note_on_c, 1, 65, 95
3, 86028, Note_off_c, 1, 56, 0
3, 86028, Note_off_c, 1, 61, 0
3, 86028, Note_off_c, 1, 65, 0
3, 86040, Note_on_c, 1, 56, 95
3, 86040, Note_on_c, 1, 61, 95
3, 86040, Note_on_c, 1, 65, 95
3, 86148, Note_off_c, 1, 56, 0
3, 86148, Note_off_c, 1, 61, 0
3, 86148, Note_off_c, 1, 65, 0
3, 86160, Note_on_c, 1, 65, 127
3, 86160, Note_on_c, 1, 61, 127
3, 86160, Note_on_c, 1, 56, 127
3, 86268, Note_off_c, 1, 65, 0
3, 86268, Note_off_c, 1, 61, 0
3, 86268, Note_off_c, 1, 56, 0
3, 86280, Note_on_c, 1, 59, 95
3, 86496, Note_off_c, 1, 59, 0
3, 86520, Note_on_c, 1, 60, 95
3, 86736, Note_off_c, 1, 60, 0
3, 86760, Note_on_c, 1, 61, 95
3, 87306, Note_off_c, 1, 61, 0
3, 87360, Note_on_c, 1, 61, 127
3, 87360, Note_on_c, 1, 65, 127
3, 87360, Note_on_c, 1, 56, 127
3, 87468, Note_off_c, 1, 61, 0
3, 87468, Note_off_c, 1, 65, 0
3, 87468, Note_off_c, 1, 56, 0
3, 87480, Note_on_c, 1, 61, 95
3, 87480, Note_on_c, 1, 56, 95
3, 87480, Note_on_c, 1, 65, 95
3, 87588, Note_off_c, 1, 61, 0
3, 87588, Note_off_c, 1, 56, 0
3, 87588, Note_off_c, 1, 65, 0
3, 87600, Note_on_c, 1, 61, 95
3, 87600, Note_on_c, 1, 65, 95
3, 87600, Note_on_c, 1, 56, 95
3, 87708, Note_off_c, 1, 61, 0
3, 87708, Note_off_c, 1, 65, 0
3, 87708, Note_off_c, 1, 56, 0
3, 87720, Note_on_c, 1, 56, 127
3, 87720, Note_on_c, 1, 61, 127
3, 87720, Note_on_c, 1, 65, 127
3, 87828, Note_off_c, 1, 56, 0
3, 87828, Note_off_c, 1, 61, 0
3, 87828, Note_off_c, 1, 65, 0
3, 87840, Note_on_c, 1, 65, 95
3, 87840, Note_on_c, 1, 56, 95
3, 87840, Note_on_c, 1, 61, 95
3, 87948, Note_off_c, 1, 65, 0
3, 87948, Note_off_c, 1, 56, 0
3, 87948, Note_off_c, 1, 61, 0
3, 87960, Note_on_c, 1, 56, 95
3, 87960, Note_on_c, 1, 61, 95
3, 87960, Note_on_c, 1, 65, 95
3, 88068, Note_off_c, 1, 56, 0
3, 88068, Note_off_c, 1, 61, 0
3, 88068, Note_off_c, 1, 65, 0
3, 88080, Note_on_c, 1, 65, 127
3, 88080, Note_on_c, 1, 56, 127
3, 88080, Note_on_c, 1, 61, 127
3, 88188, Note_off_c, 1, 65, 0
3, 88188, Note_off_c, 1, 56, 0
3, 88188, Note_off_c, 1, 61, 0
3, 88200, Note_on_c, 1, 65, 95
3, 88200, Note_on_c, 1, 61, 95
3, 88200, Note_on_c, 1, 56, 95
3, 88308, Note_off_c, 1, 65, 0
3, 88308, Note_off_c, 1, 61, 0
3, 88308, Note_off_c, 1, 56, 0
3, 88320, Note_on_c, 1, 61, 127
3, 88320, Note_on_c, 1, 56, 127
3, 88320, Note_on_c, 1, 65, 127
3, 88428, Note_off_c, 1, 61, 0
3, 88428, Note_off_c, 1, 56, 0
3, 88428, Note_off_c, 1, 65, 0
3, 88440, Note_on_c, 1, 61, 95
3, 88440, Note_on_c, 1, 56, 95
3, 88440, Note_on_c, 1, 65, 95
3, 88548, Note_off_c, 1, 61, 0
3, 88548, Note_off_c, 1, 56, 0
3, 88548, Note_off_c, 1, 65, 0
3, 88560, Note_on_c, 1, 56, 95
3, 88560, Note_on_c, 1, 65, 95
3, 88560, Note_on_c, 1, 61, 95
3, 88668, Note_off_c, 1, 56, 0
3, 88668, Note_off_c, 1, 65, 0
3, 88668, Note_off_c, 1, 61, 0
3, 88680, Note_on_c, 1, 65, 127
3, 88680, Note_on_c, 1, 56, 127
3, 88680, Note_on_c, 1, 61, 127
3, 88788, Note_off_c, 1, 65, 0
3, 88788, Note_off_c, 1, 56, 0
3, 88788, Note_off_c, 1, 61, 0
3, 88800, Note_on_c, 1, 65, 95
3, 88800, Note_on_c, 1, 56, 95
3, 88800, Note_on_c, 1, 61, 95
3, 88908, Note_off_c, 1, 65, 0
3, 88908, Note_off_c, 1, 56, 0
3, 88908, Note_off_c, 1, 61, 0
3, 88920, Note_on_c, 1, 65, 95
3, 88920, Note_on_c, 1, 56, 95
3, 88920, Note_on_c, 1, 61, 95
3, 89028, Note_off_c, 1, 65, 0
3, 89028, Note_off_c, 1, 56, 0
3, 89028, Note_off_c, 1, 61, 0
3, 89040, Note_on_c, 1, 56, 127
3, 89040, Note_on_c, 1, 65, 127
3, 89040, Note_on_c, 1, 61, 127
3, 89148, Note_off_c, 1, 56, 0
3, 89148, Note_off_c, 1, 65, 0
3, 89148, Note_off_c, 1, 61, 0
3, 89160, Note_on_c, 1, 56, 95
3, 89160, Note_on_c, 1, 65, 95
3, 89160, Note_on_c, 1, 61, 95
3, 89268, Note_off_c, 1, 56, 0
3, 89268, Note_off_c, 1, 65, 0
3, 89268, Note_off_c, 1, 61, 0
3, 89280, Note_on_c, 1, 65, 127
3, 89280, Note_on_c, 1, 61, 127
3, 89280, Note_on_c, 1, 56, 127
3, 89388, Note_off_c, 1, 65, 0
3, 89388, Note_off_c, 1, 61, 0
3, 89388, Note_off_c, 1, 56, 0
3, 89400, Note_on_c, 1, 61, 95
3, 89400, Note_on_c, 1, 65, 95
3, 89400, Note_on_c, 1, 56, 95
3, 89508, Note_off_c, 1, 61, 0
3, 89508, Note_off_c, 1, 65, 0
3, 89508, Note_off_c, 1, 56, 0
3, 89520, Note_on_c, 1, 65, 95
3, 89520, Note_on_c, 1, 61, 95
3, 89520, Note_on_c, 1, 56, 95
3, 89628, Note_off_c, 1, 65, 0
3, 89628, Note_off_c, 1, 61, 0
3, 89628, Note_off_c, 1, 56, 0
3, 89640, Note_on_c, 1, 61, 127
3, 89640, Note_on_c, 1, 65, 127
3, 89640, Note_on_c, 1, 56, 127
3, 89748, Note_off_c, 1, 61, 0
3, 89748, Note_off_c, 1, 65, 0
3, 89748, Note_off_c, 1, 56, 0
3, 89760, Note_on_c, 1, 65, 95
3, 89760, Note_on_c, 1, 56, 95
3, 89760, Note_on_c, 1, 61, 95
3, 89868, Note_off_c, 1, 65, 0
3, 89868, Note_off_c, 1, 56, 0
3, 89868, Note_off_c, 1, 61, 0
3, 89880, Note_on_c, 1, 56, 95
3, 89880, Note_on_c, 1, 65, 95
3, 89880, Note_on_c, 1, 61, 95
3, 89988, Note_off_c, 1, 56, 0
3, 89988, Note_off_c, 1, 65, 0
3, 89988, Note_off_c, 1, 61, 0
3, 90000, Note_on_c, 1, 61, 127
3, 90000, Note_on_c, 1, 56, 127
3, 90000, Note_on_c, 1, 65, 127
3, 90108, Note_off_c, 1, 61, 0
3, 90108, Note_off_c, 1, 56, 0
3, 90108, Note_off_c, 1, 65, 0
3, 90120, Note_on_c, 1, 59, 95
3, 90336, Note_off_c, 1, 59, 0
3, 90360, Note_on_c, 1, 60, 95
3, 90576, Note_off_c, 1, 60, 0
3, 90600, Note_on_c, 1, 61, 95
3, 91146, Note_off_c, 1, 61, 0
3, 91200, Note_on_c, 1, 58, 127
3, 91200, Note_on_c, 1, 63, 127
3, 91200, Note_on_c, 1, 67, 127
3, 91308, Note_off_c, 1, 58, 0
3, 91308, Note_off_c, 1, 63, 0
3, 91308, Note_off_c, 1, 67, 0
3, 91320, Note_on_c, 1, 63, 95
3, 91320, Note_on_c, 1, 67, 95
3, 91320, Note_on_c, 1, 58, 95
3, 91428, Note_off_c, 1, 63, 0
3, 91428, Note_off_c, 1, 67, 0
3, 91428, Note_off_c, 1, 58, 0
3, 91440, Note_on_c, 1, 63, 95
3, 91440, Note_on_c, 1, 58, 95
3, 91440, Note_on_c, 1, 67, 95
3, 91548, Note_off_c, 1, 63, 0
3, 91548, Note_off_c, 1, 58, 0
3, 91548, Note_off_c, 1, 67, 0
3, 91560, Note_on_c, 1, 58, 127
3, 91560, Note_on_c, 1, 63, 127
3, 91560, Note_on_c, 1, 67, 127
3, 91668, Note_off_c, 1, 58, 0
3, 91668, Note_off_c, 1, 63, 0
3, 91668, Note_off_c, 1, 67, 0
3, 91680, Note_on_c, 1, 58, 95
3, 91680, Note_on_c, 1, 63, 95
3, 91680, Note_on_c, 1, 67, 95
3, 91788, Note_off_c, 1, 58, 0
3, 91788, Note_off_c, 1, 63, 0
3, 91788, Note_off_c, 1, 67, 0
3, 91800, Note_on_c, 1, 58, 95
3, 91800, Note_on_c, 1, 67, 95
3, 91800, Note_on_c, 1, 63, 95
3, 91908, Note_off_c, 1, 58, 0
3, 91908, Note_off_c, 1, 67, 0
3, 91908, Note_off_c, 1, 63, 0
3, 91920, Note_on_c, 1, 67, 127
3, 91920, Note_on_c, 1, 58, 127
3, 91920, Note_on_c, 1, 63, 127
3, 92028, Note_off_c, 1, 67, 0
3, 92028, Note_off_c, 1, 58, 0
3, 92028, Note_off_c, 1, 63, 0
3, 92040, Note_on_c, 1, 63, 95
3, 92040, Note_on_c, 1, 58, 95
3, 92040, Note_on_c, 1, 67, 95
3, 92148, Note_off_c, 1, 63, 0
3, 92148, Note_off_c, 1, 58, 0
3, 92148, Note_off_c, 1, 67, 0
3, 92160, Note_on_c, 1, 63, 127
3, 92160, Note_on_c, 1, 58, 127
3, 92160, Note_on_c, 1, 67, 127
3, 92268, Note_off_c, 1, 63, 0
3, 92268, Note_off_c, 1, 58, 0
3, 92268, Note_off_c, 1, 67, 0
3, 92280, Note_on_c, 1, 67, 95
3, 92280, Note_on_c, 1, 58, 95
3, 92280, Note_on_c, 1, 63, 95
3, 92388, Note_off_c, 1, 67, 0
3, 92388, Note_off_c, 1, 58, 0
3, 92388, Note_off_c, 1, 63, 0
3, 92400, Note_on_c, 1, 63, 95
3, 92400, Note_on_c, 1, 58, 95
3, 92400, Note_on_c, 1, 67, 95
3, 92508, Note_off_c, 1, 63, 0
3, 92508, Note_off_c, 1, 58, 0
3, 92508, Note_off_c, 1, 67, 0
3, 92520, Note_on_c, 1, 63, 127
3, 92520, Note_on_c, 1, 58, 127
3, 92520, Note_on_c, 1, 67, 127
3, 92628, Note_off_c, 1, 63, 0
3, 92628, Note_off_c, 1, 58, 0
3, 92628, Note_off_c, 1, 67, 0
3, 92640, Note_on_c, 1, 67, 95
3, 92640, Note_on_c, 1, 58, 95
3, 92640, Note_on_c, 1, 63, 95
3, 92748, Note_off_c, 1, 67, 0
3, 92748, Note_off_c, 1, 58, 0
3, 92748, Note_off_c, 1, 63, 0
3, 92760, Note_on_c, 1, 67, 95
3, 92760, Note_on_c, 1, 58, 95
3, 92760, Note_on_c, 1, 63, 95
3, 92868, Note_off_c, 1, 67, 0
3, 92868, Note_off_c, 1, 58, 0
3, 92868, Note_off_c, 1, 63, 0
3, 92880, Note_on_c, 1, 67, 127
3, 92880, Note_on_c, 1, 63, 127
3, 92880, Note_on_c, 1, 58, 127
3, 92988, Note_off_c, 1, 67, 0
3, 92988, Note_off_c, 1, 63, 0
3, 92988, Note_off_c, 1, 58, 0
3, 93000, Note_on_c, 1, 58, 95
3, 93000, Note_on_c, 1, 63, 95
3, 93000, Note_on_c, 1, 67, 95
3, 93108, Note_off_c, 1, 58, 0
3, 93108, Note_off_c, 1, 63, 0
3, 93108, Note_off_c, 1, 67, 0
3, 93120, Note_on_c, 1, 63, 127
3, 93120, Note_on_c, 1, 58, 127
3, 93120, Note_on_c, 1, 67, 127
3, 93228, Note_off_c, 1, 63, 0
3, 93228, Note_off_c, 1, 58, 0
3, 93228, Note_off_c, 1, 67, 0
3, 93240, Note_on_c, 1, 67, 95
3, 93240, Note_on_c, 1, 63, 95
3, 93240, Note_on_c, 1, 58, 95
3, 93348, Note_off_c, 1, 67, 0
3, 93348, Note_off_c, 1, 63, 0
3, 93348, Note_off_c, 1, 58, 0
3, 93360, Note_on_c, 1, 67, 95
3, 93360, Note_on_c, 1, 58, 95
3, 93360, Note_on_c, 1, 63, 95
3, 93468, Note_off_c, 1, 67, 0
3, 93468, Note_off_c, 1, 58, 0
3, 93468, Note_off_c, 1, 63, 0
3, 93480, Note_on_c, 1, 67, 127
3, 93480, Note_on_c, 1, 63, 127
3, 93480, Note_on_c, 1, 58, 127
3, 93588, Note_off_c, 1, 67, 0
3, 93588, Note_off_c, 1, 63, 0
3, 93588, Note_off_c, 1, 58, 0
3, 93600, Note_on_c, 1, 67, 95
3, 93600, Note_on_c, 1, 58, 95
3, 93600, Note_on_c, 1, 63, 95
3, 93708, Note_off_c, 1, 67, 0
3, 93708, Note_off_c, 1, 58, 0
3, 93708, Note_off_c, 1, 63, 0
3, 93720, Note_on_c, 1, 58, 95
3, 93720, Note_on_c, 1, 63, 95
3, 93720, Note_on_c, 1, 67, 95
3, 93828, Note_off_c, 1, 58, 0
3, 93828, Note_off_c, 1, 63, 0
3, 93828, Note_off_c, 1, 67, 0
3, 93840, Note_on_c, 1, 63, 127
3, 93840, Note_on_c, 1, 58, 127
3, 93840, Note_on_c, 1, 67, 127
3, 93948, Note_off_c, 1, 63, 0
3, 93948, Note_off_c, 1, 58, 0
3, 93948, Note_off_c, 1, 67, 0
3, 93960, Note_on_c, 1, 61, 95
3, 94176, Note_off_c, 1, 61, 0
3, 94200, Note_on_c, 1, 62, 95
3, 94308, Note_off_c, 1, 62, 0
3, 94320, Note_on_c, 1, 61, 95
3, 94428, Note_off_c, 1, 61, 0
3, 94440, Note_on_c, 1, 63, 95
3, 94986, Note_off_c, 1, 63, 0
3, 95040, Note_on_c, 1, 68, 95
3, 95040, Note_on_c, 1, 72, 95
3, 95040, Note_on_c, 1, 65, 95
3, 95472, Note_off_c, 1, 68, 0
3, 95472, Note_off_c, 1, 72, 0
3, 95472, Note_off_c, 1, 65, 0
3, 95880, Note_on_c, 1, 60, 95
3, 95880, Note_on_c, 1, 68, 95
3, 95880, Note_on_c, 1, 65, 95
3, 96426, Note_off_c, 1, 60, 0
3, 96426, Note_off_c, 1, 68, 0
3, 96426, Note_off_c, 1, 65, 0
3, 96960, Note_on_c, 1, 70, 95
3, 96960, Note_on_c, 1, 63, 95
3, 96960, Note_on_c, 1, 67, 95
3, 97176, Note_off_c, 1, 70, 0
3, 97176, Note_off_c, 1, 63, 0
3, 97176, Note_off_c, 1, 67, 0
3, 97200, Note_on_c, 1, 63, 95
3, 97200, Note_on_c, 1, 67, 95
3, 97200, Note_on_c, 1, 70, 95
3, 97416, Note_off_c, 1, 63, 0
3, 97416, Note_off_c, 1, 67, 0
3, 97416, Note_off_c, 1, 70, 0
3, 97440, Note_on_c, 1, 67, 95
3, 97440, Note_on_c, 1, 63, 95
3, 97440, Note_on_c, 1, 70, 95
3, 97656, Note_off_c, 1, 67, 0
3, 97656, Note_off_c, 1, 63, 0
3, 97656, Note_off_c, 1, 70, 0
3, 97680, Note_on_c, 1, 67, 95
3, 97680, Note_on_c, 1, 63, 95
3, 97680, Note_on_c, 1, 70, 95
3, 97896, Note_off_c, 1, 67, 0
3, 97896, Note_off_c, 1, 63, 0
3, 97896, Note_off_c, 1, 70, 0
3, 97920, Note_on_c, 1, 73, 95
3, 97920, Note_on_c, 1, 70, 95
3, 97920, Note_on_c, 1, 65, 95
3, 98136, Note_off_c, 1, 73, 0
3, 98136, Note_off_c, 1, 70, 0
3, 98136, Note_off_c, 1, 65, 0
3, 98160, Note_on_c, 1, 70, 95
3, 98160, Note_on_c, 1, 65, 95
3, 98160, Note_on_c, 1, 73, 95
3, 98376, Note_off_c, 1, 70, 0
3, 98376, Note_off_c, 1, 65, 0
3, 98376, Note_off_c, 1, 73, 0
3, 98400, Note_on_c, 1, 73, 95
3, 98400, Note_on_c, 1, 70, 95
3, 98400, Note_on_c, 1, 65, 95
3, 98616, Note_off_c, 1, 73, 0
3, 98616, Note_off_c, 1, 70, 0
3, 98616, Note_off_c, 1, 65, 0
3, 98640, Note_on_c, 1, 65, 95
3, 98640, Note_on_c, 1, 70, 95
3, 98640, Note_on_c, 1, 73, 95
3, 98856, Note_off_c, 1, 65, 0
3, 98856, Note_off_c, 1, 70, 0
3, 98856, Note_off_c, 1, 73, 0
3, 98880, Note_on_c, 1, 68, 95
3, 98880, Note_on_c, 1, 73, 95
3, 98880, Note_on_c, 1, 65, 95
3, 98988, Note_off_c, 1, 68, 0
3, 98988, Note_off_c, 1, 73, 0
3, 98988, Note_off_c, 1, 65, 0
3, 99000, Note_on_c, 1, 68, 95
3, 99000, Note_on_c, 1, 73, 95
3, 99000, Note_on_c, 1, 65, 95
3, 99108, Note_off_c, 1, 68, 0
3, 99108, Note_off_c, 1, 73, 0
3, 99108, Note_off_c, 1, 65, 0
3, 99120, Note_on_c, 1, 65, 95
3, 99120, Note_on_c, 1, 73, 95
3, 99120, Note_on_c, 1, 68, 95
3, 99228, Note_off_c, 1, 65, 0
3, 99228, Note_off_c, 1, 73, 0
3, 99228, Note_off_c, 1, 68, 0
3, 99240, Note_on_c, 1, 73, 95
3, 99240, Note_on_c, 1, 65, 95
3, 99240, Note_on_c, 1, 68, 95
3, 99348, Note_off_c, 1, 73, 0
3, 99348, Note_off_c, 1, 65, 0
3, 99348, Note_off_c, 1, 68, 0
3, 99360, Note_on_c, 1, 65, 95
3, 99360, Note_on_c, 1, 68, 95
3, 99360, Note_on_c, 1, 73, 95
3, 99468, Note_off_c, 1, 65, 0
3, 99468, Note_off_c, 1, 68, 0
3, 99468, Note_off_c, 1, 73, 0
3, 99840, Note_on_c, 1, 72, 95
3, 99840, Note_on_c, 1, 75, 95
3, 99840, Note_on_c, 1, 80, 95
3, 99840, Note_on_c, 1, 84, 95
3, 100320, Note_on_c, 1, 68, 95
3, 100320, Note_on_c, 1, 60, 95
3, 100320, Note_on_c, 1, 63, 95
3, 100746, Note_off_c, 1, 72, 0
3, 100746, Note_off_c, 1, 75, 0
3, 100746, Note_off_c, 1, 80, 0
3, 100746, Note_off_c, 1, 84, 0
3, 100752, Note_off_c, 1, 68, 0
3, 100752, Note_off_c, 1, 60, 0
3, 100752, Note_off_c, 1, 63, 0
3, 100800, Note_on_c, 1, 70, 95
3, 100800, Note_on_c, 1, 82, 95
3, 100800, Note_on_c, 1, 75, 95
3, 100800, Note_on_c, 1, 79, 95
3, 101280, Note_on_c, 1, 67, 95
3, 101280, Note_on_c, 1, 58, 95
3, 101280, Note_on_c, 1, 63, 95
3, 101706, Note_off_c, 1, 70, 0
3, 101706, Note_off_c, 1, 82, 0
3, 101706, Note_off_c, 1, 75, 0
3, 101706, Note_off_c, 1, 79, 0
3, 101712, Note_off_c, 1, 67, 0
3, 101712, Note_off_c, 1, 58, 0
3, 101712, Note_off_c, 1, 63, 0
3, 101760, Note_on_c, 1, 80, 95
3, 101760, Note_on_c, 1, 68, 95
3, 101760, Note_on_c, 1, 77, 95
3, 101760, Note_on_c, 1, 72, 95
3, 102240, Note_on_c, 1, 60, 95
3, 102240, Note_on_c, 1, 68, 95
3, 102240, Note_on_c, 1, 65, 95
3, 102672, Note_off_c, 1, 60, 0
3, 102672, Note_off_c, 1, 68, 0
3, 102672, Note_off_c, 1, 65, 0
3, 102720, Note_on_c, 1, 63, 95
3, 103626, Note_off_c, 1, 80, 0
3, 103626, Note_off_c, 1, 68, 0
3, 103626, Note_off_c, 1, 77, 0
3, 103626, Note_off_c, 1, 72, 0
3, 103626, Note_off_c, 1, 63, 0
3, 103680, Note_on_c, 1, 80, 95
3, 103680, Note_on_c, 1, 72, 95
3, 103680, Note_on_c, 1, 75, 95
3, 103680, Note_on_c, 1, 68, 95
3, 104160, Note_on_c, 1, 60, 95
3, 104160, Note_on_c, 1, 63, 95
3, 104160, Note_on_c, 1, 68, 95
3, 104586, Note_off_c, 1, 80, 0
3, 104586, Note_off_c, 1, 72, 0
3, 104586, Note_off_c, 1, 75, 0
3, 104586, Note_off_c, 1, 68, 0
3, 104592, Note_off_c, 1, 60, 0
3, 104592, Note_off_c, 1, 63, 0
3, 104592, Note_off_c, 1, 68, 0
3, 104640, Note_on_c, 1, 79, 95
3, 104640, Note_on_c, 1, 82, 95
3, 104640, Note_on_c, 1, 75, 95
3, 104640, Note_on_c, 1, 70, 95
3, 105120, Note_on_c, 1, 67, 95
3, 105120, Note_on_c, 1, 58, 95
3, 105120, Note_on_c, 1, 63, 95
3, 105546, Note_off_c, 1, 79, 0
3, 105546, Note_off_c, 1, 82, 0
3, 105546, Note_off_c, 1, 75, 0
3, 105546, Note_off_c, 1, 70, 0
3, 105552, Note_off_c, 1, 67, 0
3, 105552, Note_off_c, 1, 58, 0
3, 105552, Note_off_c, 1, 63, 0
3, 105600, Note_on_c, 1, 77, 95
3, 105600, Note_on_c, 1, 72, 95
3, 105600, Note_on_c, 1, 68, 95
3, 105600, Note_on_c, 1, 65, 95
3, 106080, Note_on_c, 1, 65, 95
3, 106080, Note_on_c, 1, 68, 95
3, 106080, Note_on_c, 1, 60, 95
3, 106506, Note_off_c, 1, 77, 0
3, 106506, Note_off_c, 1, 72, 0
3, 106506, Note_off_c, 1, 68, 0
3, 106506, Note_off_c, 1, 65, 0
3, 106512, Note_off_c, 1, 65, 0
3, 106512, Note_off_c, 1, 68, 0
3, 106512, Note_off_c, 1, 60, 0
3, 106560, Note_on_c, 1, 65, 95
3, 106560, Note_on_c, 1, 68, 95
3, 106560, Note_on_c, 1, 73, 95
3, 106560, Note_on_c, 1, 77, 95
3, 107040, Note_on_c, 1, 61, 95
3, 107040, Note_on_c, 1, 68, 95
3, 107040, Note_on_c, 1, 65, 95
3, 107466, Note_off_c, 1, 65, 0
3, 107466, Note_off_c, 1, 68, 0
3, 107466, Note_off_c, 1, 73, 0
3, 107466, Note_off_c, 1, 77, 0
3, 107472, Note_off_c, 1, 61, 0
3, 107472, Note_off_c, 1, 68, 0
3, 107472, Note_off_c, 1, 65, 0
3, 107520, Note_on_c, 1, 75, 95
3, 107520, Note_on_c, 1, 68, 95
3, 107520, Note_on_c, 1, 80, 95
3, 107520, Note_on_c, 1, 72, 95
3, 107844, Note_off_c, 1, 75, 0
3, 107844, Note_off_c, 1, 68, 0
3, 107844, Note_off_c, 1, 80, 0
3, 107844, Note_off_c, 1, 72, 0
3, 107880, Note_on_c, 1, 68, 95
3, 107880, Note_on_c, 1, 75, 95
3, 107880, Note_on_c, 1, 80, 95
3, 107880, Note_on_c, 1, 72, 95
3, 108204, Note_off_c, 1, 68, 0
3, 108204, Note_off_c, 1, 75, 0
3, 108204, Note_off_c, 1, 80, 0
3, 108204, Note_off_c, 1, 72, 0
3, 108240, Note_on_c, 1, 67, 95
3, 108240, Note_on_c, 1, 75, 95
3, 108240, Note_on_c, 1, 79, 95
3, 108240, Note_on_c, 1, 70, 95
3, 108906, Note_off_c, 1, 67, 0
3, 108906, Note_off_c, 1, 75, 0
3, 108906, Note_off_c, 1, 79, 0
3, 108906, Note_off_c, 1, 70, 0
3, 108960, Note_on_c, 1, 67, 95
3, 108960, Note_on_c, 1, 70, 95
3, 108960, Note_on_c, 1, 75, 95
3, 108960, Note_on_c, 1, 79, 95
3, 109392, Note_off_c, 1, 67, 0
3, 109392, Note_off_c, 1, 70, 0
3, 109392, Note_off_c, 1, 75, 0
3, 109392, Note_off_c, 1, 79, 0
3, 109440, Note_on_c, 1, 72, 95
3, 109440, Note_on_c, 1, 77, 95
3, 109440, Note_on_c, 1, 65, 95
3, 109440, Note_on_c, 1, 68, 95
3, 109764, Note_off_c, 1, 72, 0
3, 109764, Note_off_c, 1, 77, 0
3, 109764, Note_off_c, 1, 65, 0
3, 109764, Note_off_c, 1, 68, 0
3, 109800, Note_on_c, 1, 68, 95
3, 109800, Note_on_c, 1, 72, 95
3, 109800, Note_on_c, 1, 65, 95
3, 109800, Note_on_c, 1, 77, 95
3, 110124, Note_off_c, 1, 68, 0
3, 110124, Note_off_c, 1, 72, 0
3, 110124, Note_off_c, 1, 65, 0
3, 110124, Note_off_c, 1, 77, 0
3, 110160, Note_on_c, 1, 77, 95
3, 110160, Note_on_c, 1, 65, 95
3, 110160, Note_on_c, 1, 68, 95
3, 110160, Note_on_c, 1, 73, 95
3, 110592, Note_off_c, 1, 77, 0
3, 110592, Note_off_c, 1, 65, 0
3, 110592, Note_off_c, 1, 68, 0
3, 110592, Note_off_c, 1, 73, 0
3, 110640, Note_on_c, 1, 65, 95
3, 110640, Note_on_c, 1, 68, 95
3, 110640, Note_on_c, 1, 73, 95
3, 110640, Note_on_c, 1, 77, 95
3, 110856, Note_off_c, 1, 65, 0
3, 110856, Note_off_c, 1, 68, 0
3, 110856, Note_off_c, 1, 73, 0
3, 110856, Note_off_c, 1, 77, 0
3, 110880, Note_on_c, 1, 68, 95
3, 110880, Note_on_c, 1, 73, 95
3, 110880, Note_on_c, 1, 65, 95
3, 110880, Note_on_c, 1, 77, 95
3, 111096, Note_off_c, 1, 68, 0
3, 111096, Note_off_c, 1, 73, 0
3, 111096, Note_off_c, 1, 65, 0
3, 111096, Note_off_c, 1, 77, 0
3, 111120, Note_on_c, 1, 65, 95
3, 111120, Note_on_c, 1, 68, 95
3, 111120, Note_on_c, 1, 73, 95
3, 111120, Note_on_c, 1, 77, 95
3, 111228, Note_off_c, 1, 65, 0
3, 111228, Note_off_c, 1, 68, 0
3, 111228, Note_off_c, 1, 73, 0
3, 111228, Note_off_c, 1, 77, 0
3, 111240, Note_on_c, 1, 79, 95
3, 111348, Note_off_c, 1, 79, 0
3, 111360, Note_on_c, 1, 68, 95
3, 111360, Note_on_c, 1, 80, 95
3, 111360, Note_on_c, 1, 73, 95
3, 111360, Note_on_c, 1, 76, 95
3, 111576, Note_off_c, 1, 80, 0
3, 111600, Note_on_c, 1, 80, 95
3, 111708, Note_off_c, 1, 80, 0
3, 111720, Note_on_c, 1, 82, 95
3, 111828, Note_off_c, 1, 82, 0
3, 111840, Note_on_c, 1, 83, 95
3, 111948, Note_off_c, 1, 83, 0
3, 111960, Note_on_c, 1, 82, 95
3, 112068, Note_off_c, 1, 82, 0
3, 112080, Note_on_c, 1, 83, 95
3, 112188, Note_off_c, 1, 83, 0
3, 112200, Note_on_c, 1, 85, 95
3, 112266, Note_off_c, 1, 68, 0
3, 112266, Note_off_c, 1, 73, 0
3, 112266, Note_off_c, 1, 76, 0
3, 112308, Note_off_c, 1, 85, 0
3, 112320, Note_on_c, 1, 84, 95
3, 112320, Note_on_c, 1, 75, 95
3, 112320, Note_on_c, 1, 87, 95
3, 112320, Note_on_c, 1, 79, 95
3, 112644, Note_off_c, 1, 84, 0
3, 112644, Note_off_c, 1, 75, 0
3, 112644, Note_off_c, 1, 79, 0
3, 112680, Note_on_c, 1, 84, 95
3, 112680, Note_on_c, 1, 75, 95
3, 112680, Note_on_c, 1, 79, 95
3, 112986, Note_off_c, 1, 87, 0
3, 113004, Note_off_c, 1, 84, 0
3, 113004, Note_off_c, 1, 75, 0
3, 113004, Note_off_c, 1, 79, 0
3, 113040, Note_on_c, 1, 66, 95
3, 113040, Note_on_c, 1, 78, 95
3, 113040, Note_on_c, 1, 71, 95
3, 113040, Note_on_c, 1, 75, 95
3, 113946, Note_off_c, 1, 66, 0
3, 113946, Note_off_c, 1, 78, 0
3, 113946, Note_off_c, 1, 71, 0
3, 113946, Note_off_c, 1, 75, 0
3, 114000, Note_on_c, 1, 66, 95
3, 114000, Note_on_c, 1, 63, 95
3, 114000, Note_on_c, 1, 71, 95
3, 114216, Note_off_c, 1, 66, 0
3, 114216, Note_off_c, 1, 63, 0
3, 114216, Note_off_c, 1, 71, 0
3, 114240, Note_on_c, 1, 71, 95
3, 114240, Note_on_c, 1, 66, 95
3, 114240, Note_on_c, 1, 63, 95
3, 114456, Note_off_c, 1, 71, 0
3, 114456, Note_off_c, 1, 66, 0
3, 114456, Note_off_c, 1, 63, 0
3, 114480, Note_on_c, 1, 71, 95
3, 114480, Note_on_c, 1, 75, 95
3, 114480, Note_on_c, 1, 78, 95
3, 114696, Note_off_c, 1, 71, 0
3, 114696, Note_off_c, 1, 75, 0
3, 114696, Note_off_c, 1, 78, 0
3, 114720, Note_on_c, 1, 83, 95
3, 114720, Note_on_c, 1, 78, 95
3, 114720, Note_on_c, 1, 75, 95
3, 114720, Note_on_c, 1, 71, 95
3, 114828, Note_off_c, 1, 83, 0
3, 114828, Note_off_c, 1, 78, 0
3, 114828, Note_off_c, 1, 75, 0
3, 114828, Note_off_c, 1, 71, 0
3, 114840, Note_on_c, 1, 83, 95
3, 114840, Note_on_c, 1, 71, 95
3, 114840, Note_on_c, 1, 78, 95
3, 114840, Note_on_c, 1, 75, 95
3, 114948, Note_off_c, 1, 83, 0
3, 114948, Note_off_c, 1, 71, 0
3, 114948, Note_off_c, 1, 78, 0
3, 114948, Note_off_c, 1, 75, 0
3, 114960, Note_on_c, 1, 78, 95
3, 114960, Note_on_c, 1, 75, 95
3, 114960, Note_on_c, 1, 71, 95
3, 114960, Note_on_c, 1, 83, 95
3, 115068, Note_off_c, 1, 78, 0
3, 115068, Note_off_c, 1, 75, 0
3, 115068, Note_off_c, 1, 71, 0
3, 115068, Note_off_c, 1, 83, 0
3, 115200, Note_on_c, 1, 56, 95
3, 115200, Note_on_c, 1, 51, 95
3, 115200, Note_on_c, 1, 61, 95
3, 117120, Note_on_c, 1, 89, 95
3, 117120, Note_on_c, 1, 77, 95
3, 118986, Note_off_c, 1, 56, 0
3, 118986, Note_off_c, 1, 51, 0
3, 118986, Note_off_c, 1, 61, 0
3, 118986, Note_off_c, 1, 89, 0
3, 118986, Note_off_c, 1, 77, 0
3, 119466, End_track
4, 0, Start_track
4, 0, Program_c, 2, 0
4, 0, Instrument_name_t, "Piano"
4, 0, Note_on_c, 2, 65, 95
4, 0, Note_on_c, 2, 53, 95
4, 0, Note_on_c, 2, 60, 95
4, 906, Note_off_c, 2, 65, 0
4, 906, Note_off_c, 2, 53, 0
4, 906, Note_off_c, 2, 60, 0
4, 960, Note_on_c, 2, 61, 95
4, 960, Note_on_c, 2, 49, 95
4, 960, Note_on_c, 2, 56, 95
4, 1866, Note_off_c, 2, 61, 0
4, 1866, Note_off_c, 2, 49, 0
4, 1866, Note_off_c, 2, 56, 0
4, 1920, Note_on_c, 2, 63, 95
4, 1920, Note_on_c, 2, 58, 95
4, 1920, Note_on_c, 2, 51, 95
4, 2826, Note_off_c, 2, 63, 0
4, 2826, Note_off_c, 2, 58, 0
4, 2826, Note_off_c, 2, 51, 0
4, 2880, Note_on_c, 2, 58, 95
4, 2880, Note_on_c, 2, 53, 95
4, 2880, Note_on_c, 2, 46, 95
4, 3786, Note_off_c, 2, 58, 0
4, 3786, Note_off_c, 2, 53, 0
4, 3786, Note_off_c, 2, 46, 0
4, 3840, Note_on_c, 2, 65, 95
4, 3840, Note_on_c, 2, 60, 95
4, 3840, Note_on_c, 2, 53, 95
4, 4746, Note_off_c, 2, 65, 0
4, 4746, Note_off_c, 2, 60, 0
4, 4746, Note_off_c, 2, 53, 0
4, 4800, Note_on_c, 2, 49, 95
4, 4800, Note_on_c, 2, 56, 95
4, 4800, Note_on_c, 2, 61, 95
4, 5706, Note_off_c, 2, 49, 0
4, 5706, Note_off_c, 2, 56, 0
4, 5706, Note_off_c, 2, 61, 0
4, 5760, Note_on_c, 2, 63, 95
4, 5760, Note_on_c, 2, 58, 95
4, 5760, Note_on_c, 2, 51, 95
4, 6666, Note_off_c, 2, 63, 0
4, 6666, Note_off_c, 2, 58, 0
4, 6666, Note_off_c, 2, 51, 0
4, 6720, Note_on_c, 2, 53, 95
4, 6720, Note_on_c, 2, 46, 95
4, 6720, Note_on_c, 2, 58, 95
4, 7626, Note_off_c, 2, 53, 0
4, 7626, Note_off_c, 2, 46, 0
4, 7626, Note_off_c, 2, 58, 0
4, 7680, Note_on_c, 2, 53, 95
4, 7680, Note_on_c, 2, 41, 95
4, 7680, Note_on_c, 2, 48, 95
4, 8112, Note_off_c, 2, 53, 0
4, 8160, Note_on_c, 2, 53, 95
4, 8586, Note_off_c, 2, 41, 0
4, 8586, Note_off_c, 2, 48, 0
4, 8592, Note_off_c, 2, 53, 0
4, 8640, Note_on_c, 2, 49, 95
4, 8640, Note_on_c, 2, 37, 95
4, 8640, Note_on_c, 2, 44, 95
4, 9072, Note_off_c, 2, 49, 0
4, 9120, Note_on_c, 2, 49, 95
4, 9306, Note_off_c, 2, 37, 0
4, 9306, Note_off_c, 2, 44, 0
4, 9360, Note_on_c, 2, 37, 95
4, 9360, Note_on_c, 2, 44, 95
4, 9552, Note_off_c, 2, 49, 0
4, 9576, Note_off_c, 2, 37, 0
4, 9576, Note_off_c, 2, 44, 0
4, 9600, Note_on_c, 2, 46, 95
4, 9600, Note_on_c, 2, 39, 95
4, 9600, Note_on_c, 2, 51, 95
4, 10032, Note_off_c, 2, 51, 0
4, 10080, Note_on_c, 2, 51, 95
4, 10506, Note_off_c, 2, 46, 0
4, 10506, Note_off_c, 2, 39, 0
4, 10512, Note_off_c, 2, 51, 0
4, 10560, Note_on_c, 2, 46, 95
4, 10560, Note_on_c, 2, 41, 95
4, 10560, Note_on_c, 2, 34, 95
4, 11346, Note_off_c, 2, 46, 0
4, 11400, Note_on_c, 2, 48, 95
4, 11466, Note_off_c, 2, 41, 0
4, 11466, Note_off_c, 2, 34, 0
4, 11520, Note_on_c, 2, 41, 95
4, 11520, Note_on_c, 2, 53, 95
4, 11952, Note_off_c, 2, 53, 0
4, 12000, Note_on_c, 2, 53, 95
4, 12186, Note_off_c, 2, 48, 0
4, 12186, Note_off_c, 2, 41, 0
4, 12240, Note_on_c, 2, 48, 95
4, 12240, Note_on_c, 2, 41, 95
4, 12432, Note_off_c, 2, 53, 0
4, 12456, Note_off_c, 2, 48, 0
4, 12456, Note_off_c, 2, 41, 0
4, 12480, Note_on_c, 2, 44, 95
4, 12480, Note_on_c, 2, 37, 95
4, 12480, Note_on_c, 2, 49, 95
4, 12912, Note_off_c, 2, 49, 0
4, 12960, Note_on_c, 2, 49, 95
4, 13386, Note_off_c, 2, 44, 0
4, 13386, Note_off_c, 2, 37, 0
4, 13392, Note_off_c, 2, 49, 0
4, 13440, Note_on_c, 2, 51, 95
4, 13440, Note_on_c, 2, 39, 95
4, 13440, Note_on_c, 2, 46, 95
4, 13872, Note_off_c, 2, 51, 0
4, 13920, Note_on_c, 2, 51, 95
4, 14346, Note_off_c, 2, 39, 0
4, 14346, Note_off_c, 2, 46, 0
4, 14352, Note_off_c, 2, 51, 0
4, 14400, Note_on_c, 2, 41, 95
4, 14400, Note_on_c, 2, 46, 95
4, 14400, Note_on_c, 2, 34, 95
4, 14616, Note_off_c, 2, 46, 0
4, 14640, Note_on_c, 2, 46, 95
4, 15072, Note_off_c, 2, 46, 0
4, 15120, Note_on_c, 2, 46, 95
4, 15228, Note_off_c, 2, 46, 0
4, 15240, Note_on_c, 2, 48, 95
4, 15306, Note_off_c, 2, 41, 0
4, 15306, Note_off_c, 2, 34, 0
4, 15360, Note_on_c, 2, 41, 95
4, 15360, Note_on_c, 2, 53, 95
4, 15792, Note_off_c, 2, 53, 0
4, 15840, Note_on_c, 2, 53, 95
4, 16056, Note_off_c, 2, 53, 0
4, 16080, Note_on_c, 2, 49, 95
4, 16266, Note_off_c, 2, 48, 0
4, 16266, Note_off_c, 2, 41, 0
4, 16320, Note_on_c, 2, 37, 95
4, 16320, Note_on_c, 2, 44, 95
4, 16746, Note_off_c, 2, 49, 0
4, 16800, Note_on_c, 2, 49, 95
4, 17016, Note_off_c, 2, 49, 0
4, 17040, Note_on_c, 2, 49, 95
4, 17148, Note_off_c, 2, 49, 0
4, 17160, Note_on_c, 2, 44, 95
4, 17226, Note_off_c, 2, 37, 0
4, 17226, Note_off_c, 2, 44, 0
4, 17268, Note_off_c, 2, 44, 0
4, 17280, Note_on_c, 2, 51, 95
4, 17280, Note_on_c, 2, 39, 95
4, 17280, Note_on_c, 2, 46, 95
4, 17712, Note_off_c, 2, 51, 0
4, 17760, Note_on_c, 2, 51, 95
4, 18186, Note_off_c, 2, 39, 0
4, 18186, Note_off_c, 2, 46, 0
4, 18192, Note_off_c, 2, 51, 0
4, 18240, Note_on_c, 2, 34, 95
4, 18240, Note_on_c, 2, 41, 95
4, 18240, Note_on_c, 2, 46, 95
4, 18672, Note_off_c, 2, 46, 0
4, 18720, Note_on_c, 2, 46, 95
4, 19044, Note_off_c, 2, 46, 0
4, 19080, Note_on_c, 2, 48, 95
4, 19146, Note_off_c, 2, 34, 0
4, 19146, Note_off_c, 2, 41, 0
4, 19200, Note_on_c, 2, 53, 95
4, 19200, Note_on_c, 2, 41, 95
4, 19986, Note_off_c, 2, 48, 0
4, 19986, Note_off_c, 2, 53, 0
4, 19986, Note_off_c, 2, 41, 0
4, 20040, Note_on_c, 2, 46, 95
4, 20040, Note_on_c, 2, 51, 95
4, 20040, Note_on_c, 2, 39, 95
4, 21066, Note_off_c, 2, 46, 0
4, 21066, Note_off_c, 2, 51, 0
4, 21066, Note_off_c, 2, 39, 0
4, 21120, Note_on_c, 2, 46, 95
4, 21120, Note_on_c, 2, 58, 95
4, 21120, Note_on_c, 2, 53, 95
4, 22506, Note_off_c, 2, 46, 0
4, 22506, Note_off_c, 2, 58, 0
4, 22506, Note_off_c, 2, 53, 0
4, 23040, Note_on_c, 2, 51, 95
4, 23040, Note_on_c, 2, 39, 95
4, 23040, Note_on_c, 2, 46, 95
4, 23946, Note_off_c, 2, 51, 0
4, 23946, Note_off_c, 2, 39, 0
4, 23946, Note_off_c, 2, 46, 0
4, 24000, Note_on_c, 2, 46, 95
4, 24000, Note_on_c, 2, 51, 95
4, 24000, Note_on_c, 2, 39, 95
4, 24906, Note_off_c, 2, 46, 0
4, 24906, Note_off_c, 2, 51, 0
4, 24906, Note_off_c, 2, 39, 0
4, 24960, Note_on_c, 2, 37, 95
4, 24960, Note_on_c, 2, 44, 95
4, 24960, Note_on_c, 2, 49, 95
4, 25866, Note_off_c, 2, 37, 0
4, 25866, Note_off_c, 2, 44, 0
4, 25866, Note_off_c, 2, 49, 0
4, 25920, Note_on_c, 2, 49, 95
4, 25920, Note_on_c, 2, 44, 95
4, 25920, Note_on_c, 2, 37, 95
4, 26586, Note_off_c, 2, 49, 0
4, 26586, Note_off_c, 2, 44, 0
4, 26586, Note_off_c, 2, 37, 0
4, 26640, Note_on_c, 2, 37, 95
4, 26640, Note_on_c, 2, 44, 95
4, 26640, Note_on_c, 2, 49, 95
4, 26856, Note_off_c, 2, 37, 0
4, 26856, Note_off_c, 2, 44, 0
4, 26856, Note_off_c, 2, 49, 0
4, 26880, Note_on_c, 2, 51, 95
4, 26880, Note_on_c, 2, 39, 95
4, 26880, Note_on_c, 2, 46, 95
4, 27786, Note_off_c, 2, 51, 0
4, 27786, Note_off_c, 2, 39, 0
4, 27786, Note_off_c, 2, 46, 0
4, 27840, Note_on_c, 2, 46, 95
4, 27840, Note_on_c, 2, 51, 95
4, 27840, Note_on_c, 2, 39, 95
4, 28506, Note_off_c, 2, 46, 0
4, 28506, Note_off_c, 2, 51, 0
4, 28506, Note_off_c, 2, 39, 0
4, 28560, Note_on_c, 2, 51, 95
4, 28560, Note_on_c, 2, 46, 95
4, 28560, Note_on_c, 2, 39, 95
4, 28776, Note_off_c, 2, 51, 0
4, 28776, Note_off_c, 2, 46, 0
4, 28776, Note_off_c, 2, 39, 0
4, 28800, Note_on_c, 2, 44, 95
4, 28800, Note_on_c, 2, 37, 95
4, 28800, Note_on_c, 2, 49, 95
4, 29706, Note_off_c, 2, 44, 0
4, 29706, Note_off_c, 2, 37, 0
4, 29706, Note_off_c, 2, 49, 0
4, 29760, Note_on_c, 2, 44, 95
4, 29760, Note_on_c, 2, 37, 95
4, 29760, Note_on_c, 2, 49, 95
4, 30666, Note_off_c, 2, 44, 0
4, 30666, Note_off_c, 2, 37, 0
4, 30666, Note_off_c, 2, 49, 0
4, 30720, Note_on_c, 2, 44, 95
4, 30720, Note_on_c, 2, 49, 95
4, 30720, Note_on_c, 2, 37, 95
4, 31626, Note_off_c, 2, 44, 0
4, 31626, Note_off_c, 2, 49, 0
4, 31626, Note_off_c, 2, 37, 0
4, 31680, Note_on_c, 2, 37, 95
4, 31680, Note_on_c, 2, 44, 95
4, 31680, Note_on_c, 2, 49, 95
4, 32112, Note_off_c, 2, 37, 0
4, 32112, Note_off_c, 2, 44, 0
4, 32112, Note_off_c, 2, 49, 0
4, 32160, Note_on_c, 2, 37, 95
4, 32160, Note_on_c, 2, 44, 95
4, 32160, Note_on_c, 2, 49, 95
4, 32376, Note_off_c, 2, 37, 0
4, 32376, Note_off_c, 2, 44, 0
4, 32376, Note_off_c, 2, 49, 0
4, 32640, Note_on_c, 2, 56, 95
4, 33546, Note_off_c, 2, 56, 0
4, 33600, Note_on_c, 2, 51, 95
4, 34506, Note_off_c, 2, 51, 0
4, 34560, Note_on_c, 2, 53, 95
4, 35226, Note_off_c, 2, 53, 0
4, 35280, Note_on_c, 2, 53, 95
4, 35496, Note_off_c, 2, 53, 0
4, 35520, Note_on_c, 2, 49, 95
4, 36186, Note_off_c, 2, 49, 0
4, 36240, Note_on_c, 2, 49, 95
4, 36348, Note_off_c, 2, 49, 0
4, 36360, Note_on_c, 2, 53, 95
4, 36468, Note_off_c, 2, 53, 0
4, 36480, Note_on_c, 2, 56, 95
4, 37146, Note_off_c, 2, 56, 0
4, 37200, Note_on_c, 2, 56, 95
4, 37308, Note_off_c, 2, 56, 0
4, 37320, Note_on_c, 2, 58, 95
4, 37428, Note_off_c, 2, 58, 0
4, 37440, Note_on_c, 2, 51, 95
4, 37920, Note_on_c, 2, 63, 95
4, 38106, Note_off_c, 2, 51, 0
4, 38160, Note_on_c, 2, 51, 95
4, 38352, Note_off_c, 2, 63, 0
4, 38376, Note_off_c, 2, 51, 0
4, 38400, Note_on_c, 2, 53, 95
4, 38880, Note_on_c, 2, 65, 95
4, 39066, Note_off_c, 2, 53, 0
4, 39120, Note_on_c, 2, 53, 95
4, 39312, Note_off_c, 2, 65, 0
4, 39336, Note_off_c, 2, 53, 0
4, 39360, Note_on_c, 2, 49, 95
4, 39840, Note_on_c, 2, 61, 95
4, 40266, Note_off_c, 2, 49, 0
4, 40272, Note_off_c, 2, 61, 0
4, 40320, Note_on_c, 2, 68, 95
4, 40320, Note_on_c, 2, 63, 95
4, 40320, Note_on_c, 2, 56, 95
4, 41226, Note_off_c, 2, 68, 0
4, 41226, Note_off_c, 2, 63, 0
4, 41226, Note_off_c, 2, 56, 0
4, 41280, Note_on_c, 2, 63, 95
4, 41280, Note_on_c, 2, 58, 95
4, 41280, Note_on_c, 2, 51, 95
4, 42186, Note_off_c, 2, 63, 0
4, 42186, Note_off_c, 2, 58, 0
4, 42186, Note_off_c, 2, 51, 0
4, 42240, Note_on_c, 2, 53, 95
4, 42240, Note_on_c, 2, 65, 95
4, 42240, Note_on_c, 2, 60, 95
4, 43146, Note_off_c, 2, 53, 0
4, 43146, Note_off_c, 2, 65, 0
4, 43146, Note_off_c, 2, 60, 0
4, 43200, Note_on_c, 2, 61, 95
4, 43200, Note_on_c, 2, 56, 95
4, 43200, Note_on_c, 2, 49, 95
4, 44106, Note_off_c, 2, 61, 0
4, 44106, Note_off_c, 2, 56, 0
4, 44106, Note_off_c, 2, 49, 0
4, 44160, Note_on_c, 2, 55, 95
4, 44160, Note_on_c, 2, 48, 95
4, 44826, Note_off_c, 2, 55, 0
4, 44826, Note_off_c, 2, 48, 0
4, 44880, Note_on_c, 2, 55, 95
4, 44880, Note_on_c, 2, 48, 95
4, 45096, Note_off_c, 2, 55, 0
4, 45096, Note_off_c, 2, 48, 0
4, 45120, Note_on_c, 2, 54, 95
4, 45120, Note_on_c, 2, 47, 95
4, 45786, Note_off_c, 2, 54, 0
4, 45786, Note_off_c, 2, 47, 0
4, 45840, Note_on_c, 2, 47, 95
4, 45840, Note_on_c, 2, 35, 95
4, 46056, Note_off_c, 2, 47, 0
4, 46056, Note_off_c, 2, 35, 0
4, 46080, Note_on_c, 2, 44, 95
4, 46080, Note_on_c, 2, 37, 95
4, 46080, Note_on_c, 2, 49, 95
4, 46986, Note_off_c, 2, 44, 0
4, 46986, Note_off_c, 2, 37, 0
4, 46986, Note_off_c, 2, 49, 0
4, 47400, Note_on_c, 2, 56, 95
4, 47616, Note_off_c, 2, 56, 0
4, 47640, Note_on_c, 2, 56, 95
4, 47964, Note_off_c, 2, 56, 0
4, 48000, Note_on_c, 2, 56, 95
4, 48000, Note_on_c, 2, 51, 95
4, 48000, Note_on_c, 2, 44, 95
4, 48216, Note_off_c, 2, 56, 0
4, 48216, Note_off_c, 2, 51, 0
4, 48216, Note_off_c, 2, 44, 0
4, 48240, Note_on_c, 2, 56, 95
4, 48240, Note_on_c, 2, 44, 95
4, 48240, Note_on_c, 2, 51, 95
4, 48456, Note_off_c, 2, 56, 0
4, 48456, Note_off_c, 2, 44, 0
4, 48456, Note_off_c, 2, 51, 0
4, 48480, Note_on_c, 2, 56, 95
4, 48480, Note_on_c, 2, 44, 95
4, 48480, Note_on_c, 2, 51, 95
4, 48696, Note_off_c, 2, 56, 0
4, 48696, Note_off_c, 2, 44, 0
4, 48696, Note_off_c, 2, 51, 0
4, 48720, Note_on_c, 2, 44, 95
4, 48720, Note_on_c, 2, 51, 95
4, 48720, Note_on_c, 2, 56, 95
4, 48936, Note_off_c, 2, 44, 0
4, 48936, Note_off_c, 2, 51, 0
4, 48936, Note_off_c, 2, 56, 0
4, 48960, Note_on_c, 2, 51, 95
4, 48960, Note_on_c, 2, 43, 95
4, 48960, Note_on_c, 2, 55, 95
4, 49176, Note_off_c, 2, 51, 0
4, 49176, Note_off_c, 2, 43, 0
4, 49176, Note_off_c, 2, 55, 0
4, 49200, Note_on_c, 2, 51, 95
4, 49200, Note_on_c, 2, 55, 95
4, 49200, Note_on_c, 2, 43, 95
4, 49416, Note_off_c, 2, 51, 0
4, 49416, Note_off_c, 2, 55, 0
4, 49416, Note_off_c, 2, 43, 0
4, 49440, Note_on_c, 2, 55, 95
4, 49440, Note_on_c, 2, 43, 95
4, 49440, Note_on_c, 2, 51, 95
4, 49656, Note_off_c, 2, 55, 0
4, 49656, Note_off_c, 2, 43, 0
4, 49656, Note_off_c, 2, 51, 0
4, 49680, Note_on_c, 2, 43, 95
4, 49680, Note_on_c, 2, 55, 95
4, 49680, Note_on_c, 2, 51, 95
4, 49896, Note_off_c, 2, 43, 0
4, 49896, Note_off_c, 2, 55, 0
4, 49896, Note_off_c, 2, 51, 0
4, 49920, Note_on_c, 2, 48, 95
4, 49920, Note_on_c, 2, 41, 95
4, 49920, Note_on_c, 2, 53, 95
4, 50136, Note_off_c, 2, 48, 0
4, 50136, Note_off_c, 2, 41, 0
4, 50136, Note_off_c, 2, 53, 0
4, 50160, Note_on_c, 2, 53, 95
4, 50160, Note_on_c, 2, 41, 95
4, 50160, Note_on_c, 2, 48, 95
4, 50376, Note_off_c, 2, 53, 0
4, 50376, Note_off_c, 2, 41, 0
4, 50376, Note_off_c, 2, 48, 0
4, 50400, Note_on_c, 2, 53, 95
4, 50400, Note_on_c, 2, 41, 95
4, 50400, Note_on_c, 2, 48, 95
4, 50616, Note_off_c, 2, 53, 0
4, 50616, Note_off_c, 2, 41, 0
4, 50616, Note_off_c, 2, 48, 0
4, 50640, Note_on_c, 2, 41, 95
4, 50640, Note_on_c, 2, 53, 95
4, 50640, Note_on_c, 2, 48, 95
4, 50856, Note_off_c, 2, 41, 0
4, 50856, Note_off_c, 2, 53, 0
4, 50856, Note_off_c, 2, 48, 0
4, 50880, Note_on_c, 2, 44, 95
4, 50880, Note_on_c, 2, 37, 95
4, 50880, Note_on_c, 2, 49, 95
4, 51096, Note_off_c, 2, 44, 0
4, 51096, Note_off_c, 2, 37, 0
4, 51096, Note_off_c, 2, 49, 0
4, 51120, Note_on_c, 2, 44, 95
4, 51120, Note_on_c, 2, 37, 95
4, 51120, Note_on_c, 2, 49, 95
4, 51336, Note_off_c, 2, 44, 0
4, 51336, Note_off_c, 2, 37, 0
4, 51336, Note_off_c, 2, 49, 0
4, 51360, Note_on_c, 2, 44, 95
4, 51360, Note_on_c, 2, 37, 95
4, 51360, Note_on_c, 2, 49, 95
4, 51576, Note_off_c, 2, 44, 0
4, 51576, Note_off_c, 2, 37, 0
4, 51576, Note_off_c, 2, 49, 0
4, 51600, Note_on_c, 2, 49, 95
4, 51600, Note_on_c, 2, 44, 95
4, 51600, Note_on_c, 2, 37, 95
4, 51816, Note_off_c, 2, 49, 0
4, 51816, Note_off_c, 2, 44, 0
4, 51816, Note_off_c, 2, 37, 0
4, 51840, Note_on_c, 2, 39, 95
4, 51840, Note_on_c, 2, 46, 95
4, 51840, Note_on_c, 2, 51, 95
4, 52056, Note_off_c, 2, 39, 0
4, 52056, Note_off_c, 2, 46, 0
4, 52056, Note_off_c, 2, 51, 0
4, 52080, Note_on_c, 2, 51, 95
4, 52080, Note_on_c, 2, 46, 95
4, 52080, Note_on_c, 2, 39, 95
4, 52296, Note_off_c, 2, 51, 0
4, 52296, Note_off_c, 2, 46, 0
4, 52296, Note_off_c, 2, 39, 0
4, 52320, Note_on_c, 2, 51, 95
4, 52320, Note_on_c, 2, 39, 95
4, 52320, Note_on_c, 2, 46, 95
4, 52536, Note_off_c, 2, 51, 0
4, 52536, Note_off_c, 2, 39, 0
4, 52536, Note_off_c, 2, 46, 0
4, 52560, Note_on_c, 2, 51, 95
4, 52560, Note_on_c, 2, 39, 95
4, 52560, Note_on_c, 2, 46, 95
4, 52776, Note_off_c, 2, 51, 0
4, 52776, Note_off_c, 2, 39, 0
4, 52776, Note_off_c, 2, 46, 0
4, 52800, Note_on_c, 2, 46, 95
4, 52800, Note_on_c, 2, 41, 95
4, 52800, Note_on_c, 2, 34, 95
4, 53016, Note_off_c, 2, 46, 0
4, 53016, Note_off_c, 2, 41, 0
4, 53016, Note_off_c, 2, 34, 0
4, 53040, Note_on_c, 2, 34, 95
4, 53040, Note_on_c, 2, 41, 95
4, 53040, Note_on_c, 2, 46, 95
4, 53256, Note_off_c, 2, 34, 0
4, 53256, Note_off_c, 2, 41, 0
4, 53256, Note_off_c, 2, 46, 0
4, 53280, Note_on_c, 2, 41, 95
4, 53280, Note_on_c, 2, 34, 95
4, 53280, Note_on_c, 2, 46, 95
4, 53496, Note_off_c, 2, 41, 0
4, 53496, Note_off_c, 2, 34, 0
4, 53496, Note_off_c, 2, 46, 0
4, 53520, Note_on_c, 2, 41, 95
4, 53520, Note_on_c, 2, 34, 95
4, 53520, Note_on_c, 2, 46, 95
4, 53736, Note_off_c, 2, 41, 0
4, 53736, Note_off_c, 2, 34, 0
4, 53736, Note_off_c, 2, 46, 0
4, 53760, Note_on_c, 2, 48, 95
4, 53760, Note_on_c, 2, 53, 95
4, 53760, Note_on_c, 2, 41, 95
4, 53976, Note_off_c, 2, 48, 0
4, 53976, Note_off_c, 2, 53, 0
4, 53976, Note_off_c, 2, 41, 0
4, 54000, Note_on_c, 2, 53, 95
4, 54000, Note_on_c, 2, 41, 95
4, 54000, Note_on_c, 2, 48, 95
4, 54216, Note_off_c, 2, 53, 0
4, 54216, Note_off_c, 2, 41, 0
4, 54216, Note_off_c, 2, 48, 0
4, 54240, Note_on_c, 2, 48, 95
4, 54240, Note_on_c, 2, 41, 95
4, 54240, Note_on_c, 2, 53, 95
4, 54456, Note_off_c, 2, 48, 0
4, 54456, Note_off_c, 2, 41, 0
4, 54456, Note_off_c, 2, 53, 0
4, 54480, Note_on_c, 2, 41, 95
4, 54480, Note_on_c, 2, 53, 95
4, 54480, Note_on_c, 2, 48, 95
4, 54696, Note_off_c, 2, 41, 0
4, 54696, Note_off_c, 2, 53, 0
4, 54696, Note_off_c, 2, 48, 0
4, 54720, Note_on_c, 2, 51, 95
4, 54720, Note_on_c, 2, 39, 95
4, 54720, Note_on_c, 2, 46, 95
4, 54936, Note_off_c, 2, 51, 0
4, 54936, Note_off_c, 2, 39, 0
4, 54936, Note_off_c, 2, 46, 0
4, 54960, Note_on_c, 2, 51, 95
4, 54960, Note_on_c, 2, 46, 95
4, 54960, Note_on_c, 2, 39, 95
4, 55176, Note_off_c, 2, 51, 0
4, 55176, Note_off_c, 2, 46, 0
4, 55176, Note_off_c, 2, 39, 0
4, 55200, Note_on_c, 2, 51, 95
4, 55200, Note_on_c, 2, 39, 95
4, 55200, Note_on_c, 2, 46, 95
4, 55416, Note_off_c, 2, 51, 0
4, 55416, Note_off_c, 2, 39, 0
4, 55416, Note_off_c, 2, 46, 0
4, 55440, Note_on_c, 2, 39, 95
4, 55440, Note_on_c, 2, 46, 95
4, 55440, Note_on_c, 2, 51, 95
4, 55656, Note_off_c, 2, 39, 0
4, 55656, Note_off_c, 2, 46, 0
4, 55656, Note_off_c, 2, 51, 0
4, 55680, Note_on_c, 2, 41, 95
4, 55680, Note_on_c, 2, 46, 95
4, 55680, Note_on_c, 2, 34, 95
4, 56586, Note_off_c, 2, 41, 0
4, 56586, Note_off_c, 2, 46, 0
4, 56586, Note_off_c, 2, 34, 0
4, 56880, Note_on_c, 2, 53, 95
4, 56988, Note_off_c, 2, 53, 0
4, 57000, Note_on_c, 2, 51, 95
4, 57108, Note_off_c, 2, 51, 0
4, 57120, Note_on_c, 2, 50, 95
4, 57228, Note_off_c, 2, 50, 0
4, 57240, Note_on_c, 2, 53, 95
4, 57348, Note_off_c, 2, 53, 0
4, 57360, Note_on_c, 2, 50, 95
4, 57468, Note_off_c, 2, 50, 0
4, 57480, Note_on_c, 2, 46, 95
4, 57588, Note_off_c, 2, 46, 0
4, 57600, Note_on_c, 2, 51, 95
4, 57600, Note_on_c, 2, 46, 95
4, 57600, Note_on_c, 2, 39, 95
4, 58506, Note_off_c, 2, 51, 0
4, 58506, Note_off_c, 2, 46, 0
4, 58506, Note_off_c, 2, 39, 0
4, 58560, Note_on_c, 2, 39, 95
4, 58560, Note_on_c, 2, 46, 95
4, 58560, Note_on_c, 2, 51, 95
4, 59226, Note_off_c, 2, 39, 0
4, 59226, Note_off_c, 2, 46, 0
4, 59226, Note_off_c, 2, 51, 0
4, 59280, Note_on_c, 2, 39, 95
4, 59496, Note_off_c, 2, 39, 0
4, 59520, Note_on_c, 2, 49, 95
4, 59520, Note_on_c, 2, 37, 95
4, 59520, Note_on_c, 2, 44, 95
4, 60906, Note_off_c, 2, 49, 0
4, 60906, Note_off_c, 2, 37, 0
4, 60906, Note_off_c, 2, 44, 0
4, 60960, Note_on_c, 2, 37, 95
4, 61392, Note_off_c, 2, 37, 0
4, 61440, Note_on_c, 2, 51, 95
4, 61440, Note_on_c, 2, 46, 95
4, 61440, Note_on_c, 2, 39, 95
4, 62346, Note_off_c, 2, 51, 0
4, 62346, Note_off_c, 2, 46, 0
4, 62346, Note_off_c, 2, 39, 0
4, 62400, Note_on_c, 2, 39, 95
4, 62400, Note_on_c, 2, 46, 95
4, 62400, Note_on_c, 2, 51, 95
4, 63066, Note_off_c, 2, 39, 0
4, 63066, Note_off_c, 2, 46, 0
4, 63066, Note_off_c, 2, 51, 0
4, 63120, Note_on_c, 2, 39, 95
4, 63336, Note_off_c, 2, 39, 0
4, 63360, Note_on_c, 2, 49, 95
4, 63360, Note_on_c, 2, 44, 95
4, 63360, Note_on_c, 2, 37, 95
4, 63792, Note_off_c, 2, 49, 0
4, 63840, Note_on_c, 2, 49, 95
4, 64056, Note_off_c, 2, 49, 0
4, 64080, Note_on_c, 2, 49, 95
4, 64296, Note_off_c, 2, 49, 0
4, 64320, Note_on_c, 2, 49, 95
4, 64536, Note_off_c, 2, 49, 0
4, 64560, Note_on_c, 2, 49, 95
4, 64776, Note_off_c, 2, 49, 0
4, 64800, Note_on_c, 2, 49, 95
4, 65016, Note_off_c, 2, 49, 0
4, 65040, Note_on_c, 2, 49, 95
4, 65226, Note_off_c, 2, 44, 0
4, 65226, Note_off_c, 2, 37, 0
4, 65256, Note_off_c, 2, 49, 0
4, 65280, Note_on_c, 2, 49, 95
4, 65496, Note_off_c, 2, 49, 0
4, 65520, Note_on_c, 2, 49, 95
4, 65736, Note_off_c, 2, 49, 0
4, 65760, Note_on_c, 2, 49, 95
4, 65976, Note_off_c, 2, 49, 0
4, 66240, Note_on_c, 2, 56, 95
4, 66240, Note_on_c, 2, 51, 95
4, 66240, Note_on_c, 2, 44, 95
4, 66672, Note_off_c, 2, 56, 0
4, 66672, Note_off_c, 2, 51, 0
4, 66672, Note_off_c, 2, 44, 0
4, 66720, Note_on_c, 2, 44, 95
4, 66720, Note_on_c, 2, 51, 95
4, 66720, Note_on_c, 2, 56, 95
4, 67152, Note_off_c, 2, 44, 0
4, 67152, Note_off_c, 2, 51, 0
4, 67152, Note_off_c, 2, 56, 0
4, 67200, Note_on_c, 2, 39, 95
4, 67200, Note_on_c, 2, 46, 95
4, 67200, Note_on_c, 2, 51, 95
4, 67866, Note_off_c, 2, 39, 0
4, 67866, Note_off_c, 2, 46, 0
4, 67866, Note_off_c, 2, 51, 0
4, 67920, Note_on_c, 2, 39, 95
4, 68136, Note_off_c, 2, 39, 0
4, 68160, Note_on_c, 2, 48, 95
4, 68160, Note_on_c, 2, 53, 95
4, 68160, Note_on_c, 2, 41, 95
4, 68592, Note_off_c, 2, 48, 0
4, 68592, Note_off_c, 2, 53, 0
4, 68592, Note_off_c, 2, 41, 0
4, 68640, Note_on_c, 2, 53, 95
4, 68640, Note_on_c, 2, 41, 95
4, 68640, Note_on_c, 2, 48, 95
4, 68856, Note_off_c, 2, 53, 0
4, 68856, Note_off_c, 2, 41, 0
4, 68856, Note_off_c, 2, 48, 0
4, 68880, Note_on_c, 2, 39, 95
4, 69096, Note_off_c, 2, 39, 0
4, 69120, Note_on_c, 2, 37, 95
4, 69120, Note_on_c, 2, 44, 95
4, 69120, Note_on_c, 2, 49, 95
4, 69552, Note_off_c, 2, 37, 0
4, 69552, Note_off_c, 2, 44, 0
4, 69552, Note_off_c, 2, 49, 0
4, 69600, Note_on_c, 2, 49, 95
4, 69600, Note_on_c, 2, 37, 95
4, 69600, Note_on_c, 2, 44, 95
4, 70032, Note_off_c, 2, 49, 0
4, 70032, Note_off_c, 2, 37, 0
4, 70032, Note_off_c, 2, 44, 0
4, 70080, Note_on_c, 2, 44, 95
4, 70080, Note_on_c, 2, 56, 95
4, 70080, Note_on_c, 2, 51, 95
4, 70512, Note_off_c, 2, 44, 0
4, 70512, Note_off_c, 2, 56, 0
4, 70512, Note_off_c, 2, 51, 0
4, 70560, Note_on_c, 2, 51, 95
4, 70560, Note_on_c, 2, 56, 95
4, 70560, Note_on_c, 2, 44, 95
4, 70992, Note_off_c, 2, 51, 0
4, 70992, Note_off_c, 2, 56, 0
4, 70992, Note_off_c, 2, 44, 0
4, 71040, Note_on_c, 2, 46, 95
4, 71040, Note_on_c, 2, 51, 95
4, 71040, Note_on_c, 2, 39, 95
4, 71706, Note_off_c, 2, 46, 0
4, 71706, Note_off_c, 2, 51, 0
4, 71706, Note_off_c, 2, 39, 0
4, 71760, Note_on_c, 2, 39, 95
4, 71976, Note_off_c, 2, 39, 0
4, 72000, Note_on_c, 2, 53, 95
4, 72000, Note_on_c, 2, 48, 95
4, 72000, Note_on_c, 2, 41, 95
4, 72432, Note_off_c, 2, 53, 0
4, 72432, Note_off_c, 2, 48, 0
4, 72432, Note_off_c, 2, 41, 0
4, 72480, Note_on_c, 2, 41, 95
4, 72480, Note_on_c, 2, 53, 95
4, 72480, Note_on_c, 2, 48, 95
4, 72696, Note_off_c, 2, 41, 0
4, 72696, Note_off_c, 2, 53, 0
4, 72696, Note_off_c, 2, 48, 0
4, 72720, Note_on_c, 2, 39, 95
4, 72936, Note_off_c, 2, 39, 0
4, 72960, Note_on_c, 2, 49, 95
4, 72960, Note_on_c, 2, 44, 95
4, 72960, Note_on_c, 2, 37, 95
4, 73392, Note_off_c, 2, 49, 0
4, 73392, Note_off_c, 2, 44, 0
4, 73392, Note_off_c, 2, 37, 0
4, 73440, Note_on_c, 2, 49, 95
4, 73440, Note_on_c, 2, 44, 95
4, 73440, Note_on_c, 2, 37, 95
4, 73872, Note_off_c, 2, 49, 0
4, 73872, Note_off_c, 2, 44, 0
4, 73872, Note_off_c, 2, 37, 0
4, 73920, Note_on_c, 2, 44, 95
4, 73920, Note_on_c, 2, 56, 95
4, 73920, Note_on_c, 2, 51, 95
4, 74244, Note_off_c, 2, 44, 0
4, 74244, Note_off_c, 2, 56, 0
4, 74244, Note_off_c, 2, 51, 0
4, 74280, Note_on_c, 2, 44, 95
4, 74280, Note_on_c, 2, 56, 95
4, 74280, Note_on_c, 2, 51, 95
4, 74604, Note_off_c, 2, 44, 0
4, 74604, Note_off_c, 2, 56, 0
4, 74604, Note_off_c, 2, 51, 0
4, 74640, Note_on_c, 2, 51, 95
4, 74640, Note_on_c, 2, 46, 95
4, 74640, Note_on_c, 2, 39, 95
4, 75306, Note_off_c, 2, 51, 0
4, 75306, Note_off_c, 2, 46, 0
4, 75306, Note_off_c, 2, 39, 0
4, 75360, Note_on_c, 2, 51, 95
4, 75360, Note_on_c, 2, 46, 95
4, 75360, Note_on_c, 2, 39, 95
4, 75792, Note_off_c, 2, 51, 0
4, 75792, Note_off_c, 2, 46, 0
4, 75792, Note_off_c, 2, 39, 0
4, 75840, Note_on_c, 2, 41, 95
4, 75840, Note_on_c, 2, 48, 95
4, 75840, Note_on_c, 2, 53, 95
4, 76164, Note_off_c, 2, 41, 0
4, 76164, Note_off_c, 2, 48, 0
4, 76164, Note_off_c, 2, 53, 0
4, 76200, Note_on_c, 2, 48, 95
4, 76200, Note_on_c, 2, 41, 95
4, 76200, Note_on_c, 2, 53, 95
4, 76524, Note_off_c, 2, 48, 0
4, 76524, Note_off_c, 2, 41, 0
4, 76524, Note_off_c, 2, 53, 0
4, 76560, Note_on_c, 2, 49, 95
4, 76560, Note_on_c, 2, 44, 95
4, 76560, Note_on_c, 2, 37, 95
4, 77226, Note_off_c, 2, 49, 0
4, 77226, Note_off_c, 2, 44, 0
4, 77226, Note_off_c, 2, 37, 0
4, 77280, Note_on_c, 2, 49, 95
4, 77280, Note_on_c, 2, 37, 95
4, 77280, Note_on_c, 2, 44, 95
4, 77712, Note_off_c, 2, 49, 0
4, 77712, Note_off_c, 2, 37, 0
4, 77712, Note_off_c, 2, 44, 0
4, 77760, Note_on_c, 2, 48, 95
4, 77760, Note_on_c, 2, 43, 95
4, 77760, Note_on_c, 2, 36, 95
4, 78426, Note_off_c, 2, 48, 0
4, 78426, Note_off_c, 2, 43, 0
4, 78426, Note_off_c, 2, 36, 0
4, 78480, Note_on_c, 2, 42, 95
4, 78480, Note_on_c, 2, 35, 95
4, 78480, Note_on_c, 2, 47, 95
4, 79146, Note_off_c, 2, 42, 0
4, 79146, Note_off_c, 2, 35, 0
4, 79146, Note_off_c, 2, 47, 0
4, 79200, Note_on_c, 2, 47, 95
4, 79200, Note_on_c, 2, 35, 95
4, 79200, Note_on_c, 2, 42, 95
4, 79308, Note_off_c, 2, 47, 0
4, 79308, Note_off_c, 2, 35, 0
4, 79308, Note_off_c, 2, 42, 0
4, 79320, Note_on_c, 2, 35, 95
4, 79320, Note_on_c, 2, 47, 95
4, 79320, Note_on_c, 2, 42, 95
4, 79428, Note_off_c, 2, 35, 0
4, 79428, Note_off_c, 2, 47, 0
4, 79428, Note_off_c, 2, 42, 0
4, 79440, Note_on_c, 2, 35, 95
4, 79440, Note_on_c, 2, 42, 95
4, 79440, Note_on_c, 2, 47, 95
4, 79548, Note_off_c, 2, 35, 0
4, 79548, Note_off_c, 2, 42, 0
4, 79548, Note_off_c, 2, 47, 0
4, 79560, Note_on_c, 2, 35, 95
4, 79560, Note_on_c, 2, 42, 95
4, 79560, Note_on_c, 2, 47, 95
4, 79668, Note_off_c, 2, 35, 0
4, 79668, Note_off_c, 2, 42, 0
4, 79668, Note_off_c, 2, 47, 0
4, 79680, Note_on_c, 2, 49, 95
4, 79680, Note_on_c, 2, 37, 95
4, 79680, Note_on_c, 2, 44, 95
4, 80586, Note_off_c, 2, 49, 0
4, 80586, Note_off_c, 2, 37, 0
4, 80586, Note_off_c, 2, 44, 0
4, 80640, Note_on_c, 2, 49, 95
4, 80640, Note_on_c, 2, 44, 95
4, 80640, Note_on_c, 2, 37, 95
4, 81546, Note_off_c, 2, 49, 0
4, 81546, Note_off_c, 2, 44, 0
4, 81546, Note_off_c, 2, 37, 0
4, 81600, Note_on_c, 2, 44, 95
4, 81600, Note_on_c, 2, 37, 95
4, 81600, Note_on_c, 2, 49, 95
4, 82506, Note_off_c, 2, 44, 0
4, 82506, Note_off_c, 2, 37, 0
4, 82506, Note_off_c, 2, 49, 0
4, 82560, Note_on_c, 2, 37, 95
4, 82560, Note_on_c, 2, 44, 95
4, 82560, Note_on_c, 2, 49, 95
4, 83466, Note_off_c, 2, 37, 0
4, 83466, Note_off_c, 2, 44, 0
4, 83466, Note_off_c, 2, 49, 0
4, 83520, Note_on_c, 2, 37, 127
4, 83520, Note_on_c, 2, 49, 127
4, 83520, Note_on_c, 2, 44, 127
4, 83844, Note_off_c, 2, 37, 0
4, 83844, Note_off_c, 2, 49, 0
4, 83844, Note_off_c, 2, 44, 0
4, 83880, Note_on_c, 2, 37, 127
4, 83880, Note_on_c, 2, 49, 127
4, 83880, Note_on_c, 2, 44, 127
4, 84204, Note_off_c, 2, 37, 0
4, 84204, Note_off_c, 2, 49, 0
4, 84204, Note_off_c, 2, 44, 0
4, 84240, Note_on_c, 2, 49, 127
4, 84240, Note_on_c, 2, 37, 127
4, 84240, Note_on_c, 2, 44, 127
4, 84456, Note_off_c, 2, 49, 0
4, 84456, Note_off_c, 2, 37, 0
4, 84456, Note_off_c, 2, 44, 0
4, 84480, Note_on_c, 2, 49, 127
4, 84480, Note_on_c, 2, 37, 127
4, 84480, Note_on_c, 2, 44, 127
4, 84804, Note_off_c, 2, 49, 0
4, 84804, Note_off_c, 2, 37, 0
4, 84804, Note_off_c, 2, 44, 0
4, 84840, Note_on_c, 2, 49, 95
4, 84840, Note_on_c, 2, 37, 95
4, 84840, Note_on_c, 2, 44, 95
4, 85164, Note_off_c, 2, 49, 0
4, 85164, Note_off_c, 2, 37, 0
4, 85164, Note_off_c, 2, 44, 0
4, 85200, Note_on_c, 2, 49, 127
4, 85200, Note_on_c, 2, 44, 127
4, 85200, Note_on_c, 2, 37, 127
4, 85416, Note_off_c, 2, 49, 0
4, 85416, Note_off_c, 2, 44, 0
4, 85416, Note_off_c, 2, 37, 0
4, 85440, Note_on_c, 2, 49, 127
4, 85440, Note_on_c, 2, 44, 127
4, 85440, Note_on_c, 2, 37, 127
4, 85764, Note_off_c, 2, 49, 0
4, 85764, Note_off_c, 2, 44, 0
4, 85764, Note_off_c, 2, 37, 0
4, 85800, Note_on_c, 2, 37, 127
4, 85800, Note_on_c, 2, 44, 127
4, 85800, Note_on_c, 2, 49, 127
4, 86124, Note_off_c, 2, 37, 0
4, 86124, Note_off_c, 2, 44, 0
4, 86124, Note_off_c, 2, 49, 0
4, 86160, Note_on_c, 2, 44, 127
4, 86160, Note_on_c, 2, 37, 127
4, 86160, Note_on_c, 2, 49, 127
4, 86376, Note_off_c, 2, 44, 0
4, 86376, Note_off_c, 2, 37, 0
4, 86376, Note_off_c, 2, 49, 0
4, 86400, Note_on_c, 2, 44, 127
4, 86400, Note_on_c, 2, 49, 127
4, 86400, Note_on_c, 2, 37, 127
4, 86724, Note_off_c, 2, 44, 0
4, 86724, Note_off_c, 2, 49, 0
4, 86724, Note_off_c, 2, 37, 0
4, 86760, Note_on_c, 2, 37, 127
4, 86760, Note_on_c, 2, 49, 127
4, 86760, Note_on_c, 2, 44, 127
4, 87084, Note_off_c, 2, 37, 0
4, 87084, Note_off_c, 2, 49, 0
4, 87084, Note_off_c, 2, 44, 0
4, 87120, Note_on_c, 2, 37, 127
4, 87120, Note_on_c, 2, 44, 127
4, 87120, Note_on_c, 2, 49, 127
4, 87336, Note_off_c, 2, 37, 0
4, 87336, Note_off_c, 2, 44, 0
4, 87336, Note_off_c, 2, 49, 0
4, 87360, Note_on_c, 2, 44, 127
4, 87360, Note_on_c, 2, 37, 127
4, 87360, Note_on_c, 2, 49, 127
4, 87684, Note_off_c, 2, 44, 0
4, 87684, Note_off_c, 2, 37, 0
4, 87684, Note_off_c, 2, 49, 0
4, 87720, Note_on_c, 2, 49, 127
4, 87720, Note_on_c, 2, 44, 127
4, 87720, Note_on_c, 2, 37, 127
4, 88044, Note_off_c, 2, 49, 0
4, 88044, Note_off_c, 2, 44, 0
4, 88044, Note_off_c, 2, 37, 0
4, 88080, Note_on_c, 2, 44, 127
4, 88080, Note_on_c, 2, 49, 127
4, 88080, Note_on_c, 2, 37, 127
4, 88296, Note_off_c, 2, 44, 0
4, 88296, Note_off_c, 2, 49, 0
4, 88296, Note_off_c, 2, 37, 0
4, 88320, Note_on_c, 2, 37, 127
4, 88320, Note_on_c, 2, 44, 127
4, 88320, Note_on_c, 2, 49, 127
4, 88644, Note_off_c, 2, 37, 0
4, 88644, Note_off_c, 2, 44, 0
4, 88644, Note_off_c, 2, 49, 0
4, 88680, Note_on_c, 2, 37, 127
4, 88680, Note_on_c, 2, 49, 127
4, 88680, Note_on_c, 2, 44, 127
4, 89004, Note_off_c, 2, 37, 0
4, 89004, Note_off_c, 2, 49, 0
4, 89004, Note_off_c, 2, 44, 0
4, 89040, Note_on_c, 2, 44, 127
4, 89040, Note_on_c, 2, 49, 127
4, 89040, Note_on_c, 2, 37, 127
4, 89256, Note_off_c, 2, 44, 0
4, 89256, Note_off_c, 2, 49, 0
4, 89256, Note_off_c, 2, 37, 0
4, 89280, Note_on_c, 2, 44, 127
4, 89280, Note_on_c, 2, 37, 127
4, 89280, Note_on_c, 2, 49, 127
4, 89604, Note_off_c, 2, 44, 0
4, 89604, Note_off_c, 2, 37, 0
4, 89604, Note_off_c, 2, 49, 0
4, 89640, Note_on_c, 2, 37, 127
4, 89640, Note_on_c, 2, 49, 127
4, 89640, Note_on_c, 2, 44, 127
4, 89964, Note_off_c, 2, 37, 0
4, 89964, Note_off_c, 2, 49, 0
4, 89964, Note_off_c, 2, 44, 0
4, 90000, Note_on_c, 2, 44, 127
4, 90000, Note_on_c, 2, 49, 127
4, 90000, Note_on_c, 2, 37, 127
4, 90216, Note_off_c, 2, 44, 0
4, 90216, Note_off_c, 2, 49, 0
4, 90216, Note_off_c, 2, 37, 0
4, 90240, Note_on_c, 2, 49, 127
4, 90240, Note_on_c, 2, 44, 127
4, 90240, Note_on_c, 2, 37, 127
4, 90564, Note_off_c, 2, 49, 0
4, 90564, Note_off_c, 2, 44, 0
4, 90564, Note_off_c, 2, 37, 0
4, 90600, Note_on_c, 2, 49, 127
4, 90600, Note_on_c, 2, 37, 127
4, 90600, Note_on_c, 2, 44, 127
4, 90924, Note_off_c, 2, 49, 0
4, 90924, Note_off_c, 2, 37, 0
4, 90924, Note_off_c, 2, 44, 0
4, 90960, Note_on_c, 2, 44, 127
4, 90960, Note_on_c, 2, 37, 127
4, 90960, Note_on_c, 2, 49, 127
4, 91176, Note_off_c, 2, 44, 0
4, 91176, Note_off_c, 2, 37, 0
4, 91176, Note_off_c, 2, 49, 0
4, 91200, Note_on_c, 2, 46, 127
4, 91200, Note_on_c, 2, 51, 127
4, 91200, Note_on_c, 2, 39, 127
4, 91524, Note_off_c, 2, 46, 0
4, 91524, Note_off_c, 2, 51, 0
4, 91524, Note_off_c, 2, 39, 0
4, 91560, Note_on_c, 2, 39, 127
4, 91560, Note_on_c, 2, 51, 127
4, 91560, Note_on_c, 2, 46, 127
4, 91884, Note_off_c, 2, 39, 0
4, 91884, Note_off_c, 2, 51, 0
4, 91884, Note_off_c, 2, 46, 0
4, 91920, Note_on_c, 2, 51, 127
4, 91920, Note_on_c, 2, 39, 127
4, 91920, Note_on_c, 2, 46, 127
4, 92136, Note_off_c, 2, 51, 0
4, 92136, Note_off_c, 2, 39, 0
4, 92136, Note_off_c, 2, 46, 0
4, 92160, Note_on_c, 2, 51, 127
4, 92160, Note_on_c, 2, 46, 127
4, 92160, Note_on_c, 2, 39, 127
4, 92484, Note_off_c, 2, 51, 0
4, 92484, Note_off_c, 2, 46, 0
4, 92484, Note_off_c, 2, 39, 0
4, 92520, Note_on_c, 2, 39, 127
4, 92520, Note_on_c, 2, 51, 127
4, 92520, Note_on_c, 2, 46, 127
4, 92844, Note_off_c, 2, 39, 0
4, 92844, Note_off_c, 2, 51, 0
4, 92844, Note_off_c, 2, 46, 0
4, 92880, Note_on_c, 2, 46, 127
4, 92880, Note_on_c, 2, 51, 127
4, 92880, Note_on_c, 2, 39, 127
4, 93096, Note_off_c, 2, 46, 0
4, 93096, Note_off_c, 2, 51, 0
4, 93096, Note_off_c, 2, 39, 0
4, 93120, Note_on_c, 2, 51, 127
4, 93120, Note_on_c, 2, 46, 127
4, 93120, Note_on_c, 2, 39, 127
4, 93444, Note_off_c, 2, 51, 0
4, 93444, Note_off_c, 2, 46, 0
4, 93444, Note_off_c, 2, 39, 0
4, 93480, Note_on_c, 2, 39, 127
4, 93480, Note_on_c, 2, 51, 127
4, 93480, Note_on_c, 2, 46, 127
4, 93804, Note_off_c, 2, 39, 0
4, 93804, Note_off_c, 2, 51, 0
4, 93804, Note_off_c, 2, 46, 0
4, 93840, Note_on_c, 2, 51, 127
4, 93840, Note_on_c, 2, 46, 127
4, 93840, Note_on_c, 2, 39, 127
4, 94056, Note_off_c, 2, 51, 0
4, 94056, Note_off_c, 2, 46, 0
4, 94056, Note_off_c, 2, 39, 0
4, 94080, Note_on_c, 2, 46, 127
4, 94080, Note_on_c, 2, 51, 127
4, 94080, Note_on_c, 2, 39, 127
4, 94404, Note_off_c, 2, 46, 0
4, 94404, Note_off_c, 2, 51, 0
4, 94404, Note_off_c, 2, 39, 0
4, 94440, Note_on_c, 2, 46, 127
4, 94440, Note_on_c, 2, 39, 127
4, 94440, Note_on_c, 2, 51, 127
4, 94764, Note_off_c, 2, 46, 0
4, 94764, Note_off_c, 2, 39, 0
4, 94764, Note_off_c, 2, 51, 0
4, 94800, Note_on_c, 2, 39, 127
4, 94800, Note_on_c, 2, 51, 127
4, 94800, Note_on_c, 2, 46, 127
4, 95016, Note_off_c, 2, 39, 0
4, 95016, Note_off_c, 2, 51, 0
4, 95016, Note_off_c, 2, 46, 0
4, 95040, Note_on_c, 2, 53, 95
4, 95040, Note_on_c, 2, 48, 95
4, 95040, Note_on_c, 2, 41, 95
4, 95472, Note_off_c, 2, 53, 0
4, 95472, Note_off_c, 2, 48, 0
4, 95472, Note_off_c, 2, 41, 0
4, 95880, Note_on_c, 2, 37, 95
4, 95880, Note_on_c, 2, 44, 95
4, 95880, Note_on_c, 2, 49, 95
4, 96426, Note_off_c, 2, 37, 0
4, 96426, Note_off_c, 2, 44, 0
4, 96426, Note_off_c, 2, 49, 0
4, 96960, Note_on_c, 2, 51, 95
4, 96960, Note_on_c, 2, 39, 95
4, 96960, Note_on_c, 2, 46, 95
4, 97176, Note_off_c, 2, 51, 0
4, 97176, Note_off_c, 2, 39, 0
4, 97176, Note_off_c, 2, 46, 0
4, 97200, Note_on_c, 2, 51, 95
4, 97200, Note_on_c, 2, 39, 95
4, 97200, Note_on_c, 2, 46, 95
4, 97416, Note_off_c, 2, 51, 0
4, 97416, Note_off_c, 2, 39, 0
4, 97416, Note_off_c, 2, 46, 0
4, 97440, Note_on_c, 2, 39, 95
4, 97440, Note_on_c, 2, 51, 95
4, 97440, Note_on_c, 2, 46, 95
4, 97656, Note_off_c, 2, 39, 0
4, 97656, Note_off_c, 2, 51, 0
4, 97656, Note_off_c, 2, 46, 0
4, 97680, Note_on_c, 2, 39, 95
4, 97680, Note_on_c, 2, 51, 95
4, 97680, Note_on_c, 2, 46, 95
4, 97896, Note_off_c, 2, 39, 0
4, 97896, Note_off_c, 2, 51, 0
4, 97896, Note_off_c, 2, 46, 0
4, 97920, Note_on_c, 2, 46, 95
4, 97920, Note_on_c, 2, 41, 95
4, 97920, Note_on_c, 2, 34, 95
4, 98136, Note_off_c, 2, 46, 0
4, 98136, Note_off_c, 2, 41, 0
4, 98136, Note_off_c, 2, 34, 0
4, 98160, Note_on_c, 2, 34, 95
4, 98160, Note_on_c, 2, 41, 95
4, 98160, Note_on_c, 2, 46, 95
4, 98376, Note_off_c, 2, 34, 0
4, 98376, Note_off_c, 2, 41, 0
4, 98376, Note_off_c, 2, 46, 0
4, 98400, Note_on_c, 2, 41, 95
4, 98400, Note_on_c, 2, 34, 95
4, 98400, Note_on_c, 2, 46, 95
4, 98616, Note_off_c, 2, 41, 0
4, 98616, Note_off_c, 2, 34, 0
4, 98616, Note_off_c, 2, 46, 0
4, 98640, Note_on_c, 2, 34, 95
4, 98640, Note_on_c, 2, 46, 95
4, 98640, Note_on_c, 2, 41, 95
4, 98856, Note_off_c, 2, 34, 0
4, 98856, Note_off_c, 2, 46, 0
4, 98856, Note_off_c, 2, 41, 0
4, 98880, Note_on_c, 2, 44, 95
4, 98880, Note_on_c, 2, 37, 95
4, 98880, Note_on_c, 2, 49, 95
4, 98988, Note_off_c, 2, 44, 0
4, 98988, Note_off_c, 2, 37, 0
4, 98988, Note_off_c, 2, 49, 0
4, 99000, Note_on_c, 2, 49, 95
4, 99000, Note_on_c, 2, 44, 95
4, 99000, Note_on_c, 2, 37, 95
4, 99108, Note_off_c, 2, 49, 0
4, 99108, Note_off_c, 2, 44, 0
4, 99108, Note_off_c, 2, 37, 0
4, 99120, Note_on_c, 2, 37, 95
4, 99120, Note_on_c, 2, 49, 95
4, 99120, Note_on_c, 2, 44, 95
4, 99228, Note_off_c, 2, 37, 0
4, 99228, Note_off_c, 2, 49, 0
4, 99228, Note_off_c, 2, 44, 0
4, 99240, Note_on_c, 2, 44, 95
4, 99240, Note_on_c, 2, 49, 95
4, 99240, Note_on_c, 2, 37, 95
4, 99348, Note_off_c, 2, 44, 0
4, 99348, Note_off_c, 2, 49, 0
4, 99348, Note_off_c, 2, 37, 0
4, 99360, Note_on_c, 2, 37, 95
4, 99360, Note_on_c, 2, 49, 95
4, 99360, Note_on_c, 2, 44, 95
4, 99468, Note_off_c, 2, 37, 0
4, 99468, Note_off_c, 2, 49, 0
4, 99468, Note_off_c, 2, 44, 0
4, 99840, Note_on_c, 2, 44, 95
4, 99840, Note_on_c, 2, 56, 95
4, 99840, Note_on_c, 2, 51, 95
4, 100272, Note_off_c, 2, 44, 0
4, 100272, Note_off_c, 2, 56, 0
4, 100272, Note_off_c, 2, 51, 0
4, 100320, Note_on_c, 2, 51, 95
4, 100320, Note_on_c, 2, 56, 95
4, 100320, Note_on_c, 2, 44, 95
4, 100644, Note_off_c, 2, 51, 0
4, 100644, Note_off_c, 2, 56, 0
4, 100644, Note_off_c, 2, 44, 0
4, 100680, Note_on_c, 2, 44, 95
4, 100788, Note_off_c, 2, 44, 0
4, 100800, Note_on_c, 2, 51, 95
4, 100800, Note_on_c, 2, 46, 95
4, 100800, Note_on_c, 2, 39, 95
4, 101232, Note_off_c, 2, 51, 0
4, 101232, Note_off_c, 2, 46, 0
4, 101232, Note_off_c, 2, 39, 0
4, 101280, Note_on_c, 2, 39, 95
4, 101280, Note_on_c, 2, 46, 95
4, 101280, Note_on_c, 2, 51, 95
4, 101604, Note_off_c, 2, 39, 0
4, 101604, Note_off_c, 2, 46, 0
4, 101604, Note_off_c, 2, 51, 0
4, 101640, Note_on_c, 2, 39, 95
4, 101748, Note_off_c, 2, 39, 0
4, 101760, Note_on_c, 2, 41, 95
4, 101760, Note_on_c, 2, 53, 95
4, 101760, Note_on_c, 2, 48, 95
4, 102192, Note_off_c, 2, 41, 0
4, 102192, Note_off_c, 2, 53, 0
4, 102192, Note_off_c, 2, 48, 0
4, 102240, Note_on_c, 2, 41, 95
4, 102240, Note_on_c, 2, 48, 95
4, 102240, Note_on_c, 2, 53, 95
4, 102456, Note_off_c, 2, 41, 0
4, 102456, Note_off_c, 2, 48, 0
4, 102456, Note_off_c, 2, 53, 0
4, 102480, Note_on_c, 2, 39, 95
4, 102696, Note_off_c, 2, 39, 0
4, 102720, Note_on_c, 2, 37, 95
4, 102720, Note_on_c, 2, 49, 95
4, 102720, Note_on_c, 2, 44, 95
4, 103152, Note_off_c, 2, 37, 0
4, 103152, Note_off_c, 2, 49, 0
4, 103152, Note_off_c, 2, 44, 0
4, 103200, Note_on_c, 2, 37, 95
4, 103200, Note_on_c, 2, 49, 95
4, 103200, Note_on_c, 2, 44, 95
4, 103632, Note_off_c, 2, 37, 0
4, 103632, Note_off_c, 2, 49, 0
4, 103632, Note_off_c, 2, 44, 0
4, 103680, Note_on_c, 2, 56, 95
4, 103680, Note_on_c, 2, 51, 95
4, 103680, Note_on_c, 2, 44, 95
4, 104112, Note_off_c, 2, 56, 0
4, 104112, Note_off_c, 2, 51, 0
4, 104112, Note_off_c, 2, 44, 0
4, 104160, Note_on_c, 2, 51, 95
4, 104160, Note_on_c, 2, 56, 95
4, 104160, Note_on_c, 2, 44, 95
4, 104484, Note_off_c, 2, 51, 0
4, 104484, Note_off_c, 2, 56, 0
4, 104484, Note_off_c, 2, 44, 0
4, 104520, Note_on_c, 2, 44, 95
4, 104628, Note_off_c, 2, 44, 0
4, 104640, Note_on_c, 2, 46, 95
4, 104640, Note_on_c, 2, 39, 95
4, 104640, Note_on_c, 2, 51, 95
4, 105072, Note_off_c, 2, 46, 0
4, 105072, Note_off_c, 2, 39, 0
4, 105072, Note_off_c, 2, 51, 0
4, 105120, Note_on_c, 2, 46, 95
4, 105120, Note_on_c, 2, 51, 95
4, 105120, Note_on_c, 2, 39, 95
4, 105444, Note_off_c, 2, 46, 0
4, 105444, Note_off_c, 2, 51, 0
4, 105444, Note_off_c, 2, 39, 0
4, 105480, Note_on_c, 2, 39, 95
4, 105588, Note_off_c, 2, 39, 0
4, 105600, Note_on_c, 2, 41, 95
4, 105600, Note_on_c, 2, 53, 95
4, 105600, Note_on_c, 2, 48, 95
4, 106032, Note_off_c, 2, 41, 0
4, 106032, Note_off_c, 2, 53, 0
4, 106032, Note_off_c, 2, 48, 0
4, 106080, Note_on_c, 2, 53, 95
4, 106080, Note_on_c, 2, 41, 95
4, 106080, Note_on_c, 2, 48, 95
4, 106296, Note_off_c, 2, 53, 0
4, 106296, Note_off_c, 2, 41, 0
4, 106296, Note_off_c, 2, 48, 0
4, 106320, Note_on_c, 2, 39, 95
4, 106536, Note_off_c, 2, 39, 0
4, 106560, Note_on_c, 2, 37, 95
4, 106560, Note_on_c, 2, 44, 95
4, 106560, Note_on_c, 2, 49, 95
4, 106992, Note_off_c, 2, 37, 0
4, 106992, Note_off_c, 2, 44, 0
4, 106992, Note_off_c, 2, 49, 0
4, 107040, Note_on_c, 2, 37, 95
4, 107040, Note_on_c, 2, 49, 95
4, 107040, Note_on_c, 2, 44, 95
4, 107472, Note_off_c, 2, 37, 0
4, 107472, Note_off_c, 2, 49, 0
4, 107472, Note_off_c, 2, 44, 0
4, 107520, Note_on_c, 2, 56, 95
4, 107520, Note_on_c, 2, 51, 95
4, 107520, Note_on_c, 2, 44, 95
4, 107844, Note_off_c, 2, 56, 0
4, 107844, Note_off_c, 2, 51, 0
4, 107844, Note_off_c, 2, 44, 0
4, 107880, Note_on_c, 2, 56, 95
4, 107880, Note_on_c, 2, 44, 95
4, 107880, Note_on_c, 2, 51, 95
4, 108204, Note_off_c, 2, 56, 0
4, 108204, Note_off_c, 2, 44, 0
4, 108204, Note_off_c, 2, 51, 0
4, 108240, Note_on_c, 2, 51, 95
4, 108240, Note_on_c, 2, 46, 95
4, 108240, Note_on_c, 2, 39, 95
4, 108906, Note_off_c, 2, 51, 0
4, 108906, Note_off_c, 2, 46, 0
4, 108906, Note_off_c, 2, 39, 0
4, 108960, Note_on_c, 2, 46, 95
4, 108960, Note_on_c, 2, 39, 95
4, 108960, Note_on_c, 2, 51, 95
4, 109392, Note_off_c, 2, 46, 0
4, 109392, Note_off_c, 2, 39, 0
4, 109392, Note_off_c, 2, 51, 0
4, 109440, Note_on_c, 2, 41, 95
4, 109440, Note_on_c, 2, 48, 95
4, 109440, Note_on_c, 2, 53, 95
4, 109764, Note_off_c, 2, 41, 0
4, 109764, Note_off_c, 2, 48, 0
4, 109764, Note_off_c, 2, 53, 0
4, 109800, Note_on_c, 2, 48, 95
4, 109800, Note_on_c, 2, 53, 95
4, 109800, Note_on_c, 2, 41, 95
4, 110124, Note_off_c, 2, 48, 0
4, 110124, Note_off_c, 2, 53, 0
4, 110124, Note_off_c, 2, 41, 0
4, 110160, Note_on_c, 2, 44, 95
4, 110160, Note_on_c, 2, 37, 95
4, 110160, Note_on_c, 2, 49, 95
4, 110826, Note_off_c, 2, 44, 0
4, 110826, Note_off_c, 2, 37, 0
4, 110826, Note_off_c, 2, 49, 0
4, 110880, Note_on_c, 2, 49, 95
4, 110880, Note_on_c, 2, 44, 95
4, 110880, Note_on_c, 2, 37, 95
4, 111312, Note_off_c, 2, 49, 0
4, 111312, Note_off_c, 2, 44, 0
4, 111312, Note_off_c, 2, 37, 0
4, 111360, Note_on_c, 2, 44, 95
4, 111360, Note_on_c, 2, 49, 95
4, 111360, Note_on_c, 2, 37, 95
4, 111792, Note_off_c, 2, 44, 0
4, 111792, Note_off_c, 2, 49, 0
4, 111792, Note_off_c, 2, 37, 0
4, 111840, Note_on_c, 2, 44, 95
4, 111840, Note_on_c, 2, 49, 95
4, 111840, Note_on_c, 2, 37, 95
4, 112272, Note_off_c, 2, 44, 0
4, 112272, Note_off_c, 2, 49, 0
4, 112272, Note_off_c, 2, 37, 0
4, 112320, Note_on_c, 2, 43, 95
4, 112320, Note_on_c, 2, 36, 95
4, 112320, Note_on_c, 2, 48, 95
4, 112644, Note_off_c, 2, 43, 0
4, 112644, Note_off_c, 2, 36, 0
4, 112644, Note_off_c, 2, 48, 0
4, 112680, Note_on_c, 2, 36, 95
4, 112680, Note_on_c, 2, 43, 95
4, 112680, Note_on_c, 2, 48, 95
4, 113004, Note_off_c, 2, 36, 0
4, 113004, Note_off_c, 2, 43, 0
4, 113004, Note_off_c, 2, 48, 0
4, 113040, Note_on_c, 2, 42, 95
4, 113040, Note_on_c, 2, 47, 95
4, 113040, Note_on_c, 2, 35, 95
4, 113256, Note_off_c, 2, 42, 0
4, 113256, Note_off_c, 2, 47, 0
4, 113256, Note_off_c, 2, 35, 0
4, 113280, Note_on_c, 2, 42, 95
4, 113280, Note_on_c, 2, 35, 95
4, 113280, Note_on_c, 2, 47, 95
4, 113712, Note_off_c, 2, 42, 0
4, 113712, Note_off_c, 2, 35, 0
4, 113712, Note_off_c, 2, 47, 0
4, 113760, Note_on_c, 2, 42, 95
4, 113760, Note_on_c, 2, 47, 95
4, 113760, Note_on_c, 2, 35, 95
4, 114192, Note_off_c, 2, 42, 0
4, 114192, Note_off_c, 2, 47, 0
4, 114192, Note_off_c, 2, 35, 0
4, 114240, Note_on_c, 2, 47, 95
4, 114240, Note_on_c, 2, 35, 95
4, 114240, Note_on_c, 2, 42, 95
4, 114456, Note_off_c, 2, 47, 0
4, 114456, Note_off_c, 2, 35, 0
4, 114456, Note_off_c, 2, 42, 0
4, 114480, Note_on_c, 2, 47, 95
4, 114480, Note_on_c, 2, 35, 95
4, 114480, Note_on_c, 2, 42, 95
4, 114696, Note_off_c, 2, 47, 0
4, 114696, Note_off_c, 2, 35, 0
4, 114696, Note_off_c, 2, 42, 0
4, 114720, Note_on_c, 2, 47, 95
4, 114720, Note_on_c, 2, 42, 95
4, 114720, Note_on_c, 2, 35, 95
4, 114828, Note_off_c, 2, 47, 0
4, 114828, Note_off_c, 2, 42, 0
4, 114828, Note_off_c, 2, 35, 0
4, 114840, Note_on_c, 2, 42, 95
4, 114840, Note_on_c, 2, 35, 95
4, 114840, Note_on_c, 2, 47, 95
4, 114948, Note_off_c, 2, 42, 0
4, 114948, Note_off_c, 2, 35, 0
4, 114948, Note_off_c, 2, 47, 0
4, 114960, Note_on_c, 2, 47, 95
4, 114960, Note_on_c, 2, 42, 95
4, 114960, Note_on_c, 2, 35, 95
4, 115068, Note_off_c, 2, 47, 0
4, 115068, Note_off_c, 2, 42, 0
4, 115068, Note_off_c, 2, 35, 0
4, 115200, Note_on_c, 2, 37, 95
4, 115200, Note_on_c, 2, 44, 95
4, 118986, Note_off_c, 2, 37, 0
4, 118986, Note_off_c, 2, 44, 0
4, 119466, End_track
0, 0, End_of_file
