0, 0, Header, 0, 1, 480
1, 0, Start_track
1, 0, Title_t, "Beethoven Sonata No. 8 in C minor ""Pathetique"""
1, 0, Title_t, "3. Movement"
1, 0, Copyright_t, "Copyright © 2003 by Bernd Krueger "
1, 0, Text_t, "Ludwig van Beethoven"
1, 0, Text_t, "Rondo"
1, 0, Text_t, "Fertiggestellt am 30.12.2003\012"
1, 0, Text_t, "Update am 20.12.2011\012"
1, 0, Text_t, "Update am 21.5.2012\012"
1, 0, Text_t, "Dauer: 4:19 Minuten\012"
1, 0, SMPTE_offset, 96, 0, 3, 0, 0
1, 0, Time_signature, 4, 2, 24, 8
1, 0, Key_signature, -3, "major"
1, 0, Tempo, 289869
1, 0, Program_c, 0, 1
1, 0, Control_c, 0, 7, 100
1, 0, Control_c, 0, 10, 64
1, 0, Control_c, 0, 91, 127
1, 0, Text_t, "bdca426d104a26ac9dcb070447587523"
1, 0, Program_c, 0, 1
1, 0, Control_c, 0, 7, 100
1, 0, Control_c, 0, 10, 64
1, 0, Control_c, 0, 64, 0
1, 1200, Tempo, 296604
1, 1200, Note_on_c, 0, 67, 48
1, 1320, Note_on_c, 0, 67, 0
1, 1440, Note_on_c, 0, 72, 49
1, 1560, Note_on_c, 0, 72, 0
1, 1680, Tempo, 315623
1, 1680, Note_on_c, 0, 74, 51
1, 1800, Note_on_c, 0, 74, 0
1, 1920, Tempo, 289869
1, 1920, Note_on_c, 0, 75, 52
1, 1920, Note_on_c, 0, 48, 40
1, 2160, Tempo, 292912
1, 2160, Note_on_c, 0, 48, 0
1, 2160, Note_on_c, 0, 51, 36
1, 2400, Note_on_c, 0, 51, 0
1, 2400, Note_on_c, 0, 55, 36
1, 2640, Tempo, 309821
1, 2640, Note_on_c, 0, 55, 0
1, 2640, Note_on_c, 0, 75, 0
1, 2640, Note_on_c, 0, 77, 50
1, 2640, Note_on_c, 0, 60, 36
1, 2880, Tempo, 289324
1, 2880, Note_on_c, 0, 60, 0
1, 2880, Note_on_c, 0, 77, 0
1, 2880, Note_on_c, 0, 74, 53
1, 2880, Note_on_c, 0, 48, 40
1, 3120, Tempo, 292912
1, 3120, Note_on_c, 0, 48, 0
1, 3120, Note_on_c, 0, 53, 40
1, 3360, Note_on_c, 0, 53, 0
1, 3360, Note_on_c, 0, 55, 36
1, 3600, Tempo, 308230
1, 3600, Note_on_c, 0, 55, 0
1, 3600, Note_on_c, 0, 74, 0
1, 3600, Note_on_c, 0, 75, 50
1, 3600, Note_on_c, 0, 59, 36
1, 3840, Tempo, 289869
1, 3840, Note_on_c, 0, 59, 0
1, 3840, Note_on_c, 0, 75, 0
1, 3840, Note_on_c, 0, 72, 52
1, 3840, Note_on_c, 0, 48, 40
1, 4080, Note_on_c, 0, 48, 0
1, 4080, Note_on_c, 0, 51, 40
1, 4320, Note_on_c, 0, 51, 0
1, 4320, Note_on_c, 0, 55, 36
1, 4560, Tempo, 298151
1, 4560, Note_on_c, 0, 55, 0
1, 4560, Note_on_c, 0, 60, 36
1, 4740, Note_on_c, 0, 72, 0
1, 4740, Note_on_c, 0, 74, 48
1, 4760, Tempo, 289869
1, 4800, Note_on_c, 0, 74, 0
1, 4800, Note_on_c, 0, 60, 0
1, 4800, Note_on_c, 0, 72, 52
1, 4800, Note_on_c, 0, 63, 40
1, 5040, Note_on_c, 0, 63, 0
1, 5040, Note_on_c, 0, 72, 0
1, 5040, Note_on_c, 0, 71, 51
1, 5040, Note_on_c, 0, 67, 36
1, 5280, Note_on_c, 0, 67, 0
1, 5280, Note_on_c, 0, 71, 0
1, 5280, Note_on_c, 0, 72, 51
1, 5280, Note_on_c, 0, 63, 36
1, 5520, Note_on_c, 0, 63, 0
1, 5520, Note_on_c, 0, 72, 0
1, 5520, Note_on_c, 0, 74, 50
1, 5520, Note_on_c, 0, 62, 36
1, 5700, Note_on_c, 0, 74, 0
1, 5700, Note_on_c, 0, 77, 49
1, 5760, Note_on_c, 0, 77, 0
1, 5760, Note_on_c, 0, 62, 0
1, 5760, Note_on_c, 0, 75, 56
1, 5760, Note_on_c, 0, 60, 40
1, 6000, Note_on_c, 0, 60, 0
1, 6000, Note_on_c, 0, 75, 0
1, 6000, Note_on_c, 0, 74, 52
1, 6000, Note_on_c, 0, 67, 36
1, 6240, Note_on_c, 0, 67, 0
1, 6240, Note_on_c, 0, 74, 0
1, 6240, Note_on_c, 0, 75, 52
1, 6240, Note_on_c, 0, 60, 36
1, 6240, Note_on_c, 0, 63, 36
1, 6480, Tempo, 314795
1, 6480, Note_on_c, 0, 63, 0
1, 6480, Note_on_c, 0, 60, 0
1, 6480, Note_on_c, 0, 75, 0
1, 6480, Note_on_c, 0, 77, 52
1, 6480, Note_on_c, 0, 67, 36
1, 6720, Tempo, 311462
1, 6720, Note_on_c, 0, 67, 0
1, 6720, Note_on_c, 0, 77, 0
1, 6720, Note_on_c, 0, 79, 56
1, 6720, Note_on_c, 0, 59, 41
1, 6720, Note_on_c, 0, 62, 41
1, 6960, Note_on_c, 0, 62, 0
1, 6960, Note_on_c, 0, 59, 0
1, 6960, Note_on_c, 0, 79, 0
1, 6960, Note_on_c, 0, 67, 36
1, 7200, Note_on_c, 0, 67, 0
1, 7200, Note_on_c, 0, 79, 55
1, 7200, Note_on_c, 0, 60, 36
1, 7200, Note_on_c, 0, 56, 36
1, 7440, Note_on_c, 0, 56, 0
1, 7440, Note_on_c, 0, 60, 0
1, 7440, Note_on_c, 0, 79, 0
1, 7440, Note_on_c, 0, 67, 36
1, 7680, Note_on_c, 0, 67, 0
1, 7680, Note_on_c, 0, 79, 57
1, 7680, Note_on_c, 0, 55, 40
1, 7920, Note_on_c, 0, 55, 0
1, 7920, Note_on_c, 0, 59, 29
1, 8160, Note_on_c, 0, 59, 0
1, 8160, Note_on_c, 0, 62, 28
1, 8400, Note_on_c, 0, 62, 0
1, 8400, Note_on_c, 0, 67, 28
1, 8640, Tempo, 289869
1, 8640, Note_on_c, 0, 67, 0
1, 8640, Note_on_c, 0, 55, 40
1, 8880, Note_on_c, 0, 55, 0
1, 8880, Note_on_c, 0, 59, 31
1, 9120, Note_on_c, 0, 59, 0
1, 9120, Note_on_c, 0, 79, 0
1, 9120, Note_on_c, 0, 77, 51
1, 9120, Note_on_c, 0, 62, 31
1, 9360, Tempo, 321096
1, 9360, Note_on_c, 0, 62, 0
1, 9360, Note_on_c, 0, 77, 0
1, 9360, Note_on_c, 0, 79, 53
1, 9360, Note_on_c, 0, 67, 31
1, 9480, Tempo, 296457
1, 9480, Note_on_c, 0, 79, 0
1, 9480, Note_on_c, 0, 77, 48
1, 9540, Note_on_c, 0, 77, 0
1, 9540, Note_on_c, 0, 79, 48
1, 9600, Tempo, 289869
1, 9600, Note_on_c, 0, 79, 0
1, 9600, Note_on_c, 0, 67, 0
1, 9600, Note_on_c, 0, 80, 56
1, 9600, Note_on_c, 0, 53, 40
1, 9840, Tempo, 293643
1, 9840, Note_on_c, 0, 53, 0
1, 9840, Note_on_c, 0, 56, 36
1, 10080, Note_on_c, 0, 56, 0
1, 10080, Note_on_c, 0, 59, 37
1, 10320, Note_on_c, 0, 59, 0
1, 10320, Note_on_c, 0, 62, 37
1, 10560, Tempo, 288628
1, 10560, Note_on_c, 0, 62, 0
1, 10560, Note_on_c, 0, 80, 0
1, 10560, Note_on_c, 0, 74, 52
1, 10560, Note_on_c, 0, 53, 40
1, 10800, Note_on_c, 0, 53, 0
1, 10800, Note_on_c, 0, 56, 36
1, 11040, Note_on_c, 0, 56, 0
1, 11040, Note_on_c, 0, 74, 0
1, 11040, Note_on_c, 0, 75, 51
1, 11040, Note_on_c, 0, 59, 36
1, 11280, Tempo, 318150
1, 11280, Note_on_c, 0, 59, 0
1, 11280, Note_on_c, 0, 75, 0
1, 11280, Note_on_c, 0, 77, 53
1, 11280, Note_on_c, 0, 62, 36
1, 11400, Tempo, 296457
1, 11400, Note_on_c, 0, 77, 0
1, 11400, Note_on_c, 0, 75, 50
1, 11460, Note_on_c, 0, 75, 0
1, 11460, Note_on_c, 0, 77, 50
1, 11520, Tempo, 289869
1, 11520, Note_on_c, 0, 77, 0
1, 11520, Note_on_c, 0, 62, 0
1, 11520, Note_on_c, 0, 79, 56
1, 11520, Note_on_c, 0, 51, 40
1, 11760, Tempo, 293643
1, 11760, Note_on_c, 0, 51, 0
1, 11760, Note_on_c, 0, 55, 34
1, 12000, Note_on_c, 0, 55, 0
1, 12000, Note_on_c, 0, 60, 34
1, 12240, Note_on_c, 0, 60, 0
1, 12240, Note_on_c, 0, 63, 33
1, 12480, Tempo, 289324
1, 12480, Note_on_c, 0, 63, 0
1, 12480, Note_on_c, 0, 79, 0
1, 12480, Note_on_c, 0, 72, 52
1, 12480, Note_on_c, 0, 56, 41
1, 12720, Note_on_c, 0, 56, 0
1, 12720, Note_on_c, 0, 60, 35
1, 12954, Note_on_c, 0, 72, 0
1, 12960, Note_on_c, 0, 60, 0
1, 12960, Note_on_c, 0, 72, 53
1, 12960, Note_on_c, 0, 63, 35
1, 13200, Tempo, 298151
1, 13200, Note_on_c, 0, 63, 0
1, 13200, Note_on_c, 0, 72, 0
1, 13200, Note_on_c, 0, 74, 54
1, 13200, Note_on_c, 0, 66, 35
1, 13440, Tempo, 289869
1, 13440, Note_on_c, 0, 66, 0
1, 13440, Note_on_c, 0, 74, 0
1, 13440, Note_on_c, 0, 75, 57
1, 13440, Note_on_c, 0, 55, 40
1, 13680, Tempo, 292912
1, 13680, Note_on_c, 0, 55, 0
1, 13680, Note_on_c, 0, 75, 0
1, 13680, Note_on_c, 0, 60, 40
1, 13920, Note_on_c, 0, 60, 0
1, 13920, Note_on_c, 0, 75, 53
1, 13920, Note_on_c, 0, 63, 35
1, 14160, Note_on_c, 0, 63, 0
1, 14160, Note_on_c, 0, 75, 0
1, 14160, Note_on_c, 0, 77, 46
1, 14160, Note_on_c, 0, 67, 35
1, 14400, Tempo, 289324
1, 14400, Note_on_c, 0, 67, 0
1, 14400, Note_on_c, 0, 77, 0
1, 14400, Note_on_c, 0, 74, 57
1, 14400, Note_on_c, 0, 55, 40
1, 14640, Tempo, 292198
1, 14640, Note_on_c, 0, 55, 0
1, 14640, Note_on_c, 0, 74, 0
1, 14640, Note_on_c, 0, 59, 36
1, 14880, Note_on_c, 0, 59, 0
1, 14880, Note_on_c, 0, 74, 51
1, 14880, Note_on_c, 0, 62, 36
1, 15120, Tempo, 299865
1, 15120, Note_on_c, 0, 62, 0
1, 15120, Note_on_c, 0, 74, 0
1, 15120, Note_on_c, 0, 75, 54
1, 15120, Note_on_c, 0, 67, 36
1, 15360, Tempo, 306623
1, 15360, Note_on_c, 0, 67, 0
1, 15360, Note_on_c, 0, 75, 0
1, 15360, Note_on_c, 0, 72, 57
1, 15600, Tempo, 297295
1, 15600, Note_on_c, 0, 48, 38
1, 15840, Tempo, 306905
1, 15840, Note_on_c, 0, 48, 0
1, 15840, Note_on_c, 0, 72, 0
1, 15840, Note_on_c, 0, 51, 42
1, 16080, Note_on_c, 0, 51, 0
1, 16080, Note_on_c, 0, 55, 45
1, 16320, Tempo, 290051
1, 16320, Note_on_c, 0, 55, 0
1, 16320, Note_on_c, 0, 60, 49
1, 16800, Note_on_c, 0, 60, 0
1, 16800, Note_on_c, 0, 77, 56
1, 17040, Tempo, 321096
1, 17040, Note_on_c, 0, 77, 0
1, 17040, Note_on_c, 0, 79, 58
1, 17160, Tempo, 296457
1, 17280, Tempo, 289869
1, 17280, Note_on_c, 0, 79, 0
1, 17280, Note_on_c, 0, 68, 51
1, 17280, Note_on_c, 0, 80, 61
1, 17520, Tempo, 293643
1, 17520, Note_on_c, 0, 41, 43
1, 17760, Note_on_c, 0, 41, 0
1, 17760, Note_on_c, 0, 47, 45
1, 18000, Note_on_c, 0, 47, 0
1, 18000, Note_on_c, 0, 50, 47
1, 18240, Tempo, 288628
1, 18240, Note_on_c, 0, 50, 0
1, 18240, Note_on_c, 0, 80, 0
1, 18240, Note_on_c, 0, 68, 0
1, 18240, Note_on_c, 0, 74, 57
1, 18240, Note_on_c, 0, 53, 49
1, 18480, Note_on_c, 0, 53, 0
1, 18480, Note_on_c, 0, 56, 43
1, 18720, Note_on_c, 0, 56, 0
1, 18720, Note_on_c, 0, 74, 0
1, 18720, Note_on_c, 0, 75, 56
1, 18720, Note_on_c, 0, 55, 43
1, 18960, Tempo, 318150
1, 18960, Note_on_c, 0, 55, 0
1, 18960, Note_on_c, 0, 75, 0
1, 18960, Note_on_c, 0, 77, 58
1, 18960, Note_on_c, 0, 53, 43
1, 19080, Tempo, 296457
1, 19200, Tempo, 289869
1, 19200, Note_on_c, 0, 53, 0
1, 19200, Note_on_c, 0, 77, 0
1, 19200, Note_on_c, 0, 67, 51
1, 19200, Note_on_c, 0, 79, 61
1, 19440, Tempo, 293643
1, 19440, Note_on_c, 0, 39, 40
1, 19680, Note_on_c, 0, 39, 0
1, 19680, Note_on_c, 0, 43, 42
1, 19920, Note_on_c, 0, 43, 0
1, 19920, Note_on_c, 0, 48, 45
1, 20160, Tempo, 289324
1, 20160, Note_on_c, 0, 48, 0
1, 20160, Note_on_c, 0, 79, 0
1, 20160, Note_on_c, 0, 67, 0
1, 20160, Note_on_c, 0, 72, 57
1, 20160, Note_on_c, 0, 51, 48
1, 20400, Note_on_c, 0, 51, 0
1, 20400, Note_on_c, 0, 55, 40
1, 20640, Note_on_c, 0, 55, 0
1, 20640, Note_on_c, 0, 72, 0
1, 20640, Note_on_c, 0, 72, 58
1, 20640, Note_on_c, 0, 56, 39
1, 20880, Tempo, 298151
1, 20880, Note_on_c, 0, 56, 0
1, 20880, Note_on_c, 0, 72, 0
1, 20880, Note_on_c, 0, 74, 59
1, 20880, Note_on_c, 0, 54, 39
1, 21120, Tempo, 289869
1, 21120, Note_on_c, 0, 54, 0
1, 21120, Note_on_c, 0, 74, 0
1, 21120, Note_on_c, 0, 75, 62
1, 21120, Note_on_c, 0, 43, 48
1, 21360, Tempo, 292912
1, 21360, Note_on_c, 0, 43, 0
1, 21360, Note_on_c, 0, 75, 0
1, 21360, Note_on_c, 0, 55, 44
1, 21600, Note_on_c, 0, 55, 0
1, 21600, Note_on_c, 0, 75, 58
1, 21600, Note_on_c, 0, 60, 38
1, 21840, Note_on_c, 0, 60, 0
1, 21840, Note_on_c, 0, 75, 0
1, 21840, Note_on_c, 0, 77, 60
1, 21840, Note_on_c, 0, 55, 38
1, 22080, Tempo, 289324
1, 22080, Note_on_c, 0, 55, 0
1, 22080, Note_on_c, 0, 77, 0
1, 22080, Note_on_c, 0, 74, 62
1, 22080, Note_on_c, 0, 43, 48
1, 22320, Tempo, 292198
1, 22320, Note_on_c, 0, 43, 0
1, 22320, Note_on_c, 0, 74, 0
1, 22320, Note_on_c, 0, 55, 39
1, 22560, Note_on_c, 0, 55, 0
1, 22560, Note_on_c, 0, 74, 56
1, 22560, Note_on_c, 0, 59, 39
1, 22800, Tempo, 299865
1, 22800, Note_on_c, 0, 59, 0
1, 22800, Note_on_c, 0, 74, 0
1, 22800, Note_on_c, 0, 75, 59
1, 22800, Note_on_c, 0, 55, 39
1, 23040, Tempo, 306623
1, 23040, Note_on_c, 0, 55, 0
1, 23040, Note_on_c, 0, 75, 0
1, 23040, Note_on_c, 0, 72, 62
1, 23040, Note_on_c, 0, 48, 52
1, 23280, Tempo, 297295
1, 23280, Note_on_c, 0, 48, 0
1, 23280, Note_on_c, 0, 72, 0
1, 23280, Note_on_c, 0, 60, 45
1, 23520, Tempo, 306905
1, 23520, Note_on_c, 0, 60, 0
1, 23520, Note_on_c, 0, 82, 74
1, 23520, Note_on_c, 0, 59, 45
1, 23760, Note_on_c, 0, 59, 0
1, 23760, Note_on_c, 0, 60, 45
1, 24000, Note_on_c, 0, 60, 0
1, 24000, Note_on_c, 0, 52, 52
1, 24240, Note_on_c, 0, 52, 0
1, 24240, Note_on_c, 0, 60, 48
1, 24480, Note_on_c, 0, 60, 0
1, 24480, Note_on_c, 0, 82, 0
1, 24480, Note_on_c, 0, 82, 73
1, 24480, Note_on_c, 0, 55, 48
1, 24720, Note_on_c, 0, 55, 0
1, 24720, Note_on_c, 0, 60, 48
1, 24960, Note_on_c, 0, 60, 0
1, 24960, Note_on_c, 0, 53, 53
1, 25200, Note_on_c, 0, 53, 0
1, 25200, Note_on_c, 0, 82, 0
1, 25200, Note_on_c, 0, 80, 71
1, 25200, Note_on_c, 0, 60, 49
1, 25440, Tempo, 289869
1, 25440, Note_on_c, 0, 60, 0
1, 25440, Note_on_c, 0, 80, 0
1, 25440, Note_on_c, 0, 79, 72
1, 25440, Note_on_c, 0, 56, 50
1, 25680, Note_on_c, 0, 56, 0
1, 25680, Note_on_c, 0, 79, 0
1, 25680, Note_on_c, 0, 77, 72
1, 25680, Note_on_c, 0, 60, 49
1, 25920, Note_on_c, 0, 60, 0
1, 25920, Note_on_c, 0, 77, 0
1, 25920, Note_on_c, 0, 75, 71
1, 25920, Note_on_c, 0, 55, 54
1, 26160, Note_on_c, 0, 55, 0
1, 26160, Note_on_c, 0, 75, 0
1, 26160, Note_on_c, 0, 74, 71
1, 26160, Note_on_c, 0, 65, 52
1, 26400, Note_on_c, 0, 65, 0
1, 26400, Note_on_c, 0, 74, 0
1, 26400, Note_on_c, 0, 72, 71
1, 26400, Note_on_c, 0, 59, 46
1, 26640, Note_on_c, 0, 59, 0
1, 26640, Note_on_c, 0, 72, 0
1, 26640, Note_on_c, 0, 71, 71
1, 26640, Note_on_c, 0, 65, 50
1, 26880, Tempo, 306623
1, 26880, Note_on_c, 0, 65, 0
1, 26880, Note_on_c, 0, 71, 0
1, 26880, Note_on_c, 0, 72, 73
1, 26880, Note_on_c, 0, 56, 54
1, 27120, Tempo, 297295
1, 27120, Note_on_c, 0, 56, 0
1, 27120, Note_on_c, 0, 72, 0
1, 27120, Note_on_c, 0, 63, 47
1, 27360, Tempo, 306905
1, 27360, Note_on_c, 0, 63, 0
1, 27360, Note_on_c, 0, 72, 67
1, 27360, Note_on_c, 0, 84, 79
1, 27360, Note_on_c, 0, 60, 47
1, 27600, Note_on_c, 0, 60, 0
1, 27600, Note_on_c, 0, 63, 47
1, 27840, Note_on_c, 0, 63, 0
1, 27840, Note_on_c, 0, 55, 62
1, 28080, Note_on_c, 0, 55, 0
1, 28080, Note_on_c, 0, 64, 54
1, 28320, Note_on_c, 0, 64, 0
1, 28320, Note_on_c, 0, 84, 0
1, 28320, Note_on_c, 0, 72, 0
1, 28320, Note_on_c, 0, 82, 80
1, 28320, Note_on_c, 0, 60, 55
1, 28560, Note_on_c, 0, 60, 0
1, 28560, Note_on_c, 0, 64, 55
1, 28800, Note_on_c, 0, 64, 0
1, 28800, Note_on_c, 0, 53, 64
1, 29040, Note_on_c, 0, 53, 0
1, 29040, Note_on_c, 0, 82, 0
1, 29040, Note_on_c, 0, 80, 81
1, 29040, Note_on_c, 0, 65, 57
1, 29280, Tempo, 289869
1, 29280, Note_on_c, 0, 65, 0
1, 29280, Note_on_c, 0, 80, 0
1, 29280, Note_on_c, 0, 79, 82
1, 29280, Note_on_c, 0, 60, 58
1, 29520, Note_on_c, 0, 60, 0
1, 29520, Note_on_c, 0, 79, 0
1, 29520, Note_on_c, 0, 77, 81
1, 29520, Note_on_c, 0, 65, 57
1, 29760, Note_on_c, 0, 65, 0
1, 29760, Note_on_c, 0, 77, 0
1, 29760, Note_on_c, 0, 75, 79
1, 29760, Note_on_c, 0, 55, 63
1, 30000, Note_on_c, 0, 55, 0
1, 30000, Note_on_c, 0, 75, 0
1, 30000, Note_on_c, 0, 74, 79
1, 30000, Note_on_c, 0, 67, 57
1, 30240, Note_on_c, 0, 67, 0
1, 30240, Note_on_c, 0, 74, 0
1, 30240, Note_on_c, 0, 72, 79
1, 30240, Note_on_c, 0, 55, 57
1, 30480, Note_on_c, 0, 55, 0
1, 30480, Note_on_c, 0, 72, 0
1, 30480, Note_on_c, 0, 71, 78
1, 30480, Note_on_c, 0, 67, 56
1, 30720, Tempo, 300375
1, 30720, Note_on_c, 0, 67, 0
1, 30720, Note_on_c, 0, 71, 0
1, 30720, Note_on_c, 0, 72, 89
1, 30720, Note_on_c, 0, 60, 68
1, 30960, Note_on_c, 0, 60, 0
1, 30960, Note_on_c, 0, 72, 0
1, 31200, Tempo, 305033
1, 31200, Note_on_c, 0, 74, 81
1, 31200, Note_on_c, 0, 55, 62
1, 31200, Note_on_c, 0, 59, 62
1, 31280, Note_on_c, 0, 74, 0
1, 31280, Note_on_c, 0, 75, 81
1, 31360, Note_on_c, 0, 75, 0
1, 31360, Note_on_c, 0, 74, 81
1, 31440, Note_on_c, 0, 74, 0
1, 31440, Note_on_c, 0, 59, 0
1, 31440, Note_on_c, 0, 55, 0
1, 31440, Note_on_c, 0, 75, 81
1, 31500, Note_on_c, 0, 75, 0
1, 31500, Note_on_c, 0, 74, 81
1, 31560, Note_on_c, 0, 74, 0
1, 31560, Note_on_c, 0, 72, 80
1, 31620, Note_on_c, 0, 72, 0
1, 31620, Note_on_c, 0, 74, 80
1, 31680, Tempo, 307409
1, 31680, Note_on_c, 0, 74, 0
1, 31680, Note_on_c, 0, 75, 92
1, 31680, Note_on_c, 0, 48, 62
1, 31680, Note_on_c, 0, 60, 62
1, 31920, Note_on_c, 0, 60, 0
1, 31920, Note_on_c, 0, 48, 0
1, 31920, Note_on_c, 0, 75, 0
1, 32160, Tempo, 319064
1, 32160, Note_on_c, 0, 71, 92
1, 32160, Note_on_c, 0, 74, 92
1, 32160, Note_on_c, 0, 83, 92
1, 32160, Note_on_c, 0, 43, 62
1, 32160, Note_on_c, 0, 55, 62
1, 32400, Note_on_c, 0, 55, 0
1, 32400, Note_on_c, 0, 83, 0
1, 32400, Note_on_c, 0, 71, 0
1, 32400, Note_on_c, 0, 74, 0
1, 32400, Note_on_c, 0, 43, 0
1, 32640, Note_on_c, 0, 72, 92
1, 32640, Note_on_c, 0, 75, 92
1, 32640, Note_on_c, 0, 84, 92
1, 32640, Note_on_c, 0, 36, 69
1, 32640, Note_on_c, 0, 48, 69
1, 32880, Note_on_c, 0, 48, 0
1, 32880, Note_on_c, 0, 84, 0
1, 32880, Note_on_c, 0, 72, 0
1, 32880, Note_on_c, 0, 75, 0
1, 32880, Note_on_c, 0, 36, 0
1, 34560, Tempo, 293643
1, 34560, Note_on_c, 0, 55, 73
1, 34560, Note_on_c, 0, 60, 73
1, 34560, Note_on_c, 0, 64, 86
1, 34560, Note_on_c, 0, 34, 58
1, 34560, Note_on_c, 0, 46, 69
1, 36480, Tempo, 295116
1, 36480, Note_on_c, 0, 46, 0
1, 36480, Note_on_c, 0, 64, 0
1, 36480, Note_on_c, 0, 55, 0
1, 36480, Note_on_c, 0, 60, 0
1, 36480, Note_on_c, 0, 34, 0
1, 36480, Note_on_c, 0, 65, 50
1, 36480, Note_on_c, 0, 32, 57
1, 36480, Note_on_c, 0, 44, 68
1, 36720, Tempo, 294377
1, 36720, Note_on_c, 0, 65, 0
1, 36720, Note_on_c, 0, 72, 51
1, 36960, Tempo, 293643
1, 36960, Note_on_c, 0, 72, 0
1, 36960, Note_on_c, 0, 44, 0
1, 36960, Note_on_c, 0, 32, 0
1, 36960, Note_on_c, 0, 68, 53
1, 37200, Tempo, 292912
1, 37200, Note_on_c, 0, 68, 0
1, 37200, Note_on_c, 0, 77, 54
1, 37440, Tempo, 292198
1, 37440, Note_on_c, 0, 77, 0
1, 37440, Note_on_c, 0, 72, 55
1, 37680, Tempo, 291474
1, 37680, Note_on_c, 0, 72, 0
1, 37680, Note_on_c, 0, 80, 56
1, 37920, Tempo, 290768
1, 37920, Note_on_c, 0, 80, 0
1, 37920, Note_on_c, 0, 77, 57
1, 38160, Tempo, 290051
1, 38160, Note_on_c, 0, 77, 0
1, 38160, Note_on_c, 0, 84, 59
1, 38360, Tempo, 289324
1, 38400, Note_on_c, 0, 84, 0
1, 38400, Note_on_c, 0, 82, 59
1, 38640, Note_on_c, 0, 82, 0
1, 38640, Note_on_c, 0, 79, 59
1, 38880, Note_on_c, 0, 79, 0
1, 38880, Note_on_c, 0, 76, 58
1, 38880, Note_on_c, 0, 52, 46
1, 38880, Note_on_c, 0, 60, 55
1, 39120, Note_on_c, 0, 76, 0
1, 39120, Note_on_c, 0, 72, 57
1, 39320, Tempo, 289324
1, 39360, Tempo, 300375
1, 39360, Note_on_c, 0, 72, 0
1, 39360, Note_on_c, 0, 60, 0
1, 39360, Note_on_c, 0, 52, 0
1, 39360, Note_on_c, 0, 70, 56
1, 39360, Note_on_c, 0, 52, 46
1, 39360, Note_on_c, 0, 60, 55
1, 39600, Note_on_c, 0, 70, 0
1, 39600, Note_on_c, 0, 71, 55
1, 39840, Tempo, 305033
1, 39840, Note_on_c, 0, 71, 0
1, 39840, Note_on_c, 0, 60, 0
1, 39840, Note_on_c, 0, 52, 0
1, 39840, Note_on_c, 0, 72, 55
1, 39840, Note_on_c, 0, 52, 46
1, 39840, Note_on_c, 0, 60, 55
1, 40080, Tempo, 315623
1, 40080, Note_on_c, 0, 72, 0
1, 40080, Note_on_c, 0, 67, 54
1, 40320, Tempo, 316472
1, 40320, Note_on_c, 0, 67, 0
1, 40320, Note_on_c, 0, 60, 0
1, 40320, Note_on_c, 0, 52, 0
1, 40320, Note_on_c, 0, 70, 60
1, 40320, Note_on_c, 0, 53, 46
1, 40320, Note_on_c, 0, 60, 55
1, 41280, Note_on_c, 0, 70, 0
1, 41280, Note_on_c, 0, 68, 56
1, 41760, Note_on_c, 0, 68, 0
1, 41760, Note_on_c, 0, 60, 0
1, 41760, Note_on_c, 0, 53, 0
1, 42240, Tempo, 293643
1, 42240, Note_on_c, 0, 53, 73
1, 42240, Note_on_c, 0, 58, 73
1, 42240, Note_on_c, 0, 62, 86
1, 42240, Note_on_c, 0, 32, 58
1, 42240, Note_on_c, 0, 44, 69
1, 44160, Tempo, 295116
1, 44160, Note_on_c, 0, 44, 0
1, 44160, Note_on_c, 0, 62, 0
1, 44160, Note_on_c, 0, 53, 0
1, 44160, Note_on_c, 0, 58, 0
1, 44160, Note_on_c, 0, 32, 0
1, 44160, Note_on_c, 0, 63, 50
1, 44160, Note_on_c, 0, 31, 57
1, 44160, Note_on_c, 0, 43, 68
1, 44400, Tempo, 294377
1, 44400, Note_on_c, 0, 63, 0
1, 44400, Note_on_c, 0, 70, 51
1, 44640, Tempo, 293643
1, 44640, Note_on_c, 0, 70, 0
1, 44640, Note_on_c, 0, 43, 0
1, 44640, Note_on_c, 0, 31, 0
1, 44640, Note_on_c, 0, 67, 53
1, 44880, Tempo, 292912
1, 44880, Note_on_c, 0, 67, 0
1, 44880, Note_on_c, 0, 75, 54
1, 45120, Tempo, 292198
1, 45120, Note_on_c, 0, 75, 0
1, 45120, Note_on_c, 0, 70, 55
1, 45360, Tempo, 291474
1, 45360, Note_on_c, 0, 70, 0
1, 45360, Note_on_c, 0, 79, 56
1, 45600, Tempo, 290768
1, 45600, Note_on_c, 0, 79, 0
1, 45600, Note_on_c, 0, 75, 57
1, 45840, Tempo, 290051
1, 45840, Note_on_c, 0, 75, 0
1, 45840, Note_on_c, 0, 82, 59
1, 46040, Tempo, 289324
1, 46080, Note_on_c, 0, 82, 0
1, 46080, Note_on_c, 0, 80, 59
1, 46320, Note_on_c, 0, 80, 0
1, 46320, Note_on_c, 0, 79, 59
1, 46560, Note_on_c, 0, 79, 0
1, 46560, Note_on_c, 0, 77, 58
1, 46560, Note_on_c, 0, 50, 46
1, 46560, Note_on_c, 0, 58, 55
1, 46800, Note_on_c, 0, 77, 0
1, 46800, Note_on_c, 0, 75, 57
1, 47000, Tempo, 289324
1, 47040, Tempo, 300375
1, 47040, Note_on_c, 0, 75, 0
1, 47040, Note_on_c, 0, 58, 0
1, 47040, Note_on_c, 0, 50, 0
1, 47040, Note_on_c, 0, 74, 56
1, 47040, Note_on_c, 0, 50, 46
1, 47040, Note_on_c, 0, 58, 55
1, 47280, Note_on_c, 0, 74, 0
1, 47280, Note_on_c, 0, 72, 55
1, 47520, Tempo, 305033
1, 47520, Note_on_c, 0, 72, 0
1, 47520, Note_on_c, 0, 58, 0
1, 47520, Note_on_c, 0, 50, 0
1, 47520, Note_on_c, 0, 70, 55
1, 47520, Note_on_c, 0, 50, 46
1, 47520, Note_on_c, 0, 58, 55
1, 47760, Tempo, 315623
1, 47760, Note_on_c, 0, 70, 0
1, 47760, Note_on_c, 0, 68, 54
1, 48000, Tempo, 316472
1, 48000, Note_on_c, 0, 68, 0
1, 48000, Note_on_c, 0, 58, 0
1, 48000, Note_on_c, 0, 50, 0
1, 48000, Note_on_c, 0, 67, 60
1, 48000, Note_on_c, 0, 51, 46
1, 48240, Note_on_c, 0, 51, 0
1, 48240, Note_on_c, 0, 67, 0
1, 48240, Note_on_c, 0, 58, 31
1, 48480, Tempo, 298107
1, 48480, Note_on_c, 0, 58, 0
1, 48480, Note_on_c, 0, 70, 60
1, 48480, Note_on_c, 0, 63, 31
1, 48720, Note_on_c, 0, 63, 0
1, 48720, Note_on_c, 0, 58, 31
1, 48960, Note_on_c, 0, 58, 0
1, 48960, Note_on_c, 0, 56, 42
1, 49200, Note_on_c, 0, 56, 0
1, 49200, Note_on_c, 0, 58, 30
1, 49440, Note_on_c, 0, 58, 0
1, 49440, Note_on_c, 0, 70, 0
1, 49440, Note_on_c, 0, 70, 56
1, 49440, Note_on_c, 0, 62, 30
1, 49680, Note_on_c, 0, 62, 0
1, 49680, Note_on_c, 0, 58, 30
1, 49920, Tempo, 298849
1, 49920, Note_on_c, 0, 58, 0
1, 49920, Note_on_c, 0, 55, 42
1, 50160, Note_on_c, 0, 55, 0
1, 50160, Note_on_c, 0, 70, 0
1, 50160, Note_on_c, 0, 72, 54
1, 50160, Note_on_c, 0, 58, 33
1, 50360, Tempo, 296604
1, 50400, Note_on_c, 0, 58, 0
1, 50400, Note_on_c, 0, 72, 0
1, 50400, Note_on_c, 0, 74, 55
1, 50400, Note_on_c, 0, 63, 33
1, 50560, Tempo, 295858
1, 50640, Note_on_c, 0, 63, 0
1, 50640, Note_on_c, 0, 74, 0
1, 50640, Note_on_c, 0, 75, 57
1, 50640, Note_on_c, 0, 58, 34
1, 50760, Tempo, 295116
1, 50880, Note_on_c, 0, 58, 0
1, 50880, Note_on_c, 0, 75, 0
1, 50880, Note_on_c, 0, 77, 58
1, 50880, Note_on_c, 0, 50, 41
1, 50960, Tempo, 294377
1, 51120, Note_on_c, 0, 50, 0
1, 51120, Note_on_c, 0, 77, 0
1, 51120, Note_on_c, 0, 79, 60
1, 51120, Note_on_c, 0, 58, 33
1, 51360, Note_on_c, 0, 58, 0
1, 51360, Note_on_c, 0, 79, 0
1, 51360, Note_on_c, 0, 80, 61
1, 51360, Note_on_c, 0, 62, 33
1, 51600, Tempo, 305826
1, 51600, Note_on_c, 0, 62, 0
1, 51600, Note_on_c, 0, 80, 0
1, 51600, Note_on_c, 0, 77, 58
1, 51600, Note_on_c, 0, 58, 33
1, 51840, Tempo, 296604
1, 51840, Note_on_c, 0, 58, 0
1, 51840, Note_on_c, 0, 77, 0
1, 51840, Note_on_c, 0, 80, 61
1, 51840, Note_on_c, 0, 51, 40
1, 52080, Note_on_c, 0, 51, 0
1, 52080, Note_on_c, 0, 80, 0
1, 52080, Note_on_c, 0, 79, 60
1, 52080, Note_on_c, 0, 58, 35
1, 52320, Note_on_c, 0, 58, 0
1, 52320, Note_on_c, 0, 79, 0
1, 52320, Note_on_c, 0, 77, 59
1, 52320, Note_on_c, 0, 63, 35
1, 52560, Tempo, 307409
1, 52560, Note_on_c, 0, 63, 0
1, 52560, Note_on_c, 0, 77, 0
1, 52560, Note_on_c, 0, 75, 58
1, 52560, Note_on_c, 0, 58, 35
1, 52780, Note_on_c, 0, 75, 0
1, 52800, Tempo, 301129
1, 52800, Note_on_c, 0, 58, 0
1, 52800, Note_on_c, 0, 75, 60
1, 52800, Note_on_c, 0, 56, 40
1, 53040, Note_on_c, 0, 56, 0
1, 53040, Note_on_c, 0, 75, 0
1, 53040, Note_on_c, 0, 74, 58
1, 53040, Note_on_c, 0, 58, 35
1, 53280, Note_on_c, 0, 58, 0
1, 53280, Note_on_c, 0, 74, 0
1, 53280, Note_on_c, 0, 72, 58
1, 53280, Note_on_c, 0, 65, 36
1, 53520, Note_on_c, 0, 65, 0
1, 53520, Note_on_c, 0, 72, 0
1, 53520, Note_on_c, 0, 74, 58
1, 53520, Note_on_c, 0, 58, 36
1, 53760, Tempo, 298107
1, 53760, Note_on_c, 0, 58, 0
1, 53760, Note_on_c, 0, 74, 0
1, 53760, Note_on_c, 0, 77, 63
1, 53760, Note_on_c, 0, 55, 40
1, 54000, Note_on_c, 0, 55, 0
1, 54000, Note_on_c, 0, 77, 0
1, 54000, Note_on_c, 0, 75, 57
1, 54000, Note_on_c, 0, 58, 35
1, 54240, Note_on_c, 0, 58, 0
1, 54240, Note_on_c, 0, 75, 0
1, 54240, Note_on_c, 0, 74, 57
1, 54240, Note_on_c, 0, 63, 36
1, 54480, Note_on_c, 0, 63, 0
1, 54480, Note_on_c, 0, 74, 0
1, 54480, Note_on_c, 0, 72, 57
1, 54480, Note_on_c, 0, 58, 36
1, 54720, Note_on_c, 0, 58, 0
1, 54720, Note_on_c, 0, 72, 0
1, 54720, Note_on_c, 0, 68, 60
1, 54720, Note_on_c, 0, 70, 60
1, 54720, Note_on_c, 0, 50, 40
1, 54960, Note_on_c, 0, 50, 0
1, 54960, Note_on_c, 0, 58, 34
1, 55152, Note_on_c, 0, 70, 0
1, 55152, Note_on_c, 0, 68, 0
1, 55200, Note_on_c, 0, 58, 0
1, 55200, Note_on_c, 0, 68, 60
1, 55200, Note_on_c, 0, 70, 60
1, 55200, Note_on_c, 0, 50, 34
1, 55440, Note_on_c, 0, 50, 0
1, 55440, Note_on_c, 0, 58, 34
1, 55632, Note_on_c, 0, 70, 0
1, 55632, Note_on_c, 0, 68, 0
1, 55680, Tempo, 293643
1, 55680, Note_on_c, 0, 58, 0
1, 55680, Note_on_c, 0, 68, 60
1, 55680, Note_on_c, 0, 70, 60
1, 55680, Note_on_c, 0, 51, 41
1, 55720, Tempo, 296604
1, 55920, Note_on_c, 0, 51, 0
1, 55920, Note_on_c, 0, 68, 0
1, 55920, Note_on_c, 0, 67, 53
1, 55920, Note_on_c, 0, 58, 34
1, 56000, Tempo, 295858
1, 56160, Note_on_c, 0, 58, 0
1, 56160, Note_on_c, 0, 67, 0
1, 56160, Note_on_c, 0, 65, 53
1, 56160, Note_on_c, 0, 51, 34
1, 56280, Tempo, 295116
1, 56400, Note_on_c, 0, 51, 0
1, 56400, Note_on_c, 0, 65, 0
1, 56400, Note_on_c, 0, 63, 53
1, 56400, Note_on_c, 0, 58, 34
1, 56520, Tempo, 294377
1, 56620, Note_on_c, 0, 63, 0
1, 56640, Note_on_c, 0, 58, 0
1, 56640, Note_on_c, 0, 63, 57
1, 56640, Note_on_c, 0, 56, 40
1, 56800, Tempo, 293643
1, 56880, Note_on_c, 0, 56, 0
1, 56880, Note_on_c, 0, 63, 0
1, 56880, Note_on_c, 0, 62, 52
1, 56880, Note_on_c, 0, 58, 34
1, 57040, Tempo, 292912
1, 57120, Note_on_c, 0, 58, 0
1, 57120, Note_on_c, 0, 62, 0
1, 57120, Note_on_c, 0, 60, 52
1, 57120, Note_on_c, 0, 56, 34
1, 57320, Tempo, 292198
1, 57360, Note_on_c, 0, 56, 0
1, 57360, Note_on_c, 0, 60, 0
1, 57360, Note_on_c, 0, 62, 52
1, 57360, Note_on_c, 0, 58, 34
1, 57560, Tempo, 291474
1, 57600, Note_on_c, 0, 58, 0
1, 57600, Note_on_c, 0, 62, 0
1, 57600, Note_on_c, 0, 63, 55
1, 57600, Note_on_c, 0, 54, 40
1, 57840, Note_on_c, 0, 54, 0
1, 57840, Note_on_c, 0, 63, 0
1, 57840, Note_on_c, 0, 70, 0
1, 57840, Note_on_c, 0, 72, 56
1, 57840, Note_on_c, 0, 58, 36
1, 58080, Note_on_c, 0, 58, 0
1, 58080, Note_on_c, 0, 72, 0
1, 58080, Note_on_c, 0, 74, 58
1, 58080, Note_on_c, 0, 54, 37
1, 58320, Note_on_c, 0, 54, 0
1, 58320, Note_on_c, 0, 74, 0
1, 58320, Note_on_c, 0, 75, 59
1, 58320, Note_on_c, 0, 58, 37
1, 58560, Note_on_c, 0, 58, 0
1, 58560, Note_on_c, 0, 75, 0
1, 58560, Note_on_c, 0, 77, 61
1, 58560, Note_on_c, 0, 50, 41
1, 58800, Note_on_c, 0, 50, 0
1, 58800, Note_on_c, 0, 77, 0
1, 58800, Note_on_c, 0, 78, 63
1, 58800, Note_on_c, 0, 58, 36
1, 59040, Note_on_c, 0, 58, 0
1, 59040, Note_on_c, 0, 78, 0
1, 59040, Note_on_c, 0, 80, 64
1, 59040, Note_on_c, 0, 50, 36
1, 59280, Note_on_c, 0, 50, 0
1, 59280, Note_on_c, 0, 80, 0
1, 59280, Note_on_c, 0, 77, 62
1, 59280, Note_on_c, 0, 58, 36
1, 59480, Tempo, 290768
1, 59520, Note_on_c, 0, 58, 0
1, 59520, Note_on_c, 0, 77, 0
1, 59520, Note_on_c, 0, 78, 65
1, 59520, Note_on_c, 0, 51, 39
1, 59600, Control_c, 0, 64, 127
1, 59680, Tempo, 290051
1, 59760, Note_on_c, 0, 51, 0
1, 59760, Note_on_c, 0, 58, 39
1, 59880, Tempo, 289324
1, 60000, Note_on_c, 0, 58, 0
1, 60000, Note_on_c, 0, 78, 0
1, 60000, Note_on_c, 0, 82, 72
1, 60000, Note_on_c, 0, 54, 41
1, 60080, Tempo, 288628
1, 60240, Note_on_c, 0, 54, 0
1, 60240, Note_on_c, 0, 58, 41
1, 60280, Tempo, 287908
1, 60440, Tempo, 287219
1, 60480, Note_on_c, 0, 58, 0
1, 60480, Note_on_c, 0, 46, 42
1, 60491, Control_c, 0, 64, 0
1, 60652, Control_c, 0, 64, 127
1, 60720, Note_on_c, 0, 46, 0
1, 60720, Note_on_c, 0, 58, 43
1, 60950, Note_on_c, 0, 82, 0
1, 60960, Note_on_c, 0, 58, 0
1, 60960, Note_on_c, 0, 82, 74
1, 60960, Note_on_c, 0, 50, 44
1, 61200, Note_on_c, 0, 50, 0
1, 61200, Note_on_c, 0, 58, 45
1, 61440, Tempo, 295116
1, 61440, Note_on_c, 0, 58, 0
1, 61440, Note_on_c, 0, 47, 45
1, 61454, Control_c, 0, 64, 0
1, 61577, Control_c, 0, 64, 127
1, 61680, Note_on_c, 0, 47, 0
1, 61680, Note_on_c, 0, 58, 47
1, 61920, Tempo, 287219
1, 61920, Note_on_c, 0, 58, 0
1, 61920, Note_on_c, 0, 82, 0
1, 61920, Note_on_c, 0, 87, 91
1, 61920, Note_on_c, 0, 51, 51
1, 62160, Note_on_c, 0, 51, 0
1, 62160, Note_on_c, 0, 58, 54
1, 62360, Tempo, 287219
1, 62400, Note_on_c, 0, 58, 0
1, 62400, Note_on_c, 0, 47, 58
1, 62408, Control_c, 0, 64, 0
1, 62440, Tempo, 287908
1, 62480, Tempo, 288628
1, 62560, Tempo, 289324
1, 62560, Control_c, 0, 64, 127
1, 62600, Tempo, 290051
1, 62640, Tempo, 290768
1, 62640, Note_on_c, 0, 47, 0
1, 62640, Note_on_c, 0, 57, 49
1, 62720, Tempo, 291474
1, 62760, Tempo, 292198
1, 62800, Tempo, 292912
1, 62880, Tempo, 293643
1, 62880, Note_on_c, 0, 57, 0
1, 62880, Note_on_c, 0, 87, 0
1, 62880, Note_on_c, 0, 81, 78
1, 62880, Note_on_c, 0, 51, 49
1, 62920, Tempo, 294377
1, 62960, Tempo, 295116
1, 63040, Tempo, 295858
1, 63080, Tempo, 296604
1, 63120, Tempo, 297339
1, 63120, Note_on_c, 0, 51, 0
1, 63120, Note_on_c, 0, 57, 49
1, 63200, Tempo, 298107
1, 63240, Tempo, 298849
1, 63280, Tempo, 299625
1, 63360, Tempo, 303459
1, 63360, Note_on_c, 0, 57, 0
1, 63360, Note_on_c, 0, 81, 0
1, 63360, Note_on_c, 0, 82, 60
1, 63360, Note_on_c, 0, 46, 60
1, 63368, Control_c, 0, 64, 0
1, 63840, Tempo, 287219
1, 63840, Note_on_c, 0, 46, 0
1, 63840, Note_on_c, 0, 58, 46
1, 63840, Note_on_c, 0, 62, 46
1, 63840, Note_on_c, 0, 65, 55
1, 64080, Note_on_c, 0, 65, 0
1, 64080, Note_on_c, 0, 62, 0
1, 64080, Note_on_c, 0, 58, 0
1, 64320, Tempo, 304244
1, 64320, Note_on_c, 0, 58, 59
1, 64320, Note_on_c, 0, 66, 70
1, 64320, Note_on_c, 0, 63, 59
1, 64480, Tempo, 287219
1, 64480, Note_on_c, 0, 82, 0
1, 64480, Note_on_c, 0, 81, 49
1, 64640, Note_on_c, 0, 81, 0
1, 64640, Note_on_c, 0, 82, 51
1, 64800, Note_on_c, 0, 82, 0
1, 64800, Note_on_c, 0, 84, 53
1, 64960, Note_on_c, 0, 84, 0
1, 64960, Note_on_c, 0, 82, 50
1, 65120, Note_on_c, 0, 82, 0
1, 65120, Note_on_c, 0, 81, 50
1, 65280, Tempo, 301917
1, 65280, Note_on_c, 0, 81, 0
1, 65280, Note_on_c, 0, 63, 0
1, 65280, Note_on_c, 0, 66, 0
1, 65280, Note_on_c, 0, 58, 0
1, 65280, Note_on_c, 0, 82, 50
1, 65760, Tempo, 287219
1, 65760, Note_on_c, 0, 58, 46
1, 65760, Note_on_c, 0, 62, 46
1, 65760, Note_on_c, 0, 65, 55
1, 66000, Note_on_c, 0, 65, 0
1, 66000, Note_on_c, 0, 62, 0
1, 66000, Note_on_c, 0, 58, 0
1, 66240, Tempo, 307409
1, 66240, Note_on_c, 0, 58, 59
1, 66240, Note_on_c, 0, 66, 70
1, 66240, Note_on_c, 0, 63, 59
1, 66400, Tempo, 287219
1, 66400, Note_on_c, 0, 82, 0
1, 66400, Note_on_c, 0, 81, 49
1, 66560, Note_on_c, 0, 81, 0
1, 66560, Note_on_c, 0, 82, 51
1, 66720, Note_on_c, 0, 82, 0
1, 66720, Note_on_c, 0, 84, 53
1, 66880, Note_on_c, 0, 84, 0
1, 66880, Note_on_c, 0, 82, 50
1, 67040, Note_on_c, 0, 82, 0
1, 67040, Note_on_c, 0, 81, 50
1, 67200, Tempo, 321664
1, 67200, Note_on_c, 0, 81, 0
1, 67200, Note_on_c, 0, 63, 0
1, 67200, Note_on_c, 0, 66, 0
1, 67200, Note_on_c, 0, 58, 0
1, 67200, Note_on_c, 0, 58, 46
1, 67200, Note_on_c, 0, 62, 46
1, 67200, Note_on_c, 0, 65, 55
1, 67360, Tempo, 287219
1, 67360, Note_on_c, 0, 82, 54
1, 67520, Note_on_c, 0, 82, 0
1, 67520, Note_on_c, 0, 84, 56
1, 67680, Note_on_c, 0, 84, 0
1, 67680, Note_on_c, 0, 65, 0
1, 67680, Note_on_c, 0, 62, 0
1, 67680, Note_on_c, 0, 58, 0
1, 67680, Note_on_c, 0, 86, 58
1, 67840, Note_on_c, 0, 86, 0
1, 67840, Note_on_c, 0, 84, 55
1, 68000, Note_on_c, 0, 84, 0
1, 68000, Note_on_c, 0, 82, 52
1, 68160, Tempo, 321664
1, 68160, Note_on_c, 0, 82, 0
1, 68160, Note_on_c, 0, 58, 46
1, 68160, Note_on_c, 0, 65, 46
1, 68160, Note_on_c, 0, 68, 55
1, 68320, Tempo, 287219
1, 68320, Note_on_c, 0, 86, 54
1, 68480, Note_on_c, 0, 86, 0
1, 68480, Note_on_c, 0, 87, 57
1, 68640, Note_on_c, 0, 87, 0
1, 68640, Note_on_c, 0, 68, 0
1, 68640, Note_on_c, 0, 65, 0
1, 68640, Note_on_c, 0, 58, 0
1, 68640, Note_on_c, 0, 89, 59
1, 68800, Note_on_c, 0, 89, 0
1, 68800, Note_on_c, 0, 87, 57
1, 68960, Note_on_c, 0, 87, 0
1, 68960, Note_on_c, 0, 86, 55
1, 69120, Note_on_c, 0, 86, 0
1, 69120, Note_on_c, 0, 89, 63
1, 69120, Note_on_c, 0, 58, 46
1, 69120, Note_on_c, 0, 62, 46
1, 69120, Note_on_c, 0, 65, 46
1, 69120, Note_on_c, 0, 68, 55
1, 69280, Note_on_c, 0, 89, 0
1, 69280, Note_on_c, 0, 87, 63
1, 69440, Note_on_c, 0, 87, 0
1, 69440, Note_on_c, 0, 86, 62
1, 69600, Note_on_c, 0, 86, 0
1, 69600, Note_on_c, 0, 65, 0
1, 69600, Note_on_c, 0, 58, 0
1, 69600, Note_on_c, 0, 62, 0
1, 69600, Note_on_c, 0, 68, 0
1, 69600, Note_on_c, 0, 84, 61
1, 69760, Note_on_c, 0, 84, 0
1, 69760, Note_on_c, 0, 82, 60
1, 69920, Note_on_c, 0, 82, 0
1, 69920, Note_on_c, 0, 80, 59
1, 70040, Tempo, 286519
1, 70080, Note_on_c, 0, 80, 0
1, 70080, Note_on_c, 0, 79, 59
1, 70120, Tempo, 287219
1, 70160, Tempo, 287908
1, 70200, Tempo, 288628
1, 70240, Note_on_c, 0, 79, 0
1, 70240, Note_on_c, 0, 77, 58
1, 70280, Tempo, 289324
1, 70320, Tempo, 290051
1, 70360, Tempo, 290768
1, 70400, Note_on_c, 0, 77, 0
1, 70400, Note_on_c, 0, 75, 57
1, 70440, Tempo, 291474
1, 70480, Tempo, 292198
1, 70520, Tempo, 292912
1, 70560, Note_on_c, 0, 75, 0
1, 70560, Note_on_c, 0, 74, 56
1, 70600, Tempo, 293643
1, 70640, Tempo, 294377
1, 70680, Tempo, 295116
1, 70680, Note_on_c, 0, 74, 0
1, 70680, Note_on_c, 0, 72, 56
1, 70760, Tempo, 295858
1, 70800, Tempo, 296604
1, 70800, Note_on_c, 0, 72, 0
1, 70800, Note_on_c, 0, 70, 55
1, 70840, Tempo, 297339
1, 70920, Tempo, 298107
1, 70920, Note_on_c, 0, 70, 0
1, 70920, Note_on_c, 0, 68, 54
1, 70960, Tempo, 298849
1, 71000, Tempo, 291474
1, 71040, Note_on_c, 0, 68, 0
1, 71040, Note_on_c, 0, 67, 59
1, 71040, Note_on_c, 0, 51, 55
1, 71160, Tempo, 290768
1, 71200, Note_on_c, 0, 63, 55
1, 71210, Note_on_c, 0, 67, 0
1, 71320, Tempo, 290051
1, 71360, Note_on_c, 0, 65, 55
1, 71370, Note_on_c, 0, 63, 0
1, 71440, Tempo, 289324
1, 71520, Note_on_c, 0, 51, 0
1, 71520, Note_on_c, 0, 67, 59
1, 71530, Note_on_c, 0, 65, 0
1, 71600, Tempo, 288628
1, 71680, Note_on_c, 0, 65, 55
1, 71690, Note_on_c, 0, 67, 0
1, 71720, Tempo, 287908
1, 71840, Note_on_c, 0, 63, 55
1, 71850, Note_on_c, 0, 65, 0
1, 71880, Tempo, 287219
1, 72000, Tempo, 286519
1, 72000, Note_on_c, 0, 68, 59
1, 72010, Note_on_c, 0, 63, 0
1, 72080, Tempo, 285823
1, 72160, Note_on_c, 0, 58, 45
1, 72240, Tempo, 286519
1, 72320, Note_on_c, 0, 60, 48
1, 72330, Note_on_c, 0, 58, 0
1, 72400, Tempo, 287219
1, 72480, Note_on_c, 0, 62, 50
1, 72490, Note_on_c, 0, 60, 0
1, 72560, Tempo, 287908
1, 72640, Note_on_c, 0, 60, 48
1, 72650, Note_on_c, 0, 62, 0
1, 72720, Tempo, 288628
1, 72800, Note_on_c, 0, 58, 45
1, 72810, Note_on_c, 0, 60, 0
1, 72880, Tempo, 289324
1, 72960, Tempo, 290051
1, 72960, Note_on_c, 0, 68, 0
1, 72960, Note_on_c, 0, 67, 59
1, 72960, Note_on_c, 0, 63, 55
1, 72970, Note_on_c, 0, 58, 0
1, 73120, Note_on_c, 0, 75, 55
1, 73130, Note_on_c, 0, 67, 0
1, 73160, Tempo, 289324
1, 73280, Note_on_c, 0, 77, 55
1, 73290, Note_on_c, 0, 75, 0
1, 73360, Tempo, 288628
1, 73440, Note_on_c, 0, 63, 0
1, 73440, Note_on_c, 0, 79, 59
1, 73450, Note_on_c, 0, 77, 0
1, 73560, Tempo, 287908
1, 73600, Note_on_c, 0, 77, 55
1, 73610, Note_on_c, 0, 79, 0
1, 73760, Tempo, 287219
1, 73760, Note_on_c, 0, 75, 55
1, 73770, Note_on_c, 0, 77, 0
1, 73920, Tempo, 286519
1, 73920, Note_on_c, 0, 80, 59
1, 73930, Note_on_c, 0, 75, 0
1, 74080, Tempo, 287219
1, 74080, Note_on_c, 0, 58, 43
1, 74240, Tempo, 287908
1, 74240, Note_on_c, 0, 60, 47
1, 74250, Note_on_c, 0, 58, 0
1, 74400, Tempo, 288628
1, 74400, Note_on_c, 0, 62, 50
1, 74410, Note_on_c, 0, 60, 0
1, 74560, Tempo, 289324
1, 74560, Note_on_c, 0, 60, 48
1, 74570, Note_on_c, 0, 62, 0
1, 74720, Tempo, 290051
1, 74720, Note_on_c, 0, 58, 45
1, 74730, Note_on_c, 0, 60, 0
1, 74840, Tempo, 289324
1, 74880, Note_on_c, 0, 80, 0
1, 74880, Note_on_c, 0, 79, 59
1, 74880, Note_on_c, 0, 63, 55
1, 74890, Note_on_c, 0, 58, 0
1, 75040, Note_on_c, 0, 79, 0
1, 75040, Note_on_c, 0, 75, 59
1, 75080, Tempo, 288628
1, 75200, Note_on_c, 0, 75, 0
1, 75200, Note_on_c, 0, 77, 59
1, 75320, Tempo, 287908
1, 75360, Note_on_c, 0, 77, 0
1, 75360, Note_on_c, 0, 63, 0
1, 75360, Note_on_c, 0, 79, 64
1, 75520, Note_on_c, 0, 79, 0
1, 75520, Note_on_c, 0, 77, 57
1, 75560, Tempo, 287219
1, 75680, Note_on_c, 0, 77, 0
1, 75680, Note_on_c, 0, 75, 58
1, 75800, Tempo, 286519
1, 75840, Note_on_c, 0, 75, 0
1, 75840, Note_on_c, 0, 82, 67
1, 75840, Note_on_c, 0, 63, 55
1, 76000, Note_on_c, 0, 82, 0
1, 76000, Note_on_c, 0, 79, 59
1, 76160, Note_on_c, 0, 79, 0
1, 76160, Note_on_c, 0, 80, 59
1, 76320, Note_on_c, 0, 80, 0
1, 76320, Note_on_c, 0, 63, 0
1, 76320, Note_on_c, 0, 82, 62
1, 76480, Note_on_c, 0, 82, 0
1, 76480, Note_on_c, 0, 80, 65
1, 76640, Tempo, 304244
1, 76640, Note_on_c, 0, 80, 0
1, 76640, Note_on_c, 0, 79, 67
1, 76800, Tempo, 286519
1, 76800, Note_on_c, 0, 79, 0
1, 76800, Note_on_c, 0, 85, 69
1, 76800, Note_on_c, 0, 61, 55
1, 76800, Note_on_c, 0, 55, 55
1, 76800, Note_on_c, 0, 58, 55
1, 76800, Note_on_c, 0, 63, 55
1, 76960, Note_on_c, 0, 84, 68
1, 76970, Note_on_c, 0, 85, 0
1, 77120, Note_on_c, 0, 82, 67
1, 77130, Note_on_c, 0, 84, 0
1, 77280, Note_on_c, 0, 63, 0
1, 77280, Note_on_c, 0, 58, 0
1, 77280, Note_on_c, 0, 61, 0
1, 77280, Note_on_c, 0, 55, 0
1, 77280, Note_on_c, 0, 80, 66
1, 77290, Note_on_c, 0, 82, 0
1, 77440, Note_on_c, 0, 79, 65
1, 77450, Note_on_c, 0, 80, 0
1, 77600, Note_on_c, 0, 77, 63
1, 77610, Note_on_c, 0, 79, 0
1, 77760, Tempo, 286519
1, 77760, Note_on_c, 0, 75, 59
1, 77770, Note_on_c, 0, 77, 0
1, 77920, Note_on_c, 0, 74, 55
1, 77930, Note_on_c, 0, 75, 0
1, 78000, Tempo, 287219
1, 78080, Note_on_c, 0, 75, 55
1, 78090, Note_on_c, 0, 74, 0
1, 78200, Tempo, 287908
1, 78240, Note_on_c, 0, 76, 59
1, 78250, Note_on_c, 0, 75, 0
1, 78400, Note_on_c, 0, 77, 56
1, 78410, Note_on_c, 0, 76, 0
1, 78440, Tempo, 288628
1, 78560, Note_on_c, 0, 73, 56
1, 78570, Note_on_c, 0, 77, 0
1, 78640, Tempo, 289324
1, 78680, Tempo, 290768
1, 78720, Note_on_c, 0, 44, 52
1, 78730, Note_on_c, 0, 73, 0
1, 78847, Control_c, 0, 64, 127
1, 78880, Note_on_c, 0, 44, 0
1, 78880, Note_on_c, 0, 48, 54
1, 78920, Tempo, 290051
1, 79040, Note_on_c, 0, 48, 0
1, 79040, Note_on_c, 0, 51, 56
1, 79160, Tempo, 289324
1, 79200, Note_on_c, 0, 51, 0
1, 79200, Note_on_c, 0, 60, 57
1, 79200, Note_on_c, 0, 56, 59
1, 79360, Note_on_c, 0, 60, 0
1, 79360, Note_on_c, 0, 63, 59
1, 79400, Tempo, 288628
1, 79520, Note_on_c, 0, 63, 0
1, 79520, Note_on_c, 0, 68, 62
1, 79680, Note_on_c, 0, 68, 0
1, 79680, Note_on_c, 0, 56, 0
1, 79680, Note_on_c, 0, 72, 64
1, 79840, Note_on_c, 0, 72, 0
1, 79840, Note_on_c, 0, 75, 66
1, 80000, Note_on_c, 0, 75, 0
1, 80000, Note_on_c, 0, 80, 68
1, 80146, Control_c, 0, 64, 0
1, 80160, Tempo, 298107
1, 80160, Note_on_c, 0, 80, 0
1, 80160, Note_on_c, 0, 84, 70
1, 80280, Note_on_c, 0, 84, 0
1, 80400, Note_on_c, 0, 84, 70
1, 80520, Note_on_c, 0, 84, 0
1, 80640, Tempo, 295116
1, 80640, Note_on_c, 0, 84, 70
1, 80640, Note_on_c, 0, 58, 48
1, 80640, Note_on_c, 0, 63, 48
1, 80640, Note_on_c, 0, 67, 57
1, 80697, Control_c, 0, 64, 127
1, 80880, Note_on_c, 0, 84, 0
1, 80880, Note_on_c, 0, 82, 68
1, 81120, Note_on_c, 0, 82, 0
1, 81120, Note_on_c, 0, 67, 0
1, 81120, Note_on_c, 0, 63, 0
1, 81120, Note_on_c, 0, 58, 0
1, 81120, Note_on_c, 0, 80, 66
1, 81155, Control_c, 0, 64, 0
1, 81240, Note_on_c, 0, 80, 0
1, 81360, Tempo, 316472
1, 81360, Note_on_c, 0, 79, 64
1, 81480, Note_on_c, 0, 79, 0
1, 81600, Tempo, 299625
1, 81600, Note_on_c, 0, 79, 65
1, 81600, Note_on_c, 0, 58, 49
1, 81600, Note_on_c, 0, 65, 49
1, 81600, Note_on_c, 0, 68, 58
1, 81685, Control_c, 0, 64, 127
1, 81840, Note_on_c, 0, 79, 0
1, 81840, Note_on_c, 0, 77, 63
1, 82080, Note_on_c, 0, 77, 0
1, 82080, Note_on_c, 0, 68, 0
1, 82080, Note_on_c, 0, 65, 0
1, 82080, Note_on_c, 0, 58, 0
1, 82080, Note_on_c, 0, 75, 61
1, 82115, Control_c, 0, 64, 0
1, 82200, Note_on_c, 0, 75, 0
1, 82320, Tempo, 327011
1, 82320, Note_on_c, 0, 74, 59
1, 82440, Note_on_c, 0, 74, 0
1, 82560, Tempo, 317343
1, 82560, Note_on_c, 0, 75, 63
1, 82560, Note_on_c, 0, 63, 49
1, 82560, Note_on_c, 0, 67, 58
1, 83040, Note_on_c, 0, 67, 0
1, 83040, Note_on_c, 0, 63, 0
1, 83040, Note_on_c, 0, 75, 0
1, 84000, Note_on_c, 0, 58, 45
1, 84460, Tempo, 314795
1, 84470, Note_on_c, 0, 58, 0
1, 84480, Note_on_c, 0, 62, 37
1, 84480, Note_on_c, 0, 65, 45
1, 84480, Note_on_c, 0, 58, 39
1, 84480, Note_on_c, 0, 56, 33
1, 84607, Control_c, 0, 64, 127
1, 84700, Tempo, 313955
1, 84720, Note_on_c, 0, 56, 0
1, 84720, Note_on_c, 0, 62, 0
1, 84720, Note_on_c, 0, 65, 0
1, 84720, Note_on_c, 0, 58, 0
1, 84940, Tempo, 313136
1, 84960, Note_on_c, 0, 62, 38
1, 84960, Note_on_c, 0, 65, 45
1, 84960, Note_on_c, 0, 56, 34
1, 84960, Note_on_c, 0, 58, 40
1, 85180, Tempo, 312305
1, 85200, Note_on_c, 0, 58, 0
1, 85200, Note_on_c, 0, 62, 0
1, 85200, Note_on_c, 0, 65, 0
1, 85200, Note_on_c, 0, 56, 0
1, 85420, Tempo, 311462
1, 85440, Note_on_c, 0, 62, 38
1, 85440, Note_on_c, 0, 65, 45
1, 85440, Note_on_c, 0, 58, 42
1, 85440, Note_on_c, 0, 56, 35
1, 85660, Tempo, 310655
1, 85680, Note_on_c, 0, 56, 0
1, 85680, Note_on_c, 0, 62, 0
1, 85680, Note_on_c, 0, 65, 0
1, 85680, Note_on_c, 0, 58, 0
1, 85900, Tempo, 309821
1, 85920, Tempo, 329725
1, 85920, Note_on_c, 0, 62, 39
1, 85920, Note_on_c, 0, 65, 46
1, 85920, Note_on_c, 0, 56, 36
1, 85920, Note_on_c, 0, 58, 43
1, 86160, Note_on_c, 0, 58, 0
1, 86160, Note_on_c, 0, 62, 0
1, 86160, Note_on_c, 0, 65, 0
1, 86160, Note_on_c, 0, 56, 0
1, 86400, Tempo, 315623
1, 86400, Note_on_c, 0, 63, 40
1, 86400, Note_on_c, 0, 70, 47
1, 86400, Note_on_c, 0, 55, 37
1, 86400, Note_on_c, 0, 58, 45
1, 86409, Control_c, 0, 64, 0
1, 86880, Control_c, 0, 64, 127
1, 87840, Note_on_c, 0, 58, 0
1, 87840, Note_on_c, 0, 63, 0
1, 87840, Note_on_c, 0, 70, 0
1, 87840, Note_on_c, 0, 55, 0
1, 87840, Note_on_c, 0, 63, 46
1, 87840, Note_on_c, 0, 70, 46
1, 87840, Note_on_c, 0, 55, 42
1, 88320, Note_on_c, 0, 55, 0
1, 88320, Note_on_c, 0, 70, 0
1, 88320, Note_on_c, 0, 63, 0
1, 88320, Note_on_c, 0, 63, 40
1, 88320, Note_on_c, 0, 68, 48
1, 88320, Note_on_c, 0, 60, 45
1, 88324, Control_c, 0, 64, 0
1, 88560, Control_c, 0, 64, 127
1, 88800, Tempo, 309821
1, 89280, Note_on_c, 0, 60, 0
1, 89280, Note_on_c, 0, 68, 0
1, 89280, Note_on_c, 0, 63, 0
1, 89280, Note_on_c, 0, 65, 37
1, 89280, Note_on_c, 0, 63, 37
1, 89280, Note_on_c, 0, 69, 45
1, 89280, Note_on_c, 0, 59, 43
1, 89291, Control_c, 0, 64, 0
1, 89654, Control_c, 0, 64, 127
1, 89800, Tempo, 323415
1, 90240, Tempo, 313136
1, 90240, Note_on_c, 0, 59, 0
1, 90240, Note_on_c, 0, 65, 0
1, 90240, Note_on_c, 0, 63, 0
1, 90240, Note_on_c, 0, 69, 0
1, 90240, Note_on_c, 0, 62, 39
1, 90240, Note_on_c, 0, 65, 39
1, 90240, Note_on_c, 0, 70, 46
1, 90240, Note_on_c, 0, 58, 43
1, 90243, Control_c, 0, 64, 0
1, 90560, Control_c, 0, 64, 127
1, 91493, Control_c, 0, 64, 0
1, 91680, Note_on_c, 0, 58, 0
1, 91680, Note_on_c, 0, 62, 0
1, 91680, Note_on_c, 0, 65, 0
1, 91680, Note_on_c, 0, 70, 0
1, 91680, Note_on_c, 0, 70, 50
1, 92150, Note_on_c, 0, 70, 0
1, 92160, Note_on_c, 0, 70, 42
1, 92160, Note_on_c, 0, 77, 50
1, 92160, Note_on_c, 0, 62, 44
1, 92160, Note_on_c, 0, 56, 37
1, 92259, Control_c, 0, 64, 127
1, 92400, Note_on_c, 0, 56, 0
1, 92400, Note_on_c, 0, 70, 0
1, 92400, Note_on_c, 0, 77, 0
1, 92400, Note_on_c, 0, 62, 0
1, 92600, Tempo, 313955
1, 92640, Note_on_c, 0, 70, 45
1, 92640, Note_on_c, 0, 77, 53
1, 92640, Note_on_c, 0, 56, 39
1, 92640, Note_on_c, 0, 62, 47
1, 92760, Tempo, 313136
1, 92880, Note_on_c, 0, 62, 0
1, 92880, Note_on_c, 0, 70, 0
1, 92880, Note_on_c, 0, 77, 0
1, 92880, Note_on_c, 0, 56, 0
1, 92920, Tempo, 312305
1, 93080, Tempo, 311462
1, 93120, Note_on_c, 0, 70, 47
1, 93120, Note_on_c, 0, 77, 56
1, 93120, Note_on_c, 0, 62, 51
1, 93120, Note_on_c, 0, 56, 42
1, 93240, Tempo, 310655
1, 93360, Note_on_c, 0, 56, 0
1, 93360, Note_on_c, 0, 70, 0
1, 93360, Note_on_c, 0, 77, 0
1, 93360, Note_on_c, 0, 62, 0
1, 93400, Tempo, 309821
1, 93560, Tempo, 309023
1, 93600, Note_on_c, 0, 70, 50
1, 93600, Note_on_c, 0, 77, 59
1, 93600, Note_on_c, 0, 56, 46
1, 93600, Note_on_c, 0, 62, 55
1, 93840, Note_on_c, 0, 62, 0
1, 93840, Note_on_c, 0, 70, 0
1, 93840, Note_on_c, 0, 77, 0
1, 93840, Note_on_c, 0, 56, 0
1, 94080, Note_on_c, 0, 70, 73
1, 94080, Note_on_c, 0, 82, 73
1, 94080, Note_on_c, 0, 55, 50
1, 94080, Note_on_c, 0, 63, 60
1, 94090, Control_c, 0, 64, 0
1, 94560, Tempo, 337268
1, 94560, Control_c, 0, 64, 127
1, 95040, Tempo, 319915
1, 95040, Note_on_c, 0, 70, 0
1, 95040, Note_on_c, 0, 73, 80
1, 95520, Note_on_c, 0, 82, 0
1, 95520, Note_on_c, 0, 83, 72
1, 96000, Tempo, 313136
1, 96000, Note_on_c, 0, 83, 0
1, 96000, Note_on_c, 0, 73, 0
1, 96000, Note_on_c, 0, 55, 0
1, 96000, Note_on_c, 0, 63, 0
1, 96000, Note_on_c, 0, 72, 74
1, 96000, Note_on_c, 0, 84, 87
1, 96000, Note_on_c, 0, 56, 61
1, 96000, Note_on_c, 0, 63, 72
1, 96000, Control_c, 0, 64, 0
1, 96480, Note_on_c, 0, 63, 0
1, 96480, Note_on_c, 0, 72, 0
1, 96480, Note_on_c, 0, 84, 0
1, 96480, Note_on_c, 0, 56, 0
1, 96960, Note_on_c, 0, 65, 74
1, 96960, Note_on_c, 0, 68, 74
1, 96960, Note_on_c, 0, 74, 87
1, 96960, Note_on_c, 0, 46, 61
1, 96960, Note_on_c, 0, 58, 72
1, 97440, Note_on_c, 0, 58, 0
1, 97440, Note_on_c, 0, 74, 0
1, 97440, Note_on_c, 0, 65, 0
1, 97440, Note_on_c, 0, 68, 0
1, 97440, Note_on_c, 0, 46, 0
1, 97920, Tempo, 294377
1, 97920, Note_on_c, 0, 67, 49
1, 97920, Note_on_c, 0, 75, 55
1, 97960, Tempo, 293643
1, 97980, Tempo, 292912
1, 98000, Tempo, 292198
1, 98040, Tempo, 290768
1, 98080, Note_on_c, 0, 63, 55
1, 98200, Tempo, 290051
1, 98240, Note_on_c, 0, 65, 55
1, 98250, Note_on_c, 0, 63, 0
1, 98320, Tempo, 289324
1, 98400, Note_on_c, 0, 67, 0
1, 98400, Note_on_c, 0, 75, 0
1, 98400, Note_on_c, 0, 67, 59
1, 98410, Note_on_c, 0, 65, 0
1, 98480, Tempo, 288628
1, 98560, Note_on_c, 0, 65, 55
1, 98570, Note_on_c, 0, 67, 0
1, 98600, Tempo, 287908
1, 98720, Note_on_c, 0, 63, 55
1, 98730, Note_on_c, 0, 65, 0
1, 98760, Tempo, 287219
1, 98880, Tempo, 286519
1, 98880, Note_on_c, 0, 68, 59
1, 98890, Note_on_c, 0, 63, 0
1, 98960, Tempo, 285823
1, 99040, Note_on_c, 0, 70, 54
1, 99120, Tempo, 286519
1, 99200, Note_on_c, 0, 72, 56
1, 99210, Note_on_c, 0, 70, 0
1, 99280, Tempo, 287219
1, 99360, Note_on_c, 0, 74, 57
1, 99370, Note_on_c, 0, 72, 0
1, 99440, Tempo, 287908
1, 99520, Note_on_c, 0, 72, 54
1, 99530, Note_on_c, 0, 74, 0
1, 99580, Tempo, 287908
1, 99600, Tempo, 288628
1, 99620, Tempo, 290051
1, 99640, Tempo, 291474
1, 99660, Tempo, 292912
1, 99680, Tempo, 294377
1, 99680, Note_on_c, 0, 70, 51
1, 99690, Note_on_c, 0, 72, 0
1, 99700, Tempo, 295858
1, 99720, Tempo, 296604
1, 99740, Tempo, 298107
1, 99760, Tempo, 299625
1, 99780, Tempo, 301129
1, 99800, Tempo, 302679
1, 99820, Tempo, 304244
1, 99840, Tempo, 293643
1, 99840, Note_on_c, 0, 68, 0
1, 99840, Note_on_c, 0, 75, 55
1, 99840, Note_on_c, 0, 67, 59
1, 99850, Note_on_c, 0, 70, 0
1, 99880, Tempo, 292912
1, 99900, Tempo, 292198
1, 99940, Tempo, 291474
1, 99960, Tempo, 290768
1, 99980, Tempo, 290051
1, 100000, Note_on_c, 0, 63, 55
1, 100010, Note_on_c, 0, 67, 0
1, 100120, Tempo, 290051
1, 100160, Note_on_c, 0, 65, 55
1, 100170, Note_on_c, 0, 63, 0
1, 100240, Tempo, 289324
1, 100320, Note_on_c, 0, 75, 0
1, 100320, Note_on_c, 0, 67, 59
1, 100330, Note_on_c, 0, 65, 0
1, 100400, Tempo, 288628
1, 100480, Note_on_c, 0, 65, 55
1, 100490, Note_on_c, 0, 67, 0
1, 100520, Tempo, 287908
1, 100640, Note_on_c, 0, 63, 55
1, 100650, Note_on_c, 0, 65, 0
1, 100680, Tempo, 287219
1, 100800, Tempo, 286519
1, 100800, Note_on_c, 0, 68, 59
1, 100810, Note_on_c, 0, 63, 0
1, 100880, Tempo, 285823
1, 100960, Note_on_c, 0, 70, 54
1, 101040, Tempo, 286519
1, 101120, Note_on_c, 0, 72, 56
1, 101130, Note_on_c, 0, 70, 0
1, 101200, Tempo, 287219
1, 101260, Tempo, 287908
1, 101280, Note_on_c, 0, 74, 57
1, 101290, Note_on_c, 0, 72, 0
1, 101300, Tempo, 288628
1, 101320, Tempo, 289324
1, 101340, Tempo, 290051
1, 101360, Tempo, 290768
1, 101380, Tempo, 291474
1, 101400, Tempo, 292198
1, 101420, Tempo, 292912
1, 101440, Tempo, 293643
1, 101440, Note_on_c, 0, 72, 54
1, 101450, Note_on_c, 0, 74, 0
1, 101460, Tempo, 294377
1, 101480, Tempo, 295116
1, 101500, Tempo, 295858
1, 101540, Tempo, 296604
1, 101560, Tempo, 297339
1, 101580, Tempo, 298107
1, 101600, Tempo, 298849
1, 101600, Note_on_c, 0, 70, 51
1, 101610, Note_on_c, 0, 72, 0
1, 101620, Tempo, 299625
1, 101640, Tempo, 300375
1, 101660, Tempo, 301129
1, 101680, Tempo, 301917
1, 101700, Tempo, 302679
1, 101720, Tempo, 303459
1, 101740, Tempo, 304244
1, 101760, Tempo, 292912
1, 101760, Note_on_c, 0, 68, 0
1, 101760, Note_on_c, 0, 75, 56
1, 101760, Note_on_c, 0, 67, 55
1, 101760, Note_on_c, 0, 63, 55
1, 101770, Note_on_c, 0, 70, 0
1, 101800, Tempo, 293643
1, 101840, Tempo, 292912
1, 101860, Tempo, 292198
1, 101880, Tempo, 291474
1, 101920, Tempo, 290768
1, 101920, Note_on_c, 0, 75, 0
1, 101920, Note_on_c, 0, 79, 59
1, 101940, Tempo, 290051
1, 101960, Tempo, 289324
1, 101980, Tempo, 288628
1, 102000, Note_on_c, 0, 67, 0
1, 102000, Note_on_c, 0, 63, 0
1, 102080, Note_on_c, 0, 79, 0
1, 102080, Note_on_c, 0, 77, 52
1, 102200, Tempo, 287908
1, 102240, Note_on_c, 0, 77, 0
1, 102240, Note_on_c, 0, 75, 59
1, 102246, Note_on_c, 0, 60, 52
1, 102400, Note_on_c, 0, 75, 0
1, 102400, Note_on_c, 0, 74, 57
1, 102440, Tempo, 287219
1, 102486, Note_on_c, 0, 60, 0
1, 102560, Note_on_c, 0, 74, 0
1, 102560, Note_on_c, 0, 72, 58
1, 102680, Tempo, 286519
1, 102720, Note_on_c, 0, 72, 0
1, 102720, Note_on_c, 0, 71, 54
1, 102720, Note_on_c, 0, 56, 52
1, 102880, Note_on_c, 0, 71, 0
1, 102880, Note_on_c, 0, 72, 54
1, 102960, Note_on_c, 0, 56, 0
1, 103040, Note_on_c, 0, 72, 0
1, 103040, Note_on_c, 0, 70, 53
1, 103200, Note_on_c, 0, 70, 0
1, 103200, Note_on_c, 0, 68, 53
1, 103200, Note_on_c, 0, 58, 52
1, 103360, Note_on_c, 0, 68, 0
1, 103360, Note_on_c, 0, 67, 52
1, 103440, Note_on_c, 0, 58, 0
1, 103520, Tempo, 304244
1, 103520, Note_on_c, 0, 67, 0
1, 103520, Note_on_c, 0, 65, 52
1, 103680, Tempo, 294377
1, 103680, Note_on_c, 0, 65, 0
1, 103680, Note_on_c, 0, 63, 55
1, 103720, Tempo, 293643
1, 103740, Tempo, 292912
1, 103760, Tempo, 292198
1, 103800, Tempo, 290768
1, 103840, Note_on_c, 0, 39, 49
1, 103960, Tempo, 290051
1, 104000, Note_on_c, 0, 41, 49
1, 104010, Note_on_c, 0, 39, 0
1, 104080, Tempo, 289324
1, 104160, Note_on_c, 0, 63, 0
1, 104160, Note_on_c, 0, 43, 53
1, 104170, Note_on_c, 0, 41, 0
1, 104240, Tempo, 288628
1, 104320, Note_on_c, 0, 41, 49
1, 104330, Note_on_c, 0, 43, 0
1, 104360, Tempo, 287908
1, 104480, Note_on_c, 0, 39, 49
1, 104490, Note_on_c, 0, 41, 0
1, 104520, Tempo, 287219
1, 104640, Tempo, 286519
1, 104640, Note_on_c, 0, 44, 70
1, 104650, Note_on_c, 0, 39, 0
1, 104720, Tempo, 285823
1, 104800, Note_on_c, 0, 58, 54
1, 104880, Tempo, 286519
1, 104960, Note_on_c, 0, 60, 56
1, 104970, Note_on_c, 0, 58, 0
1, 105040, Tempo, 287219
1, 105120, Note_on_c, 0, 62, 57
1, 105130, Note_on_c, 0, 60, 0
1, 105200, Tempo, 287908
1, 105280, Note_on_c, 0, 60, 54
1, 105290, Note_on_c, 0, 62, 0
1, 105340, Tempo, 287908
1, 105360, Tempo, 288628
1, 105380, Tempo, 290051
1, 105400, Tempo, 291474
1, 105420, Tempo, 292912
1, 105440, Tempo, 294377
1, 105440, Note_on_c, 0, 58, 51
1, 105450, Note_on_c, 0, 60, 0
1, 105460, Tempo, 295858
1, 105480, Tempo, 296604
1, 105500, Tempo, 298107
1, 105520, Tempo, 299625
1, 105540, Tempo, 301129
1, 105560, Tempo, 302679
1, 105580, Tempo, 304244
1, 105600, Tempo, 293643
1, 105600, Note_on_c, 0, 44, 0
1, 105600, Note_on_c, 0, 63, 55
1, 105600, Note_on_c, 0, 43, 53
1, 105610, Note_on_c, 0, 58, 0
1, 105640, Tempo, 292912
1, 105660, Tempo, 292198
1, 105700, Tempo, 291474
1, 105720, Tempo, 290768
1, 105740, Tempo, 290051
1, 105760, Note_on_c, 0, 39, 49
1, 105770, Note_on_c, 0, 43, 0
1, 105880, Tempo, 290051
1, 105920, Note_on_c, 0, 41, 49
1, 105930, Note_on_c, 0, 39, 0
1, 106000, Tempo, 289324
1, 106080, Note_on_c, 0, 63, 0
1, 106080, Note_on_c, 0, 43, 53
1, 106090, Note_on_c, 0, 41, 0
1, 106160, Tempo, 288628
1, 106240, Note_on_c, 0, 41, 49
1, 106250, Note_on_c, 0, 43, 0
1, 106280, Tempo, 287908
1, 106400, Note_on_c, 0, 39, 49
1, 106410, Note_on_c, 0, 41, 0
1, 106440, Tempo, 287219
1, 106560, Tempo, 286519
1, 106560, Note_on_c, 0, 44, 70
1, 106570, Note_on_c, 0, 39, 0
1, 106640, Tempo, 285823
1, 106720, Note_on_c, 0, 58, 54
1, 106800, Tempo, 286519
1, 106880, Note_on_c, 0, 60, 56
1, 106890, Note_on_c, 0, 58, 0
1, 106960, Tempo, 287219
1, 107020, Tempo, 287908
1, 107040, Note_on_c, 0, 62, 57
1, 107050, Note_on_c, 0, 60, 0
1, 107060, Tempo, 288628
1, 107080, Tempo, 289324
1, 107100, Tempo, 290051
1, 107120, Tempo, 290768
1, 107140, Tempo, 291474
1, 107160, Tempo, 292198
1, 107180, Tempo, 292912
1, 107200, Tempo, 293643
1, 107200, Note_on_c, 0, 60, 54
1, 107210, Note_on_c, 0, 62, 0
1, 107220, Tempo, 294377
1, 107240, Tempo, 295116
1, 107260, Tempo, 295858
1, 107300, Tempo, 296604
1, 107320, Tempo, 297339
1, 107340, Tempo, 298107
1, 107360, Tempo, 298849
1, 107360, Note_on_c, 0, 58, 51
1, 107370, Note_on_c, 0, 60, 0
1, 107380, Tempo, 299625
1, 107400, Tempo, 300375
1, 107420, Tempo, 301129
1, 107440, Tempo, 301917
1, 107460, Tempo, 302679
1, 107480, Tempo, 303459
1, 107500, Tempo, 304244
1, 107520, Tempo, 293643
1, 107520, Note_on_c, 0, 44, 0
1, 107520, Note_on_c, 0, 63, 55
1, 107520, Note_on_c, 0, 43, 53
1, 107530, Note_on_c, 0, 58, 0
1, 107560, Tempo, 292912
1, 107580, Tempo, 292198
1, 107620, Tempo, 291474
1, 107640, Tempo, 290768
1, 107660, Tempo, 290051
1, 107680, Note_on_c, 0, 39, 49
1, 107690, Note_on_c, 0, 43, 0
1, 107800, Tempo, 290051
1, 107840, Note_on_c, 0, 41, 49
1, 107850, Note_on_c, 0, 39, 0
1, 107920, Tempo, 289324
1, 108000, Note_on_c, 0, 63, 0
1, 108000, Note_on_c, 0, 43, 53
1, 108010, Note_on_c, 0, 41, 0
1, 108080, Tempo, 288628
1, 108160, Note_on_c, 0, 41, 49
1, 108170, Note_on_c, 0, 43, 0
1, 108200, Tempo, 287908
1, 108320, Note_on_c, 0, 39, 49
1, 108330, Note_on_c, 0, 41, 0
1, 108360, Tempo, 287219
1, 108480, Tempo, 286519
1, 108480, Note_on_c, 0, 44, 70
1, 108490, Note_on_c, 0, 39, 0
1, 108560, Tempo, 285823
1, 108640, Note_on_c, 0, 59, 54
1, 108720, Tempo, 286519
1, 108800, Note_on_c, 0, 60, 56
1, 108810, Note_on_c, 0, 59, 0
1, 108880, Tempo, 287219
1, 108940, Tempo, 287908
1, 108960, Note_on_c, 0, 62, 57
1, 108970, Note_on_c, 0, 60, 0
1, 108980, Tempo, 288628
1, 109000, Tempo, 289324
1, 109020, Tempo, 290051
1, 109040, Tempo, 290768
1, 109060, Tempo, 291474
1, 109080, Tempo, 292198
1, 109100, Tempo, 292912
1, 109120, Tempo, 293643
1, 109120, Note_on_c, 0, 60, 54
1, 109130, Note_on_c, 0, 62, 0
1, 109140, Tempo, 294377
1, 109160, Tempo, 295116
1, 109180, Tempo, 295858
1, 109220, Tempo, 296604
1, 109240, Tempo, 297339
1, 109260, Tempo, 298107
1, 109280, Tempo, 298849
1, 109280, Note_on_c, 0, 59, 51
1, 109290, Note_on_c, 0, 60, 0
1, 109300, Tempo, 299625
1, 109320, Tempo, 300375
1, 109340, Tempo, 301129
1, 109360, Tempo, 301917
1, 109380, Tempo, 302679
1, 109400, Tempo, 303459
1, 109420, Tempo, 304244
1, 109440, Tempo, 287908
1, 109440, Note_on_c, 0, 65, 64
1, 109450, Note_on_c, 0, 59, 0
1, 109602, Note_on_c, 0, 63, 54
1, 109610, Note_on_c, 0, 65, 0
1, 109761, Note_on_c, 0, 62, 58
1, 109772, Note_on_c, 0, 63, 0
1, 109913, Note_on_c, 0, 68, 66
1, 109921, Note_on_c, 0, 62, 0
1, 110082, Note_on_c, 0, 67, 58
1, 110083, Note_on_c, 0, 68, 0
1, 110241, Note_on_c, 0, 65, 61
1, 110252, Note_on_c, 0, 67, 0
1, 110380, Tempo, 286519
1, 110400, Note_on_c, 0, 74, 70
1, 110401, Note_on_c, 0, 65, 0
1, 110460, Tempo, 287219
1, 110540, Tempo, 287908
1, 110559, Note_on_c, 0, 72, 60
1, 110570, Note_on_c, 0, 74, 0
1, 110620, Tempo, 288628
1, 110700, Tempo, 289324
1, 110721, Note_on_c, 0, 71, 64
1, 110729, Note_on_c, 0, 72, 0
1, 110780, Tempo, 290051
1, 110860, Tempo, 290768
1, 110880, Tempo, 291474
1, 110881, Note_on_c, 0, 71, 0
1, 110886, Note_on_c, 0, 77, 74
1, 110900, Tempo, 292198
1, 110920, Tempo, 292912
1, 110940, Tempo, 293643
1, 110960, Tempo, 294377
1, 110980, Tempo, 295116
1, 111000, Tempo, 295858
1, 111020, Tempo, 296604
1, 111039, Note_on_c, 0, 75, 64
1, 111040, Tempo, 297339
1, 111056, Note_on_c, 0, 77, 0
1, 111060, Tempo, 298107
1, 111080, Tempo, 298849
1, 111100, Tempo, 299625
1, 111120, Tempo, 300375
1, 111140, Tempo, 301129
1, 111160, Tempo, 301917
1, 111180, Tempo, 302679
1, 111200, Tempo, 303459
1, 111201, Note_on_c, 0, 74, 68
1, 111209, Note_on_c, 0, 75, 0
1, 111220, Tempo, 304244
1, 111240, Tempo, 305033
1, 111260, Tempo, 305826
1, 111280, Tempo, 306623
1, 111300, Tempo, 307409
1, 111320, Tempo, 308230
1, 111360, Note_on_c, 0, 44, 0
1, 111360, Note_on_c, 0, 89, 100
1, 111360, Note_on_c, 0, 31, 75
1, 111360, Note_on_c, 0, 43, 80
1, 111361, Note_on_c, 0, 74, 0
1, 112751, Control_c, 0, 64, 127
1, 112780, Tempo, 324307
1, 112800, Tempo, 323415
1, 112800, Note_on_c, 0, 89, 0
1, 112800, Note_on_c, 0, 87, 86
1, 112820, Tempo, 322511
1, 112840, Tempo, 321664
1, 112860, Tempo, 320787
1, 112880, Tempo, 319915
1, 112900, Tempo, 319064
1, 112920, Tempo, 318184
1, 112940, Tempo, 317343
1, 112960, Tempo, 316472
1, 112960, Note_on_c, 0, 87, 0
1, 112960, Note_on_c, 0, 86, 85
1, 112980, Tempo, 315623
1, 113000, Tempo, 314795
1, 113020, Tempo, 313955
1, 113040, Tempo, 313136
1, 113060, Tempo, 312305
1, 113080, Tempo, 311462
1, 113100, Tempo, 310655
1, 113120, Tempo, 309821
1, 113120, Note_on_c, 0, 86, 0
1, 113120, Note_on_c, 0, 84, 83
1, 113140, Tempo, 309023
1, 113160, Tempo, 308230
1, 113180, Tempo, 307409
1, 113200, Tempo, 306623
1, 113220, Tempo, 305826
1, 113240, Tempo, 305033
1, 113260, Tempo, 304244
1, 113280, Tempo, 301129
1, 113280, Note_on_c, 0, 84, 0
1, 113280, Note_on_c, 0, 83, 82
1, 113291, Control_c, 0, 64, 0
1, 113320, Tempo, 300375
1, 113340, Tempo, 299625
1, 113360, Tempo, 298849
1, 113372, Control_c, 0, 64, 127
1, 113380, Tempo, 298107
1, 113400, Tempo, 297339
1, 113420, Tempo, 296604
1, 113440, Tempo, 295858
1, 113440, Note_on_c, 0, 83, 0
1, 113440, Note_on_c, 0, 80, 81
1, 113460, Tempo, 295116
1, 113480, Tempo, 294377
1, 113500, Tempo, 293643
1, 113520, Tempo, 292912
1, 113560, Tempo, 292198
1, 113580, Tempo, 291474
1, 113600, Tempo, 290768
1, 113600, Note_on_c, 0, 80, 0
1, 113600, Note_on_c, 0, 79, 79
1, 113620, Tempo, 290051
1, 113640, Tempo, 289324
1, 113660, Tempo, 288628
1, 113680, Tempo, 287908
1, 113700, Tempo, 287219
1, 113720, Tempo, 286519
1, 113740, Tempo, 285823
1, 113760, Tempo, 284455
1, 113760, Note_on_c, 0, 79, 0
1, 113760, Note_on_c, 0, 77, 78
1, 113840, Tempo, 283755
1, 113920, Tempo, 283086
1, 113920, Note_on_c, 0, 77, 0
1, 113920, Note_on_c, 0, 75, 77
1, 113980, Tempo, 282406
1, 114060, Tempo, 281717
1, 114080, Note_on_c, 0, 75, 0
1, 114080, Note_on_c, 0, 74, 75
1, 114120, Tempo, 281070
1, 114200, Tempo, 280400
1, 114240, Note_on_c, 0, 74, 0
1, 114240, Note_on_c, 0, 72, 74
1, 114252, Control_c, 0, 64, 0
1, 114300, Control_c, 0, 64, 127
1, 114400, Note_on_c, 0, 72, 0
1, 114400, Note_on_c, 0, 71, 72
1, 114560, Note_on_c, 0, 71, 0
1, 114560, Note_on_c, 0, 68, 71
1, 114720, Note_on_c, 0, 68, 0
1, 114720, Note_on_c, 0, 67, 70
1, 114740, Tempo, 286519
1, 114760, Tempo, 287219
1, 114780, Tempo, 287908
1, 114800, Tempo, 288628
1, 114816, Note_on_c, 0, 67, 0
1, 114816, Note_on_c, 0, 65, 68
1, 114820, Tempo, 290051
1, 114840, Tempo, 290768
1, 114860, Tempo, 291474
1, 114880, Tempo, 292912
1, 114900, Tempo, 293643
1, 114912, Tempo, 295116
1, 114912, Note_on_c, 0, 65, 0
1, 114912, Note_on_c, 0, 63, 69
1, 114920, Tempo, 296604
1, 114924, Tempo, 298849
1, 114932, Tempo, 301129
1, 114940, Tempo, 303459
1, 114944, Tempo, 305826
1, 114952, Tempo, 308230
1, 114960, Tempo, 310655
1, 114964, Tempo, 313136
1, 114972, Tempo, 315623
1, 114980, Tempo, 318184
1, 114984, Tempo, 320787
1, 114992, Tempo, 323415
1, 115000, Tempo, 326105
1, 115004, Tempo, 328839
1, 115008, Note_on_c, 0, 63, 0
1, 115008, Note_on_c, 0, 62, 70
1, 115012, Tempo, 331602
1, 115020, Tempo, 334411
1, 115024, Tempo, 337268
1, 115032, Tempo, 340194
1, 115040, Tempo, 343171
1, 115044, Tempo, 346180
1, 115052, Tempo, 349264
1, 115060, Tempo, 352382
1, 115064, Tempo, 355556
1, 115072, Tempo, 358809
1, 115080, Tempo, 362122
1, 115084, Tempo, 365475
1, 115092, Tempo, 368913
1, 115100, Tempo, 372416
1, 115104, Tempo, 375963
1, 115104, Note_on_c, 0, 62, 0
1, 115104, Note_on_c, 0, 60, 71
1, 115120, Tempo, 590261
1, 115200, Tempo, 411805
1, 115200, Note_on_c, 0, 60, 0
1, 115200, Note_on_c, 0, 31, 0
1, 115200, Note_on_c, 0, 43, 0
1, 115200, Note_on_c, 0, 59, 93
1, 115200, Note_on_c, 0, 43, 69
1, 115200, Note_on_c, 0, 50, 69
1, 115200, Note_on_c, 0, 53, 82
1, 115212, Control_c, 0, 64, 0
1, 118080, Note_on_c, 0, 53, 0
1, 118080, Note_on_c, 0, 59, 0
1, 118080, Note_on_c, 0, 43, 0
1, 118080, Note_on_c, 0, 50, 0
1, 118320, Tempo, 296604
1, 118320, Note_on_c, 0, 67, 48
1, 118440, Note_on_c, 0, 67, 0
1, 118560, Note_on_c, 0, 72, 49
1, 118680, Note_on_c, 0, 72, 0
1, 118800, Tempo, 315623
1, 118800, Note_on_c, 0, 74, 51
1, 118920, Note_on_c, 0, 74, 0
1, 119040, Tempo, 289869
1, 119040, Note_on_c, 0, 75, 52
1, 119040, Note_on_c, 0, 48, 40
1, 119280, Tempo, 292912
1, 119280, Note_on_c, 0, 48, 0
1, 119280, Note_on_c, 0, 51, 36
1, 119520, Tempo, 296604
1, 119520, Note_on_c, 0, 51, 0
1, 119520, Note_on_c, 0, 55, 36
1, 119760, Tempo, 309821
1, 119760, Note_on_c, 0, 55, 0
1, 119760, Note_on_c, 0, 75, 0
1, 119760, Note_on_c, 0, 77, 50
1, 119760, Note_on_c, 0, 60, 36
1, 120000, Tempo, 289324
1, 120000, Note_on_c, 0, 60, 0
1, 120000, Note_on_c, 0, 77, 0
1, 120000, Note_on_c, 0, 74, 53
1, 120000, Note_on_c, 0, 48, 40
1, 120240, Tempo, 292912
1, 120240, Note_on_c, 0, 48, 0
1, 120240, Note_on_c, 0, 53, 40
1, 120480, Note_on_c, 0, 53, 0
1, 120480, Note_on_c, 0, 55, 36
1, 120720, Tempo, 308230
1, 120720, Note_on_c, 0, 55, 0
1, 120720, Note_on_c, 0, 74, 0
1, 120720, Note_on_c, 0, 75, 50
1, 120720, Note_on_c, 0, 59, 36
1, 120960, Tempo, 289869
1, 120960, Note_on_c, 0, 59, 0
1, 120960, Note_on_c, 0, 75, 0
1, 120960, Note_on_c, 0, 72, 52
1, 120960, Note_on_c, 0, 48, 40
1, 121200, Note_on_c, 0, 48, 0
1, 121200, Note_on_c, 0, 51, 40
1, 121440, Note_on_c, 0, 51, 0
1, 121440, Note_on_c, 0, 55, 36
1, 121680, Tempo, 298151
1, 121680, Note_on_c, 0, 55, 0
1, 121680, Note_on_c, 0, 60, 36
1, 121860, Note_on_c, 0, 72, 0
1, 121860, Note_on_c, 0, 74, 48
1, 121880, Tempo, 289869
1, 121920, Note_on_c, 0, 74, 0
1, 121920, Note_on_c, 0, 60, 0
1, 121920, Note_on_c, 0, 72, 52
1, 121920, Note_on_c, 0, 63, 40
1, 122160, Note_on_c, 0, 63, 0
1, 122160, Note_on_c, 0, 72, 0
1, 122160, Note_on_c, 0, 71, 51
1, 122160, Note_on_c, 0, 67, 36
1, 122400, Note_on_c, 0, 67, 0
1, 122400, Note_on_c, 0, 71, 0
1, 122400, Note_on_c, 0, 72, 51
1, 122400, Note_on_c, 0, 63, 36
1, 122640, Note_on_c, 0, 63, 0
1, 122640, Note_on_c, 0, 72, 0
1, 122640, Note_on_c, 0, 74, 50
1, 122640, Note_on_c, 0, 62, 36
1, 122820, Note_on_c, 0, 74, 0
1, 122820, Note_on_c, 0, 77, 49
1, 122880, Note_on_c, 0, 77, 0
1, 122880, Note_on_c, 0, 62, 0
1, 122880, Note_on_c, 0, 75, 56
1, 122880, Note_on_c, 0, 60, 40
1, 123120, Note_on_c, 0, 60, 0
1, 123120, Note_on_c, 0, 75, 0
1, 123120, Note_on_c, 0, 74, 52
1, 123120, Note_on_c, 0, 67, 36
1, 123360, Note_on_c, 0, 67, 0
1, 123360, Note_on_c, 0, 74, 0
1, 123360, Note_on_c, 0, 75, 52
1, 123360, Note_on_c, 0, 60, 36
1, 123360, Note_on_c, 0, 63, 36
1, 123600, Tempo, 314795
1, 123600, Note_on_c, 0, 63, 0
1, 123600, Note_on_c, 0, 60, 0
1, 123600, Note_on_c, 0, 75, 0
1, 123600, Note_on_c, 0, 77, 52
1, 123600, Note_on_c, 0, 67, 36
1, 123840, Tempo, 311462
1, 123840, Note_on_c, 0, 67, 0
1, 123840, Note_on_c, 0, 77, 0
1, 123840, Note_on_c, 0, 79, 56
1, 123840, Note_on_c, 0, 59, 41
1, 123840, Note_on_c, 0, 62, 41
1, 124080, Note_on_c, 0, 62, 0
1, 124080, Note_on_c, 0, 59, 0
1, 124080, Note_on_c, 0, 79, 0
1, 124080, Note_on_c, 0, 67, 36
1, 124320, Note_on_c, 0, 67, 0
1, 124320, Note_on_c, 0, 79, 55
1, 124320, Note_on_c, 0, 60, 36
1, 124320, Note_on_c, 0, 56, 36
1, 124560, Note_on_c, 0, 56, 0
1, 124560, Note_on_c, 0, 60, 0
1, 124560, Note_on_c, 0, 79, 0
1, 124560, Note_on_c, 0, 67, 36
1, 124800, Note_on_c, 0, 67, 0
1, 124800, Note_on_c, 0, 79, 57
1, 124800, Note_on_c, 0, 55, 40
1, 125040, Note_on_c, 0, 55, 0
1, 125040, Note_on_c, 0, 59, 29
1, 125280, Note_on_c, 0, 59, 0
1, 125280, Note_on_c, 0, 62, 28
1, 125520, Note_on_c, 0, 62, 0
1, 125520, Note_on_c, 0, 67, 28
1, 125760, Tempo, 289869
1, 125760, Note_on_c, 0, 67, 0
1, 125760, Note_on_c, 0, 55, 40
1, 126000, Note_on_c, 0, 55, 0
1, 126000, Note_on_c, 0, 59, 31
1, 126240, Note_on_c, 0, 59, 0
1, 126240, Note_on_c, 0, 79, 0
1, 126240, Note_on_c, 0, 77, 51
1, 126240, Note_on_c, 0, 62, 31
1, 126480, Tempo, 321096
1, 126480, Note_on_c, 0, 62, 0
1, 126480, Note_on_c, 0, 77, 0
1, 126480, Note_on_c, 0, 79, 53
1, 126480, Note_on_c, 0, 67, 31
1, 126600, Tempo, 296457
1, 126600, Note_on_c, 0, 79, 0
1, 126600, Note_on_c, 0, 77, 48
1, 126660, Note_on_c, 0, 77, 0
1, 126660, Note_on_c, 0, 79, 48
1, 126720, Tempo, 289869
1, 126720, Note_on_c, 0, 79, 0
1, 126720, Note_on_c, 0, 67, 0
1, 126720, Note_on_c, 0, 80, 56
1, 126720, Note_on_c, 0, 53, 40
1, 126960, Tempo, 293643
1, 126960, Note_on_c, 0, 53, 0
1, 126960, Note_on_c, 0, 56, 36
1, 127200, Note_on_c, 0, 56, 0
1, 127200, Note_on_c, 0, 59, 37
1, 127440, Note_on_c, 0, 59, 0
1, 127440, Note_on_c, 0, 62, 37
1, 127680, Tempo, 288628
1, 127680, Note_on_c, 0, 62, 0
1, 127680, Note_on_c, 0, 80, 0
1, 127680, Note_on_c, 0, 74, 52
1, 127680, Note_on_c, 0, 53, 40
1, 127920, Note_on_c, 0, 53, 0
1, 127920, Note_on_c, 0, 56, 36
1, 128160, Note_on_c, 0, 56, 0
1, 128160, Note_on_c, 0, 74, 0
1, 128160, Note_on_c, 0, 75, 51
1, 128160, Note_on_c, 0, 59, 36
1, 128400, Tempo, 318150
1, 128400, Note_on_c, 0, 59, 0
1, 128400, Note_on_c, 0, 75, 0
1, 128400, Note_on_c, 0, 77, 53
1, 128400, Note_on_c, 0, 62, 36
1, 128520, Tempo, 296457
1, 128520, Note_on_c, 0, 77, 0
1, 128520, Note_on_c, 0, 75, 50
1, 128580, Note_on_c, 0, 75, 0
1, 128580, Note_on_c, 0, 77, 50
1, 128640, Tempo, 289869
1, 128640, Note_on_c, 0, 77, 0
1, 128640, Note_on_c, 0, 62, 0
1, 128640, Note_on_c, 0, 79, 56
1, 128640, Note_on_c, 0, 51, 40
1, 128880, Tempo, 293643
1, 128880, Note_on_c, 0, 51, 0
1, 128880, Note_on_c, 0, 55, 34
1, 129120, Note_on_c, 0, 55, 0
1, 129120, Note_on_c, 0, 60, 34
1, 129360, Note_on_c, 0, 60, 0
1, 129360, Note_on_c, 0, 63, 33
1, 129600, Tempo, 289324
1, 129600, Note_on_c, 0, 63, 0
1, 129600, Note_on_c, 0, 79, 0
1, 129600, Note_on_c, 0, 72, 52
1, 129600, Note_on_c, 0, 56, 41
1, 129840, Note_on_c, 0, 56, 0
1, 129840, Note_on_c, 0, 60, 35
1, 130070, Note_on_c, 0, 72, 0
1, 130080, Note_on_c, 0, 60, 0
1, 130080, Note_on_c, 0, 72, 53
1, 130080, Note_on_c, 0, 63, 35
1, 130320, Tempo, 298151
1, 130320, Note_on_c, 0, 63, 0
1, 130320, Note_on_c, 0, 72, 0
1, 130320, Note_on_c, 0, 74, 54
1, 130320, Note_on_c, 0, 66, 35
1, 130560, Tempo, 289869
1, 130560, Note_on_c, 0, 66, 0
1, 130560, Note_on_c, 0, 74, 0
1, 130560, Note_on_c, 0, 75, 57
1, 130560, Note_on_c, 0, 55, 40
1, 130800, Tempo, 292912
1, 130800, Note_on_c, 0, 55, 0
1, 130800, Note_on_c, 0, 75, 0
1, 130800, Note_on_c, 0, 60, 40
1, 131040, Note_on_c, 0, 60, 0
1, 131040, Note_on_c, 0, 75, 53
1, 131040, Note_on_c, 0, 63, 35
1, 131280, Note_on_c, 0, 63, 0
1, 131280, Note_on_c, 0, 75, 0
1, 131280, Note_on_c, 0, 77, 55
1, 131280, Note_on_c, 0, 67, 35
1, 131520, Tempo, 289324
1, 131520, Note_on_c, 0, 67, 0
1, 131520, Note_on_c, 0, 77, 0
1, 131520, Note_on_c, 0, 74, 57
1, 131520, Note_on_c, 0, 55, 40
1, 131760, Tempo, 292198
1, 131760, Note_on_c, 0, 55, 0
1, 131760, Note_on_c, 0, 74, 0
1, 131760, Note_on_c, 0, 59, 36
1, 132000, Note_on_c, 0, 59, 0
1, 132000, Note_on_c, 0, 74, 51
1, 132000, Note_on_c, 0, 62, 36
1, 132240, Tempo, 299865
1, 132240, Note_on_c, 0, 62, 0
1, 132240, Note_on_c, 0, 74, 0
1, 132240, Note_on_c, 0, 75, 54
1, 132240, Note_on_c, 0, 67, 36
1, 132480, Tempo, 306623
1, 132480, Note_on_c, 0, 67, 0
1, 132480, Note_on_c, 0, 75, 0
1, 132480, Note_on_c, 0, 72, 57
1, 132720, Tempo, 297295
1, 132720, Note_on_c, 0, 48, 38
1, 132960, Tempo, 306905
1, 132960, Note_on_c, 0, 48, 0
1, 132960, Note_on_c, 0, 72, 0
1, 132960, Note_on_c, 0, 51, 42
1, 133200, Note_on_c, 0, 51, 0
1, 133200, Note_on_c, 0, 55, 45
1, 133440, Tempo, 290051
1, 133440, Note_on_c, 0, 55, 0
1, 133440, Note_on_c, 0, 60, 49
1, 133920, Note_on_c, 0, 60, 0
1, 133920, Note_on_c, 0, 77, 56
1, 134160, Tempo, 321096
1, 134160, Note_on_c, 0, 77, 0
1, 134160, Note_on_c, 0, 79, 58
1, 134280, Tempo, 296457
1, 134400, Tempo, 289869
1, 134400, Note_on_c, 0, 79, 0
1, 134400, Note_on_c, 0, 68, 51
1, 134400, Note_on_c, 0, 80, 61
1, 134640, Tempo, 293643
1, 134640, Note_on_c, 0, 41, 43
1, 134880, Note_on_c, 0, 41, 0
1, 134880, Note_on_c, 0, 47, 45
1, 135120, Note_on_c, 0, 47, 0
1, 135120, Note_on_c, 0, 50, 47
1, 135360, Tempo, 288628
1, 135360, Note_on_c, 0, 50, 0
1, 135360, Note_on_c, 0, 80, 0
1, 135360, Note_on_c, 0, 68, 0
1, 135360, Note_on_c, 0, 74, 57
1, 135360, Note_on_c, 0, 53, 49
1, 135600, Note_on_c, 0, 53, 0
1, 135600, Note_on_c, 0, 56, 43
1, 135840, Note_on_c, 0, 56, 0
1, 135840, Note_on_c, 0, 74, 0
1, 135840, Note_on_c, 0, 75, 56
1, 135840, Note_on_c, 0, 55, 43
1, 136080, Tempo, 318150
1, 136080, Note_on_c, 0, 55, 0
1, 136080, Note_on_c, 0, 75, 0
1, 136080, Note_on_c, 0, 77, 58
1, 136080, Note_on_c, 0, 53, 43
1, 136200, Tempo, 296457
1, 136320, Tempo, 289869
1, 136320, Note_on_c, 0, 53, 0
1, 136320, Note_on_c, 0, 77, 0
1, 136320, Note_on_c, 0, 67, 51
1, 136320, Note_on_c, 0, 79, 61
1, 136560, Tempo, 293643
1, 136560, Note_on_c, 0, 39, 40
1, 136800, Note_on_c, 0, 39, 0
1, 136800, Note_on_c, 0, 43, 42
1, 137040, Note_on_c, 0, 43, 0
1, 137040, Note_on_c, 0, 48, 45
1, 137280, Tempo, 289324
1, 137280, Note_on_c, 0, 48, 0
1, 137280, Note_on_c, 0, 79, 0
1, 137280, Note_on_c, 0, 67, 0
1, 137280, Note_on_c, 0, 72, 57
1, 137280, Note_on_c, 0, 51, 48
1, 137520, Note_on_c, 0, 51, 0
1, 137520, Note_on_c, 0, 55, 40
1, 137750, Note_on_c, 0, 72, 0
1, 137760, Note_on_c, 0, 55, 0
1, 137760, Note_on_c, 0, 72, 58
1, 137760, Note_on_c, 0, 56, 39
1, 138000, Tempo, 298151
1, 138000, Note_on_c, 0, 56, 0
1, 138000, Note_on_c, 0, 72, 0
1, 138000, Note_on_c, 0, 74, 59
1, 138000, Note_on_c, 0, 54, 39
1, 138240, Tempo, 289869
1, 138240, Note_on_c, 0, 54, 0
1, 138240, Note_on_c, 0, 74, 0
1, 138240, Note_on_c, 0, 75, 62
1, 138240, Note_on_c, 0, 43, 48
1, 138480, Tempo, 292912
1, 138480, Note_on_c, 0, 43, 0
1, 138480, Note_on_c, 0, 75, 0
1, 138480, Note_on_c, 0, 55, 44
1, 138720, Note_on_c, 0, 55, 0
1, 138720, Note_on_c, 0, 75, 58
1, 138720, Note_on_c, 0, 60, 38
1, 138960, Note_on_c, 0, 60, 0
1, 138960, Note_on_c, 0, 75, 0
1, 138960, Note_on_c, 0, 77, 60
1, 138960, Note_on_c, 0, 55, 38
1, 139200, Tempo, 289324
1, 139200, Note_on_c, 0, 55, 0
1, 139200, Note_on_c, 0, 77, 0
1, 139200, Note_on_c, 0, 74, 62
1, 139200, Note_on_c, 0, 43, 48
1, 139440, Tempo, 292198
1, 139440, Note_on_c, 0, 43, 0
1, 139440, Note_on_c, 0, 74, 0
1, 139440, Note_on_c, 0, 55, 39
1, 139680, Note_on_c, 0, 55, 0
1, 139680, Note_on_c, 0, 74, 56
1, 139680, Note_on_c, 0, 59, 39
1, 139920, Tempo, 299865
1, 139920, Note_on_c, 0, 59, 0
1, 139920, Note_on_c, 0, 74, 0
1, 139920, Note_on_c, 0, 75, 59
1, 139920, Note_on_c, 0, 55, 39
1, 140160, Tempo, 306623
1, 140160, Note_on_c, 0, 55, 0
1, 140160, Note_on_c, 0, 75, 0
1, 140160, Note_on_c, 0, 72, 62
1, 140160, Note_on_c, 0, 48, 52
1, 140400, Tempo, 297295
1, 140400, Note_on_c, 0, 48, 0
1, 140400, Note_on_c, 0, 72, 0
1, 140400, Note_on_c, 0, 60, 45
1, 140640, Tempo, 306905
1, 140640, Note_on_c, 0, 60, 0
1, 140640, Note_on_c, 0, 82, 74
1, 140640, Note_on_c, 0, 59, 45
1, 140880, Note_on_c, 0, 59, 0
1, 140880, Note_on_c, 0, 60, 45
1, 141120, Note_on_c, 0, 60, 0
1, 141120, Note_on_c, 0, 52, 52
1, 141360, Note_on_c, 0, 52, 0
1, 141360, Note_on_c, 0, 60, 48
1, 141600, Note_on_c, 0, 60, 0
1, 141600, Note_on_c, 0, 82, 0
1, 141600, Note_on_c, 0, 82, 73
1, 141600, Note_on_c, 0, 55, 48
1, 141840, Note_on_c, 0, 55, 0
1, 141840, Note_on_c, 0, 60, 48
1, 142080, Note_on_c, 0, 60, 0
1, 142080, Note_on_c, 0, 53, 53
1, 142320, Note_on_c, 0, 53, 0
1, 142320, Note_on_c, 0, 82, 0
1, 142320, Note_on_c, 0, 80, 71
1, 142320, Note_on_c, 0, 60, 49
1, 142560, Tempo, 289869
1, 142560, Note_on_c, 0, 60, 0
1, 142560, Note_on_c, 0, 80, 0
1, 142560, Note_on_c, 0, 79, 72
1, 142560, Note_on_c, 0, 56, 50
1, 142800, Note_on_c, 0, 56, 0
1, 142800, Note_on_c, 0, 79, 0
1, 142800, Note_on_c, 0, 77, 72
1, 142800, Note_on_c, 0, 60, 49
1, 143040, Note_on_c, 0, 60, 0
1, 143040, Note_on_c, 0, 77, 0
1, 143040, Note_on_c, 0, 75, 71
1, 143040, Note_on_c, 0, 55, 54
1, 143280, Note_on_c, 0, 55, 0
1, 143280, Note_on_c, 0, 75, 0
1, 143280, Note_on_c, 0, 74, 71
1, 143280, Note_on_c, 0, 65, 52
1, 143520, Note_on_c, 0, 65, 0
1, 143520, Note_on_c, 0, 74, 0
1, 143520, Note_on_c, 0, 72, 71
1, 143520, Note_on_c, 0, 59, 43
1, 143760, Note_on_c, 0, 59, 0
1, 143760, Note_on_c, 0, 72, 0
1, 143760, Note_on_c, 0, 71, 71
1, 143760, Note_on_c, 0, 65, 50
1, 144000, Tempo, 306623
1, 144000, Note_on_c, 0, 65, 0
1, 144000, Note_on_c, 0, 71, 0
1, 144000, Note_on_c, 0, 72, 73
1, 144000, Note_on_c, 0, 56, 54
1, 144240, Tempo, 297295
1, 144240, Note_on_c, 0, 56, 0
1, 144240, Note_on_c, 0, 72, 0
1, 144240, Note_on_c, 0, 63, 47
1, 144480, Tempo, 306905
1, 144480, Note_on_c, 0, 63, 0
1, 144480, Note_on_c, 0, 72, 67
1, 144480, Note_on_c, 0, 84, 79
1, 144480, Note_on_c, 0, 60, 47
1, 144720, Note_on_c, 0, 60, 0
1, 144720, Note_on_c, 0, 63, 47
1, 144960, Note_on_c, 0, 63, 0
1, 144960, Note_on_c, 0, 55, 62
1, 145200, Note_on_c, 0, 55, 0
1, 145200, Note_on_c, 0, 64, 54
1, 145440, Note_on_c, 0, 64, 0
1, 145440, Note_on_c, 0, 84, 0
1, 145440, Note_on_c, 0, 72, 0
1, 145440, Note_on_c, 0, 82, 80
1, 145440, Note_on_c, 0, 60, 55
1, 145680, Note_on_c, 0, 60, 0
1, 145680, Note_on_c, 0, 64, 55
1, 145920, Note_on_c, 0, 64, 0
1, 145920, Note_on_c, 0, 53, 64
1, 146160, Note_on_c, 0, 53, 0
1, 146160, Note_on_c, 0, 82, 0
1, 146160, Note_on_c, 0, 80, 81
1, 146160, Note_on_c, 0, 65, 57
1, 146400, Tempo, 289869
1, 146400, Note_on_c, 0, 65, 0
1, 146400, Note_on_c, 0, 80, 0
1, 146400, Note_on_c, 0, 79, 82
1, 146400, Note_on_c, 0, 60, 58
1, 146640, Note_on_c, 0, 60, 0
1, 146640, Note_on_c, 0, 79, 0
1, 146640, Note_on_c, 0, 77, 81
1, 146640, Note_on_c, 0, 65, 57
1, 146880, Note_on_c, 0, 65, 0
1, 146880, Note_on_c, 0, 77, 0
1, 146880, Note_on_c, 0, 75, 79
1, 146880, Note_on_c, 0, 55, 63
1, 147120, Note_on_c, 0, 55, 0
1, 147120, Note_on_c, 0, 75, 0
1, 147120, Note_on_c, 0, 74, 79
1, 147120, Note_on_c, 0, 67, 57
1, 147360, Note_on_c, 0, 67, 0
1, 147360, Note_on_c, 0, 74, 0
1, 147360, Note_on_c, 0, 72, 79
1, 147360, Note_on_c, 0, 55, 57
1, 147600, Note_on_c, 0, 55, 0
1, 147600, Note_on_c, 0, 72, 0
1, 147600, Note_on_c, 0, 71, 78
1, 147600, Note_on_c, 0, 67, 56
1, 147840, Tempo, 300375
1, 147840, Note_on_c, 0, 67, 0
1, 147840, Note_on_c, 0, 71, 0
1, 147840, Note_on_c, 0, 72, 89
1, 147840, Note_on_c, 0, 60, 68
1, 148080, Note_on_c, 0, 60, 0
1, 148080, Note_on_c, 0, 72, 0
1, 148320, Tempo, 305033
1, 148320, Note_on_c, 0, 74, 81
1, 148320, Note_on_c, 0, 55, 62
1, 148320, Note_on_c, 0, 59, 62
1, 148400, Note_on_c, 0, 74, 0
1, 148400, Note_on_c, 0, 75, 81
1, 148480, Note_on_c, 0, 75, 0
1, 148480, Note_on_c, 0, 74, 81
1, 148560, Note_on_c, 0, 74, 0
1, 148560, Note_on_c, 0, 59, 0
1, 148560, Note_on_c, 0, 55, 0
1, 148560, Note_on_c, 0, 75, 81
1, 148620, Note_on_c, 0, 75, 0
1, 148620, Note_on_c, 0, 74, 81
1, 148680, Note_on_c, 0, 74, 0
1, 148680, Note_on_c, 0, 72, 80
1, 148740, Note_on_c, 0, 72, 0
1, 148740, Note_on_c, 0, 74, 80
1, 148800, Tempo, 307409
1, 148800, Note_on_c, 0, 74, 0
1, 148800, Note_on_c, 0, 75, 92
1, 148800, Note_on_c, 0, 48, 62
1, 148800, Note_on_c, 0, 60, 62
1, 149040, Note_on_c, 0, 60, 0
1, 149040, Note_on_c, 0, 48, 0
1, 149040, Note_on_c, 0, 75, 0
1, 149280, Tempo, 319064
1, 149280, Note_on_c, 0, 71, 92
1, 149280, Note_on_c, 0, 74, 92
1, 149280, Note_on_c, 0, 83, 92
1, 149280, Note_on_c, 0, 43, 62
1, 149280, Note_on_c, 0, 55, 62
1, 149520, Note_on_c, 0, 55, 0
1, 149520, Note_on_c, 0, 83, 0
1, 149520, Note_on_c, 0, 71, 0
1, 149520, Note_on_c, 0, 74, 0
1, 149520, Note_on_c, 0, 43, 0
1, 149760, Note_on_c, 0, 72, 92
1, 149760, Note_on_c, 0, 75, 92
1, 149760, Note_on_c, 0, 84, 92
1, 149760, Note_on_c, 0, 36, 69
1, 149760, Note_on_c, 0, 48, 69
1, 150000, Note_on_c, 0, 48, 0
1, 150000, Note_on_c, 0, 84, 0
1, 150000, Note_on_c, 0, 72, 0
1, 150000, Note_on_c, 0, 75, 0
1, 150000, Note_on_c, 0, 36, 0
1, 150960, Note_on_c, 0, 44, 46
1, 151200, Note_on_c, 0, 44, 0
1, 151200, Note_on_c, 0, 48, 48
1, 151440, Note_on_c, 0, 48, 0
1, 151440, Note_on_c, 0, 51, 50
1, 151680, Note_on_c, 0, 51, 0
1, 151680, Note_on_c, 0, 60, 53
1, 151680, Note_on_c, 0, 56, 51
1, 152640, Note_on_c, 0, 56, 0
1, 152640, Note_on_c, 0, 60, 0
1, 152640, Note_on_c, 0, 65, 48
1, 152640, Note_on_c, 0, 49, 48
1, 153600, Note_on_c, 0, 49, 0
1, 153600, Note_on_c, 0, 65, 0
1, 153600, Note_on_c, 0, 58, 51
1, 153600, Note_on_c, 0, 55, 48
1, 154560, Note_on_c, 0, 55, 0
1, 154560, Note_on_c, 0, 58, 0
1, 154560, Note_on_c, 0, 63, 48
1, 154560, Note_on_c, 0, 48, 45
1, 155520, Note_on_c, 0, 48, 0
1, 155520, Note_on_c, 0, 63, 0
1, 155520, Note_on_c, 0, 56, 52
1, 155520, Note_on_c, 0, 53, 48
1, 156000, Note_on_c, 0, 53, 0
1, 156000, Note_on_c, 0, 46, 48
1, 156480, Note_on_c, 0, 56, 0
1, 156480, Note_on_c, 0, 61, 48
1, 156960, Note_on_c, 0, 61, 0
1, 156960, Note_on_c, 0, 46, 0
1, 156960, Note_on_c, 0, 60, 48
1, 156960, Note_on_c, 0, 48, 48
1, 157440, Note_on_c, 0, 48, 0
1, 157440, Note_on_c, 0, 60, 0
1, 157440, Note_on_c, 0, 58, 53
1, 157440, Note_on_c, 0, 49, 51
1, 157920, Note_on_c, 0, 49, 0
1, 157920, Note_on_c, 0, 58, 0
1, 157920, Note_on_c, 0, 56, 48
1, 157920, Note_on_c, 0, 50, 46
1, 158400, Note_on_c, 0, 50, 0
1, 158400, Note_on_c, 0, 56, 0
1, 158400, Note_on_c, 0, 55, 48
1, 158400, Note_on_c, 0, 51, 46
1, 158880, Note_on_c, 0, 51, 0
1, 158880, Note_on_c, 0, 55, 0
1, 158880, Note_on_c, 0, 39, 42
1, 159360, Note_on_c, 0, 39, 0
1, 159360, Note_on_c, 0, 44, 51
1, 159840, Note_on_c, 0, 72, 55
1, 160320, Note_on_c, 0, 44, 0
1, 160320, Note_on_c, 0, 49, 49
1, 160800, Note_on_c, 0, 72, 0
1, 160800, Note_on_c, 0, 65, 53
1, 161280, Note_on_c, 0, 49, 0
1, 161280, Note_on_c, 0, 43, 51
1, 161760, Note_on_c, 0, 65, 0
1, 161760, Note_on_c, 0, 70, 56
1, 162240, Note_on_c, 0, 43, 0
1, 162240, Note_on_c, 0, 48, 49
1, 162720, Note_on_c, 0, 70, 0
1, 162720, Note_on_c, 0, 63, 53
1, 163200, Note_on_c, 0, 48, 0
1, 163200, Note_on_c, 0, 41, 52
1, 163680, Note_on_c, 0, 63, 0
1, 163680, Note_on_c, 0, 68, 53
1, 164160, Note_on_c, 0, 68, 0
1, 164160, Note_on_c, 0, 41, 0
1, 164160, Note_on_c, 0, 67, 51
1, 164160, Note_on_c, 0, 43, 51
1, 164640, Note_on_c, 0, 43, 0
1, 164640, Note_on_c, 0, 67, 0
1, 164640, Note_on_c, 0, 65, 51
1, 164640, Note_on_c, 0, 44, 49
1, 165120, Note_on_c, 0, 44, 0
1, 165120, Note_on_c, 0, 65, 0
1, 165120, Note_on_c, 0, 63, 53
1, 165120, Note_on_c, 0, 45, 53
1, 165600, Note_on_c, 0, 45, 0
1, 165600, Note_on_c, 0, 63, 0
1, 165600, Note_on_c, 0, 62, 49
1, 165600, Note_on_c, 0, 46, 50
1, 166080, Note_on_c, 0, 46, 0
1, 166080, Note_on_c, 0, 62, 0
1, 166080, Note_on_c, 0, 65, 53
1, 166080, Note_on_c, 0, 39, 49
1, 166560, Note_on_c, 0, 39, 0
1, 166560, Note_on_c, 0, 65, 0
1, 166560, Note_on_c, 0, 63, 49
1, 167040, Note_on_c, 0, 63, 0
1, 167040, Note_on_c, 0, 72, 57
1, 167520, Note_on_c, 0, 56, 43
1, 167520, Note_on_c, 0, 60, 51
1, 168000, Note_on_c, 0, 72, 0
1, 168000, Note_on_c, 0, 65, 40
1, 168000, Note_on_c, 0, 77, 48
1, 168480, Note_on_c, 0, 60, 0
1, 168480, Note_on_c, 0, 56, 0
1, 168480, Note_on_c, 0, 49, 40
1, 168480, Note_on_c, 0, 53, 48
1, 168960, Note_on_c, 0, 65, 0
1, 168960, Note_on_c, 0, 77, 0
1, 168960, Note_on_c, 0, 70, 57
1, 169440, Note_on_c, 0, 49, 0
1, 169440, Note_on_c, 0, 53, 0
1, 169440, Note_on_c, 0, 55, 43
1, 169440, Note_on_c, 0, 58, 51
1, 169920, Note_on_c, 0, 70, 0
1, 169920, Note_on_c, 0, 63, 40
1, 169920, Note_on_c, 0, 75, 48
1, 170400, Note_on_c, 0, 58, 0
1, 170400, Note_on_c, 0, 55, 0
1, 170400, Note_on_c, 0, 48, 40
1, 170400, Note_on_c, 0, 51, 48
1, 170880, Note_on_c, 0, 75, 0
1, 170880, Note_on_c, 0, 68, 52
1, 171360, Note_on_c, 0, 63, 0
1, 171360, Note_on_c, 0, 51, 0
1, 171360, Note_on_c, 0, 48, 0
1, 171360, Note_on_c, 0, 60, 48
1, 171360, Note_on_c, 0, 53, 43
1, 171360, Note_on_c, 0, 56, 51
1, 171840, Note_on_c, 0, 56, 0
1, 171840, Note_on_c, 0, 68, 0
1, 171840, Note_on_c, 0, 60, 0
1, 171840, Note_on_c, 0, 53, 0
1, 171840, Note_on_c, 0, 65, 45
1, 171840, Note_on_c, 0, 73, 53
1, 171840, Note_on_c, 0, 46, 51
1, 172320, Note_on_c, 0, 46, 0
1, 172320, Note_on_c, 0, 73, 0
1, 172320, Note_on_c, 0, 65, 0
1, 172320, Note_on_c, 0, 63, 40
1, 172320, Note_on_c, 0, 72, 48
1, 172320, Note_on_c, 0, 48, 51
1, 172800, Note_on_c, 0, 48, 0
1, 172800, Note_on_c, 0, 72, 0
1, 172800, Note_on_c, 0, 63, 0
1, 172800, Note_on_c, 0, 61, 40
1, 172800, Note_on_c, 0, 70, 53
1, 172800, Note_on_c, 0, 49, 49
1, 173280, Note_on_c, 0, 49, 0
1, 173280, Note_on_c, 0, 70, 0
1, 173280, Note_on_c, 0, 61, 0
1, 173280, Note_on_c, 0, 60, 40
1, 173280, Note_on_c, 0, 68, 48
1, 173280, Note_on_c, 0, 50, 49
1, 173760, Note_on_c, 0, 50, 0
1, 173760, Note_on_c, 0, 68, 0
1, 173760, Note_on_c, 0, 60, 0
1, 173760, Note_on_c, 0, 58, 40
1, 173760, Note_on_c, 0, 67, 48
1, 173760, Note_on_c, 0, 51, 49
1, 174240, Note_on_c, 0, 51, 0
1, 174240, Note_on_c, 0, 67, 0
1, 174240, Note_on_c, 0, 58, 0
1, 174240, Note_on_c, 0, 63, 48
1, 174720, Note_on_c, 0, 63, 0
1, 174720, Note_on_c, 0, 60, 51
1, 174720, Note_on_c, 0, 56, 43
1, 175200, Note_on_c, 0, 72, 46
1, 175200, Note_on_c, 0, 84, 55
1, 175680, Note_on_c, 0, 56, 0
1, 175680, Note_on_c, 0, 60, 0
1, 175680, Note_on_c, 0, 65, 50
1, 175680, Note_on_c, 0, 61, 42
1, 176160, Note_on_c, 0, 72, 0
1, 176160, Note_on_c, 0, 84, 0
1, 176160, Note_on_c, 0, 77, 55
1, 176640, Note_on_c, 0, 65, 0
1, 176640, Note_on_c, 0, 61, 0
1, 176640, Note_on_c, 0, 58, 54
1, 176640, Note_on_c, 0, 55, 46
1, 177120, Note_on_c, 0, 77, 0
1, 177120, Note_on_c, 0, 70, 51
1, 177120, Note_on_c, 0, 82, 61
1, 177600, Note_on_c, 0, 55, 0
1, 177600, Note_on_c, 0, 58, 0
1, 177600, Note_on_c, 0, 63, 54
1, 177600, Note_on_c, 0, 60, 45
1, 178080, Note_on_c, 0, 70, 0
1, 178080, Note_on_c, 0, 82, 0
1, 178080, Note_on_c, 0, 75, 59
1, 178560, Note_on_c, 0, 63, 0
1, 178560, Note_on_c, 0, 60, 0
1, 178560, Note_on_c, 0, 72, 51
1, 178560, Note_on_c, 0, 53, 59
1, 179040, Note_on_c, 0, 75, 0
1, 179040, Note_on_c, 0, 80, 61
1, 179520, Note_on_c, 0, 80, 0
1, 179520, Note_on_c, 0, 53, 0
1, 179520, Note_on_c, 0, 72, 0
1, 179520, Note_on_c, 0, 70, 50
1, 179520, Note_on_c, 0, 79, 60
1, 179520, Note_on_c, 0, 55, 60
1, 180000, Note_on_c, 0, 55, 0
1, 180000, Note_on_c, 0, 79, 0
1, 180000, Note_on_c, 0, 70, 0
1, 180000, Note_on_c, 0, 68, 51
1, 180000, Note_on_c, 0, 77, 61
1, 180000, Note_on_c, 0, 56, 58
1, 180480, Note_on_c, 0, 56, 0
1, 180480, Note_on_c, 0, 77, 0
1, 180480, Note_on_c, 0, 68, 0
1, 180480, Note_on_c, 0, 67, 54
1, 180480, Note_on_c, 0, 75, 64
1, 180480, Note_on_c, 0, 57, 64
1, 180960, Note_on_c, 0, 57, 0
1, 180960, Note_on_c, 0, 75, 0
1, 180960, Note_on_c, 0, 67, 0
1, 180960, Note_on_c, 0, 65, 50
1, 180960, Note_on_c, 0, 74, 60
1, 180960, Note_on_c, 0, 58, 62
1, 181440, Note_on_c, 0, 58, 0
1, 181440, Note_on_c, 0, 74, 0
1, 181440, Note_on_c, 0, 65, 0
1, 181440, Note_on_c, 0, 68, 56
1, 181440, Note_on_c, 0, 77, 66
1, 181440, Note_on_c, 0, 51, 61
1, 181920, Note_on_c, 0, 51, 0
1, 181920, Note_on_c, 0, 77, 0
1, 181920, Note_on_c, 0, 68, 0
1, 181920, Note_on_c, 0, 67, 52
1, 181920, Note_on_c, 0, 75, 62
1, 181920, Note_on_c, 0, 63, 64
1, 182400, Note_on_c, 0, 63, 0
1, 182400, Note_on_c, 0, 75, 0
1, 182400, Note_on_c, 0, 67, 0
1, 182400, Note_on_c, 0, 62, 65
1, 182880, Note_on_c, 0, 62, 0
1, 182880, Note_on_c, 0, 63, 65
1, 183360, Note_on_c, 0, 63, 0
1, 183360, Note_on_c, 0, 66, 65
1, 183840, Note_on_c, 0, 66, 0
1, 183840, Note_on_c, 0, 75, 65
1, 183840, Note_on_c, 0, 57, 61
1, 184320, Note_on_c, 0, 57, 0
1, 184320, Note_on_c, 0, 75, 0
1, 184320, Note_on_c, 0, 72, 68
1, 184320, Note_on_c, 0, 58, 62
1, 184560, Note_on_c, 0, 58, 0
1, 184800, Note_on_c, 0, 72, 0
1, 184800, Note_on_c, 0, 73, 65
1, 185280, Note_on_c, 0, 73, 0
1, 185280, Note_on_c, 0, 77, 67
1, 185760, Note_on_c, 0, 77, 0
1, 185760, Note_on_c, 0, 67, 63
1, 185760, Note_on_c, 0, 61, 65
1, 185760, Note_on_c, 0, 51, 54
1, 186240, Note_on_c, 0, 51, 0
1, 186240, Note_on_c, 0, 61, 0
1, 186240, Note_on_c, 0, 67, 0
1, 186240, Note_on_c, 0, 70, 68
1, 186240, Note_on_c, 0, 60, 62
1, 186240, Note_on_c, 0, 56, 62
1, 186720, Note_on_c, 0, 56, 0
1, 186720, Note_on_c, 0, 60, 0
1, 186720, Note_on_c, 0, 70, 0
1, 186720, Note_on_c, 0, 68, 65
1, 187200, Note_on_c, 0, 68, 0
1, 187200, Note_on_c, 0, 72, 67
1, 187680, Note_on_c, 0, 72, 0
1, 187680, Note_on_c, 0, 62, 65
1, 187680, Note_on_c, 0, 46, 53
1, 187680, Note_on_c, 0, 56, 63
1, 188160, Note_on_c, 0, 56, 0
1, 188160, Note_on_c, 0, 46, 0
1, 188160, Note_on_c, 0, 62, 0
1, 188160, Note_on_c, 0, 63, 65
1, 188160, Note_on_c, 0, 51, 63
1, 188160, Note_on_c, 0, 55, 63
1, 188400, Note_on_c, 0, 63, 0
1, 188640, Note_on_c, 0, 55, 0
1, 188640, Note_on_c, 0, 51, 0
1, 188640, Note_on_c, 0, 82, 61
1, 189120, Tempo, 311964
1, 189120, Note_on_c, 0, 82, 0
1, 189120, Note_on_c, 0, 87, 66
1, 189360, Note_on_c, 0, 75, 49
1, 189480, Note_on_c, 0, 75, 0
1, 189600, Note_on_c, 0, 87, 0
1, 189600, Note_on_c, 0, 85, 62
1, 189600, Note_on_c, 0, 77, 49
1, 189720, Note_on_c, 0, 77, 0
1, 189840, Note_on_c, 0, 79, 49
1, 189960, Note_on_c, 0, 79, 0
1, 190080, Tempo, 310398
1, 190080, Note_on_c, 0, 85, 0
1, 190080, Note_on_c, 0, 84, 69
1, 190080, Note_on_c, 0, 80, 49
1, 190320, Note_on_c, 0, 80, 0
1, 190320, Note_on_c, 0, 79, 49
1, 190400, Tempo, 309613
1, 190560, Note_on_c, 0, 79, 0
1, 190560, Note_on_c, 0, 77, 49
1, 190720, Tempo, 308849
1, 190800, Note_on_c, 0, 77, 0
1, 190800, Note_on_c, 0, 75, 49
1, 191040, Tempo, 308071
1, 191040, Note_on_c, 0, 75, 0
1, 191040, Note_on_c, 0, 84, 0
1, 191040, Note_on_c, 0, 89, 70
1, 191040, Note_on_c, 0, 73, 49
1, 191280, Note_on_c, 0, 73, 0
1, 191280, Note_on_c, 0, 72, 49
1, 191360, Tempo, 307298
1, 191520, Note_on_c, 0, 72, 0
1, 191520, Note_on_c, 0, 70, 49
1, 191680, Tempo, 306560
1, 191760, Note_on_c, 0, 70, 0
1, 191760, Note_on_c, 0, 68, 49
1, 191960, Tempo, 305795
1, 192000, Note_on_c, 0, 68, 0
1, 192000, Note_on_c, 0, 89, 0
1, 192000, Note_on_c, 0, 82, 70
1, 192000, Note_on_c, 0, 67, 49
1, 192240, Note_on_c, 0, 67, 0
1, 192240, Note_on_c, 0, 65, 49
1, 192480, Note_on_c, 0, 65, 0
1, 192480, Note_on_c, 0, 63, 49
1, 192720, Note_on_c, 0, 63, 0
1, 192720, Note_on_c, 0, 61, 49
1, 192960, Note_on_c, 0, 61, 0
1, 192960, Note_on_c, 0, 82, 0
1, 192960, Note_on_c, 0, 87, 67
1, 192960, Note_on_c, 0, 60, 49
1, 193200, Note_on_c, 0, 60, 0
1, 193200, Note_on_c, 0, 58, 49
1, 193440, Note_on_c, 0, 58, 0
1, 193440, Note_on_c, 0, 56, 49
1, 193680, Note_on_c, 0, 56, 0
1, 193680, Note_on_c, 0, 55, 49
1, 193920, Note_on_c, 0, 55, 0
1, 193920, Note_on_c, 0, 87, 0
1, 193920, Note_on_c, 0, 80, 70
1, 193920, Note_on_c, 0, 53, 51
1, 194160, Note_on_c, 0, 53, 0
1, 194160, Note_on_c, 0, 51, 51
1, 194360, Tempo, 299865
1, 194400, Note_on_c, 0, 51, 0
1, 194400, Note_on_c, 0, 49, 52
1, 194640, Note_on_c, 0, 49, 0
1, 194640, Note_on_c, 0, 48, 53
1, 194880, Note_on_c, 0, 48, 0
1, 194880, Note_on_c, 0, 80, 0
1, 194880, Note_on_c, 0, 73, 72
1, 194880, Note_on_c, 0, 85, 72
1, 194880, Note_on_c, 0, 46, 53
1, 195120, Note_on_c, 0, 46, 0
1, 195120, Note_on_c, 0, 85, 0
1, 195120, Note_on_c, 0, 73, 0
1, 195120, Note_on_c, 0, 45, 54
1, 195360, Note_on_c, 0, 45, 0
1, 195360, Note_on_c, 0, 84, 73
1, 195360, Note_on_c, 0, 72, 73
1, 195360, Note_on_c, 0, 46, 55
1, 195600, Note_on_c, 0, 46, 0
1, 195600, Note_on_c, 0, 72, 0
1, 195600, Note_on_c, 0, 84, 0
1, 195600, Note_on_c, 0, 48, 55
1, 195840, Note_on_c, 0, 48, 0
1, 195840, Note_on_c, 0, 70, 75
1, 195840, Note_on_c, 0, 82, 75
1, 195840, Note_on_c, 0, 49, 55
1, 196080, Note_on_c, 0, 49, 0
1, 196080, Note_on_c, 0, 82, 0
1, 196080, Note_on_c, 0, 70, 0
1, 196080, Note_on_c, 0, 48, 56
1, 196320, Note_on_c, 0, 48, 0
1, 196320, Note_on_c, 0, 80, 77
1, 196320, Note_on_c, 0, 68, 77
1, 196320, Note_on_c, 0, 49, 57
1, 196560, Note_on_c, 0, 49, 0
1, 196560, Note_on_c, 0, 68, 0
1, 196560, Note_on_c, 0, 80, 0
1, 196560, Note_on_c, 0, 50, 58
1, 196800, Note_on_c, 0, 50, 0
1, 196800, Note_on_c, 0, 67, 79
1, 196800, Note_on_c, 0, 79, 79
1, 196800, Note_on_c, 0, 51, 59
1, 197040, Note_on_c, 0, 51, 0
1, 197040, Note_on_c, 0, 79, 0
1, 197040, Note_on_c, 0, 67, 0
1, 197040, Note_on_c, 0, 53, 60
1, 197280, Note_on_c, 0, 53, 0
1, 197280, Note_on_c, 0, 73, 80
1, 197280, Note_on_c, 0, 54, 61
1, 197520, Note_on_c, 0, 54, 0
1, 197520, Note_on_c, 0, 73, 0
1, 197520, Note_on_c, 0, 55, 62
1, 197740, Tempo, 298404
1, 197760, Note_on_c, 0, 55, 0
1, 197760, Note_on_c, 0, 84, 80
1, 197760, Note_on_c, 0, 44, 76
1, 198000, Note_on_c, 0, 84, 0
1, 198000, Note_on_c, 0, 82, 79
1, 198240, Note_on_c, 0, 82, 0
1, 198240, Note_on_c, 0, 80, 79
1, 198480, Note_on_c, 0, 80, 0
1, 198480, Note_on_c, 0, 79, 78
1, 198720, Note_on_c, 0, 79, 0
1, 198720, Note_on_c, 0, 44, 0
1, 198720, Note_on_c, 0, 77, 77
1, 198720, Note_on_c, 0, 49, 72
1, 198960, Note_on_c, 0, 77, 0
1, 198960, Note_on_c, 0, 75, 76
1, 199020, Tempo, 297678
1, 199200, Note_on_c, 0, 75, 0
1, 199200, Note_on_c, 0, 73, 76
1, 199440, Note_on_c, 0, 73, 0
1, 199440, Note_on_c, 0, 72, 76
1, 199680, Note_on_c, 0, 72, 0
1, 199680, Note_on_c, 0, 49, 0
1, 199680, Note_on_c, 0, 70, 77
1, 199680, Note_on_c, 0, 43, 77
1, 199920, Note_on_c, 0, 70, 0
1, 199920, Note_on_c, 0, 68, 77
1, 200160, Note_on_c, 0, 68, 0
1, 200160, Note_on_c, 0, 67, 77
1, 200260, Tempo, 296971
1, 200400, Note_on_c, 0, 67, 0
1, 200400, Note_on_c, 0, 65, 77
1, 200640, Note_on_c, 0, 65, 0
1, 200640, Note_on_c, 0, 43, 0
1, 200640, Note_on_c, 0, 64, 77
1, 200640, Note_on_c, 0, 48, 71
1, 200880, Note_on_c, 0, 64, 0
1, 200880, Note_on_c, 0, 61, 76
1, 201120, Note_on_c, 0, 61, 0
1, 201120, Note_on_c, 0, 60, 76
1, 201360, Note_on_c, 0, 60, 0
1, 201360, Note_on_c, 0, 58, 75
1, 201540, Tempo, 296252
1, 201600, Note_on_c, 0, 58, 0
1, 201600, Note_on_c, 0, 48, 0
1, 201600, Note_on_c, 0, 56, 75
1, 201600, Note_on_c, 0, 41, 76
1, 201840, Note_on_c, 0, 56, 0
1, 201840, Note_on_c, 0, 55, 74
1, 202080, Note_on_c, 0, 55, 0
1, 202080, Note_on_c, 0, 53, 73
1, 202320, Note_on_c, 0, 53, 0
1, 202320, Note_on_c, 0, 52, 71
1, 202560, Note_on_c, 0, 52, 0
1, 202560, Note_on_c, 0, 41, 0
1, 202560, Note_on_c, 0, 53, 70
1, 202560, Note_on_c, 0, 29, 76
1, 202560, Note_on_c, 0, 41, 76
1, 202780, Tempo, 295537
1, 202800, Note_on_c, 0, 53, 0
1, 202800, Note_on_c, 0, 55, 72
1, 203040, Note_on_c, 0, 55, 0
1, 203040, Note_on_c, 0, 56, 74
1, 203280, Note_on_c, 0, 56, 0
1, 203280, Note_on_c, 0, 55, 71
1, 203520, Note_on_c, 0, 55, 0
1, 203520, Note_on_c, 0, 53, 73
1, 203760, Note_on_c, 0, 53, 0
1, 203760, Note_on_c, 0, 51, 72
1, 204000, Note_on_c, 0, 51, 0
1, 204000, Note_on_c, 0, 50, 71
1, 204060, Tempo, 294840
1, 204240, Note_on_c, 0, 50, 0
1, 204240, Note_on_c, 0, 48, 70
1, 204480, Note_on_c, 0, 48, 0
1, 204480, Note_on_c, 0, 41, 0
1, 204480, Note_on_c, 0, 29, 0
1, 204480, Note_on_c, 0, 47, 67
1, 204480, Note_on_c, 0, 30, 75
1, 204480, Note_on_c, 0, 42, 75
1, 204720, Note_on_c, 0, 47, 0
1, 204720, Note_on_c, 0, 48, 69
1, 204960, Note_on_c, 0, 48, 0
1, 204960, Note_on_c, 0, 50, 71
1, 205200, Note_on_c, 0, 50, 0
1, 205200, Note_on_c, 0, 48, 70
1, 205300, Tempo, 294132
1, 205420, Tempo, 292056
1, 205440, Note_on_c, 0, 48, 0
1, 205440, Note_on_c, 0, 42, 0
1, 205440, Note_on_c, 0, 30, 0
1, 205440, Note_on_c, 0, 31, 75
1, 205500, Tempo, 291361
1, 205560, Note_on_c, 0, 43, 56
1, 205580, Tempo, 290684
1, 205660, Tempo, 289995
1, 205680, Note_on_c, 0, 43, 0
1, 205680, Note_on_c, 0, 47, 56
1, 205700, Tempo, 289310
1, 205780, Tempo, 288642
1, 205800, Note_on_c, 0, 47, 0
1, 205800, Note_on_c, 0, 50, 56
1, 205860, Tempo, 287963
1, 205900, Tempo, 287301
1, 205920, Note_on_c, 0, 50, 0
1, 205920, Note_on_c, 0, 31, 0
1, 205920, Note_on_c, 0, 55, 69
1, 205980, Tempo, 287963
1, 206040, Note_on_c, 0, 55, 0
1, 206060, Tempo, 288642
1, 206140, Tempo, 289310
1, 206160, Note_on_c, 0, 38, 54
1, 206220, Tempo, 289995
1, 206280, Note_on_c, 0, 38, 0
1, 206280, Note_on_c, 0, 35, 55
1, 206300, Tempo, 290684
1, 206340, Tempo, 292056
1, 206400, Note_on_c, 0, 35, 0
1, 206400, Note_on_c, 0, 31, 67
1, 206420, Tempo, 291361
1, 206500, Tempo, 290684
1, 206520, Note_on_c, 0, 31, 0
1, 206520, Note_on_c, 0, 43, 58
1, 206580, Tempo, 289995
1, 206640, Note_on_c, 0, 43, 0
1, 206640, Note_on_c, 0, 48, 58
1, 206660, Tempo, 289310
1, 206740, Tempo, 288642
1, 206760, Note_on_c, 0, 48, 0
1, 206760, Note_on_c, 0, 51, 58
1, 206820, Tempo, 287963
1, 206860, Tempo, 287301
1, 206880, Note_on_c, 0, 51, 0
1, 206880, Note_on_c, 0, 55, 70
1, 206940, Tempo, 287963
1, 206980, Tempo, 288642
1, 207000, Note_on_c, 0, 55, 0
1, 207060, Tempo, 289310
1, 207100, Tempo, 289995
1, 207120, Note_on_c, 0, 39, 55
1, 207180, Tempo, 290684
1, 207220, Tempo, 291361
1, 207240, Note_on_c, 0, 39, 0
1, 207240, Note_on_c, 0, 36, 55
1, 207300, Tempo, 292056
1, 207340, Tempo, 292754
1, 207360, Note_on_c, 0, 36, 0
1, 207360, Note_on_c, 0, 31, 69
1, 207420, Tempo, 292056
1, 207480, Note_on_c, 0, 31, 0
1, 207480, Note_on_c, 0, 43, 60
1, 207500, Tempo, 291361
1, 207580, Tempo, 290684
1, 207600, Note_on_c, 0, 43, 0
1, 207600, Note_on_c, 0, 50, 60
1, 207660, Tempo, 289995
1, 207720, Note_on_c, 0, 50, 0
1, 207720, Note_on_c, 0, 53, 60
1, 207740, Tempo, 289310
1, 207820, Tempo, 287963
1, 207840, Note_on_c, 0, 53, 0
1, 207840, Note_on_c, 0, 55, 71
1, 207900, Tempo, 288642
1, 207940, Tempo, 289310
1, 207960, Note_on_c, 0, 55, 0
1, 208020, Tempo, 289995
1, 208060, Tempo, 290684
1, 208080, Note_on_c, 0, 41, 57
1, 208140, Tempo, 291361
1, 208180, Tempo, 292056
1, 208200, Note_on_c, 0, 41, 0
1, 208200, Note_on_c, 0, 38, 57
1, 208220, Tempo, 292754
1, 208300, Tempo, 292754
1, 208320, Note_on_c, 0, 38, 0
1, 208320, Note_on_c, 0, 31, 70
1, 208380, Tempo, 292056
1, 208440, Note_on_c, 0, 31, 0
1, 208440, Note_on_c, 0, 43, 61
1, 208460, Tempo, 291361
1, 208540, Tempo, 290684
1, 208560, Note_on_c, 0, 43, 0
1, 208560, Note_on_c, 0, 48, 61
1, 208580, Tempo, 289995
1, 208660, Tempo, 289310
1, 208680, Note_on_c, 0, 48, 0
1, 208680, Note_on_c, 0, 51, 61
1, 208740, Tempo, 288642
1, 208780, Tempo, 287301
1, 208800, Note_on_c, 0, 51, 0
1, 208800, Note_on_c, 0, 55, 71
1, 208860, Tempo, 287963
1, 208920, Note_on_c, 0, 55, 0
1, 208940, Tempo, 288642
1, 208980, Tempo, 289310
1, 209040, Note_on_c, 0, 39, 59
1, 209060, Tempo, 289995
1, 209100, Tempo, 290684
1, 209160, Note_on_c, 0, 39, 0
1, 209160, Note_on_c, 0, 36, 59
1, 209180, Tempo, 291361
1, 209220, Tempo, 292056
1, 209260, Tempo, 292056
1, 209280, Note_on_c, 0, 36, 0
1, 209280, Note_on_c, 0, 31, 81
1, 209340, Tempo, 291361
1, 209400, Note_on_c, 0, 31, 0
1, 209400, Note_on_c, 0, 55, 60
1, 209420, Tempo, 290684
1, 209500, Tempo, 289995
1, 209520, Note_on_c, 0, 55, 0
1, 209520, Note_on_c, 0, 59, 60
1, 209580, Tempo, 289310
1, 209640, Note_on_c, 0, 59, 0
1, 209640, Note_on_c, 0, 62, 60
1, 209660, Tempo, 288642
1, 209740, Tempo, 287963
1, 209760, Note_on_c, 0, 62, 0
1, 209760, Note_on_c, 0, 67, 76
1, 209780, Tempo, 287301
1, 209860, Tempo, 287963
1, 209880, Note_on_c, 0, 67, 0
1, 209900, Tempo, 288642
1, 209980, Tempo, 289310
1, 210000, Note_on_c, 0, 50, 59
1, 210020, Tempo, 289995
1, 210100, Tempo, 290684
1, 210120, Note_on_c, 0, 50, 0
1, 210120, Note_on_c, 0, 47, 59
1, 210140, Tempo, 291361
1, 210180, Tempo, 292056
1, 210240, Note_on_c, 0, 47, 0
1, 210240, Note_on_c, 0, 43, 74
1, 210260, Tempo, 292056
1, 210360, Note_on_c, 0, 43, 0
1, 210360, Note_on_c, 0, 55, 64
1, 210380, Tempo, 291361
1, 210460, Tempo, 290684
1, 210480, Note_on_c, 0, 55, 0
1, 210480, Note_on_c, 0, 60, 64
1, 210540, Tempo, 289995
1, 210600, Note_on_c, 0, 60, 0
1, 210600, Note_on_c, 0, 63, 64
1, 210620, Tempo, 289310
1, 210700, Tempo, 288642
1, 210720, Note_on_c, 0, 63, 0
1, 210720, Note_on_c, 0, 67, 76
1, 210780, Tempo, 289310
1, 210820, Tempo, 289995
1, 210840, Note_on_c, 0, 67, 0
1, 210900, Tempo, 290684
1, 210940, Tempo, 291361
1, 210960, Note_on_c, 0, 51, 59
1, 210980, Tempo, 292056
1, 211060, Tempo, 292754
1, 211080, Note_on_c, 0, 51, 0
1, 211080, Note_on_c, 0, 48, 59
1, 211100, Tempo, 293442
1, 211140, Tempo, 293442
1, 211200, Note_on_c, 0, 48, 0
1, 211200, Note_on_c, 0, 43, 76
1, 211220, Tempo, 292754
1, 211300, Tempo, 292056
1, 211320, Note_on_c, 0, 43, 0
1, 211320, Note_on_c, 0, 55, 66
1, 211340, Tempo, 291361
1, 211420, Tempo, 290684
1, 211440, Note_on_c, 0, 55, 0
1, 211440, Note_on_c, 0, 62, 66
1, 211500, Tempo, 289995
1, 211540, Tempo, 289310
1, 211560, Note_on_c, 0, 62, 0
1, 211560, Note_on_c, 0, 65, 66
1, 211620, Tempo, 288642
1, 211660, Tempo, 287963
1, 211680, Note_on_c, 0, 65, 0
1, 211680, Note_on_c, 0, 67, 77
1, 211780, Tempo, 288642
1, 211800, Note_on_c, 0, 67, 0
1, 211860, Tempo, 289310
1, 211920, Note_on_c, 0, 53, 62
1, 211940, Tempo, 289995
1, 212020, Tempo, 290684
1, 212040, Note_on_c, 0, 53, 0
1, 212040, Note_on_c, 0, 50, 62
1, 212100, Tempo, 291361
1, 212140, Tempo, 292754
1, 212160, Note_on_c, 0, 50, 0
1, 212160, Note_on_c, 0, 43, 76
1, 212260, Tempo, 292056
1, 212280, Note_on_c, 0, 43, 0
1, 212280, Note_on_c, 0, 55, 67
1, 212340, Tempo, 291361
1, 212400, Note_on_c, 0, 55, 0
1, 212400, Note_on_c, 0, 60, 67
1, 212420, Tempo, 290684
1, 212500, Tempo, 289995
1, 212520, Note_on_c, 0, 60, 0
1, 212520, Note_on_c, 0, 63, 67
1, 212580, Tempo, 289310
1, 212640, Note_on_c, 0, 63, 0
1, 212640, Note_on_c, 0, 67, 77
1, 212660, Tempo, 288642
1, 212740, Tempo, 289310
1, 212760, Note_on_c, 0, 67, 0
1, 212820, Tempo, 289995
1, 212860, Tempo, 290684
1, 212880, Note_on_c, 0, 51, 65
1, 212940, Tempo, 291361
1, 212980, Tempo, 292056
1, 213000, Note_on_c, 0, 51, 0
1, 213000, Note_on_c, 0, 48, 65
1, 213060, Tempo, 292754
1, 213100, Tempo, 293442
1, 213120, Note_on_c, 0, 48, 0
1, 213120, Note_on_c, 0, 43, 88
1, 213140, Tempo, 293442
1, 213220, Tempo, 292754
1, 213240, Note_on_c, 0, 43, 0
1, 213240, Note_on_c, 0, 67, 72
1, 213300, Tempo, 292056
1, 213340, Tempo, 291361
1, 213360, Note_on_c, 0, 67, 0
1, 213360, Note_on_c, 0, 71, 72
1, 213420, Tempo, 290684
1, 213460, Tempo, 289995
1, 213480, Note_on_c, 0, 71, 0
1, 213480, Note_on_c, 0, 74, 72
1, 213540, Tempo, 289310
1, 213580, Tempo, 288642
1, 213600, Note_on_c, 0, 74, 0
1, 213600, Note_on_c, 0, 79, 89
1, 213660, Tempo, 289310
1, 213700, Tempo, 289995
1, 213720, Note_on_c, 0, 79, 0
1, 213740, Tempo, 290684
1, 213780, Tempo, 291361
1, 213840, Note_on_c, 0, 62, 70
1, 213860, Tempo, 292056
1, 213900, Tempo, 292754
1, 213940, Tempo, 293442
1, 213960, Note_on_c, 0, 62, 0
1, 213960, Note_on_c, 0, 59, 70
1, 213980, Tempo, 294132
1, 214060, Tempo, 294840
1, 214080, Note_on_c, 0, 59, 0
1, 214080, Note_on_c, 0, 55, 86
1, 214140, Tempo, 294132
1, 214200, Note_on_c, 0, 55, 0
1, 214200, Note_on_c, 0, 67, 75
1, 214220, Tempo, 293442
1, 214260, Tempo, 292754
1, 214320, Note_on_c, 0, 67, 0
1, 214320, Note_on_c, 0, 72, 75
1, 214340, Tempo, 292056
1, 214420, Tempo, 291361
1, 214440, Note_on_c, 0, 72, 0
1, 214440, Note_on_c, 0, 75, 75
1, 214460, Tempo, 290684
1, 214540, Tempo, 288642
1, 214560, Note_on_c, 0, 75, 0
1, 214560, Note_on_c, 0, 79, 88
1, 214620, Tempo, 289310
1, 214660, Tempo, 289995
1, 214680, Note_on_c, 0, 79, 0
1, 214740, Tempo, 290684
1, 214780, Tempo, 291361
1, 214800, Note_on_c, 0, 63, 68
1, 214820, Tempo, 292056
1, 214900, Tempo, 292754
1, 214920, Note_on_c, 0, 63, 0
1, 214920, Note_on_c, 0, 60, 68
1, 214940, Tempo, 293442
1, 214980, Tempo, 294132
1, 215040, Note_on_c, 0, 60, 0
1, 215040, Note_on_c, 0, 55, 86
1, 215100, Tempo, 294132
1, 215160, Note_on_c, 0, 55, 0
1, 215160, Note_on_c, 0, 67, 75
1, 215180, Tempo, 293442
1, 215220, Tempo, 292754
1, 215260, Tempo, 292056
1, 215280, Note_on_c, 0, 67, 0
1, 215280, Note_on_c, 0, 74, 75
1, 215300, Tempo, 291361
1, 215380, Tempo, 290684
1, 215400, Note_on_c, 0, 74, 0
1, 215400, Note_on_c, 0, 77, 75
1, 215420, Tempo, 289995
1, 215460, Tempo, 289310
1, 215500, Tempo, 288642
1, 215520, Note_on_c, 0, 77, 0
1, 215520, Note_on_c, 0, 79, 87
1, 215540, Tempo, 287963
1, 215620, Tempo, 288642
1, 215640, Note_on_c, 0, 79, 0
1, 215660, Tempo, 289310
1, 215700, Tempo, 289995
1, 215740, Tempo, 290684
1, 215760, Note_on_c, 0, 65, 70
1, 215820, Tempo, 291361
1, 215860, Tempo, 292056
1, 215880, Note_on_c, 0, 65, 0
1, 215880, Note_on_c, 0, 62, 70
1, 215900, Tempo, 292754
1, 215940, Tempo, 293442
1, 215980, Tempo, 294132
1, 216000, Note_on_c, 0, 62, 0
1, 216000, Note_on_c, 0, 55, 86
1, 216060, Tempo, 293442
1, 216120, Note_on_c, 0, 55, 0
1, 216120, Note_on_c, 0, 67, 75
1, 216140, Tempo, 292754
1, 216180, Tempo, 292056
1, 216240, Note_on_c, 0, 67, 0
1, 216240, Note_on_c, 0, 72, 75
1, 216260, Tempo, 291361
1, 216300, Tempo, 290684
1, 216360, Note_on_c, 0, 72, 0
1, 216360, Note_on_c, 0, 75, 75
1, 216380, Tempo, 289995
1, 216420, Tempo, 289310
1, 216480, Note_on_c, 0, 75, 0
1, 216480, Note_on_c, 0, 79, 86
1, 216500, Tempo, 289995
1, 216540, Tempo, 290684
1, 216600, Note_on_c, 0, 79, 0
1, 216620, Tempo, 291361
1, 216660, Tempo, 292056
1, 216720, Note_on_c, 0, 63, 71
1, 216740, Tempo, 292754
1, 216780, Tempo, 293442
1, 216840, Note_on_c, 0, 63, 0
1, 216840, Note_on_c, 0, 60, 71
1, 216860, Tempo, 294132
1, 216900, Tempo, 294840
1, 216940, Tempo, 295537
1, 216960, Note_on_c, 0, 60, 0
1, 216960, Note_on_c, 0, 55, 80
1, 217020, Tempo, 294840
1, 217080, Note_on_c, 0, 55, 0
1, 217100, Tempo, 294132
1, 217120, Note_on_c, 0, 67, 66
1, 217180, Tempo, 293442
1, 217260, Tempo, 292754
1, 217280, Note_on_c, 0, 67, 0
1, 217280, Note_on_c, 0, 66, 68
1, 217340, Tempo, 292056
1, 217420, Tempo, 291361
1, 217440, Note_on_c, 0, 66, 0
1, 217440, Note_on_c, 0, 67, 70
1, 217500, Tempo, 290684
1, 217509, Control_c, 0, 64, 127
1, 217580, Tempo, 289995
1, 217600, Note_on_c, 0, 67, 0
1, 217600, Note_on_c, 0, 71, 72
1, 217660, Tempo, 289310
1, 217740, Tempo, 288642
1, 217760, Note_on_c, 0, 71, 0
1, 217760, Note_on_c, 0, 74, 75
1, 217820, Tempo, 287963
1, 217860, Tempo, 286642
1, 217920, Note_on_c, 0, 74, 0
1, 217920, Note_on_c, 0, 79, 84
1, 217940, Tempo, 287301
1, 218020, Tempo, 287963
1, 218080, Note_on_c, 0, 79, 0
1, 218080, Note_on_c, 0, 74, 72
1, 218100, Tempo, 288642
1, 218180, Tempo, 289310
1, 218220, Tempo, 289995
1, 218240, Note_on_c, 0, 74, 0
1, 218240, Note_on_c, 0, 71, 64
1, 218300, Tempo, 290684
1, 218380, Tempo, 291361
1, 218400, Note_on_c, 0, 71, 0
1, 218400, Note_on_c, 0, 67, 70
1, 218400, Note_on_c, 0, 55, 67
1, 218460, Tempo, 292056
1, 218520, Note_on_c, 0, 67, 0
1, 218540, Tempo, 292754
1, 218560, Note_on_c, 0, 55, 0
1, 218560, Note_on_c, 0, 50, 67
1, 218580, Tempo, 293442
1, 218660, Tempo, 294132
1, 218720, Note_on_c, 0, 50, 0
1, 218720, Note_on_c, 0, 47, 66
1, 218740, Tempo, 294840
1, 218820, Tempo, 295537
1, 218860, Tempo, 296252
1, 218880, Note_on_c, 0, 47, 0
1, 218880, Note_on_c, 0, 43, 80
1, 218895, Control_c, 0, 64, 0
1, 218980, Tempo, 295537
1, 219040, Note_on_c, 0, 71, 66
1, 219060, Tempo, 294840
1, 219140, Tempo, 294132
1, 219200, Note_on_c, 0, 71, 0
1, 219200, Note_on_c, 0, 70, 68
1, 219220, Tempo, 293442
1, 219300, Tempo, 292754
1, 219360, Note_on_c, 0, 70, 0
1, 219360, Note_on_c, 0, 43, 0
1, 219360, Note_on_c, 0, 71, 70
1, 219380, Tempo, 292056
1, 219460, Tempo, 291361
1, 219486, Control_c, 0, 64, 127
1, 219520, Note_on_c, 0, 71, 0
1, 219520, Note_on_c, 0, 74, 72
1, 219540, Tempo, 290684
1, 219620, Tempo, 289995
1, 219680, Note_on_c, 0, 74, 0
1, 219680, Note_on_c, 0, 79, 75
1, 219700, Tempo, 289310
1, 219780, Tempo, 288642
1, 219840, Note_on_c, 0, 79, 0
1, 219840, Note_on_c, 0, 83, 84
1, 219860, Tempo, 287963
1, 219940, Tempo, 288642
1, 220000, Note_on_c, 0, 83, 0
1, 220000, Note_on_c, 0, 79, 72
1, 220020, Tempo, 289310
1, 220100, Tempo, 289995
1, 220160, Note_on_c, 0, 79, 0
1, 220160, Note_on_c, 0, 74, 64
1, 220180, Tempo, 290684
1, 220260, Tempo, 291361
1, 220320, Note_on_c, 0, 74, 0
1, 220320, Note_on_c, 0, 71, 70
1, 220320, Note_on_c, 0, 55, 67
1, 220340, Tempo, 292056
1, 220380, Tempo, 292754
1, 220440, Note_on_c, 0, 71, 0
1, 220460, Tempo, 293442
1, 220480, Note_on_c, 0, 55, 0
1, 220480, Note_on_c, 0, 50, 67
1, 220540, Tempo, 294132
1, 220620, Tempo, 294840
1, 220640, Note_on_c, 0, 50, 0
1, 220640, Note_on_c, 0, 47, 66
1, 220700, Tempo, 295537
1, 220780, Tempo, 296252
1, 220800, Note_on_c, 0, 47, 0
1, 220800, Note_on_c, 0, 43, 80
1, 220809, Control_c, 0, 64, 0
1, 220820, Tempo, 295537
1, 220900, Tempo, 294840
1, 220960, Note_on_c, 0, 74, 66
1, 220980, Tempo, 294132
1, 221060, Tempo, 293442
1, 221120, Note_on_c, 0, 74, 0
1, 221120, Note_on_c, 0, 73, 68
1, 221140, Tempo, 292754
1, 221220, Tempo, 292056
1, 221280, Note_on_c, 0, 73, 0
1, 221280, Note_on_c, 0, 43, 0
1, 221280, Note_on_c, 0, 74, 70
1, 221300, Tempo, 291361
1, 221314, Control_c, 0, 64, 127
1, 221380, Tempo, 290684
1, 221440, Note_on_c, 0, 74, 0
1, 221440, Note_on_c, 0, 77, 72
1, 221460, Tempo, 289995
1, 221540, Tempo, 289310
1, 221600, Note_on_c, 0, 77, 0
1, 221600, Note_on_c, 0, 83, 75
1, 221620, Tempo, 288642
1, 221700, Tempo, 287963
1, 221760, Note_on_c, 0, 83, 0
1, 221760, Note_on_c, 0, 86, 84
1, 221820, Tempo, 287963
1, 221900, Tempo, 288642
1, 221920, Note_on_c, 0, 86, 0
1, 221920, Note_on_c, 0, 83, 72
1, 221980, Tempo, 289310
1, 222060, Tempo, 289995
1, 222080, Note_on_c, 0, 83, 0
1, 222080, Note_on_c, 0, 77, 64
1, 222140, Tempo, 290684
1, 222220, Tempo, 291361
1, 222240, Note_on_c, 0, 77, 0
1, 222240, Note_on_c, 0, 74, 70
1, 222240, Note_on_c, 0, 43, 67
1, 222246, Control_c, 0, 64, 0
1, 222300, Tempo, 292056
1, 222320, Control_c, 0, 64, 127
1, 222360, Note_on_c, 0, 74, 0
1, 222380, Tempo, 292754
1, 222400, Note_on_c, 0, 43, 0
1, 222400, Note_on_c, 0, 38, 67
1, 222460, Tempo, 293442
1, 222540, Tempo, 294132
1, 222560, Note_on_c, 0, 38, 0
1, 222560, Note_on_c, 0, 35, 66
1, 222620, Tempo, 294840
1, 222660, Tempo, 295537
1, 222720, Note_on_c, 0, 35, 0
1, 222720, Note_on_c, 0, 31, 80
1, 222731, Control_c, 0, 64, 0
1, 222780, Tempo, 294840
1, 222880, Note_on_c, 0, 77, 66
1, 222900, Tempo, 294132
1, 223020, Tempo, 293442
1, 223040, Note_on_c, 0, 77, 0
1, 223040, Note_on_c, 0, 76, 68
1, 223140, Tempo, 292754
1, 223200, Note_on_c, 0, 76, 0
1, 223200, Note_on_c, 0, 31, 0
1, 223200, Note_on_c, 0, 77, 70
1, 223260, Tempo, 292056
1, 223337, Control_c, 0, 64, 127
1, 223360, Note_on_c, 0, 77, 0
1, 223360, Note_on_c, 0, 83, 72
1, 223380, Tempo, 291361
1, 223500, Tempo, 290684
1, 223520, Note_on_c, 0, 83, 0
1, 223520, Note_on_c, 0, 86, 75
1, 223580, Tempo, 289995
1, 223620, Tempo, 290684
1, 223660, Tempo, 291361
1, 223680, Note_on_c, 0, 86, 0
1, 223680, Note_on_c, 0, 89, 84
1, 223700, Tempo, 292056
1, 223740, Tempo, 292754
1, 223780, Tempo, 293442
1, 223820, Tempo, 294132
1, 223840, Note_on_c, 0, 89, 0
1, 223840, Note_on_c, 0, 86, 72
1, 223860, Tempo, 294840
1, 223900, Tempo, 295537
1, 223940, Tempo, 296252
1, 223980, Tempo, 296971
1, 224000, Note_on_c, 0, 86, 0
1, 224000, Note_on_c, 0, 83, 64
1, 224020, Tempo, 297678
1, 224060, Tempo, 298404
1, 224100, Tempo, 299133
1, 224140, Tempo, 299865
1, 224160, Note_on_c, 0, 83, 0
1, 224160, Note_on_c, 0, 89, 84
1, 224180, Tempo, 300571
1, 224220, Tempo, 301311
1, 224260, Tempo, 302054
1, 224300, Tempo, 302786
1, 224320, Note_on_c, 0, 89, 0
1, 224320, Note_on_c, 0, 86, 72
1, 224340, Tempo, 303536
1, 224380, Tempo, 304290
1, 224420, Tempo, 305033
1, 224460, Tempo, 305795
1, 224480, Note_on_c, 0, 86, 0
1, 224480, Note_on_c, 0, 83, 64
1, 224500, Tempo, 306560
1, 224540, Tempo, 308071
1, 224640, Tempo, 308071
1, 224640, Note_on_c, 0, 83, 0
1, 224640, Note_on_c, 0, 89, 100
1, 224640, Note_on_c, 0, 31, 75
1, 224640, Note_on_c, 0, 43, 80
1, 224651, Control_c, 0, 64, 0
1, 226060, Tempo, 324307
1, 226080, Tempo, 323415
1, 226080, Note_on_c, 0, 89, 0
1, 226080, Note_on_c, 0, 87, 86
1, 226100, Tempo, 322511
1, 226108, Control_c, 0, 64, 127
1, 226120, Tempo, 321664
1, 226140, Tempo, 320787
1, 226160, Tempo, 319915
1, 226180, Tempo, 319064
1, 226200, Tempo, 318184
1, 226220, Tempo, 317343
1, 226240, Tempo, 316472
1, 226240, Note_on_c, 0, 87, 0
1, 226240, Note_on_c, 0, 86, 85
1, 226260, Tempo, 315623
1, 226280, Tempo, 314795
1, 226300, Tempo, 313955
1, 226320, Tempo, 313136
1, 226340, Tempo, 312305
1, 226360, Tempo, 311462
1, 226380, Tempo, 310655
1, 226400, Tempo, 309821
1, 226400, Note_on_c, 0, 86, 0
1, 226400, Note_on_c, 0, 84, 83
1, 226420, Tempo, 309023
1, 226440, Tempo, 308230
1, 226460, Tempo, 307409
1, 226480, Tempo, 306623
1, 226500, Tempo, 305826
1, 226520, Tempo, 305033
1, 226540, Tempo, 304244
1, 226560, Tempo, 301129
1, 226560, Note_on_c, 0, 84, 0
1, 226560, Note_on_c, 0, 83, 82
1, 226567, Control_c, 0, 64, 0
1, 226600, Tempo, 300375
1, 226606, Control_c, 0, 64, 127
1, 226620, Tempo, 299625
1, 226640, Tempo, 298849
1, 226660, Tempo, 298107
1, 226680, Tempo, 297339
1, 226700, Tempo, 296604
1, 226720, Tempo, 295858
1, 226720, Note_on_c, 0, 83, 0
1, 226720, Note_on_c, 0, 80, 81
1, 226740, Tempo, 295116
1, 226760, Tempo, 294377
1, 226780, Tempo, 293643
1, 226800, Tempo, 292912
1, 226840, Tempo, 292198
1, 226860, Tempo, 291474
1, 226880, Tempo, 290768
1, 226880, Note_on_c, 0, 80, 0
1, 226880, Note_on_c, 0, 79, 79
1, 226900, Tempo, 290051
1, 226920, Tempo, 289324
1, 226940, Tempo, 288628
1, 226960, Tempo, 287908
1, 226980, Tempo, 287219
1, 227000, Tempo, 286519
1, 227020, Tempo, 285823
1, 227040, Tempo, 284455
1, 227040, Note_on_c, 0, 79, 0
1, 227040, Note_on_c, 0, 77, 78
1, 227120, Tempo, 283755
1, 227200, Tempo, 283086
1, 227200, Note_on_c, 0, 77, 0
1, 227200, Note_on_c, 0, 75, 77
1, 227260, Tempo, 282406
1, 227340, Tempo, 281717
1, 227360, Note_on_c, 0, 75, 0
1, 227360, Note_on_c, 0, 74, 75
1, 227400, Tempo, 281070
1, 227480, Tempo, 280400
1, 227520, Note_on_c, 0, 74, 0
1, 227520, Note_on_c, 0, 72, 74
1, 227533, Control_c, 0, 64, 0
1, 227580, Control_c, 0, 64, 127
1, 227680, Note_on_c, 0, 72, 0
1, 227680, Note_on_c, 0, 71, 72
1, 227840, Note_on_c, 0, 71, 0
1, 227840, Note_on_c, 0, 68, 71
1, 228000, Note_on_c, 0, 68, 0
1, 228000, Note_on_c, 0, 67, 70
1, 228020, Tempo, 286519
1, 228040, Tempo, 287219
1, 228060, Tempo, 287908
1, 228080, Tempo, 288628
1, 228096, Note_on_c, 0, 67, 0
1, 228096, Note_on_c, 0, 65, 68
1, 228100, Tempo, 290051
1, 228120, Tempo, 290768
1, 228140, Tempo, 291474
1, 228160, Tempo, 292912
1, 228180, Tempo, 293643
1, 228192, Tempo, 295116
1, 228192, Note_on_c, 0, 65, 0
1, 228192, Note_on_c, 0, 63, 69
1, 228200, Tempo, 296604
1, 228204, Tempo, 298849
1, 228212, Tempo, 301129
1, 228220, Tempo, 303459
1, 228224, Tempo, 305826
1, 228232, Tempo, 308230
1, 228240, Tempo, 310655
1, 228244, Tempo, 313136
1, 228252, Tempo, 315623
1, 228260, Tempo, 318184
1, 228264, Tempo, 320787
1, 228272, Tempo, 323415
1, 228280, Tempo, 326105
1, 228284, Tempo, 328839
1, 228288, Note_on_c, 0, 63, 0
1, 228288, Note_on_c, 0, 62, 70
1, 228292, Tempo, 331602
1, 228300, Tempo, 334411
1, 228304, Tempo, 337268
1, 228312, Tempo, 340194
1, 228320, Tempo, 343171
1, 228324, Tempo, 346180
1, 228332, Tempo, 349264
1, 228340, Tempo, 352382
1, 228344, Tempo, 355556
1, 228352, Tempo, 358809
1, 228360, Tempo, 362122
1, 228364, Tempo, 365475
1, 228372, Tempo, 368913
1, 228380, Tempo, 372416
1, 228384, Tempo, 375963
1, 228384, Note_on_c, 0, 62, 0
1, 228384, Note_on_c, 0, 60, 71
1, 228400, Tempo, 590261
1, 228480, Tempo, 411805
1, 228480, Note_on_c, 0, 60, 0
1, 228480, Note_on_c, 0, 43, 0
1, 228480, Note_on_c, 0, 31, 0
1, 228480, Note_on_c, 0, 59, 93
1, 228480, Note_on_c, 0, 43, 69
1, 228480, Note_on_c, 0, 53, 82
1, 228480, Note_on_c, 0, 50, 69
1, 228490, Control_c, 0, 64, 0
1, 231360, Tempo, 617729
1, 231360, Note_on_c, 0, 50, 0
1, 231360, Note_on_c, 0, 59, 0
1, 231360, Note_on_c, 0, 43, 0
1, 231360, Note_on_c, 0, 53, 0
1, 231600, Tempo, 296604
1, 231600, Note_on_c, 0, 67, 48
1, 231720, Note_on_c, 0, 67, 0
1, 231840, Note_on_c, 0, 72, 49
1, 231960, Note_on_c, 0, 72, 0
1, 232080, Tempo, 315623
1, 232080, Note_on_c, 0, 74, 51
1, 232200, Note_on_c, 0, 74, 0
1, 232320, Tempo, 289869
1, 232320, Note_on_c, 0, 75, 52
1, 232320, Note_on_c, 0, 48, 40
1, 232560, Tempo, 292912
1, 232560, Note_on_c, 0, 48, 0
1, 232560, Note_on_c, 0, 51, 36
1, 232800, Tempo, 296604
1, 232800, Note_on_c, 0, 51, 0
1, 232800, Note_on_c, 0, 55, 36
1, 233040, Tempo, 309821
1, 233040, Note_on_c, 0, 55, 0
1, 233040, Note_on_c, 0, 75, 0
1, 233040, Note_on_c, 0, 77, 50
1, 233040, Note_on_c, 0, 60, 36
1, 233280, Tempo, 289324
1, 233280, Note_on_c, 0, 60, 0
1, 233280, Note_on_c, 0, 77, 0
1, 233280, Note_on_c, 0, 74, 53
1, 233280, Note_on_c, 0, 48, 40
1, 233520, Tempo, 292912
1, 233520, Note_on_c, 0, 48, 0
1, 233520, Note_on_c, 0, 53, 40
1, 233760, Note_on_c, 0, 53, 0
1, 233760, Note_on_c, 0, 55, 36
1, 234000, Tempo, 308230
1, 234000, Note_on_c, 0, 55, 0
1, 234000, Note_on_c, 0, 74, 0
1, 234000, Note_on_c, 0, 75, 50
1, 234000, Note_on_c, 0, 59, 36
1, 234240, Tempo, 289869
1, 234240, Note_on_c, 0, 59, 0
1, 234240, Note_on_c, 0, 75, 0
1, 234240, Note_on_c, 0, 72, 52
1, 234240, Note_on_c, 0, 48, 40
1, 234480, Note_on_c, 0, 48, 0
1, 234480, Note_on_c, 0, 51, 40
1, 234720, Note_on_c, 0, 51, 0
1, 234720, Note_on_c, 0, 55, 36
1, 234960, Tempo, 298151
1, 234960, Note_on_c, 0, 55, 0
1, 234960, Note_on_c, 0, 60, 36
1, 235140, Note_on_c, 0, 72, 0
1, 235140, Note_on_c, 0, 74, 48
1, 235160, Tempo, 289869
1, 235200, Note_on_c, 0, 74, 0
1, 235200, Note_on_c, 0, 60, 0
1, 235200, Note_on_c, 0, 72, 52
1, 235200, Note_on_c, 0, 63, 40
1, 235440, Note_on_c, 0, 63, 0
1, 235440, Note_on_c, 0, 72, 0
1, 235440, Note_on_c, 0, 71, 51
1, 235440, Note_on_c, 0, 67, 36
1, 235680, Note_on_c, 0, 67, 0
1, 235680, Note_on_c, 0, 71, 0
1, 235680, Note_on_c, 0, 72, 51
1, 235680, Note_on_c, 0, 63, 36
1, 235920, Note_on_c, 0, 63, 0
1, 235920, Note_on_c, 0, 72, 0
1, 235920, Note_on_c, 0, 74, 50
1, 235920, Note_on_c, 0, 62, 36
1, 236100, Note_on_c, 0, 74, 0
1, 236100, Note_on_c, 0, 77, 49
1, 236160, Note_on_c, 0, 77, 0
1, 236160, Note_on_c, 0, 62, 0
1, 236160, Note_on_c, 0, 75, 56
1, 236160, Note_on_c, 0, 60, 40
1, 236400, Note_on_c, 0, 60, 0
1, 236400, Note_on_c, 0, 75, 0
1, 236400, Note_on_c, 0, 74, 52
1, 236400, Note_on_c, 0, 67, 36
1, 236640, Note_on_c, 0, 67, 0
1, 236640, Note_on_c, 0, 74, 0
1, 236640, Note_on_c, 0, 75, 52
1, 236640, Note_on_c, 0, 60, 36
1, 236640, Note_on_c, 0, 63, 36
1, 236880, Tempo, 314795
1, 236880, Note_on_c, 0, 63, 0
1, 236880, Note_on_c, 0, 60, 0
1, 236880, Note_on_c, 0, 75, 0
1, 236880, Note_on_c, 0, 77, 52
1, 236880, Note_on_c, 0, 67, 36
1, 237120, Tempo, 311462
1, 237120, Note_on_c, 0, 67, 0
1, 237120, Note_on_c, 0, 77, 0
1, 237120, Note_on_c, 0, 79, 56
1, 237120, Note_on_c, 0, 59, 41
1, 237120, Note_on_c, 0, 62, 41
1, 237360, Note_on_c, 0, 62, 0
1, 237360, Note_on_c, 0, 59, 0
1, 237360, Note_on_c, 0, 79, 0
1, 237360, Note_on_c, 0, 67, 36
1, 237600, Note_on_c, 0, 67, 0
1, 237600, Note_on_c, 0, 79, 55
1, 237600, Note_on_c, 0, 60, 36
1, 237600, Note_on_c, 0, 56, 36
1, 237840, Note_on_c, 0, 56, 0
1, 237840, Note_on_c, 0, 60, 0
1, 237840, Note_on_c, 0, 79, 0
1, 237840, Note_on_c, 0, 67, 36
1, 238080, Note_on_c, 0, 67, 0
1, 238080, Note_on_c, 0, 79, 57
1, 238080, Note_on_c, 0, 55, 40
1, 238320, Note_on_c, 0, 55, 0
1, 238320, Note_on_c, 0, 59, 29
1, 238560, Note_on_c, 0, 59, 0
1, 238560, Note_on_c, 0, 62, 28
1, 238800, Note_on_c, 0, 62, 0
1, 238800, Note_on_c, 0, 67, 28
1, 239040, Tempo, 289869
1, 239040, Note_on_c, 0, 67, 0
1, 239040, Note_on_c, 0, 55, 40
1, 239280, Note_on_c, 0, 55, 0
1, 239280, Note_on_c, 0, 59, 31
1, 239520, Note_on_c, 0, 59, 0
1, 239520, Note_on_c, 0, 79, 0
1, 239520, Note_on_c, 0, 77, 51
1, 239520, Note_on_c, 0, 62, 31
1, 239760, Tempo, 321096
1, 239760, Note_on_c, 0, 62, 0
1, 239760, Note_on_c, 0, 77, 0
1, 239760, Note_on_c, 0, 79, 53
1, 239760, Note_on_c, 0, 67, 31
1, 239880, Tempo, 296457
1, 239880, Note_on_c, 0, 79, 0
1, 239880, Note_on_c, 0, 77, 48
1, 239940, Note_on_c, 0, 77, 0
1, 239940, Note_on_c, 0, 79, 48
1, 240000, Tempo, 289869
1, 240000, Note_on_c, 0, 79, 0
1, 240000, Note_on_c, 0, 67, 0
1, 240000, Note_on_c, 0, 80, 56
1, 240000, Note_on_c, 0, 53, 40
1, 240240, Tempo, 293643
1, 240240, Note_on_c, 0, 53, 0
1, 240240, Note_on_c, 0, 56, 36
1, 240480, Note_on_c, 0, 56, 0
1, 240480, Note_on_c, 0, 59, 37
1, 240720, Note_on_c, 0, 59, 0
1, 240720, Note_on_c, 0, 62, 37
1, 240960, Tempo, 288628
1, 240960, Note_on_c, 0, 62, 0
1, 240960, Note_on_c, 0, 80, 0
1, 240960, Note_on_c, 0, 74, 52
1, 240960, Note_on_c, 0, 53, 40
1, 241200, Note_on_c, 0, 53, 0
1, 241200, Note_on_c, 0, 56, 36
1, 241440, Note_on_c, 0, 56, 0
1, 241440, Note_on_c, 0, 74, 0
1, 241440, Note_on_c, 0, 75, 51
1, 241440, Note_on_c, 0, 59, 36
1, 241680, Tempo, 318150
1, 241680, Note_on_c, 0, 59, 0
1, 241680, Note_on_c, 0, 75, 0
1, 241680, Note_on_c, 0, 77, 53
1, 241680, Note_on_c, 0, 62, 36
1, 241800, Tempo, 296457
1, 241800, Note_on_c, 0, 77, 0
1, 241800, Note_on_c, 0, 75, 50
1, 241860, Note_on_c, 0, 75, 0
1, 241860, Note_on_c, 0, 77, 50
1, 241920, Tempo, 289869
1, 241920, Note_on_c, 0, 77, 0
1, 241920, Note_on_c, 0, 62, 0
1, 241920, Note_on_c, 0, 79, 56
1, 241920, Note_on_c, 0, 51, 40
1, 242160, Tempo, 293643
1, 242160, Note_on_c, 0, 51, 0
1, 242160, Note_on_c, 0, 55, 34
1, 242400, Note_on_c, 0, 55, 0
1, 242400, Note_on_c, 0, 60, 34
1, 242640, Note_on_c, 0, 60, 0
1, 242640, Note_on_c, 0, 63, 33
1, 242880, Tempo, 289324
1, 242880, Note_on_c, 0, 63, 0
1, 242880, Note_on_c, 0, 79, 0
1, 242880, Note_on_c, 0, 72, 52
1, 242880, Note_on_c, 0, 56, 41
1, 243120, Note_on_c, 0, 56, 0
1, 243120, Note_on_c, 0, 60, 35
1, 243350, Note_on_c, 0, 72, 0
1, 243360, Note_on_c, 0, 60, 0
1, 243360, Note_on_c, 0, 72, 53
1, 243360, Note_on_c, 0, 63, 35
1, 243600, Tempo, 298151
1, 243600, Note_on_c, 0, 63, 0
1, 243600, Note_on_c, 0, 72, 0
1, 243600, Note_on_c, 0, 74, 54
1, 243600, Note_on_c, 0, 66, 35
1, 243840, Tempo, 289869
1, 243840, Note_on_c, 0, 66, 0
1, 243840, Note_on_c, 0, 74, 0
1, 243840, Note_on_c, 0, 75, 57
1, 243840, Note_on_c, 0, 55, 40
1, 244080, Tempo, 292912
1, 244080, Note_on_c, 0, 55, 0
1, 244080, Note_on_c, 0, 75, 0
1, 244080, Note_on_c, 0, 60, 40
1, 244320, Note_on_c, 0, 60, 0
1, 244320, Note_on_c, 0, 75, 53
1, 244320, Note_on_c, 0, 63, 35
1, 244560, Note_on_c, 0, 63, 0
1, 244560, Note_on_c, 0, 75, 0
1, 244560, Note_on_c, 0, 77, 55
1, 244560, Note_on_c, 0, 67, 35
1, 244800, Tempo, 289324
1, 244800, Note_on_c, 0, 67, 0
1, 244800, Note_on_c, 0, 77, 0
1, 244800, Note_on_c, 0, 74, 57
1, 244800, Note_on_c, 0, 55, 40
1, 245040, Tempo, 292198
1, 245040, Note_on_c, 0, 55, 0
1, 245040, Note_on_c, 0, 74, 0
1, 245040, Note_on_c, 0, 59, 36
1, 245280, Note_on_c, 0, 59, 0
1, 245280, Note_on_c, 0, 74, 51
1, 245280, Note_on_c, 0, 62, 36
1, 245520, Tempo, 299865
1, 245520, Note_on_c, 0, 62, 0
1, 245520, Note_on_c, 0, 74, 0
1, 245520, Note_on_c, 0, 75, 54
1, 245520, Note_on_c, 0, 67, 36
1, 245760, Tempo, 306623
1, 245760, Note_on_c, 0, 67, 0
1, 245760, Note_on_c, 0, 75, 0
1, 245760, Note_on_c, 0, 72, 57
1, 246000, Tempo, 297295
1, 246000, Note_on_c, 0, 36, 38
1, 246240, Tempo, 306905
1, 246240, Note_on_c, 0, 36, 0
1, 246240, Note_on_c, 0, 72, 0
1, 246240, Note_on_c, 0, 39, 42
1, 246480, Note_on_c, 0, 39, 0
1, 246480, Note_on_c, 0, 43, 45
1, 246720, Note_on_c, 0, 43, 0
1, 246720, Note_on_c, 0, 48, 45
1, 246960, Note_on_c, 0, 48, 0
1, 246960, Note_on_c, 0, 51, 45
1, 247200, Note_on_c, 0, 51, 0
1, 247200, Note_on_c, 0, 53, 50
1, 247440, Tempo, 321096
1, 247440, Note_on_c, 0, 53, 0
1, 247440, Note_on_c, 0, 55, 52
1, 247680, Tempo, 289869
1, 247680, Note_on_c, 0, 55, 0
1, 247680, Note_on_c, 0, 56, 54
1, 247920, Tempo, 293643
1, 247920, Note_on_c, 0, 59, 47
1, 248160, Note_on_c, 0, 59, 0
1, 248160, Note_on_c, 0, 62, 49
1, 248400, Note_on_c, 0, 62, 0
1, 248400, Note_on_c, 0, 65, 51
1, 248640, Tempo, 288628
1, 248640, Note_on_c, 0, 65, 0
1, 248640, Note_on_c, 0, 56, 0
1, 248640, Note_on_c, 0, 50, 51
1, 248880, Note_on_c, 0, 77, 51
1, 249120, Tempo, 301311
1, 249120, Note_on_c, 0, 77, 0
1, 249120, Note_on_c, 0, 50, 0
1, 249120, Note_on_c, 0, 74, 50
1, 249120, Note_on_c, 0, 51, 50
1, 249360, Tempo, 318150
1, 249360, Note_on_c, 0, 51, 0
1, 249360, Note_on_c, 0, 74, 0
1, 249360, Note_on_c, 0, 71, 48
1, 249360, Note_on_c, 0, 53, 52
1, 249600, Tempo, 289869
1, 249600, Note_on_c, 0, 53, 0
1, 249600, Note_on_c, 0, 71, 0
1, 249600, Note_on_c, 0, 55, 54
1, 249840, Tempo, 293643
1, 249840, Note_on_c, 0, 60, 44
1, 250080, Note_on_c, 0, 60, 0
1, 250080, Note_on_c, 0, 63, 46
1, 250320, Note_on_c, 0, 63, 0
1, 250320, Note_on_c, 0, 67, 49
1, 250560, Tempo, 289324
1, 250560, Note_on_c, 0, 67, 0
1, 250560, Note_on_c, 0, 55, 0
1, 250560, Note_on_c, 0, 48, 51
1, 250800, Note_on_c, 0, 79, 48
1, 251040, Note_on_c, 0, 79, 0
1, 251040, Note_on_c, 0, 48, 0
1, 251040, Note_on_c, 0, 75, 47
1, 251040, Note_on_c, 0, 58, 50
1, 251280, Note_on_c, 0, 58, 0
1, 251280, Note_on_c, 0, 75, 0
1, 251280, Note_on_c, 0, 72, 45
1, 251280, Note_on_c, 0, 60, 52
1, 251520, Tempo, 289869
1, 251520, Note_on_c, 0, 60, 0
1, 251520, Note_on_c, 0, 72, 0
1, 251520, Note_on_c, 0, 61, 54
1, 251760, Tempo, 293643
1, 251760, Note_on_c, 0, 64, 47
1, 252000, Note_on_c, 0, 64, 0
1, 252000, Note_on_c, 0, 67, 49
1, 252240, Note_on_c, 0, 67, 0
1, 252240, Note_on_c, 0, 70, 51
1, 252480, Tempo, 288628
1, 252480, Note_on_c, 0, 70, 0
1, 252480, Note_on_c, 0, 61, 0
1, 252480, Note_on_c, 0, 55, 51
1, 252720, Note_on_c, 0, 82, 51
1, 252960, Tempo, 301311
1, 252960, Note_on_c, 0, 82, 0
1, 252960, Note_on_c, 0, 55, 0
1, 252960, Note_on_c, 0, 79, 50
1, 252960, Note_on_c, 0, 56, 50
1, 253200, Tempo, 318150
1, 253200, Note_on_c, 0, 56, 0
1, 253200, Note_on_c, 0, 79, 0
1, 253200, Note_on_c, 0, 76, 48
1, 253200, Note_on_c, 0, 58, 52
1, 253440, Tempo, 289869
1, 253440, Note_on_c, 0, 58, 0
1, 253440, Note_on_c, 0, 76, 0
1, 253440, Note_on_c, 0, 60, 54
1, 253680, Tempo, 293643
1, 253680, Note_on_c, 0, 65, 48
1, 253920, Note_on_c, 0, 65, 0
1, 253920, Note_on_c, 0, 68, 50
1, 254160, Note_on_c, 0, 68, 0
1, 254160, Note_on_c, 0, 72, 53
1, 254400, Tempo, 289324
1, 254400, Note_on_c, 0, 72, 0
1, 254400, Note_on_c, 0, 60, 0
1, 254400, Note_on_c, 0, 77, 55
1, 254400, Note_on_c, 0, 53, 51
1, 254640, Note_on_c, 0, 77, 0
1, 254640, Note_on_c, 0, 80, 58
1, 254880, Tempo, 294132
1, 254880, Note_on_c, 0, 80, 0
1, 254880, Note_on_c, 0, 53, 0
1, 254880, Note_on_c, 0, 84, 60
1, 254900, Tempo, 296252
1, 254920, Tempo, 298404
1, 254940, Tempo, 300571
1, 254960, Tempo, 302786
1, 254980, Tempo, 305033
1, 255000, Tempo, 307298
1, 255020, Tempo, 309613
1, 255040, Tempo, 311964
1, 255060, Tempo, 314334
1, 255080, Tempo, 316773
1, 255100, Tempo, 319234
1, 255120, Tempo, 322546
1, 255120, Note_on_c, 0, 84, 0
1, 255120, Note_on_c, 0, 89, 69
1, 255140, Tempo, 325098
1, 255160, Tempo, 327690
1, 255180, Tempo, 330306
1, 255200, Tempo, 332982
1, 255220, Tempo, 335721
1, 255240, Tempo, 338467
1, 255260, Tempo, 341278
1, 255280, Tempo, 344135
1, 255300, Tempo, 347021
1, 255320, Tempo, 349977
1, 255340, Tempo, 353961
1, 255360, Tempo, 296971
1, 255360, Note_on_c, 0, 60, 54
1, 255360, Note_on_c, 0, 56, 54
1, 255840, Note_on_c, 0, 60, 0
1, 255840, Note_on_c, 0, 89, 0
1, 255840, Note_on_c, 0, 87, 63
1, 255840, Note_on_c, 0, 65, 54
1, 256320, Note_on_c, 0, 65, 0
1, 256320, Note_on_c, 0, 87, 0
1, 256320, Note_on_c, 0, 56, 0
1, 256320, Note_on_c, 0, 86, 61
1, 256320, Note_on_c, 0, 60, 54
1, 256320, Note_on_c, 0, 56, 54
1, 256800, Note_on_c, 0, 60, 0
1, 256800, Note_on_c, 0, 86, 0
1, 256800, Note_on_c, 0, 84, 60
1, 256800, Note_on_c, 0, 66, 54
1, 257280, Tempo, 316472
1, 257280, Note_on_c, 0, 66, 0
1, 257280, Note_on_c, 0, 84, 0
1, 257280, Note_on_c, 0, 56, 0
1, 257280, Note_on_c, 0, 83, 60
1, 257280, Note_on_c, 0, 55, 46
1, 257520, Note_on_c, 0, 83, 0
1, 257760, Tempo, 298107
1, 257760, Note_on_c, 0, 55, 0
1, 257760, Note_on_c, 0, 79, 60
1, 257760, Note_on_c, 0, 67, 31
1, 258240, Note_on_c, 0, 67, 0
1, 258240, Note_on_c, 0, 65, 42
1, 258720, Note_on_c, 0, 65, 0
1, 258720, Note_on_c, 0, 79, 0
1, 258720, Note_on_c, 0, 79, 56
1, 258720, Note_on_c, 0, 67, 30
1, 259200, Tempo, 298849
1, 259200, Note_on_c, 0, 67, 0
1, 259200, Note_on_c, 0, 64, 42
1, 259440, Note_on_c, 0, 79, 0
1, 259440, Note_on_c, 0, 81, 54
1, 259640, Tempo, 296604
1, 259680, Note_on_c, 0, 81, 0
1, 259680, Note_on_c, 0, 64, 0
1, 259680, Note_on_c, 0, 83, 55
1, 259680, Note_on_c, 0, 67, 33
1, 259840, Tempo, 295858
1, 259920, Note_on_c, 0, 83, 0
1, 259920, Note_on_c, 0, 84, 57
1, 260040, Tempo, 295116
1, 260160, Note_on_c, 0, 84, 0
1, 260160, Note_on_c, 0, 67, 0
1, 260160, Note_on_c, 0, 86, 58
1, 260160, Note_on_c, 0, 59, 41
1, 260240, Tempo, 294377
1, 260400, Note_on_c, 0, 86, 0
1, 260400, Note_on_c, 0, 88, 60
1, 260640, Note_on_c, 0, 88, 0
1, 260640, Note_on_c, 0, 59, 0
1, 260640, Note_on_c, 0, 89, 61
1, 260640, Note_on_c, 0, 67, 33
1, 260880, Tempo, 305826
1, 260880, Note_on_c, 0, 89, 0
1, 260880, Note_on_c, 0, 86, 58
1, 261120, Tempo, 296604
1, 261120, Note_on_c, 0, 86, 0
1, 261120, Note_on_c, 0, 67, 0
1, 261120, Note_on_c, 0, 89, 61
1, 261120, Note_on_c, 0, 60, 40
1, 261360, Note_on_c, 0, 89, 0
1, 261360, Note_on_c, 0, 88, 60
1, 261600, Note_on_c, 0, 88, 0
1, 261600, Note_on_c, 0, 60, 0
1, 261600, Note_on_c, 0, 86, 59
1, 261600, Note_on_c, 0, 67, 35
1, 261840, Tempo, 307409
1, 261840, Note_on_c, 0, 86, 0
1, 261840, Note_on_c, 0, 84, 58
1, 262060, Note_on_c, 0, 84, 0
1, 262080, Tempo, 301129
1, 262080, Note_on_c, 0, 67, 0
1, 262080, Note_on_c, 0, 84, 60
1, 262080, Note_on_c, 0, 74, 40
1, 262080, Note_on_c, 0, 65, 40
1, 262320, Note_on_c, 0, 84, 0
1, 262320, Note_on_c, 0, 83, 58
1, 262560, Note_on_c, 0, 83, 0
1, 262560, Note_on_c, 0, 65, 0
1, 262560, Note_on_c, 0, 81, 58
1, 262560, Note_on_c, 0, 67, 36
1, 262800, Note_on_c, 0, 81, 0
1, 262800, Note_on_c, 0, 83, 58
1, 263040, Tempo, 298107
1, 263040, Note_on_c, 0, 83, 0
1, 263040, Note_on_c, 0, 67, 0
1, 263040, Note_on_c, 0, 74, 0
1, 263040, Note_on_c, 0, 86, 63
1, 263040, Note_on_c, 0, 72, 40
1, 263040, Note_on_c, 0, 64, 40
1, 263280, Note_on_c, 0, 86, 0
1, 263280, Note_on_c, 0, 84, 57
1, 263520, Note_on_c, 0, 84, 0
1, 263520, Note_on_c, 0, 64, 0
1, 263520, Note_on_c, 0, 83, 57
1, 263520, Note_on_c, 0, 67, 36
1, 263760, Note_on_c, 0, 83, 0
1, 263760, Note_on_c, 0, 81, 57
1, 264000, Note_on_c, 0, 81, 0
1, 264000, Note_on_c, 0, 67, 0
1, 264000, Note_on_c, 0, 72, 0
1, 264000, Note_on_c, 0, 77, 48
1, 264000, Note_on_c, 0, 79, 60
1, 264000, Note_on_c, 0, 59, 40
1, 264432, Note_on_c, 0, 79, 0
1, 264432, Note_on_c, 0, 77, 0
1, 264480, Note_on_c, 0, 59, 0
1, 264480, Note_on_c, 0, 77, 48
1, 264480, Note_on_c, 0, 79, 60
1, 264480, Note_on_c, 0, 67, 34
1, 264912, Note_on_c, 0, 79, 0
1, 264912, Note_on_c, 0, 77, 0
1, 264960, Tempo, 293643
1, 264960, Note_on_c, 0, 67, 0
1, 264960, Note_on_c, 0, 77, 60
1, 264960, Note_on_c, 0, 79, 60
1, 264960, Note_on_c, 0, 60, 41
1, 265000, Tempo, 296604
1, 265200, Note_on_c, 0, 77, 0
1, 265200, Note_on_c, 0, 76, 53
1, 265440, Note_on_c, 0, 76, 0
1, 265440, Note_on_c, 0, 60, 0
1, 265440, Note_on_c, 0, 74, 53
1, 265440, Note_on_c, 0, 67, 34
1, 265680, Note_on_c, 0, 74, 0
1, 265680, Note_on_c, 0, 72, 53
1, 265900, Note_on_c, 0, 72, 0
1, 265920, Note_on_c, 0, 67, 0
1, 265920, Note_on_c, 0, 72, 57
1, 265920, Note_on_c, 0, 65, 40
1, 266160, Note_on_c, 0, 72, 0
1, 266160, Note_on_c, 0, 71, 52
1, 266400, Note_on_c, 0, 71, 0
1, 266400, Note_on_c, 0, 65, 0
1, 266400, Note_on_c, 0, 69, 52
1, 266400, Note_on_c, 0, 67, 34
1, 266640, Tempo, 304290
1, 266640, Note_on_c, 0, 69, 0
1, 266640, Note_on_c, 0, 71, 52
1, 266880, Tempo, 298849
1, 266880, Note_on_c, 0, 71, 0
1, 266880, Note_on_c, 0, 67, 0
1, 266880, Note_on_c, 0, 72, 52
1, 266880, Note_on_c, 0, 64, 42
1, 267120, Note_on_c, 0, 79, 0
1, 267120, Note_on_c, 0, 81, 54
1, 267320, Tempo, 296604
1, 267360, Note_on_c, 0, 81, 0
1, 267360, Note_on_c, 0, 64, 0
1, 267360, Note_on_c, 0, 72, 0
1, 267360, Note_on_c, 0, 83, 55
1, 267360, Note_on_c, 0, 67, 33
1, 267520, Tempo, 295858
1, 267600, Note_on_c, 0, 83, 0
1, 267600, Note_on_c, 0, 84, 57
1, 267720, Tempo, 295116
1, 267840, Note_on_c, 0, 84, 0
1, 267840, Note_on_c, 0, 67, 0
1, 267840, Note_on_c, 0, 86, 58
1, 267840, Note_on_c, 0, 59, 41
1, 267920, Tempo, 294377
1, 268080, Note_on_c, 0, 86, 0
1, 268080, Note_on_c, 0, 88, 60
1, 268320, Note_on_c, 0, 88, 0
1, 268320, Note_on_c, 0, 59, 0
1, 268320, Note_on_c, 0, 89, 61
1, 268320, Note_on_c, 0, 67, 33
1, 268560, Tempo, 305826
1, 268560, Note_on_c, 0, 89, 0
1, 268560, Note_on_c, 0, 86, 58
1, 268800, Tempo, 296604
1, 268800, Note_on_c, 0, 86, 0
1, 268800, Note_on_c, 0, 67, 0
1, 268800, Note_on_c, 0, 89, 61
1, 268800, Note_on_c, 0, 60, 40
1, 269040, Note_on_c, 0, 89, 0
1, 269040, Note_on_c, 0, 88, 60
1, 269280, Note_on_c, 0, 88, 0
1, 269280, Note_on_c, 0, 60, 0
1, 269280, Note_on_c, 0, 86, 59
1, 269280, Note_on_c, 0, 67, 35
1, 269520, Tempo, 307409
1, 269520, Note_on_c, 0, 86, 0
1, 269520, Note_on_c, 0, 84, 58
1, 269760, Tempo, 301129
1, 269760, Note_on_c, 0, 84, 0
1, 269760, Note_on_c, 0, 67, 0
1, 269760, Note_on_c, 0, 83, 60
1, 269760, Note_on_c, 0, 64, 40
1, 269760, Note_on_c, 0, 72, 40
1, 270000, Note_on_c, 0, 83, 0
1, 270000, Note_on_c, 0, 84, 58
1, 270240, Note_on_c, 0, 84, 0
1, 270240, Note_on_c, 0, 72, 0
1, 270240, Note_on_c, 0, 88, 59
1, 270240, Note_on_c, 0, 67, 36
1, 270480, Note_on_c, 0, 88, 0
1, 270480, Note_on_c, 0, 84, 59
1, 270720, Tempo, 293442
1, 270720, Note_on_c, 0, 84, 0
1, 270720, Note_on_c, 0, 67, 0
1, 270720, Note_on_c, 0, 64, 0
1, 270720, Note_on_c, 0, 83, 66
1, 270720, Note_on_c, 0, 65, 38
1, 270720, Note_on_c, 0, 72, 42
1, 270960, Note_on_c, 0, 83, 0
1, 270960, Note_on_c, 0, 81, 57
1, 271200, Note_on_c, 0, 81, 0
1, 271200, Note_on_c, 0, 72, 0
1, 271200, Note_on_c, 0, 84, 58
1, 271200, Note_on_c, 0, 69, 38
1, 271440, Tempo, 302786
1, 271440, Note_on_c, 0, 84, 0
1, 271440, Note_on_c, 0, 81, 59
1, 271670, Note_on_c, 0, 65, 0
1, 271680, Tempo, 291361
1, 271680, Note_on_c, 0, 81, 0
1, 271680, Note_on_c, 0, 69, 0
1, 271680, Note_on_c, 0, 79, 69
1, 271680, Note_on_c, 0, 65, 37
1, 271680, Note_on_c, 0, 73, 44
1, 271920, Note_on_c, 0, 79, 0
1, 271920, Note_on_c, 0, 77, 63
1, 272160, Note_on_c, 0, 77, 0
1, 272160, Note_on_c, 0, 73, 0
1, 272160, Note_on_c, 0, 81, 63
1, 272160, Note_on_c, 0, 69, 38
1, 272400, Tempo, 302786
1, 272400, Note_on_c, 0, 81, 0
1, 272400, Note_on_c, 0, 77, 64
1, 272640, Tempo, 290684
1, 272640, Note_on_c, 0, 77, 0
1, 272640, Note_on_c, 0, 69, 0
1, 272640, Note_on_c, 0, 65, 0
1, 272640, Note_on_c, 0, 76, 72
1, 272640, Note_on_c, 0, 65, 46
1, 272640, Note_on_c, 0, 74, 46
1, 272880, Note_on_c, 0, 76, 0
1, 272880, Note_on_c, 0, 74, 62
1, 273120, Note_on_c, 0, 74, 0
1, 273120, Note_on_c, 0, 74, 0
1, 273120, Note_on_c, 0, 65, 0
1, 273120, Note_on_c, 0, 77, 64
1, 273120, Note_on_c, 0, 69, 42
1, 273360, Tempo, 312761
1, 273360, Note_on_c, 0, 77, 0
1, 273360, Note_on_c, 0, 74, 64
1, 273600, Tempo, 294840
1, 273600, Note_on_c, 0, 74, 0
1, 273600, Note_on_c, 0, 69, 0
1, 273600, Note_on_c, 0, 81, 75
1, 273600, Note_on_c, 0, 65, 48
1, 273840, Note_on_c, 0, 81, 0
1, 273840, Note_on_c, 0, 77, 67
1, 274080, Note_on_c, 0, 77, 0
1, 274080, Note_on_c, 0, 65, 0
1, 274080, Note_on_c, 0, 74, 67
1, 274080, Note_on_c, 0, 66, 41
1, 274320, Tempo, 315956
1, 274320, Note_on_c, 0, 74, 0
1, 274320, Note_on_c, 0, 72, 67
1, 274560, Tempo, 294132
1, 274560, Note_on_c, 0, 72, 0
1, 274560, Note_on_c, 0, 66, 0
1, 274560, Note_on_c, 0, 71, 59
1, 274560, Note_on_c, 0, 67, 55
1, 274592, Control_c, 0, 64, 127
1, 274680, Tempo, 290768
1, 274710, Note_on_c, 0, 67, 0
1, 274720, Note_on_c, 0, 67, 55
1, 274730, Note_on_c, 0, 71, 0
1, 274840, Tempo, 290051
1, 274880, Note_on_c, 0, 69, 55
1, 274890, Note_on_c, 0, 67, 0
1, 274896, Control_c, 0, 64, 0
1, 274960, Tempo, 289324
1, 275040, Note_on_c, 0, 71, 59
1, 275050, Note_on_c, 0, 69, 0
1, 275120, Tempo, 288628
1, 275200, Note_on_c, 0, 69, 55
1, 275210, Note_on_c, 0, 71, 0
1, 275240, Tempo, 287908
1, 275360, Note_on_c, 0, 67, 55
1, 275370, Note_on_c, 0, 69, 0
1, 275400, Tempo, 287219
1, 275520, Tempo, 286519
1, 275520, Note_on_c, 0, 72, 59
1, 275530, Note_on_c, 0, 67, 0
1, 275600, Tempo, 285823
1, 275680, Note_on_c, 0, 62, 45
1, 275760, Tempo, 286519
1, 275840, Note_on_c, 0, 64, 48
1, 275850, Note_on_c, 0, 62, 0
1, 275920, Tempo, 287219
1, 276000, Note_on_c, 0, 66, 50
1, 276010, Note_on_c, 0, 64, 0
1, 276080, Tempo, 287908
1, 276160, Note_on_c, 0, 64, 48
1, 276170, Note_on_c, 0, 66, 0
1, 276240, Tempo, 288628
1, 276320, Note_on_c, 0, 62, 45
1, 276330, Note_on_c, 0, 64, 0
1, 276400, Tempo, 289324
1, 276480, Tempo, 290051
1, 276480, Note_on_c, 0, 72, 0
1, 276480, Note_on_c, 0, 71, 59
1, 276480, Note_on_c, 0, 67, 55
1, 276490, Note_on_c, 0, 62, 0
1, 276533, Control_c, 0, 64, 127
1, 276630, Note_on_c, 0, 67, 0
1, 276640, Note_on_c, 0, 67, 55
1, 276650, Note_on_c, 0, 71, 0
1, 276680, Tempo, 289324
1, 276800, Note_on_c, 0, 69, 55
1, 276808, Control_c, 0, 64, 0
1, 276810, Note_on_c, 0, 67, 0
1, 276880, Tempo, 288628
1, 276960, Note_on_c, 0, 71, 59
1, 276970, Note_on_c, 0, 69, 0
1, 277080, Tempo, 287908
1, 277120, Note_on_c, 0, 69, 55
1, 277130, Note_on_c, 0, 71, 0
1, 277280, Tempo, 287219
1, 277280, Note_on_c, 0, 67, 55
1, 277290, Note_on_c, 0, 69, 0
1, 277440, Tempo, 286519
1, 277440, Note_on_c, 0, 72, 59
1, 277450, Note_on_c, 0, 67, 0
1, 277600, Tempo, 287219
1, 277600, Note_on_c, 0, 62, 43
1, 277760, Tempo, 287908
1, 277760, Note_on_c, 0, 64, 47
1, 277770, Note_on_c, 0, 62, 0
1, 277920, Tempo, 288628
1, 277920, Note_on_c, 0, 66, 50
1, 277930, Note_on_c, 0, 64, 0
1, 278080, Tempo, 289324
1, 278080, Note_on_c, 0, 64, 48
1, 278090, Note_on_c, 0, 66, 0
1, 278240, Tempo, 290051
1, 278240, Note_on_c, 0, 62, 45
1, 278250, Note_on_c, 0, 64, 0
1, 278360, Tempo, 289324
1, 278400, Note_on_c, 0, 72, 0
1, 278400, Note_on_c, 0, 71, 59
1, 278400, Note_on_c, 0, 67, 55
1, 278410, Note_on_c, 0, 62, 0
1, 278418, Control_c, 0, 64, 127
1, 278550, Note_on_c, 0, 67, 0
1, 278560, Note_on_c, 0, 71, 0
1, 278560, Note_on_c, 0, 67, 59
1, 278600, Tempo, 288628
1, 278720, Note_on_c, 0, 67, 0
1, 278720, Note_on_c, 0, 69, 59
1, 278723, Control_c, 0, 64, 0
1, 278840, Tempo, 287908
1, 278880, Note_on_c, 0, 69, 0
1, 278880, Note_on_c, 0, 71, 64
1, 279040, Note_on_c, 0, 71, 0
1, 279040, Note_on_c, 0, 69, 57
1, 279080, Tempo, 287219
1, 279200, Note_on_c, 0, 69, 0
1, 279200, Note_on_c, 0, 67, 58
1, 279320, Tempo, 286519
1, 279360, Note_on_c, 0, 67, 0
1, 279360, Note_on_c, 0, 74, 67
1, 279360, Note_on_c, 0, 67, 55
1, 279520, Note_on_c, 0, 74, 0
1, 279520, Note_on_c, 0, 71, 59
1, 279680, Note_on_c, 0, 71, 0
1, 279680, Note_on_c, 0, 72, 59
1, 279840, Note_on_c, 0, 72, 0
1, 279840, Note_on_c, 0, 67, 0
1, 279840, Note_on_c, 0, 74, 62
1, 280000, Note_on_c, 0, 74, 0
1, 280000, Note_on_c, 0, 72, 65
1, 280160, Tempo, 304244
1, 280160, Note_on_c, 0, 72, 0
1, 280160, Note_on_c, 0, 71, 67
1, 280320, Tempo, 286519
1, 280320, Note_on_c, 0, 71, 0
1, 280320, Note_on_c, 0, 77, 69
1, 280320, Note_on_c, 0, 62, 46
1, 280320, Note_on_c, 0, 55, 46
1, 280320, Note_on_c, 0, 59, 46
1, 280320, Note_on_c, 0, 65, 55
1, 280480, Note_on_c, 0, 76, 68
1, 280490, Note_on_c, 0, 77, 0
1, 280640, Note_on_c, 0, 74, 67
1, 280650, Note_on_c, 0, 76, 0
1, 280800, Note_on_c, 0, 65, 0
1, 280800, Note_on_c, 0, 59, 0
1, 280800, Note_on_c, 0, 62, 0
1, 280800, Note_on_c, 0, 55, 0
1, 280800, Note_on_c, 0, 72, 66
1, 280810, Note_on_c, 0, 74, 0
1, 280960, Note_on_c, 0, 71, 65
1, 280970, Note_on_c, 0, 72, 0
1, 281120, Note_on_c, 0, 69, 63
1, 281130, Note_on_c, 0, 71, 0
1, 281280, Tempo, 286519
1, 281280, Note_on_c, 0, 67, 59
1, 281290, Note_on_c, 0, 69, 0
1, 281440, Note_on_c, 0, 69, 55
1, 281450, Note_on_c, 0, 67, 0
1, 281520, Tempo, 287219
1, 281600, Note_on_c, 0, 67, 55
1, 281610, Note_on_c, 0, 69, 0
1, 281720, Tempo, 287908
1, 281760, Note_on_c, 0, 65, 59
1, 281770, Note_on_c, 0, 67, 0
1, 281920, Note_on_c, 0, 64, 56
1, 281930, Note_on_c, 0, 65, 0
1, 281960, Tempo, 288628
1, 282080, Note_on_c, 0, 62, 56
1, 282090, Note_on_c, 0, 64, 0
1, 282160, Tempo, 289324
1, 282200, Tempo, 290768
1, 282240, Tempo, 294132
1, 282240, Note_on_c, 0, 64, 59
1, 282240, Note_on_c, 0, 48, 55
1, 282250, Note_on_c, 0, 62, 0
1, 282360, Tempo, 290768
1, 282400, Note_on_c, 0, 60, 55
1, 282410, Note_on_c, 0, 64, 0
1, 282520, Tempo, 290051
1, 282560, Note_on_c, 0, 62, 55
1, 282570, Note_on_c, 0, 60, 0
1, 282640, Tempo, 289324
1, 282720, Note_on_c, 0, 48, 0
1, 282720, Note_on_c, 0, 64, 59
1, 282730, Note_on_c, 0, 62, 0
1, 282800, Tempo, 288628
1, 282880, Note_on_c, 0, 62, 55
1, 282890, Note_on_c, 0, 64, 0
1, 282920, Tempo, 287908
1, 283040, Note_on_c, 0, 60, 55
1, 283050, Note_on_c, 0, 62, 0
1, 283080, Tempo, 287219
1, 283200, Tempo, 286519
1, 283200, Note_on_c, 0, 65, 59
1, 283210, Note_on_c, 0, 60, 0
1, 283280, Tempo, 285823
1, 283360, Note_on_c, 0, 55, 45
1, 283440, Tempo, 286519
1, 283520, Note_on_c, 0, 57, 48
1, 283530, Note_on_c, 0, 55, 0
1, 283600, Tempo, 287219
1, 283680, Note_on_c, 0, 59, 50
1, 283690, Note_on_c, 0, 57, 0
1, 283760, Tempo, 287908
1, 283840, Note_on_c, 0, 57, 48
1, 283850, Note_on_c, 0, 59, 0
1, 283920, Tempo, 288628
1, 284000, Note_on_c, 0, 55, 45
1, 284010, Note_on_c, 0, 57, 0
1, 284080, Tempo, 289324
1, 284160, Tempo, 290051
1, 284160, Note_on_c, 0, 65, 0
1, 284160, Note_on_c, 0, 64, 59
1, 284160, Note_on_c, 0, 60, 55
1, 284170, Note_on_c, 0, 55, 0
1, 284320, Note_on_c, 0, 72, 55
1, 284330, Note_on_c, 0, 64, 0
1, 284360, Tempo, 289324
1, 284480, Note_on_c, 0, 74, 55
1, 284490, Note_on_c, 0, 72, 0
1, 284560, Tempo, 288628
1, 284640, Note_on_c, 0, 60, 0
1, 284640, Note_on_c, 0, 76, 59
1, 284650, Note_on_c, 0, 74, 0
1, 284760, Tempo, 287908
1, 284800, Note_on_c, 0, 74, 55
1, 284810, Note_on_c, 0, 76, 0
1, 284960, Tempo, 287219
1, 284960, Note_on_c, 0, 72, 55
1, 284970, Note_on_c, 0, 74, 0
1, 285120, Tempo, 286519
1, 285120, Note_on_c, 0, 77, 59
1, 285130, Note_on_c, 0, 72, 0
1, 285280, Tempo, 287219
1, 285280, Note_on_c, 0, 55, 43
1, 285440, Tempo, 287908
1, 285440, Note_on_c, 0, 57, 47
1, 285450, Note_on_c, 0, 55, 0
1, 285600, Tempo, 288628
1, 285600, Note_on_c, 0, 59, 50
1, 285610, Note_on_c, 0, 57, 0
1, 285760, Tempo, 289324
1, 285760, Note_on_c, 0, 57, 48
1, 285770, Note_on_c, 0, 59, 0
1, 285920, Tempo, 290051
1, 285920, Note_on_c, 0, 55, 45
1, 285930, Note_on_c, 0, 57, 0
1, 286040, Tempo, 289324
1, 286080, Note_on_c, 0, 77, 0
1, 286080, Note_on_c, 0, 76, 59
1, 286080, Note_on_c, 0, 60, 55
1, 286090, Note_on_c, 0, 55, 0
1, 286240, Note_on_c, 0, 76, 0
1, 286240, Note_on_c, 0, 72, 59
1, 286280, Tempo, 288628
1, 286400, Note_on_c, 0, 72, 0
1, 286400, Note_on_c, 0, 74, 59
1, 286520, Tempo, 287908
1, 286560, Note_on_c, 0, 74, 0
1, 286560, Note_on_c, 0, 60, 0
1, 286560, Note_on_c, 0, 76, 64
1, 286720, Note_on_c, 0, 76, 0
1, 286720, Note_on_c, 0, 74, 57
1, 286760, Tempo, 287219
1, 286880, Note_on_c, 0, 74, 0
1, 286880, Note_on_c, 0, 72, 58
1, 287000, Tempo, 286519
1, 287040, Note_on_c, 0, 72, 0
1, 287040, Note_on_c, 0, 79, 67
1, 287040, Note_on_c, 0, 60, 55
1, 287200, Note_on_c, 0, 79, 0
1, 287200, Note_on_c, 0, 76, 59
1, 287360, Note_on_c, 0, 76, 0
1, 287360, Note_on_c, 0, 77, 59
1, 287520, Note_on_c, 0, 77, 0
1, 287520, Note_on_c, 0, 60, 0
1, 287520, Note_on_c, 0, 79, 62
1, 287680, Note_on_c, 0, 79, 0
1, 287680, Note_on_c, 0, 77, 65
1, 287840, Tempo, 304244
1, 287840, Note_on_c, 0, 77, 0
1, 287840, Note_on_c, 0, 76, 67
1, 288000, Tempo, 286519
1, 288000, Note_on_c, 0, 76, 0
1, 288000, Note_on_c, 0, 82, 69
1, 288000, Note_on_c, 0, 58, 46
1, 288000, Note_on_c, 0, 52, 46
1, 288000, Note_on_c, 0, 55, 46
1, 288000, Note_on_c, 0, 60, 55
1, 288160, Note_on_c, 0, 81, 68
1, 288170, Note_on_c, 0, 82, 0
1, 288320, Note_on_c, 0, 79, 67
1, 288330, Note_on_c, 0, 81, 0
1, 288480, Note_on_c, 0, 60, 0
1, 288480, Note_on_c, 0, 55, 0
1, 288480, Note_on_c, 0, 58, 0
1, 288480, Note_on_c, 0, 52, 0
1, 288480, Note_on_c, 0, 77, 66
1, 288490, Note_on_c, 0, 79, 0
1, 288640, Note_on_c, 0, 76, 65
1, 288650, Note_on_c, 0, 77, 0
1, 288800, Note_on_c, 0, 74, 63
1, 288810, Note_on_c, 0, 76, 0
1, 288960, Tempo, 286519
1, 288960, Note_on_c, 0, 72, 59
1, 288970, Note_on_c, 0, 74, 0
1, 289120, Note_on_c, 0, 71, 55
1, 289130, Note_on_c, 0, 72, 0
1, 289200, Tempo, 287219
1, 289280, Note_on_c, 0, 72, 55
1, 289290, Note_on_c, 0, 71, 0
1, 289400, Tempo, 287908
1, 289440, Note_on_c, 0, 73, 59
1, 289450, Note_on_c, 0, 72, 0
1, 289600, Note_on_c, 0, 74, 56
1, 289610, Note_on_c, 0, 73, 0
1, 289640, Tempo, 288628
1, 289760, Note_on_c, 0, 70, 56
1, 289770, Note_on_c, 0, 74, 0
1, 289840, Tempo, 289324
1, 289880, Tempo, 290768
1, 289920, Tempo, 291361
1, 289920, Note_on_c, 0, 41, 52
1, 289930, Note_on_c, 0, 70, 0
1, 289995, Control_c, 0, 64, 127
1, 290080, Note_on_c, 0, 41, 0
1, 290080, Note_on_c, 0, 45, 54
1, 290120, Tempo, 290051
1, 290240, Note_on_c, 0, 45, 0
1, 290240, Note_on_c, 0, 48, 56
1, 290360, Tempo, 289324
1, 290400, Note_on_c, 0, 48, 0
1, 290400, Note_on_c, 0, 57, 57
1, 290400, Note_on_c, 0, 53, 59
1, 290560, Note_on_c, 0, 57, 0
1, 290560, Note_on_c, 0, 60, 59
1, 290600, Tempo, 288628
1, 290720, Note_on_c, 0, 60, 0
1, 290720, Note_on_c, 0, 65, 62
1, 290880, Note_on_c, 0, 65, 0
1, 290880, Note_on_c, 0, 53, 0
1, 290880, Note_on_c, 0, 69, 64
1, 291040, Note_on_c, 0, 69, 0
1, 291040, Note_on_c, 0, 72, 66
1, 291200, Note_on_c, 0, 72, 0
1, 291200, Note_on_c, 0, 77, 68
1, 291360, Tempo, 298107
1, 291360, Note_on_c, 0, 77, 0
1, 291360, Note_on_c, 0, 81, 70
1, 291371, Control_c, 0, 64, 0
1, 291480, Note_on_c, 0, 81, 0
1, 291600, Note_on_c, 0, 81, 70
1, 291720, Note_on_c, 0, 81, 0
1, 291840, Tempo, 295116
1, 291840, Note_on_c, 0, 81, 70
1, 291840, Note_on_c, 0, 55, 48
1, 291840, Note_on_c, 0, 60, 48
1, 291840, Note_on_c, 0, 64, 57
1, 291854, Control_c, 0, 64, 127
1, 292080, Note_on_c, 0, 81, 0
1, 292080, Note_on_c, 0, 79, 68
1, 292320, Note_on_c, 0, 79, 0
1, 292320, Note_on_c, 0, 64, 0
1, 292320, Note_on_c, 0, 60, 0
1, 292320, Note_on_c, 0, 55, 0
1, 292320, Note_on_c, 0, 77, 66
1, 292332, Control_c, 0, 64, 0
1, 292440, Note_on_c, 0, 77, 0
1, 292560, Tempo, 316472
1, 292560, Note_on_c, 0, 76, 64
1, 292680, Note_on_c, 0, 76, 0
1, 292800, Tempo, 299625
1, 292800, Note_on_c, 0, 76, 65
1, 292800, Note_on_c, 0, 55, 49
1, 292800, Note_on_c, 0, 62, 49
1, 292800, Note_on_c, 0, 65, 58
1, 292885, Control_c, 0, 64, 127
1, 293040, Note_on_c, 0, 76, 0
1, 293040, Note_on_c, 0, 74, 63
1, 293280, Note_on_c, 0, 74, 0
1, 293280, Note_on_c, 0, 65, 0
1, 293280, Note_on_c, 0, 62, 0
1, 293280, Note_on_c, 0, 55, 0
1, 293280, Note_on_c, 0, 72, 61
1, 293290, Control_c, 0, 64, 0
1, 293400, Note_on_c, 0, 72, 0
1, 293520, Tempo, 327011
1, 293520, Note_on_c, 0, 71, 59
1, 293640, Note_on_c, 0, 71, 0
1, 293760, Tempo, 317343
1, 293760, Note_on_c, 0, 72, 63
1, 293760, Note_on_c, 0, 60, 49
1, 293760, Note_on_c, 0, 64, 58
1, 294240, Note_on_c, 0, 64, 0
1, 294240, Note_on_c, 0, 60, 0
1, 294240, Note_on_c, 0, 72, 0
1, 295200, Note_on_c, 0, 67, 45
1, 295660, Tempo, 314795
1, 295670, Note_on_c, 0, 67, 0
1, 295680, Note_on_c, 0, 71, 37
1, 295680, Note_on_c, 0, 74, 45
1, 295680, Note_on_c, 0, 67, 39
1, 295680, Note_on_c, 0, 65, 33
1, 295680, Control_c, 0, 64, 127
1, 295900, Tempo, 313955
1, 295920, Note_on_c, 0, 65, 0
1, 295920, Note_on_c, 0, 71, 0
1, 295920, Note_on_c, 0, 74, 0
1, 295920, Note_on_c, 0, 67, 0
1, 296140, Tempo, 313136
1, 296160, Note_on_c, 0, 71, 38
1, 296160, Note_on_c, 0, 74, 45
1, 296160, Note_on_c, 0, 65, 34
1, 296160, Note_on_c, 0, 67, 40
1, 296380, Tempo, 312305
1, 296400, Note_on_c, 0, 67, 0
1, 296400, Note_on_c, 0, 71, 0
1, 296400, Note_on_c, 0, 74, 0
1, 296400, Note_on_c, 0, 65, 0
1, 296620, Tempo, 311462
1, 296640, Note_on_c, 0, 71, 38
1, 296640, Note_on_c, 0, 74, 45
1, 296640, Note_on_c, 0, 67, 42
1, 296640, Note_on_c, 0, 65, 35
1, 296860, Tempo, 310655
1, 296880, Note_on_c, 0, 65, 0
1, 296880, Note_on_c, 0, 71, 0
1, 296880, Note_on_c, 0, 74, 0
1, 296880, Note_on_c, 0, 67, 0
1, 297100, Tempo, 309821
1, 297120, Tempo, 329725
1, 297120, Note_on_c, 0, 71, 39
1, 297120, Note_on_c, 0, 74, 46
1, 297120, Note_on_c, 0, 65, 36
1, 297120, Note_on_c, 0, 67, 43
1, 297360, Note_on_c, 0, 67, 0
1, 297360, Note_on_c, 0, 71, 0
1, 297360, Note_on_c, 0, 74, 0
1, 297360, Note_on_c, 0, 65, 0
1, 297600, Tempo, 315623
1, 297600, Note_on_c, 0, 72, 40
1, 297600, Note_on_c, 0, 79, 47
1, 297600, Note_on_c, 0, 64, 37
1, 297600, Note_on_c, 0, 67, 45
1, 297607, Control_c, 0, 64, 0
1, 298080, Control_c, 0, 64, 127
1, 299030, Note_on_c, 0, 67, 0
1, 299030, Note_on_c, 0, 64, 0
1, 299040, Note_on_c, 0, 79, 0
1, 299040, Note_on_c, 0, 72, 0
1, 299040, Note_on_c, 0, 72, 46
1, 299040, Note_on_c, 0, 79, 46
1, 299040, Note_on_c, 0, 64, 42
1, 299520, Note_on_c, 0, 64, 0
1, 299520, Note_on_c, 0, 79, 0
1, 299520, Note_on_c, 0, 72, 0
1, 299520, Note_on_c, 0, 75, 40
1, 299520, Note_on_c, 0, 72, 40
1, 299520, Note_on_c, 0, 78, 48
1, 299520, Note_on_c, 0, 69, 45
1, 299530, Control_c, 0, 64, 0
1, 299760, Control_c, 0, 64, 127
1, 300000, Tempo, 309821
1, 300461, Note_on_c, 0, 69, 0
1, 300461, Note_on_c, 0, 75, 0
1, 300461, Note_on_c, 0, 72, 0
1, 300461, Note_on_c, 0, 78, 0
1, 300480, Note_on_c, 0, 74, 37
1, 300480, Note_on_c, 0, 72, 37
1, 300480, Note_on_c, 0, 78, 45
1, 300480, Note_on_c, 0, 69, 43
1, 300491, Control_c, 0, 64, 0
1, 300880, Control_c, 0, 64, 127
1, 301000, Tempo, 323415
1, 301421, Note_on_c, 0, 69, 0
1, 301421, Note_on_c, 0, 74, 0
1, 301421, Note_on_c, 0, 72, 0
1, 301421, Note_on_c, 0, 78, 0
1, 301440, Tempo, 313136
1, 301440, Note_on_c, 0, 71, 39
1, 301440, Note_on_c, 0, 74, 39
1, 301440, Note_on_c, 0, 79, 46
1, 301440, Note_on_c, 0, 67, 43
1, 301449, Control_c, 0, 64, 0
1, 301920, Note_on_c, 0, 67, 0
1, 301920, Note_on_c, 0, 71, 0
1, 301920, Note_on_c, 0, 74, 0
1, 301920, Note_on_c, 0, 79, 0
1, 302880, Tempo, 317578
1, 302880, Note_on_c, 0, 55, 45
1, 303340, Tempo, 314795
1, 303354, Note_on_c, 0, 55, 0
1, 303360, Note_on_c, 0, 59, 37
1, 303360, Note_on_c, 0, 62, 45
1, 303360, Note_on_c, 0, 55, 39
1, 303360, Note_on_c, 0, 53, 33
1, 303440, Control_c, 0, 64, 127
1, 303580, Tempo, 313955
1, 303600, Note_on_c, 0, 53, 0
1, 303600, Note_on_c, 0, 59, 0
1, 303600, Note_on_c, 0, 62, 0
1, 303600, Note_on_c, 0, 55, 0
1, 303820, Tempo, 313136
1, 303840, Note_on_c, 0, 59, 38
1, 303840, Note_on_c, 0, 62, 45
1, 303840, Note_on_c, 0, 53, 34
1, 303840, Note_on_c, 0, 55, 40
1, 304060, Tempo, 312305
1, 304080, Note_on_c, 0, 55, 0
1, 304080, Note_on_c, 0, 59, 0
1, 304080, Note_on_c, 0, 62, 0
1, 304080, Note_on_c, 0, 53, 0
1, 304300, Tempo, 311462
1, 304320, Note_on_c, 0, 59, 38
1, 304320, Note_on_c, 0, 62, 45
1, 304320, Note_on_c, 0, 55, 42
1, 304320, Note_on_c, 0, 53, 35
1, 304540, Tempo, 310655
1, 304560, Note_on_c, 0, 53, 0
1, 304560, Note_on_c, 0, 59, 0
1, 304560, Note_on_c, 0, 62, 0
1, 304560, Note_on_c, 0, 55, 0
1, 304780, Tempo, 309821
1, 304800, Tempo, 329725
1, 304800, Note_on_c, 0, 59, 39
1, 304800, Note_on_c, 0, 62, 46
1, 304800, Note_on_c, 0, 53, 36
1, 304800, Note_on_c, 0, 55, 43
1, 305040, Note_on_c, 0, 55, 0
1, 305040, Note_on_c, 0, 59, 0
1, 305040, Note_on_c, 0, 62, 0
1, 305040, Note_on_c, 0, 53, 0
1, 305280, Tempo, 315623
1, 305280, Note_on_c, 0, 67, 47
1, 305280, Note_on_c, 0, 51, 37
1, 305280, Note_on_c, 0, 55, 45
1, 305289, Control_c, 0, 64, 0
1, 305760, Note_on_c, 0, 59, 40
1, 306240, Note_on_c, 0, 59, 0
1, 306240, Note_on_c, 0, 60, 40
1, 306720, Tempo, 317578
1, 306720, Note_on_c, 0, 67, 0
1, 306720, Note_on_c, 0, 55, 0
1, 306720, Note_on_c, 0, 51, 0
1, 306720, Note_on_c, 0, 67, 45
1, 306720, Note_on_c, 0, 51, 41
1, 307180, Tempo, 314795
1, 307200, Note_on_c, 0, 51, 0
1, 307200, Note_on_c, 0, 67, 0
1, 307200, Note_on_c, 0, 65, 50
1, 307200, Note_on_c, 0, 56, 39
1, 307301, Control_c, 0, 64, 127
1, 307420, Tempo, 313955
1, 307440, Note_on_c, 0, 56, 0
1, 307440, Note_on_c, 0, 65, 0
1, 307440, Note_on_c, 0, 60, 0
1, 307660, Tempo, 313136
1, 307680, Note_on_c, 0, 60, 49
1, 307680, Note_on_c, 0, 65, 49
1, 307680, Note_on_c, 0, 56, 44
1, 307900, Tempo, 312305
1, 307920, Note_on_c, 0, 56, 0
1, 307920, Note_on_c, 0, 65, 0
1, 307920, Note_on_c, 0, 60, 0
1, 308140, Tempo, 311462
1, 308160, Note_on_c, 0, 62, 49
1, 308160, Note_on_c, 0, 65, 49
1, 308160, Note_on_c, 0, 58, 44
1, 308160, Note_on_c, 0, 56, 44
1, 308380, Tempo, 310655
1, 308400, Note_on_c, 0, 56, 0
1, 308400, Note_on_c, 0, 62, 0
1, 308400, Note_on_c, 0, 65, 0
1, 308400, Note_on_c, 0, 58, 0
1, 308620, Tempo, 309821
1, 308640, Tempo, 329725
1, 308640, Note_on_c, 0, 62, 49
1, 308640, Note_on_c, 0, 65, 49
1, 308640, Note_on_c, 0, 56, 46
1, 308640, Note_on_c, 0, 58, 46
1, 308880, Note_on_c, 0, 58, 0
1, 308880, Note_on_c, 0, 56, 0
1, 308880, Note_on_c, 0, 65, 0
1, 309120, Tempo, 315623
1, 309120, Note_on_c, 0, 70, 54
1, 309120, Note_on_c, 0, 55, 50
1, 309120, Note_on_c, 0, 58, 50
1, 309130, Control_c, 0, 64, 0
1, 309600, Note_on_c, 0, 62, 0
1, 309600, Note_on_c, 0, 62, 51
1, 310080, Note_on_c, 0, 62, 0
1, 310080, Note_on_c, 0, 63, 51
1, 310560, Tempo, 317578
1, 310560, Note_on_c, 0, 58, 0
1, 310560, Note_on_c, 0, 70, 0
1, 310560, Note_on_c, 0, 55, 0
1, 310560, Note_on_c, 0, 70, 53
1, 310560, Note_on_c, 0, 55, 51
1, 311020, Tempo, 314795
1, 311040, Note_on_c, 0, 55, 0
1, 311040, Note_on_c, 0, 70, 0
1, 311040, Note_on_c, 0, 69, 59
1, 311040, Note_on_c, 0, 60, 47
1, 311120, Control_c, 0, 64, 127
1, 311260, Tempo, 313955
1, 311280, Note_on_c, 0, 60, 0
1, 311280, Note_on_c, 0, 69, 0
1, 311500, Tempo, 313136
1, 311520, Note_on_c, 0, 63, 0
1, 311520, Note_on_c, 0, 66, 56
1, 311520, Note_on_c, 0, 69, 56
1, 311520, Note_on_c, 0, 60, 48
1, 311520, Note_on_c, 0, 63, 48
1, 311740, Tempo, 312305
1, 311760, Note_on_c, 0, 63, 0
1, 311760, Note_on_c, 0, 66, 0
1, 311760, Note_on_c, 0, 69, 0
1, 311760, Note_on_c, 0, 60, 0
1, 311980, Tempo, 311462
1, 312000, Note_on_c, 0, 66, 56
1, 312000, Note_on_c, 0, 69, 56
1, 312000, Note_on_c, 0, 63, 50
1, 312000, Note_on_c, 0, 60, 50
1, 312220, Tempo, 310655
1, 312240, Note_on_c, 0, 60, 0
1, 312240, Note_on_c, 0, 66, 0
1, 312240, Note_on_c, 0, 69, 0
1, 312240, Note_on_c, 0, 63, 0
1, 312460, Tempo, 309821
1, 312480, Tempo, 329725
1, 312480, Note_on_c, 0, 66, 55
1, 312480, Note_on_c, 0, 69, 55
1, 312480, Note_on_c, 0, 60, 51
1, 312480, Note_on_c, 0, 63, 51
1, 312720, Note_on_c, 0, 63, 0
1, 312720, Note_on_c, 0, 60, 0
1, 312720, Note_on_c, 0, 69, 0
1, 312960, Tempo, 315623
1, 312960, Note_on_c, 0, 74, 61
1, 312960, Note_on_c, 0, 59, 54
1, 312960, Note_on_c, 0, 62, 54
1, 312972, Control_c, 0, 64, 0
1, 313440, Note_on_c, 0, 66, 0
1, 313440, Note_on_c, 0, 66, 54
1, 313920, Note_on_c, 0, 66, 0
1, 313920, Note_on_c, 0, 67, 54
1, 314400, Tempo, 329725
1, 314400, Note_on_c, 0, 67, 0
1, 314400, Note_on_c, 0, 74, 0
1, 314400, Note_on_c, 0, 59, 0
1, 314400, Note_on_c, 0, 62, 0
1, 314400, Note_on_c, 0, 66, 62
1, 314400, Note_on_c, 0, 69, 62
1, 314400, Note_on_c, 0, 60, 53
1, 314400, Note_on_c, 0, 63, 53
1, 314880, Tempo, 315623
1, 314880, Note_on_c, 0, 63, 0
1, 314880, Note_on_c, 0, 60, 0
1, 314880, Note_on_c, 0, 69, 0
1, 314880, Note_on_c, 0, 74, 63
1, 314880, Note_on_c, 0, 59, 55
1, 314880, Note_on_c, 0, 62, 55
1, 315360, Note_on_c, 0, 66, 0
1, 315360, Note_on_c, 0, 66, 55
1, 315840, Note_on_c, 0, 66, 0
1, 315840, Note_on_c, 0, 67, 50
1, 316320, Tempo, 329725
1, 316320, Note_on_c, 0, 67, 0
1, 316320, Note_on_c, 0, 74, 0
1, 316320, Note_on_c, 0, 59, 0
1, 316320, Note_on_c, 0, 62, 0
1, 316320, Note_on_c, 0, 71, 54
1, 316320, Note_on_c, 0, 74, 54
1, 316320, Note_on_c, 0, 65, 54
1, 316320, Note_on_c, 0, 68, 54
1, 316800, Tempo, 315623
1, 316800, Note_on_c, 0, 68, 0
1, 316800, Note_on_c, 0, 65, 0
1, 316800, Note_on_c, 0, 74, 0
1, 316800, Note_on_c, 0, 79, 58
1, 316800, Note_on_c, 0, 63, 56
1, 316800, Note_on_c, 0, 67, 56
1, 317280, Note_on_c, 0, 71, 0
1, 317280, Note_on_c, 0, 71, 52
1, 317760, Note_on_c, 0, 71, 0
1, 317760, Note_on_c, 0, 72, 55
1, 318240, Tempo, 329725
1, 318240, Note_on_c, 0, 72, 0
1, 318240, Note_on_c, 0, 79, 0
1, 318240, Note_on_c, 0, 63, 0
1, 318240, Note_on_c, 0, 67, 0
1, 318240, Note_on_c, 0, 71, 57
1, 318240, Note_on_c, 0, 74, 57
1, 318240, Note_on_c, 0, 65, 49
1, 318240, Note_on_c, 0, 68, 49
1, 318720, Tempo, 315623
1, 318720, Note_on_c, 0, 68, 0
1, 318720, Note_on_c, 0, 65, 0
1, 318720, Note_on_c, 0, 74, 0
1, 318720, Note_on_c, 0, 79, 63
1, 318720, Note_on_c, 0, 63, 52
1, 318720, Note_on_c, 0, 67, 52
1, 319200, Note_on_c, 0, 71, 0
1, 319200, Note_on_c, 0, 71, 55
1, 319680, Note_on_c, 0, 71, 0
1, 319680, Note_on_c, 0, 72, 55
1, 320160, Tempo, 329725
1, 320160, Note_on_c, 0, 72, 0
1, 320160, Note_on_c, 0, 79, 0
1, 320160, Note_on_c, 0, 63, 0
1, 320160, Note_on_c, 0, 67, 0
1, 320160, Note_on_c, 0, 71, 60
1, 320160, Note_on_c, 0, 74, 60
1, 320160, Note_on_c, 0, 65, 36
1, 320160, Note_on_c, 0, 68, 43
1, 320640, Tempo, 315623
1, 320640, Note_on_c, 0, 68, 0
1, 320640, Note_on_c, 0, 65, 0
1, 320640, Note_on_c, 0, 74, 0
1, 320640, Note_on_c, 0, 80, 69
1, 321120, Note_on_c, 0, 71, 0
1, 321120, Note_on_c, 0, 70, 49
1, 321600, Note_on_c, 0, 70, 0
1, 321600, Note_on_c, 0, 71, 49
1, 322080, Tempo, 328551
1, 322080, Note_on_c, 0, 71, 0
1, 322080, Note_on_c, 0, 80, 0
1, 322080, Note_on_c, 0, 74, 56
1, 322560, Tempo, 316773
1, 322560, Note_on_c, 0, 74, 0
1, 322560, Note_on_c, 0, 79, 65
1, 323040, Note_on_c, 0, 70, 47
1, 323520, Note_on_c, 0, 70, 0
1, 323520, Note_on_c, 0, 71, 48
1, 324000, Tempo, 329435
1, 324000, Note_on_c, 0, 71, 0
1, 324000, Note_on_c, 0, 79, 0
1, 324000, Note_on_c, 0, 74, 54
1, 324480, Tempo, 318404
1, 324480, Note_on_c, 0, 74, 0
1, 324480, Note_on_c, 0, 78, 60
1, 324960, Note_on_c, 0, 70, 38
1, 325440, Tempo, 330306
1, 325440, Note_on_c, 0, 70, 0
1, 325440, Note_on_c, 0, 71, 38
1, 325920, Note_on_c, 0, 71, 0
1, 325920, Note_on_c, 0, 78, 0
1, 325920, Note_on_c, 0, 74, 40
1, 326400, Tempo, 323398
1, 326400, Note_on_c, 0, 77, 47
1, 326880, Tempo, 337534
1, 326880, Note_on_c, 0, 74, 0
1, 326880, Note_on_c, 0, 70, 37
1, 327360, Tempo, 366972
1, 327360, Note_on_c, 0, 70, 0
1, 327360, Note_on_c, 0, 71, 37
1, 327840, Tempo, 335196
1, 327840, Note_on_c, 0, 77, 0
1, 327840, Note_on_c, 0, 43, 42
1, 328320, Tempo, 289869
1, 328320, Note_on_c, 0, 43, 0
1, 328320, Note_on_c, 0, 71, 0
1, 328320, Note_on_c, 0, 67, 44
1, 328320, Note_on_c, 0, 72, 44
1, 328320, Note_on_c, 0, 75, 52
1, 328320, Note_on_c, 0, 48, 40
1, 328560, Tempo, 292912
1, 328560, Note_on_c, 0, 48, 0
1, 328560, Note_on_c, 0, 51, 36
1, 328800, Note_on_c, 0, 51, 0
1, 328800, Note_on_c, 0, 55, 36
1, 329040, Tempo, 309821
1, 329040, Note_on_c, 0, 55, 0
1, 329040, Note_on_c, 0, 67, 0
1, 329040, Note_on_c, 0, 72, 0
1, 329040, Note_on_c, 0, 75, 0
1, 329040, Note_on_c, 0, 77, 50
1, 329040, Note_on_c, 0, 60, 36
1, 329280, Tempo, 289324
1, 329280, Note_on_c, 0, 60, 0
1, 329280, Note_on_c, 0, 77, 0
1, 329280, Note_on_c, 0, 74, 53
1, 329280, Note_on_c, 0, 48, 40
1, 329520, Tempo, 292912
1, 329520, Note_on_c, 0, 48, 0
1, 329520, Note_on_c, 0, 53, 40
1, 329760, Note_on_c, 0, 53, 0
1, 329760, Note_on_c, 0, 55, 36
1, 330000, Tempo, 308230
1, 330000, Note_on_c, 0, 55, 0
1, 330000, Note_on_c, 0, 74, 0
1, 330000, Note_on_c, 0, 75, 50
1, 330000, Note_on_c, 0, 59, 36
1, 330240, Tempo, 289869
1, 330240, Note_on_c, 0, 59, 0
1, 330240, Note_on_c, 0, 75, 0
1, 330240, Note_on_c, 0, 72, 52
1, 330240, Note_on_c, 0, 48, 40
1, 330480, Note_on_c, 0, 48, 0
1, 330480, Note_on_c, 0, 51, 40
1, 330720, Note_on_c, 0, 51, 0
1, 330720, Note_on_c, 0, 55, 36
1, 330960, Tempo, 298151
1, 330960, Note_on_c, 0, 55, 0
1, 330960, Note_on_c, 0, 60, 36
1, 331140, Note_on_c, 0, 72, 0
1, 331140, Note_on_c, 0, 74, 48
1, 331160, Tempo, 289869
1, 331200, Note_on_c, 0, 74, 0
1, 331200, Note_on_c, 0, 60, 0
1, 331200, Note_on_c, 0, 72, 52
1, 331200, Note_on_c, 0, 63, 40
1, 331440, Note_on_c, 0, 63, 0
1, 331440, Note_on_c, 0, 72, 0
1, 331440, Note_on_c, 0, 71, 51
1, 331440, Note_on_c, 0, 67, 36
1, 331680, Note_on_c, 0, 67, 0
1, 331680, Note_on_c, 0, 71, 0
1, 331680, Note_on_c, 0, 72, 51
1, 331680, Note_on_c, 0, 63, 36
1, 331920, Note_on_c, 0, 63, 0
1, 331920, Note_on_c, 0, 72, 0
1, 331920, Note_on_c, 0, 74, 50
1, 331920, Note_on_c, 0, 62, 36
1, 332100, Note_on_c, 0, 74, 0
1, 332100, Note_on_c, 0, 77, 49
1, 332160, Note_on_c, 0, 77, 0
1, 332160, Note_on_c, 0, 62, 0
1, 332160, Note_on_c, 0, 75, 56
1, 332160, Note_on_c, 0, 60, 40
1, 332400, Note_on_c, 0, 60, 0
1, 332400, Note_on_c, 0, 75, 0
1, 332400, Note_on_c, 0, 74, 52
1, 332400, Note_on_c, 0, 67, 36
1, 332640, Note_on_c, 0, 67, 0
1, 332640, Note_on_c, 0, 74, 0
1, 332640, Note_on_c, 0, 75, 52
1, 332640, Note_on_c, 0, 60, 36
1, 332640, Note_on_c, 0, 63, 36
1, 332880, Tempo, 314795
1, 332880, Note_on_c, 0, 63, 0
1, 332880, Note_on_c, 0, 60, 0
1, 332880, Note_on_c, 0, 75, 0
1, 332880, Note_on_c, 0, 77, 52
1, 332880, Note_on_c, 0, 67, 36
1, 333120, Tempo, 311462
1, 333120, Note_on_c, 0, 67, 0
1, 333120, Note_on_c, 0, 77, 0
1, 333120, Note_on_c, 0, 79, 56
1, 333120, Note_on_c, 0, 59, 41
1, 333120, Note_on_c, 0, 62, 41
1, 333360, Note_on_c, 0, 62, 0
1, 333360, Note_on_c, 0, 59, 0
1, 333360, Note_on_c, 0, 79, 0
1, 333360, Note_on_c, 0, 67, 36
1, 333600, Note_on_c, 0, 67, 0
1, 333600, Note_on_c, 0, 79, 55
1, 333600, Note_on_c, 0, 60, 36
1, 333600, Note_on_c, 0, 56, 36
1, 333840, Note_on_c, 0, 56, 0
1, 333840, Note_on_c, 0, 60, 0
1, 333840, Note_on_c, 0, 79, 0
1, 333840, Note_on_c, 0, 67, 36
1, 334080, Note_on_c, 0, 67, 0
1, 334080, Note_on_c, 0, 79, 57
1, 334080, Note_on_c, 0, 55, 40
1, 334320, Note_on_c, 0, 55, 0
1, 334320, Note_on_c, 0, 59, 29
1, 334560, Note_on_c, 0, 59, 0
1, 334560, Note_on_c, 0, 62, 28
1, 334800, Note_on_c, 0, 62, 0
1, 334800, Note_on_c, 0, 67, 28
1, 335040, Tempo, 289869
1, 335040, Note_on_c, 0, 67, 0
1, 335040, Note_on_c, 0, 55, 40
1, 335280, Note_on_c, 0, 55, 0
1, 335280, Note_on_c, 0, 59, 31
1, 335520, Note_on_c, 0, 59, 0
1, 335520, Note_on_c, 0, 79, 0
1, 335520, Note_on_c, 0, 77, 51
1, 335520, Note_on_c, 0, 62, 31
1, 335760, Tempo, 321096
1, 335760, Note_on_c, 0, 62, 0
1, 335760, Note_on_c, 0, 77, 0
1, 335760, Note_on_c, 0, 79, 53
1, 335760, Note_on_c, 0, 67, 31
1, 335880, Tempo, 296457
1, 335880, Note_on_c, 0, 79, 0
1, 335880, Note_on_c, 0, 77, 48
1, 335940, Note_on_c, 0, 77, 0
1, 335940, Note_on_c, 0, 79, 48
1, 336000, Tempo, 289869
1, 336000, Note_on_c, 0, 79, 0
1, 336000, Note_on_c, 0, 67, 0
1, 336000, Note_on_c, 0, 80, 56
1, 336000, Note_on_c, 0, 53, 40
1, 336240, Tempo, 293643
1, 336240, Note_on_c, 0, 53, 0
1, 336240, Note_on_c, 0, 56, 36
1, 336480, Note_on_c, 0, 56, 0
1, 336480, Note_on_c, 0, 59, 37
1, 336720, Note_on_c, 0, 59, 0
1, 336720, Note_on_c, 0, 62, 37
1, 336960, Tempo, 288628
1, 336960, Note_on_c, 0, 62, 0
1, 336960, Note_on_c, 0, 80, 0
1, 336960, Note_on_c, 0, 74, 52
1, 336960, Note_on_c, 0, 53, 40
1, 337200, Note_on_c, 0, 53, 0
1, 337200, Note_on_c, 0, 56, 36
1, 337440, Note_on_c, 0, 56, 0
1, 337440, Note_on_c, 0, 74, 0
1, 337440, Note_on_c, 0, 75, 51
1, 337440, Note_on_c, 0, 59, 36
1, 337680, Tempo, 318150
1, 337680, Note_on_c, 0, 59, 0
1, 337680, Note_on_c, 0, 75, 0
1, 337680, Note_on_c, 0, 77, 53
1, 337680, Note_on_c, 0, 62, 36
1, 337800, Tempo, 296457
1, 337800, Note_on_c, 0, 77, 0
1, 337800, Note_on_c, 0, 75, 50
1, 337860, Note_on_c, 0, 75, 0
1, 337860, Note_on_c, 0, 77, 50
1, 337920, Tempo, 289869
1, 337920, Note_on_c, 0, 77, 0
1, 337920, Note_on_c, 0, 62, 0
1, 337920, Note_on_c, 0, 79, 56
1, 337920, Note_on_c, 0, 51, 40
1, 338160, Tempo, 293643
1, 338160, Note_on_c, 0, 51, 0
1, 338160, Note_on_c, 0, 55, 34
1, 338400, Note_on_c, 0, 55, 0
1, 338400, Note_on_c, 0, 60, 34
1, 338640, Note_on_c, 0, 60, 0
1, 338640, Note_on_c, 0, 63, 33
1, 338880, Tempo, 289324
1, 338880, Note_on_c, 0, 63, 0
1, 338880, Note_on_c, 0, 79, 0
1, 338880, Note_on_c, 0, 72, 52
1, 338880, Note_on_c, 0, 56, 41
1, 339120, Note_on_c, 0, 56, 0
1, 339120, Note_on_c, 0, 60, 35
1, 339350, Note_on_c, 0, 72, 0
1, 339360, Note_on_c, 0, 60, 0
1, 339360, Note_on_c, 0, 72, 53
1, 339360, Note_on_c, 0, 63, 35
1, 339600, Tempo, 298151
1, 339600, Note_on_c, 0, 63, 0
1, 339600, Note_on_c, 0, 72, 0
1, 339600, Note_on_c, 0, 74, 54
1, 339600, Note_on_c, 0, 66, 35
1, 339840, Tempo, 289869
1, 339840, Note_on_c, 0, 66, 0
1, 339840, Note_on_c, 0, 74, 0
1, 339840, Note_on_c, 0, 75, 57
1, 339840, Note_on_c, 0, 55, 40
1, 340080, Tempo, 292912
1, 340080, Note_on_c, 0, 55, 0
1, 340080, Note_on_c, 0, 75, 0
1, 340080, Note_on_c, 0, 60, 40
1, 340320, Note_on_c, 0, 60, 0
1, 340320, Note_on_c, 0, 75, 53
1, 340320, Note_on_c, 0, 63, 35
1, 340560, Note_on_c, 0, 63, 0
1, 340560, Note_on_c, 0, 75, 0
1, 340560, Note_on_c, 0, 77, 55
1, 340560, Note_on_c, 0, 67, 35
1, 340800, Tempo, 289324
1, 340800, Note_on_c, 0, 67, 0
1, 340800, Note_on_c, 0, 77, 0
1, 340800, Note_on_c, 0, 74, 57
1, 340800, Note_on_c, 0, 55, 40
1, 341040, Tempo, 292198
1, 341040, Note_on_c, 0, 55, 0
1, 341040, Note_on_c, 0, 74, 0
1, 341040, Note_on_c, 0, 59, 36
1, 341280, Note_on_c, 0, 59, 0
1, 341280, Note_on_c, 0, 74, 51
1, 341280, Note_on_c, 0, 62, 36
1, 341520, Tempo, 299865
1, 341520, Note_on_c, 0, 62, 0
1, 341520, Note_on_c, 0, 74, 0
1, 341520, Note_on_c, 0, 75, 54
1, 341520, Note_on_c, 0, 67, 36
1, 341760, Tempo, 291971
1, 341760, Note_on_c, 0, 67, 0
1, 341760, Note_on_c, 0, 75, 0
1, 341760, Note_on_c, 0, 72, 57
1, 341760, Note_on_c, 0, 60, 57
1, 341960, Tempo, 291262
1, 342000, Note_on_c, 0, 72, 0
1, 342000, Note_on_c, 0, 71, 52
1, 342160, Tempo, 290557
1, 342240, Note_on_c, 0, 71, 0
1, 342240, Note_on_c, 0, 60, 0
1, 342240, Note_on_c, 0, 72, 53
1, 342360, Tempo, 289855
1, 342480, Note_on_c, 0, 72, 0
1, 342480, Note_on_c, 0, 74, 54
1, 342560, Tempo, 289157
1, 342720, Note_on_c, 0, 74, 0
1, 342720, Note_on_c, 0, 75, 55
1, 342960, Note_on_c, 0, 75, 0
1, 342960, Note_on_c, 0, 76, 56
1, 343160, Tempo, 289855
1, 343200, Note_on_c, 0, 76, 0
1, 343200, Note_on_c, 0, 77, 58
1, 343440, Tempo, 297767
1, 343440, Note_on_c, 0, 77, 0
1, 343440, Note_on_c, 0, 79, 59
1, 343680, Tempo, 289157
1, 343680, Note_on_c, 0, 79, 0
1, 343680, Note_on_c, 0, 80, 60
1, 343680, Note_on_c, 0, 41, 58
1, 343920, Note_on_c, 0, 41, 0
1, 343920, Note_on_c, 0, 80, 0
1, 343920, Note_on_c, 0, 79, 57
1, 343920, Note_on_c, 0, 44, 48
1, 344160, Note_on_c, 0, 44, 0
1, 344160, Note_on_c, 0, 79, 0
1, 344160, Note_on_c, 0, 82, 63
1, 344160, Note_on_c, 0, 47, 49
1, 344400, Note_on_c, 0, 47, 0
1, 344400, Note_on_c, 0, 82, 0
1, 344400, Note_on_c, 0, 80, 62
1, 344400, Note_on_c, 0, 50, 51
1, 344640, Note_on_c, 0, 50, 0
1, 344640, Note_on_c, 0, 80, 0
1, 344640, Note_on_c, 0, 79, 62
1, 344640, Note_on_c, 0, 41, 53
1, 344880, Note_on_c, 0, 41, 0
1, 344880, Note_on_c, 0, 79, 0
1, 344880, Note_on_c, 0, 77, 61
1, 344880, Note_on_c, 0, 44, 54
1, 345120, Note_on_c, 0, 44, 0
1, 345120, Note_on_c, 0, 77, 0
1, 345120, Note_on_c, 0, 75, 60
1, 345120, Note_on_c, 0, 47, 56
1, 345360, Tempo, 297767
1, 345360, Note_on_c, 0, 47, 0
1, 345360, Note_on_c, 0, 75, 0
1, 345360, Note_on_c, 0, 74, 58
1, 345360, Note_on_c, 0, 50, 57
1, 345600, Tempo, 289157
1, 345600, Note_on_c, 0, 50, 0
1, 345600, Note_on_c, 0, 74, 0
1, 345600, Note_on_c, 0, 79, 66
1, 345600, Note_on_c, 0, 39, 58
1, 345840, Note_on_c, 0, 39, 0
1, 345840, Note_on_c, 0, 79, 0
1, 345840, Note_on_c, 0, 78, 60
1, 345840, Note_on_c, 0, 43, 57
1, 346080, Note_on_c, 0, 43, 0
1, 346080, Note_on_c, 0, 78, 0
1, 346080, Note_on_c, 0, 80, 67
1, 346080, Note_on_c, 0, 48, 55
1, 346320, Note_on_c, 0, 48, 0
1, 346320, Note_on_c, 0, 80, 0
1, 346320, Note_on_c, 0, 79, 66
1, 346320, Note_on_c, 0, 51, 56
1, 346560, Note_on_c, 0, 51, 0
1, 346560, Note_on_c, 0, 79, 0
1, 346560, Note_on_c, 0, 77, 66
1, 346560, Note_on_c, 0, 44, 57
1, 346800, Note_on_c, 0, 44, 0
1, 346800, Note_on_c, 0, 77, 0
1, 346800, Note_on_c, 0, 75, 65
1, 346800, Note_on_c, 0, 48, 57
1, 347040, Note_on_c, 0, 48, 0
1, 347040, Note_on_c, 0, 75, 0
1, 347040, Note_on_c, 0, 74, 65
1, 347040, Note_on_c, 0, 51, 58
1, 347280, Tempo, 297767
1, 347280, Note_on_c, 0, 51, 0
1, 347280, Note_on_c, 0, 74, 0
1, 347280, Note_on_c, 0, 72, 64
1, 347280, Note_on_c, 0, 54, 60
1, 347520, Tempo, 289157
1, 347520, Note_on_c, 0, 54, 0
1, 347520, Note_on_c, 0, 72, 0
1, 347520, Note_on_c, 0, 75, 71
1, 347520, Note_on_c, 0, 43, 64
1, 347760, Note_on_c, 0, 43, 0
1, 347760, Note_on_c, 0, 75, 0
1, 347760, Note_on_c, 0, 74, 64
1, 347760, Note_on_c, 0, 48, 58
1, 348000, Note_on_c, 0, 48, 0
1, 348000, Note_on_c, 0, 74, 0
1, 348000, Note_on_c, 0, 77, 70
1, 348000, Note_on_c, 0, 51, 63
1, 348240, Note_on_c, 0, 51, 0
1, 348240, Note_on_c, 0, 77, 0
1, 348240, Note_on_c, 0, 75, 62
1, 348240, Note_on_c, 0, 55, 63
1, 348480, Note_on_c, 0, 55, 0
1, 348480, Note_on_c, 0, 75, 0
1, 348480, Note_on_c, 0, 74, 69
1, 348480, Note_on_c, 0, 43, 62
1, 348720, Note_on_c, 0, 43, 0
1, 348720, Note_on_c, 0, 74, 0
1, 348720, Note_on_c, 0, 73, 66
1, 348720, Note_on_c, 0, 55, 61
1, 348960, Note_on_c, 0, 55, 0
1, 348960, Note_on_c, 0, 73, 0
1, 348960, Note_on_c, 0, 75, 64
1, 348960, Note_on_c, 0, 43, 58
1, 349200, Note_on_c, 0, 43, 0
1, 349200, Note_on_c, 0, 75, 0
1, 349200, Note_on_c, 0, 74, 60
1, 349200, Note_on_c, 0, 55, 57
1, 349440, Tempo, 303459
1, 349440, Note_on_c, 0, 55, 0
1, 349440, Note_on_c, 0, 74, 0
1, 349440, Note_on_c, 0, 72, 66
1, 349440, Note_on_c, 0, 48, 67
1, 349680, Tempo, 292683
1, 349680, Note_on_c, 0, 48, 0
1, 349680, Note_on_c, 0, 60, 52
1, 349920, Tempo, 287219
1, 349920, Note_on_c, 0, 60, 0
1, 349920, Note_on_c, 0, 72, 0
1, 349920, Note_on_c, 0, 59, 60
1, 350160, Note_on_c, 0, 59, 0
1, 350160, Note_on_c, 0, 60, 52
1, 350400, Tempo, 304244
1, 350400, Note_on_c, 0, 60, 0
1, 350400, Note_on_c, 0, 58, 64
1, 350560, Tempo, 287219
1, 350560, Note_on_c, 0, 84, 68
1, 350640, Note_on_c, 0, 58, 0
1, 350640, Note_on_c, 0, 60, 51
1, 350720, Note_on_c, 0, 84, 0
1, 350720, Note_on_c, 0, 86, 70
1, 350880, Note_on_c, 0, 86, 0
1, 350880, Note_on_c, 0, 60, 0
1, 350880, Note_on_c, 0, 88, 73
1, 350880, Note_on_c, 0, 55, 57
1, 351040, Note_on_c, 0, 88, 0
1, 351040, Note_on_c, 0, 86, 70
1, 351120, Note_on_c, 0, 55, 0
1, 351120, Note_on_c, 0, 60, 50
1, 351200, Note_on_c, 0, 86, 0
1, 351200, Note_on_c, 0, 84, 66
1, 351360, Tempo, 303459
1, 351360, Note_on_c, 0, 84, 0
1, 351360, Note_on_c, 0, 60, 0
1, 351360, Note_on_c, 0, 89, 77
1, 351360, Note_on_c, 0, 56, 63
1, 351600, Tempo, 292683
1, 351600, Note_on_c, 0, 56, 0
1, 351600, Note_on_c, 0, 89, 0
1, 351600, Note_on_c, 0, 60, 50
1, 351840, Tempo, 287219
1, 351840, Note_on_c, 0, 60, 0
1, 351840, Note_on_c, 0, 53, 57
1, 352080, Note_on_c, 0, 53, 0
1, 352080, Note_on_c, 0, 60, 50
1, 352320, Tempo, 304244
1, 352320, Note_on_c, 0, 60, 0
1, 352320, Note_on_c, 0, 58, 59
1, 352480, Tempo, 287219
1, 352480, Note_on_c, 0, 84, 66
1, 352560, Note_on_c, 0, 58, 0
1, 352560, Note_on_c, 0, 60, 50
1, 352640, Note_on_c, 0, 84, 0
1, 352640, Note_on_c, 0, 86, 69
1, 352800, Note_on_c, 0, 86, 0
1, 352800, Note_on_c, 0, 60, 0
1, 352800, Note_on_c, 0, 88, 72
1, 352800, Note_on_c, 0, 55, 55
1, 352960, Note_on_c, 0, 88, 0
1, 352960, Note_on_c, 0, 86, 70
1, 353040, Note_on_c, 0, 55, 0
1, 353040, Note_on_c, 0, 60, 50
1, 353120, Note_on_c, 0, 86, 0
1, 353120, Note_on_c, 0, 84, 67
1, 353280, Tempo, 303459
1, 353280, Note_on_c, 0, 84, 0
1, 353280, Note_on_c, 0, 60, 0
1, 353280, Note_on_c, 0, 89, 77
1, 353280, Note_on_c, 0, 56, 63
1, 353520, Tempo, 292683
1, 353520, Note_on_c, 0, 56, 0
1, 353520, Note_on_c, 0, 89, 0
1, 353520, Note_on_c, 0, 60, 50
1, 353760, Tempo, 287219
1, 353760, Note_on_c, 0, 60, 0
1, 353760, Note_on_c, 0, 53, 57
1, 354000, Note_on_c, 0, 53, 0
1, 354000, Note_on_c, 0, 60, 50
1, 354240, Tempo, 304244
1, 354240, Note_on_c, 0, 60, 0
1, 354240, Note_on_c, 0, 58, 59
1, 354400, Tempo, 287219
1, 354400, Note_on_c, 0, 84, 66
1, 354480, Note_on_c, 0, 58, 0
1, 354480, Note_on_c, 0, 60, 50
1, 354560, Note_on_c, 0, 84, 0
1, 354560, Note_on_c, 0, 86, 69
1, 354720, Note_on_c, 0, 86, 0
1, 354720, Note_on_c, 0, 60, 0
1, 354720, Note_on_c, 0, 88, 72
1, 354720, Note_on_c, 0, 55, 55
1, 354880, Note_on_c, 0, 88, 0
1, 354880, Note_on_c, 0, 86, 70
1, 354960, Note_on_c, 0, 55, 0
1, 354960, Note_on_c, 0, 60, 50
1, 355040, Note_on_c, 0, 86, 0
1, 355040, Note_on_c, 0, 84, 67
1, 355200, Tempo, 294840
1, 355200, Note_on_c, 0, 84, 0
1, 355200, Note_on_c, 0, 60, 0
1, 355200, Note_on_c, 0, 89, 86
1, 355200, Note_on_c, 0, 56, 77
1, 355440, Note_on_c, 0, 56, 0
1, 355440, Note_on_c, 0, 89, 0
1, 355660, Tempo, 309278
1, 355680, Note_on_c, 0, 72, 76
1, 355680, Note_on_c, 0, 75, 76
1, 355680, Note_on_c, 0, 78, 76
1, 355680, Note_on_c, 0, 84, 90
1, 355680, Note_on_c, 0, 44, 62
1, 355680, Note_on_c, 0, 48, 62
1, 355680, Note_on_c, 0, 51, 62
1, 355680, Note_on_c, 0, 56, 73
1, 355920, Note_on_c, 0, 56, 0
1, 355920, Note_on_c, 0, 72, 0
1, 355920, Note_on_c, 0, 44, 0
1, 355920, Note_on_c, 0, 75, 0
1, 355920, Note_on_c, 0, 78, 0
1, 355920, Note_on_c, 0, 84, 0
1, 355920, Note_on_c, 0, 48, 0
1, 355920, Note_on_c, 0, 51, 0
1, 356160, Note_on_c, 0, 72, 76
1, 356160, Note_on_c, 0, 75, 76
1, 356160, Note_on_c, 0, 79, 76
1, 356160, Note_on_c, 0, 84, 90
1, 356160, Note_on_c, 0, 43, 62
1, 356160, Note_on_c, 0, 48, 62
1, 356160, Note_on_c, 0, 51, 62
1, 356160, Note_on_c, 0, 55, 73
1, 356400, Note_on_c, 0, 55, 0
1, 356400, Note_on_c, 0, 72, 0
1, 356400, Note_on_c, 0, 43, 0
1, 356400, Note_on_c, 0, 75, 0
1, 356400, Note_on_c, 0, 79, 0
1, 356400, Note_on_c, 0, 84, 0
1, 356400, Note_on_c, 0, 48, 0
1, 356400, Note_on_c, 0, 51, 0
1, 356640, Note_on_c, 0, 71, 76
1, 356640, Note_on_c, 0, 74, 76
1, 356640, Note_on_c, 0, 79, 76
1, 356640, Note_on_c, 0, 83, 90
1, 356640, Note_on_c, 0, 43, 62
1, 356640, Note_on_c, 0, 47, 62
1, 356640, Note_on_c, 0, 50, 62
1, 356640, Note_on_c, 0, 55, 73
1, 356880, Note_on_c, 0, 55, 0
1, 356880, Note_on_c, 0, 71, 0
1, 356880, Note_on_c, 0, 43, 0
1, 356880, Note_on_c, 0, 74, 0
1, 356880, Note_on_c, 0, 79, 0
1, 356880, Note_on_c, 0, 83, 0
1, 356880, Note_on_c, 0, 47, 0
1, 356880, Note_on_c, 0, 50, 0
1, 357120, Tempo, 303459
1, 357120, Note_on_c, 0, 72, 76
1, 357120, Note_on_c, 0, 75, 76
1, 357120, Note_on_c, 0, 79, 76
1, 357120, Note_on_c, 0, 84, 90
1, 357120, Note_on_c, 0, 36, 76
1, 357360, Tempo, 292683
1, 357360, Note_on_c, 0, 36, 0
1, 357360, Note_on_c, 0, 79, 0
1, 357360, Note_on_c, 0, 72, 0
1, 357360, Note_on_c, 0, 75, 0
1, 357360, Note_on_c, 0, 84, 0
1, 357360, Note_on_c, 0, 48, 52
1, 357600, Tempo, 287219
1, 357600, Note_on_c, 0, 48, 0
1, 357600, Note_on_c, 0, 47, 60
1, 357840, Note_on_c, 0, 47, 0
1, 357840, Note_on_c, 0, 48, 52
1, 358080, Tempo, 304244
1, 358080, Note_on_c, 0, 48, 0
1, 358080, Note_on_c, 0, 46, 64
1, 358240, Tempo, 287219
1, 358240, Note_on_c, 0, 72, 68
1, 358320, Note_on_c, 0, 46, 0
1, 358320, Note_on_c, 0, 48, 51
1, 358400, Note_on_c, 0, 72, 0
1, 358400, Note_on_c, 0, 74, 70
1, 358560, Note_on_c, 0, 74, 0
1, 358560, Note_on_c, 0, 48, 0
1, 358560, Note_on_c, 0, 76, 73
1, 358560, Note_on_c, 0, 43, 57
1, 358720, Note_on_c, 0, 76, 0
1, 358720, Note_on_c, 0, 74, 70
1, 358800, Note_on_c, 0, 43, 0
1, 358800, Note_on_c, 0, 48, 50
1, 358880, Note_on_c, 0, 74, 0
1, 358880, Note_on_c, 0, 72, 66
1, 359040, Tempo, 303459
1, 359040, Note_on_c, 0, 72, 0
1, 359040, Note_on_c, 0, 48, 0
1, 359040, Note_on_c, 0, 77, 77
1, 359040, Note_on_c, 0, 44, 63
1, 359280, Tempo, 292683
1, 359280, Note_on_c, 0, 44, 0
1, 359280, Note_on_c, 0, 77, 0
1, 359280, Note_on_c, 0, 48, 50
1, 359520, Tempo, 287219
1, 359520, Note_on_c, 0, 48, 0
1, 359520, Note_on_c, 0, 41, 57
1, 359760, Note_on_c, 0, 41, 0
1, 359760, Note_on_c, 0, 48, 50
1, 360000, Tempo, 304244
1, 360000, Note_on_c, 0, 48, 0
1, 360000, Note_on_c, 0, 46, 59
1, 360160, Tempo, 287219
1, 360160, Note_on_c, 0, 72, 66
1, 360240, Note_on_c, 0, 46, 0
1, 360240, Note_on_c, 0, 48, 50
1, 360320, Note_on_c, 0, 72, 0
1, 360320, Note_on_c, 0, 74, 69
1, 360480, Note_on_c, 0, 74, 0
1, 360480, Note_on_c, 0, 48, 0
1, 360480, Note_on_c, 0, 76, 72
1, 360480, Note_on_c, 0, 43, 55
1, 360640, Note_on_c, 0, 76, 0
1, 360640, Note_on_c, 0, 74, 70
1, 360720, Note_on_c, 0, 43, 0
1, 360720, Note_on_c, 0, 48, 50
1, 360800, Note_on_c, 0, 74, 0
1, 360800, Note_on_c, 0, 72, 67
1, 360960, Tempo, 303459
1, 360960, Note_on_c, 0, 72, 0
1, 360960, Note_on_c, 0, 48, 0
1, 360960, Note_on_c, 0, 77, 77
1, 360960, Note_on_c, 0, 44, 63
1, 361200, Tempo, 292683
1, 361200, Note_on_c, 0, 44, 0
1, 361200, Note_on_c, 0, 77, 0
1, 361200, Note_on_c, 0, 48, 50
1, 361440, Tempo, 287219
1, 361440, Note_on_c, 0, 48, 0
1, 361440, Note_on_c, 0, 41, 57
1, 361680, Note_on_c, 0, 41, 0
1, 361680, Note_on_c, 0, 48, 50
1, 361920, Tempo, 304244
1, 361920, Note_on_c, 0, 48, 0
1, 361920, Note_on_c, 0, 46, 59
1, 362080, Tempo, 287219
1, 362080, Note_on_c, 0, 60, 66
1, 362160, Note_on_c, 0, 46, 0
1, 362160, Note_on_c, 0, 48, 50
1, 362240, Note_on_c, 0, 60, 0
1, 362240, Note_on_c, 0, 62, 69
1, 362400, Note_on_c, 0, 62, 0
1, 362400, Note_on_c, 0, 48, 0
1, 362400, Note_on_c, 0, 64, 72
1, 362400, Note_on_c, 0, 43, 55
1, 362560, Note_on_c, 0, 64, 0
1, 362560, Note_on_c, 0, 62, 70
1, 362640, Note_on_c, 0, 43, 0
1, 362640, Note_on_c, 0, 48, 50
1, 362720, Tempo, 299252
1, 362720, Note_on_c, 0, 62, 0
1, 362720, Note_on_c, 0, 60, 67
1, 362880, Tempo, 287081
1, 362880, Note_on_c, 0, 60, 0
1, 362880, Note_on_c, 0, 48, 0
1, 362880, Note_on_c, 0, 65, 63
1, 362880, Note_on_c, 0, 44, 45
1, 363040, Note_on_c, 0, 65, 0
1, 363040, Note_on_c, 0, 60, 50
1, 363200, Note_on_c, 0, 60, 0
1, 363200, Note_on_c, 0, 62, 50
1, 363360, Note_on_c, 0, 62, 0
1, 363360, Note_on_c, 0, 44, 0
1, 363360, Note_on_c, 0, 63, 63
1, 363360, Note_on_c, 0, 44, 45
1, 363360, Note_on_c, 0, 56, 45
1, 363520, Note_on_c, 0, 63, 0
1, 363520, Note_on_c, 0, 62, 50
1, 363680, Tempo, 298507
1, 363680, Note_on_c, 0, 62, 0
1, 363680, Note_on_c, 0, 60, 50
1, 363840, Tempo, 286396
1, 363840, Note_on_c, 0, 60, 0
1, 363840, Note_on_c, 0, 56, 0
1, 363840, Note_on_c, 0, 44, 0
1, 363840, Note_on_c, 0, 66, 68
1, 364000, Note_on_c, 0, 66, 0
1, 364000, Note_on_c, 0, 60, 52
1, 364160, Note_on_c, 0, 60, 0
1, 364160, Note_on_c, 0, 62, 53
1, 364320, Note_on_c, 0, 62, 0
1, 364320, Note_on_c, 0, 63, 60
1, 364320, Note_on_c, 0, 44, 41
1, 364320, Note_on_c, 0, 48, 41
1, 364320, Note_on_c, 0, 51, 41
1, 364320, Note_on_c, 0, 56, 49
1, 364480, Note_on_c, 0, 63, 0
1, 364480, Note_on_c, 0, 62, 50
1, 364560, Note_on_c, 0, 51, 0
1, 364560, Note_on_c, 0, 56, 0
1, 364560, Note_on_c, 0, 44, 0
1, 364560, Note_on_c, 0, 48, 0
1, 364640, Tempo, 298507
1, 364640, Note_on_c, 0, 62, 0
1, 364640, Note_on_c, 0, 60, 50
1, 364800, Tempo, 286396
1, 364800, Note_on_c, 0, 60, 0
1, 364800, Note_on_c, 0, 67, 69
1, 364960, Note_on_c, 0, 67, 0
1, 364960, Note_on_c, 0, 60, 51
1, 365120, Note_on_c, 0, 60, 0
1, 365120, Note_on_c, 0, 62, 52
1, 365280, Note_on_c, 0, 62, 0
1, 365280, Note_on_c, 0, 63, 58
1, 365280, Note_on_c, 0, 43, 44
1, 365280, Note_on_c, 0, 48, 44
1, 365280, Note_on_c, 0, 51, 44
1, 365280, Note_on_c, 0, 55, 52
1, 365440, Note_on_c, 0, 63, 0
1, 365440, Note_on_c, 0, 62, 51
1, 365520, Note_on_c, 0, 51, 0
1, 365520, Note_on_c, 0, 55, 0
1, 365520, Note_on_c, 0, 43, 0
1, 365520, Note_on_c, 0, 48, 0
1, 365600, Tempo, 297767
1, 365600, Note_on_c, 0, 62, 0
1, 365600, Note_on_c, 0, 60, 52
1, 365760, Tempo, 285036
1, 365760, Note_on_c, 0, 60, 0
1, 365760, Note_on_c, 0, 69, 69
1, 365920, Note_on_c, 0, 69, 0
1, 365920, Note_on_c, 0, 60, 54
1, 366080, Note_on_c, 0, 60, 0
1, 366080, Note_on_c, 0, 62, 55
1, 366240, Note_on_c, 0, 62, 0
1, 366240, Note_on_c, 0, 63, 62
1, 366240, Note_on_c, 0, 42, 46
1, 366240, Note_on_c, 0, 48, 46
1, 366240, Note_on_c, 0, 51, 46
1, 366240, Note_on_c, 0, 54, 55
1, 366400, Note_on_c, 0, 63, 0
1, 366400, Note_on_c, 0, 62, 55
1, 366480, Note_on_c, 0, 51, 0
1, 366480, Note_on_c, 0, 54, 0
1, 366480, Note_on_c, 0, 42, 0
1, 366480, Note_on_c, 0, 48, 0
1, 366560, Tempo, 299252
1, 366560, Note_on_c, 0, 62, 0
1, 366560, Note_on_c, 0, 60, 55
1, 366720, Tempo, 284360
1, 366720, Note_on_c, 0, 60, 0
1, 366720, Note_on_c, 0, 71, 70
1, 366880, Note_on_c, 0, 71, 0
1, 366880, Note_on_c, 0, 59, 55
1, 367040, Note_on_c, 0, 59, 0
1, 367040, Note_on_c, 0, 60, 55
1, 367200, Note_on_c, 0, 60, 0
1, 367200, Note_on_c, 0, 62, 61
1, 367200, Note_on_c, 0, 41, 48
1, 367200, Note_on_c, 0, 47, 48
1, 367200, Note_on_c, 0, 50, 48
1, 367200, Note_on_c, 0, 53, 57
1, 367360, Note_on_c, 0, 62, 0
1, 367360, Note_on_c, 0, 60, 55
1, 367440, Note_on_c, 0, 50, 0
1, 367440, Note_on_c, 0, 53, 0
1, 367440, Note_on_c, 0, 41, 0
1, 367440, Note_on_c, 0, 47, 0
1, 367520, Tempo, 295567
1, 367520, Note_on_c, 0, 60, 0
1, 367520, Note_on_c, 0, 59, 54
1, 367680, Tempo, 283688
1, 367680, Note_on_c, 0, 59, 0
1, 367680, Note_on_c, 0, 72, 72
1, 367840, Note_on_c, 0, 72, 0
1, 367840, Note_on_c, 0, 60, 55
1, 368000, Note_on_c, 0, 60, 0
1, 368000, Note_on_c, 0, 62, 55
1, 368160, Note_on_c, 0, 62, 0
1, 368160, Note_on_c, 0, 63, 63
1, 368160, Note_on_c, 0, 39, 51
1, 368160, Note_on_c, 0, 43, 51
1, 368160, Note_on_c, 0, 48, 51
1, 368160, Note_on_c, 0, 51, 60
1, 368320, Note_on_c, 0, 63, 0
1, 368320, Note_on_c, 0, 62, 56
1, 368400, Note_on_c, 0, 48, 0
1, 368400, Note_on_c, 0, 51, 0
1, 368400, Note_on_c, 0, 39, 0
1, 368400, Note_on_c, 0, 43, 0
1, 368480, Tempo, 297030
1, 368480, Note_on_c, 0, 62, 0
1, 368480, Note_on_c, 0, 60, 58
1, 368600, Tempo, 282433
1, 368640, Note_on_c, 0, 60, 0
1, 368640, Note_on_c, 0, 74, 74
1, 368800, Note_on_c, 0, 74, 0
1, 368800, Note_on_c, 0, 62, 56
1, 368960, Note_on_c, 0, 62, 0
1, 368960, Note_on_c, 0, 63, 56
1, 369120, Note_on_c, 0, 63, 0
1, 369120, Note_on_c, 0, 65, 62
1, 369120, Note_on_c, 0, 41, 53
1, 369120, Note_on_c, 0, 44, 53
1, 369120, Note_on_c, 0, 50, 53
1, 369120, Note_on_c, 0, 53, 63
1, 369280, Note_on_c, 0, 65, 0
1, 369280, Note_on_c, 0, 63, 54
1, 369360, Note_on_c, 0, 50, 0
1, 369360, Note_on_c, 0, 53, 0
1, 369360, Note_on_c, 0, 41, 0
1, 369360, Note_on_c, 0, 44, 0
1, 369440, Tempo, 297767
1, 369440, Note_on_c, 0, 63, 0
1, 369440, Note_on_c, 0, 62, 54
1, 369600, Tempo, 283019
1, 369600, Note_on_c, 0, 62, 0
1, 369600, Note_on_c, 0, 71, 75
1, 369760, Note_on_c, 0, 71, 0
1, 369760, Note_on_c, 0, 59, 53
1, 369920, Note_on_c, 0, 59, 0
1, 369920, Note_on_c, 0, 60, 53
1, 370080, Note_on_c, 0, 60, 0
1, 370080, Note_on_c, 0, 62, 65
1, 370080, Note_on_c, 0, 43, 56
1, 370080, Note_on_c, 0, 47, 56
1, 370080, Note_on_c, 0, 50, 56
1, 370080, Note_on_c, 0, 55, 66
1, 370240, Note_on_c, 0, 62, 0
1, 370240, Note_on_c, 0, 60, 55
1, 370320, Note_on_c, 0, 50, 0
1, 370320, Note_on_c, 0, 55, 0
1, 370320, Note_on_c, 0, 43, 0
1, 370320, Note_on_c, 0, 47, 0
1, 370400, Tempo, 297030
1, 370400, Note_on_c, 0, 60, 0
1, 370400, Note_on_c, 0, 59, 55
1, 370560, Tempo, 300752
1, 370560, Note_on_c, 0, 59, 0
1, 370560, Note_on_c, 0, 60, 67
1, 370560, Note_on_c, 0, 72, 79
1, 370560, Note_on_c, 0, 36, 65
1, 370560, Note_on_c, 0, 48, 77
1, 370800, Note_on_c, 0, 48, 0
1, 370800, Note_on_c, 0, 36, 0
1, 371040, Tempo, 291971
1, 371040, Note_on_c, 0, 72, 0
1, 371040, Note_on_c, 0, 60, 0
1, 371040, Note_on_c, 0, 51, 70
1, 371040, Note_on_c, 0, 55, 70
1, 371040, Note_on_c, 0, 60, 83
1, 371520, Tempo, 285714
1, 371520, Note_on_c, 0, 79, 84
1, 372000, Note_on_c, 0, 79, 0
1, 372000, Note_on_c, 0, 77, 80
1, 372120, Note_on_c, 0, 77, 0
1, 372120, Note_on_c, 0, 75, 79
1, 372240, Note_on_c, 0, 75, 0
1, 372240, Note_on_c, 0, 74, 78
1, 372360, Note_on_c, 0, 74, 0
1, 372360, Note_on_c, 0, 72, 77
1, 372480, Tempo, 300752
1, 372480, Note_on_c, 0, 72, 0
1, 372480, Note_on_c, 0, 51, 0
1, 372480, Note_on_c, 0, 55, 0
1, 372480, Note_on_c, 0, 60, 0
1, 372480, Note_on_c, 0, 74, 79
1, 372480, Note_on_c, 0, 53, 65
1, 372480, Note_on_c, 0, 56, 65
1, 372480, Note_on_c, 0, 60, 65
1, 372480, Note_on_c, 0, 62, 77
1, 372720, Note_on_c, 0, 62, 0
1, 372720, Note_on_c, 0, 56, 0
1, 372720, Note_on_c, 0, 74, 0
1, 372720, Note_on_c, 0, 53, 0
1, 372720, Note_on_c, 0, 60, 0
1, 372960, Tempo, 290557
1, 372960, Note_on_c, 0, 55, 70
1, 372960, Note_on_c, 0, 59, 70
1, 372960, Note_on_c, 0, 62, 83
1, 373440, Tempo, 286396
1, 373440, Note_on_c, 0, 77, 84
1, 373920, Note_on_c, 0, 77, 0
1, 373920, Note_on_c, 0, 75, 80
1, 374040, Note_on_c, 0, 75, 0
1, 374040, Note_on_c, 0, 74, 79
1, 374160, Note_on_c, 0, 74, 0
1, 374160, Note_on_c, 0, 72, 78
1, 374280, Note_on_c, 0, 72, 0
1, 374280, Note_on_c, 0, 71, 77
1, 374400, Tempo, 300752
1, 374400, Note_on_c, 0, 71, 0
1, 374400, Note_on_c, 0, 55, 0
1, 374400, Note_on_c, 0, 59, 0
1, 374400, Note_on_c, 0, 62, 0
1, 374400, Note_on_c, 0, 72, 79
1, 374400, Note_on_c, 0, 51, 65
1, 374400, Note_on_c, 0, 55, 65
1, 374400, Note_on_c, 0, 60, 77
1, 374640, Note_on_c, 0, 60, 0
1, 374640, Note_on_c, 0, 72, 0
1, 374640, Note_on_c, 0, 51, 0
1, 374640, Note_on_c, 0, 55, 0
1, 374880, Tempo, 290557
1, 374880, Note_on_c, 0, 51, 70
1, 374880, Note_on_c, 0, 55, 70
1, 374880, Note_on_c, 0, 60, 83
1, 375360, Tempo, 285714
1, 375360, Note_on_c, 0, 79, 84
1, 375840, Note_on_c, 0, 79, 0
1, 375840, Note_on_c, 0, 77, 80
1, 375960, Note_on_c, 0, 77, 0
1, 375960, Note_on_c, 0, 75, 79
1, 376080, Note_on_c, 0, 75, 0
1, 376080, Note_on_c, 0, 74, 78
1, 376200, Note_on_c, 0, 74, 0
1, 376200, Note_on_c, 0, 72, 77
1, 376320, Tempo, 300752
1, 376320, Note_on_c, 0, 72, 0
1, 376320, Note_on_c, 0, 51, 0
1, 376320, Note_on_c, 0, 55, 0
1, 376320, Note_on_c, 0, 60, 0
1, 376320, Note_on_c, 0, 74, 79
1, 376320, Note_on_c, 0, 53, 65
1, 376320, Note_on_c, 0, 56, 65
1, 376320, Note_on_c, 0, 60, 65
1, 376320, Note_on_c, 0, 62, 77
1, 376560, Note_on_c, 0, 62, 0
1, 376560, Note_on_c, 0, 56, 0
1, 376560, Note_on_c, 0, 74, 0
1, 376560, Note_on_c, 0, 53, 0
1, 376560, Note_on_c, 0, 60, 0
1, 376800, Tempo, 290557
1, 376800, Note_on_c, 0, 55, 70
1, 376800, Note_on_c, 0, 59, 70
1, 376800, Note_on_c, 0, 62, 83
1, 377280, Tempo, 285714
1, 377280, Note_on_c, 0, 77, 84
1, 377760, Note_on_c, 0, 77, 0
1, 377760, Note_on_c, 0, 75, 80
1, 377880, Note_on_c, 0, 75, 0
1, 377880, Note_on_c, 0, 74, 79
1, 378000, Note_on_c, 0, 74, 0
1, 378000, Note_on_c, 0, 72, 78
1, 378120, Note_on_c, 0, 72, 0
1, 378120, Note_on_c, 0, 71, 77
1, 378240, Tempo, 300752
1, 378240, Note_on_c, 0, 71, 0
1, 378240, Note_on_c, 0, 55, 0
1, 378240, Note_on_c, 0, 59, 0
1, 378240, Note_on_c, 0, 62, 0
1, 378240, Note_on_c, 0, 72, 79
1, 378240, Note_on_c, 0, 51, 65
1, 378240, Note_on_c, 0, 55, 65
1, 378240, Note_on_c, 0, 60, 77
1, 378480, Note_on_c, 0, 60, 0
1, 378480, Note_on_c, 0, 72, 0
1, 378480, Note_on_c, 0, 51, 0
1, 378480, Note_on_c, 0, 55, 0
1, 378720, Tempo, 290557
1, 378720, Note_on_c, 0, 51, 70
1, 378720, Note_on_c, 0, 55, 70
1, 378720, Note_on_c, 0, 60, 83
1, 379200, Tempo, 286396
1, 379200, Note_on_c, 0, 79, 84
1, 379680, Note_on_c, 0, 79, 0
1, 379680, Note_on_c, 0, 77, 80
1, 379800, Note_on_c, 0, 77, 0
1, 379800, Note_on_c, 0, 75, 79
1, 379920, Note_on_c, 0, 75, 0
1, 379920, Note_on_c, 0, 74, 78
1, 380040, Note_on_c, 0, 74, 0
1, 380040, Note_on_c, 0, 72, 77
1, 380160, Tempo, 351906
1, 380160, Note_on_c, 0, 72, 0
1, 380160, Note_on_c, 0, 51, 0
1, 380160, Note_on_c, 0, 55, 0
1, 380160, Note_on_c, 0, 60, 0
1, 380160, Note_on_c, 0, 73, 79
1, 380160, Note_on_c, 0, 53, 65
1, 380160, Note_on_c, 0, 56, 65
1, 380160, Note_on_c, 0, 61, 77
1, 380400, Note_on_c, 0, 61, 0
1, 380400, Note_on_c, 0, 73, 0
1, 380400, Note_on_c, 0, 53, 0
1, 380400, Note_on_c, 0, 56, 0
1, 380640, Tempo, 318302
1, 380640, Note_on_c, 0, 53, 70
1, 380640, Note_on_c, 0, 56, 70
1, 380640, Note_on_c, 0, 61, 83
1, 381120, Note_on_c, 0, 89, 100
1, 381600, Tempo, 481928
1, 381600, Note_on_c, 0, 61, 0
1, 381600, Note_on_c, 0, 53, 0
1, 381600, Note_on_c, 0, 56, 0
1, 381600, Note_on_c, 0, 53, 71
1, 381600, Note_on_c, 0, 56, 71
1, 381600, Note_on_c, 0, 61, 84
1, 381840, Note_on_c, 0, 61, 0
1, 381840, Note_on_c, 0, 56, 0
1, 381840, Note_on_c, 0, 53, 0
1, 382080, Note_on_c, 0, 55, 77
1, 382080, Note_on_c, 0, 58, 77
1, 382080, Note_on_c, 0, 61, 77
1, 382080, Note_on_c, 0, 63, 91
1, 382120, Tempo, 433213
1, 383520, Tempo, 323415
1, 383520, Note_on_c, 0, 89, 0
1, 383520, Note_on_c, 0, 87, 86
1, 383540, Tempo, 322511
1, 383560, Tempo, 321664
1, 383580, Tempo, 320787
1, 383600, Tempo, 319915
1, 383620, Tempo, 319064
1, 383640, Tempo, 318184
1, 383660, Tempo, 317343
1, 383680, Tempo, 316472
1, 383680, Note_on_c, 0, 87, 0
1, 383680, Note_on_c, 0, 85, 85
1, 383700, Tempo, 315623
1, 383720, Tempo, 314795
1, 383740, Tempo, 313955
1, 383760, Tempo, 313136
1, 383780, Tempo, 312305
1, 383800, Tempo, 311462
1, 383820, Tempo, 310655
1, 383840, Tempo, 309821
1, 383840, Note_on_c, 0, 85, 0
1, 383840, Note_on_c, 0, 84, 83
1, 383860, Tempo, 309023
1, 383880, Tempo, 308230
1, 383900, Tempo, 307409
1, 383920, Tempo, 306623
1, 383940, Tempo, 305826
1, 383960, Tempo, 305033
1, 383980, Tempo, 304244
1, 384000, Tempo, 301129
1, 384000, Note_on_c, 0, 84, 0
1, 384000, Note_on_c, 0, 82, 82
1, 384004, Control_c, 0, 64, 0
1, 384040, Tempo, 300375
1, 384040, Control_c, 0, 64, 127
1, 384060, Tempo, 299625
1, 384080, Tempo, 298849
1, 384100, Tempo, 298107
1, 384120, Tempo, 297339
1, 384140, Tempo, 296604
1, 384160, Tempo, 295858
1, 384160, Note_on_c, 0, 82, 0
1, 384160, Note_on_c, 0, 80, 81
1, 384180, Tempo, 295116
1, 384200, Tempo, 294377
1, 384220, Tempo, 293643
1, 384240, Tempo, 292912
1, 384280, Tempo, 292198
1, 384300, Tempo, 291474
1, 384320, Tempo, 290768
1, 384320, Note_on_c, 0, 80, 0
1, 384320, Note_on_c, 0, 79, 79
1, 384340, Tempo, 290051
1, 384360, Tempo, 289324
1, 384380, Tempo, 288628
1, 384400, Tempo, 287908
1, 384420, Tempo, 287219
1, 384440, Tempo, 286519
1, 384460, Tempo, 285823
1, 384480, Tempo, 284455
1, 384480, Note_on_c, 0, 79, 0
1, 384480, Note_on_c, 0, 77, 78
1, 384560, Tempo, 283755
1, 384640, Tempo, 283086
1, 384640, Note_on_c, 0, 77, 0
1, 384640, Note_on_c, 0, 75, 77
1, 384700, Tempo, 282406
1, 384780, Tempo, 281717
1, 384800, Note_on_c, 0, 75, 0
1, 384800, Note_on_c, 0, 73, 75
1, 384840, Tempo, 281070
1, 384920, Tempo, 280400
1, 384960, Note_on_c, 0, 73, 0
1, 384960, Note_on_c, 0, 63, 0
1, 384960, Note_on_c, 0, 55, 0
1, 384960, Note_on_c, 0, 58, 0
1, 384960, Note_on_c, 0, 61, 0
1, 384960, Note_on_c, 0, 72, 74
1, 384972, Control_c, 0, 64, 0
1, 385009, Control_c, 0, 64, 127
1, 385040, Note_on_c, 0, 72, 0
1, 385040, Note_on_c, 0, 70, 72
1, 385120, Note_on_c, 0, 70, 0
1, 385120, Note_on_c, 0, 68, 71
1, 385200, Note_on_c, 0, 68, 0
1, 385200, Note_on_c, 0, 67, 70
1, 385280, Note_on_c, 0, 67, 0
1, 385280, Note_on_c, 0, 65, 68
1, 385360, Note_on_c, 0, 65, 0
1, 385360, Note_on_c, 0, 63, 69
1, 385440, Note_on_c, 0, 63, 0
1, 385440, Note_on_c, 0, 61, 70
1, 385444, Tempo, 286396
1, 385460, Tempo, 288462
1, 385472, Tempo, 290557
1, 385484, Tempo, 293399
1, 385500, Tempo, 295567
1, 385508, Note_on_c, 0, 61, 0
1, 385508, Note_on_c, 0, 60, 71
1, 385512, Tempo, 298507
1, 385524, Tempo, 300752
1, 385540, Tempo, 303797
1, 385552, Tempo, 306122
1, 385564, Tempo, 309278
1, 385576, Note_on_c, 0, 60, 0
1, 385576, Note_on_c, 0, 58, 71
1, 385580, Tempo, 311688
1, 385592, Tempo, 314961
1, 385604, Tempo, 317460
1, 385620, Tempo, 320856
1, 385632, Tempo, 323450
1, 385644, Tempo, 326087
1, 385644, Note_on_c, 0, 58, 0
1, 385644, Note_on_c, 0, 56, 71
1, 385660, Tempo, 329670
1, 385672, Tempo, 332410
1, 385684, Tempo, 336134
1, 385700, Tempo, 338983
1, 385712, Tempo, 342857
1, 385712, Note_on_c, 0, 56, 0
1, 385712, Note_on_c, 0, 55, 71
1, 385724, Tempo, 345821
1, 385740, Tempo, 349854
1, 385752, Tempo, 352941
1, 385764, Tempo, 357143
1, 385780, Tempo, 360360
1, 385780, Note_on_c, 0, 55, 0
1, 385780, Note_on_c, 0, 53, 71
1, 385792, Tempo, 364742
1, 385804, Tempo, 368098
1, 385820, Tempo, 373832
1, 385832, Tempo, 390879
1, 385844, Tempo, 410959
1, 385848, Note_on_c, 0, 53, 0
1, 385848, Note_on_c, 0, 51, 71
1, 385920, Tempo, 472441
1, 385920, Note_on_c, 0, 51, 0
1, 385920, Note_on_c, 0, 49, 93
1, 385920, Note_on_c, 0, 31, 69
1, 385920, Note_on_c, 0, 39, 69
1, 385920, Note_on_c, 0, 43, 82
1, 385935, Control_c, 0, 64, 0
1, 388800, Tempo, 302267
1, 388800, Note_on_c, 0, 43, 0
1, 388800, Note_on_c, 0, 49, 0
1, 388800, Note_on_c, 0, 31, 0
1, 388800, Note_on_c, 0, 39, 0
1, 389280, Note_on_c, 0, 56, 49
1, 389520, Tempo, 315623
1, 389520, Note_on_c, 0, 56, 0
1, 389520, Note_on_c, 0, 58, 51
1, 389760, Tempo, 303030
1, 389760, Note_on_c, 0, 58, 0
1, 389760, Note_on_c, 0, 60, 52
1, 389760, Note_on_c, 0, 44, 40
1, 389760, Note_on_c, 0, 51, 40
1, 390480, Tempo, 315789
1, 390480, Note_on_c, 0, 60, 0
1, 390480, Note_on_c, 0, 61, 50
1, 390720, Tempo, 303797
1, 390720, Note_on_c, 0, 61, 0
1, 390720, Note_on_c, 0, 51, 0
1, 390720, Note_on_c, 0, 58, 53
1, 390720, Note_on_c, 0, 49, 40
1, 391440, Tempo, 316623
1, 391440, Note_on_c, 0, 58, 0
1, 391440, Note_on_c, 0, 60, 50
1, 391680, Tempo, 304569
1, 391680, Note_on_c, 0, 60, 0
1, 391680, Note_on_c, 0, 49, 0
1, 391680, Note_on_c, 0, 44, 0
1, 391680, Note_on_c, 0, 56, 52
1, 391680, Note_on_c, 0, 44, 40
1, 391680, Note_on_c, 0, 48, 40
1, 392160, Note_on_c, 0, 48, 0
1, 392160, Note_on_c, 0, 44, 0
1, 392160, Note_on_c, 0, 56, 0
1, 393120, Tempo, 303797
1, 393120, Note_on_c, 0, 68, 46
1, 393360, Tempo, 315623
1, 393360, Note_on_c, 0, 68, 0
1, 393360, Note_on_c, 0, 70, 48
1, 393600, Tempo, 303030
1, 393600, Note_on_c, 0, 70, 0
1, 393600, Note_on_c, 0, 72, 49
1, 393600, Note_on_c, 0, 56, 38
1, 393600, Note_on_c, 0, 63, 38
1, 394320, Tempo, 315789
1, 394320, Note_on_c, 0, 72, 0
1, 394320, Note_on_c, 0, 73, 47
1, 394560, Tempo, 303797
1, 394560, Note_on_c, 0, 73, 0
1, 394560, Note_on_c, 0, 63, 0
1, 394560, Note_on_c, 0, 70, 49
1, 394560, Note_on_c, 0, 61, 37
1, 395280, Tempo, 316623
1, 395280, Note_on_c, 0, 70, 0
1, 395280, Note_on_c, 0, 72, 46
1, 395520, Tempo, 303797
1, 395520, Note_on_c, 0, 72, 0
1, 395520, Note_on_c, 0, 61, 0
1, 395520, Note_on_c, 0, 56, 0
1, 395520, Note_on_c, 0, 68, 47
1, 395520, Note_on_c, 0, 56, 36
1, 395520, Note_on_c, 0, 60, 36
1, 396000, Note_on_c, 0, 60, 0
1, 396000, Note_on_c, 0, 56, 0
1, 396000, Note_on_c, 0, 68, 0
1, 396960, Tempo, 310881
1, 396960, Note_on_c, 0, 72, 40
1, 397440, Note_on_c, 0, 72, 0
1, 397440, Note_on_c, 0, 78, 40
1, 397440, Note_on_c, 0, 75, 40
1, 397440, Note_on_c, 0, 68, 35
1, 397920, Note_on_c, 0, 68, 0
1, 397920, Note_on_c, 0, 75, 0
1, 397920, Note_on_c, 0, 78, 0
1, 398880, Note_on_c, 0, 72, 40
1, 399360, Note_on_c, 0, 72, 0
1, 399360, Note_on_c, 0, 79, 40
1, 399360, Note_on_c, 0, 75, 40
1, 399360, Note_on_c, 0, 67, 34
1, 399840, Note_on_c, 0, 67, 0
1, 399840, Note_on_c, 0, 75, 0
1, 399840, Note_on_c, 0, 79, 0
1, 400800, Tempo, 292683
1, 400800, Note_on_c, 0, 87, 97
1, 400960, Note_on_c, 0, 87, 0
1, 400960, Note_on_c, 0, 86, 90
1, 401120, Note_on_c, 0, 86, 0
1, 401120, Note_on_c, 0, 84, 90
1, 401280, Note_on_c, 0, 84, 0
1, 401280, Note_on_c, 0, 89, 96
1, 401280, Note_on_c, 0, 43, 67
1, 401280, Note_on_c, 0, 47, 67
1, 401280, Note_on_c, 0, 50, 67
1, 401280, Note_on_c, 0, 55, 79
1, 401320, Tempo, 289157
1, 401440, Note_on_c, 0, 89, 0
1, 401440, Note_on_c, 0, 87, 89
1, 401600, Tempo, 289855
1, 401600, Note_on_c, 0, 87, 0
1, 401600, Note_on_c, 0, 86, 90
1, 401760, Note_on_c, 0, 86, 0
1, 401760, Note_on_c, 0, 50, 0
1, 401760, Note_on_c, 0, 43, 0
1, 401760, Note_on_c, 0, 47, 0
1, 401760, Note_on_c, 0, 55, 0
1, 401760, Note_on_c, 0, 84, 97
1, 401840, Tempo, 290557
1, 401920, Note_on_c, 0, 84, 0
1, 401920, Note_on_c, 0, 83, 92
1, 402080, Note_on_c, 0, 83, 0
1, 402080, Note_on_c, 0, 80, 92
1, 402120, Tempo, 291262
1, 402240, Note_on_c, 0, 80, 0
1, 402240, Note_on_c, 0, 79, 90
1, 402360, Tempo, 291971
1, 402400, Note_on_c, 0, 79, 0
1, 402400, Note_on_c, 0, 77, 92
1, 402560, Note_on_c, 0, 77, 0
1, 402560, Note_on_c, 0, 75, 93
1, 402640, Tempo, 292683
1, 402720, Note_on_c, 0, 75, 0
1, 402720, Note_on_c, 0, 74, 95
1, 402880, Tempo, 293399
1, 402880, Note_on_c, 0, 74, 0
1, 402880, Note_on_c, 0, 72, 97
1, 403040, Note_on_c, 0, 72, 0
1, 403040, Note_on_c, 0, 71, 99
1, 403120, Tempo, 294118
1, 403200, Note_on_c, 0, 71, 0
1, 403200, Note_on_c, 0, 72, 101
1, 403200, Note_on_c, 0, 36, 69
1, 403200, Note_on_c, 0, 39, 69
1, 403200, Note_on_c, 0, 43, 69
1, 403200, Note_on_c, 0, 48, 82
1, 403680, Note_on_c, 0, 48, 0
1, 403680, Note_on_c, 0, 39, 0
1, 403680, Note_on_c, 0, 72, 0
1, 403680, Note_on_c, 0, 36, 0
1, 403680, Note_on_c, 0, 43, 0
1, 405120, Tempo, 300000
1, 405120, End_track
0, 0, End_of_file
