0, 0, Header, 0, 1, 480
1, 0, Start_track
1, 0, Title_t, "Beethoven Sonata No. 8 in C minor ""Pathetique"""
1, 0, Title_t, "1. Movement"
1, 0, Copyright_t, "Copyright © 2003 by Bernd Krueger "
1, 0, Text_t, "Ludwig van Beethoven"
1, 0, Text_t, "Grave"
1, 0, Text_t, "Fertiggestellt am  30.12.2003\012"
1, 0, Text_t, "Update am  15.12.2011  Fehlerkorrektur, Einfügen eines Pedal Tracks\012"
1, 0, Text_t, "Update am 15.5.2012\012"
1, 0, Text_t, "Dauer: 9:22 Minuten\012"
1, 0, SMPTE_offset, 96, 0, 3, 0, 0
1, 0, Time_signature, 4, 1, 48, 8
1, 0, Key_signature, -3, "major"
1, 0, Tempo, 1500000
1, 0, Marker_t, "Grave"
1, 0, Program_c, 0, 1
1, 0, Control_c, 0, 7, 100
1, 0, Control_c, 0, 10, 64
1, 0, Note_on_c, 0, 51, 79
1, 0, Note_on_c, 0, 55, 79
1, 0, Note_on_c, 0, 60, 93
1, 0, Control_c, 0, 91, 127
1, 0, Text_t, "bdca426d104a26ac9dcb070447587523"
1, 0, Program_c, 0, 1
1, 0, Control_c, 0, 7, 100
1, 0, Control_c, 0, 10, 64
1, 0, Note_on_c, 0, 36, 70
1, 0, Note_on_c, 0, 39, 70
1, 0, Note_on_c, 0, 43, 70
1, 0, Note_on_c, 0, 48, 81
1, 0, Control_c, 0, 64, 0
1, 1320, Note_on_c, 0, 48, 0
1, 1320, Note_on_c, 0, 39, 0
1, 1320, Note_on_c, 0, 55, 0
1, 1320, Note_on_c, 0, 60, 0
1, 1320, Note_on_c, 0, 51, 0
1, 1320, Note_on_c, 0, 43, 0
1, 1320, Note_on_c, 0, 36, 0
1, 1320, Note_on_c, 0, 55, 40
1, 1320, Note_on_c, 0, 60, 47
1, 1320, Note_on_c, 0, 51, 36
1, 1440, Note_on_c, 0, 51, 0
1, 1440, Note_on_c, 0, 60, 0
1, 1440, Note_on_c, 0, 55, 0
1, 1440, Note_on_c, 0, 55, 42
1, 1440, Note_on_c, 0, 59, 42
1, 1440, Note_on_c, 0, 62, 50
1, 1440, Note_on_c, 0, 50, 41
1, 1800, Tempo, 1764706
1, 1800, Note_on_c, 0, 50, 0
1, 1800, Note_on_c, 0, 55, 0
1, 1800, Note_on_c, 0, 59, 0
1, 1800, Note_on_c, 0, 62, 0
1, 1800, Note_on_c, 0, 55, 39
1, 1800, Note_on_c, 0, 60, 46
1, 1800, Note_on_c, 0, 63, 46
1, 1800, Note_on_c, 0, 48, 36
1, 1908, Note_on_c, 0, 48, 0
1, 1908, Note_on_c, 0, 55, 0
1, 1908, Note_on_c, 0, 60, 0
1, 1908, Note_on_c, 0, 63, 0
1, 1920, Tempo, 1643836
1, 1920, Note_on_c, 0, 57, 42
1, 1920, Note_on_c, 0, 60, 50
1, 1920, Note_on_c, 0, 63, 50
1, 1920, Note_on_c, 0, 54, 39
1, 2880, Tempo, 1500000
1, 2880, Note_on_c, 0, 54, 0
1, 2880, Note_on_c, 0, 57, 0
1, 2880, Note_on_c, 0, 60, 0
1, 2880, Note_on_c, 0, 63, 0
1, 2880, Note_on_c, 0, 59, 29
1, 2880, Note_on_c, 0, 62, 36
1, 2880, Note_on_c, 0, 55, 25
1, 3360, Note_on_c, 0, 55, 0
1, 3360, Note_on_c, 0, 62, 0
1, 3360, Note_on_c, 0, 59, 0
1, 3720, Note_on_c, 0, 44, 89
1, 3840, Note_on_c, 0, 44, 0
1, 3840, Note_on_c, 0, 59, 91
1, 3840, Note_on_c, 0, 62, 91
1, 3840, Note_on_c, 0, 65, 104
1, 3840, Control_c, 0, 91, 127
1, 3840, Text_t, "bdca426d104a26ac9dcb070447587523"
1, 3840, Note_on_c, 0, 56, 93
1, 5160, Note_on_c, 0, 56, 0
1, 5160, Note_on_c, 0, 59, 0
1, 5160, Note_on_c, 0, 62, 0
1, 5160, Note_on_c, 0, 65, 0
1, 5160, Note_on_c, 0, 62, 42
1, 5160, Note_on_c, 0, 59, 42
1, 5160, Note_on_c, 0, 65, 50
1, 5160, Note_on_c, 0, 56, 38
1, 5268, Note_on_c, 0, 56, 0
1, 5268, Note_on_c, 0, 62, 0
1, 5268, Note_on_c, 0, 59, 0
1, 5268, Note_on_c, 0, 65, 0
1, 5280, Note_on_c, 0, 59, 44
1, 5280, Note_on_c, 0, 62, 44
1, 5280, Note_on_c, 0, 67, 53
1, 5280, Note_on_c, 0, 55, 43
1, 5640, Tempo, 1739130
1, 5640, Note_on_c, 0, 55, 0
1, 5640, Note_on_c, 0, 59, 0
1, 5640, Note_on_c, 0, 62, 0
1, 5640, Note_on_c, 0, 67, 0
1, 5640, Note_on_c, 0, 62, 49
1, 5640, Note_on_c, 0, 68, 49
1, 5640, Note_on_c, 0, 59, 41
1, 5640, Note_on_c, 0, 53, 38
1, 5748, Note_on_c, 0, 53, 0
1, 5748, Note_on_c, 0, 62, 0
1, 5748, Note_on_c, 0, 68, 0
1, 5748, Note_on_c, 0, 59, 0
1, 5760, Tempo, 1643836
1, 5760, Note_on_c, 0, 68, 53
1, 5760, Note_on_c, 0, 59, 44
1, 5760, Note_on_c, 0, 62, 53
1, 5760, Note_on_c, 0, 51, 37
1, 6720, Tempo, 1500000
1, 6720, Note_on_c, 0, 62, 0
1, 6720, Note_on_c, 0, 68, 0
1, 6720, Note_on_c, 0, 59, 0
1, 6720, Note_on_c, 0, 60, 31
1, 6720, Note_on_c, 0, 67, 38
1, 6720, Note_on_c, 0, 63, 31
1, 7200, Note_on_c, 0, 63, 0
1, 7200, Note_on_c, 0, 51, 0
1, 7200, Note_on_c, 0, 60, 0
1, 7200, Note_on_c, 0, 67, 0
1, 7560, Note_on_c, 0, 51, 86
1, 7680, Note_on_c, 0, 51, 0
1, 7680, Note_on_c, 0, 66, 88
1, 7680, Note_on_c, 0, 69, 88
1, 7680, Note_on_c, 0, 72, 102
1, 7680, Control_c, 0, 91, 127
1, 7680, Text_t, "bdca426d104a26ac9dcb070447587523"
1, 7680, Note_on_c, 0, 63, 91
1, 9000, Note_on_c, 0, 63, 0
1, 9000, Note_on_c, 0, 66, 0
1, 9000, Note_on_c, 0, 69, 0
1, 9000, Note_on_c, 0, 72, 0
1, 9000, Note_on_c, 0, 69, 49
1, 9000, Note_on_c, 0, 66, 49
1, 9000, Note_on_c, 0, 72, 58
1, 9000, Note_on_c, 0, 63, 45
1, 9108, Note_on_c, 0, 63, 0
1, 9108, Note_on_c, 0, 69, 0
1, 9108, Note_on_c, 0, 66, 0
1, 9108, Note_on_c, 0, 72, 0
1, 9120, Tempo, 1538462
1, 9120, Note_on_c, 0, 66, 54
1, 9120, Note_on_c, 0, 69, 54
1, 9120, Note_on_c, 0, 74, 64
1, 9120, Note_on_c, 0, 62, 52
1, 9480, Tempo, 1666667
1, 9480, Note_on_c, 0, 62, 0
1, 9480, Note_on_c, 0, 66, 0
1, 9480, Note_on_c, 0, 69, 0
1, 9480, Note_on_c, 0, 74, 0
1, 9480, Note_on_c, 0, 69, 67
1, 9480, Note_on_c, 0, 75, 67
1, 9480, Note_on_c, 0, 66, 57
1, 9480, Note_on_c, 0, 60, 52
1, 9588, Note_on_c, 0, 60, 0
1, 9588, Note_on_c, 0, 69, 0
1, 9588, Note_on_c, 0, 75, 0
1, 9588, Note_on_c, 0, 66, 0
1, 9600, Tempo, 1600000
1, 9600, Note_on_c, 0, 75, 74
1, 9600, Note_on_c, 0, 66, 62
1, 9600, Note_on_c, 0, 69, 62
1, 9600, Note_on_c, 0, 60, 65
1, 10560, Tempo, 1500000
1, 10560, Note_on_c, 0, 60, 0
1, 10560, Note_on_c, 0, 75, 0
1, 10560, Note_on_c, 0, 66, 0
1, 10560, Note_on_c, 0, 69, 0
1, 10560, Note_on_c, 0, 62, 35
1, 10560, Note_on_c, 0, 74, 42
1, 10560, Note_on_c, 0, 67, 35
1, 10560, Note_on_c, 0, 59, 35
1, 10680, Note_on_c, 0, 59, 0
1, 10680, Note_on_c, 0, 62, 0
1, 10680, Note_on_c, 0, 74, 0
1, 10680, Note_on_c, 0, 67, 0
1, 10920, Note_on_c, 0, 69, 51
1, 10920, Note_on_c, 0, 66, 51
1, 10920, Note_on_c, 0, 72, 60
1, 10920, Note_on_c, 0, 63, 47
1, 11028, Note_on_c, 0, 63, 0
1, 11028, Note_on_c, 0, 69, 0
1, 11028, Note_on_c, 0, 66, 0
1, 11028, Note_on_c, 0, 72, 0
1, 11040, Tempo, 1600000
1, 11040, Note_on_c, 0, 66, 56
1, 11040, Note_on_c, 0, 69, 56
1, 11040, Note_on_c, 0, 74, 67
1, 11040, Note_on_c, 0, 62, 54
1, 11400, Note_on_c, 0, 62, 0
1, 11400, Note_on_c, 0, 66, 0
1, 11400, Note_on_c, 0, 69, 0
1, 11400, Note_on_c, 0, 74, 0
1, 11400, Note_on_c, 0, 69, 70
1, 11400, Note_on_c, 0, 75, 70
1, 11400, Note_on_c, 0, 66, 59
1, 11400, Note_on_c, 0, 60, 54
1, 11508, Note_on_c, 0, 60, 0
1, 11508, Note_on_c, 0, 69, 0
1, 11508, Note_on_c, 0, 75, 0
1, 11508, Note_on_c, 0, 66, 0
1, 11520, Tempo, 1500000
1, 11520, Note_on_c, 0, 75, 77
1, 11520, Note_on_c, 0, 66, 65
1, 11520, Note_on_c, 0, 69, 65
1, 11520, Note_on_c, 0, 60, 71
1, 12480, Tempo, 1428571
1, 12480, Note_on_c, 0, 60, 0
1, 12480, Note_on_c, 0, 75, 0
1, 12480, Note_on_c, 0, 66, 0
1, 12480, Note_on_c, 0, 69, 0
1, 12480, Note_on_c, 0, 67, 47
1, 12480, Note_on_c, 0, 74, 55
1, 12480, Note_on_c, 0, 59, 43
1, 12480, Note_on_c, 0, 62, 51
1, 12960, Tempo, 1643836
1, 12960, Note_on_c, 0, 62, 0
1, 12960, Note_on_c, 0, 67, 0
1, 12960, Note_on_c, 0, 74, 0
1, 12960, Note_on_c, 0, 59, 0
1, 12960, Note_on_c, 0, 67, 53
1, 12960, Note_on_c, 0, 72, 53
1, 12960, Note_on_c, 0, 76, 63
1, 12960, Note_on_c, 0, 64, 57
1, 12960, Note_on_c, 0, 58, 48
1, 12960, Note_on_c, 0, 60, 48
1, 13440, Tempo, 1411765
1, 13440, Note_on_c, 0, 60, 0
1, 13440, Note_on_c, 0, 72, 0
1, 13440, Note_on_c, 0, 76, 0
1, 13440, Note_on_c, 0, 67, 0
1, 13440, Note_on_c, 0, 58, 0
1, 13440, Note_on_c, 0, 64, 0
1, 13440, Note_on_c, 0, 68, 58
1, 13440, Note_on_c, 0, 72, 58
1, 13440, Note_on_c, 0, 77, 70
1, 13440, Note_on_c, 0, 65, 64
1, 13440, Note_on_c, 0, 60, 53
1, 13440, Note_on_c, 0, 56, 53
1, 13680, Note_on_c, 0, 56, 0
1, 13680, Note_on_c, 0, 72, 0
1, 13680, Note_on_c, 0, 77, 0
1, 13680, Note_on_c, 0, 68, 0
1, 13680, Note_on_c, 0, 60, 0
1, 13680, Note_on_c, 0, 65, 0
1, 13920, Tempo, 1500000
1, 13920, Note_on_c, 0, 80, 84
1, 14400, Tempo, 1690141
1, 14400, Note_on_c, 0, 34, 84
1, 14400, Note_on_c, 0, 46, 84
1, 14520, Tempo, 1518987
1, 14520, Note_on_c, 0, 80, 0
1, 14520, Note_on_c, 0, 79, 61
1, 14560, Tempo, 1500000
1, 14580, Tempo, 1481481
1, 14580, Note_on_c, 0, 79, 0
1, 14580, Note_on_c, 0, 80, 63
1, 14600, Tempo, 1481481
1, 14640, Note_on_c, 0, 80, 0
1, 14640, Note_on_c, 0, 82, 65
1, 14680, Tempo, 1463415
1, 14700, Note_on_c, 0, 82, 0
1, 14700, Note_on_c, 0, 80, 67
1, 14720, Tempo, 1445783
1, 14760, Tempo, 1428571
1, 14760, Note_on_c, 0, 80, 0
1, 14760, Note_on_c, 0, 79, 67
1, 14800, Tempo, 1411765
1, 14820, Note_on_c, 0, 79, 0
1, 14820, Note_on_c, 0, 77, 67
1, 14840, Tempo, 1395349
1, 14880, Tempo, 1411765
1, 14880, Note_on_c, 0, 77, 0
1, 14880, Note_on_c, 0, 75, 67
1, 14920, Tempo, 1445783
1, 14940, Note_on_c, 0, 75, 0
1, 14940, Note_on_c, 0, 74, 67
1, 14960, Tempo, 1481481
1, 15000, Tempo, 1518987
1, 15000, Note_on_c, 0, 74, 0
1, 15000, Note_on_c, 0, 72, 67
1, 15040, Tempo, 1558442
1, 15060, Note_on_c, 0, 72, 0
1, 15060, Note_on_c, 0, 70, 67
1, 15080, Tempo, 1600000
1, 15120, Tempo, 1621622
1, 15120, Note_on_c, 0, 70, 0
1, 15120, Note_on_c, 0, 68, 63
1, 15140, Tempo, 1643836
1, 15147, Note_on_c, 0, 68, 0
1, 15147, Note_on_c, 0, 67, 62
1, 15160, Tempo, 1666667
1, 15174, Note_on_c, 0, 67, 0
1, 15174, Note_on_c, 0, 65, 60
1, 15180, Tempo, 1690141
1, 15200, Tempo, 1714286
1, 15201, Note_on_c, 0, 65, 0
1, 15201, Note_on_c, 0, 63, 59
1, 15220, Tempo, 1764706
1, 15228, Note_on_c, 0, 63, 0
1, 15228, Note_on_c, 0, 62, 58
1, 15240, Tempo, 1791045
1, 15255, Note_on_c, 0, 62, 0
1, 15255, Note_on_c, 0, 65, 57
1, 15260, Tempo, 1818182
1, 15280, Tempo, 1846154
1, 15282, Note_on_c, 0, 65, 0
1, 15282, Note_on_c, 0, 68, 55
1, 15300, Tempo, 1875000
1, 15309, Note_on_c, 0, 68, 0
1, 15309, Note_on_c, 0, 65, 54
1, 15320, Tempo, 1935484
1, 15336, Note_on_c, 0, 65, 0
1, 15336, Note_on_c, 0, 62, 53
1, 15360, Tempo, 1500000
1, 15360, Note_on_c, 0, 62, 0
1, 15360, Note_on_c, 0, 46, 0
1, 15360, Note_on_c, 0, 34, 0
1, 15360, Note_on_c, 0, 63, 50
1, 15360, Note_on_c, 0, 39, 45
1, 15360, Note_on_c, 0, 51, 50
1, 15588, Note_on_c, 0, 51, 0
1, 15588, Note_on_c, 0, 39, 0
1, 15600, Note_on_c, 0, 63, 0
1, 15600, Note_on_c, 0, 51, 22
1, 15600, Note_on_c, 0, 55, 27
1, 15600, Note_on_c, 0, 58, 32
1, 15828, Note_on_c, 0, 58, 0
1, 15828, Note_on_c, 0, 55, 0
1, 15828, Note_on_c, 0, 51, 0
1, 15840, Note_on_c, 0, 63, 46
1, 15840, Note_on_c, 0, 75, 55
1, 15840, Note_on_c, 0, 51, 22
1, 15840, Note_on_c, 0, 55, 27
1, 15840, Note_on_c, 0, 58, 32
1, 16068, Note_on_c, 0, 58, 0
1, 16068, Note_on_c, 0, 51, 0
1, 16068, Note_on_c, 0, 55, 0
1, 16080, Note_on_c, 0, 51, 22
1, 16080, Note_on_c, 0, 55, 27
1, 16080, Note_on_c, 0, 58, 32
1, 16308, Note_on_c, 0, 58, 0
1, 16308, Note_on_c, 0, 51, 0
1, 16308, Note_on_c, 0, 55, 0
1, 16320, Note_on_c, 0, 51, 22
1, 16320, Note_on_c, 0, 55, 27
1, 16320, Note_on_c, 0, 58, 32
1, 16548, Note_on_c, 0, 58, 0
1, 16548, Note_on_c, 0, 51, 0
1, 16548, Note_on_c, 0, 55, 0
1, 16560, Note_on_c, 0, 51, 22
1, 16560, Note_on_c, 0, 55, 27
1, 16560, Note_on_c, 0, 58, 32
1, 16680, Note_on_c, 0, 75, 0
1, 16680, Note_on_c, 0, 63, 0
1, 16680, Note_on_c, 0, 63, 46
1, 16680, Note_on_c, 0, 75, 55
1, 16788, Note_on_c, 0, 55, 0
1, 16788, Note_on_c, 0, 58, 0
1, 16788, Note_on_c, 0, 51, 0
1, 16800, Note_on_c, 0, 63, 0
1, 16800, Note_on_c, 0, 75, 0
1, 16800, Note_on_c, 0, 65, 48
1, 16800, Note_on_c, 0, 77, 57
1, 16800, Note_on_c, 0, 51, 22
1, 16800, Note_on_c, 0, 55, 27
1, 16800, Note_on_c, 0, 58, 32
1, 17028, Note_on_c, 0, 58, 0
1, 17028, Note_on_c, 0, 51, 0
1, 17028, Note_on_c, 0, 55, 0
1, 17040, Note_on_c, 0, 51, 22
1, 17040, Note_on_c, 0, 55, 27
1, 17040, Note_on_c, 0, 58, 32
1, 17160, Tempo, 1666667
1, 17160, Note_on_c, 0, 77, 0
1, 17160, Note_on_c, 0, 65, 0
1, 17160, Note_on_c, 0, 67, 49
1, 17160, Note_on_c, 0, 79, 59
1, 17268, Note_on_c, 0, 55, 0
1, 17268, Note_on_c, 0, 58, 0
1, 17268, Note_on_c, 0, 51, 0
1, 17274, Note_on_c, 0, 67, 0
1, 17274, Note_on_c, 0, 79, 0
1, 17280, Tempo, 1500000
1, 17280, Note_on_c, 0, 67, 49
1, 17280, Note_on_c, 0, 79, 59
1, 17280, Note_on_c, 0, 51, 23
1, 17280, Note_on_c, 0, 56, 27
1, 17280, Note_on_c, 0, 60, 33
1, 17508, Note_on_c, 0, 60, 0
1, 17508, Note_on_c, 0, 51, 0
1, 17508, Note_on_c, 0, 56, 0
1, 17520, Note_on_c, 0, 51, 24
1, 17520, Note_on_c, 0, 56, 28
1, 17520, Note_on_c, 0, 60, 34
1, 17748, Note_on_c, 0, 60, 0
1, 17748, Note_on_c, 0, 51, 0
1, 17748, Note_on_c, 0, 56, 0
1, 17760, Note_on_c, 0, 79, 0
1, 17760, Note_on_c, 0, 67, 0
1, 17760, Note_on_c, 0, 65, 42
1, 17760, Note_on_c, 0, 77, 50
1, 17760, Note_on_c, 0, 51, 24
1, 17760, Note_on_c, 0, 56, 28
1, 17760, Note_on_c, 0, 60, 34
1, 17988, Note_on_c, 0, 60, 0
1, 17988, Note_on_c, 0, 51, 0
1, 17988, Note_on_c, 0, 56, 0
1, 18000, Note_on_c, 0, 77, 0
1, 18000, Note_on_c, 0, 65, 0
1, 18000, Note_on_c, 0, 51, 24
1, 18000, Note_on_c, 0, 56, 28
1, 18000, Note_on_c, 0, 60, 34
1, 18120, Note_on_c, 0, 65, 90
1, 18228, Note_on_c, 0, 60, 0
1, 18228, Note_on_c, 0, 51, 0
1, 18228, Note_on_c, 0, 56, 0
1, 18240, Tempo, 1445783
1, 18240, Note_on_c, 0, 65, 0
1, 18240, Note_on_c, 0, 53, 81
1, 18240, Note_on_c, 0, 56, 81
1, 18240, Note_on_c, 0, 59, 81
1, 18240, Note_on_c, 0, 65, 96
1, 18240, Note_on_c, 0, 38, 68
1, 18240, Note_on_c, 0, 50, 81
1, 18468, Note_on_c, 0, 50, 0
1, 18468, Note_on_c, 0, 38, 0
1, 18480, Note_on_c, 0, 38, 68
1, 18480, Note_on_c, 0, 50, 81
1, 18600, Note_on_c, 0, 59, 0
1, 18600, Note_on_c, 0, 65, 0
1, 18600, Note_on_c, 0, 53, 0
1, 18600, Note_on_c, 0, 56, 0
1, 18600, Note_on_c, 0, 53, 74
1, 18600, Note_on_c, 0, 56, 74
1, 18600, Note_on_c, 0, 59, 74
1, 18600, Note_on_c, 0, 65, 89
1, 18708, Note_on_c, 0, 50, 0
1, 18708, Note_on_c, 0, 38, 0
1, 18714, Note_on_c, 0, 59, 0
1, 18714, Note_on_c, 0, 56, 0
1, 18714, Note_on_c, 0, 65, 0
1, 18714, Note_on_c, 0, 53, 0
1, 18720, Note_on_c, 0, 53, 79
1, 18720, Note_on_c, 0, 56, 79
1, 18720, Note_on_c, 0, 60, 79
1, 18720, Note_on_c, 0, 65, 93
1, 18720, Note_on_c, 0, 36, 68
1, 18720, Note_on_c, 0, 48, 81
1, 18948, Note_on_c, 0, 48, 0
1, 18948, Note_on_c, 0, 36, 0
1, 18960, Note_on_c, 0, 36, 68
1, 18960, Note_on_c, 0, 48, 81
1, 19080, Tempo, 1558442
1, 19080, Note_on_c, 0, 60, 0
1, 19080, Note_on_c, 0, 65, 0
1, 19080, Note_on_c, 0, 53, 0
1, 19080, Note_on_c, 0, 56, 0
1, 19080, Note_on_c, 0, 53, 79
1, 19080, Note_on_c, 0, 56, 79
1, 19080, Note_on_c, 0, 60, 79
1, 19080, Note_on_c, 0, 65, 93
1, 19188, Note_on_c, 0, 48, 0
1, 19188, Note_on_c, 0, 36, 0
1, 19194, Note_on_c, 0, 60, 0
1, 19194, Note_on_c, 0, 56, 0
1, 19194, Note_on_c, 0, 65, 0
1, 19194, Note_on_c, 0, 53, 0
1, 19200, Tempo, 1500000
1, 19200, Note_on_c, 0, 53, 79
1, 19200, Note_on_c, 0, 56, 79
1, 19200, Note_on_c, 0, 62, 79
1, 19200, Note_on_c, 0, 65, 93
1, 19200, Note_on_c, 0, 35, 68
1, 19200, Note_on_c, 0, 47, 81
1, 19428, Note_on_c, 0, 47, 0
1, 19428, Note_on_c, 0, 35, 0
1, 19440, Note_on_c, 0, 47, 18
1, 19440, Note_on_c, 0, 50, 18
1, 19440, Note_on_c, 0, 53, 23
1, 19440, Note_on_c, 0, 56, 28
1, 19668, Note_on_c, 0, 56, 0
1, 19668, Note_on_c, 0, 53, 0
1, 19668, Note_on_c, 0, 47, 0
1, 19668, Note_on_c, 0, 50, 0
1, 19680, Note_on_c, 0, 65, 0
1, 19680, Note_on_c, 0, 62, 0
1, 19680, Note_on_c, 0, 56, 0
1, 19680, Note_on_c, 0, 53, 0
1, 19680, Note_on_c, 0, 65, 46
1, 19680, Note_on_c, 0, 77, 55
1, 19680, Note_on_c, 0, 47, 18
1, 19680, Note_on_c, 0, 50, 18
1, 19680, Note_on_c, 0, 53, 23
1, 19680, Note_on_c, 0, 56, 28
1, 19908, Note_on_c, 0, 56, 0
1, 19908, Note_on_c, 0, 50, 0
1, 19908, Note_on_c, 0, 47, 0
1, 19908, Note_on_c, 0, 53, 0
1, 19920, Note_on_c, 0, 47, 18
1, 19920, Note_on_c, 0, 50, 18
1, 19920, Note_on_c, 0, 53, 23
1, 19920, Note_on_c, 0, 56, 28
1, 20148, Note_on_c, 0, 56, 0
1, 20148, Note_on_c, 0, 50, 0
1, 20148, Note_on_c, 0, 47, 0
1, 20148, Note_on_c, 0, 53, 0
1, 20160, Note_on_c, 0, 46, 18
1, 20160, Note_on_c, 0, 50, 18
1, 20160, Note_on_c, 0, 53, 23
1, 20160, Note_on_c, 0, 56, 28
1, 20388, Note_on_c, 0, 56, 0
1, 20388, Note_on_c, 0, 50, 0
1, 20388, Note_on_c, 0, 46, 0
1, 20388, Note_on_c, 0, 53, 0
1, 20400, Note_on_c, 0, 46, 18
1, 20400, Note_on_c, 0, 50, 18
1, 20400, Note_on_c, 0, 53, 23
1, 20400, Note_on_c, 0, 56, 28
1, 20520, Note_on_c, 0, 65, 0
1, 20520, Note_on_c, 0, 77, 0
1, 20520, Note_on_c, 0, 65, 46
1, 20520, Note_on_c, 0, 77, 55
1, 20628, Note_on_c, 0, 53, 0
1, 20628, Note_on_c, 0, 46, 0
1, 20628, Note_on_c, 0, 50, 0
1, 20628, Note_on_c, 0, 56, 0
1, 20640, Note_on_c, 0, 77, 0
1, 20640, Note_on_c, 0, 65, 0
1, 20640, Note_on_c, 0, 67, 48
1, 20640, Note_on_c, 0, 79, 57
1, 20640, Note_on_c, 0, 46, 18
1, 20640, Note_on_c, 0, 50, 18
1, 20640, Note_on_c, 0, 53, 23
1, 20640, Note_on_c, 0, 56, 28
1, 20868, Note_on_c, 0, 56, 0
1, 20868, Note_on_c, 0, 50, 0
1, 20868, Note_on_c, 0, 46, 0
1, 20868, Note_on_c, 0, 53, 0
1, 20880, Note_on_c, 0, 46, 18
1, 20880, Note_on_c, 0, 50, 18
1, 20880, Note_on_c, 0, 53, 23
1, 20880, Note_on_c, 0, 56, 28
1, 21000, Tempo, 1666667
1, 21000, Note_on_c, 0, 67, 0
1, 21000, Note_on_c, 0, 79, 0
1, 21000, Note_on_c, 0, 68, 49
1, 21000, Note_on_c, 0, 80, 59
1, 21108, Note_on_c, 0, 53, 0
1, 21108, Note_on_c, 0, 46, 0
1, 21108, Note_on_c, 0, 50, 0
1, 21108, Note_on_c, 0, 56, 0
1, 21114, Note_on_c, 0, 80, 0
1, 21114, Note_on_c, 0, 68, 0
1, 21120, Tempo, 1500000
1, 21120, Note_on_c, 0, 68, 49
1, 21120, Note_on_c, 0, 80, 59
1, 21120, Note_on_c, 0, 46, 19
1, 21120, Note_on_c, 0, 49, 19
1, 21120, Note_on_c, 0, 52, 24
1, 21120, Note_on_c, 0, 55, 28
1, 21348, Note_on_c, 0, 55, 0
1, 21348, Note_on_c, 0, 49, 0
1, 21348, Note_on_c, 0, 46, 0
1, 21348, Note_on_c, 0, 52, 0
1, 21360, Note_on_c, 0, 46, 19
1, 21360, Note_on_c, 0, 49, 19
1, 21360, Note_on_c, 0, 52, 25
1, 21360, Note_on_c, 0, 55, 29
1, 21588, Note_on_c, 0, 55, 0
1, 21588, Note_on_c, 0, 49, 0
1, 21588, Note_on_c, 0, 46, 0
1, 21588, Note_on_c, 0, 52, 0
1, 21600, Note_on_c, 0, 80, 0
1, 21600, Note_on_c, 0, 68, 0
1, 21600, Note_on_c, 0, 67, 46
1, 21600, Note_on_c, 0, 79, 55
1, 21600, Note_on_c, 0, 46, 19
1, 21600, Note_on_c, 0, 49, 19
1, 21600, Note_on_c, 0, 52, 25
1, 21600, Note_on_c, 0, 55, 29
1, 21828, Note_on_c, 0, 55, 0
1, 21828, Note_on_c, 0, 49, 0
1, 21828, Note_on_c, 0, 46, 0
1, 21828, Note_on_c, 0, 52, 0
1, 21840, Note_on_c, 0, 67, 0
1, 21840, Note_on_c, 0, 79, 0
1, 21840, Note_on_c, 0, 46, 19
1, 21840, Note_on_c, 0, 49, 19
1, 21840, Note_on_c, 0, 52, 25
1, 21840, Note_on_c, 0, 55, 29
1, 21960, Note_on_c, 0, 55, 75
1, 21960, Note_on_c, 0, 61, 75
1, 21960, Note_on_c, 0, 64, 75
1, 21960, Note_on_c, 0, 67, 90
1, 22068, Note_on_c, 0, 55, 0
1, 22068, Note_on_c, 0, 52, 0
1, 22068, Note_on_c, 0, 46, 0
1, 22068, Note_on_c, 0, 49, 0
1, 22080, Tempo, 1445783
1, 22080, Note_on_c, 0, 55, 0
1, 22080, Note_on_c, 0, 67, 0
1, 22080, Note_on_c, 0, 61, 0
1, 22080, Note_on_c, 0, 64, 0
1, 22080, Note_on_c, 0, 57, 81
1, 22080, Note_on_c, 0, 61, 81
1, 22080, Note_on_c, 0, 63, 81
1, 22080, Note_on_c, 0, 69, 96
1, 22080, Note_on_c, 0, 33, 68
1, 22080, Note_on_c, 0, 45, 81
1, 22308, Note_on_c, 0, 45, 0
1, 22308, Note_on_c, 0, 33, 0
1, 22320, Note_on_c, 0, 33, 68
1, 22320, Note_on_c, 0, 45, 81
1, 22440, Note_on_c, 0, 63, 0
1, 22440, Note_on_c, 0, 69, 0
1, 22440, Note_on_c, 0, 57, 0
1, 22440, Note_on_c, 0, 61, 0
1, 22440, Note_on_c, 0, 57, 74
1, 22440, Note_on_c, 0, 61, 74
1, 22440, Note_on_c, 0, 63, 74
1, 22440, Note_on_c, 0, 69, 89
1, 22548, Note_on_c, 0, 45, 0
1, 22548, Note_on_c, 0, 33, 0
1, 22554, Note_on_c, 0, 63, 0
1, 22554, Note_on_c, 0, 61, 0
1, 22554, Note_on_c, 0, 69, 0
1, 22554, Note_on_c, 0, 57, 0
1, 22560, Note_on_c, 0, 58, 79
1, 22560, Note_on_c, 0, 61, 79
1, 22560, Note_on_c, 0, 63, 79
1, 22560, Note_on_c, 0, 70, 93
1, 22560, Note_on_c, 0, 31, 68
1, 22560, Note_on_c, 0, 43, 81
1, 22788, Note_on_c, 0, 43, 0
1, 22788, Note_on_c, 0, 31, 0
1, 22800, Note_on_c, 0, 31, 68
1, 22800, Note_on_c, 0, 43, 81
1, 22920, Note_on_c, 0, 63, 0
1, 22920, Note_on_c, 0, 70, 0
1, 22920, Note_on_c, 0, 58, 0
1, 22920, Note_on_c, 0, 61, 0
1, 22920, Note_on_c, 0, 58, 79
1, 22920, Note_on_c, 0, 61, 79
1, 22920, Note_on_c, 0, 63, 79
1, 22920, Note_on_c, 0, 70, 93
1, 23028, Note_on_c, 0, 43, 0
1, 23028, Note_on_c, 0, 31, 0
1, 23034, Note_on_c, 0, 63, 0
1, 23034, Note_on_c, 0, 61, 0
1, 23034, Note_on_c, 0, 70, 0
1, 23034, Note_on_c, 0, 58, 0
1, 23040, Tempo, 1481481
1, 23040, Note_on_c, 0, 57, 79
1, 23040, Note_on_c, 0, 62, 79
1, 23040, Note_on_c, 0, 66, 79
1, 23040, Note_on_c, 0, 69, 93
1, 23040, Note_on_c, 0, 30, 68
1, 23040, Note_on_c, 0, 42, 81
1, 23268, Note_on_c, 0, 42, 0
1, 23268, Note_on_c, 0, 30, 0
1, 23280, Note_on_c, 0, 54, 24
1, 23280, Note_on_c, 0, 57, 28
1, 23280, Note_on_c, 0, 62, 34
1, 23508, Note_on_c, 0, 62, 0
1, 23508, Note_on_c, 0, 54, 0
1, 23508, Note_on_c, 0, 57, 0
1, 23520, Note_on_c, 0, 69, 0
1, 23520, Note_on_c, 0, 57, 0
1, 23520, Note_on_c, 0, 62, 0
1, 23520, Note_on_c, 0, 66, 0
1, 23520, Note_on_c, 0, 69, 46
1, 23520, Note_on_c, 0, 81, 55
1, 23520, Note_on_c, 0, 54, 24
1, 23520, Note_on_c, 0, 57, 28
1, 23520, Note_on_c, 0, 62, 34
1, 23748, Note_on_c, 0, 62, 0
1, 23748, Note_on_c, 0, 54, 0
1, 23748, Note_on_c, 0, 57, 0
1, 23760, Note_on_c, 0, 54, 24
1, 23760, Note_on_c, 0, 57, 28
1, 23760, Note_on_c, 0, 62, 34
1, 23988, Note_on_c, 0, 62, 0
1, 23988, Note_on_c, 0, 54, 0
1, 23988, Note_on_c, 0, 57, 0
1, 24000, Note_on_c, 0, 54, 24
1, 24000, Note_on_c, 0, 57, 28
1, 24000, Note_on_c, 0, 62, 34
1, 24228, Note_on_c, 0, 62, 0
1, 24228, Note_on_c, 0, 54, 0
1, 24228, Note_on_c, 0, 57, 0
1, 24240, Note_on_c, 0, 54, 24
1, 24240, Note_on_c, 0, 57, 28
1, 24240, Note_on_c, 0, 62, 34
1, 24360, Note_on_c, 0, 81, 0
1, 24360, Note_on_c, 0, 69, 0
1, 24360, Note_on_c, 0, 69, 46
1, 24360, Note_on_c, 0, 81, 55
1, 24468, Note_on_c, 0, 57, 0
1, 24468, Note_on_c, 0, 62, 0
1, 24468, Note_on_c, 0, 54, 0
1, 24480, Note_on_c, 0, 69, 0
1, 24480, Note_on_c, 0, 81, 0
1, 24480, Note_on_c, 0, 71, 48
1, 24480, Note_on_c, 0, 83, 57
1, 24480, Note_on_c, 0, 54, 24
1, 24480, Note_on_c, 0, 57, 28
1, 24480, Note_on_c, 0, 62, 34
1, 24708, Note_on_c, 0, 62, 0
1, 24708, Note_on_c, 0, 54, 0
1, 24708, Note_on_c, 0, 57, 0
1, 24720, Note_on_c, 0, 54, 24
1, 24720, Note_on_c, 0, 57, 28
1, 24720, Note_on_c, 0, 62, 34
1, 24840, Tempo, 1666667
1, 24840, Note_on_c, 0, 83, 0
1, 24840, Note_on_c, 0, 71, 0
1, 24840, Note_on_c, 0, 72, 49
1, 24840, Note_on_c, 0, 84, 59
1, 24948, Note_on_c, 0, 57, 0
1, 24948, Note_on_c, 0, 62, 0
1, 24948, Note_on_c, 0, 54, 0
1, 24954, Note_on_c, 0, 72, 0
1, 24954, Note_on_c, 0, 84, 0
1, 24960, Tempo, 1500000
1, 24960, Note_on_c, 0, 72, 49
1, 24960, Note_on_c, 0, 84, 59
1, 24960, Note_on_c, 0, 53, 25
1, 24960, Note_on_c, 0, 56, 29
1, 24960, Note_on_c, 0, 62, 35
1, 25188, Note_on_c, 0, 62, 0
1, 25188, Note_on_c, 0, 53, 0
1, 25188, Note_on_c, 0, 56, 0
1, 25200, Note_on_c, 0, 53, 25
1, 25200, Note_on_c, 0, 56, 30
1, 25200, Note_on_c, 0, 62, 36
1, 25428, Note_on_c, 0, 62, 0
1, 25428, Note_on_c, 0, 53, 0
1, 25428, Note_on_c, 0, 56, 0
1, 25440, Tempo, 1445783
1, 25440, Note_on_c, 0, 84, 0
1, 25440, Note_on_c, 0, 72, 0
1, 25440, Note_on_c, 0, 71, 46
1, 25440, Note_on_c, 0, 83, 55
1, 25440, Note_on_c, 0, 53, 25
1, 25440, Note_on_c, 0, 56, 30
1, 25440, Note_on_c, 0, 62, 36
1, 25668, Note_on_c, 0, 62, 0
1, 25668, Note_on_c, 0, 53, 0
1, 25668, Note_on_c, 0, 56, 0
1, 25680, Note_on_c, 0, 83, 0
1, 25680, Note_on_c, 0, 71, 0
1, 25680, Note_on_c, 0, 53, 25
1, 25680, Note_on_c, 0, 56, 30
1, 25680, Note_on_c, 0, 62, 36
1, 25908, Note_on_c, 0, 62, 0
1, 25908, Note_on_c, 0, 56, 0
1, 25908, Note_on_c, 0, 53, 0
1, 25920, Tempo, 1463415
1, 25920, Note_on_c, 0, 50, 35
1, 25920, Note_on_c, 0, 53, 42
1, 25920, Note_on_c, 0, 59, 50
1, 26148, Note_on_c, 0, 59, 0
1, 26148, Note_on_c, 0, 53, 0
1, 26148, Note_on_c, 0, 50, 0
1, 26160, Tempo, 1445783
1, 26160, Note_on_c, 0, 50, 35
1, 26160, Note_on_c, 0, 53, 42
1, 26160, Note_on_c, 0, 59, 50
1, 26360, Tempo, 1428571
1, 26388, Note_on_c, 0, 59, 0
1, 26388, Note_on_c, 0, 53, 0
1, 26388, Note_on_c, 0, 50, 0
1, 26400, Note_on_c, 0, 71, 71
1, 26400, Note_on_c, 0, 83, 71
1, 26400, Note_on_c, 0, 50, 35
1, 26400, Note_on_c, 0, 53, 42
1, 26400, Note_on_c, 0, 59, 50
1, 26560, Tempo, 1411765
1, 26628, Note_on_c, 0, 59, 0
1, 26628, Note_on_c, 0, 50, 0
1, 26628, Note_on_c, 0, 53, 0
1, 26640, Tempo, 1481481
1, 26640, Note_on_c, 0, 50, 35
1, 26640, Note_on_c, 0, 53, 42
1, 26640, Note_on_c, 0, 59, 50
1, 26760, Note_on_c, 0, 83, 0
1, 26760, Note_on_c, 0, 71, 0
1, 26760, Note_on_c, 0, 72, 62
1, 26760, Note_on_c, 0, 84, 74
1, 26868, Note_on_c, 0, 53, 0
1, 26868, Note_on_c, 0, 59, 0
1, 26868, Note_on_c, 0, 50, 0
1, 26880, Tempo, 1463415
1, 26880, Note_on_c, 0, 72, 0
1, 26880, Note_on_c, 0, 84, 0
1, 26880, Note_on_c, 0, 73, 80
1, 26880, Note_on_c, 0, 85, 80
1, 26880, Note_on_c, 0, 47, 47
1, 26880, Note_on_c, 0, 50, 47
1, 26880, Note_on_c, 0, 56, 56
1, 27108, Note_on_c, 0, 56, 0
1, 27108, Note_on_c, 0, 47, 0
1, 27108, Note_on_c, 0, 50, 0
1, 27120, Note_on_c, 0, 47, 49
1, 27120, Note_on_c, 0, 50, 49
1, 27120, Note_on_c, 0, 56, 58
1, 27348, Note_on_c, 0, 56, 0
1, 27348, Note_on_c, 0, 47, 0
1, 27348, Note_on_c, 0, 50, 0
1, 27360, Tempo, 1395349
1, 27360, Note_on_c, 0, 85, 0
1, 27360, Note_on_c, 0, 73, 0
1, 27360, Note_on_c, 0, 74, 85
1, 27360, Note_on_c, 0, 86, 85
1, 27360, Note_on_c, 0, 47, 44
1, 27360, Note_on_c, 0, 50, 44
1, 27360, Note_on_c, 0, 56, 52
1, 27588, Note_on_c, 0, 56, 0
1, 27588, Note_on_c, 0, 47, 0
1, 27588, Note_on_c, 0, 50, 0
1, 27600, Note_on_c, 0, 47, 44
1, 27600, Note_on_c, 0, 50, 44
1, 27600, Note_on_c, 0, 56, 52
1, 27828, Note_on_c, 0, 56, 0
1, 27828, Note_on_c, 0, 47, 0
1, 27828, Note_on_c, 0, 50, 0
1, 27840, Tempo, 1395349
1, 27840, Note_on_c, 0, 86, 0
1, 27840, Note_on_c, 0, 74, 0
1, 27840, Note_on_c, 0, 44, 45
1, 27840, Note_on_c, 0, 47, 53
1, 27840, Note_on_c, 0, 53, 63
1, 28068, Note_on_c, 0, 53, 0
1, 28068, Note_on_c, 0, 47, 0
1, 28068, Note_on_c, 0, 44, 0
1, 28080, Tempo, 1428571
1, 28080, Note_on_c, 0, 44, 45
1, 28080, Note_on_c, 0, 47, 53
1, 28080, Note_on_c, 0, 53, 63
1, 28308, Note_on_c, 0, 53, 0
1, 28308, Note_on_c, 0, 47, 0
1, 28308, Note_on_c, 0, 44, 0
1, 28320, Tempo, 1428571
1, 28320, Note_on_c, 0, 74, 90
1, 28320, Note_on_c, 0, 86, 91
1, 28320, Note_on_c, 0, 44, 45
1, 28320, Note_on_c, 0, 47, 53
1, 28320, Note_on_c, 0, 53, 63
1, 28548, Note_on_c, 0, 53, 0
1, 28548, Note_on_c, 0, 44, 0
1, 28548, Note_on_c, 0, 47, 0
1, 28560, Note_on_c, 0, 44, 45
1, 28560, Note_on_c, 0, 47, 53
1, 28560, Note_on_c, 0, 53, 63
1, 28680, Tempo, 1600000
1, 28680, Note_on_c, 0, 86, 0
1, 28680, Note_on_c, 0, 74, 0
1, 28680, Note_on_c, 0, 75, 80
1, 28680, Note_on_c, 0, 87, 82
1, 28788, Note_on_c, 0, 47, 0
1, 28788, Note_on_c, 0, 53, 0
1, 28788, Note_on_c, 0, 44, 0
1, 28800, Tempo, 1428571
1, 28800, Note_on_c, 0, 75, 0
1, 28800, Note_on_c, 0, 87, 0
1, 28800, Note_on_c, 0, 76, 88
1, 28800, Note_on_c, 0, 88, 88
1, 28800, Note_on_c, 0, 43, 45
1, 28800, Note_on_c, 0, 47, 53
1, 28800, Note_on_c, 0, 53, 64
1, 29028, Note_on_c, 0, 53, 0
1, 29028, Note_on_c, 0, 43, 0
1, 29028, Note_on_c, 0, 47, 0
1, 29040, Note_on_c, 0, 43, 45
1, 29040, Note_on_c, 0, 47, 53
1, 29040, Note_on_c, 0, 53, 64
1, 29268, Note_on_c, 0, 53, 0
1, 29268, Note_on_c, 0, 43, 0
1, 29268, Note_on_c, 0, 47, 0
1, 29280, Note_on_c, 0, 88, 0
1, 29280, Note_on_c, 0, 76, 0
1, 29280, Note_on_c, 0, 77, 88
1, 29280, Note_on_c, 0, 89, 90
1, 29280, Note_on_c, 0, 43, 45
1, 29280, Note_on_c, 0, 47, 53
1, 29280, Note_on_c, 0, 53, 64
1, 29508, Note_on_c, 0, 53, 0
1, 29508, Note_on_c, 0, 43, 0
1, 29508, Note_on_c, 0, 47, 0
1, 29520, Tempo, 1428571
1, 29520, Note_on_c, 0, 43, 45
1, 29520, Note_on_c, 0, 47, 53
1, 29520, Note_on_c, 0, 53, 64
1, 29720, Tempo, 1363636
1, 29748, Note_on_c, 0, 53, 0
1, 29748, Note_on_c, 0, 43, 0
1, 29748, Note_on_c, 0, 47, 0
1, 29760, Note_on_c, 0, 44, 46
1, 29760, Note_on_c, 0, 48, 55
1, 29760, Note_on_c, 0, 53, 66
1, 29988, Note_on_c, 0, 53, 0
1, 29988, Note_on_c, 0, 44, 0
1, 29988, Note_on_c, 0, 48, 0
1, 30000, Note_on_c, 0, 44, 48
1, 30000, Note_on_c, 0, 48, 57
1, 30000, Note_on_c, 0, 53, 68
1, 30228, Note_on_c, 0, 53, 0
1, 30228, Note_on_c, 0, 44, 0
1, 30228, Note_on_c, 0, 48, 0
1, 30230, Note_on_c, 0, 89, 0
1, 30230, Note_on_c, 0, 77, 0
1, 30240, Tempo, 1445783
1, 30240, Note_on_c, 0, 77, 96
1, 30240, Note_on_c, 0, 89, 96
1, 30240, Note_on_c, 0, 44, 50
1, 30240, Note_on_c, 0, 48, 60
1, 30240, Note_on_c, 0, 53, 70
1, 30468, Note_on_c, 0, 53, 0
1, 30468, Note_on_c, 0, 44, 0
1, 30468, Note_on_c, 0, 48, 0
1, 30480, Tempo, 1714286
1, 30480, Note_on_c, 0, 44, 51
1, 30480, Note_on_c, 0, 48, 61
1, 30480, Note_on_c, 0, 53, 73
1, 30708, Note_on_c, 0, 53, 0
1, 30708, Note_on_c, 0, 44, 0
1, 30708, Note_on_c, 0, 48, 0
1, 30710, Note_on_c, 0, 89, 0
1, 30710, Note_on_c, 0, 77, 0
1, 30720, Tempo, 1428571
1, 30720, Note_on_c, 0, 77, 96
1, 30720, Note_on_c, 0, 89, 96
1, 30720, Note_on_c, 0, 43, 75
1, 30720, Note_on_c, 0, 47, 75
1, 30720, Note_on_c, 0, 53, 75
1, 31200, Note_on_c, 0, 53, 0
1, 31200, Note_on_c, 0, 43, 0
1, 31200, Note_on_c, 0, 47, 0
1, 31320, Note_on_c, 0, 89, 0
1, 31320, Note_on_c, 0, 77, 0
1, 31320, Note_on_c, 0, 87, 62
1, 31380, Note_on_c, 0, 87, 0
1, 31380, Note_on_c, 0, 86, 62
1, 31440, Note_on_c, 0, 86, 0
1, 31440, Note_on_c, 0, 89, 62
1, 31500, Note_on_c, 0, 89, 0
1, 31500, Note_on_c, 0, 87, 62
1, 31560, Note_on_c, 0, 87, 0
1, 31560, Note_on_c, 0, 86, 62
1, 31620, Note_on_c, 0, 86, 0
1, 31620, Note_on_c, 0, 84, 62
1, 31680, Tempo, 1445783
1, 31680, Note_on_c, 0, 84, 0
1, 31680, Note_on_c, 0, 83, 62
1, 31800, Note_on_c, 0, 83, 0
1, 31920, Tempo, 1538462
1, 31920, Note_on_c, 0, 83, 52
1, 32040, Note_on_c, 0, 83, 0
1, 32160, Tempo, 1600000
1, 32160, Note_on_c, 0, 77, 39
1, 32160, Note_on_c, 0, 83, 47
1, 32160, Note_on_c, 0, 67, 35
1, 32160, Note_on_c, 0, 74, 42
1, 32280, Note_on_c, 0, 74, 0
1, 32280, Note_on_c, 0, 77, 0
1, 32280, Note_on_c, 0, 83, 0
1, 32280, Note_on_c, 0, 67, 0
1, 32400, Tempo, 1739130
1, 32400, Note_on_c, 0, 77, 40
1, 32400, Note_on_c, 0, 83, 48
1, 32400, Note_on_c, 0, 67, 35
1, 32400, Note_on_c, 0, 74, 42
1, 32520, Note_on_c, 0, 74, 0
1, 32520, Note_on_c, 0, 77, 0
1, 32520, Note_on_c, 0, 83, 0
1, 32520, Note_on_c, 0, 67, 0
1, 32640, Tempo, 1481481
1, 32640, Note_on_c, 0, 75, 40
1, 32640, Note_on_c, 0, 84, 48
1, 32640, Note_on_c, 0, 68, 35
1, 32640, Note_on_c, 0, 72, 42
1, 33120, Note_on_c, 0, 72, 0
1, 33120, Note_on_c, 0, 75, 0
1, 33120, Note_on_c, 0, 84, 0
1, 33120, Note_on_c, 0, 68, 0
1, 33600, Tempo, 1428571
1, 34560, Time_signature, 9, 2, 24, 8
1, 34560, Note_on_c, 0, 84, 65
1, 35160, Note_on_c, 0, 84, 0
1, 35160, Note_on_c, 0, 83, 61
1, 35220, Note_on_c, 0, 83, 0
1, 35220, Note_on_c, 0, 84, 63
1, 35280, Note_on_c, 0, 84, 0
1, 35280, Note_on_c, 0, 86, 66
1, 35320, Note_on_c, 0, 86, 0
1, 35320, Note_on_c, 0, 84, 65
1, 35360, Note_on_c, 0, 84, 0
1, 35360, Note_on_c, 0, 82, 64
1, 35400, Note_on_c, 0, 82, 0
1, 35400, Note_on_c, 0, 80, 63
1, 35440, Note_on_c, 0, 80, 0
1, 35440, Note_on_c, 0, 79, 61
1, 35480, Note_on_c, 0, 79, 0
1, 35480, Note_on_c, 0, 82, 60
1, 35520, Tempo, 1463415
1, 35520, Note_on_c, 0, 82, 0
1, 35520, Note_on_c, 0, 80, 62
1, 35640, Tempo, 1518987
1, 35640, Note_on_c, 0, 80, 0
1, 35760, Tempo, 1558442
1, 35760, Note_on_c, 0, 80, 49
1, 35880, Note_on_c, 0, 80, 0
1, 36000, Tempo, 1578947
1, 36000, Note_on_c, 0, 80, 47
1, 36000, Note_on_c, 0, 60, 28
1, 36000, Note_on_c, 0, 53, 28
1, 36000, Note_on_c, 0, 62, 34
1, 36120, Note_on_c, 0, 62, 0
1, 36120, Note_on_c, 0, 80, 0
1, 36120, Note_on_c, 0, 60, 0
1, 36120, Note_on_c, 0, 53, 0
1, 36240, Tempo, 1764706
1, 36240, Note_on_c, 0, 80, 48
1, 36240, Note_on_c, 0, 60, 28
1, 36240, Note_on_c, 0, 53, 28
1, 36240, Note_on_c, 0, 62, 34
1, 36360, Note_on_c, 0, 62, 0
1, 36360, Note_on_c, 0, 80, 0
1, 36360, Note_on_c, 0, 60, 0
1, 36360, Note_on_c, 0, 53, 0
1, 36480, Tempo, 1643836
1, 36480, Note_on_c, 0, 79, 50
1, 36480, Note_on_c, 0, 60, 28
1, 36480, Note_on_c, 0, 55, 28
1, 36480, Note_on_c, 0, 63, 34
1, 36720, Tempo, 1463415
1, 36720, Note_on_c, 0, 79, 0
1, 36720, Note_on_c, 0, 87, 65
1, 36960, Note_on_c, 0, 60, 0
1, 36960, Note_on_c, 0, 63, 0
1, 36960, Note_on_c, 0, 55, 0
1, 37000, Tempo, 1411765
1, 37000, Note_on_c, 0, 87, 0
1, 37000, Note_on_c, 0, 86, 52
1, 37040, Note_on_c, 0, 86, 0
1, 37040, Note_on_c, 0, 85, 52
1, 37080, Note_on_c, 0, 85, 0
1, 37080, Note_on_c, 0, 84, 52
1, 37120, Note_on_c, 0, 84, 0
1, 37120, Note_on_c, 0, 83, 52
1, 37160, Note_on_c, 0, 83, 0
1, 37160, Note_on_c, 0, 82, 53
1, 37200, Note_on_c, 0, 82, 0
1, 37200, Note_on_c, 0, 81, 53
1, 37234, Note_on_c, 0, 81, 0
1, 37234, Note_on_c, 0, 80, 53
1, 37268, Note_on_c, 0, 80, 0
1, 37268, Note_on_c, 0, 79, 53
1, 37302, Note_on_c, 0, 79, 0
1, 37302, Note_on_c, 0, 78, 54
1, 37336, Note_on_c, 0, 78, 0
1, 37336, Note_on_c, 0, 77, 54
1, 37370, Note_on_c, 0, 77, 0
1, 37370, Note_on_c, 0, 76, 54
1, 37400, Tempo, 740741
1, 37404, Note_on_c, 0, 76, 0
1, 37404, Note_on_c, 0, 75, 54
1, 37440, Tempo, 736196
1, 37440, Note_on_c, 0, 75, 0
1, 37440, Note_on_c, 0, 74, 54
1, 37440, Note_on_c, 0, 43, 33
1, 37440, Note_on_c, 0, 50, 33
1, 37440, Note_on_c, 0, 53, 40
1, 37500, Note_on_c, 0, 74, 0
1, 37500, Note_on_c, 0, 73, 55
1, 37520, Tempo, 736196
1, 37560, Note_on_c, 0, 73, 0
1, 37560, Note_on_c, 0, 72, 55
1, 37600, Tempo, 731707
1, 37620, Note_on_c, 0, 72, 0
1, 37620, Note_on_c, 0, 71, 56
1, 37680, Tempo, 727273
1, 37680, Note_on_c, 0, 71, 0
1, 37680, Note_on_c, 0, 70, 56
1, 37740, Note_on_c, 0, 70, 0
1, 37740, Note_on_c, 0, 69, 56
1, 37760, Tempo, 722892
1, 37800, Note_on_c, 0, 69, 0
1, 37800, Note_on_c, 0, 68, 57
1, 37860, Note_on_c, 0, 68, 0
1, 37860, Note_on_c, 0, 67, 57
1, 37880, Tempo, 718563
1, 37920, Note_on_c, 0, 67, 0
1, 37920, Note_on_c, 0, 53, 0
1, 37920, Note_on_c, 0, 50, 0
1, 37920, Note_on_c, 0, 43, 0
1, 37920, Note_on_c, 0, 66, 57
1, 37960, Tempo, 714286
1, 37980, Note_on_c, 0, 66, 0
1, 37980, Note_on_c, 0, 65, 58
1, 38040, Tempo, 710059
1, 38040, Note_on_c, 0, 65, 0
1, 38040, Note_on_c, 0, 64, 57
1, 38100, Note_on_c, 0, 64, 0
1, 38100, Note_on_c, 0, 63, 57
1, 38120, Tempo, 705882
1, 38160, Tempo, 710059
1, 38160, Note_on_c, 0, 63, 0
1, 38160, Note_on_c, 0, 62, 58
1, 38200, Tempo, 718563
1, 38220, Note_on_c, 0, 62, 0
1, 38220, Note_on_c, 0, 61, 63
1, 38240, Tempo, 722892
1, 38280, Tempo, 731707
1, 38280, Note_on_c, 0, 61, 0
1, 38280, Note_on_c, 0, 60, 68
1, 38320, Tempo, 736196
1, 38340, Note_on_c, 0, 60, 0
1, 38340, Note_on_c, 0, 59, 73
1, 38360, Tempo, 745342
1, 38400, Tempo, 1411765
1, 38400, Note_on_c, 0, 59, 0
1, 38400, Note_on_c, 0, 68, 82
1, 38760, Note_on_c, 0, 68, 0
1, 38760, Note_on_c, 0, 59, 68
1, 38860, Tempo, 444444
1, 38880, Time_signature, 4, 3, 12, 8
1, 38880, Tempo, 410004
1, 38880, Marker_t, "Allegro di molto e con brio"
1, 38880, Note_on_c, 0, 59, 0
1, 38880, Note_on_c, 0, 60, 50
1, 38880, Note_on_c, 0, 36, 44
1, 38940, Tempo, 408469
1, 38983, Control_c, 0, 64, 127
1, 39000, Tempo, 407000
1, 39000, Note_on_c, 0, 48, 41
1, 39060, Tempo, 405488
1, 39108, Note_on_c, 0, 36, 0
1, 39120, Tempo, 403986
1, 39120, Note_on_c, 0, 48, 0
1, 39120, Note_on_c, 0, 36, 44
1, 39180, Tempo, 402522
1, 39240, Tempo, 401070
1, 39240, Note_on_c, 0, 48, 41
1, 39300, Tempo, 399600
1, 39348, Note_on_c, 0, 36, 0
1, 39360, Tempo, 398168
1, 39360, Note_on_c, 0, 48, 0
1, 39360, Note_on_c, 0, 36, 44
1, 39420, Tempo, 396720
1, 39480, Tempo, 395309
1, 39480, Note_on_c, 0, 48, 41
1, 39540, Tempo, 393908
1, 39549, Control_c, 0, 64, 0
1, 39588, Note_on_c, 0, 36, 0
1, 39600, Tempo, 392490
1, 39600, Note_on_c, 0, 48, 0
1, 39600, Note_on_c, 0, 60, 0
1, 39600, Note_on_c, 0, 58, 52
1, 39600, Note_on_c, 0, 64, 52
1, 39600, Note_on_c, 0, 36, 45
1, 39660, Tempo, 391083
1, 39690, Note_on_c, 0, 64, 0
1, 39690, Note_on_c, 0, 58, 0
1, 39720, Tempo, 389737
1, 39720, Note_on_c, 0, 48, 41
1, 39828, Note_on_c, 0, 36, 0
1, 39840, Note_on_c, 0, 48, 0
1, 39840, Note_on_c, 0, 56, 54
1, 39840, Note_on_c, 0, 65, 54
1, 39840, Note_on_c, 0, 36, 45
1, 39930, Note_on_c, 0, 65, 0
1, 39930, Note_on_c, 0, 56, 0
1, 39960, Note_on_c, 0, 48, 46
1, 40068, Note_on_c, 0, 36, 0
1, 40080, Tempo, 384615
1, 40080, Note_on_c, 0, 48, 0
1, 40080, Note_on_c, 0, 64, 56
1, 40080, Note_on_c, 0, 67, 56
1, 40080, Note_on_c, 0, 36, 47
1, 40170, Note_on_c, 0, 67, 0
1, 40170, Note_on_c, 0, 64, 0
1, 40200, Note_on_c, 0, 48, 47
1, 40308, Note_on_c, 0, 36, 0
1, 40320, Note_on_c, 0, 48, 0
1, 40320, Note_on_c, 0, 65, 57
1, 40320, Note_on_c, 0, 68, 57
1, 40320, Note_on_c, 0, 36, 49
1, 40410, Note_on_c, 0, 68, 0
1, 40410, Note_on_c, 0, 65, 0
1, 40440, Note_on_c, 0, 48, 50
1, 40548, Note_on_c, 0, 36, 0
1, 40560, Tempo, 390879
1, 40560, Note_on_c, 0, 48, 0
1, 40560, Note_on_c, 0, 62, 59
1, 40560, Note_on_c, 0, 71, 59
1, 40560, Note_on_c, 0, 36, 51
1, 40650, Note_on_c, 0, 71, 0
1, 40650, Note_on_c, 0, 62, 0
1, 40680, Note_on_c, 0, 48, 53
1, 40788, Note_on_c, 0, 36, 0
1, 40800, Tempo, 414594
1, 40800, Note_on_c, 0, 48, 0
1, 40800, Note_on_c, 0, 63, 61
1, 40800, Note_on_c, 0, 72, 61
1, 40800, Note_on_c, 0, 36, 55
1, 40890, Note_on_c, 0, 72, 0
1, 40890, Note_on_c, 0, 63, 0
1, 40920, Note_on_c, 0, 48, 50
1, 41028, Note_on_c, 0, 36, 0
1, 41040, Tempo, 389737
1, 41040, Note_on_c, 0, 48, 0
1, 41040, Note_on_c, 0, 64, 55
1, 41040, Note_on_c, 0, 72, 55
1, 41040, Note_on_c, 0, 36, 53
1, 41109, Control_c, 0, 64, 127
1, 41160, Note_on_c, 0, 48, 47
1, 41268, Note_on_c, 0, 36, 0
1, 41280, Note_on_c, 0, 48, 0
1, 41280, Note_on_c, 0, 36, 53
1, 41400, Note_on_c, 0, 48, 47
1, 41508, Note_on_c, 0, 36, 0
1, 41520, Note_on_c, 0, 64, 0
1, 41520, Note_on_c, 0, 72, 0
1, 41520, Note_on_c, 0, 48, 0
1, 41520, Note_on_c, 0, 70, 51
1, 41520, Note_on_c, 0, 76, 51
1, 41520, Note_on_c, 0, 36, 44
1, 41555, Control_c, 0, 64, 0
1, 41610, Note_on_c, 0, 76, 0
1, 41610, Note_on_c, 0, 70, 0
1, 41640, Note_on_c, 0, 48, 40
1, 41748, Note_on_c, 0, 36, 0
1, 41760, Note_on_c, 0, 48, 0
1, 41760, Note_on_c, 0, 68, 53
1, 41760, Note_on_c, 0, 77, 53
1, 41760, Note_on_c, 0, 36, 43
1, 41850, Note_on_c, 0, 77, 0
1, 41850, Note_on_c, 0, 68, 0
1, 41880, Note_on_c, 0, 48, 45
1, 41988, Note_on_c, 0, 36, 0
1, 42000, Tempo, 385852
1, 42000, Note_on_c, 0, 48, 0
1, 42000, Note_on_c, 0, 76, 55
1, 42000, Note_on_c, 0, 79, 55
1, 42000, Note_on_c, 0, 36, 46
1, 42090, Note_on_c, 0, 79, 0
1, 42090, Note_on_c, 0, 76, 0
1, 42120, Note_on_c, 0, 48, 47
1, 42228, Note_on_c, 0, 36, 0
1, 42240, Note_on_c, 0, 48, 0
1, 42240, Note_on_c, 0, 77, 57
1, 42240, Note_on_c, 0, 80, 57
1, 42240, Note_on_c, 0, 36, 48
1, 42330, Note_on_c, 0, 80, 0
1, 42330, Note_on_c, 0, 77, 0
1, 42360, Note_on_c, 0, 48, 50
1, 42468, Note_on_c, 0, 36, 0
1, 42480, Note_on_c, 0, 48, 0
1, 42480, Note_on_c, 0, 74, 59
1, 42480, Note_on_c, 0, 83, 59
1, 42480, Note_on_c, 0, 36, 51
1, 42570, Note_on_c, 0, 83, 0
1, 42570, Note_on_c, 0, 74, 0
1, 42600, Note_on_c, 0, 48, 53
1, 42708, Note_on_c, 0, 36, 0
1, 42720, Tempo, 396720
1, 42720, Note_on_c, 0, 48, 0
1, 42720, Note_on_c, 0, 72, 51
1, 42720, Note_on_c, 0, 79, 61
1, 42720, Note_on_c, 0, 75, 51
1, 42720, Note_on_c, 0, 84, 61
1, 42720, Note_on_c, 0, 36, 55
1, 42805, Control_c, 0, 64, 127
1, 42840, Note_on_c, 0, 48, 50
1, 42948, Note_on_c, 0, 36, 0
1, 42960, Tempo, 392516
1, 42960, Note_on_c, 0, 48, 0
1, 42960, Note_on_c, 0, 36, 53
1, 43080, Note_on_c, 0, 48, 47
1, 43188, Note_on_c, 0, 36, 0
1, 43200, Note_on_c, 0, 79, 0
1, 43200, Note_on_c, 0, 84, 0
1, 43200, Note_on_c, 0, 72, 0
1, 43200, Note_on_c, 0, 48, 0
1, 43200, Note_on_c, 0, 75, 0
1, 43200, Note_on_c, 0, 67, 53
1, 43200, Note_on_c, 0, 71, 53
1, 43200, Note_on_c, 0, 77, 63
1, 43200, Note_on_c, 0, 79, 63
1, 43200, Note_on_c, 0, 38, 55
1, 43211, Control_c, 0, 64, 0
1, 43320, Note_on_c, 0, 50, 50
1, 43334, Control_c, 0, 64, 127
1, 43428, Note_on_c, 0, 38, 0
1, 43440, Tempo, 403986
1, 43440, Note_on_c, 0, 50, 0
1, 43440, Note_on_c, 0, 38, 55
1, 43560, Note_on_c, 0, 50, 51
1, 43668, Note_on_c, 0, 38, 0
1, 43680, Tempo, 395205
1, 43680, Note_on_c, 0, 71, 0
1, 43680, Note_on_c, 0, 79, 0
1, 43680, Note_on_c, 0, 67, 0
1, 43680, Note_on_c, 0, 50, 0
1, 43680, Note_on_c, 0, 77, 0
1, 43680, Note_on_c, 0, 67, 56
1, 43680, Note_on_c, 0, 72, 56
1, 43680, Note_on_c, 0, 75, 67
1, 43680, Note_on_c, 0, 39, 55
1, 43691, Control_c, 0, 64, 0
1, 43772, Control_c, 0, 64, 127
1, 43800, Note_on_c, 0, 51, 55
1, 43908, Note_on_c, 0, 39, 0
1, 43920, Note_on_c, 0, 51, 0
1, 43920, Note_on_c, 0, 39, 55
1, 44040, Note_on_c, 0, 51, 55
1, 44148, Note_on_c, 0, 39, 0
1, 44160, Note_on_c, 0, 67, 0
1, 44160, Note_on_c, 0, 75, 0
1, 44160, Note_on_c, 0, 72, 0
1, 44160, Note_on_c, 0, 51, 0
1, 44160, Note_on_c, 0, 65, 60
1, 44160, Note_on_c, 0, 68, 60
1, 44160, Note_on_c, 0, 74, 71
1, 44160, Note_on_c, 0, 41, 55
1, 44174, Control_c, 0, 64, 0
1, 44252, Control_c, 0, 64, 127
1, 44280, Note_on_c, 0, 53, 53
1, 44388, Note_on_c, 0, 41, 0
1, 44400, Tempo, 402037
1, 44400, Note_on_c, 0, 53, 0
1, 44400, Note_on_c, 0, 41, 55
1, 44520, Note_on_c, 0, 53, 55
1, 44628, Note_on_c, 0, 41, 0
1, 44640, Note_on_c, 0, 65, 0
1, 44640, Note_on_c, 0, 74, 0
1, 44640, Note_on_c, 0, 68, 0
1, 44640, Note_on_c, 0, 53, 0
1, 44640, Note_on_c, 0, 63, 62
1, 44640, Note_on_c, 0, 67, 74
1, 44640, Note_on_c, 0, 72, 74
1, 44640, Note_on_c, 0, 43, 56
1, 44651, Control_c, 0, 64, 0
1, 44746, Control_c, 0, 64, 127
1, 44760, Note_on_c, 0, 55, 56
1, 44868, Note_on_c, 0, 43, 0
1, 44880, Note_on_c, 0, 55, 0
1, 44880, Note_on_c, 0, 43, 57
1, 45000, Note_on_c, 0, 55, 57
1, 45108, Note_on_c, 0, 43, 0
1, 45120, Note_on_c, 0, 67, 0
1, 45120, Note_on_c, 0, 55, 0
1, 45120, Note_on_c, 0, 66, 74
1, 45120, Note_on_c, 0, 44, 58
1, 45132, Control_c, 0, 64, 0
1, 45233, Control_c, 0, 64, 127
1, 45240, Note_on_c, 0, 56, 59
1, 45348, Note_on_c, 0, 44, 0
1, 45360, Note_on_c, 0, 56, 0
1, 45360, Note_on_c, 0, 44, 59
1, 45480, Note_on_c, 0, 56, 60
1, 45588, Note_on_c, 0, 44, 0
1, 45600, Note_on_c, 0, 66, 0
1, 45600, Note_on_c, 0, 56, 0
1, 45600, Note_on_c, 0, 69, 77
1, 45600, Note_on_c, 0, 42, 60
1, 45617, Control_c, 0, 64, 0
1, 45669, Control_c, 0, 64, 127
1, 45720, Note_on_c, 0, 54, 55
1, 45828, Note_on_c, 0, 42, 0
1, 45840, Note_on_c, 0, 54, 0
1, 45840, Note_on_c, 0, 42, 61
1, 45960, Note_on_c, 0, 54, 55
1, 46068, Note_on_c, 0, 42, 0
1, 46080, Note_on_c, 0, 63, 0
1, 46080, Note_on_c, 0, 69, 0
1, 46080, Note_on_c, 0, 72, 0
1, 46080, Note_on_c, 0, 54, 0
1, 46080, Note_on_c, 0, 62, 62
1, 46080, Note_on_c, 0, 65, 62
1, 46080, Note_on_c, 0, 71, 74
1, 46080, Note_on_c, 0, 43, 58
1, 46096, Control_c, 0, 64, 0
1, 46195, Control_c, 0, 64, 127
1, 46200, Note_on_c, 0, 55, 55
1, 46308, Note_on_c, 0, 43, 0
1, 46320, Note_on_c, 0, 55, 0
1, 46320, Note_on_c, 0, 43, 58
1, 46440, Note_on_c, 0, 55, 55
1, 46548, Note_on_c, 0, 43, 0
1, 46560, Tempo, 410004
1, 46560, Note_on_c, 0, 62, 0
1, 46560, Note_on_c, 0, 71, 0
1, 46560, Note_on_c, 0, 65, 0
1, 46560, Note_on_c, 0, 55, 0
1, 46560, Note_on_c, 0, 60, 67
1, 46560, Note_on_c, 0, 63, 67
1, 46560, Note_on_c, 0, 72, 79
1, 46560, Note_on_c, 0, 36, 48
1, 46568, Control_c, 0, 64, 0
1, 46620, Tempo, 408469
1, 46650, Note_on_c, 0, 72, 0
1, 46650, Note_on_c, 0, 60, 0
1, 46650, Note_on_c, 0, 63, 0
1, 46680, Tempo, 407000
1, 46680, Note_on_c, 0, 48, 45
1, 46740, Tempo, 405488
1, 46788, Note_on_c, 0, 36, 0
1, 46800, Tempo, 403986
1, 46800, Note_on_c, 0, 48, 0
1, 46800, Note_on_c, 0, 60, 67
1, 46800, Note_on_c, 0, 36, 44
1, 46860, Tempo, 402522
1, 46880, Control_c, 0, 64, 127
1, 46920, Tempo, 401070
1, 46920, Note_on_c, 0, 48, 41
1, 46980, Tempo, 399600
1, 47028, Note_on_c, 0, 36, 0
1, 47040, Tempo, 398168
1, 47040, Note_on_c, 0, 48, 0
1, 47040, Note_on_c, 0, 36, 44
1, 47100, Tempo, 396720
1, 47160, Tempo, 395309
1, 47160, Note_on_c, 0, 48, 40
1, 47220, Tempo, 393908
1, 47257, Control_c, 0, 64, 0
1, 47268, Note_on_c, 0, 36, 0
1, 47280, Tempo, 392490
1, 47280, Note_on_c, 0, 48, 0
1, 47280, Note_on_c, 0, 60, 0
1, 47280, Note_on_c, 0, 58, 52
1, 47280, Note_on_c, 0, 64, 52
1, 47280, Note_on_c, 0, 36, 44
1, 47340, Tempo, 391083
1, 47370, Note_on_c, 0, 64, 0
1, 47370, Note_on_c, 0, 58, 0
1, 47400, Tempo, 389737
1, 47400, Note_on_c, 0, 48, 41
1, 47508, Note_on_c, 0, 36, 0
1, 47520, Note_on_c, 0, 48, 0
1, 47520, Note_on_c, 0, 56, 54
1, 47520, Note_on_c, 0, 65, 54
1, 47520, Note_on_c, 0, 36, 44
1, 47610, Note_on_c, 0, 65, 0
1, 47610, Note_on_c, 0, 56, 0
1, 47640, Note_on_c, 0, 48, 46
1, 47748, Note_on_c, 0, 36, 0
1, 47760, Tempo, 384615
1, 47760, Note_on_c, 0, 48, 0
1, 47760, Note_on_c, 0, 64, 55
1, 47760, Note_on_c, 0, 67, 55
1, 47760, Note_on_c, 0, 36, 47
1, 47850, Note_on_c, 0, 67, 0
1, 47850, Note_on_c, 0, 64, 0
1, 47880, Note_on_c, 0, 48, 47
1, 47988, Note_on_c, 0, 36, 0
1, 48000, Note_on_c, 0, 48, 0
1, 48000, Note_on_c, 0, 65, 57
1, 48000, Note_on_c, 0, 68, 57
1, 48000, Note_on_c, 0, 36, 49
1, 48090, Note_on_c, 0, 68, 0
1, 48090, Note_on_c, 0, 65, 0
1, 48120, Note_on_c, 0, 48, 50
1, 48228, Note_on_c, 0, 36, 0
1, 48240, Note_on_c, 0, 48, 0
1, 48240, Note_on_c, 0, 62, 59
1, 48240, Note_on_c, 0, 71, 59
1, 48240, Note_on_c, 0, 36, 51
1, 48330, Note_on_c, 0, 71, 0
1, 48330, Note_on_c, 0, 62, 0
1, 48360, Note_on_c, 0, 48, 53
1, 48468, Note_on_c, 0, 36, 0
1, 48480, Tempo, 414594
1, 48480, Note_on_c, 0, 48, 0
1, 48480, Note_on_c, 0, 63, 61
1, 48480, Note_on_c, 0, 72, 61
1, 48480, Note_on_c, 0, 36, 55
1, 48570, Note_on_c, 0, 72, 0
1, 48570, Note_on_c, 0, 63, 0
1, 48600, Note_on_c, 0, 48, 50
1, 48708, Note_on_c, 0, 36, 0
1, 48720, Tempo, 389737
1, 48720, Note_on_c, 0, 48, 0
1, 48720, Note_on_c, 0, 64, 55
1, 48720, Note_on_c, 0, 72, 55
1, 48720, Note_on_c, 0, 36, 53
1, 48743, Control_c, 0, 64, 127
1, 48840, Note_on_c, 0, 48, 47
1, 48948, Note_on_c, 0, 36, 0
1, 48960, Note_on_c, 0, 48, 0
1, 48960, Note_on_c, 0, 36, 53
1, 49080, Note_on_c, 0, 48, 47
1, 49188, Note_on_c, 0, 36, 0
1, 49200, Note_on_c, 0, 64, 0
1, 49200, Note_on_c, 0, 72, 0
1, 49200, Note_on_c, 0, 48, 0
1, 49200, Note_on_c, 0, 70, 51
1, 49200, Note_on_c, 0, 76, 51
1, 49200, Note_on_c, 0, 36, 44
1, 49200, Control_c, 0, 64, 0
1, 49290, Note_on_c, 0, 76, 0
1, 49290, Note_on_c, 0, 70, 0
1, 49320, Note_on_c, 0, 48, 40
1, 49428, Note_on_c, 0, 36, 0
1, 49440, Note_on_c, 0, 48, 0
1, 49440, Note_on_c, 0, 68, 53
1, 49440, Note_on_c, 0, 77, 53
1, 49440, Note_on_c, 0, 36, 43
1, 49530, Note_on_c, 0, 77, 0
1, 49530, Note_on_c, 0, 68, 0
1, 49560, Note_on_c, 0, 48, 45
1, 49668, Note_on_c, 0, 36, 0
1, 49680, Tempo, 384615
1, 49680, Note_on_c, 0, 48, 0
1, 49680, Note_on_c, 0, 76, 55
1, 49680, Note_on_c, 0, 79, 55
1, 49680, Note_on_c, 0, 36, 46
1, 49770, Note_on_c, 0, 79, 0
1, 49770, Note_on_c, 0, 76, 0
1, 49800, Note_on_c, 0, 48, 47
1, 49908, Note_on_c, 0, 36, 0
1, 49920, Note_on_c, 0, 48, 0
1, 49920, Note_on_c, 0, 77, 57
1, 49920, Note_on_c, 0, 80, 57
1, 49920, Note_on_c, 0, 36, 48
1, 50010, Note_on_c, 0, 80, 0
1, 50010, Note_on_c, 0, 77, 0
1, 50040, Note_on_c, 0, 48, 50
1, 50148, Note_on_c, 0, 36, 0
1, 50160, Tempo, 390879
1, 50160, Note_on_c, 0, 48, 0
1, 50160, Note_on_c, 0, 74, 59
1, 50160, Note_on_c, 0, 83, 59
1, 50160, Note_on_c, 0, 36, 51
1, 50250, Note_on_c, 0, 83, 0
1, 50250, Note_on_c, 0, 74, 0
1, 50280, Note_on_c, 0, 48, 53
1, 50388, Note_on_c, 0, 36, 0
1, 50400, Tempo, 396720
1, 50400, Note_on_c, 0, 48, 0
1, 50400, Note_on_c, 0, 72, 51
1, 50400, Note_on_c, 0, 79, 61
1, 50400, Note_on_c, 0, 75, 51
1, 50400, Note_on_c, 0, 84, 61
1, 50400, Note_on_c, 0, 36, 55
1, 50478, Control_c, 0, 64, 127
1, 50520, Note_on_c, 0, 48, 50
1, 50628, Note_on_c, 0, 36, 0
1, 50640, Tempo, 392516
1, 50640, Note_on_c, 0, 48, 0
1, 50640, Note_on_c, 0, 36, 53
1, 50760, Note_on_c, 0, 48, 47
1, 50868, Note_on_c, 0, 36, 0
1, 50880, Note_on_c, 0, 79, 0
1, 50880, Note_on_c, 0, 84, 0
1, 50880, Note_on_c, 0, 72, 0
1, 50880, Note_on_c, 0, 48, 0
1, 50880, Note_on_c, 0, 75, 0
1, 50880, Note_on_c, 0, 67, 53
1, 50880, Note_on_c, 0, 71, 53
1, 50880, Note_on_c, 0, 77, 63
1, 50880, Note_on_c, 0, 79, 63
1, 50880, Note_on_c, 0, 38, 55
1, 50891, Control_c, 0, 64, 0
1, 51000, Note_on_c, 0, 50, 50
1, 51028, Control_c, 0, 64, 127
1, 51108, Note_on_c, 0, 38, 0
1, 51120, Tempo, 403986
1, 51120, Note_on_c, 0, 50, 0
1, 51120, Note_on_c, 0, 38, 55
1, 51240, Note_on_c, 0, 50, 51
1, 51348, Note_on_c, 0, 38, 0
1, 51360, Tempo, 395205
1, 51360, Note_on_c, 0, 71, 0
1, 51360, Note_on_c, 0, 79, 0
1, 51360, Note_on_c, 0, 67, 0
1, 51360, Note_on_c, 0, 50, 0
1, 51360, Note_on_c, 0, 77, 0
1, 51360, Note_on_c, 0, 67, 56
1, 51360, Note_on_c, 0, 72, 56
1, 51360, Note_on_c, 0, 75, 67
1, 51360, Note_on_c, 0, 39, 55
1, 51369, Control_c, 0, 64, 0
1, 51459, Control_c, 0, 64, 127
1, 51480, Note_on_c, 0, 51, 55
1, 51588, Note_on_c, 0, 39, 0
1, 51600, Note_on_c, 0, 51, 0
1, 51600, Note_on_c, 0, 39, 55
1, 51720, Note_on_c, 0, 51, 55
1, 51828, Note_on_c, 0, 39, 0
1, 51840, Note_on_c, 0, 67, 0
1, 51840, Note_on_c, 0, 75, 0
1, 51840, Note_on_c, 0, 72, 0
1, 51840, Note_on_c, 0, 51, 0
1, 51840, Note_on_c, 0, 65, 60
1, 51840, Note_on_c, 0, 68, 60
1, 51840, Note_on_c, 0, 74, 71
1, 51840, Note_on_c, 0, 41, 55
1, 51854, Control_c, 0, 64, 0
1, 51960, Note_on_c, 0, 53, 53
1, 51960, Control_c, 0, 64, 127
1, 52068, Note_on_c, 0, 41, 0
1, 52080, Tempo, 402037
1, 52080, Note_on_c, 0, 53, 0
1, 52080, Note_on_c, 0, 41, 55
1, 52200, Note_on_c, 0, 53, 55
1, 52308, Note_on_c, 0, 41, 0
1, 52320, Note_on_c, 0, 65, 0
1, 52320, Note_on_c, 0, 74, 0
1, 52320, Note_on_c, 0, 68, 0
1, 52320, Note_on_c, 0, 53, 0
1, 52320, Note_on_c, 0, 63, 62
1, 52320, Note_on_c, 0, 67, 74
1, 52320, Note_on_c, 0, 72, 74
1, 52320, Note_on_c, 0, 43, 56
1, 52328, Control_c, 0, 64, 0
1, 52433, Control_c, 0, 64, 127
1, 52440, Note_on_c, 0, 55, 56
1, 52548, Note_on_c, 0, 43, 0
1, 52560, Note_on_c, 0, 55, 0
1, 52560, Note_on_c, 0, 43, 57
1, 52680, Note_on_c, 0, 55, 57
1, 52788, Note_on_c, 0, 43, 0
1, 52800, Note_on_c, 0, 67, 0
1, 52800, Note_on_c, 0, 55, 0
1, 52800, Note_on_c, 0, 66, 74
1, 52800, Note_on_c, 0, 44, 58
1, 52817, Control_c, 0, 64, 0
1, 52899, Control_c, 0, 64, 127
1, 52920, Note_on_c, 0, 56, 59
1, 53028, Note_on_c, 0, 44, 0
1, 53040, Note_on_c, 0, 56, 0
1, 53040, Note_on_c, 0, 44, 59
1, 53160, Note_on_c, 0, 56, 60
1, 53268, Note_on_c, 0, 44, 0
1, 53280, Tempo, 397904
1, 53280, Note_on_c, 0, 66, 0
1, 53280, Note_on_c, 0, 56, 0
1, 53280, Note_on_c, 0, 69, 77
1, 53280, Note_on_c, 0, 42, 60
1, 53287, Control_c, 0, 64, 0
1, 53343, Control_c, 0, 64, 127
1, 53400, Note_on_c, 0, 54, 55
1, 53508, Note_on_c, 0, 42, 0
1, 53520, Note_on_c, 0, 54, 0
1, 53520, Note_on_c, 0, 42, 61
1, 53640, Note_on_c, 0, 54, 55
1, 53748, Note_on_c, 0, 42, 0
1, 53760, Note_on_c, 0, 54, 0
1, 53760, Note_on_c, 0, 42, 58
1, 53880, Note_on_c, 0, 54, 55
1, 53988, Note_on_c, 0, 42, 0
1, 54000, Note_on_c, 0, 54, 0
1, 54000, Note_on_c, 0, 42, 58
1, 54120, Note_on_c, 0, 54, 55
1, 54228, Note_on_c, 0, 42, 0
1, 54240, Tempo, 410565
1, 54240, Note_on_c, 0, 63, 0
1, 54240, Note_on_c, 0, 69, 0
1, 54240, Note_on_c, 0, 72, 0
1, 54240, Note_on_c, 0, 54, 0
1, 54240, Note_on_c, 0, 62, 55
1, 54240, Note_on_c, 0, 67, 55
1, 54240, Note_on_c, 0, 71, 55
1, 54240, Note_on_c, 0, 43, 55
1, 54240, Note_on_c, 0, 55, 55
1, 54249, Control_c, 0, 64, 0
1, 54480, Note_on_c, 0, 55, 0
1, 54480, Note_on_c, 0, 71, 0
1, 54480, Note_on_c, 0, 62, 0
1, 54480, Note_on_c, 0, 67, 0
1, 54480, Note_on_c, 0, 43, 0
1, 54480, Note_on_c, 0, 62, 50
1, 54480, Note_on_c, 0, 59, 50
1, 54572, Control_c, 0, 64, 127
1, 54708, Note_on_c, 0, 59, 0
1, 54708, Note_on_c, 0, 62, 0
1, 54720, Tempo, 397904
1, 54720, Note_on_c, 0, 67, 80
1, 54720, Note_on_c, 0, 79, 80
1, 54720, Note_on_c, 0, 62, 50
1, 54720, Note_on_c, 0, 59, 50
1, 54948, Note_on_c, 0, 59, 0
1, 54948, Note_on_c, 0, 62, 0
1, 54960, Note_on_c, 0, 59, 50
1, 54960, Note_on_c, 0, 62, 50
1, 55188, Note_on_c, 0, 62, 0
1, 55188, Note_on_c, 0, 59, 0
1, 55200, Note_on_c, 0, 55, 50
1, 55208, Control_c, 0, 64, 0
1, 55387, Control_c, 0, 64, 127
1, 55440, Note_on_c, 0, 55, 0
1, 55440, Note_on_c, 0, 79, 0
1, 55440, Note_on_c, 0, 67, 0
1, 55440, Note_on_c, 0, 63, 50
1, 55440, Note_on_c, 0, 60, 50
1, 55668, Note_on_c, 0, 60, 0
1, 55668, Note_on_c, 0, 63, 0
1, 55680, Note_on_c, 0, 67, 80
1, 55680, Note_on_c, 0, 79, 80
1, 55680, Note_on_c, 0, 63, 50
1, 55680, Note_on_c, 0, 60, 50
1, 55908, Note_on_c, 0, 60, 0
1, 55908, Note_on_c, 0, 63, 0
1, 55920, Note_on_c, 0, 63, 50
1, 55920, Note_on_c, 0, 60, 50
1, 56148, Note_on_c, 0, 60, 0
1, 56148, Note_on_c, 0, 63, 0
1, 56160, Tempo, 385852
1, 56160, Note_on_c, 0, 65, 50
1, 56160, Note_on_c, 0, 62, 50
1, 56169, Control_c, 0, 64, 0
1, 56280, Note_on_c, 0, 79, 0
1, 56280, Note_on_c, 0, 67, 0
1, 56280, Note_on_c, 0, 77, 70
1, 56400, Note_on_c, 0, 77, 0
1, 56400, Note_on_c, 0, 65, 0
1, 56400, Note_on_c, 0, 62, 0
1, 56400, Note_on_c, 0, 74, 69
1, 56520, Note_on_c, 0, 74, 0
1, 56520, Note_on_c, 0, 71, 69
1, 56640, Note_on_c, 0, 71, 0
1, 56640, Note_on_c, 0, 67, 68
1, 56760, Note_on_c, 0, 67, 0
1, 56760, Note_on_c, 0, 65, 67
1, 56880, Note_on_c, 0, 65, 0
1, 56880, Note_on_c, 0, 62, 66
1, 57000, Note_on_c, 0, 62, 0
1, 57000, Note_on_c, 0, 59, 65
1, 57120, Tempo, 385852
1, 57120, Note_on_c, 0, 59, 0
1, 57120, Note_on_c, 0, 60, 65
1, 57220, Tempo, 387097
1, 57240, Note_on_c, 0, 60, 0
1, 57240, Note_on_c, 0, 63, 64
1, 57300, Tempo, 388350
1, 57360, Note_on_c, 0, 63, 0
1, 57360, Note_on_c, 0, 60, 65
1, 57380, Tempo, 389610
1, 57480, Tempo, 390879
1, 57480, Note_on_c, 0, 60, 0
1, 57480, Note_on_c, 0, 55, 65
1, 57560, Tempo, 392157
1, 57600, Note_on_c, 0, 55, 0
1, 57600, Note_on_c, 0, 54, 64
1, 57600, Note_on_c, 0, 32, 55
1, 57640, Tempo, 393443
1, 57720, Tempo, 394737
1, 57720, Note_on_c, 0, 32, 0
1, 57720, Note_on_c, 0, 54, 0
1, 57720, Note_on_c, 0, 60, 64
1, 57720, Note_on_c, 0, 44, 55
1, 57820, Tempo, 396040
1, 57840, Note_on_c, 0, 44, 0
1, 57840, Note_on_c, 0, 60, 0
1, 57840, Note_on_c, 0, 56, 63
1, 57840, Note_on_c, 0, 32, 55
1, 57900, Tempo, 397351
1, 57960, Note_on_c, 0, 32, 0
1, 57960, Note_on_c, 0, 56, 0
1, 57960, Note_on_c, 0, 54, 65
1, 57960, Note_on_c, 0, 44, 55
1, 57980, Tempo, 398671
1, 58060, Tempo, 400000
1, 58080, Tempo, 410565
1, 58080, Note_on_c, 0, 44, 0
1, 58080, Note_on_c, 0, 54, 0
1, 58080, Note_on_c, 0, 55, 67
1, 58080, Note_on_c, 0, 31, 50
1, 58080, Note_on_c, 0, 43, 50
1, 58275, Control_c, 0, 64, 127
1, 58320, Note_on_c, 0, 43, 0
1, 58320, Note_on_c, 0, 31, 0
1, 58320, Note_on_c, 0, 55, 0
1, 58320, Note_on_c, 0, 62, 50
1, 58320, Note_on_c, 0, 59, 50
1, 58548, Note_on_c, 0, 59, 0
1, 58548, Note_on_c, 0, 62, 0
1, 58560, Tempo, 397904
1, 58560, Note_on_c, 0, 67, 80
1, 58560, Note_on_c, 0, 79, 80
1, 58560, Note_on_c, 0, 62, 50
1, 58560, Note_on_c, 0, 59, 50
1, 58788, Note_on_c, 0, 59, 0
1, 58788, Note_on_c, 0, 62, 0
1, 58800, Note_on_c, 0, 59, 50
1, 58800, Note_on_c, 0, 62, 50
1, 59028, Note_on_c, 0, 62, 0
1, 59028, Note_on_c, 0, 59, 0
1, 59040, Note_on_c, 0, 55, 50
1, 59051, Control_c, 0, 64, 0
1, 59214, Control_c, 0, 64, 127
1, 59280, Note_on_c, 0, 55, 0
1, 59280, Note_on_c, 0, 79, 0
1, 59280, Note_on_c, 0, 67, 0
1, 59280, Note_on_c, 0, 63, 50
1, 59280, Note_on_c, 0, 60, 50
1, 59508, Note_on_c, 0, 60, 0
1, 59508, Note_on_c, 0, 63, 0
1, 59520, Note_on_c, 0, 67, 80
1, 59520, Note_on_c, 0, 79, 80
1, 59520, Note_on_c, 0, 63, 50
1, 59520, Note_on_c, 0, 60, 50
1, 59748, Note_on_c, 0, 60, 0
1, 59748, Note_on_c, 0, 63, 0
1, 59760, Note_on_c, 0, 63, 50
1, 59760, Note_on_c, 0, 60, 50
1, 59988, Note_on_c, 0, 60, 0
1, 59988, Note_on_c, 0, 63, 0
1, 60000, Tempo, 383387
1, 60000, Note_on_c, 0, 65, 50
1, 60000, Note_on_c, 0, 62, 50
1, 60007, Control_c, 0, 64, 0
1, 60120, Note_on_c, 0, 79, 0
1, 60120, Note_on_c, 0, 67, 0
1, 60120, Note_on_c, 0, 77, 72
1, 60240, Note_on_c, 0, 77, 0
1, 60240, Note_on_c, 0, 65, 0
1, 60240, Note_on_c, 0, 62, 0
1, 60240, Note_on_c, 0, 74, 71
1, 60360, Note_on_c, 0, 74, 0
1, 60360, Note_on_c, 0, 71, 70
1, 60480, Note_on_c, 0, 71, 0
1, 60480, Note_on_c, 0, 67, 69
1, 60600, Note_on_c, 0, 67, 0
1, 60600, Note_on_c, 0, 65, 68
1, 60720, Note_on_c, 0, 65, 0
1, 60720, Note_on_c, 0, 62, 67
1, 60840, Note_on_c, 0, 62, 0
1, 60840, Note_on_c, 0, 59, 66
1, 60920, Tempo, 380952
1, 60960, Note_on_c, 0, 59, 0
1, 60960, Note_on_c, 0, 60, 65
1, 61000, Tempo, 382166
1, 61060, Tempo, 383387
1, 61080, Note_on_c, 0, 60, 0
1, 61080, Note_on_c, 0, 63, 64
1, 61120, Tempo, 384615
1, 61180, Tempo, 385852
1, 61200, Note_on_c, 0, 63, 0
1, 61200, Note_on_c, 0, 60, 64
1, 61240, Tempo, 387097
1, 61320, Tempo, 388350
1, 61320, Note_on_c, 0, 60, 0
1, 61320, Note_on_c, 0, 55, 67
1, 61380, Tempo, 389610
1, 61440, Tempo, 390879
1, 61440, Note_on_c, 0, 55, 0
1, 61440, Note_on_c, 0, 54, 66
1, 61440, Note_on_c, 0, 32, 55
1, 61500, Tempo, 392157
1, 61560, Tempo, 393443
1, 61560, Note_on_c, 0, 54, 0
1, 61560, Note_on_c, 0, 60, 64
1, 61560, Note_on_c, 0, 44, 55
1, 61640, Tempo, 394737
1, 61668, Note_on_c, 0, 32, 0
1, 61680, Note_on_c, 0, 44, 0
1, 61680, Note_on_c, 0, 60, 0
1, 61680, Note_on_c, 0, 56, 62
1, 61680, Note_on_c, 0, 32, 55
1, 61700, Tempo, 396040
1, 61760, Tempo, 397351
1, 61800, Note_on_c, 0, 56, 0
1, 61800, Note_on_c, 0, 54, 60
1, 61800, Note_on_c, 0, 44, 49
1, 61820, Tempo, 398671
1, 61880, Tempo, 400000
1, 61908, Note_on_c, 0, 32, 0
1, 61920, Note_on_c, 0, 44, 0
1, 61920, Note_on_c, 0, 54, 0
1, 61920, Note_on_c, 0, 55, 67
1, 61920, Note_on_c, 0, 31, 50
1, 62040, Note_on_c, 0, 43, 51
1, 62148, Note_on_c, 0, 31, 0
1, 62160, Tempo, 391211
1, 62160, Note_on_c, 0, 43, 0
1, 62160, Note_on_c, 0, 55, 0
1, 62160, Note_on_c, 0, 66, 67
1, 62160, Note_on_c, 0, 31, 51
1, 62250, Note_on_c, 0, 66, 0
1, 62280, Note_on_c, 0, 43, 52
1, 62388, Note_on_c, 0, 31, 0
1, 62400, Tempo, 384615
1, 62400, Note_on_c, 0, 43, 0
1, 62400, Note_on_c, 0, 67, 69
1, 62400, Note_on_c, 0, 31, 53
1, 62490, Note_on_c, 0, 67, 0
1, 62520, Note_on_c, 0, 43, 54
1, 62628, Note_on_c, 0, 31, 0
1, 62640, Note_on_c, 0, 43, 0
1, 62640, Note_on_c, 0, 66, 71
1, 62640, Note_on_c, 0, 72, 71
1, 62640, Note_on_c, 0, 31, 55
1, 62730, Note_on_c, 0, 72, 0
1, 62730, Note_on_c, 0, 66, 0
1, 62760, Note_on_c, 0, 43, 56
1, 62868, Note_on_c, 0, 31, 0
1, 62880, Note_on_c, 0, 43, 0
1, 62880, Note_on_c, 0, 67, 73
1, 62880, Note_on_c, 0, 71, 73
1, 62880, Note_on_c, 0, 31, 57
1, 62970, Note_on_c, 0, 71, 0
1, 62970, Note_on_c, 0, 67, 0
1, 63000, Note_on_c, 0, 43, 58
1, 63108, Note_on_c, 0, 31, 0
1, 63120, Note_on_c, 0, 43, 0
1, 63120, Note_on_c, 0, 72, 75
1, 63120, Note_on_c, 0, 78, 75
1, 63120, Note_on_c, 0, 31, 59
1, 63210, Note_on_c, 0, 78, 0
1, 63210, Note_on_c, 0, 72, 0
1, 63240, Note_on_c, 0, 43, 60
1, 63348, Note_on_c, 0, 31, 0
1, 63360, Note_on_c, 0, 43, 0
1, 63360, Note_on_c, 0, 71, 77
1, 63360, Note_on_c, 0, 79, 77
1, 63360, Note_on_c, 0, 31, 61
1, 63450, Note_on_c, 0, 79, 0
1, 63450, Note_on_c, 0, 71, 0
1, 63480, Note_on_c, 0, 43, 61
1, 63588, Note_on_c, 0, 31, 0
1, 63600, Note_on_c, 0, 43, 0
1, 63600, Note_on_c, 0, 84, 79
1, 63600, Note_on_c, 0, 78, 79
1, 63600, Note_on_c, 0, 31, 62
1, 63690, Note_on_c, 0, 78, 0
1, 63690, Note_on_c, 0, 84, 0
1, 63720, Note_on_c, 0, 43, 63
1, 63828, Note_on_c, 0, 31, 0
1, 63840, Tempo, 390879
1, 63840, Note_on_c, 0, 43, 0
1, 63840, Note_on_c, 0, 83, 81
1, 63840, Note_on_c, 0, 79, 81
1, 63840, Note_on_c, 0, 31, 64
1, 63960, Note_on_c, 0, 79, 0
1, 63960, Note_on_c, 0, 83, 0
1, 63960, Note_on_c, 0, 43, 55
1, 64068, Note_on_c, 0, 31, 0
1, 64080, Note_on_c, 0, 43, 0
1, 64080, Note_on_c, 0, 31, 61
1, 64200, Note_on_c, 0, 43, 55
1, 64308, Note_on_c, 0, 31, 0
1, 64320, Note_on_c, 0, 43, 0
1, 64320, Note_on_c, 0, 31, 61
1, 64440, Note_on_c, 0, 43, 55
1, 64548, Note_on_c, 0, 31, 0
1, 64560, Note_on_c, 0, 43, 0
1, 64560, Note_on_c, 0, 31, 60
1, 64680, Note_on_c, 0, 43, 55
1, 64788, Note_on_c, 0, 31, 0
1, 64800, Tempo, 393856
1, 64800, Note_on_c, 0, 43, 0
1, 64800, Note_on_c, 0, 58, 81
1, 64800, Note_on_c, 0, 61, 81
1, 64800, Note_on_c, 0, 63, 84
1, 64800, Note_on_c, 0, 31, 64
1, 64920, Note_on_c, 0, 43, 55
1, 65028, Note_on_c, 0, 31, 0
1, 65040, Note_on_c, 0, 43, 0
1, 65040, Note_on_c, 0, 31, 61
1, 65160, Note_on_c, 0, 43, 55
1, 65268, Note_on_c, 0, 31, 0
1, 65280, Note_on_c, 0, 43, 0
1, 65280, Note_on_c, 0, 31, 61
1, 65400, Note_on_c, 0, 43, 55
1, 65508, Note_on_c, 0, 31, 0
1, 65520, Note_on_c, 0, 43, 0
1, 65520, Note_on_c, 0, 31, 60
1, 65640, Note_on_c, 0, 43, 55
1, 65748, Note_on_c, 0, 31, 0
1, 65760, Tempo, 410565
1, 65760, Note_on_c, 0, 58, 0
1, 65760, Note_on_c, 0, 61, 0
1, 65760, Note_on_c, 0, 43, 0
1, 65760, Note_on_c, 0, 60, 67
1, 65760, Note_on_c, 0, 32, 50
1, 65880, Note_on_c, 0, 44, 51
1, 65988, Note_on_c, 0, 32, 0
1, 66000, Tempo, 391211
1, 66000, Note_on_c, 0, 63, 0
1, 66000, Note_on_c, 0, 60, 0
1, 66000, Note_on_c, 0, 44, 0
1, 66000, Note_on_c, 0, 73, 67
1, 66000, Note_on_c, 0, 32, 51
1, 66090, Note_on_c, 0, 73, 0
1, 66120, Note_on_c, 0, 44, 52
1, 66228, Note_on_c, 0, 32, 0
1, 66240, Tempo, 384615
1, 66240, Note_on_c, 0, 44, 0
1, 66240, Note_on_c, 0, 72, 69
1, 66240, Note_on_c, 0, 32, 53
1, 66330, Note_on_c, 0, 72, 0
1, 66360, Note_on_c, 0, 44, 54
1, 66468, Note_on_c, 0, 32, 0
1, 66480, Note_on_c, 0, 44, 0
1, 66480, Note_on_c, 0, 73, 71
1, 66480, Note_on_c, 0, 79, 71
1, 66480, Note_on_c, 0, 32, 55
1, 66570, Note_on_c, 0, 79, 0
1, 66570, Note_on_c, 0, 73, 0
1, 66600, Note_on_c, 0, 44, 56
1, 66708, Note_on_c, 0, 32, 0
1, 66720, Note_on_c, 0, 44, 0
1, 66720, Note_on_c, 0, 72, 73
1, 66720, Note_on_c, 0, 80, 73
1, 66720, Note_on_c, 0, 32, 57
1, 66810, Note_on_c, 0, 80, 0
1, 66810, Note_on_c, 0, 72, 0
1, 66840, Note_on_c, 0, 44, 58
1, 66948, Note_on_c, 0, 32, 0
1, 66960, Note_on_c, 0, 44, 0
1, 66960, Note_on_c, 0, 79, 75
1, 66960, Note_on_c, 0, 85, 75
1, 66960, Note_on_c, 0, 32, 59
1, 67050, Note_on_c, 0, 85, 0
1, 67050, Note_on_c, 0, 79, 0
1, 67080, Note_on_c, 0, 44, 60
1, 67188, Note_on_c, 0, 32, 0
1, 67200, Note_on_c, 0, 44, 0
1, 67200, Note_on_c, 0, 80, 77
1, 67200, Note_on_c, 0, 84, 77
1, 67200, Note_on_c, 0, 32, 61
1, 67290, Note_on_c, 0, 84, 0
1, 67290, Note_on_c, 0, 80, 0
1, 67320, Note_on_c, 0, 44, 61
1, 67428, Note_on_c, 0, 32, 0
1, 67440, Note_on_c, 0, 44, 0
1, 67440, Note_on_c, 0, 85, 79
1, 67440, Note_on_c, 0, 79, 79
1, 67440, Note_on_c, 0, 32, 62
1, 67530, Note_on_c, 0, 79, 0
1, 67530, Note_on_c, 0, 85, 0
1, 67560, Note_on_c, 0, 44, 63
1, 67668, Note_on_c, 0, 32, 0
1, 67680, Tempo, 390879
1, 67680, Note_on_c, 0, 44, 0
1, 67680, Note_on_c, 0, 84, 81
1, 67680, Note_on_c, 0, 80, 81
1, 67680, Note_on_c, 0, 32, 64
1, 67800, Note_on_c, 0, 80, 0
1, 67800, Note_on_c, 0, 84, 0
1, 67800, Note_on_c, 0, 44, 55
1, 67908, Note_on_c, 0, 32, 0
1, 67920, Note_on_c, 0, 44, 0
1, 67920, Note_on_c, 0, 32, 61
1, 68040, Note_on_c, 0, 44, 55
1, 68148, Note_on_c, 0, 32, 0
1, 68160, Note_on_c, 0, 44, 0
1, 68160, Note_on_c, 0, 32, 61
1, 68280, Note_on_c, 0, 44, 55
1, 68388, Note_on_c, 0, 32, 0
1, 68400, Note_on_c, 0, 44, 0
1, 68400, Note_on_c, 0, 32, 60
1, 68520, Note_on_c, 0, 44, 55
1, 68628, Note_on_c, 0, 32, 0
1, 68640, Tempo, 393856
1, 68640, Note_on_c, 0, 44, 0
1, 68640, Note_on_c, 0, 60, 81
1, 68640, Note_on_c, 0, 63, 81
1, 68640, Note_on_c, 0, 66, 84
1, 68640, Note_on_c, 0, 33, 64
1, 68760, Note_on_c, 0, 45, 55
1, 68868, Note_on_c, 0, 33, 0
1, 68880, Note_on_c, 0, 45, 0
1, 68880, Note_on_c, 0, 33, 61
1, 69000, Note_on_c, 0, 45, 55
1, 69108, Note_on_c, 0, 33, 0
1, 69120, Note_on_c, 0, 45, 0
1, 69120, Note_on_c, 0, 33, 61
1, 69240, Note_on_c, 0, 45, 55
1, 69348, Note_on_c, 0, 33, 0
1, 69360, Note_on_c, 0, 45, 0
1, 69360, Note_on_c, 0, 33, 60
1, 69480, Note_on_c, 0, 45, 55
1, 69588, Note_on_c, 0, 33, 0
1, 69600, Tempo, 410565
1, 69600, Note_on_c, 0, 60, 0
1, 69600, Note_on_c, 0, 66, 0
1, 69600, Note_on_c, 0, 63, 0
1, 69600, Note_on_c, 0, 45, 0
1, 69600, Note_on_c, 0, 62, 67
1, 69600, Note_on_c, 0, 65, 67
1, 69600, Note_on_c, 0, 34, 50
1, 69720, Note_on_c, 0, 46, 51
1, 69828, Note_on_c, 0, 34, 0
1, 69840, Tempo, 384615
1, 69840, Note_on_c, 0, 62, 0
1, 69840, Note_on_c, 0, 65, 0
1, 69840, Note_on_c, 0, 46, 0
1, 69840, Note_on_c, 0, 69, 62
1, 69840, Note_on_c, 0, 75, 67
1, 69840, Note_on_c, 0, 34, 51
1, 69930, Note_on_c, 0, 75, 0
1, 69930, Note_on_c, 0, 69, 0
1, 69960, Note_on_c, 0, 46, 52
1, 70068, Note_on_c, 0, 34, 0
1, 70080, Tempo, 383387
1, 70080, Note_on_c, 0, 46, 0
1, 70080, Note_on_c, 0, 70, 65
1, 70080, Note_on_c, 0, 74, 69
1, 70080, Note_on_c, 0, 34, 53
1, 70170, Note_on_c, 0, 74, 0
1, 70170, Note_on_c, 0, 70, 0
1, 70200, Note_on_c, 0, 46, 54
1, 70308, Note_on_c, 0, 34, 0
1, 70320, Note_on_c, 0, 46, 0
1, 70320, Note_on_c, 0, 75, 71
1, 70320, Note_on_c, 0, 81, 71
1, 70320, Note_on_c, 0, 34, 55
1, 70410, Note_on_c, 0, 81, 0
1, 70410, Note_on_c, 0, 75, 0
1, 70440, Note_on_c, 0, 46, 56
1, 70548, Note_on_c, 0, 34, 0
1, 70560, Note_on_c, 0, 46, 0
1, 70560, Note_on_c, 0, 74, 73
1, 70560, Note_on_c, 0, 82, 73
1, 70560, Note_on_c, 0, 34, 57
1, 70650, Note_on_c, 0, 82, 0
1, 70650, Note_on_c, 0, 74, 0
1, 70680, Note_on_c, 0, 46, 58
1, 70788, Note_on_c, 0, 34, 0
1, 70800, Note_on_c, 0, 46, 0
1, 70800, Note_on_c, 0, 81, 75
1, 70800, Note_on_c, 0, 87, 75
1, 70800, Note_on_c, 0, 34, 59
1, 70890, Note_on_c, 0, 87, 0
1, 70890, Note_on_c, 0, 81, 0
1, 70920, Note_on_c, 0, 46, 60
1, 71028, Note_on_c, 0, 34, 0
1, 71040, Note_on_c, 0, 46, 0
1, 71040, Note_on_c, 0, 82, 77
1, 71040, Note_on_c, 0, 86, 77
1, 71040, Note_on_c, 0, 34, 61
1, 71130, Note_on_c, 0, 86, 0
1, 71130, Note_on_c, 0, 82, 0
1, 71160, Note_on_c, 0, 46, 61
1, 71268, Note_on_c, 0, 34, 0
1, 71280, Note_on_c, 0, 46, 0
1, 71280, Note_on_c, 0, 87, 79
1, 71280, Note_on_c, 0, 81, 79
1, 71280, Note_on_c, 0, 34, 62
1, 71370, Note_on_c, 0, 81, 0
1, 71370, Note_on_c, 0, 87, 0
1, 71400, Note_on_c, 0, 46, 63
1, 71508, Note_on_c, 0, 34, 0
1, 71520, Tempo, 390879
1, 71520, Note_on_c, 0, 46, 0
1, 71520, Note_on_c, 0, 86, 81
1, 71520, Note_on_c, 0, 82, 81
1, 71520, Note_on_c, 0, 34, 64
1, 71640, Note_on_c, 0, 82, 0
1, 71640, Note_on_c, 0, 86, 0
1, 71640, Note_on_c, 0, 46, 55
1, 71748, Note_on_c, 0, 34, 0
1, 71760, Note_on_c, 0, 46, 0
1, 71760, Note_on_c, 0, 34, 61
1, 71880, Note_on_c, 0, 46, 55
1, 71988, Note_on_c, 0, 34, 0
1, 72000, Tempo, 385852
1, 72000, Note_on_c, 0, 46, 0
1, 72000, Note_on_c, 0, 75, 81
1, 72000, Note_on_c, 0, 81, 81
1, 72000, Note_on_c, 0, 34, 61
1, 72120, Note_on_c, 0, 46, 55
1, 72228, Note_on_c, 0, 34, 0
1, 72240, Note_on_c, 0, 46, 0
1, 72240, Note_on_c, 0, 34, 60
1, 72360, Note_on_c, 0, 46, 55
1, 72468, Note_on_c, 0, 34, 0
1, 72480, Note_on_c, 0, 75, 0
1, 72480, Note_on_c, 0, 81, 0
1, 72480, Note_on_c, 0, 46, 0
1, 72480, Note_on_c, 0, 74, 81
1, 72480, Note_on_c, 0, 82, 81
1, 72480, Note_on_c, 0, 34, 64
1, 72500, Tempo, 390879
1, 72600, Note_on_c, 0, 46, 55
1, 72708, Note_on_c, 0, 34, 0
1, 72720, Note_on_c, 0, 74, 0
1, 72720, Note_on_c, 0, 82, 0
1, 72720, Note_on_c, 0, 46, 0
1, 72720, Note_on_c, 0, 34, 61
1, 72840, Note_on_c, 0, 46, 55
1, 72948, Note_on_c, 0, 34, 0
1, 72960, Tempo, 384615
1, 72960, Note_on_c, 0, 46, 0
1, 72960, Note_on_c, 0, 69, 81
1, 72960, Note_on_c, 0, 75, 81
1, 72960, Note_on_c, 0, 34, 61
1, 73080, Note_on_c, 0, 46, 55
1, 73188, Note_on_c, 0, 34, 0
1, 73200, Note_on_c, 0, 46, 0
1, 73200, Note_on_c, 0, 34, 60
1, 73320, Note_on_c, 0, 46, 55
1, 73428, Note_on_c, 0, 34, 0
1, 73440, Tempo, 390879
1, 73440, Note_on_c, 0, 69, 0
1, 73440, Note_on_c, 0, 75, 0
1, 73440, Note_on_c, 0, 46, 0
1, 73440, Note_on_c, 0, 70, 81
1, 73440, Note_on_c, 0, 74, 81
1, 73440, Note_on_c, 0, 34, 64
1, 73560, Note_on_c, 0, 46, 55
1, 73668, Note_on_c, 0, 34, 0
1, 73680, Note_on_c, 0, 70, 0
1, 73680, Note_on_c, 0, 74, 0
1, 73680, Note_on_c, 0, 46, 0
1, 73680, Note_on_c, 0, 34, 61
1, 73800, Note_on_c, 0, 46, 55
1, 73908, Note_on_c, 0, 34, 0
1, 73920, Tempo, 387097
1, 73920, Note_on_c, 0, 46, 0
1, 73920, Note_on_c, 0, 63, 81
1, 73920, Note_on_c, 0, 69, 81
1, 73920, Note_on_c, 0, 34, 61
1, 74040, Note_on_c, 0, 46, 55
1, 74148, Note_on_c, 0, 34, 0
1, 74160, Note_on_c, 0, 46, 0
1, 74160, Note_on_c, 0, 34, 60
1, 74280, Note_on_c, 0, 46, 55
1, 74388, Note_on_c, 0, 34, 0
1, 74400, Tempo, 390879
1, 74400, Note_on_c, 0, 63, 0
1, 74400, Note_on_c, 0, 69, 0
1, 74400, Note_on_c, 0, 46, 0
1, 74400, Note_on_c, 0, 62, 81
1, 74400, Note_on_c, 0, 70, 81
1, 74400, Note_on_c, 0, 34, 64
1, 74420, Tempo, 389610
1, 74520, Note_on_c, 0, 46, 55
1, 74628, Note_on_c, 0, 34, 0
1, 74640, Note_on_c, 0, 62, 0
1, 74640, Note_on_c, 0, 70, 0
1, 74640, Note_on_c, 0, 46, 0
1, 74640, Note_on_c, 0, 34, 61
1, 74760, Note_on_c, 0, 46, 55
1, 74868, Note_on_c, 0, 34, 0
1, 74880, Note_on_c, 0, 46, 0
1, 74880, Note_on_c, 0, 57, 81
1, 74880, Note_on_c, 0, 63, 81
1, 74880, Note_on_c, 0, 34, 61
1, 75000, Note_on_c, 0, 46, 55
1, 75108, Note_on_c, 0, 34, 0
1, 75120, Note_on_c, 0, 46, 0
1, 75120, Note_on_c, 0, 34, 60
1, 75240, Note_on_c, 0, 46, 55
1, 75348, Note_on_c, 0, 34, 0
1, 75360, Tempo, 404040
1, 75360, Note_on_c, 0, 57, 0
1, 75360, Note_on_c, 0, 63, 0
1, 75360, Note_on_c, 0, 46, 0
1, 75360, Note_on_c, 0, 58, 81
1, 75360, Note_on_c, 0, 62, 81
1, 75360, Note_on_c, 0, 46, 55
1, 75360, Note_on_c, 0, 34, 64
1, 75600, Note_on_c, 0, 34, 0
1, 75600, Note_on_c, 0, 58, 0
1, 75600, Note_on_c, 0, 62, 0
1, 75600, Note_on_c, 0, 46, 0
1, 75600, Note_on_c, 0, 57, 50
1, 75840, Note_on_c, 0, 57, 0
1, 75840, Note_on_c, 0, 58, 59
1, 76080, Note_on_c, 0, 58, 0
1, 76080, Note_on_c, 0, 57, 56
1, 76320, Note_on_c, 0, 57, 0
1, 76320, Note_on_c, 0, 58, 57
1, 76560, Note_on_c, 0, 58, 0
1, 76560, Note_on_c, 0, 57, 49
1, 76800, Note_on_c, 0, 57, 0
1, 76800, Note_on_c, 0, 58, 57
1, 77040, Note_on_c, 0, 58, 0
1, 77040, Note_on_c, 0, 57, 51
1, 77280, Tempo, 409556
1, 77280, Note_on_c, 0, 57, 0
1, 77280, Note_on_c, 0, 58, 44
1, 77520, Tempo, 402685
1, 77520, Note_on_c, 0, 46, 55
1, 77520, Note_on_c, 0, 63, 38
1, 77520, Note_on_c, 0, 66, 38
1, 77640, Note_on_c, 0, 46, 0
1, 77748, Note_on_c, 0, 66, 0
1, 77748, Note_on_c, 0, 63, 0
1, 77760, Tempo, 390879
1, 77760, Note_on_c, 0, 51, 58
1, 77760, Note_on_c, 0, 63, 38
1, 77760, Note_on_c, 0, 66, 38
1, 77880, Note_on_c, 0, 51, 0
1, 77988, Note_on_c, 0, 66, 0
1, 77988, Note_on_c, 0, 63, 0
1, 78000, Note_on_c, 0, 53, 61
1, 78000, Note_on_c, 0, 63, 38
1, 78000, Note_on_c, 0, 66, 38
1, 78120, Note_on_c, 0, 53, 0
1, 78228, Note_on_c, 0, 66, 0
1, 78228, Note_on_c, 0, 63, 0
1, 78240, Tempo, 408163
1, 78240, Note_on_c, 0, 58, 0
1, 78240, Note_on_c, 0, 54, 64
1, 78240, Note_on_c, 0, 58, 44
1, 78360, Note_on_c, 0, 54, 0
1, 78480, Note_on_c, 0, 70, 62
1, 78480, Note_on_c, 0, 63, 38
1, 78480, Note_on_c, 0, 66, 38
1, 78600, Note_on_c, 0, 70, 0
1, 78708, Note_on_c, 0, 66, 0
1, 78708, Note_on_c, 0, 63, 0
1, 78720, Tempo, 398671
1, 78720, Note_on_c, 0, 75, 64
1, 78720, Note_on_c, 0, 63, 38
1, 78720, Note_on_c, 0, 66, 38
1, 78840, Note_on_c, 0, 75, 0
1, 78948, Note_on_c, 0, 66, 0
1, 78948, Note_on_c, 0, 63, 0
1, 78960, Note_on_c, 0, 77, 66
1, 78960, Note_on_c, 0, 63, 38
1, 78960, Note_on_c, 0, 66, 38
1, 79080, Note_on_c, 0, 77, 0
1, 79140, Note_on_c, 0, 70, 65
1, 79188, Note_on_c, 0, 66, 0
1, 79188, Note_on_c, 0, 63, 0
1, 79200, Tempo, 405405
1, 79200, Note_on_c, 0, 58, 0
1, 79200, Note_on_c, 0, 70, 0
1, 79200, Note_on_c, 0, 78, 75
1, 79200, Note_on_c, 0, 58, 44
1, 79440, Tempo, 400000
1, 79440, Note_on_c, 0, 63, 38
1, 79440, Note_on_c, 0, 66, 38
1, 79668, Note_on_c, 0, 66, 0
1, 79668, Note_on_c, 0, 63, 0
1, 79680, Note_on_c, 0, 63, 38
1, 79680, Note_on_c, 0, 66, 38
1, 79908, Note_on_c, 0, 66, 0
1, 79908, Note_on_c, 0, 63, 0
1, 79920, Tempo, 406780
1, 79920, Note_on_c, 0, 78, 0
1, 79920, Note_on_c, 0, 75, 63
1, 79920, Note_on_c, 0, 63, 38
1, 79920, Note_on_c, 0, 66, 38
1, 80100, Note_on_c, 0, 70, 60
1, 80148, Note_on_c, 0, 66, 0
1, 80148, Note_on_c, 0, 63, 0
1, 80160, Note_on_c, 0, 58, 0
1, 80160, Note_on_c, 0, 75, 0
1, 80160, Note_on_c, 0, 70, 0
1, 80160, Note_on_c, 0, 78, 71
1, 80160, Note_on_c, 0, 58, 44
1, 80400, Tempo, 400000
1, 80400, Note_on_c, 0, 63, 38
1, 80400, Note_on_c, 0, 66, 38
1, 80628, Note_on_c, 0, 66, 0
1, 80628, Note_on_c, 0, 63, 0
1, 80640, Note_on_c, 0, 63, 38
1, 80640, Note_on_c, 0, 66, 38
1, 80868, Note_on_c, 0, 66, 0
1, 80868, Note_on_c, 0, 63, 0
1, 80880, Tempo, 404040
1, 80880, Note_on_c, 0, 78, 0
1, 80880, Note_on_c, 0, 75, 58
1, 80880, Note_on_c, 0, 63, 38
1, 80880, Note_on_c, 0, 66, 38
1, 81120, Tempo, 415225
1, 81120, Note_on_c, 0, 66, 0
1, 81120, Note_on_c, 0, 58, 0
1, 81120, Note_on_c, 0, 75, 0
1, 81120, Note_on_c, 0, 63, 0
1, 81120, Note_on_c, 0, 74, 60
1, 81120, Note_on_c, 0, 58, 44
1, 81360, Tempo, 400000
1, 81360, Note_on_c, 0, 74, 0
1, 81360, Note_on_c, 0, 46, 57
1, 81360, Note_on_c, 0, 65, 38
1, 81360, Note_on_c, 0, 68, 38
1, 81480, Note_on_c, 0, 46, 0
1, 81588, Note_on_c, 0, 68, 0
1, 81588, Note_on_c, 0, 65, 0
1, 81600, Tempo, 390879
1, 81600, Note_on_c, 0, 53, 60
1, 81600, Note_on_c, 0, 65, 38
1, 81600, Note_on_c, 0, 68, 38
1, 81720, Note_on_c, 0, 53, 0
1, 81828, Note_on_c, 0, 68, 0
1, 81828, Note_on_c, 0, 65, 0
1, 81840, Note_on_c, 0, 54, 63
1, 81840, Note_on_c, 0, 65, 38
1, 81840, Note_on_c, 0, 68, 38
1, 81960, Note_on_c, 0, 54, 0
1, 82068, Note_on_c, 0, 68, 0
1, 82068, Note_on_c, 0, 65, 0
1, 82080, Tempo, 408163
1, 82080, Note_on_c, 0, 58, 0
1, 82080, Note_on_c, 0, 56, 66
1, 82080, Note_on_c, 0, 58, 44
1, 82200, Note_on_c, 0, 56, 0
1, 82320, Note_on_c, 0, 70, 59
1, 82320, Note_on_c, 0, 65, 38
1, 82320, Note_on_c, 0, 68, 38
1, 82548, Note_on_c, 0, 68, 0
1, 82548, Note_on_c, 0, 65, 0
1, 82560, Tempo, 400000
1, 82560, Note_on_c, 0, 70, 0
1, 82560, Note_on_c, 0, 80, 62
1, 82560, Note_on_c, 0, 65, 38
1, 82560, Note_on_c, 0, 68, 38
1, 82788, Note_on_c, 0, 68, 0
1, 82788, Note_on_c, 0, 65, 0
1, 82800, Note_on_c, 0, 80, 0
1, 82800, Note_on_c, 0, 78, 65
1, 82800, Note_on_c, 0, 65, 38
1, 82800, Note_on_c, 0, 68, 38
1, 83028, Note_on_c, 0, 68, 0
1, 83028, Note_on_c, 0, 65, 0
1, 83040, Tempo, 406780
1, 83040, Note_on_c, 0, 78, 0
1, 83040, Note_on_c, 0, 58, 0
1, 83040, Note_on_c, 0, 78, 60
1, 83040, Note_on_c, 0, 58, 44
1, 83100, Note_on_c, 0, 78, 0
1, 83100, Note_on_c, 0, 80, 60
1, 83160, Note_on_c, 0, 80, 0
1, 83160, Note_on_c, 0, 78, 67
1, 83280, Note_on_c, 0, 78, 0
1, 83280, Note_on_c, 0, 77, 60
1, 83280, Note_on_c, 0, 65, 38
1, 83280, Note_on_c, 0, 68, 38
1, 83508, Note_on_c, 0, 68, 0
1, 83508, Note_on_c, 0, 65, 0
1, 83520, Note_on_c, 0, 77, 0
1, 83520, Note_on_c, 0, 77, 60
1, 83520, Note_on_c, 0, 65, 38
1, 83520, Note_on_c, 0, 68, 38
1, 83580, Note_on_c, 0, 77, 0
1, 83580, Note_on_c, 0, 78, 60
1, 83640, Note_on_c, 0, 78, 0
1, 83640, Note_on_c, 0, 77, 67
1, 83748, Note_on_c, 0, 68, 0
1, 83748, Note_on_c, 0, 65, 0
1, 83760, Note_on_c, 0, 77, 0
1, 83760, Note_on_c, 0, 75, 60
1, 83760, Note_on_c, 0, 65, 38
1, 83760, Note_on_c, 0, 68, 38
1, 83988, Note_on_c, 0, 68, 0
1, 83988, Note_on_c, 0, 65, 0
1, 84000, Note_on_c, 0, 75, 0
1, 84000, Note_on_c, 0, 58, 0
1, 84000, Note_on_c, 0, 75, 60
1, 84000, Note_on_c, 0, 58, 44
1, 84060, Note_on_c, 0, 75, 0
1, 84060, Note_on_c, 0, 77, 60
1, 84120, Note_on_c, 0, 77, 0
1, 84120, Note_on_c, 0, 75, 66
1, 84240, Note_on_c, 0, 75, 0
1, 84240, Note_on_c, 0, 74, 60
1, 84240, Note_on_c, 0, 65, 38
1, 84240, Note_on_c, 0, 68, 38
1, 84468, Note_on_c, 0, 68, 0
1, 84468, Note_on_c, 0, 65, 0
1, 84480, Note_on_c, 0, 74, 0
1, 84480, Note_on_c, 0, 72, 60
1, 84480, Note_on_c, 0, 65, 38
1, 84480, Note_on_c, 0, 68, 38
1, 84600, Note_on_c, 0, 72, 0
1, 84708, Note_on_c, 0, 68, 0
1, 84708, Note_on_c, 0, 65, 0
1, 84720, Note_on_c, 0, 74, 60
1, 84720, Note_on_c, 0, 65, 38
1, 84720, Note_on_c, 0, 68, 38
1, 84840, Note_on_c, 0, 74, 0
1, 84948, Note_on_c, 0, 68, 0
1, 84948, Note_on_c, 0, 65, 0
1, 84960, Tempo, 416667
1, 84960, Note_on_c, 0, 58, 0
1, 84960, Note_on_c, 0, 75, 60
1, 84960, Note_on_c, 0, 58, 44
1, 85200, Tempo, 400000
1, 85200, Note_on_c, 0, 75, 0
1, 85200, Note_on_c, 0, 46, 55
1, 85200, Note_on_c, 0, 63, 38
1, 85200, Note_on_c, 0, 66, 38
1, 85320, Note_on_c, 0, 46, 0
1, 85428, Note_on_c, 0, 66, 0
1, 85428, Note_on_c, 0, 63, 0
1, 85440, Tempo, 390879
1, 85440, Note_on_c, 0, 51, 58
1, 85440, Note_on_c, 0, 63, 38
1, 85440, Note_on_c, 0, 66, 38
1, 85560, Note_on_c, 0, 51, 0
1, 85668, Note_on_c, 0, 66, 0
1, 85668, Note_on_c, 0, 63, 0
1, 85680, Note_on_c, 0, 53, 61
1, 85680, Note_on_c, 0, 63, 38
1, 85680, Note_on_c, 0, 66, 38
1, 85800, Note_on_c, 0, 53, 0
1, 85908, Note_on_c, 0, 66, 0
1, 85908, Note_on_c, 0, 63, 0
1, 85920, Tempo, 408163
1, 85920, Note_on_c, 0, 58, 0
1, 85920, Note_on_c, 0, 54, 64
1, 85920, Note_on_c, 0, 58, 44
1, 86040, Note_on_c, 0, 54, 0
1, 86160, Note_on_c, 0, 70, 62
1, 86160, Note_on_c, 0, 63, 38
1, 86160, Note_on_c, 0, 66, 38
1, 86280, Note_on_c, 0, 70, 0
1, 86388, Note_on_c, 0, 66, 0
1, 86388, Note_on_c, 0, 63, 0
1, 86400, Tempo, 398671
1, 86400, Note_on_c, 0, 75, 64
1, 86400, Note_on_c, 0, 63, 38
1, 86400, Note_on_c, 0, 66, 38
1, 86520, Note_on_c, 0, 75, 0
1, 86628, Note_on_c, 0, 66, 0
1, 86628, Note_on_c, 0, 63, 0
1, 86640, Note_on_c, 0, 77, 66
1, 86640, Note_on_c, 0, 63, 38
1, 86640, Note_on_c, 0, 66, 38
1, 86760, Note_on_c, 0, 77, 0
1, 86820, Note_on_c, 0, 70, 65
1, 86868, Note_on_c, 0, 66, 0
1, 86868, Note_on_c, 0, 63, 0
1, 86880, Tempo, 405405
1, 86880, Note_on_c, 0, 58, 0
1, 86880, Note_on_c, 0, 70, 0
1, 86880, Note_on_c, 0, 78, 75
1, 86880, Note_on_c, 0, 58, 44
1, 87120, Tempo, 400000
1, 87120, Note_on_c, 0, 63, 38
1, 87120, Note_on_c, 0, 66, 38
1, 87348, Note_on_c, 0, 66, 0
1, 87348, Note_on_c, 0, 63, 0
1, 87360, Note_on_c, 0, 63, 38
1, 87360, Note_on_c, 0, 66, 38
1, 87588, Note_on_c, 0, 66, 0
1, 87588, Note_on_c, 0, 63, 0
1, 87600, Tempo, 406780
1, 87600, Note_on_c, 0, 78, 0
1, 87600, Note_on_c, 0, 75, 63
1, 87600, Note_on_c, 0, 63, 38
1, 87600, Note_on_c, 0, 66, 38
1, 87780, Note_on_c, 0, 70, 60
1, 87828, Note_on_c, 0, 66, 0
1, 87828, Note_on_c, 0, 63, 0
1, 87840, Note_on_c, 0, 58, 0
1, 87840, Note_on_c, 0, 75, 0
1, 87840, Note_on_c, 0, 70, 0
1, 87840, Note_on_c, 0, 78, 71
1, 87840, Note_on_c, 0, 58, 44
1, 88080, Tempo, 400000
1, 88080, Note_on_c, 0, 63, 38
1, 88080, Note_on_c, 0, 66, 38
1, 88308, Note_on_c, 0, 66, 0
1, 88308, Note_on_c, 0, 63, 0
1, 88320, Note_on_c, 0, 63, 38
1, 88320, Note_on_c, 0, 66, 38
1, 88548, Note_on_c, 0, 66, 0
1, 88548, Note_on_c, 0, 63, 0
1, 88560, Tempo, 404040
1, 88560, Note_on_c, 0, 78, 0
1, 88560, Note_on_c, 0, 75, 58
1, 88560, Note_on_c, 0, 63, 38
1, 88560, Note_on_c, 0, 66, 38
1, 88788, Note_on_c, 0, 66, 0
1, 88788, Note_on_c, 0, 63, 0
1, 88800, Tempo, 416667
1, 88800, Note_on_c, 0, 75, 0
1, 88800, Note_on_c, 0, 58, 0
1, 88800, Note_on_c, 0, 72, 60
1, 88800, Note_on_c, 0, 56, 44
1, 89040, Tempo, 396040
1, 89040, Note_on_c, 0, 72, 0
1, 89040, Note_on_c, 0, 44, 57
1, 89040, Note_on_c, 0, 63, 38
1, 89040, Note_on_c, 0, 66, 38
1, 89160, Note_on_c, 0, 44, 0
1, 89268, Note_on_c, 0, 66, 0
1, 89268, Note_on_c, 0, 63, 0
1, 89280, Tempo, 388350
1, 89280, Note_on_c, 0, 51, 60
1, 89280, Note_on_c, 0, 63, 38
1, 89280, Note_on_c, 0, 66, 38
1, 89400, Note_on_c, 0, 51, 0
1, 89508, Note_on_c, 0, 66, 0
1, 89508, Note_on_c, 0, 63, 0
1, 89520, Note_on_c, 0, 53, 63
1, 89520, Note_on_c, 0, 63, 38
1, 89520, Note_on_c, 0, 66, 38
1, 89640, Note_on_c, 0, 53, 0
1, 89748, Note_on_c, 0, 66, 0
1, 89748, Note_on_c, 0, 63, 0
1, 89760, Tempo, 408163
1, 89760, Note_on_c, 0, 56, 0
1, 89760, Note_on_c, 0, 54, 66
1, 89760, Note_on_c, 0, 56, 44
1, 89880, Note_on_c, 0, 54, 0
1, 90000, Note_on_c, 0, 68, 59
1, 90000, Note_on_c, 0, 63, 38
1, 90000, Note_on_c, 0, 66, 38
1, 90228, Note_on_c, 0, 66, 0
1, 90228, Note_on_c, 0, 63, 0
1, 90240, Tempo, 400000
1, 90240, Note_on_c, 0, 68, 0
1, 90240, Note_on_c, 0, 78, 62
1, 90240, Note_on_c, 0, 63, 38
1, 90240, Note_on_c, 0, 66, 38
1, 90468, Note_on_c, 0, 66, 0
1, 90468, Note_on_c, 0, 63, 0
1, 90480, Note_on_c, 0, 78, 0
1, 90480, Note_on_c, 0, 77, 65
1, 90480, Note_on_c, 0, 63, 38
1, 90480, Note_on_c, 0, 66, 38
1, 90708, Note_on_c, 0, 66, 0
1, 90708, Note_on_c, 0, 63, 0
1, 90720, Tempo, 406780
1, 90720, Note_on_c, 0, 77, 0
1, 90720, Note_on_c, 0, 56, 0
1, 90720, Note_on_c, 0, 77, 60
1, 90720, Note_on_c, 0, 56, 44
1, 90780, Note_on_c, 0, 77, 0
1, 90780, Note_on_c, 0, 78, 60
1, 90840, Note_on_c, 0, 78, 0
1, 90840, Note_on_c, 0, 77, 67
1, 90960, Note_on_c, 0, 77, 0
1, 90960, Note_on_c, 0, 75, 60
1, 90960, Note_on_c, 0, 63, 38
1, 90960, Note_on_c, 0, 66, 38
1, 91188, Note_on_c, 0, 66, 0
1, 91188, Note_on_c, 0, 63, 0
1, 91200, Note_on_c, 0, 75, 0
1, 91200, Note_on_c, 0, 75, 60
1, 91200, Note_on_c, 0, 63, 38
1, 91200, Note_on_c, 0, 66, 38
1, 91260, Note_on_c, 0, 75, 0
1, 91260, Note_on_c, 0, 77, 60
1, 91320, Note_on_c, 0, 77, 0
1, 91320, Note_on_c, 0, 75, 67
1, 91428, Note_on_c, 0, 66, 0
1, 91428, Note_on_c, 0, 63, 0
1, 91440, Note_on_c, 0, 75, 0
1, 91440, Note_on_c, 0, 73, 60
1, 91440, Note_on_c, 0, 63, 38
1, 91440, Note_on_c, 0, 66, 38
1, 91668, Note_on_c, 0, 66, 0
1, 91668, Note_on_c, 0, 63, 0
1, 91680, Note_on_c, 0, 73, 0
1, 91680, Note_on_c, 0, 56, 0
1, 91680, Note_on_c, 0, 73, 60
1, 91680, Note_on_c, 0, 56, 44
1, 91740, Note_on_c, 0, 73, 0
1, 91740, Note_on_c, 0, 75, 60
1, 91800, Note_on_c, 0, 75, 0
1, 91800, Note_on_c, 0, 73, 66
1, 91920, Note_on_c, 0, 73, 0
1, 91920, Note_on_c, 0, 72, 60
1, 91920, Note_on_c, 0, 63, 38
1, 91920, Note_on_c, 0, 66, 38
1, 92148, Note_on_c, 0, 66, 0
1, 92148, Note_on_c, 0, 63, 0
1, 92160, Note_on_c, 0, 72, 0
1, 92160, Note_on_c, 0, 70, 60
1, 92160, Note_on_c, 0, 63, 38
1, 92160, Note_on_c, 0, 66, 38
1, 92280, Note_on_c, 0, 70, 0
1, 92388, Note_on_c, 0, 66, 0
1, 92388, Note_on_c, 0, 63, 0
1, 92400, Note_on_c, 0, 72, 60
1, 92400, Note_on_c, 0, 63, 38
1, 92400, Note_on_c, 0, 66, 38
1, 92520, Note_on_c, 0, 72, 0
1, 92628, Note_on_c, 0, 66, 0
1, 92628, Note_on_c, 0, 63, 0
1, 92640, Tempo, 409556
1, 92640, Note_on_c, 0, 56, 0
1, 92640, Note_on_c, 0, 73, 60
1, 92640, Note_on_c, 0, 56, 44
1, 92880, Tempo, 401338
1, 92880, Note_on_c, 0, 73, 0
1, 92880, Note_on_c, 0, 44, 55
1, 92880, Note_on_c, 0, 61, 38
1, 92880, Note_on_c, 0, 65, 38
1, 93000, Note_on_c, 0, 44, 0
1, 93108, Note_on_c, 0, 65, 0
1, 93108, Note_on_c, 0, 61, 0
1, 93120, Tempo, 393443
1, 93120, Note_on_c, 0, 49, 58
1, 93120, Note_on_c, 0, 61, 38
1, 93120, Note_on_c, 0, 65, 38
1, 93240, Note_on_c, 0, 49, 0
1, 93348, Note_on_c, 0, 65, 0
1, 93348, Note_on_c, 0, 61, 0
1, 93360, Note_on_c, 0, 51, 61
1, 93360, Note_on_c, 0, 61, 38
1, 93360, Note_on_c, 0, 65, 38
1, 93480, Note_on_c, 0, 51, 0
1, 93588, Note_on_c, 0, 65, 0
1, 93588, Note_on_c, 0, 61, 0
1, 93600, Tempo, 408163
1, 93600, Note_on_c, 0, 56, 0
1, 93600, Note_on_c, 0, 53, 64
1, 93600, Note_on_c, 0, 56, 44
1, 93720, Note_on_c, 0, 53, 0
1, 93840, Note_on_c, 0, 68, 62
1, 93840, Note_on_c, 0, 61, 38
1, 93840, Note_on_c, 0, 65, 38
1, 93960, Note_on_c, 0, 68, 0
1, 94068, Note_on_c, 0, 65, 0
1, 94068, Note_on_c, 0, 61, 0
1, 94080, Tempo, 398671
1, 94080, Note_on_c, 0, 73, 64
1, 94080, Note_on_c, 0, 61, 38
1, 94080, Note_on_c, 0, 65, 38
1, 94200, Note_on_c, 0, 73, 0
1, 94308, Note_on_c, 0, 65, 0
1, 94308, Note_on_c, 0, 61, 0
1, 94320, Note_on_c, 0, 75, 66
1, 94320, Note_on_c, 0, 61, 38
1, 94320, Note_on_c, 0, 65, 38
1, 94440, Note_on_c, 0, 75, 0
1, 94500, Note_on_c, 0, 68, 65
1, 94548, Note_on_c, 0, 65, 0
1, 94548, Note_on_c, 0, 61, 0
1, 94560, Tempo, 405405
1, 94560, Note_on_c, 0, 56, 0
1, 94560, Note_on_c, 0, 68, 0
1, 94560, Note_on_c, 0, 77, 75
1, 94560, Note_on_c, 0, 56, 44
1, 94800, Tempo, 400000
1, 94800, Note_on_c, 0, 61, 38
1, 94800, Note_on_c, 0, 65, 38
1, 95028, Note_on_c, 0, 65, 0
1, 95028, Note_on_c, 0, 61, 0
1, 95040, Note_on_c, 0, 61, 38
1, 95040, Note_on_c, 0, 65, 38
1, 95268, Note_on_c, 0, 65, 0
1, 95268, Note_on_c, 0, 61, 0
1, 95280, Tempo, 406780
1, 95280, Note_on_c, 0, 77, 0
1, 95280, Note_on_c, 0, 73, 63
1, 95280, Note_on_c, 0, 61, 38
1, 95280, Note_on_c, 0, 65, 38
1, 95460, Note_on_c, 0, 68, 60
1, 95508, Note_on_c, 0, 65, 0
1, 95508, Note_on_c, 0, 61, 0
1, 95520, Note_on_c, 0, 56, 0
1, 95520, Note_on_c, 0, 73, 0
1, 95520, Note_on_c, 0, 68, 0
1, 95520, Note_on_c, 0, 77, 71
1, 95520, Note_on_c, 0, 56, 44
1, 95760, Tempo, 400000
1, 95760, Note_on_c, 0, 61, 38
1, 95760, Note_on_c, 0, 65, 38
1, 95988, Note_on_c, 0, 65, 0
1, 95988, Note_on_c, 0, 61, 0
1, 96000, Note_on_c, 0, 61, 38
1, 96000, Note_on_c, 0, 65, 38
1, 96228, Note_on_c, 0, 65, 0
1, 96228, Note_on_c, 0, 61, 0
1, 96240, Tempo, 404040
1, 96240, Note_on_c, 0, 77, 0
1, 96240, Note_on_c, 0, 73, 58
1, 96240, Note_on_c, 0, 61, 38
1, 96240, Note_on_c, 0, 65, 38
1, 96468, Note_on_c, 0, 65, 0
1, 96468, Note_on_c, 0, 61, 0
1, 96480, Tempo, 413793
1, 96480, Note_on_c, 0, 73, 0
1, 96480, Note_on_c, 0, 56, 0
1, 96480, Note_on_c, 0, 72, 60
1, 96480, Note_on_c, 0, 56, 44
1, 96720, Tempo, 397351
1, 96720, Note_on_c, 0, 72, 0
1, 96720, Note_on_c, 0, 44, 57
1, 96720, Note_on_c, 0, 63, 38
1, 96720, Note_on_c, 0, 66, 38
1, 96840, Note_on_c, 0, 44, 0
1, 96948, Note_on_c, 0, 66, 0
1, 96948, Note_on_c, 0, 63, 0
1, 96960, Tempo, 389610
1, 96960, Note_on_c, 0, 51, 60
1, 96960, Note_on_c, 0, 63, 38
1, 96960, Note_on_c, 0, 66, 38
1, 97080, Note_on_c, 0, 51, 0
1, 97188, Note_on_c, 0, 66, 0
1, 97188, Note_on_c, 0, 63, 0
1, 97200, Note_on_c, 0, 53, 63
1, 97200, Note_on_c, 0, 63, 38
1, 97200, Note_on_c, 0, 66, 38
1, 97320, Note_on_c, 0, 53, 0
1, 97428, Note_on_c, 0, 66, 0
1, 97428, Note_on_c, 0, 63, 0
1, 97440, Tempo, 408163
1, 97440, Note_on_c, 0, 56, 0
1, 97440, Note_on_c, 0, 54, 66
1, 97440, Note_on_c, 0, 56, 44
1, 97560, Note_on_c, 0, 54, 0
1, 97680, Note_on_c, 0, 68, 59
1, 97680, Note_on_c, 0, 63, 38
1, 97680, Note_on_c, 0, 66, 38
1, 97908, Note_on_c, 0, 66, 0
1, 97908, Note_on_c, 0, 63, 0
1, 97920, Tempo, 400000
1, 97920, Note_on_c, 0, 68, 0
1, 97920, Note_on_c, 0, 78, 62
1, 97920, Note_on_c, 0, 63, 38
1, 97920, Note_on_c, 0, 66, 38
1, 98148, Note_on_c, 0, 66, 0
1, 98148, Note_on_c, 0, 63, 0
1, 98160, Note_on_c, 0, 78, 0
1, 98160, Note_on_c, 0, 77, 65
1, 98160, Note_on_c, 0, 63, 38
1, 98160, Note_on_c, 0, 66, 38
1, 98388, Note_on_c, 0, 66, 0
1, 98388, Note_on_c, 0, 63, 0
1, 98400, Tempo, 406780
1, 98400, Note_on_c, 0, 77, 0
1, 98400, Note_on_c, 0, 56, 0
1, 98400, Note_on_c, 0, 77, 60
1, 98400, Note_on_c, 0, 56, 44
1, 98460, Note_on_c, 0, 77, 0
1, 98460, Note_on_c, 0, 78, 60
1, 98520, Note_on_c, 0, 78, 0
1, 98520, Note_on_c, 0, 77, 67
1, 98640, Note_on_c, 0, 77, 0
1, 98640, Note_on_c, 0, 75, 60
1, 98640, Note_on_c, 0, 63, 38
1, 98640, Note_on_c, 0, 66, 38
1, 98868, Note_on_c, 0, 66, 0
1, 98868, Note_on_c, 0, 63, 0
1, 98880, Note_on_c, 0, 75, 0
1, 98880, Note_on_c, 0, 75, 60
1, 98880, Note_on_c, 0, 63, 38
1, 98880, Note_on_c, 0, 66, 38
1, 98940, Note_on_c, 0, 75, 0
1, 98940, Note_on_c, 0, 77, 60
1, 99000, Note_on_c, 0, 77, 0
1, 99000, Note_on_c, 0, 75, 67
1, 99108, Note_on_c, 0, 66, 0
1, 99108, Note_on_c, 0, 63, 0
1, 99120, Note_on_c, 0, 75, 0
1, 99120, Note_on_c, 0, 73, 60
1, 99120, Note_on_c, 0, 63, 38
1, 99120, Note_on_c, 0, 66, 38
1, 99348, Note_on_c, 0, 66, 0
1, 99348, Note_on_c, 0, 63, 0
1, 99360, Note_on_c, 0, 73, 0
1, 99360, Note_on_c, 0, 56, 0
1, 99360, Note_on_c, 0, 73, 60
1, 99360, Note_on_c, 0, 56, 44
1, 99420, Note_on_c, 0, 73, 0
1, 99420, Note_on_c, 0, 75, 60
1, 99480, Note_on_c, 0, 75, 0
1, 99480, Note_on_c, 0, 73, 66
1, 99600, Note_on_c, 0, 73, 0
1, 99600, Note_on_c, 0, 72, 60
1, 99600, Note_on_c, 0, 63, 38
1, 99600, Note_on_c, 0, 66, 38
1, 99828, Note_on_c, 0, 66, 0
1, 99828, Note_on_c, 0, 63, 0
1, 99840, Note_on_c, 0, 72, 0
1, 99840, Note_on_c, 0, 70, 60
1, 99840, Note_on_c, 0, 63, 38
1, 99840, Note_on_c, 0, 66, 38
1, 99960, Note_on_c, 0, 70, 0
1, 100068, Note_on_c, 0, 66, 0
1, 100068, Note_on_c, 0, 63, 0
1, 100080, Note_on_c, 0, 72, 57
1, 100080, Note_on_c, 0, 63, 38
1, 100080, Note_on_c, 0, 66, 38
1, 100200, Note_on_c, 0, 72, 0
1, 100308, Note_on_c, 0, 66, 0
1, 100308, Note_on_c, 0, 63, 0
1, 100320, Tempo, 409556
1, 100320, Note_on_c, 0, 56, 0
1, 100320, Note_on_c, 0, 73, 60
1, 100320, Note_on_c, 0, 61, 54
1, 100560, Tempo, 400000
1, 100560, Note_on_c, 0, 73, 0
1, 100560, Note_on_c, 0, 49, 73
1, 100560, Note_on_c, 0, 65, 53
1, 100560, Note_on_c, 0, 68, 53
1, 100800, Tempo, 394737
1, 100800, Note_on_c, 0, 68, 0
1, 100800, Note_on_c, 0, 61, 0
1, 100800, Note_on_c, 0, 49, 0
1, 100800, Note_on_c, 0, 65, 0
1, 100800, Note_on_c, 0, 56, 77
1, 100800, Note_on_c, 0, 59, 60
1, 101040, Tempo, 410959
1, 101040, Note_on_c, 0, 56, 0
1, 101040, Note_on_c, 0, 47, 73
1, 101040, Note_on_c, 0, 65, 53
1, 101040, Note_on_c, 0, 68, 53
1, 101160, Note_on_c, 0, 47, 0
1, 101280, Note_on_c, 0, 59, 0
1, 101280, Note_on_c, 0, 65, 0
1, 101280, Note_on_c, 0, 68, 0
1, 101280, Note_on_c, 0, 46, 77
1, 101280, Note_on_c, 0, 58, 53
1, 101400, Note_on_c, 0, 46, 0
1, 101520, Note_on_c, 0, 70, 59
1, 101520, Note_on_c, 0, 65, 38
1, 101520, Note_on_c, 0, 68, 38
1, 101748, Note_on_c, 0, 68, 0
1, 101748, Note_on_c, 0, 65, 0
1, 101760, Tempo, 400000
1, 101760, Note_on_c, 0, 70, 0
1, 101760, Note_on_c, 0, 80, 62
1, 101760, Note_on_c, 0, 65, 38
1, 101760, Note_on_c, 0, 68, 38
1, 101988, Note_on_c, 0, 68, 0
1, 101988, Note_on_c, 0, 65, 0
1, 102000, Note_on_c, 0, 80, 0
1, 102000, Note_on_c, 0, 78, 65
1, 102000, Note_on_c, 0, 65, 38
1, 102000, Note_on_c, 0, 68, 38
1, 102228, Note_on_c, 0, 68, 0
1, 102228, Note_on_c, 0, 65, 0
1, 102240, Tempo, 406780
1, 102240, Note_on_c, 0, 78, 0
1, 102240, Note_on_c, 0, 58, 0
1, 102240, Note_on_c, 0, 78, 60
1, 102240, Note_on_c, 0, 58, 44
1, 102300, Note_on_c, 0, 78, 0
1, 102300, Note_on_c, 0, 80, 60
1, 102360, Note_on_c, 0, 80, 0
1, 102360, Note_on_c, 0, 78, 67
1, 102480, Note_on_c, 0, 78, 0
1, 102480, Note_on_c, 0, 77, 60
1, 102480, Note_on_c, 0, 65, 38
1, 102480, Note_on_c, 0, 68, 38
1, 102708, Note_on_c, 0, 68, 0
1, 102708, Note_on_c, 0, 65, 0
1, 102720, Note_on_c, 0, 77, 0
1, 102720, Note_on_c, 0, 77, 60
1, 102720, Note_on_c, 0, 65, 38
1, 102720, Note_on_c, 0, 68, 38
1, 102780, Note_on_c, 0, 77, 0
1, 102780, Note_on_c, 0, 78, 60
1, 102840, Note_on_c, 0, 78, 0
1, 102840, Note_on_c, 0, 77, 67
1, 102948, Note_on_c, 0, 68, 0
1, 102948, Note_on_c, 0, 65, 0
1, 102960, Note_on_c, 0, 77, 0
1, 102960, Note_on_c, 0, 75, 60
1, 102960, Note_on_c, 0, 65, 38
1, 102960, Note_on_c, 0, 68, 38
1, 103188, Note_on_c, 0, 68, 0
1, 103188, Note_on_c, 0, 65, 0
1, 103200, Note_on_c, 0, 75, 0
1, 103200, Note_on_c, 0, 58, 0
1, 103200, Note_on_c, 0, 75, 60
1, 103200, Note_on_c, 0, 58, 44
1, 103260, Note_on_c, 0, 75, 0
1, 103260, Note_on_c, 0, 77, 60
1, 103320, Note_on_c, 0, 77, 0
1, 103320, Note_on_c, 0, 75, 66
1, 103440, Note_on_c, 0, 75, 0
1, 103440, Note_on_c, 0, 74, 60
1, 103440, Note_on_c, 0, 65, 38
1, 103440, Note_on_c, 0, 68, 38
1, 103668, Note_on_c, 0, 68, 0
1, 103668, Note_on_c, 0, 65, 0
1, 103680, Note_on_c, 0, 74, 0
1, 103680, Note_on_c, 0, 72, 60
1, 103680, Note_on_c, 0, 65, 38
1, 103680, Note_on_c, 0, 68, 38
1, 103800, Note_on_c, 0, 72, 0
1, 103908, Note_on_c, 0, 68, 0
1, 103908, Note_on_c, 0, 65, 0
1, 103920, Note_on_c, 0, 74, 57
1, 103920, Note_on_c, 0, 65, 38
1, 103920, Note_on_c, 0, 68, 38
1, 104040, Note_on_c, 0, 74, 0
1, 104148, Note_on_c, 0, 68, 0
1, 104148, Note_on_c, 0, 65, 0
1, 104160, Tempo, 419580
1, 104160, Note_on_c, 0, 58, 0
1, 104160, Note_on_c, 0, 75, 60
1, 104160, Note_on_c, 0, 63, 54
1, 104400, Tempo, 402685
1, 104400, Note_on_c, 0, 75, 0
1, 104400, Note_on_c, 0, 51, 73
1, 104400, Note_on_c, 0, 66, 53
1, 104400, Note_on_c, 0, 70, 53
1, 104640, Tempo, 396040
1, 104640, Note_on_c, 0, 70, 0
1, 104640, Note_on_c, 0, 63, 0
1, 104640, Note_on_c, 0, 51, 0
1, 104640, Note_on_c, 0, 66, 0
1, 104640, Note_on_c, 0, 58, 77
1, 104640, Note_on_c, 0, 61, 60
1, 104880, Tempo, 410959
1, 104880, Note_on_c, 0, 58, 0
1, 104880, Note_on_c, 0, 49, 73
1, 104880, Note_on_c, 0, 65, 53
1, 104880, Note_on_c, 0, 70, 53
1, 105000, Note_on_c, 0, 49, 0
1, 105120, Note_on_c, 0, 61, 0
1, 105120, Note_on_c, 0, 65, 0
1, 105120, Note_on_c, 0, 70, 0
1, 105120, Note_on_c, 0, 48, 77
1, 105120, Note_on_c, 0, 60, 53
1, 105240, Note_on_c, 0, 48, 0
1, 105360, Note_on_c, 0, 72, 59
1, 105360, Note_on_c, 0, 67, 38
1, 105360, Note_on_c, 0, 70, 38
1, 105588, Note_on_c, 0, 70, 0
1, 105588, Note_on_c, 0, 67, 0
1, 105600, Tempo, 400000
1, 105600, Note_on_c, 0, 72, 0
1, 105600, Note_on_c, 0, 82, 62
1, 105600, Note_on_c, 0, 67, 38
1, 105600, Note_on_c, 0, 70, 38
1, 105828, Note_on_c, 0, 70, 0
1, 105828, Note_on_c, 0, 67, 0
1, 105840, Note_on_c, 0, 82, 0
1, 105840, Note_on_c, 0, 80, 65
1, 105840, Note_on_c, 0, 67, 38
1, 105840, Note_on_c, 0, 70, 38
1, 106068, Note_on_c, 0, 70, 0
1, 106068, Note_on_c, 0, 67, 0
1, 106080, Tempo, 406780
1, 106080, Note_on_c, 0, 80, 0
1, 106080, Note_on_c, 0, 60, 0
1, 106080, Note_on_c, 0, 80, 60
1, 106080, Note_on_c, 0, 60, 44
1, 106140, Note_on_c, 0, 80, 0
1, 106140, Note_on_c, 0, 82, 60
1, 106200, Note_on_c, 0, 82, 0
1, 106200, Note_on_c, 0, 80, 67
1, 106320, Note_on_c, 0, 80, 0
1, 106320, Note_on_c, 0, 79, 60
1, 106320, Note_on_c, 0, 67, 38
1, 106320, Note_on_c, 0, 70, 38
1, 106548, Note_on_c, 0, 70, 0
1, 106548, Note_on_c, 0, 67, 0
1, 106560, Note_on_c, 0, 79, 0
1, 106560, Note_on_c, 0, 79, 60
1, 106560, Note_on_c, 0, 67, 38
1, 106560, Note_on_c, 0, 70, 38
1, 106620, Note_on_c, 0, 79, 0
1, 106620, Note_on_c, 0, 80, 60
1, 106680, Note_on_c, 0, 80, 0
1, 106680, Note_on_c, 0, 79, 67
1, 106788, Note_on_c, 0, 70, 0
1, 106788, Note_on_c, 0, 67, 0
1, 106800, Note_on_c, 0, 79, 0
1, 106800, Note_on_c, 0, 77, 60
1, 106800, Note_on_c, 0, 67, 38
1, 106800, Note_on_c, 0, 70, 38
1, 107028, Note_on_c, 0, 70, 0
1, 107028, Note_on_c, 0, 67, 0
1, 107040, Note_on_c, 0, 77, 0
1, 107040, Note_on_c, 0, 60, 0
1, 107040, Note_on_c, 0, 77, 60
1, 107040, Note_on_c, 0, 60, 44
1, 107100, Note_on_c, 0, 77, 0
1, 107100, Note_on_c, 0, 79, 60
1, 107160, Note_on_c, 0, 79, 0
1, 107160, Note_on_c, 0, 77, 66
1, 107280, Note_on_c, 0, 77, 0
1, 107280, Note_on_c, 0, 76, 60
1, 107280, Note_on_c, 0, 67, 38
1, 107280, Note_on_c, 0, 70, 38
1, 107508, Note_on_c, 0, 70, 0
1, 107508, Note_on_c, 0, 67, 0
1, 107520, Note_on_c, 0, 76, 0
1, 107520, Note_on_c, 0, 74, 60
1, 107520, Note_on_c, 0, 67, 38
1, 107520, Note_on_c, 0, 70, 38
1, 107748, Note_on_c, 0, 70, 0
1, 107748, Note_on_c, 0, 67, 0
1, 107760, Note_on_c, 0, 74, 0
1, 107760, Note_on_c, 0, 76, 57
1, 107760, Note_on_c, 0, 67, 38
1, 107760, Note_on_c, 0, 70, 38
1, 107988, Note_on_c, 0, 70, 0
1, 107988, Note_on_c, 0, 67, 0
1, 108000, Tempo, 406780
1, 108000, Note_on_c, 0, 76, 0
1, 108000, Note_on_c, 0, 60, 0
1, 108000, Note_on_c, 0, 79, 60
1, 108000, Note_on_c, 0, 65, 44
1, 108060, Note_on_c, 0, 79, 0
1, 108060, Note_on_c, 0, 80, 60
1, 108120, Note_on_c, 0, 80, 0
1, 108120, Note_on_c, 0, 79, 67
1, 108240, Note_on_c, 0, 79, 0
1, 108240, Note_on_c, 0, 77, 60
1, 108240, Note_on_c, 0, 68, 38
1, 108240, Note_on_c, 0, 72, 38
1, 108468, Note_on_c, 0, 72, 0
1, 108468, Note_on_c, 0, 68, 0
1, 108480, Note_on_c, 0, 77, 0
1, 108480, Note_on_c, 0, 77, 60
1, 108480, Note_on_c, 0, 68, 38
1, 108480, Note_on_c, 0, 72, 38
1, 108540, Note_on_c, 0, 77, 0
1, 108540, Note_on_c, 0, 79, 60
1, 108600, Note_on_c, 0, 79, 0
1, 108600, Note_on_c, 0, 77, 67
1, 108708, Note_on_c, 0, 72, 0
1, 108708, Note_on_c, 0, 68, 0
1, 108720, Note_on_c, 0, 77, 0
1, 108720, Note_on_c, 0, 75, 60
1, 108720, Note_on_c, 0, 68, 38
1, 108720, Note_on_c, 0, 72, 38
1, 108948, Note_on_c, 0, 72, 0
1, 108948, Note_on_c, 0, 68, 0
1, 108960, Note_on_c, 0, 75, 0
1, 108960, Note_on_c, 0, 65, 0
1, 108960, Note_on_c, 0, 75, 60
1, 108960, Note_on_c, 0, 58, 44
1, 109020, Note_on_c, 0, 75, 0
1, 109020, Note_on_c, 0, 77, 60
1, 109080, Note_on_c, 0, 77, 0
1, 109080, Note_on_c, 0, 75, 66
1, 109200, Note_on_c, 0, 75, 0
1, 109200, Note_on_c, 0, 74, 60
1, 109200, Note_on_c, 0, 65, 38
1, 109200, Note_on_c, 0, 68, 38
1, 109428, Note_on_c, 0, 68, 0
1, 109428, Note_on_c, 0, 65, 0
1, 109440, Note_on_c, 0, 74, 0
1, 109440, Note_on_c, 0, 58, 0
1, 109440, Note_on_c, 0, 72, 60
1, 109440, Note_on_c, 0, 59, 44
1, 109440, Note_on_c, 0, 65, 38
1, 109440, Note_on_c, 0, 68, 38
1, 109668, Note_on_c, 0, 68, 0
1, 109668, Note_on_c, 0, 65, 0
1, 109680, Note_on_c, 0, 72, 0
1, 109680, Note_on_c, 0, 74, 57
1, 109680, Note_on_c, 0, 65, 38
1, 109680, Note_on_c, 0, 68, 38
1, 109908, Note_on_c, 0, 68, 0
1, 109908, Note_on_c, 0, 65, 0
1, 109920, Tempo, 406780
1, 109920, Note_on_c, 0, 74, 0
1, 109920, Note_on_c, 0, 59, 0
1, 109920, Note_on_c, 0, 77, 60
1, 109920, Note_on_c, 0, 60, 44
1, 109980, Note_on_c, 0, 77, 0
1, 109980, Note_on_c, 0, 79, 60
1, 110040, Note_on_c, 0, 79, 0
1, 110040, Note_on_c, 0, 77, 67
1, 110160, Note_on_c, 0, 77, 0
1, 110160, Note_on_c, 0, 75, 59
1, 110160, Note_on_c, 0, 63, 37
1, 110160, Note_on_c, 0, 67, 37
1, 110388, Note_on_c, 0, 67, 0
1, 110388, Note_on_c, 0, 63, 0
1, 110400, Note_on_c, 0, 75, 0
1, 110400, Note_on_c, 0, 75, 58
1, 110400, Note_on_c, 0, 63, 36
1, 110400, Note_on_c, 0, 67, 36
1, 110460, Note_on_c, 0, 75, 0
1, 110460, Note_on_c, 0, 77, 58
1, 110520, Note_on_c, 0, 77, 0
1, 110520, Note_on_c, 0, 75, 64
1, 110628, Note_on_c, 0, 67, 0
1, 110628, Note_on_c, 0, 63, 0
1, 110640, Note_on_c, 0, 75, 0
1, 110640, Note_on_c, 0, 74, 57
1, 110640, Note_on_c, 0, 63, 36
1, 110640, Note_on_c, 0, 67, 36
1, 110868, Note_on_c, 0, 67, 0
1, 110868, Note_on_c, 0, 63, 0
1, 110880, Note_on_c, 0, 74, 0
1, 110880, Note_on_c, 0, 60, 0
1, 110880, Note_on_c, 0, 74, 56
1, 110880, Note_on_c, 0, 56, 41
1, 110940, Note_on_c, 0, 74, 0
1, 110940, Note_on_c, 0, 75, 55
1, 111000, Note_on_c, 0, 75, 0
1, 111000, Note_on_c, 0, 74, 61
1, 111100, Tempo, 405405
1, 111120, Note_on_c, 0, 74, 0
1, 111120, Note_on_c, 0, 72, 55
1, 111120, Note_on_c, 0, 63, 34
1, 111120, Note_on_c, 0, 65, 34
1, 111180, Tempo, 406780
1, 111260, Tempo, 408163
1, 111320, Tempo, 409556
1, 111348, Note_on_c, 0, 65, 0
1, 111348, Note_on_c, 0, 63, 0
1, 111360, Note_on_c, 0, 72, 0
1, 111360, Note_on_c, 0, 72, 54
1, 111360, Note_on_c, 0, 63, 34
1, 111360, Note_on_c, 0, 65, 34
1, 111400, Tempo, 410959
1, 111420, Note_on_c, 0, 72, 0
1, 111420, Note_on_c, 0, 74, 54
1, 111460, Tempo, 412371
1, 111480, Note_on_c, 0, 74, 0
1, 111480, Note_on_c, 0, 72, 59
1, 111540, Tempo, 413793
1, 111588, Note_on_c, 0, 65, 0
1, 111588, Note_on_c, 0, 63, 0
1, 111600, Note_on_c, 0, 72, 0
1, 111600, Note_on_c, 0, 71, 53
1, 111600, Note_on_c, 0, 63, 33
1, 111600, Note_on_c, 0, 65, 33
1, 111620, Tempo, 415225
1, 111680, Tempo, 416667
1, 111760, Tempo, 418118
1, 111820, Tempo, 419580
1, 111828, Note_on_c, 0, 65, 0
1, 111828, Note_on_c, 0, 63, 0
1, 111840, Tempo, 425532
1, 111840, Note_on_c, 0, 71, 0
1, 111840, Note_on_c, 0, 56, 0
1, 111840, Note_on_c, 0, 72, 52
1, 111840, Note_on_c, 0, 58, 38
1, 111900, Note_on_c, 0, 72, 0
1, 111900, Note_on_c, 0, 74, 52
1, 111960, Note_on_c, 0, 74, 0
1, 111960, Note_on_c, 0, 72, 56
1, 112080, Note_on_c, 0, 72, 0
1, 112080, Note_on_c, 0, 70, 51
1, 112080, Note_on_c, 0, 63, 32
1, 112080, Note_on_c, 0, 67, 32
1, 112308, Note_on_c, 0, 67, 0
1, 112308, Note_on_c, 0, 63, 0
1, 112320, Note_on_c, 0, 70, 0
1, 112320, Note_on_c, 0, 70, 50
1, 112320, Note_on_c, 0, 63, 31
1, 112320, Note_on_c, 0, 67, 31
1, 112410, Note_on_c, 0, 70, 0
1, 112548, Note_on_c, 0, 67, 0
1, 112548, Note_on_c, 0, 63, 0
1, 112560, Note_on_c, 0, 70, 46
1, 112560, Note_on_c, 0, 63, 31
1, 112560, Note_on_c, 0, 67, 31
1, 112650, Note_on_c, 0, 70, 0
1, 112788, Note_on_c, 0, 67, 0
1, 112788, Note_on_c, 0, 63, 0
1, 112800, Tempo, 441176
1, 112800, Note_on_c, 0, 58, 0
1, 112800, Note_on_c, 0, 72, 37
1, 112800, Note_on_c, 0, 58, 27
1, 112860, Note_on_c, 0, 72, 0
1, 112860, Note_on_c, 0, 74, 37
1, 112920, Note_on_c, 0, 74, 0
1, 112920, Note_on_c, 0, 72, 41
1, 113040, Note_on_c, 0, 72, 0
1, 113040, Note_on_c, 0, 70, 37
1, 113040, Note_on_c, 0, 62, 23
1, 113040, Note_on_c, 0, 65, 23
1, 113268, Note_on_c, 0, 65, 0
1, 113268, Note_on_c, 0, 62, 0
1, 113280, Note_on_c, 0, 70, 0
1, 113280, Note_on_c, 0, 70, 37
1, 113280, Note_on_c, 0, 62, 23
1, 113280, Note_on_c, 0, 65, 23
1, 113370, Note_on_c, 0, 70, 0
1, 113508, Note_on_c, 0, 65, 0
1, 113508, Note_on_c, 0, 62, 0
1, 113520, Note_on_c, 0, 70, 35
1, 113520, Note_on_c, 0, 62, 23
1, 113520, Note_on_c, 0, 65, 23
1, 113610, Note_on_c, 0, 70, 0
1, 113748, Note_on_c, 0, 65, 0
1, 113748, Note_on_c, 0, 62, 0
1, 113760, Note_on_c, 0, 58, 0
1, 113760, Note_on_c, 0, 51, 36
1, 113866, Control_c, 0, 64, 127
1, 113880, Note_on_c, 0, 63, 25
1, 113880, Note_on_c, 0, 58, 24
1, 114000, Tempo, 418118
1, 114000, Note_on_c, 0, 58, 0
1, 114000, Note_on_c, 0, 63, 0
1, 114000, Note_on_c, 0, 67, 29
1, 114000, Note_on_c, 0, 55, 26
1, 114120, Note_on_c, 0, 55, 0
1, 114120, Note_on_c, 0, 67, 0
1, 114120, Note_on_c, 0, 63, 29
1, 114120, Note_on_c, 0, 58, 24
1, 114160, Tempo, 416667
1, 114240, Note_on_c, 0, 58, 0
1, 114240, Note_on_c, 0, 63, 0
1, 114240, Note_on_c, 0, 75, 45
1, 114240, Note_on_c, 0, 55, 32
1, 114300, Tempo, 415225
1, 114360, Note_on_c, 0, 55, 0
1, 114360, Note_on_c, 0, 63, 28
1, 114360, Note_on_c, 0, 58, 25
1, 114440, Tempo, 413793
1, 114480, Note_on_c, 0, 58, 0
1, 114480, Note_on_c, 0, 63, 0
1, 114480, Note_on_c, 0, 67, 30
1, 114480, Note_on_c, 0, 55, 28
1, 114580, Tempo, 412371
1, 114600, Note_on_c, 0, 55, 0
1, 114600, Note_on_c, 0, 67, 0
1, 114600, Note_on_c, 0, 63, 28
1, 114600, Note_on_c, 0, 58, 26
1, 114720, Tempo, 410959
1, 114720, Note_on_c, 0, 58, 0
1, 114720, Note_on_c, 0, 63, 0
1, 114720, Note_on_c, 0, 67, 31
1, 114720, Note_on_c, 0, 55, 34
1, 114730, Control_c, 0, 64, 0
1, 114784, Control_c, 0, 64, 127
1, 114840, Note_on_c, 0, 55, 0
1, 114840, Note_on_c, 0, 67, 0
1, 114840, Note_on_c, 0, 63, 30
1, 114840, Note_on_c, 0, 58, 26
1, 114960, Note_on_c, 0, 58, 0
1, 114960, Note_on_c, 0, 63, 0
1, 114960, Note_on_c, 0, 67, 32
1, 114960, Note_on_c, 0, 55, 29
1, 115080, Note_on_c, 0, 55, 0
1, 115080, Note_on_c, 0, 67, 0
1, 115080, Note_on_c, 0, 63, 29
1, 115080, Note_on_c, 0, 58, 26
1, 115200, Note_on_c, 0, 58, 0
1, 115200, Note_on_c, 0, 51, 0
1, 115200, Note_on_c, 0, 75, 0
1, 115200, Note_on_c, 0, 63, 0
1, 115200, Note_on_c, 0, 75, 50
1, 115200, Note_on_c, 0, 51, 36
1, 115320, Note_on_c, 0, 63, 30
1, 115320, Note_on_c, 0, 58, 28
1, 115440, Note_on_c, 0, 58, 0
1, 115440, Note_on_c, 0, 63, 0
1, 115440, Note_on_c, 0, 67, 33
1, 115440, Note_on_c, 0, 55, 32
1, 115560, Note_on_c, 0, 55, 0
1, 115560, Note_on_c, 0, 67, 0
1, 115560, Note_on_c, 0, 63, 32
1, 115560, Note_on_c, 0, 58, 28
1, 115680, Tempo, 451128
1, 115680, Note_on_c, 0, 58, 0
1, 115680, Note_on_c, 0, 75, 0
1, 115680, Note_on_c, 0, 51, 0
1, 115680, Note_on_c, 0, 63, 0
1, 115680, Note_on_c, 0, 49, 45
1, 115694, Control_c, 0, 64, 0
1, 115800, Note_on_c, 0, 63, 32
1, 115800, Note_on_c, 0, 58, 30
1, 115807, Control_c, 0, 64, 127
1, 115900, Tempo, 416667
1, 115920, Note_on_c, 0, 58, 0
1, 115920, Note_on_c, 0, 63, 0
1, 115920, Note_on_c, 0, 67, 36
1, 115920, Note_on_c, 0, 55, 32
1, 116040, Note_on_c, 0, 55, 0
1, 116040, Note_on_c, 0, 67, 0
1, 116040, Note_on_c, 0, 63, 35
1, 116040, Note_on_c, 0, 58, 29
1, 116160, Tempo, 415225
1, 116160, Note_on_c, 0, 58, 0
1, 116160, Note_on_c, 0, 63, 0
1, 116160, Note_on_c, 0, 75, 54
1, 116160, Note_on_c, 0, 55, 38
1, 116280, Note_on_c, 0, 55, 0
1, 116280, Note_on_c, 0, 63, 33
1, 116280, Note_on_c, 0, 58, 30
1, 116400, Tempo, 413793
1, 116400, Note_on_c, 0, 58, 0
1, 116400, Note_on_c, 0, 63, 0
1, 116400, Note_on_c, 0, 67, 35
1, 116400, Note_on_c, 0, 55, 33
1, 116520, Note_on_c, 0, 55, 0
1, 116520, Note_on_c, 0, 67, 0
1, 116520, Note_on_c, 0, 63, 32
1, 116520, Note_on_c, 0, 58, 30
1, 116640, Tempo, 412371
1, 116640, Note_on_c, 0, 58, 0
1, 116640, Note_on_c, 0, 63, 0
1, 116640, Note_on_c, 0, 67, 35
1, 116640, Note_on_c, 0, 55, 38
1, 116654, Control_c, 0, 64, 0
1, 116739, Control_c, 0, 64, 127
1, 116760, Note_on_c, 0, 55, 0
1, 116760, Note_on_c, 0, 67, 0
1, 116760, Note_on_c, 0, 63, 33
1, 116760, Note_on_c, 0, 58, 29
1, 116880, Note_on_c, 0, 58, 0
1, 116880, Note_on_c, 0, 63, 0
1, 116880, Note_on_c, 0, 67, 35
1, 116880, Note_on_c, 0, 55, 32
1, 117000, Note_on_c, 0, 55, 0
1, 117000, Note_on_c, 0, 67, 0
1, 117000, Note_on_c, 0, 63, 32
1, 117000, Note_on_c, 0, 58, 29
1, 117120, Note_on_c, 0, 58, 0
1, 117120, Note_on_c, 0, 49, 0
1, 117120, Note_on_c, 0, 75, 0
1, 117120, Note_on_c, 0, 63, 0
1, 117120, Note_on_c, 0, 75, 53
1, 117120, Note_on_c, 0, 49, 38
1, 117240, Note_on_c, 0, 63, 32
1, 117240, Note_on_c, 0, 58, 30
1, 117360, Note_on_c, 0, 58, 0
1, 117360, Note_on_c, 0, 63, 0
1, 117360, Note_on_c, 0, 67, 35
1, 117360, Note_on_c, 0, 55, 33
1, 117480, Tempo, 446097
1, 117480, Note_on_c, 0, 55, 0
1, 117480, Note_on_c, 0, 67, 0
1, 117480, Note_on_c, 0, 63, 33
1, 117480, Note_on_c, 0, 58, 29
1, 117600, Tempo, 406780
1, 117600, Note_on_c, 0, 58, 0
1, 117600, Note_on_c, 0, 75, 0
1, 117600, Note_on_c, 0, 49, 0
1, 117600, Note_on_c, 0, 63, 0
1, 117600, Note_on_c, 0, 75, 66
1, 117600, Note_on_c, 0, 48, 55
1, 117617, Control_c, 0, 64, 0
1, 117690, Note_on_c, 0, 48, 0
1, 117690, Note_on_c, 0, 75, 0
1, 117720, Note_on_c, 0, 63, 41
1, 117720, Note_on_c, 0, 56, 36
1, 117800, Tempo, 405405
1, 117840, Note_on_c, 0, 56, 0
1, 117840, Note_on_c, 0, 63, 0
1, 117840, Note_on_c, 0, 68, 45
1, 117840, Note_on_c, 0, 51, 39
1, 117960, Note_on_c, 0, 51, 0
1, 117960, Note_on_c, 0, 68, 0
1, 117960, Note_on_c, 0, 63, 42
1, 117960, Note_on_c, 0, 56, 35
1, 118000, Tempo, 404040
1, 118080, Note_on_c, 0, 56, 0
1, 118080, Note_on_c, 0, 63, 0
1, 118080, Note_on_c, 0, 76, 67
1, 118080, Note_on_c, 0, 46, 56
1, 118170, Note_on_c, 0, 46, 0
1, 118170, Note_on_c, 0, 76, 0
1, 118180, Tempo, 402685
1, 118200, Note_on_c, 0, 64, 43
1, 118200, Note_on_c, 0, 55, 36
1, 118320, Note_on_c, 0, 55, 0
1, 118320, Note_on_c, 0, 64, 0
1, 118320, Note_on_c, 0, 72, 47
1, 118320, Note_on_c, 0, 48, 43
1, 118380, Tempo, 401338
1, 118440, Note_on_c, 0, 48, 0
1, 118440, Note_on_c, 0, 72, 0
1, 118440, Note_on_c, 0, 64, 43
1, 118440, Note_on_c, 0, 55, 41
1, 118560, Tempo, 392157
1, 118560, Note_on_c, 0, 55, 0
1, 118560, Note_on_c, 0, 64, 0
1, 118560, Note_on_c, 0, 77, 71
1, 118560, Note_on_c, 0, 44, 58
1, 118650, Note_on_c, 0, 44, 0
1, 118650, Note_on_c, 0, 77, 0
1, 118680, Note_on_c, 0, 65, 45
1, 118680, Note_on_c, 0, 56, 38
1, 118800, Note_on_c, 0, 56, 0
1, 118800, Note_on_c, 0, 65, 0
1, 118800, Note_on_c, 0, 72, 50
1, 118800, Note_on_c, 0, 48, 43
1, 118920, Note_on_c, 0, 48, 0
1, 118920, Note_on_c, 0, 72, 0
1, 118920, Note_on_c, 0, 65, 45
1, 118920, Note_on_c, 0, 56, 38
1, 119040, Note_on_c, 0, 56, 0
1, 119040, Note_on_c, 0, 65, 0
1, 119040, Note_on_c, 0, 79, 72
1, 119040, Note_on_c, 0, 43, 60
1, 119130, Note_on_c, 0, 43, 0
1, 119130, Note_on_c, 0, 79, 0
1, 119160, Note_on_c, 0, 67, 47
1, 119160, Note_on_c, 0, 55, 40
1, 119280, Note_on_c, 0, 55, 0
1, 119280, Note_on_c, 0, 67, 0
1, 119280, Note_on_c, 0, 72, 50
1, 119280, Note_on_c, 0, 48, 43
1, 119400, Note_on_c, 0, 48, 0
1, 119400, Note_on_c, 0, 72, 0
1, 119400, Note_on_c, 0, 67, 47
1, 119400, Note_on_c, 0, 55, 38
1, 119520, Tempo, 389610
1, 119520, Note_on_c, 0, 55, 0
1, 119520, Note_on_c, 0, 67, 0
1, 119520, Note_on_c, 0, 80, 74
1, 119520, Note_on_c, 0, 41, 63
1, 119540, Tempo, 388350
1, 119560, Tempo, 387097
1, 119610, Note_on_c, 0, 41, 0
1, 119610, Note_on_c, 0, 80, 0
1, 119620, Tempo, 385852
1, 119640, Note_on_c, 0, 68, 49
1, 119640, Note_on_c, 0, 53, 42
1, 119660, Tempo, 384615
1, 119700, Tempo, 383387
1, 119720, Tempo, 382166
1, 119740, Tempo, 383387
1, 119760, Tempo, 390879
1, 119760, Note_on_c, 0, 53, 0
1, 119760, Note_on_c, 0, 68, 0
1, 119760, Note_on_c, 0, 72, 54
1, 119760, Note_on_c, 0, 48, 45
1, 119780, Tempo, 393443
1, 119800, Tempo, 392157
1, 119820, Tempo, 390879
1, 119860, Tempo, 388350
1, 119880, Tempo, 387097
1, 119880, Note_on_c, 0, 48, 0
1, 119880, Note_on_c, 0, 72, 0
1, 119880, Note_on_c, 0, 68, 49
1, 119880, Note_on_c, 0, 53, 42
1, 119920, Tempo, 385852
1, 119960, Tempo, 384615
1, 120000, Note_on_c, 0, 53, 0
1, 120000, Note_on_c, 0, 68, 0
1, 120000, Note_on_c, 0, 81, 80
1, 120000, Note_on_c, 0, 39, 66
1, 120090, Note_on_c, 0, 39, 0
1, 120090, Note_on_c, 0, 81, 0
1, 120120, Note_on_c, 0, 69, 50
1, 120120, Note_on_c, 0, 51, 41
1, 120240, Note_on_c, 0, 51, 0
1, 120240, Note_on_c, 0, 69, 0
1, 120240, Note_on_c, 0, 72, 55
1, 120240, Note_on_c, 0, 41, 47
1, 120260, Tempo, 390879
1, 120280, Tempo, 392157
1, 120300, Tempo, 393443
1, 120340, Tempo, 390879
1, 120360, Tempo, 387097
1, 120360, Note_on_c, 0, 41, 0
1, 120360, Note_on_c, 0, 72, 0
1, 120360, Note_on_c, 0, 69, 51
1, 120360, Note_on_c, 0, 51, 41
1, 120380, Tempo, 385852
1, 120400, Tempo, 384615
1, 120420, Tempo, 383387
1, 120440, Tempo, 388350
1, 120480, Note_on_c, 0, 51, 0
1, 120480, Note_on_c, 0, 69, 0
1, 120480, Note_on_c, 0, 82, 84
1, 120480, Note_on_c, 0, 38, 68
1, 120540, Tempo, 387097
1, 120560, Tempo, 384615
1, 120570, Note_on_c, 0, 38, 0
1, 120570, Note_on_c, 0, 82, 0
1, 120600, Note_on_c, 0, 70, 51
1, 120600, Note_on_c, 0, 50, 45
1, 120620, Tempo, 383387
1, 120680, Tempo, 384615
1, 120700, Tempo, 385852
1, 120720, Tempo, 388350
1, 120720, Note_on_c, 0, 50, 0
1, 120720, Note_on_c, 0, 70, 0
1, 120720, Note_on_c, 0, 77, 58
1, 120720, Note_on_c, 0, 41, 49
1, 120760, Tempo, 385852
1, 120780, Tempo, 384615
1, 120800, Tempo, 383387
1, 120840, Tempo, 382166
1, 120840, Note_on_c, 0, 41, 0
1, 120840, Note_on_c, 0, 77, 0
1, 120840, Note_on_c, 0, 70, 53
1, 120840, Note_on_c, 0, 50, 43
1, 120880, Tempo, 383387
1, 120900, Tempo, 385852
1, 120940, Tempo, 387097
1, 120960, Tempo, 388350
1, 120960, Note_on_c, 0, 50, 0
1, 120960, Note_on_c, 0, 70, 0
1, 120960, Note_on_c, 0, 84, 85
1, 120960, Note_on_c, 0, 36, 70
1, 120980, Tempo, 389610
1, 121000, Tempo, 390879
1, 121020, Tempo, 388350
1, 121040, Tempo, 385852
1, 121050, Note_on_c, 0, 36, 0
1, 121050, Note_on_c, 0, 84, 0
1, 121060, Tempo, 384615
1, 121080, Note_on_c, 0, 72, 53
1, 121080, Note_on_c, 0, 48, 45
1, 121100, Tempo, 383387
1, 121140, Tempo, 382166
1, 121200, Tempo, 383387
1, 121200, Note_on_c, 0, 48, 0
1, 121200, Note_on_c, 0, 72, 0
1, 121200, Note_on_c, 0, 77, 58
1, 121200, Note_on_c, 0, 41, 51
1, 121220, Tempo, 385852
1, 121240, Tempo, 387097
1, 121260, Tempo, 388350
1, 121280, Tempo, 389610
1, 121300, Tempo, 388350
1, 121320, Tempo, 387097
1, 121320, Note_on_c, 0, 41, 0
1, 121320, Note_on_c, 0, 77, 0
1, 121320, Note_on_c, 0, 72, 54
1, 121320, Note_on_c, 0, 48, 43
1, 121340, Tempo, 384615
1, 121400, Tempo, 383387
1, 121420, Tempo, 382166
1, 121440, Note_on_c, 0, 48, 0
1, 121440, Note_on_c, 0, 72, 0
1, 121440, Note_on_c, 0, 85, 85
1, 121440, Note_on_c, 0, 34, 70
1, 121460, Tempo, 380952
1, 121500, Tempo, 383387
1, 121530, Note_on_c, 0, 34, 0
1, 121530, Note_on_c, 0, 85, 0
1, 121540, Tempo, 385852
1, 121560, Tempo, 387097
1, 121560, Note_on_c, 0, 73, 55
1, 121560, Note_on_c, 0, 46, 47
1, 121580, Tempo, 388350
1, 121620, Tempo, 390879
1, 121660, Tempo, 389610
1, 121680, Tempo, 387097
1, 121680, Note_on_c, 0, 46, 0
1, 121680, Note_on_c, 0, 73, 0
1, 121680, Note_on_c, 0, 77, 63
1, 121680, Note_on_c, 0, 41, 53
1, 121700, Tempo, 384615
1, 121740, Tempo, 383387
1, 121800, Note_on_c, 0, 41, 0
1, 121800, Note_on_c, 0, 77, 0
1, 121800, Note_on_c, 0, 73, 55
1, 121800, Note_on_c, 0, 46, 48
1, 121820, Tempo, 385852
1, 121840, Tempo, 387097
1, 121880, Tempo, 388350
1, 121920, Note_on_c, 0, 46, 0
1, 121920, Note_on_c, 0, 73, 0
1, 121920, Note_on_c, 0, 86, 90
1, 121920, Note_on_c, 0, 32, 72
1, 121960, Tempo, 387097
1, 122000, Tempo, 385852
1, 122010, Note_on_c, 0, 32, 0
1, 122010, Note_on_c, 0, 86, 0
1, 122040, Tempo, 384615
1, 122040, Note_on_c, 0, 74, 57
1, 122040, Note_on_c, 0, 44, 47
1, 122060, Tempo, 383387
1, 122120, Tempo, 382166
1, 122160, Note_on_c, 0, 44, 0
1, 122160, Note_on_c, 0, 74, 0
1, 122160, Note_on_c, 0, 77, 62
1, 122160, Note_on_c, 0, 41, 53
1, 122180, Tempo, 384615
1, 122200, Tempo, 385852
1, 122240, Tempo, 387097
1, 122260, Tempo, 388350
1, 122280, Note_on_c, 0, 41, 0
1, 122280, Note_on_c, 0, 77, 0
1, 122280, Note_on_c, 0, 74, 57
1, 122280, Note_on_c, 0, 44, 50
1, 122400, Tempo, 385852
1, 122400, Note_on_c, 0, 44, 0
1, 122400, Note_on_c, 0, 74, 0
1, 122400, Note_on_c, 0, 87, 89
1, 122400, Note_on_c, 0, 31, 75
1, 122420, Tempo, 384615
1, 122440, Tempo, 383387
1, 122460, Tempo, 382166
1, 122490, Note_on_c, 0, 31, 0
1, 122490, Note_on_c, 0, 87, 0
1, 122520, Note_on_c, 0, 75, 59
1, 122520, Note_on_c, 0, 43, 50
1, 122560, Tempo, 385852
1, 122640, Note_on_c, 0, 43, 0
1, 122640, Note_on_c, 0, 75, 0
1, 122640, Note_on_c, 0, 82, 64
1, 122640, Note_on_c, 0, 39, 55
1, 122700, Tempo, 388350
1, 122740, Tempo, 390879
1, 122760, Note_on_c, 0, 39, 0
1, 122760, Note_on_c, 0, 82, 0
1, 122760, Note_on_c, 0, 75, 59
1, 122760, Note_on_c, 0, 43, 50
1, 122780, Tempo, 388350
1, 122840, Tempo, 390879
1, 122880, Tempo, 406780
1, 122880, Note_on_c, 0, 43, 0
1, 122880, Note_on_c, 0, 75, 0
1, 122880, Note_on_c, 0, 83, 91
1, 122880, Note_on_c, 0, 31, 76
1, 122970, Note_on_c, 0, 31, 0
1, 122970, Note_on_c, 0, 83, 0
1, 123000, Note_on_c, 0, 71, 61
1, 123000, Note_on_c, 0, 43, 56
1, 123120, Note_on_c, 0, 43, 0
1, 123120, Note_on_c, 0, 71, 0
1, 123120, Note_on_c, 0, 75, 67
1, 123120, Note_on_c, 0, 39, 58
1, 123240, Note_on_c, 0, 39, 0
1, 123240, Note_on_c, 0, 75, 0
1, 123240, Note_on_c, 0, 71, 61
1, 123240, Note_on_c, 0, 43, 55
1, 123360, Tempo, 398671
1, 123360, Note_on_c, 0, 43, 0
1, 123360, Note_on_c, 0, 71, 0
1, 123360, Note_on_c, 0, 32, 71
1, 123360, Note_on_c, 0, 44, 84
1, 123438, Control_c, 0, 64, 127
1, 123480, Tempo, 390879
1, 123480, Note_on_c, 0, 72, 78
1, 123600, Note_on_c, 0, 72, 0
1, 123600, Note_on_c, 0, 44, 0
1, 123600, Note_on_c, 0, 32, 0
1, 123600, Note_on_c, 0, 75, 84
1, 123720, Note_on_c, 0, 75, 0
1, 123720, Note_on_c, 0, 72, 78
1, 123840, Note_on_c, 0, 72, 0
1, 123840, Note_on_c, 0, 84, 88
1, 123930, Note_on_c, 0, 84, 0
1, 123960, Note_on_c, 0, 72, 78
1, 124080, Tempo, 408163
1, 124080, Note_on_c, 0, 72, 0
1, 124080, Note_on_c, 0, 75, 84
1, 124200, Note_on_c, 0, 75, 0
1, 124200, Note_on_c, 0, 72, 76
1, 124320, Tempo, 404040
1, 124320, Note_on_c, 0, 72, 0
1, 124320, Note_on_c, 0, 46, 84
1, 124320, Note_on_c, 0, 34, 71
1, 124334, Control_c, 0, 64, 0
1, 124412, Control_c, 0, 64, 127
1, 124440, Tempo, 392157
1, 124440, Note_on_c, 0, 65, 78
1, 124560, Note_on_c, 0, 65, 0
1, 124560, Note_on_c, 0, 34, 0
1, 124560, Note_on_c, 0, 46, 0
1, 124560, Note_on_c, 0, 68, 84
1, 124680, Note_on_c, 0, 68, 0
1, 124680, Note_on_c, 0, 65, 78
1, 124800, Note_on_c, 0, 65, 0
1, 124800, Note_on_c, 0, 74, 88
1, 124890, Note_on_c, 0, 74, 0
1, 124920, Note_on_c, 0, 65, 78
1, 125040, Tempo, 430108
1, 125040, Note_on_c, 0, 65, 0
1, 125040, Note_on_c, 0, 68, 84
1, 125160, Tempo, 452830
1, 125160, Note_on_c, 0, 68, 0
1, 125160, Note_on_c, 0, 65, 76
1, 125280, Tempo, 419580
1, 125280, Note_on_c, 0, 65, 0
1, 125280, Note_on_c, 0, 51, 45
1, 125294, Control_c, 0, 64, 0
1, 125388, Control_c, 0, 64, 127
1, 125400, Note_on_c, 0, 63, 32
1, 125400, Note_on_c, 0, 58, 30
1, 125520, Tempo, 418118
1, 125520, Note_on_c, 0, 58, 0
1, 125520, Note_on_c, 0, 63, 0
1, 125520, Note_on_c, 0, 67, 36
1, 125520, Note_on_c, 0, 55, 32
1, 125640, Note_on_c, 0, 55, 0
1, 125640, Note_on_c, 0, 67, 0
1, 125640, Note_on_c, 0, 63, 35
1, 125640, Note_on_c, 0, 58, 29
1, 125680, Tempo, 416667
1, 125760, Note_on_c, 0, 58, 0
1, 125760, Note_on_c, 0, 63, 0
1, 125760, Note_on_c, 0, 75, 54
1, 125760, Note_on_c, 0, 55, 38
1, 125820, Tempo, 415225
1, 125880, Note_on_c, 0, 55, 0
1, 125880, Note_on_c, 0, 63, 33
1, 125880, Note_on_c, 0, 58, 30
1, 125960, Tempo, 413793
1, 126000, Note_on_c, 0, 58, 0
1, 126000, Note_on_c, 0, 63, 0
1, 126000, Note_on_c, 0, 67, 35
1, 126000, Note_on_c, 0, 55, 33
1, 126100, Tempo, 412371
1, 126120, Note_on_c, 0, 55, 0
1, 126120, Note_on_c, 0, 67, 0
1, 126120, Note_on_c, 0, 63, 32
1, 126120, Note_on_c, 0, 58, 30
1, 126240, Tempo, 410959
1, 126240, Note_on_c, 0, 58, 0
1, 126240, Note_on_c, 0, 63, 0
1, 126240, Note_on_c, 0, 67, 35
1, 126240, Note_on_c, 0, 55, 38
1, 126253, Control_c, 0, 64, 0
1, 126339, Control_c, 0, 64, 127
1, 126360, Note_on_c, 0, 55, 0
1, 126360, Note_on_c, 0, 67, 0
1, 126360, Note_on_c, 0, 63, 33
1, 126360, Note_on_c, 0, 58, 29
1, 126480, Note_on_c, 0, 58, 0
1, 126480, Note_on_c, 0, 63, 0
1, 126480, Note_on_c, 0, 67, 35
1, 126480, Note_on_c, 0, 55, 32
1, 126600, Note_on_c, 0, 55, 0
1, 126600, Note_on_c, 0, 67, 0
1, 126600, Note_on_c, 0, 63, 32
1, 126600, Note_on_c, 0, 58, 29
1, 126720, Note_on_c, 0, 58, 0
1, 126720, Note_on_c, 0, 51, 0
1, 126720, Note_on_c, 0, 75, 0
1, 126720, Note_on_c, 0, 63, 0
1, 126720, Note_on_c, 0, 75, 53
1, 126720, Note_on_c, 0, 51, 38
1, 126840, Note_on_c, 0, 63, 32
1, 126840, Note_on_c, 0, 58, 30
1, 126960, Note_on_c, 0, 58, 0
1, 126960, Note_on_c, 0, 63, 0
1, 126960, Note_on_c, 0, 67, 35
1, 126960, Note_on_c, 0, 55, 33
1, 127080, Note_on_c, 0, 55, 0
1, 127080, Note_on_c, 0, 67, 0
1, 127080, Note_on_c, 0, 63, 33
1, 127080, Note_on_c, 0, 58, 29
1, 127200, Tempo, 451128
1, 127200, Note_on_c, 0, 58, 0
1, 127200, Note_on_c, 0, 75, 0
1, 127200, Note_on_c, 0, 51, 0
1, 127200, Note_on_c, 0, 63, 0
1, 127200, Note_on_c, 0, 49, 45
1, 127212, Control_c, 0, 64, 0
1, 127310, Control_c, 0, 64, 127
1, 127320, Note_on_c, 0, 63, 32
1, 127320, Note_on_c, 0, 58, 30
1, 127420, Tempo, 416667
1, 127440, Note_on_c, 0, 58, 0
1, 127440, Note_on_c, 0, 63, 0
1, 127440, Note_on_c, 0, 67, 36
1, 127440, Note_on_c, 0, 55, 32
1, 127560, Note_on_c, 0, 55, 0
1, 127560, Note_on_c, 0, 67, 0
1, 127560, Note_on_c, 0, 63, 35
1, 127560, Note_on_c, 0, 58, 29
1, 127680, Tempo, 415225
1, 127680, Note_on_c, 0, 58, 0
1, 127680, Note_on_c, 0, 63, 0
1, 127680, Note_on_c, 0, 75, 54
1, 127680, Note_on_c, 0, 55, 38
1, 127800, Note_on_c, 0, 55, 0
1, 127800, Note_on_c, 0, 63, 33
1, 127800, Note_on_c, 0, 58, 30
1, 127920, Tempo, 413793
1, 127920, Note_on_c, 0, 58, 0
1, 127920, Note_on_c, 0, 63, 0
1, 127920, Note_on_c, 0, 67, 35
1, 127920, Note_on_c, 0, 55, 33
1, 128040, Note_on_c, 0, 55, 0
1, 128040, Note_on_c, 0, 67, 0
1, 128040, Note_on_c, 0, 63, 32
1, 128040, Note_on_c, 0, 58, 30
1, 128160, Tempo, 412371
1, 128160, Note_on_c, 0, 58, 0
1, 128160, Note_on_c, 0, 63, 0
1, 128160, Note_on_c, 0, 67, 35
1, 128160, Note_on_c, 0, 55, 38
1, 128176, Control_c, 0, 64, 0
1, 128252, Control_c, 0, 64, 127
1, 128280, Note_on_c, 0, 55, 0
1, 128280, Note_on_c, 0, 67, 0
1, 128280, Note_on_c, 0, 63, 33
1, 128280, Note_on_c, 0, 58, 29
1, 128400, Note_on_c, 0, 58, 0
1, 128400, Note_on_c, 0, 63, 0
1, 128400, Note_on_c, 0, 67, 35
1, 128400, Note_on_c, 0, 55, 32
1, 128520, Note_on_c, 0, 55, 0
1, 128520, Note_on_c, 0, 67, 0
1, 128520, Note_on_c, 0, 63, 32
1, 128520, Note_on_c, 0, 58, 29
1, 128640, Note_on_c, 0, 58, 0
1, 128640, Note_on_c, 0, 49, 0
1, 128640, Note_on_c, 0, 75, 0
1, 128640, Note_on_c, 0, 63, 0
1, 128640, Note_on_c, 0, 75, 53
1, 128640, Note_on_c, 0, 49, 38
1, 128760, Note_on_c, 0, 63, 32
1, 128760, Note_on_c, 0, 58, 30
1, 128880, Note_on_c, 0, 58, 0
1, 128880, Note_on_c, 0, 63, 0
1, 128880, Note_on_c, 0, 67, 35
1, 128880, Note_on_c, 0, 55, 33
1, 129000, Tempo, 446097
1, 129000, Note_on_c, 0, 55, 0
1, 129000, Note_on_c, 0, 67, 0
1, 129000, Note_on_c, 0, 63, 33
1, 129000, Note_on_c, 0, 58, 29
1, 129120, Tempo, 406780
1, 129120, Note_on_c, 0, 58, 0
1, 129120, Note_on_c, 0, 75, 0
1, 129120, Note_on_c, 0, 49, 0
1, 129120, Note_on_c, 0, 63, 0
1, 129120, Note_on_c, 0, 75, 66
1, 129120, Note_on_c, 0, 48, 55
1, 129136, Control_c, 0, 64, 0
1, 129210, Note_on_c, 0, 48, 0
1, 129210, Note_on_c, 0, 75, 0
1, 129240, Note_on_c, 0, 63, 41
1, 129240, Note_on_c, 0, 56, 36
1, 129320, Tempo, 405405
1, 129360, Note_on_c, 0, 56, 0
1, 129360, Note_on_c, 0, 63, 0
1, 129360, Note_on_c, 0, 68, 45
1, 129360, Note_on_c, 0, 51, 39
1, 129480, Note_on_c, 0, 51, 0
1, 129480, Note_on_c, 0, 68, 0
1, 129480, Note_on_c, 0, 63, 42
1, 129480, Note_on_c, 0, 56, 35
1, 129520, Tempo, 404040
1, 129600, Note_on_c, 0, 56, 0
1, 129600, Note_on_c, 0, 63, 0
1, 129600, Note_on_c, 0, 76, 67
1, 129600, Note_on_c, 0, 46, 56
1, 129690, Note_on_c, 0, 46, 0
1, 129690, Note_on_c, 0, 76, 0
1, 129700, Tempo, 402685
1, 129720, Note_on_c, 0, 64, 43
1, 129720, Note_on_c, 0, 55, 36
1, 129840, Note_on_c, 0, 55, 0
1, 129840, Note_on_c, 0, 64, 0
1, 129840, Note_on_c, 0, 72, 47
1, 129840, Note_on_c, 0, 48, 43
1, 129900, Tempo, 401338
1, 129960, Note_on_c, 0, 48, 0
1, 129960, Note_on_c, 0, 72, 0
1, 129960, Note_on_c, 0, 64, 43
1, 129960, Note_on_c, 0, 55, 41
1, 130080, Tempo, 392157
1, 130080, Note_on_c, 0, 55, 0
1, 130080, Note_on_c, 0, 64, 0
1, 130080, Note_on_c, 0, 77, 71
1, 130080, Note_on_c, 0, 44, 58
1, 130170, Note_on_c, 0, 44, 0
1, 130170, Note_on_c, 0, 77, 0
1, 130200, Note_on_c, 0, 65, 45
1, 130200, Note_on_c, 0, 56, 38
1, 130320, Note_on_c, 0, 56, 0
1, 130320, Note_on_c, 0, 65, 0
1, 130320, Note_on_c, 0, 72, 50
1, 130320, Note_on_c, 0, 48, 43
1, 130440, Note_on_c, 0, 48, 0
1, 130440, Note_on_c, 0, 72, 0
1, 130440, Note_on_c, 0, 65, 45
1, 130440, Note_on_c, 0, 56, 38
1, 130560, Note_on_c, 0, 56, 0
1, 130560, Note_on_c, 0, 65, 0
1, 130560, Note_on_c, 0, 79, 72
1, 130560, Note_on_c, 0, 43, 60
1, 130650, Note_on_c, 0, 43, 0
1, 130650, Note_on_c, 0, 79, 0
1, 130680, Note_on_c, 0, 67, 47
1, 130680, Note_on_c, 0, 55, 40
1, 130800, Note_on_c, 0, 55, 0
1, 130800, Note_on_c, 0, 67, 0
1, 130800, Note_on_c, 0, 72, 50
1, 130800, Note_on_c, 0, 48, 43
1, 130920, Note_on_c, 0, 48, 0
1, 130920, Note_on_c, 0, 72, 0
1, 130920, Note_on_c, 0, 67, 47
1, 130920, Note_on_c, 0, 55, 38
1, 131040, Tempo, 389610
1, 131040, Note_on_c, 0, 55, 0
1, 131040, Note_on_c, 0, 67, 0
1, 131040, Note_on_c, 0, 80, 74
1, 131040, Note_on_c, 0, 41, 63
1, 131060, Tempo, 387097
1, 131100, Tempo, 385852
1, 131130, Note_on_c, 0, 41, 0
1, 131130, Note_on_c, 0, 80, 0
1, 131140, Tempo, 384615
1, 131160, Note_on_c, 0, 68, 49
1, 131160, Note_on_c, 0, 53, 42
1, 131180, Tempo, 387097
1, 131220, Tempo, 388350
1, 131240, Tempo, 390879
1, 131280, Tempo, 389610
1, 131280, Note_on_c, 0, 53, 0
1, 131280, Note_on_c, 0, 68, 0
1, 131280, Note_on_c, 0, 72, 54
1, 131280, Note_on_c, 0, 48, 45
1, 131320, Tempo, 388350
1, 131340, Tempo, 387097
1, 131360, Tempo, 385852
1, 131380, Tempo, 384615
1, 131400, Note_on_c, 0, 48, 0
1, 131400, Note_on_c, 0, 72, 0
1, 131400, Note_on_c, 0, 68, 49
1, 131400, Note_on_c, 0, 53, 42
1, 131420, Tempo, 383387
1, 131460, Tempo, 385852
1, 131480, Tempo, 387097
1, 131520, Tempo, 388350
1, 131520, Note_on_c, 0, 53, 0
1, 131520, Note_on_c, 0, 68, 0
1, 131520, Note_on_c, 0, 81, 80
1, 131520, Note_on_c, 0, 39, 66
1, 131560, Tempo, 389610
1, 131580, Tempo, 390879
1, 131600, Tempo, 392157
1, 131610, Note_on_c, 0, 39, 0
1, 131610, Note_on_c, 0, 81, 0
1, 131620, Tempo, 390879
1, 131640, Tempo, 389610
1, 131640, Note_on_c, 0, 69, 50
1, 131640, Note_on_c, 0, 51, 41
1, 131660, Tempo, 388350
1, 131680, Tempo, 387097
1, 131700, Tempo, 385852
1, 131720, Tempo, 384615
1, 131760, Note_on_c, 0, 51, 0
1, 131760, Note_on_c, 0, 69, 0
1, 131760, Note_on_c, 0, 72, 55
1, 131760, Note_on_c, 0, 41, 47
1, 131820, Tempo, 385852
1, 131840, Tempo, 387097
1, 131880, Note_on_c, 0, 41, 0
1, 131880, Note_on_c, 0, 72, 0
1, 131880, Note_on_c, 0, 69, 51
1, 131880, Note_on_c, 0, 51, 41
1, 131900, Tempo, 388350
1, 131940, Tempo, 390879
1, 131960, Tempo, 392157
1, 131980, Tempo, 390879
1, 132000, Tempo, 388350
1, 132000, Note_on_c, 0, 51, 0
1, 132000, Note_on_c, 0, 69, 0
1, 132000, Note_on_c, 0, 82, 84
1, 132000, Note_on_c, 0, 38, 68
1, 132020, Tempo, 387097
1, 132060, Tempo, 385852
1, 132090, Note_on_c, 0, 38, 0
1, 132090, Note_on_c, 0, 82, 0
1, 132120, Tempo, 384615
1, 132120, Note_on_c, 0, 70, 51
1, 132120, Note_on_c, 0, 50, 45
1, 132200, Tempo, 385852
1, 132220, Tempo, 387097
1, 132240, Tempo, 389610
1, 132240, Note_on_c, 0, 50, 0
1, 132240, Note_on_c, 0, 70, 0
1, 132240, Note_on_c, 0, 77, 58
1, 132240, Note_on_c, 0, 41, 49
1, 132280, Tempo, 390879
1, 132360, Tempo, 389610
1, 132360, Note_on_c, 0, 41, 0
1, 132360, Note_on_c, 0, 77, 0
1, 132360, Note_on_c, 0, 70, 53
1, 132360, Note_on_c, 0, 50, 43
1, 132400, Tempo, 387097
1, 132440, Tempo, 385852
1, 132460, Tempo, 384615
1, 132480, Note_on_c, 0, 50, 0
1, 132480, Note_on_c, 0, 70, 0
1, 132480, Note_on_c, 0, 84, 85
1, 132480, Note_on_c, 0, 36, 70
1, 132500, Tempo, 385852
1, 132540, Tempo, 387097
1, 132560, Tempo, 388350
1, 132570, Note_on_c, 0, 36, 0
1, 132570, Note_on_c, 0, 84, 0
1, 132600, Note_on_c, 0, 72, 53
1, 132600, Note_on_c, 0, 48, 45
1, 132680, Tempo, 387097
1, 132700, Tempo, 385852
1, 132720, Tempo, 384615
1, 132720, Note_on_c, 0, 48, 0
1, 132720, Note_on_c, 0, 72, 0
1, 132720, Note_on_c, 0, 77, 58
1, 132720, Note_on_c, 0, 41, 51
1, 132840, Tempo, 385852
1, 132840, Note_on_c, 0, 41, 0
1, 132840, Note_on_c, 0, 77, 0
1, 132840, Note_on_c, 0, 72, 54
1, 132840, Note_on_c, 0, 48, 43
1, 132860, Tempo, 387097
1, 132900, Tempo, 389610
1, 132920, Tempo, 390879
1, 132960, Note_on_c, 0, 48, 0
1, 132960, Note_on_c, 0, 72, 0
1, 132960, Note_on_c, 0, 85, 85
1, 132960, Note_on_c, 0, 34, 70
1, 133000, Tempo, 389610
1, 133040, Tempo, 388350
1, 133050, Note_on_c, 0, 34, 0
1, 133050, Note_on_c, 0, 85, 0
1, 133060, Tempo, 387097
1, 133080, Note_on_c, 0, 73, 55
1, 133080, Note_on_c, 0, 46, 47
1, 133100, Tempo, 385852
1, 133120, Tempo, 384615
1, 133140, Tempo, 383387
1, 133160, Tempo, 382166
1, 133200, Tempo, 383387
1, 133200, Note_on_c, 0, 46, 0
1, 133200, Note_on_c, 0, 73, 0
1, 133200, Note_on_c, 0, 77, 63
1, 133200, Note_on_c, 0, 41, 53
1, 133240, Tempo, 385852
1, 133260, Tempo, 387097
1, 133280, Tempo, 389610
1, 133300, Tempo, 390879
1, 133320, Note_on_c, 0, 41, 0
1, 133320, Note_on_c, 0, 77, 0
1, 133320, Note_on_c, 0, 73, 55
1, 133320, Note_on_c, 0, 46, 48
1, 133360, Tempo, 389610
1, 133380, Tempo, 388350
1, 133400, Tempo, 387097
1, 133420, Tempo, 385852
1, 133440, Tempo, 384615
1, 133440, Note_on_c, 0, 46, 0
1, 133440, Note_on_c, 0, 73, 0
1, 133440, Note_on_c, 0, 86, 90
1, 133440, Note_on_c, 0, 32, 72
1, 133480, Tempo, 383387
1, 133500, Tempo, 382166
1, 133520, Tempo, 380952
1, 133530, Note_on_c, 0, 32, 0
1, 133530, Note_on_c, 0, 86, 0
1, 133560, Tempo, 379747
1, 133560, Note_on_c, 0, 74, 57
1, 133560, Note_on_c, 0, 44, 47
1, 133580, Tempo, 380952
1, 133600, Tempo, 382166
1, 133620, Tempo, 383387
1, 133660, Tempo, 385852
1, 133680, Note_on_c, 0, 44, 0
1, 133680, Note_on_c, 0, 74, 0
1, 133680, Note_on_c, 0, 77, 62
1, 133680, Note_on_c, 0, 41, 53
1, 133700, Tempo, 388350
1, 133720, Tempo, 389610
1, 133800, Tempo, 387097
1, 133800, Note_on_c, 0, 41, 0
1, 133800, Note_on_c, 0, 77, 0
1, 133800, Note_on_c, 0, 74, 57
1, 133800, Note_on_c, 0, 44, 50
1, 133820, Tempo, 385852
1, 133840, Tempo, 384615
1, 133880, Tempo, 383387
1, 133920, Note_on_c, 0, 44, 0
1, 133920, Note_on_c, 0, 74, 0
1, 133920, Note_on_c, 0, 87, 89
1, 133920, Note_on_c, 0, 31, 75
1, 133960, Tempo, 385852
1, 133980, Tempo, 387097
1, 134000, Tempo, 388350
1, 134010, Note_on_c, 0, 31, 0
1, 134010, Note_on_c, 0, 87, 0
1, 134020, Tempo, 390879
1, 134040, Tempo, 393443
1, 134040, Note_on_c, 0, 75, 59
1, 134040, Note_on_c, 0, 43, 50
1, 134140, Tempo, 392157
1, 134160, Note_on_c, 0, 43, 0
1, 134160, Note_on_c, 0, 75, 0
1, 134160, Note_on_c, 0, 82, 64
1, 134160, Note_on_c, 0, 39, 55
1, 134180, Tempo, 390879
1, 134200, Tempo, 389610
1, 134240, Tempo, 388350
1, 134280, Tempo, 387097
1, 134280, Note_on_c, 0, 39, 0
1, 134280, Note_on_c, 0, 82, 0
1, 134280, Note_on_c, 0, 75, 59
1, 134280, Note_on_c, 0, 43, 50
1, 134400, Tempo, 406780
1, 134400, Note_on_c, 0, 43, 0
1, 134400, Note_on_c, 0, 75, 0
1, 134400, Note_on_c, 0, 88, 91
1, 134400, Note_on_c, 0, 31, 76
1, 134490, Note_on_c, 0, 31, 0
1, 134490, Note_on_c, 0, 88, 0
1, 134520, Note_on_c, 0, 76, 61
1, 134520, Note_on_c, 0, 43, 56
1, 134640, Note_on_c, 0, 43, 0
1, 134640, Note_on_c, 0, 76, 0
1, 134640, Note_on_c, 0, 82, 67
1, 134640, Note_on_c, 0, 31, 58
1, 134760, Note_on_c, 0, 31, 0
1, 134760, Note_on_c, 0, 82, 0
1, 134760, Note_on_c, 0, 76, 61
1, 134760, Note_on_c, 0, 43, 55
1, 134880, Tempo, 408163
1, 134880, Note_on_c, 0, 43, 0
1, 134880, Note_on_c, 0, 76, 0
1, 134880, Note_on_c, 0, 32, 71
1, 134880, Note_on_c, 0, 44, 84
1, 134972, Control_c, 0, 64, 127
1, 135000, Tempo, 390879
1, 135000, Note_on_c, 0, 80, 78
1, 135120, Note_on_c, 0, 80, 0
1, 135120, Note_on_c, 0, 44, 0
1, 135120, Note_on_c, 0, 32, 0
1, 135120, Note_on_c, 0, 84, 84
1, 135240, Note_on_c, 0, 84, 0
1, 135240, Note_on_c, 0, 80, 78
1, 135360, Note_on_c, 0, 80, 0
1, 135360, Note_on_c, 0, 89, 88
1, 135450, Note_on_c, 0, 89, 0
1, 135480, Note_on_c, 0, 80, 78
1, 135600, Tempo, 408163
1, 135600, Note_on_c, 0, 80, 0
1, 135600, Note_on_c, 0, 84, 84
1, 135720, Note_on_c, 0, 84, 0
1, 135720, Note_on_c, 0, 80, 76
1, 135840, Tempo, 402685
1, 135840, Note_on_c, 0, 80, 0
1, 135840, Note_on_c, 0, 46, 84
1, 135840, Note_on_c, 0, 34, 71
1, 135854, Control_c, 0, 64, 0
1, 135911, Control_c, 0, 64, 127
1, 135960, Tempo, 392157
1, 135960, Note_on_c, 0, 77, 78
1, 136080, Note_on_c, 0, 77, 0
1, 136080, Note_on_c, 0, 34, 0
1, 136080, Note_on_c, 0, 46, 0
1, 136080, Note_on_c, 0, 80, 84
1, 136200, Note_on_c, 0, 80, 0
1, 136200, Note_on_c, 0, 77, 78
1, 136320, Note_on_c, 0, 77, 0
1, 136320, Note_on_c, 0, 86, 88
1, 136410, Note_on_c, 0, 86, 0
1, 136440, Note_on_c, 0, 77, 78
1, 136560, Tempo, 406780
1, 136560, Note_on_c, 0, 77, 0
1, 136560, Note_on_c, 0, 80, 84
1, 136680, Note_on_c, 0, 80, 0
1, 136680, Note_on_c, 0, 77, 76
1, 136800, Tempo, 419580
1, 136800, Note_on_c, 0, 77, 0
1, 136800, Note_on_c, 0, 79, 81
1, 136800, Note_on_c, 0, 39, 84
1, 136800, Note_on_c, 0, 51, 84
1, 136816, Control_c, 0, 64, 0
1, 136890, Note_on_c, 0, 79, 0
1, 137040, Tempo, 397351
1, 137040, Note_on_c, 0, 51, 0
1, 137040, Note_on_c, 0, 39, 0
1, 137040, Note_on_c, 0, 87, 62
1, 137040, Note_on_c, 0, 63, 34
1, 137040, Note_on_c, 0, 67, 34
1, 137132, Control_c, 0, 64, 127
1, 137268, Note_on_c, 0, 67, 0
1, 137268, Note_on_c, 0, 63, 0
1, 137280, Note_on_c, 0, 63, 34
1, 137280, Note_on_c, 0, 67, 34
1, 137500, Tempo, 398671
1, 137508, Note_on_c, 0, 67, 0
1, 137508, Note_on_c, 0, 63, 0
1, 137520, Note_on_c, 0, 87, 0
1, 137520, Note_on_c, 0, 86, 46
1, 137520, Note_on_c, 0, 63, 34
1, 137520, Note_on_c, 0, 67, 34
1, 137540, Tempo, 400000
1, 137560, Tempo, 401338
1, 137580, Tempo, 402685
1, 137620, Tempo, 404040
1, 137640, Tempo, 405405
1, 137640, Note_on_c, 0, 86, 0
1, 137640, Note_on_c, 0, 87, 48
1, 137660, Tempo, 406780
1, 137700, Tempo, 408163
1, 137720, Tempo, 409556
1, 137740, Tempo, 413793
1, 137748, Note_on_c, 0, 67, 0
1, 137748, Note_on_c, 0, 63, 0
1, 137760, Note_on_c, 0, 87, 0
1, 137760, Note_on_c, 0, 89, 49
1, 137760, Note_on_c, 0, 60, 34
1, 137772, Control_c, 0, 64, 0
1, 137780, Tempo, 412371
1, 137800, Tempo, 410959
1, 137820, Tempo, 409556
1, 137840, Tempo, 408163
1, 137852, Control_c, 0, 64, 127
1, 137860, Tempo, 406780
1, 137880, Tempo, 405405
1, 137880, Note_on_c, 0, 89, 0
1, 137880, Note_on_c, 0, 87, 49
1, 137920, Tempo, 404040
1, 137940, Tempo, 402685
1, 137960, Tempo, 401338
1, 137980, Tempo, 400000
1, 138000, Tempo, 398671
1, 138000, Note_on_c, 0, 87, 0
1, 138000, Note_on_c, 0, 86, 48
1, 138000, Note_on_c, 0, 63, 34
1, 138000, Note_on_c, 0, 67, 34
1, 138020, Tempo, 397351
1, 138120, Note_on_c, 0, 86, 0
1, 138120, Note_on_c, 0, 84, 47
1, 138228, Note_on_c, 0, 67, 0
1, 138228, Note_on_c, 0, 63, 0
1, 138240, Note_on_c, 0, 84, 0
1, 138240, Note_on_c, 0, 83, 45
1, 138240, Note_on_c, 0, 63, 34
1, 138240, Note_on_c, 0, 67, 34
1, 138360, Note_on_c, 0, 83, 0
1, 138360, Note_on_c, 0, 84, 46
1, 138468, Note_on_c, 0, 67, 0
1, 138468, Note_on_c, 0, 63, 0
1, 138480, Tempo, 397351
1, 138480, Note_on_c, 0, 84, 0
1, 138480, Note_on_c, 0, 86, 49
1, 138480, Note_on_c, 0, 63, 34
1, 138480, Note_on_c, 0, 67, 34
1, 138520, Tempo, 398671
1, 138540, Tempo, 400000
1, 138580, Tempo, 401338
1, 138600, Tempo, 402685
1, 138600, Note_on_c, 0, 86, 0
1, 138600, Note_on_c, 0, 84, 47
1, 138640, Tempo, 404040
1, 138660, Tempo, 405405
1, 138700, Tempo, 408163
1, 138708, Note_on_c, 0, 67, 0
1, 138708, Note_on_c, 0, 63, 0
1, 138720, Note_on_c, 0, 60, 0
1, 138720, Note_on_c, 0, 84, 0
1, 138720, Note_on_c, 0, 82, 49
1, 138720, Note_on_c, 0, 56, 34
1, 138732, Control_c, 0, 64, 0
1, 138740, Tempo, 406780
1, 138760, Tempo, 405405
1, 138800, Tempo, 404040
1, 138800, Control_c, 0, 64, 127
1, 138820, Tempo, 402685
1, 138840, Note_on_c, 0, 82, 0
1, 138840, Note_on_c, 0, 80, 47
1, 138860, Tempo, 401338
1, 138880, Tempo, 400000
1, 138920, Tempo, 398671
1, 138940, Tempo, 397351
1, 138960, Tempo, 396040
1, 138960, Note_on_c, 0, 80, 0
1, 138960, Note_on_c, 0, 79, 46
1, 138960, Note_on_c, 0, 65, 34
1, 138960, Note_on_c, 0, 63, 34
1, 139080, Note_on_c, 0, 79, 0
1, 139080, Note_on_c, 0, 77, 45
1, 139188, Note_on_c, 0, 63, 0
1, 139188, Note_on_c, 0, 65, 0
1, 139200, Note_on_c, 0, 77, 0
1, 139200, Note_on_c, 0, 76, 45
1, 139200, Note_on_c, 0, 63, 34
1, 139200, Note_on_c, 0, 65, 34
1, 139320, Note_on_c, 0, 76, 0
1, 139320, Note_on_c, 0, 77, 45
1, 139420, Tempo, 396040
1, 139428, Note_on_c, 0, 65, 0
1, 139428, Note_on_c, 0, 63, 0
1, 139440, Note_on_c, 0, 77, 0
1, 139440, Note_on_c, 0, 79, 47
1, 139440, Note_on_c, 0, 63, 34
1, 139440, Note_on_c, 0, 65, 34
1, 139460, Tempo, 397351
1, 139480, Tempo, 398671
1, 139520, Tempo, 400000
1, 139540, Tempo, 401338
1, 139560, Note_on_c, 0, 79, 0
1, 139560, Note_on_c, 0, 77, 45
1, 139580, Tempo, 402685
1, 139600, Tempo, 404040
1, 139640, Tempo, 405405
1, 139660, Tempo, 406780
1, 139668, Note_on_c, 0, 65, 0
1, 139668, Note_on_c, 0, 63, 0
1, 139680, Tempo, 406780
1, 139680, Note_on_c, 0, 56, 0
1, 139680, Note_on_c, 0, 77, 0
1, 139680, Note_on_c, 0, 75, 46
1, 139680, Note_on_c, 0, 58, 34
1, 139697, Control_c, 0, 64, 0
1, 139720, Tempo, 405405
1, 139760, Tempo, 404040
1, 139777, Control_c, 0, 64, 127
1, 139780, Tempo, 402685
1, 139800, Note_on_c, 0, 75, 0
1, 139800, Note_on_c, 0, 74, 46
1, 139820, Tempo, 401338
1, 139840, Tempo, 400000
1, 139880, Tempo, 398671
1, 139900, Tempo, 397351
1, 139920, Note_on_c, 0, 74, 0
1, 139920, Note_on_c, 0, 72, 45
1, 139920, Note_on_c, 0, 62, 34
1, 139920, Note_on_c, 0, 65, 34
1, 140040, Note_on_c, 0, 72, 0
1, 140040, Note_on_c, 0, 70, 45
1, 140148, Note_on_c, 0, 65, 0
1, 140148, Note_on_c, 0, 62, 0
1, 140160, Note_on_c, 0, 70, 0
1, 140160, Note_on_c, 0, 69, 45
1, 140160, Note_on_c, 0, 62, 34
1, 140160, Note_on_c, 0, 65, 34
1, 140280, Note_on_c, 0, 69, 0
1, 140280, Note_on_c, 0, 70, 42
1, 140388, Note_on_c, 0, 65, 0
1, 140388, Note_on_c, 0, 62, 0
1, 140400, Note_on_c, 0, 70, 0
1, 140400, Note_on_c, 0, 72, 46
1, 140400, Note_on_c, 0, 62, 34
1, 140400, Note_on_c, 0, 65, 34
1, 140520, Note_on_c, 0, 72, 0
1, 140520, Note_on_c, 0, 68, 42
1, 140628, Note_on_c, 0, 65, 0
1, 140628, Note_on_c, 0, 62, 0
1, 140640, Tempo, 419580
1, 140640, Note_on_c, 0, 58, 0
1, 140640, Note_on_c, 0, 68, 0
1, 140640, Note_on_c, 0, 67, 66
1, 140640, Note_on_c, 0, 51, 59
1, 140653, Control_c, 0, 64, 0
1, 140730, Note_on_c, 0, 67, 0
1, 140880, Tempo, 397351
1, 140880, Note_on_c, 0, 75, 68
1, 140880, Note_on_c, 0, 87, 68
1, 140880, Note_on_c, 0, 55, 44
1, 140880, Note_on_c, 0, 63, 44
1, 140986, Control_c, 0, 64, 127
1, 141108, Note_on_c, 0, 63, 0
1, 141108, Note_on_c, 0, 55, 0
1, 141120, Note_on_c, 0, 55, 44
1, 141120, Note_on_c, 0, 63, 44
1, 141340, Tempo, 398671
1, 141348, Note_on_c, 0, 63, 0
1, 141348, Note_on_c, 0, 55, 0
1, 141360, Note_on_c, 0, 87, 0
1, 141360, Note_on_c, 0, 75, 0
1, 141360, Note_on_c, 0, 86, 61
1, 141360, Note_on_c, 0, 55, 44
1, 141360, Note_on_c, 0, 63, 44
1, 141380, Tempo, 400000
1, 141400, Tempo, 401338
1, 141420, Tempo, 402685
1, 141460, Tempo, 404040
1, 141480, Tempo, 405405
1, 141480, Note_on_c, 0, 86, 0
1, 141480, Note_on_c, 0, 87, 64
1, 141500, Tempo, 406780
1, 141540, Tempo, 408163
1, 141560, Tempo, 409556
1, 141580, Tempo, 413793
1, 141588, Note_on_c, 0, 63, 0
1, 141588, Note_on_c, 0, 55, 0
1, 141600, Note_on_c, 0, 51, 0
1, 141600, Note_on_c, 0, 87, 0
1, 141600, Note_on_c, 0, 89, 66
1, 141600, Note_on_c, 0, 48, 45
1, 141616, Control_c, 0, 64, 0
1, 141620, Tempo, 412371
1, 141640, Tempo, 410959
1, 141660, Tempo, 409556
1, 141675, Control_c, 0, 64, 127
1, 141680, Tempo, 408163
1, 141700, Tempo, 406780
1, 141720, Tempo, 405405
1, 141720, Note_on_c, 0, 89, 0
1, 141720, Note_on_c, 0, 87, 66
1, 141760, Tempo, 404040
1, 141780, Tempo, 402685
1, 141800, Tempo, 401338
1, 141820, Tempo, 400000
1, 141840, Tempo, 398671
1, 141840, Note_on_c, 0, 87, 0
1, 141840, Note_on_c, 0, 86, 65
1, 141840, Note_on_c, 0, 55, 46
1, 141840, Note_on_c, 0, 51, 46
1, 141840, Note_on_c, 0, 60, 46
1, 141860, Tempo, 397351
1, 141960, Note_on_c, 0, 86, 0
1, 141960, Note_on_c, 0, 84, 64
1, 142068, Note_on_c, 0, 51, 0
1, 142068, Note_on_c, 0, 60, 0
1, 142068, Note_on_c, 0, 55, 0
1, 142080, Note_on_c, 0, 84, 0
1, 142080, Note_on_c, 0, 83, 62
1, 142080, Note_on_c, 0, 55, 46
1, 142080, Note_on_c, 0, 51, 46
1, 142080, Note_on_c, 0, 60, 46
1, 142200, Note_on_c, 0, 83, 0
1, 142200, Note_on_c, 0, 84, 64
1, 142308, Note_on_c, 0, 51, 0
1, 142308, Note_on_c, 0, 60, 0
1, 142308, Note_on_c, 0, 55, 0
1, 142320, Tempo, 397351
1, 142320, Note_on_c, 0, 84, 0
1, 142320, Note_on_c, 0, 86, 68
1, 142320, Note_on_c, 0, 55, 47
1, 142320, Note_on_c, 0, 51, 47
1, 142320, Note_on_c, 0, 60, 47
1, 142360, Tempo, 398671
1, 142380, Tempo, 400000
1, 142420, Tempo, 401338
1, 142440, Tempo, 402685
1, 142440, Note_on_c, 0, 86, 0
1, 142440, Note_on_c, 0, 84, 66
1, 142480, Tempo, 404040
1, 142500, Tempo, 405405
1, 142540, Tempo, 408163
1, 142548, Note_on_c, 0, 51, 0
1, 142548, Note_on_c, 0, 60, 0
1, 142548, Note_on_c, 0, 55, 0
1, 142560, Note_on_c, 0, 48, 0
1, 142560, Note_on_c, 0, 84, 0
1, 142560, Note_on_c, 0, 82, 69
1, 142560, Note_on_c, 0, 44, 47
1, 142575, Control_c, 0, 64, 0
1, 142580, Tempo, 406780
1, 142600, Tempo, 405405
1, 142640, Tempo, 404040
1, 142657, Control_c, 0, 64, 127
1, 142660, Tempo, 402685
1, 142680, Note_on_c, 0, 82, 0
1, 142680, Note_on_c, 0, 80, 67
1, 142700, Tempo, 401338
1, 142720, Tempo, 400000
1, 142760, Tempo, 398671
1, 142780, Tempo, 397351
1, 142800, Tempo, 396040
1, 142800, Note_on_c, 0, 80, 0
1, 142800, Note_on_c, 0, 79, 66
1, 142800, Note_on_c, 0, 53, 48
1, 142800, Note_on_c, 0, 56, 48
1, 142800, Note_on_c, 0, 51, 48
1, 142920, Note_on_c, 0, 79, 0
1, 142920, Note_on_c, 0, 77, 65
1, 143028, Note_on_c, 0, 56, 0
1, 143028, Note_on_c, 0, 51, 0
1, 143028, Note_on_c, 0, 53, 0
1, 143040, Note_on_c, 0, 77, 0
1, 143040, Note_on_c, 0, 76, 65
1, 143040, Note_on_c, 0, 53, 48
1, 143040, Note_on_c, 0, 51, 48
1, 143040, Note_on_c, 0, 56, 48
1, 143160, Note_on_c, 0, 76, 0
1, 143160, Note_on_c, 0, 77, 64
1, 143260, Tempo, 396040
1, 143268, Note_on_c, 0, 51, 0
1, 143268, Note_on_c, 0, 56, 0
1, 143268, Note_on_c, 0, 53, 0
1, 143280, Note_on_c, 0, 77, 0
1, 143280, Note_on_c, 0, 79, 68
1, 143280, Note_on_c, 0, 53, 49
1, 143280, Note_on_c, 0, 51, 49
1, 143280, Note_on_c, 0, 56, 49
1, 143300, Tempo, 397351
1, 143320, Tempo, 398671
1, 143360, Tempo, 400000
1, 143380, Tempo, 401338
1, 143400, Note_on_c, 0, 79, 0
1, 143400, Note_on_c, 0, 77, 66
1, 143420, Tempo, 402685
1, 143440, Tempo, 404040
1, 143480, Tempo, 405405
1, 143500, Tempo, 406780
1, 143508, Note_on_c, 0, 51, 0
1, 143508, Note_on_c, 0, 56, 0
1, 143508, Note_on_c, 0, 53, 0
1, 143520, Tempo, 406780
1, 143520, Note_on_c, 0, 44, 0
1, 143520, Note_on_c, 0, 77, 0
1, 143520, Note_on_c, 0, 75, 68
1, 143520, Note_on_c, 0, 46, 49
1, 143532, Control_c, 0, 64, 0
1, 143560, Tempo, 405405
1, 143600, Tempo, 404040
1, 143620, Tempo, 402685
1, 143640, Note_on_c, 0, 75, 0
1, 143640, Note_on_c, 0, 74, 68
1, 143640, Control_c, 0, 64, 127
1, 143660, Tempo, 401338
1, 143680, Tempo, 400000
1, 143720, Tempo, 398671
1, 143740, Tempo, 397351
1, 143760, Note_on_c, 0, 74, 0
1, 143760, Note_on_c, 0, 72, 68
1, 143760, Note_on_c, 0, 53, 50
1, 143760, Note_on_c, 0, 50, 50
1, 143760, Note_on_c, 0, 58, 50
1, 143880, Note_on_c, 0, 72, 0
1, 143880, Note_on_c, 0, 70, 68
1, 143988, Note_on_c, 0, 50, 0
1, 143988, Note_on_c, 0, 58, 0
1, 143988, Note_on_c, 0, 53, 0
1, 144000, Note_on_c, 0, 70, 0
1, 144000, Note_on_c, 0, 69, 67
1, 144000, Note_on_c, 0, 53, 50
1, 144000, Note_on_c, 0, 50, 50
1, 144000, Note_on_c, 0, 58, 50
1, 144120, Note_on_c, 0, 69, 0
1, 144120, Note_on_c, 0, 70, 64
1, 144200, Tempo, 396040
1, 144220, Tempo, 397351
1, 144228, Note_on_c, 0, 50, 0
1, 144228, Note_on_c, 0, 58, 0
1, 144228, Note_on_c, 0, 53, 0
1, 144240, Tempo, 398671
1, 144240, Note_on_c, 0, 70, 0
1, 144240, Note_on_c, 0, 72, 70
1, 144240, Note_on_c, 0, 53, 51
1, 144240, Note_on_c, 0, 50, 51
1, 144240, Note_on_c, 0, 58, 51
1, 144260, Tempo, 401338
1, 144280, Tempo, 402685
1, 144300, Tempo, 405405
1, 144320, Tempo, 406780
1, 144340, Tempo, 409556
1, 144360, Tempo, 413793
1, 144360, Note_on_c, 0, 72, 0
1, 144360, Note_on_c, 0, 70, 64
1, 144380, Tempo, 418118
1, 144400, Tempo, 422535
1, 144420, Tempo, 427046
1, 144440, Tempo, 431655
1, 144460, Tempo, 436364
1, 144468, Note_on_c, 0, 50, 0
1, 144468, Note_on_c, 0, 58, 0
1, 144468, Note_on_c, 0, 53, 0
1, 144480, Tempo, 442804
1, 144480, Note_on_c, 0, 46, 0
1, 144480, Note_on_c, 0, 70, 0
1, 144480, Note_on_c, 0, 75, 83
1, 144480, Note_on_c, 0, 39, 67
1, 144493, Control_c, 0, 64, 0
1, 144600, Note_on_c, 0, 75, 0
1, 144600, Note_on_c, 0, 51, 60
1, 144708, Note_on_c, 0, 39, 0
1, 144720, Tempo, 397351
1, 144720, Note_on_c, 0, 51, 0
1, 144720, Note_on_c, 0, 63, 82
1, 144720, Note_on_c, 0, 39, 67
1, 144840, Note_on_c, 0, 51, 59
1, 144948, Note_on_c, 0, 39, 0
1, 144960, Tempo, 404040
1, 144960, Note_on_c, 0, 51, 0
1, 144960, Note_on_c, 0, 39, 67
1, 145080, Note_on_c, 0, 51, 60
1, 145188, Note_on_c, 0, 39, 0
1, 145200, Tempo, 397351
1, 145200, Note_on_c, 0, 51, 0
1, 145200, Note_on_c, 0, 63, 0
1, 145200, Note_on_c, 0, 61, 80
1, 145200, Note_on_c, 0, 67, 80
1, 145200, Note_on_c, 0, 39, 66
1, 145320, Note_on_c, 0, 67, 0
1, 145320, Note_on_c, 0, 61, 0
1, 145320, Note_on_c, 0, 51, 60
1, 145428, Note_on_c, 0, 39, 0
1, 145440, Note_on_c, 0, 51, 0
1, 145440, Note_on_c, 0, 60, 81
1, 145440, Note_on_c, 0, 68, 81
1, 145440, Note_on_c, 0, 39, 66
1, 145560, Note_on_c, 0, 68, 0
1, 145560, Note_on_c, 0, 60, 0
1, 145560, Note_on_c, 0, 51, 59
1, 145668, Note_on_c, 0, 39, 0
1, 145680, Note_on_c, 0, 51, 0
1, 145680, Note_on_c, 0, 67, 82
1, 145680, Note_on_c, 0, 70, 82
1, 145680, Note_on_c, 0, 39, 66
1, 145800, Note_on_c, 0, 70, 0
1, 145800, Note_on_c, 0, 67, 0
1, 145800, Note_on_c, 0, 51, 60
1, 145908, Note_on_c, 0, 39, 0
1, 145920, Note_on_c, 0, 51, 0
1, 145920, Note_on_c, 0, 68, 83
1, 145920, Note_on_c, 0, 72, 83
1, 145920, Note_on_c, 0, 39, 66
1, 146040, Note_on_c, 0, 72, 0
1, 146040, Note_on_c, 0, 68, 0
1, 146040, Note_on_c, 0, 51, 60
1, 146148, Note_on_c, 0, 39, 0
1, 146160, Note_on_c, 0, 51, 0
1, 146160, Note_on_c, 0, 68, 85
1, 146160, Note_on_c, 0, 74, 85
1, 146160, Note_on_c, 0, 39, 66
1, 146280, Note_on_c, 0, 74, 0
1, 146280, Note_on_c, 0, 68, 0
1, 146280, Note_on_c, 0, 51, 61
1, 146388, Note_on_c, 0, 39, 0
1, 146400, Tempo, 418118
1, 146400, Note_on_c, 0, 51, 0
1, 146400, Note_on_c, 0, 67, 83
1, 146400, Note_on_c, 0, 75, 83
1, 146400, Note_on_c, 0, 39, 67
1, 146520, Note_on_c, 0, 75, 0
1, 146520, Note_on_c, 0, 67, 0
1, 146520, Note_on_c, 0, 51, 60
1, 146628, Note_on_c, 0, 39, 0
1, 146640, Tempo, 397351
1, 146640, Note_on_c, 0, 51, 0
1, 146640, Note_on_c, 0, 75, 82
1, 146640, Note_on_c, 0, 39, 67
1, 146760, Note_on_c, 0, 51, 59
1, 146868, Note_on_c, 0, 39, 0
1, 146880, Tempo, 404040
1, 146880, Note_on_c, 0, 51, 0
1, 146880, Note_on_c, 0, 39, 67
1, 147000, Note_on_c, 0, 51, 60
1, 147108, Note_on_c, 0, 39, 0
1, 147120, Tempo, 397351
1, 147120, Note_on_c, 0, 51, 0
1, 147120, Note_on_c, 0, 75, 0
1, 147120, Note_on_c, 0, 73, 80
1, 147120, Note_on_c, 0, 79, 80
1, 147120, Note_on_c, 0, 39, 66
1, 147240, Note_on_c, 0, 79, 0
1, 147240, Note_on_c, 0, 73, 0
1, 147240, Note_on_c, 0, 51, 60
1, 147348, Note_on_c, 0, 39, 0
1, 147360, Note_on_c, 0, 51, 0
1, 147360, Note_on_c, 0, 72, 81
1, 147360, Note_on_c, 0, 80, 81
1, 147360, Note_on_c, 0, 39, 66
1, 147480, Note_on_c, 0, 80, 0
1, 147480, Note_on_c, 0, 72, 0
1, 147480, Note_on_c, 0, 51, 59
1, 147588, Note_on_c, 0, 39, 0
1, 147600, Note_on_c, 0, 51, 0
1, 147600, Note_on_c, 0, 79, 82
1, 147600, Note_on_c, 0, 82, 82
1, 147600, Note_on_c, 0, 39, 66
1, 147720, Note_on_c, 0, 82, 0
1, 147720, Note_on_c, 0, 79, 0
1, 147720, Note_on_c, 0, 51, 60
1, 147828, Note_on_c, 0, 39, 0
1, 147840, Note_on_c, 0, 51, 0
1, 147840, Note_on_c, 0, 80, 83
1, 147840, Note_on_c, 0, 84, 83
1, 147840, Note_on_c, 0, 39, 66
1, 147960, Note_on_c, 0, 84, 0
1, 147960, Note_on_c, 0, 80, 0
1, 147960, Note_on_c, 0, 51, 60
1, 148068, Note_on_c, 0, 39, 0
1, 148080, Tempo, 419580
1, 148080, Note_on_c, 0, 51, 0
1, 148080, Note_on_c, 0, 80, 85
1, 148080, Note_on_c, 0, 86, 85
1, 148080, Note_on_c, 0, 39, 66
1, 148200, Note_on_c, 0, 86, 0
1, 148200, Note_on_c, 0, 80, 0
1, 148200, Note_on_c, 0, 51, 61
1, 148308, Note_on_c, 0, 39, 0
1, 148320, Tempo, 400000
1, 148320, Note_on_c, 0, 51, 0
1, 148320, Note_on_c, 0, 87, 94
1, 148320, Note_on_c, 0, 79, 94
1, 148320, Note_on_c, 0, 39, 66
1, 148440, Note_on_c, 0, 51, 59
1, 148548, Note_on_c, 0, 39, 0
1, 148560, Note_on_c, 0, 51, 0
1, 148560, Note_on_c, 0, 39, 66
1, 148680, Note_on_c, 0, 51, 60
1, 148788, Note_on_c, 0, 39, 0
1, 148800, Note_on_c, 0, 51, 0
1, 148800, Note_on_c, 0, 39, 66
1, 148920, Note_on_c, 0, 51, 60
1, 149028, Note_on_c, 0, 39, 0
1, 149040, Note_on_c, 0, 51, 0
1, 149040, Note_on_c, 0, 39, 66
1, 149160, Note_on_c, 0, 51, 61
1, 149268, Note_on_c, 0, 39, 0
1, 149280, Tempo, 397351
1, 149280, Note_on_c, 0, 87, 0
1, 149280, Note_on_c, 0, 79, 0
1, 149280, Note_on_c, 0, 51, 0
1, 149280, Note_on_c, 0, 67, 88
1, 149280, Note_on_c, 0, 75, 88
1, 149280, Note_on_c, 0, 38, 66
1, 149400, Note_on_c, 0, 50, 59
1, 149508, Note_on_c, 0, 38, 0
1, 149520, Note_on_c, 0, 50, 0
1, 149520, Note_on_c, 0, 38, 66
1, 149640, Note_on_c, 0, 50, 60
1, 149748, Note_on_c, 0, 38, 0
1, 149760, Note_on_c, 0, 50, 0
1, 149760, Note_on_c, 0, 38, 66
1, 149880, Note_on_c, 0, 50, 60
1, 149988, Note_on_c, 0, 38, 0
1, 150000, Tempo, 430108
1, 150000, Note_on_c, 0, 50, 0
1, 150000, Note_on_c, 0, 38, 66
1, 150120, Note_on_c, 0, 50, 61
1, 150228, Note_on_c, 0, 38, 0
1, 150240, Tempo, 400000
1, 150240, Note_on_c, 0, 67, 0
1, 150240, Note_on_c, 0, 75, 0
1, 150240, Note_on_c, 0, 50, 0
1, 150240, Note_on_c, 0, 87, 99
1, 150240, Note_on_c, 0, 79, 99
1, 150240, Note_on_c, 0, 36, 66
1, 150360, Note_on_c, 0, 48, 59
1, 150468, Note_on_c, 0, 36, 0
1, 150480, Note_on_c, 0, 48, 0
1, 150480, Note_on_c, 0, 36, 66
1, 150600, Note_on_c, 0, 48, 60
1, 150708, Note_on_c, 0, 36, 0
1, 150720, Note_on_c, 0, 48, 0
1, 150720, Note_on_c, 0, 36, 66
1, 150840, Note_on_c, 0, 48, 60
1, 150948, Note_on_c, 0, 36, 0
1, 150960, Note_on_c, 0, 48, 0
1, 150960, Note_on_c, 0, 36, 66
1, 151080, Note_on_c, 0, 48, 61
1, 151188, Note_on_c, 0, 36, 0
1, 151200, Tempo, 396040
1, 151200, Note_on_c, 0, 87, 0
1, 151200, Note_on_c, 0, 79, 0
1, 151200, Note_on_c, 0, 48, 0
1, 151200, Note_on_c, 0, 67, 92
1, 151200, Note_on_c, 0, 75, 92
1, 151200, Note_on_c, 0, 34, 66
1, 151320, Note_on_c, 0, 46, 59
1, 151428, Note_on_c, 0, 34, 0
1, 151440, Note_on_c, 0, 46, 0
1, 151440, Note_on_c, 0, 34, 66
1, 151560, Note_on_c, 0, 46, 60
1, 151668, Note_on_c, 0, 34, 0
1, 151680, Note_on_c, 0, 46, 0
1, 151680, Note_on_c, 0, 34, 66
1, 151800, Note_on_c, 0, 46, 60
1, 151908, Note_on_c, 0, 34, 0
1, 151920, Tempo, 425532
1, 151920, Note_on_c, 0, 46, 0
1, 151920, Note_on_c, 0, 34, 66
1, 152040, Note_on_c, 0, 46, 61
1, 152148, Note_on_c, 0, 34, 0
1, 152160, Tempo, 400000
1, 152160, Note_on_c, 0, 67, 0
1, 152160, Note_on_c, 0, 75, 0
1, 152160, Note_on_c, 0, 46, 0
1, 152160, Note_on_c, 0, 87, 102
1, 152160, Note_on_c, 0, 84, 102
1, 152160, Note_on_c, 0, 32, 66
1, 152280, Note_on_c, 0, 44, 59
1, 152388, Note_on_c, 0, 32, 0
1, 152400, Note_on_c, 0, 44, 0
1, 152400, Note_on_c, 0, 32, 66
1, 152520, Note_on_c, 0, 44, 60
1, 152628, Note_on_c, 0, 32, 0
1, 152640, Note_on_c, 0, 44, 0
1, 152640, Note_on_c, 0, 32, 66
1, 152760, Note_on_c, 0, 44, 60
1, 152868, Note_on_c, 0, 32, 0
1, 152880, Note_on_c, 0, 44, 0
1, 152880, Note_on_c, 0, 32, 66
1, 153000, Note_on_c, 0, 44, 61
1, 153108, Note_on_c, 0, 32, 0
1, 153120, Tempo, 396040
1, 153120, Note_on_c, 0, 87, 0
1, 153120, Note_on_c, 0, 84, 0
1, 153120, Note_on_c, 0, 44, 0
1, 153120, Note_on_c, 0, 72, 96
1, 153120, Note_on_c, 0, 75, 96
1, 153120, Note_on_c, 0, 31, 66
1, 153240, Note_on_c, 0, 43, 59
1, 153348, Note_on_c, 0, 31, 0
1, 153360, Note_on_c, 0, 43, 0
1, 153360, Note_on_c, 0, 31, 66
1, 153480, Note_on_c, 0, 43, 60
1, 153588, Note_on_c, 0, 31, 0
1, 153600, Note_on_c, 0, 43, 0
1, 153600, Note_on_c, 0, 31, 66
1, 153720, Note_on_c, 0, 43, 60
1, 153828, Note_on_c, 0, 31, 0
1, 153840, Tempo, 422535
1, 153840, Note_on_c, 0, 43, 0
1, 153840, Note_on_c, 0, 31, 66
1, 153960, Note_on_c, 0, 43, 61
1, 154068, Note_on_c, 0, 31, 0
1, 154080, Tempo, 481928
1, 154080, Note_on_c, 0, 72, 0
1, 154080, Note_on_c, 0, 75, 0
1, 154080, Note_on_c, 0, 43, 0
1, 154080, Note_on_c, 0, 84, 93
1, 154080, Note_on_c, 0, 81, 93
1, 154080, Note_on_c, 0, 86, 93
1, 154080, Note_on_c, 0, 30, 62
1, 154080, Note_on_c, 0, 42, 74
1, 155040, Tempo, 1000000
1, 155040, Note_on_c, 0, 42, 0
1, 155040, Note_on_c, 0, 86, 0
1, 155040, Note_on_c, 0, 84, 0
1, 155040, Note_on_c, 0, 81, 0
1, 155040, Note_on_c, 0, 30, 0
1, 155040, Note_on_c, 0, 53, 86
1, 155040, Note_on_c, 0, 59, 102
1, 155040, Note_on_c, 0, 62, 102
1, 155040, Note_on_c, 0, 31, 71
1, 155040, Note_on_c, 0, 43, 84
1, 156000, Tempo, 410004
1, 156000, Marker_t, "Allegro di molto e con brio - repitition"
1, 156000, Note_on_c, 0, 43, 0
1, 156000, Note_on_c, 0, 62, 0
1, 156000, Note_on_c, 0, 53, 0
1, 156000, Note_on_c, 0, 59, 0
1, 156000, Note_on_c, 0, 31, 0
1, 156000, Note_on_c, 0, 60, 50
1, 156000, Note_on_c, 0, 36, 44
1, 156060, Tempo, 408469
1, 156103, Control_c, 0, 64, 127
1, 156120, Tempo, 407000
1, 156120, Note_on_c, 0, 48, 41
1, 156180, Tempo, 405488
1, 156228, Note_on_c, 0, 36, 0
1, 156240, Tempo, 403986
1, 156240, Note_on_c, 0, 48, 0
1, 156240, Note_on_c, 0, 36, 44
1, 156300, Tempo, 402522
1, 156360, Tempo, 401070
1, 156360, Note_on_c, 0, 48, 41
1, 156420, Tempo, 399600
1, 156468, Note_on_c, 0, 36, 0
1, 156480, Tempo, 398168
1, 156480, Note_on_c, 0, 48, 0
1, 156480, Note_on_c, 0, 36, 44
1, 156540, Tempo, 396720
1, 156600, Tempo, 395309
1, 156600, Note_on_c, 0, 48, 41
1, 156660, Tempo, 393908
1, 156669, Control_c, 0, 64, 0
1, 156708, Note_on_c, 0, 36, 0
1, 156720, Tempo, 392490
1, 156720, Note_on_c, 0, 48, 0
1, 156720, Note_on_c, 0, 60, 0
1, 156720, Note_on_c, 0, 58, 52
1, 156720, Note_on_c, 0, 64, 52
1, 156720, Note_on_c, 0, 36, 45
1, 156780, Tempo, 391083
1, 156810, Note_on_c, 0, 64, 0
1, 156810, Note_on_c, 0, 58, 0
1, 156840, Tempo, 389737
1, 156840, Note_on_c, 0, 48, 41
1, 156948, Note_on_c, 0, 36, 0
1, 156960, Note_on_c, 0, 48, 0
1, 156960, Note_on_c, 0, 56, 54
1, 156960, Note_on_c, 0, 65, 54
1, 156960, Note_on_c, 0, 36, 45
1, 157050, Note_on_c, 0, 65, 0
1, 157050, Note_on_c, 0, 56, 0
1, 157080, Note_on_c, 0, 48, 46
1, 157188, Note_on_c, 0, 36, 0
1, 157200, Tempo, 384615
1, 157200, Note_on_c, 0, 48, 0
1, 157200, Note_on_c, 0, 64, 56
1, 157200, Note_on_c, 0, 67, 56
1, 157200, Note_on_c, 0, 36, 47
1, 157290, Note_on_c, 0, 67, 0
1, 157290, Note_on_c, 0, 64, 0
1, 157320, Note_on_c, 0, 48, 47
1, 157428, Note_on_c, 0, 36, 0
1, 157440, Note_on_c, 0, 48, 0
1, 157440, Note_on_c, 0, 65, 57
1, 157440, Note_on_c, 0, 68, 57
1, 157440, Note_on_c, 0, 36, 49
1, 157530, Note_on_c, 0, 68, 0
1, 157530, Note_on_c, 0, 65, 0
1, 157560, Note_on_c, 0, 48, 50
1, 157668, Note_on_c, 0, 36, 0
1, 157680, Tempo, 390879
1, 157680, Note_on_c, 0, 48, 0
1, 157680, Note_on_c, 0, 62, 59
1, 157680, Note_on_c, 0, 71, 59
1, 157680, Note_on_c, 0, 36, 51
1, 157770, Note_on_c, 0, 71, 0
1, 157770, Note_on_c, 0, 62, 0
1, 157800, Note_on_c, 0, 48, 53
1, 157908, Note_on_c, 0, 36, 0
1, 157920, Tempo, 414594
1, 157920, Note_on_c, 0, 48, 0
1, 157920, Note_on_c, 0, 63, 61
1, 157920, Note_on_c, 0, 72, 61
1, 157920, Note_on_c, 0, 36, 55
1, 158010, Note_on_c, 0, 72, 0
1, 158010, Note_on_c, 0, 63, 0
1, 158040, Note_on_c, 0, 48, 50
1, 158148, Note_on_c, 0, 36, 0
1, 158160, Tempo, 389737
1, 158160, Note_on_c, 0, 48, 0
1, 158160, Note_on_c, 0, 64, 55
1, 158160, Note_on_c, 0, 72, 55
1, 158160, Note_on_c, 0, 36, 53
1, 158229, Control_c, 0, 64, 127
1, 158280, Note_on_c, 0, 48, 47
1, 158388, Note_on_c, 0, 36, 0
1, 158400, Note_on_c, 0, 48, 0
1, 158400, Note_on_c, 0, 36, 53
1, 158520, Note_on_c, 0, 48, 47
1, 158628, Note_on_c, 0, 36, 0
1, 158640, Note_on_c, 0, 64, 0
1, 158640, Note_on_c, 0, 72, 0
1, 158640, Note_on_c, 0, 48, 0
1, 158640, Note_on_c, 0, 70, 51
1, 158640, Note_on_c, 0, 76, 51
1, 158640, Note_on_c, 0, 36, 44
1, 158675, Control_c, 0, 64, 0
1, 158730, Note_on_c, 0, 76, 0
1, 158730, Note_on_c, 0, 70, 0
1, 158760, Note_on_c, 0, 48, 40
1, 158868, Note_on_c, 0, 36, 0
1, 158880, Note_on_c, 0, 48, 0
1, 158880, Note_on_c, 0, 68, 53
1, 158880, Note_on_c, 0, 77, 53
1, 158880, Note_on_c, 0, 36, 43
1, 158970, Note_on_c, 0, 77, 0
1, 158970, Note_on_c, 0, 68, 0
1, 159000, Note_on_c, 0, 48, 45
1, 159108, Note_on_c, 0, 36, 0
1, 159120, Tempo, 385852
1, 159120, Note_on_c, 0, 48, 0
1, 159120, Note_on_c, 0, 76, 55
1, 159120, Note_on_c, 0, 79, 55
1, 159120, Note_on_c, 0, 36, 46
1, 159210, Note_on_c, 0, 79, 0
1, 159210, Note_on_c, 0, 76, 0
1, 159240, Note_on_c, 0, 48, 47
1, 159348, Note_on_c, 0, 36, 0
1, 159360, Note_on_c, 0, 48, 0
1, 159360, Note_on_c, 0, 77, 57
1, 159360, Note_on_c, 0, 80, 57
1, 159360, Note_on_c, 0, 36, 48
1, 159450, Note_on_c, 0, 80, 0
1, 159450, Note_on_c, 0, 77, 0
1, 159480, Note_on_c, 0, 48, 50
1, 159588, Note_on_c, 0, 36, 0
1, 159600, Note_on_c, 0, 48, 0
1, 159600, Note_on_c, 0, 74, 59
1, 159600, Note_on_c, 0, 83, 59
1, 159600, Note_on_c, 0, 36, 51
1, 159690, Note_on_c, 0, 83, 0
1, 159690, Note_on_c, 0, 74, 0
1, 159720, Note_on_c, 0, 48, 53
1, 159828, Note_on_c, 0, 36, 0
1, 159840, Tempo, 396720
1, 159840, Note_on_c, 0, 48, 0
1, 159840, Note_on_c, 0, 72, 51
1, 159840, Note_on_c, 0, 79, 61
1, 159840, Note_on_c, 0, 75, 51
1, 159840, Note_on_c, 0, 84, 61
1, 159840, Note_on_c, 0, 36, 55
1, 159925, Control_c, 0, 64, 127
1, 159960, Note_on_c, 0, 48, 50
1, 160068, Note_on_c, 0, 36, 0
1, 160080, Tempo, 392516
1, 160080, Note_on_c, 0, 48, 0
1, 160080, Note_on_c, 0, 36, 53
1, 160200, Note_on_c, 0, 48, 47
1, 160308, Note_on_c, 0, 36, 0
1, 160320, Note_on_c, 0, 79, 0
1, 160320, Note_on_c, 0, 84, 0
1, 160320, Note_on_c, 0, 72, 0
1, 160320, Note_on_c, 0, 48, 0
1, 160320, Note_on_c, 0, 75, 0
1, 160320, Note_on_c, 0, 67, 53
1, 160320, Note_on_c, 0, 71, 53
1, 160320, Note_on_c, 0, 77, 63
1, 160320, Note_on_c, 0, 79, 63
1, 160320, Note_on_c, 0, 38, 55
1, 160331, Control_c, 0, 64, 0
1, 160440, Note_on_c, 0, 50, 50
1, 160454, Control_c, 0, 64, 127
1, 160548, Note_on_c, 0, 38, 0
1, 160560, Tempo, 403986
1, 160560, Note_on_c, 0, 50, 0
1, 160560, Note_on_c, 0, 38, 55
1, 160680, Note_on_c, 0, 50, 51
1, 160788, Note_on_c, 0, 38, 0
1, 160800, Tempo, 395205
1, 160800, Note_on_c, 0, 71, 0
1, 160800, Note_on_c, 0, 79, 0
1, 160800, Note_on_c, 0, 67, 0
1, 160800, Note_on_c, 0, 50, 0
1, 160800, Note_on_c, 0, 77, 0
1, 160800, Note_on_c, 0, 67, 56
1, 160800, Note_on_c, 0, 72, 56
1, 160800, Note_on_c, 0, 75, 67
1, 160800, Note_on_c, 0, 39, 55
1, 160811, Control_c, 0, 64, 0
1, 160892, Control_c, 0, 64, 127
1, 160920, Note_on_c, 0, 51, 55
1, 161028, Note_on_c, 0, 39, 0
1, 161040, Note_on_c, 0, 51, 0
1, 161040, Note_on_c, 0, 39, 55
1, 161160, Note_on_c, 0, 51, 55
1, 161268, Note_on_c, 0, 39, 0
1, 161280, Note_on_c, 0, 67, 0
1, 161280, Note_on_c, 0, 75, 0
1, 161280, Note_on_c, 0, 72, 0
1, 161280, Note_on_c, 0, 51, 0
1, 161280, Note_on_c, 0, 65, 60
1, 161280, Note_on_c, 0, 68, 60
1, 161280, Note_on_c, 0, 74, 71
1, 161280, Note_on_c, 0, 41, 55
1, 161294, Control_c, 0, 64, 0
1, 161372, Control_c, 0, 64, 127
1, 161400, Note_on_c, 0, 53, 53
1, 161508, Note_on_c, 0, 41, 0
1, 161520, Tempo, 402037
1, 161520, Note_on_c, 0, 53, 0
1, 161520, Note_on_c, 0, 41, 55
1, 161640, Note_on_c, 0, 53, 55
1, 161748, Note_on_c, 0, 41, 0
1, 161760, Note_on_c, 0, 65, 0
1, 161760, Note_on_c, 0, 74, 0
1, 161760, Note_on_c, 0, 68, 0
1, 161760, Note_on_c, 0, 53, 0
1, 161760, Note_on_c, 0, 63, 62
1, 161760, Note_on_c, 0, 67, 74
1, 161760, Note_on_c, 0, 72, 74
1, 161760, Note_on_c, 0, 43, 56
1, 161771, Control_c, 0, 64, 0
1, 161866, Control_c, 0, 64, 127
1, 161880, Note_on_c, 0, 55, 56
1, 161988, Note_on_c, 0, 43, 0
1, 162000, Note_on_c, 0, 55, 0
1, 162000, Note_on_c, 0, 43, 57
1, 162120, Note_on_c, 0, 55, 57
1, 162228, Note_on_c, 0, 43, 0
1, 162240, Note_on_c, 0, 67, 0
1, 162240, Note_on_c, 0, 55, 0
1, 162240, Note_on_c, 0, 66, 74
1, 162240, Note_on_c, 0, 44, 58
1, 162252, Control_c, 0, 64, 0
1, 162353, Control_c, 0, 64, 127
1, 162360, Note_on_c, 0, 56, 59
1, 162468, Note_on_c, 0, 44, 0
1, 162480, Note_on_c, 0, 56, 0
1, 162480, Note_on_c, 0, 44, 59
1, 162600, Note_on_c, 0, 56, 60
1, 162708, Note_on_c, 0, 44, 0
1, 162720, Note_on_c, 0, 66, 0
1, 162720, Note_on_c, 0, 56, 0
1, 162720, Note_on_c, 0, 69, 77
1, 162720, Note_on_c, 0, 42, 60
1, 162737, Control_c, 0, 64, 0
1, 162789, Control_c, 0, 64, 127
1, 162840, Note_on_c, 0, 54, 55
1, 162948, Note_on_c, 0, 42, 0
1, 162960, Note_on_c, 0, 54, 0
1, 162960, Note_on_c, 0, 42, 61
1, 163080, Note_on_c, 0, 54, 55
1, 163188, Note_on_c, 0, 42, 0
1, 163200, Note_on_c, 0, 63, 0
1, 163200, Note_on_c, 0, 69, 0
1, 163200, Note_on_c, 0, 72, 0
1, 163200, Note_on_c, 0, 54, 0
1, 163200, Note_on_c, 0, 62, 62
1, 163200, Note_on_c, 0, 65, 62
1, 163200, Note_on_c, 0, 71, 74
1, 163200, Note_on_c, 0, 43, 58
1, 163216, Control_c, 0, 64, 0
1, 163315, Control_c, 0, 64, 127
1, 163320, Note_on_c, 0, 55, 55
1, 163428, Note_on_c, 0, 43, 0
1, 163440, Note_on_c, 0, 55, 0
1, 163440, Note_on_c, 0, 43, 58
1, 163560, Note_on_c, 0, 55, 55
1, 163668, Note_on_c, 0, 43, 0
1, 163680, Tempo, 410004
1, 163680, Note_on_c, 0, 62, 0
1, 163680, Note_on_c, 0, 71, 0
1, 163680, Note_on_c, 0, 65, 0
1, 163680, Note_on_c, 0, 55, 0
1, 163680, Note_on_c, 0, 60, 67
1, 163680, Note_on_c, 0, 63, 67
1, 163680, Note_on_c, 0, 72, 79
1, 163680, Note_on_c, 0, 36, 48
1, 163688, Control_c, 0, 64, 0
1, 163740, Tempo, 408469
1, 163770, Note_on_c, 0, 72, 0
1, 163770, Note_on_c, 0, 60, 0
1, 163770, Note_on_c, 0, 63, 0
1, 163800, Tempo, 407000
1, 163800, Note_on_c, 0, 48, 45
1, 163860, Tempo, 405488
1, 163908, Note_on_c, 0, 36, 0
1, 163920, Tempo, 403986
1, 163920, Note_on_c, 0, 48, 0
1, 163920, Note_on_c, 0, 60, 67
1, 163920, Note_on_c, 0, 36, 44
1, 163980, Tempo, 402522
1, 164000, Control_c, 0, 64, 127
1, 164040, Tempo, 401070
1, 164040, Note_on_c, 0, 48, 41
1, 164100, Tempo, 399600
1, 164148, Note_on_c, 0, 36, 0
1, 164160, Tempo, 398168
1, 164160, Note_on_c, 0, 48, 0
1, 164160, Note_on_c, 0, 36, 44
1, 164220, Tempo, 396720
1, 164280, Tempo, 395309
1, 164280, Note_on_c, 0, 48, 40
1, 164340, Tempo, 393908
1, 164377, Control_c, 0, 64, 0
1, 164388, Note_on_c, 0, 36, 0
1, 164400, Tempo, 392490
1, 164400, Note_on_c, 0, 48, 0
1, 164400, Note_on_c, 0, 60, 0
1, 164400, Note_on_c, 0, 58, 52
1, 164400, Note_on_c, 0, 64, 52
1, 164400, Note_on_c, 0, 36, 44
1, 164460, Tempo, 391083
1, 164490, Note_on_c, 0, 64, 0
1, 164490, Note_on_c, 0, 58, 0
1, 164520, Tempo, 389737
1, 164520, Note_on_c, 0, 48, 41
1, 164628, Note_on_c, 0, 36, 0
1, 164640, Note_on_c, 0, 48, 0
1, 164640, Note_on_c, 0, 56, 54
1, 164640, Note_on_c, 0, 65, 54
1, 164640, Note_on_c, 0, 36, 44
1, 164730, Note_on_c, 0, 65, 0
1, 164730, Note_on_c, 0, 56, 0
1, 164760, Note_on_c, 0, 48, 46
1, 164868, Note_on_c, 0, 36, 0
1, 164880, Tempo, 384615
1, 164880, Note_on_c, 0, 48, 0
1, 164880, Note_on_c, 0, 64, 55
1, 164880, Note_on_c, 0, 67, 55
1, 164880, Note_on_c, 0, 36, 47
1, 164970, Note_on_c, 0, 67, 0
1, 164970, Note_on_c, 0, 64, 0
1, 165000, Note_on_c, 0, 48, 47
1, 165108, Note_on_c, 0, 36, 0
1, 165120, Note_on_c, 0, 48, 0
1, 165120, Note_on_c, 0, 65, 57
1, 165120, Note_on_c, 0, 68, 57
1, 165120, Note_on_c, 0, 36, 49
1, 165210, Note_on_c, 0, 68, 0
1, 165210, Note_on_c, 0, 65, 0
1, 165240, Note_on_c, 0, 48, 50
1, 165348, Note_on_c, 0, 36, 0
1, 165360, Note_on_c, 0, 48, 0
1, 165360, Note_on_c, 0, 62, 59
1, 165360, Note_on_c, 0, 71, 59
1, 165360, Note_on_c, 0, 36, 51
1, 165450, Note_on_c, 0, 71, 0
1, 165450, Note_on_c, 0, 62, 0
1, 165480, Note_on_c, 0, 48, 53
1, 165588, Note_on_c, 0, 36, 0
1, 165600, Tempo, 414594
1, 165600, Note_on_c, 0, 48, 0
1, 165600, Note_on_c, 0, 63, 61
1, 165600, Note_on_c, 0, 72, 61
1, 165600, Note_on_c, 0, 36, 55
1, 165690, Note_on_c, 0, 72, 0
1, 165690, Note_on_c, 0, 63, 0
1, 165720, Note_on_c, 0, 48, 50
1, 165828, Note_on_c, 0, 36, 0
1, 165840, Tempo, 389737
1, 165840, Note_on_c, 0, 48, 0
1, 165840, Note_on_c, 0, 64, 55
1, 165840, Note_on_c, 0, 72, 55
1, 165840, Note_on_c, 0, 36, 53
1, 165863, Control_c, 0, 64, 127
1, 165960, Note_on_c, 0, 48, 47
1, 166068, Note_on_c, 0, 36, 0
1, 166080, Note_on_c, 0, 48, 0
1, 166080, Note_on_c, 0, 36, 53
1, 166200, Note_on_c, 0, 48, 47
1, 166308, Note_on_c, 0, 36, 0
1, 166320, Note_on_c, 0, 64, 0
1, 166320, Note_on_c, 0, 72, 0
1, 166320, Note_on_c, 0, 48, 0
1, 166320, Note_on_c, 0, 70, 51
1, 166320, Note_on_c, 0, 76, 51
1, 166320, Note_on_c, 0, 36, 44
1, 166320, Control_c, 0, 64, 0
1, 166410, Note_on_c, 0, 76, 0
1, 166410, Note_on_c, 0, 70, 0
1, 166440, Note_on_c, 0, 48, 40
1, 166548, Note_on_c, 0, 36, 0
1, 166560, Note_on_c, 0, 48, 0
1, 166560, Note_on_c, 0, 68, 53
1, 166560, Note_on_c, 0, 77, 53
1, 166560, Note_on_c, 0, 36, 43
1, 166650, Note_on_c, 0, 77, 0
1, 166650, Note_on_c, 0, 68, 0
1, 166680, Note_on_c, 0, 48, 45
1, 166788, Note_on_c, 0, 36, 0
1, 166800, Tempo, 384615
1, 166800, Note_on_c, 0, 48, 0
1, 166800, Note_on_c, 0, 76, 55
1, 166800, Note_on_c, 0, 79, 55
1, 166800, Note_on_c, 0, 36, 46
1, 166890, Note_on_c, 0, 79, 0
1, 166890, Note_on_c, 0, 76, 0
1, 166920, Note_on_c, 0, 48, 47
1, 167028, Note_on_c, 0, 36, 0
1, 167040, Note_on_c, 0, 48, 0
1, 167040, Note_on_c, 0, 77, 57
1, 167040, Note_on_c, 0, 80, 57
1, 167040, Note_on_c, 0, 36, 48
1, 167130, Note_on_c, 0, 80, 0
1, 167130, Note_on_c, 0, 77, 0
1, 167160, Note_on_c, 0, 48, 50
1, 167268, Note_on_c, 0, 36, 0
1, 167280, Tempo, 390879
1, 167280, Note_on_c, 0, 48, 0
1, 167280, Note_on_c, 0, 74, 59
1, 167280, Note_on_c, 0, 83, 59
1, 167280, Note_on_c, 0, 36, 51
1, 167370, Note_on_c, 0, 83, 0
1, 167370, Note_on_c, 0, 74, 0
1, 167400, Note_on_c, 0, 48, 53
1, 167508, Note_on_c, 0, 36, 0
1, 167520, Tempo, 396720
1, 167520, Note_on_c, 0, 48, 0
1, 167520, Note_on_c, 0, 72, 51
1, 167520, Note_on_c, 0, 79, 61
1, 167520, Note_on_c, 0, 75, 51
1, 167520, Note_on_c, 0, 84, 61
1, 167520, Note_on_c, 0, 36, 55
1, 167598, Control_c, 0, 64, 127
1, 167640, Note_on_c, 0, 48, 50
1, 167748, Note_on_c, 0, 36, 0
1, 167760, Tempo, 392516
1, 167760, Note_on_c, 0, 48, 0
1, 167760, Note_on_c, 0, 36, 53
1, 167880, Note_on_c, 0, 48, 47
1, 167988, Note_on_c, 0, 36, 0
1, 168000, Note_on_c, 0, 79, 0
1, 168000, Note_on_c, 0, 84, 0
1, 168000, Note_on_c, 0, 72, 0
1, 168000, Note_on_c, 0, 48, 0
1, 168000, Note_on_c, 0, 75, 0
1, 168000, Note_on_c, 0, 67, 53
1, 168000, Note_on_c, 0, 71, 53
1, 168000, Note_on_c, 0, 77, 63
1, 168000, Note_on_c, 0, 79, 63
1, 168000, Note_on_c, 0, 38, 55
1, 168011, Control_c, 0, 64, 0
1, 168120, Note_on_c, 0, 50, 50
1, 168148, Control_c, 0, 64, 127
1, 168228, Note_on_c, 0, 38, 0
1, 168240, Tempo, 403986
1, 168240, Note_on_c, 0, 50, 0
1, 168240, Note_on_c, 0, 38, 55
1, 168360, Note_on_c, 0, 50, 51
1, 168468, Note_on_c, 0, 38, 0
1, 168480, Tempo, 395205
1, 168480, Note_on_c, 0, 71, 0
1, 168480, Note_on_c, 0, 79, 0
1, 168480, Note_on_c, 0, 67, 0
1, 168480, Note_on_c, 0, 50, 0
1, 168480, Note_on_c, 0, 77, 0
1, 168480, Note_on_c, 0, 67, 56
1, 168480, Note_on_c, 0, 72, 56
1, 168480, Note_on_c, 0, 75, 67
1, 168480, Note_on_c, 0, 39, 55
1, 168489, Control_c, 0, 64, 0
1, 168579, Control_c, 0, 64, 127
1, 168600, Note_on_c, 0, 51, 55
1, 168708, Note_on_c, 0, 39, 0
1, 168720, Note_on_c, 0, 51, 0
1, 168720, Note_on_c, 0, 39, 55
1, 168840, Note_on_c, 0, 51, 55
1, 168948, Note_on_c, 0, 39, 0
1, 168960, Note_on_c, 0, 67, 0
1, 168960, Note_on_c, 0, 75, 0
1, 168960, Note_on_c, 0, 72, 0
1, 168960, Note_on_c, 0, 51, 0
1, 168960, Note_on_c, 0, 65, 60
1, 168960, Note_on_c, 0, 68, 60
1, 168960, Note_on_c, 0, 74, 71
1, 168960, Note_on_c, 0, 41, 55
1, 168974, Control_c, 0, 64, 0
1, 169080, Note_on_c, 0, 53, 53
1, 169080, Control_c, 0, 64, 127
1, 169188, Note_on_c, 0, 41, 0
1, 169200, Tempo, 402037
1, 169200, Note_on_c, 0, 53, 0
1, 169200, Note_on_c, 0, 41, 55
1, 169320, Note_on_c, 0, 53, 55
1, 169428, Note_on_c, 0, 41, 0
1, 169440, Note_on_c, 0, 65, 0
1, 169440, Note_on_c, 0, 74, 0
1, 169440, Note_on_c, 0, 68, 0
1, 169440, Note_on_c, 0, 53, 0
1, 169440, Note_on_c, 0, 63, 62
1, 169440, Note_on_c, 0, 67, 74
1, 169440, Note_on_c, 0, 72, 74
1, 169440, Note_on_c, 0, 43, 56
1, 169448, Control_c, 0, 64, 0
1, 169553, Control_c, 0, 64, 127
1, 169560, Note_on_c, 0, 55, 56
1, 169668, Note_on_c, 0, 43, 0
1, 169680, Note_on_c, 0, 55, 0
1, 169680, Note_on_c, 0, 43, 57
1, 169800, Note_on_c, 0, 55, 57
1, 169908, Note_on_c, 0, 43, 0
1, 169920, Note_on_c, 0, 67, 0
1, 169920, Note_on_c, 0, 55, 0
1, 169920, Note_on_c, 0, 66, 74
1, 169920, Note_on_c, 0, 44, 58
1, 169937, Control_c, 0, 64, 0
1, 170019, Control_c, 0, 64, 127
1, 170040, Note_on_c, 0, 56, 59
1, 170148, Note_on_c, 0, 44, 0
1, 170160, Note_on_c, 0, 56, 0
1, 170160, Note_on_c, 0, 44, 59
1, 170280, Note_on_c, 0, 56, 60
1, 170388, Note_on_c, 0, 44, 0
1, 170400, Tempo, 397904
1, 170400, Note_on_c, 0, 66, 0
1, 170400, Note_on_c, 0, 56, 0
1, 170400, Note_on_c, 0, 69, 77
1, 170400, Note_on_c, 0, 42, 60
1, 170407, Control_c, 0, 64, 0
1, 170463, Control_c, 0, 64, 127
1, 170520, Note_on_c, 0, 54, 55
1, 170628, Note_on_c, 0, 42, 0
1, 170640, Note_on_c, 0, 54, 0
1, 170640, Note_on_c, 0, 42, 61
1, 170760, Note_on_c, 0, 54, 55
1, 170868, Note_on_c, 0, 42, 0
1, 170880, Note_on_c, 0, 54, 0
1, 170880, Note_on_c, 0, 42, 58
1, 171000, Note_on_c, 0, 54, 55
1, 171108, Note_on_c, 0, 42, 0
1, 171120, Note_on_c, 0, 54, 0
1, 171120, Note_on_c, 0, 42, 58
1, 171240, Note_on_c, 0, 54, 55
1, 171348, Note_on_c, 0, 42, 0
1, 171360, Tempo, 410565
1, 171360, Note_on_c, 0, 63, 0
1, 171360, Note_on_c, 0, 69, 0
1, 171360, Note_on_c, 0, 72, 0
1, 171360, Note_on_c, 0, 54, 0
1, 171360, Note_on_c, 0, 62, 55
1, 171360, Note_on_c, 0, 67, 55
1, 171360, Note_on_c, 0, 71, 55
1, 171360, Note_on_c, 0, 43, 55
1, 171360, Note_on_c, 0, 55, 55
1, 171369, Control_c, 0, 64, 0
1, 171600, Note_on_c, 0, 55, 0
1, 171600, Note_on_c, 0, 71, 0
1, 171600, Note_on_c, 0, 62, 0
1, 171600, Note_on_c, 0, 67, 0
1, 171600, Note_on_c, 0, 43, 0
1, 171600, Note_on_c, 0, 62, 50
1, 171600, Note_on_c, 0, 59, 50
1, 171692, Control_c, 0, 64, 127
1, 171828, Note_on_c, 0, 59, 0
1, 171828, Note_on_c, 0, 62, 0
1, 171840, Tempo, 397904
1, 171840, Note_on_c, 0, 67, 80
1, 171840, Note_on_c, 0, 79, 80
1, 171840, Note_on_c, 0, 62, 50
1, 171840, Note_on_c, 0, 59, 50
1, 172068, Note_on_c, 0, 59, 0
1, 172068, Note_on_c, 0, 62, 0
1, 172080, Note_on_c, 0, 59, 50
1, 172080, Note_on_c, 0, 62, 50
1, 172308, Note_on_c, 0, 62, 0
1, 172308, Note_on_c, 0, 59, 0
1, 172320, Note_on_c, 0, 55, 50
1, 172328, Control_c, 0, 64, 0
1, 172507, Control_c, 0, 64, 127
1, 172560, Note_on_c, 0, 55, 0
1, 172560, Note_on_c, 0, 79, 0
1, 172560, Note_on_c, 0, 67, 0
1, 172560, Note_on_c, 0, 63, 50
1, 172560, Note_on_c, 0, 60, 50
1, 172788, Note_on_c, 0, 60, 0
1, 172788, Note_on_c, 0, 63, 0
1, 172800, Note_on_c, 0, 67, 80
1, 172800, Note_on_c, 0, 79, 80
1, 172800, Note_on_c, 0, 63, 50
1, 172800, Note_on_c, 0, 60, 50
1, 173028, Note_on_c, 0, 60, 0
1, 173028, Note_on_c, 0, 63, 0
1, 173040, Note_on_c, 0, 63, 50
1, 173040, Note_on_c, 0, 60, 50
1, 173268, Note_on_c, 0, 60, 0
1, 173268, Note_on_c, 0, 63, 0
1, 173280, Tempo, 385852
1, 173280, Note_on_c, 0, 65, 50
1, 173280, Note_on_c, 0, 62, 50
1, 173289, Control_c, 0, 64, 0
1, 173400, Note_on_c, 0, 79, 0
1, 173400, Note_on_c, 0, 67, 0
1, 173400, Note_on_c, 0, 77, 70
1, 173520, Note_on_c, 0, 77, 0
1, 173520, Note_on_c, 0, 65, 0
1, 173520, Note_on_c, 0, 62, 0
1, 173520, Note_on_c, 0, 74, 69
1, 173640, Note_on_c, 0, 74, 0
1, 173640, Note_on_c, 0, 71, 69
1, 173760, Note_on_c, 0, 71, 0
1, 173760, Note_on_c, 0, 67, 68
1, 173880, Note_on_c, 0, 67, 0
1, 173880, Note_on_c, 0, 65, 67
1, 174000, Note_on_c, 0, 65, 0
1, 174000, Note_on_c, 0, 62, 66
1, 174120, Note_on_c, 0, 62, 0
1, 174120, Note_on_c, 0, 59, 65
1, 174240, Tempo, 385852
1, 174240, Note_on_c, 0, 59, 0
1, 174240, Note_on_c, 0, 60, 65
1, 174340, Tempo, 387097
1, 174360, Note_on_c, 0, 60, 0
1, 174360, Note_on_c, 0, 63, 64
1, 174420, Tempo, 388350
1, 174480, Note_on_c, 0, 63, 0
1, 174480, Note_on_c, 0, 60, 65
1, 174500, Tempo, 389610
1, 174600, Tempo, 390879
1, 174600, Note_on_c, 0, 60, 0
1, 174600, Note_on_c, 0, 55, 65
1, 174680, Tempo, 392157
1, 174720, Note_on_c, 0, 55, 0
1, 174720, Note_on_c, 0, 54, 64
1, 174720, Note_on_c, 0, 32, 55
1, 174760, Tempo, 393443
1, 174840, Tempo, 394737
1, 174840, Note_on_c, 0, 32, 0
1, 174840, Note_on_c, 0, 54, 0
1, 174840, Note_on_c, 0, 60, 64
1, 174840, Note_on_c, 0, 44, 55
1, 174940, Tempo, 396040
1, 174960, Note_on_c, 0, 44, 0
1, 174960, Note_on_c, 0, 60, 0
1, 174960, Note_on_c, 0, 56, 63
1, 174960, Note_on_c, 0, 32, 55
1, 175020, Tempo, 397351
1, 175080, Note_on_c, 0, 32, 0
1, 175080, Note_on_c, 0, 56, 0
1, 175080, Note_on_c, 0, 54, 65
1, 175080, Note_on_c, 0, 44, 55
1, 175100, Tempo, 398671
1, 175180, Tempo, 400000
1, 175200, Tempo, 410565
1, 175200, Note_on_c, 0, 44, 0
1, 175200, Note_on_c, 0, 54, 0
1, 175200, Note_on_c, 0, 55, 67
1, 175200, Note_on_c, 0, 31, 50
1, 175200, Note_on_c, 0, 43, 50
1, 175395, Control_c, 0, 64, 127
1, 175440, Note_on_c, 0, 43, 0
1, 175440, Note_on_c, 0, 31, 0
1, 175440, Note_on_c, 0, 55, 0
1, 175440, Note_on_c, 0, 62, 50
1, 175440, Note_on_c, 0, 59, 50
1, 175668, Note_on_c, 0, 59, 0
1, 175668, Note_on_c, 0, 62, 0
1, 175680, Tempo, 397904
1, 175680, Note_on_c, 0, 67, 80
1, 175680, Note_on_c, 0, 79, 80
1, 175680, Note_on_c, 0, 62, 50
1, 175680, Note_on_c, 0, 59, 50
1, 175908, Note_on_c, 0, 59, 0
1, 175908, Note_on_c, 0, 62, 0
1, 175920, Note_on_c, 0, 59, 50
1, 175920, Note_on_c, 0, 62, 50
1, 176160, Note_on_c, 0, 62, 0
1, 176160, Note_on_c, 0, 59, 0
1, 176160, Note_on_c, 0, 55, 50
1, 176171, Control_c, 0, 64, 0
1, 176334, Control_c, 0, 64, 127
1, 176400, Note_on_c, 0, 55, 0
1, 176400, Note_on_c, 0, 79, 0
1, 176400, Note_on_c, 0, 67, 0
1, 176400, Note_on_c, 0, 63, 50
1, 176400, Note_on_c, 0, 60, 50
1, 176628, Note_on_c, 0, 60, 0
1, 176628, Note_on_c, 0, 63, 0
1, 176640, Note_on_c, 0, 67, 80
1, 176640, Note_on_c, 0, 79, 80
1, 176640, Note_on_c, 0, 63, 50
1, 176640, Note_on_c, 0, 60, 50
1, 176868, Note_on_c, 0, 60, 0
1, 176868, Note_on_c, 0, 63, 0
1, 176880, Note_on_c, 0, 63, 50
1, 176880, Note_on_c, 0, 60, 50
1, 177108, Note_on_c, 0, 60, 0
1, 177108, Note_on_c, 0, 63, 0
1, 177120, Tempo, 383387
1, 177120, Note_on_c, 0, 65, 50
1, 177120, Note_on_c, 0, 62, 50
1, 177127, Control_c, 0, 64, 0
1, 177240, Note_on_c, 0, 79, 0
1, 177240, Note_on_c, 0, 67, 0
1, 177240, Note_on_c, 0, 77, 72
1, 177360, Note_on_c, 0, 77, 0
1, 177360, Note_on_c, 0, 65, 0
1, 177360, Note_on_c, 0, 62, 0
1, 177360, Note_on_c, 0, 74, 71
1, 177480, Note_on_c, 0, 74, 0
1, 177480, Note_on_c, 0, 71, 70
1, 177600, Note_on_c, 0, 71, 0
1, 177600, Note_on_c, 0, 67, 69
1, 177720, Note_on_c, 0, 67, 0
1, 177720, Note_on_c, 0, 65, 68
1, 177840, Note_on_c, 0, 65, 0
1, 177840, Note_on_c, 0, 62, 67
1, 177960, Note_on_c, 0, 62, 0
1, 177960, Note_on_c, 0, 59, 66
1, 178040, Tempo, 380952
1, 178080, Note_on_c, 0, 59, 0
1, 178080, Note_on_c, 0, 60, 65
1, 178120, Tempo, 382166
1, 178180, Tempo, 383387
1, 178200, Note_on_c, 0, 60, 0
1, 178200, Note_on_c, 0, 63, 64
1, 178240, Tempo, 384615
1, 178300, Tempo, 385852
1, 178320, Note_on_c, 0, 63, 0
1, 178320, Note_on_c, 0, 60, 64
1, 178360, Tempo, 387097
1, 178440, Tempo, 388350
1, 178440, Note_on_c, 0, 60, 0
1, 178440, Note_on_c, 0, 55, 67
1, 178500, Tempo, 389610
1, 178560, Tempo, 390879
1, 178560, Note_on_c, 0, 55, 0
1, 178560, Note_on_c, 0, 54, 66
1, 178560, Note_on_c, 0, 32, 55
1, 178620, Tempo, 392157
1, 178680, Tempo, 393443
1, 178680, Note_on_c, 0, 54, 0
1, 178680, Note_on_c, 0, 60, 64
1, 178680, Note_on_c, 0, 44, 55
1, 178760, Tempo, 394737
1, 178788, Note_on_c, 0, 32, 0
1, 178800, Note_on_c, 0, 44, 0
1, 178800, Note_on_c, 0, 60, 0
1, 178800, Note_on_c, 0, 56, 62
1, 178800, Note_on_c, 0, 32, 55
1, 178820, Tempo, 396040
1, 178880, Tempo, 397351
1, 178920, Note_on_c, 0, 56, 0
1, 178920, Note_on_c, 0, 54, 60
1, 178920, Note_on_c, 0, 44, 49
1, 178940, Tempo, 398671
1, 179000, Tempo, 400000
1, 179028, Note_on_c, 0, 32, 0
1, 179040, Note_on_c, 0, 44, 0
1, 179040, Note_on_c, 0, 54, 0
1, 179040, Note_on_c, 0, 55, 67
1, 179040, Note_on_c, 0, 31, 50
1, 179160, Note_on_c, 0, 43, 51
1, 179268, Note_on_c, 0, 31, 0
1, 179280, Tempo, 391211
1, 179280, Note_on_c, 0, 43, 0
1, 179280, Note_on_c, 0, 55, 0
1, 179280, Note_on_c, 0, 66, 67
1, 179280, Note_on_c, 0, 31, 51
1, 179370, Note_on_c, 0, 66, 0
1, 179400, Note_on_c, 0, 43, 52
1, 179508, Note_on_c, 0, 31, 0
1, 179520, Tempo, 384615
1, 179520, Note_on_c, 0, 43, 0
1, 179520, Note_on_c, 0, 67, 69
1, 179520, Note_on_c, 0, 31, 53
1, 179610, Note_on_c, 0, 67, 0
1, 179640, Note_on_c, 0, 43, 54
1, 179748, Note_on_c, 0, 31, 0
1, 179760, Note_on_c, 0, 43, 0
1, 179760, Note_on_c, 0, 66, 71
1, 179760, Note_on_c, 0, 72, 71
1, 179760, Note_on_c, 0, 31, 55
1, 179850, Note_on_c, 0, 72, 0
1, 179850, Note_on_c, 0, 66, 0
1, 179880, Note_on_c, 0, 43, 56
1, 179988, Note_on_c, 0, 31, 0
1, 180000, Note_on_c, 0, 43, 0
1, 180000, Note_on_c, 0, 67, 73
1, 180000, Note_on_c, 0, 71, 73
1, 180000, Note_on_c, 0, 31, 57
1, 180090, Note_on_c, 0, 71, 0
1, 180090, Note_on_c, 0, 67, 0
1, 180120, Note_on_c, 0, 43, 58
1, 180228, Note_on_c, 0, 31, 0
1, 180240, Note_on_c, 0, 43, 0
1, 180240, Note_on_c, 0, 72, 75
1, 180240, Note_on_c, 0, 78, 75
1, 180240, Note_on_c, 0, 31, 59
1, 180330, Note_on_c, 0, 78, 0
1, 180330, Note_on_c, 0, 72, 0
1, 180360, Note_on_c, 0, 43, 60
1, 180468, Note_on_c, 0, 31, 0
1, 180480, Note_on_c, 0, 43, 0
1, 180480, Note_on_c, 0, 71, 77
1, 180480, Note_on_c, 0, 79, 77
1, 180480, Note_on_c, 0, 31, 61
1, 180570, Note_on_c, 0, 79, 0
1, 180570, Note_on_c, 0, 71, 0
1, 180600, Note_on_c, 0, 43, 61
1, 180708, Note_on_c, 0, 31, 0
1, 180720, Note_on_c, 0, 43, 0
1, 180720, Note_on_c, 0, 84, 79
1, 180720, Note_on_c, 0, 78, 79
1, 180720, Note_on_c, 0, 31, 62
1, 180810, Note_on_c, 0, 78, 0
1, 180810, Note_on_c, 0, 84, 0
1, 180840, Note_on_c, 0, 43, 63
1, 180948, Note_on_c, 0, 31, 0
1, 180960, Tempo, 390879
1, 180960, Note_on_c, 0, 43, 0
1, 180960, Note_on_c, 0, 83, 81
1, 180960, Note_on_c, 0, 79, 81
1, 180960, Note_on_c, 0, 31, 64
1, 181080, Note_on_c, 0, 79, 0
1, 181080, Note_on_c, 0, 83, 0
1, 181080, Note_on_c, 0, 43, 55
1, 181188, Note_on_c, 0, 31, 0
1, 181200, Note_on_c, 0, 43, 0
1, 181200, Note_on_c, 0, 31, 61
1, 181320, Note_on_c, 0, 43, 55
1, 181428, Note_on_c, 0, 31, 0
1, 181440, Note_on_c, 0, 43, 0
1, 181440, Note_on_c, 0, 31, 61
1, 181560, Note_on_c, 0, 43, 55
1, 181668, Note_on_c, 0, 31, 0
1, 181680, Note_on_c, 0, 43, 0
1, 181680, Note_on_c, 0, 31, 60
1, 181800, Note_on_c, 0, 43, 55
1, 181908, Note_on_c, 0, 31, 0
1, 181920, Tempo, 393856
1, 181920, Note_on_c, 0, 43, 0
1, 181920, Note_on_c, 0, 58, 81
1, 181920, Note_on_c, 0, 61, 81
1, 181920, Note_on_c, 0, 63, 84
1, 181920, Note_on_c, 0, 31, 64
1, 182040, Note_on_c, 0, 43, 55
1, 182148, Note_on_c, 0, 31, 0
1, 182160, Note_on_c, 0, 43, 0
1, 182160, Note_on_c, 0, 31, 61
1, 182280, Note_on_c, 0, 43, 55
1, 182388, Note_on_c, 0, 31, 0
1, 182400, Note_on_c, 0, 43, 0
1, 182400, Note_on_c, 0, 31, 61
1, 182520, Note_on_c, 0, 43, 55
1, 182628, Note_on_c, 0, 31, 0
1, 182640, Note_on_c, 0, 43, 0
1, 182640, Note_on_c, 0, 31, 60
1, 182760, Note_on_c, 0, 43, 55
1, 182868, Note_on_c, 0, 31, 0
1, 182880, Tempo, 410565
1, 182880, Note_on_c, 0, 58, 0
1, 182880, Note_on_c, 0, 61, 0
1, 182880, Note_on_c, 0, 43, 0
1, 182880, Note_on_c, 0, 60, 67
1, 182880, Note_on_c, 0, 32, 50
1, 183000, Note_on_c, 0, 44, 51
1, 183108, Note_on_c, 0, 32, 0
1, 183120, Tempo, 391211
1, 183120, Note_on_c, 0, 63, 0
1, 183120, Note_on_c, 0, 60, 0
1, 183120, Note_on_c, 0, 44, 0
1, 183120, Note_on_c, 0, 73, 67
1, 183120, Note_on_c, 0, 32, 51
1, 183210, Note_on_c, 0, 73, 0
1, 183240, Note_on_c, 0, 44, 52
1, 183348, Note_on_c, 0, 32, 0
1, 183360, Tempo, 384615
1, 183360, Note_on_c, 0, 44, 0
1, 183360, Note_on_c, 0, 72, 69
1, 183360, Note_on_c, 0, 32, 53
1, 183450, Note_on_c, 0, 72, 0
1, 183480, Note_on_c, 0, 44, 54
1, 183588, Note_on_c, 0, 32, 0
1, 183600, Note_on_c, 0, 44, 0
1, 183600, Note_on_c, 0, 73, 71
1, 183600, Note_on_c, 0, 79, 71
1, 183600, Note_on_c, 0, 32, 55
1, 183690, Note_on_c, 0, 79, 0
1, 183690, Note_on_c, 0, 73, 0
1, 183720, Note_on_c, 0, 44, 56
1, 183828, Note_on_c, 0, 32, 0
1, 183840, Note_on_c, 0, 44, 0
1, 183840, Note_on_c, 0, 72, 73
1, 183840, Note_on_c, 0, 80, 73
1, 183840, Note_on_c, 0, 32, 57
1, 183930, Note_on_c, 0, 80, 0
1, 183930, Note_on_c, 0, 72, 0
1, 183960, Note_on_c, 0, 44, 58
1, 184068, Note_on_c, 0, 32, 0
1, 184080, Note_on_c, 0, 44, 0
1, 184080, Note_on_c, 0, 79, 75
1, 184080, Note_on_c, 0, 85, 75
1, 184080, Note_on_c, 0, 32, 59
1, 184170, Note_on_c, 0, 85, 0
1, 184170, Note_on_c, 0, 79, 0
1, 184200, Note_on_c, 0, 44, 60
1, 184308, Note_on_c, 0, 32, 0
1, 184320, Note_on_c, 0, 44, 0
1, 184320, Note_on_c, 0, 80, 77
1, 184320, Note_on_c, 0, 84, 77
1, 184320, Note_on_c, 0, 32, 61
1, 184410, Note_on_c, 0, 84, 0
1, 184410, Note_on_c, 0, 80, 0
1, 184440, Note_on_c, 0, 44, 61
1, 184548, Note_on_c, 0, 32, 0
1, 184560, Note_on_c, 0, 44, 0
1, 184560, Note_on_c, 0, 85, 79
1, 184560, Note_on_c, 0, 79, 79
1, 184560, Note_on_c, 0, 32, 62
1, 184650, Note_on_c, 0, 79, 0
1, 184650, Note_on_c, 0, 85, 0
1, 184680, Note_on_c, 0, 44, 63
1, 184788, Note_on_c, 0, 32, 0
1, 184800, Tempo, 390879
1, 184800, Note_on_c, 0, 44, 0
1, 184800, Note_on_c, 0, 84, 81
1, 184800, Note_on_c, 0, 80, 81
1, 184800, Note_on_c, 0, 32, 64
1, 184920, Note_on_c, 0, 80, 0
1, 184920, Note_on_c, 0, 84, 0
1, 184920, Note_on_c, 0, 44, 55
1, 185028, Note_on_c, 0, 32, 0
1, 185040, Note_on_c, 0, 44, 0
1, 185040, Note_on_c, 0, 32, 61
1, 185160, Note_on_c, 0, 44, 55
1, 185268, Note_on_c, 0, 32, 0
1, 185280, Note_on_c, 0, 44, 0
1, 185280, Note_on_c, 0, 32, 61
1, 185400, Note_on_c, 0, 44, 55
1, 185508, Note_on_c, 0, 32, 0
1, 185520, Note_on_c, 0, 44, 0
1, 185520, Note_on_c, 0, 32, 60
1, 185640, Note_on_c, 0, 44, 55
1, 185748, Note_on_c, 0, 32, 0
1, 185760, Tempo, 393856
1, 185760, Note_on_c, 0, 44, 0
1, 185760, Note_on_c, 0, 60, 81
1, 185760, Note_on_c, 0, 63, 81
1, 185760, Note_on_c, 0, 66, 84
1, 185760, Note_on_c, 0, 33, 64
1, 185880, Note_on_c, 0, 45, 55
1, 185988, Note_on_c, 0, 33, 0
1, 186000, Note_on_c, 0, 45, 0
1, 186000, Note_on_c, 0, 33, 61
1, 186120, Note_on_c, 0, 45, 55
1, 186228, Note_on_c, 0, 33, 0
1, 186240, Note_on_c, 0, 45, 0
1, 186240, Note_on_c, 0, 33, 61
1, 186360, Note_on_c, 0, 45, 55
1, 186468, Note_on_c, 0, 33, 0
1, 186480, Note_on_c, 0, 45, 0
1, 186480, Note_on_c, 0, 33, 60
1, 186600, Note_on_c, 0, 45, 55
1, 186708, Note_on_c, 0, 33, 0
1, 186720, Tempo, 410565
1, 186720, Note_on_c, 0, 60, 0
1, 186720, Note_on_c, 0, 66, 0
1, 186720, Note_on_c, 0, 63, 0
1, 186720, Note_on_c, 0, 45, 0
1, 186720, Note_on_c, 0, 62, 67
1, 186720, Note_on_c, 0, 65, 67
1, 186720, Note_on_c, 0, 34, 50
1, 186840, Note_on_c, 0, 46, 51
1, 186948, Note_on_c, 0, 34, 0
1, 186960, Tempo, 384615
1, 186960, Note_on_c, 0, 62, 0
1, 186960, Note_on_c, 0, 65, 0
1, 186960, Note_on_c, 0, 46, 0
1, 186960, Note_on_c, 0, 69, 62
1, 186960, Note_on_c, 0, 75, 67
1, 186960, Note_on_c, 0, 34, 51
1, 187050, Note_on_c, 0, 75, 0
1, 187050, Note_on_c, 0, 69, 0
1, 187080, Note_on_c, 0, 46, 52
1, 187188, Note_on_c, 0, 34, 0
1, 187200, Tempo, 383387
1, 187200, Note_on_c, 0, 46, 0
1, 187200, Note_on_c, 0, 70, 65
1, 187200, Note_on_c, 0, 74, 69
1, 187200, Note_on_c, 0, 34, 53
1, 187290, Note_on_c, 0, 74, 0
1, 187290, Note_on_c, 0, 70, 0
1, 187320, Note_on_c, 0, 46, 54
1, 187428, Note_on_c, 0, 34, 0
1, 187440, Note_on_c, 0, 46, 0
1, 187440, Note_on_c, 0, 75, 71
1, 187440, Note_on_c, 0, 81, 71
1, 187440, Note_on_c, 0, 34, 55
1, 187530, Note_on_c, 0, 81, 0
1, 187530, Note_on_c, 0, 75, 0
1, 187560, Note_on_c, 0, 46, 56
1, 187668, Note_on_c, 0, 34, 0
1, 187680, Note_on_c, 0, 46, 0
1, 187680, Note_on_c, 0, 74, 73
1, 187680, Note_on_c, 0, 82, 73
1, 187680, Note_on_c, 0, 34, 57
1, 187770, Note_on_c, 0, 82, 0
1, 187770, Note_on_c, 0, 74, 0
1, 187800, Note_on_c, 0, 46, 58
1, 187908, Note_on_c, 0, 34, 0
1, 187920, Note_on_c, 0, 46, 0
1, 187920, Note_on_c, 0, 81, 75
1, 187920, Note_on_c, 0, 87, 75
1, 187920, Note_on_c, 0, 34, 59
1, 188010, Note_on_c, 0, 87, 0
1, 188010, Note_on_c, 0, 81, 0
1, 188040, Note_on_c, 0, 46, 60
1, 188148, Note_on_c, 0, 34, 0
1, 188160, Note_on_c, 0, 46, 0
1, 188160, Note_on_c, 0, 82, 77
1, 188160, Note_on_c, 0, 86, 77
1, 188160, Note_on_c, 0, 34, 61
1, 188250, Note_on_c, 0, 86, 0
1, 188250, Note_on_c, 0, 82, 0
1, 188280, Note_on_c, 0, 46, 61
1, 188388, Note_on_c, 0, 34, 0
1, 188400, Note_on_c, 0, 46, 0
1, 188400, Note_on_c, 0, 87, 79
1, 188400, Note_on_c, 0, 81, 79
1, 188400, Note_on_c, 0, 34, 62
1, 188490, Note_on_c, 0, 81, 0
1, 188490, Note_on_c, 0, 87, 0
1, 188520, Note_on_c, 0, 46, 63
1, 188628, Note_on_c, 0, 34, 0
1, 188640, Tempo, 390879
1, 188640, Note_on_c, 0, 46, 0
1, 188640, Note_on_c, 0, 86, 81
1, 188640, Note_on_c, 0, 82, 81
1, 188640, Note_on_c, 0, 34, 64
1, 188760, Note_on_c, 0, 82, 0
1, 188760, Note_on_c, 0, 86, 0
1, 188760, Note_on_c, 0, 46, 55
1, 188868, Note_on_c, 0, 34, 0
1, 188880, Note_on_c, 0, 46, 0
1, 188880, Note_on_c, 0, 34, 61
1, 189000, Note_on_c, 0, 46, 55
1, 189108, Note_on_c, 0, 34, 0
1, 189120, Tempo, 385852
1, 189120, Note_on_c, 0, 46, 0
1, 189120, Note_on_c, 0, 75, 81
1, 189120, Note_on_c, 0, 81, 81
1, 189120, Note_on_c, 0, 34, 61
1, 189240, Note_on_c, 0, 46, 55
1, 189348, Note_on_c, 0, 34, 0
1, 189360, Note_on_c, 0, 46, 0
1, 189360, Note_on_c, 0, 34, 60
1, 189480, Note_on_c, 0, 46, 55
1, 189588, Note_on_c, 0, 34, 0
1, 189600, Note_on_c, 0, 75, 0
1, 189600, Note_on_c, 0, 81, 0
1, 189600, Note_on_c, 0, 46, 0
1, 189600, Note_on_c, 0, 74, 81
1, 189600, Note_on_c, 0, 82, 81
1, 189600, Note_on_c, 0, 34, 64
1, 189620, Tempo, 390879
1, 189720, Note_on_c, 0, 46, 55
1, 189828, Note_on_c, 0, 34, 0
1, 189840, Note_on_c, 0, 74, 0
1, 189840, Note_on_c, 0, 82, 0
1, 189840, Note_on_c, 0, 46, 0
1, 189840, Note_on_c, 0, 34, 61
1, 189960, Note_on_c, 0, 46, 55
1, 190068, Note_on_c, 0, 34, 0
1, 190080, Tempo, 384615
1, 190080, Note_on_c, 0, 46, 0
1, 190080, Note_on_c, 0, 69, 81
1, 190080, Note_on_c, 0, 75, 81
1, 190080, Note_on_c, 0, 34, 61
1, 190200, Note_on_c, 0, 46, 55
1, 190308, Note_on_c, 0, 34, 0
1, 190320, Note_on_c, 0, 46, 0
1, 190320, Note_on_c, 0, 34, 60
1, 190440, Note_on_c, 0, 46, 55
1, 190548, Note_on_c, 0, 34, 0
1, 190560, Tempo, 390879
1, 190560, Note_on_c, 0, 69, 0
1, 190560, Note_on_c, 0, 75, 0
1, 190560, Note_on_c, 0, 46, 0
1, 190560, Note_on_c, 0, 70, 81
1, 190560, Note_on_c, 0, 74, 81
1, 190560, Note_on_c, 0, 34, 64
1, 190680, Note_on_c, 0, 46, 55
1, 190788, Note_on_c, 0, 34, 0
1, 190800, Note_on_c, 0, 70, 0
1, 190800, Note_on_c, 0, 74, 0
1, 190800, Note_on_c, 0, 46, 0
1, 190800, Note_on_c, 0, 34, 61
1, 190920, Note_on_c, 0, 46, 55
1, 191028, Note_on_c, 0, 34, 0
1, 191040, Tempo, 387097
1, 191040, Note_on_c, 0, 46, 0
1, 191040, Note_on_c, 0, 63, 81
1, 191040, Note_on_c, 0, 69, 81
1, 191040, Note_on_c, 0, 34, 61
1, 191160, Note_on_c, 0, 46, 55
1, 191268, Note_on_c, 0, 34, 0
1, 191280, Note_on_c, 0, 46, 0
1, 191280, Note_on_c, 0, 34, 60
1, 191400, Note_on_c, 0, 46, 55
1, 191508, Note_on_c, 0, 34, 0
1, 191520, Tempo, 390879
1, 191520, Note_on_c, 0, 63, 0
1, 191520, Note_on_c, 0, 69, 0
1, 191520, Note_on_c, 0, 46, 0
1, 191520, Note_on_c, 0, 62, 81
1, 191520, Note_on_c, 0, 70, 81
1, 191520, Note_on_c, 0, 34, 64
1, 191540, Tempo, 389610
1, 191640, Note_on_c, 0, 46, 55
1, 191748, Note_on_c, 0, 34, 0
1, 191760, Note_on_c, 0, 62, 0
1, 191760, Note_on_c, 0, 70, 0
1, 191760, Note_on_c, 0, 46, 0
1, 191760, Note_on_c, 0, 34, 61
1, 191880, Note_on_c, 0, 46, 55
1, 191988, Note_on_c, 0, 34, 0
1, 192000, Note_on_c, 0, 46, 0
1, 192000, Note_on_c, 0, 57, 81
1, 192000, Note_on_c, 0, 63, 81
1, 192000, Note_on_c, 0, 34, 61
1, 192120, Note_on_c, 0, 46, 55
1, 192228, Note_on_c, 0, 34, 0
1, 192240, Note_on_c, 0, 46, 0
1, 192240, Note_on_c, 0, 34, 60
1, 192360, Note_on_c, 0, 46, 55
1, 192468, Note_on_c, 0, 34, 0
1, 192480, Tempo, 404040
1, 192480, Note_on_c, 0, 57, 0
1, 192480, Note_on_c, 0, 63, 0
1, 192480, Note_on_c, 0, 46, 0
1, 192480, Note_on_c, 0, 58, 81
1, 192480, Note_on_c, 0, 62, 81
1, 192480, Note_on_c, 0, 46, 55
1, 192480, Note_on_c, 0, 34, 64
1, 192720, Note_on_c, 0, 34, 0
1, 192720, Note_on_c, 0, 58, 0
1, 192720, Note_on_c, 0, 62, 0
1, 192720, Note_on_c, 0, 46, 0
1, 192720, Note_on_c, 0, 57, 50
1, 192960, Note_on_c, 0, 57, 0
1, 192960, Note_on_c, 0, 58, 59
1, 193200, Note_on_c, 0, 58, 0
1, 193200, Note_on_c, 0, 57, 56
1, 193440, Note_on_c, 0, 57, 0
1, 193440, Note_on_c, 0, 58, 57
1, 193680, Note_on_c, 0, 58, 0
1, 193680, Note_on_c, 0, 57, 49
1, 193920, Note_on_c, 0, 57, 0
1, 193920, Note_on_c, 0, 58, 57
1, 194160, Note_on_c, 0, 58, 0
1, 194160, Note_on_c, 0, 57, 51
1, 194400, Tempo, 409556
1, 194400, Note_on_c, 0, 57, 0
1, 194400, Note_on_c, 0, 58, 44
1, 194640, Tempo, 402685
1, 194640, Note_on_c, 0, 46, 55
1, 194640, Note_on_c, 0, 63, 38
1, 194640, Note_on_c, 0, 66, 38
1, 194760, Note_on_c, 0, 46, 0
1, 194868, Note_on_c, 0, 66, 0
1, 194868, Note_on_c, 0, 63, 0
1, 194880, Tempo, 390879
1, 194880, Note_on_c, 0, 51, 58
1, 194880, Note_on_c, 0, 63, 38
1, 194880, Note_on_c, 0, 66, 38
1, 195000, Note_on_c, 0, 51, 0
1, 195108, Note_on_c, 0, 66, 0
1, 195108, Note_on_c, 0, 63, 0
1, 195120, Note_on_c, 0, 53, 61
1, 195120, Note_on_c, 0, 63, 38
1, 195120, Note_on_c, 0, 66, 38
1, 195240, Note_on_c, 0, 53, 0
1, 195348, Note_on_c, 0, 66, 0
1, 195348, Note_on_c, 0, 63, 0
1, 195360, Tempo, 408163
1, 195360, Note_on_c, 0, 58, 0
1, 195360, Note_on_c, 0, 54, 64
1, 195360, Note_on_c, 0, 58, 44
1, 195480, Note_on_c, 0, 54, 0
1, 195600, Note_on_c, 0, 70, 62
1, 195600, Note_on_c, 0, 63, 38
1, 195600, Note_on_c, 0, 66, 38
1, 195720, Note_on_c, 0, 70, 0
1, 195828, Note_on_c, 0, 66, 0
1, 195828, Note_on_c, 0, 63, 0
1, 195840, Tempo, 398671
1, 195840, Note_on_c, 0, 75, 64
1, 195840, Note_on_c, 0, 63, 38
1, 195840, Note_on_c, 0, 66, 38
1, 195960, Note_on_c, 0, 75, 0
1, 196068, Note_on_c, 0, 66, 0
1, 196068, Note_on_c, 0, 63, 0
1, 196080, Note_on_c, 0, 77, 66
1, 196080, Note_on_c, 0, 63, 38
1, 196080, Note_on_c, 0, 66, 38
1, 196200, Note_on_c, 0, 77, 0
1, 196260, Note_on_c, 0, 70, 65
1, 196320, Tempo, 405405
1, 196320, Note_on_c, 0, 70, 0
1, 196320, Note_on_c, 0, 66, 0
1, 196320, Note_on_c, 0, 63, 0
1, 196320, Note_on_c, 0, 58, 0
1, 196320, Note_on_c, 0, 78, 75
1, 196320, Note_on_c, 0, 58, 44
1, 196560, Tempo, 400000
1, 196560, Note_on_c, 0, 63, 38
1, 196560, Note_on_c, 0, 66, 38
1, 196788, Note_on_c, 0, 66, 0
1, 196788, Note_on_c, 0, 63, 0
1, 196800, Note_on_c, 0, 63, 38
1, 196800, Note_on_c, 0, 66, 38
1, 197028, Note_on_c, 0, 66, 0
1, 197028, Note_on_c, 0, 63, 0
1, 197040, Tempo, 406780
1, 197040, Note_on_c, 0, 78, 0
1, 197040, Note_on_c, 0, 75, 63
1, 197040, Note_on_c, 0, 63, 38
1, 197040, Note_on_c, 0, 66, 38
1, 197220, Note_on_c, 0, 70, 60
1, 197268, Note_on_c, 0, 66, 0
1, 197268, Note_on_c, 0, 63, 0
1, 197280, Note_on_c, 0, 58, 0
1, 197280, Note_on_c, 0, 75, 0
1, 197280, Note_on_c, 0, 70, 0
1, 197280, Note_on_c, 0, 78, 71
1, 197280, Note_on_c, 0, 58, 44
1, 197520, Tempo, 400000
1, 197520, Note_on_c, 0, 63, 38
1, 197520, Note_on_c, 0, 66, 38
1, 197748, Note_on_c, 0, 66, 0
1, 197748, Note_on_c, 0, 63, 0
1, 197760, Note_on_c, 0, 63, 38
1, 197760, Note_on_c, 0, 66, 38
1, 197988, Note_on_c, 0, 66, 0
1, 197988, Note_on_c, 0, 63, 0
1, 198000, Tempo, 404040
1, 198000, Note_on_c, 0, 78, 0
1, 198000, Note_on_c, 0, 75, 58
1, 198000, Note_on_c, 0, 63, 38
1, 198000, Note_on_c, 0, 66, 38
1, 198228, Note_on_c, 0, 66, 0
1, 198228, Note_on_c, 0, 63, 0
1, 198240, Tempo, 415225
1, 198240, Note_on_c, 0, 75, 0
1, 198240, Note_on_c, 0, 58, 0
1, 198240, Note_on_c, 0, 74, 60
1, 198240, Note_on_c, 0, 58, 44
1, 198480, Tempo, 400000
1, 198480, Note_on_c, 0, 74, 0
1, 198480, Note_on_c, 0, 46, 57
1, 198480, Note_on_c, 0, 65, 38
1, 198480, Note_on_c, 0, 68, 38
1, 198600, Note_on_c, 0, 46, 0
1, 198708, Note_on_c, 0, 68, 0
1, 198708, Note_on_c, 0, 65, 0
1, 198720, Tempo, 390879
1, 198720, Note_on_c, 0, 53, 60
1, 198720, Note_on_c, 0, 65, 38
1, 198720, Note_on_c, 0, 68, 38
1, 198840, Note_on_c, 0, 53, 0
1, 198948, Note_on_c, 0, 68, 0
1, 198948, Note_on_c, 0, 65, 0
1, 198960, Note_on_c, 0, 54, 63
1, 198960, Note_on_c, 0, 65, 38
1, 198960, Note_on_c, 0, 68, 38
1, 199080, Note_on_c, 0, 54, 0
1, 199188, Note_on_c, 0, 68, 0
1, 199188, Note_on_c, 0, 65, 0
1, 199200, Tempo, 408163
1, 199200, Note_on_c, 0, 58, 0
1, 199200, Note_on_c, 0, 56, 66
1, 199200, Note_on_c, 0, 58, 44
1, 199320, Note_on_c, 0, 56, 0
1, 199440, Note_on_c, 0, 70, 59
1, 199440, Note_on_c, 0, 65, 38
1, 199440, Note_on_c, 0, 68, 38
1, 199668, Note_on_c, 0, 68, 0
1, 199668, Note_on_c, 0, 65, 0
1, 199680, Tempo, 400000
1, 199680, Note_on_c, 0, 70, 0
1, 199680, Note_on_c, 0, 80, 62
1, 199680, Note_on_c, 0, 65, 38
1, 199680, Note_on_c, 0, 68, 38
1, 199908, Note_on_c, 0, 68, 0
1, 199908, Note_on_c, 0, 65, 0
1, 199920, Note_on_c, 0, 80, 0
1, 199920, Note_on_c, 0, 78, 65
1, 199920, Note_on_c, 0, 65, 38
1, 199920, Note_on_c, 0, 68, 38
1, 200148, Note_on_c, 0, 68, 0
1, 200148, Note_on_c, 0, 65, 0
1, 200160, Tempo, 406780
1, 200160, Note_on_c, 0, 78, 0
1, 200160, Note_on_c, 0, 58, 0
1, 200160, Note_on_c, 0, 78, 60
1, 200160, Note_on_c, 0, 58, 44
1, 200220, Note_on_c, 0, 78, 0
1, 200220, Note_on_c, 0, 80, 60
1, 200280, Note_on_c, 0, 80, 0
1, 200280, Note_on_c, 0, 78, 67
1, 200400, Note_on_c, 0, 78, 0
1, 200400, Note_on_c, 0, 77, 60
1, 200400, Note_on_c, 0, 65, 38
1, 200400, Note_on_c, 0, 68, 38
1, 200628, Note_on_c, 0, 68, 0
1, 200628, Note_on_c, 0, 65, 0
1, 200640, Note_on_c, 0, 77, 0
1, 200640, Note_on_c, 0, 77, 60
1, 200640, Note_on_c, 0, 65, 38
1, 200640, Note_on_c, 0, 68, 38
1, 200700, Note_on_c, 0, 77, 0
1, 200700, Note_on_c, 0, 78, 60
1, 200760, Note_on_c, 0, 78, 0
1, 200760, Note_on_c, 0, 77, 67
1, 200868, Note_on_c, 0, 68, 0
1, 200868, Note_on_c, 0, 65, 0
1, 200880, Note_on_c, 0, 77, 0
1, 200880, Note_on_c, 0, 75, 60
1, 200880, Note_on_c, 0, 65, 38
1, 200880, Note_on_c, 0, 68, 38
1, 201108, Note_on_c, 0, 68, 0
1, 201108, Note_on_c, 0, 65, 0
1, 201120, Note_on_c, 0, 75, 0
1, 201120, Note_on_c, 0, 58, 0
1, 201120, Note_on_c, 0, 75, 60
1, 201120, Note_on_c, 0, 58, 44
1, 201180, Note_on_c, 0, 75, 0
1, 201180, Note_on_c, 0, 77, 60
1, 201240, Note_on_c, 0, 77, 0
1, 201240, Note_on_c, 0, 75, 66
1, 201360, Note_on_c, 0, 75, 0
1, 201360, Note_on_c, 0, 74, 60
1, 201360, Note_on_c, 0, 65, 38
1, 201360, Note_on_c, 0, 68, 38
1, 201588, Note_on_c, 0, 68, 0
1, 201588, Note_on_c, 0, 65, 0
1, 201600, Note_on_c, 0, 74, 0
1, 201600, Note_on_c, 0, 72, 60
1, 201600, Note_on_c, 0, 65, 38
1, 201600, Note_on_c, 0, 68, 38
1, 201720, Note_on_c, 0, 72, 0
1, 201828, Note_on_c, 0, 68, 0
1, 201828, Note_on_c, 0, 65, 0
1, 201840, Note_on_c, 0, 74, 60
1, 201840, Note_on_c, 0, 65, 38
1, 201840, Note_on_c, 0, 68, 38
1, 201960, Note_on_c, 0, 74, 0
1, 202068, Note_on_c, 0, 68, 0
1, 202068, Note_on_c, 0, 65, 0
1, 202080, Tempo, 416667
1, 202080, Note_on_c, 0, 58, 0
1, 202080, Note_on_c, 0, 75, 60
1, 202080, Note_on_c, 0, 58, 44
1, 202320, Tempo, 400000
1, 202320, Note_on_c, 0, 75, 0
1, 202320, Note_on_c, 0, 46, 55
1, 202320, Note_on_c, 0, 63, 38
1, 202320, Note_on_c, 0, 66, 38
1, 202440, Note_on_c, 0, 46, 0
1, 202548, Note_on_c, 0, 66, 0
1, 202548, Note_on_c, 0, 63, 0
1, 202560, Tempo, 390879
1, 202560, Note_on_c, 0, 51, 58
1, 202560, Note_on_c, 0, 63, 38
1, 202560, Note_on_c, 0, 66, 38
1, 202680, Note_on_c, 0, 51, 0
1, 202788, Note_on_c, 0, 66, 0
1, 202788, Note_on_c, 0, 63, 0
1, 202800, Note_on_c, 0, 53, 61
1, 202800, Note_on_c, 0, 63, 38
1, 202800, Note_on_c, 0, 66, 38
1, 202920, Note_on_c, 0, 53, 0
1, 203028, Note_on_c, 0, 66, 0
1, 203028, Note_on_c, 0, 63, 0
1, 203040, Tempo, 408163
1, 203040, Note_on_c, 0, 58, 0
1, 203040, Note_on_c, 0, 54, 64
1, 203040, Note_on_c, 0, 58, 44
1, 203160, Note_on_c, 0, 54, 0
1, 203280, Note_on_c, 0, 70, 62
1, 203280, Note_on_c, 0, 63, 38
1, 203280, Note_on_c, 0, 66, 38
1, 203400, Note_on_c, 0, 70, 0
1, 203508, Note_on_c, 0, 66, 0
1, 203508, Note_on_c, 0, 63, 0
1, 203520, Tempo, 398671
1, 203520, Note_on_c, 0, 75, 64
1, 203520, Note_on_c, 0, 63, 38
1, 203520, Note_on_c, 0, 66, 38
1, 203640, Note_on_c, 0, 75, 0
1, 203748, Note_on_c, 0, 66, 0
1, 203748, Note_on_c, 0, 63, 0
1, 203760, Note_on_c, 0, 77, 66
1, 203760, Note_on_c, 0, 63, 38
1, 203760, Note_on_c, 0, 66, 38
1, 203880, Note_on_c, 0, 77, 0
1, 203940, Note_on_c, 0, 70, 65
1, 203988, Note_on_c, 0, 66, 0
1, 203988, Note_on_c, 0, 63, 0
1, 204000, Tempo, 405405
1, 204000, Note_on_c, 0, 58, 0
1, 204000, Note_on_c, 0, 70, 0
1, 204000, Note_on_c, 0, 78, 75
1, 204000, Note_on_c, 0, 58, 44
1, 204240, Tempo, 400000
1, 204240, Note_on_c, 0, 63, 38
1, 204240, Note_on_c, 0, 66, 38
1, 204468, Note_on_c, 0, 66, 0
1, 204468, Note_on_c, 0, 63, 0
1, 204480, Note_on_c, 0, 63, 38
1, 204480, Note_on_c, 0, 66, 38
1, 204708, Note_on_c, 0, 66, 0
1, 204708, Note_on_c, 0, 63, 0
1, 204720, Tempo, 406780
1, 204720, Note_on_c, 0, 78, 0
1, 204720, Note_on_c, 0, 75, 63
1, 204720, Note_on_c, 0, 63, 38
1, 204720, Note_on_c, 0, 66, 38
1, 204900, Note_on_c, 0, 70, 60
1, 204948, Note_on_c, 0, 66, 0
1, 204948, Note_on_c, 0, 63, 0
1, 204960, Note_on_c, 0, 58, 0
1, 204960, Note_on_c, 0, 75, 0
1, 204960, Note_on_c, 0, 70, 0
1, 204960, Note_on_c, 0, 78, 71
1, 204960, Note_on_c, 0, 58, 44
1, 205200, Tempo, 400000
1, 205200, Note_on_c, 0, 63, 38
1, 205200, Note_on_c, 0, 66, 38
1, 205428, Note_on_c, 0, 66, 0
1, 205428, Note_on_c, 0, 63, 0
1, 205440, Note_on_c, 0, 63, 38
1, 205440, Note_on_c, 0, 66, 38
1, 205668, Note_on_c, 0, 66, 0
1, 205668, Note_on_c, 0, 63, 0
1, 205680, Tempo, 404040
1, 205680, Note_on_c, 0, 78, 0
1, 205680, Note_on_c, 0, 75, 58
1, 205680, Note_on_c, 0, 63, 38
1, 205680, Note_on_c, 0, 66, 38
1, 205908, Note_on_c, 0, 66, 0
1, 205908, Note_on_c, 0, 63, 0
1, 205920, Tempo, 416667
1, 205920, Note_on_c, 0, 75, 0
1, 205920, Note_on_c, 0, 58, 0
1, 205920, Note_on_c, 0, 72, 60
1, 205920, Note_on_c, 0, 56, 44
1, 206160, Tempo, 396040
1, 206160, Note_on_c, 0, 72, 0
1, 206160, Note_on_c, 0, 44, 57
1, 206160, Note_on_c, 0, 63, 38
1, 206160, Note_on_c, 0, 66, 38
1, 206280, Note_on_c, 0, 44, 0
1, 206388, Note_on_c, 0, 66, 0
1, 206388, Note_on_c, 0, 63, 0
1, 206400, Tempo, 388350
1, 206400, Note_on_c, 0, 51, 60
1, 206400, Note_on_c, 0, 63, 38
1, 206400, Note_on_c, 0, 66, 38
1, 206520, Note_on_c, 0, 51, 0
1, 206628, Note_on_c, 0, 66, 0
1, 206628, Note_on_c, 0, 63, 0
1, 206640, Note_on_c, 0, 53, 63
1, 206640, Note_on_c, 0, 63, 38
1, 206640, Note_on_c, 0, 66, 38
1, 206760, Note_on_c, 0, 53, 0
1, 206868, Note_on_c, 0, 66, 0
1, 206868, Note_on_c, 0, 63, 0
1, 206880, Tempo, 408163
1, 206880, Note_on_c, 0, 56, 0
1, 206880, Note_on_c, 0, 54, 66
1, 206880, Note_on_c, 0, 56, 44
1, 207000, Note_on_c, 0, 54, 0
1, 207120, Note_on_c, 0, 68, 59
1, 207120, Note_on_c, 0, 63, 38
1, 207120, Note_on_c, 0, 66, 38
1, 207348, Note_on_c, 0, 66, 0
1, 207348, Note_on_c, 0, 63, 0
1, 207360, Tempo, 400000
1, 207360, Note_on_c, 0, 68, 0
1, 207360, Note_on_c, 0, 78, 62
1, 207360, Note_on_c, 0, 63, 38
1, 207360, Note_on_c, 0, 66, 38
1, 207588, Note_on_c, 0, 66, 0
1, 207588, Note_on_c, 0, 63, 0
1, 207600, Note_on_c, 0, 78, 0
1, 207600, Note_on_c, 0, 77, 65
1, 207600, Note_on_c, 0, 63, 38
1, 207600, Note_on_c, 0, 66, 38
1, 207828, Note_on_c, 0, 66, 0
1, 207828, Note_on_c, 0, 63, 0
1, 207840, Tempo, 406780
1, 207840, Note_on_c, 0, 77, 0
1, 207840, Note_on_c, 0, 56, 0
1, 207840, Note_on_c, 0, 77, 60
1, 207840, Note_on_c, 0, 56, 44
1, 207900, Note_on_c, 0, 77, 0
1, 207900, Note_on_c, 0, 78, 60
1, 207960, Note_on_c, 0, 78, 0
1, 207960, Note_on_c, 0, 77, 67
1, 208080, Note_on_c, 0, 77, 0
1, 208080, Note_on_c, 0, 75, 60
1, 208080, Note_on_c, 0, 63, 38
1, 208080, Note_on_c, 0, 66, 38
1, 208308, Note_on_c, 0, 66, 0
1, 208308, Note_on_c, 0, 63, 0
1, 208320, Note_on_c, 0, 75, 0
1, 208320, Note_on_c, 0, 75, 60
1, 208320, Note_on_c, 0, 63, 38
1, 208320, Note_on_c, 0, 66, 38
1, 208380, Note_on_c, 0, 75, 0
1, 208380, Note_on_c, 0, 77, 60
1, 208440, Note_on_c, 0, 77, 0
1, 208440, Note_on_c, 0, 75, 67
1, 208548, Note_on_c, 0, 66, 0
1, 208548, Note_on_c, 0, 63, 0
1, 208560, Note_on_c, 0, 75, 0
1, 208560, Note_on_c, 0, 73, 60
1, 208560, Note_on_c, 0, 63, 38
1, 208560, Note_on_c, 0, 66, 38
1, 208788, Note_on_c, 0, 66, 0
1, 208788, Note_on_c, 0, 63, 0
1, 208800, Note_on_c, 0, 73, 0
1, 208800, Note_on_c, 0, 56, 0
1, 208800, Note_on_c, 0, 73, 60
1, 208800, Note_on_c, 0, 56, 44
1, 208860, Note_on_c, 0, 73, 0
1, 208860, Note_on_c, 0, 75, 60
1, 208920, Note_on_c, 0, 75, 0
1, 208920, Note_on_c, 0, 73, 66
1, 209040, Note_on_c, 0, 73, 0
1, 209040, Note_on_c, 0, 72, 60
1, 209040, Note_on_c, 0, 63, 38
1, 209040, Note_on_c, 0, 66, 38
1, 209268, Note_on_c, 0, 66, 0
1, 209268, Note_on_c, 0, 63, 0
1, 209280, Note_on_c, 0, 72, 0
1, 209280, Note_on_c, 0, 70, 60
1, 209280, Note_on_c, 0, 63, 38
1, 209280, Note_on_c, 0, 66, 38
1, 209400, Note_on_c, 0, 70, 0
1, 209508, Note_on_c, 0, 66, 0
1, 209508, Note_on_c, 0, 63, 0
1, 209520, Note_on_c, 0, 72, 60
1, 209520, Note_on_c, 0, 63, 38
1, 209520, Note_on_c, 0, 66, 38
1, 209640, Note_on_c, 0, 72, 0
1, 209748, Note_on_c, 0, 66, 0
1, 209748, Note_on_c, 0, 63, 0
1, 209760, Tempo, 409556
1, 209760, Note_on_c, 0, 56, 0
1, 209760, Note_on_c, 0, 73, 60
1, 209760, Note_on_c, 0, 56, 44
1, 210000, Tempo, 401338
1, 210000, Note_on_c, 0, 73, 0
1, 210000, Note_on_c, 0, 44, 55
1, 210000, Note_on_c, 0, 61, 38
1, 210000, Note_on_c, 0, 65, 38
1, 210120, Note_on_c, 0, 44, 0
1, 210228, Note_on_c, 0, 65, 0
1, 210228, Note_on_c, 0, 61, 0
1, 210240, Tempo, 393443
1, 210240, Note_on_c, 0, 49, 58
1, 210240, Note_on_c, 0, 61, 38
1, 210240, Note_on_c, 0, 65, 38
1, 210360, Note_on_c, 0, 49, 0
1, 210468, Note_on_c, 0, 65, 0
1, 210468, Note_on_c, 0, 61, 0
1, 210480, Note_on_c, 0, 51, 61
1, 210480, Note_on_c, 0, 61, 38
1, 210480, Note_on_c, 0, 65, 38
1, 210600, Note_on_c, 0, 51, 0
1, 210708, Note_on_c, 0, 65, 0
1, 210708, Note_on_c, 0, 61, 0
1, 210720, Tempo, 408163
1, 210720, Note_on_c, 0, 56, 0
1, 210720, Note_on_c, 0, 53, 64
1, 210720, Note_on_c, 0, 56, 44
1, 210840, Note_on_c, 0, 53, 0
1, 210960, Note_on_c, 0, 68, 62
1, 210960, Note_on_c, 0, 61, 38
1, 210960, Note_on_c, 0, 65, 38
1, 211080, Note_on_c, 0, 68, 0
1, 211188, Note_on_c, 0, 65, 0
1, 211188, Note_on_c, 0, 61, 0
1, 211200, Tempo, 398671
1, 211200, Note_on_c, 0, 73, 64
1, 211200, Note_on_c, 0, 61, 38
1, 211200, Note_on_c, 0, 65, 38
1, 211320, Note_on_c, 0, 73, 0
1, 211428, Note_on_c, 0, 65, 0
1, 211428, Note_on_c, 0, 61, 0
1, 211440, Note_on_c, 0, 75, 66
1, 211440, Note_on_c, 0, 61, 38
1, 211440, Note_on_c, 0, 65, 38
1, 211560, Note_on_c, 0, 75, 0
1, 211620, Note_on_c, 0, 68, 65
1, 211668, Note_on_c, 0, 65, 0
1, 211668, Note_on_c, 0, 61, 0
1, 211680, Tempo, 405405
1, 211680, Note_on_c, 0, 56, 0
1, 211680, Note_on_c, 0, 68, 0
1, 211680, Note_on_c, 0, 77, 75
1, 211680, Note_on_c, 0, 56, 44
1, 211920, Tempo, 400000
1, 211920, Note_on_c, 0, 61, 38
1, 211920, Note_on_c, 0, 65, 38
1, 212148, Note_on_c, 0, 65, 0
1, 212148, Note_on_c, 0, 61, 0
1, 212160, Note_on_c, 0, 61, 38
1, 212160, Note_on_c, 0, 65, 38
1, 212388, Note_on_c, 0, 65, 0
1, 212388, Note_on_c, 0, 61, 0
1, 212400, Tempo, 406780
1, 212400, Note_on_c, 0, 77, 0
1, 212400, Note_on_c, 0, 73, 63
1, 212400, Note_on_c, 0, 61, 38
1, 212400, Note_on_c, 0, 65, 38
1, 212580, Note_on_c, 0, 68, 60
1, 212628, Note_on_c, 0, 65, 0
1, 212628, Note_on_c, 0, 61, 0
1, 212640, Note_on_c, 0, 56, 0
1, 212640, Note_on_c, 0, 73, 0
1, 212640, Note_on_c, 0, 68, 0
1, 212640, Note_on_c, 0, 77, 71
1, 212640, Note_on_c, 0, 56, 44
1, 212880, Tempo, 400000
1, 212880, Note_on_c, 0, 61, 38
1, 212880, Note_on_c, 0, 65, 38
1, 213108, Note_on_c, 0, 65, 0
1, 213108, Note_on_c, 0, 61, 0
1, 213120, Note_on_c, 0, 61, 38
1, 213120, Note_on_c, 0, 65, 38
1, 213348, Note_on_c, 0, 65, 0
1, 213348, Note_on_c, 0, 61, 0
1, 213360, Tempo, 404040
1, 213360, Note_on_c, 0, 77, 0
1, 213360, Note_on_c, 0, 73, 58
1, 213360, Note_on_c, 0, 61, 38
1, 213360, Note_on_c, 0, 65, 38
1, 213588, Note_on_c, 0, 65, 0
1, 213588, Note_on_c, 0, 61, 0
1, 213600, Tempo, 413793
1, 213600, Note_on_c, 0, 73, 0
1, 213600, Note_on_c, 0, 56, 0
1, 213600, Note_on_c, 0, 72, 60
1, 213600, Note_on_c, 0, 56, 44
1, 213840, Tempo, 397351
1, 213840, Note_on_c, 0, 72, 0
1, 213840, Note_on_c, 0, 44, 57
1, 213840, Note_on_c, 0, 63, 38
1, 213840, Note_on_c, 0, 66, 38
1, 213960, Note_on_c, 0, 44, 0
1, 214068, Note_on_c, 0, 66, 0
1, 214068, Note_on_c, 0, 63, 0
1, 214080, Tempo, 389610
1, 214080, Note_on_c, 0, 51, 60
1, 214080, Note_on_c, 0, 63, 38
1, 214080, Note_on_c, 0, 66, 38
1, 214200, Note_on_c, 0, 51, 0
1, 214308, Note_on_c, 0, 66, 0
1, 214308, Note_on_c, 0, 63, 0
1, 214320, Note_on_c, 0, 53, 63
1, 214320, Note_on_c, 0, 63, 38
1, 214320, Note_on_c, 0, 66, 38
1, 214440, Note_on_c, 0, 53, 0
1, 214548, Note_on_c, 0, 66, 0
1, 214548, Note_on_c, 0, 63, 0
1, 214560, Tempo, 408163
1, 214560, Note_on_c, 0, 56, 0
1, 214560, Note_on_c, 0, 54, 66
1, 214560, Note_on_c, 0, 56, 44
1, 214680, Note_on_c, 0, 54, 0
1, 214800, Note_on_c, 0, 68, 59
1, 214800, Note_on_c, 0, 63, 38
1, 214800, Note_on_c, 0, 66, 38
1, 215028, Note_on_c, 0, 66, 0
1, 215028, Note_on_c, 0, 63, 0
1, 215040, Tempo, 400000
1, 215040, Note_on_c, 0, 68, 0
1, 215040, Note_on_c, 0, 78, 62
1, 215040, Note_on_c, 0, 63, 38
1, 215040, Note_on_c, 0, 66, 38
1, 215268, Note_on_c, 0, 66, 0
1, 215268, Note_on_c, 0, 63, 0
1, 215280, Note_on_c, 0, 78, 0
1, 215280, Note_on_c, 0, 77, 65
1, 215280, Note_on_c, 0, 63, 38
1, 215280, Note_on_c, 0, 66, 38
1, 215508, Note_on_c, 0, 66, 0
1, 215508, Note_on_c, 0, 63, 0
1, 215520, Tempo, 406780
1, 215520, Note_on_c, 0, 77, 0
1, 215520, Note_on_c, 0, 56, 0
1, 215520, Note_on_c, 0, 77, 60
1, 215520, Note_on_c, 0, 56, 44
1, 215580, Note_on_c, 0, 77, 0
1, 215580, Note_on_c, 0, 78, 60
1, 215640, Note_on_c, 0, 78, 0
1, 215640, Note_on_c, 0, 77, 67
1, 215760, Note_on_c, 0, 77, 0
1, 215760, Note_on_c, 0, 75, 60
1, 215760, Note_on_c, 0, 63, 38
1, 215760, Note_on_c, 0, 66, 38
1, 215988, Note_on_c, 0, 66, 0
1, 215988, Note_on_c, 0, 63, 0
1, 216000, Note_on_c, 0, 75, 0
1, 216000, Note_on_c, 0, 75, 60
1, 216000, Note_on_c, 0, 63, 38
1, 216000, Note_on_c, 0, 66, 38
1, 216060, Note_on_c, 0, 75, 0
1, 216060, Note_on_c, 0, 77, 60
1, 216120, Note_on_c, 0, 77, 0
1, 216120, Note_on_c, 0, 75, 67
1, 216228, Note_on_c, 0, 66, 0
1, 216228, Note_on_c, 0, 63, 0
1, 216240, Note_on_c, 0, 75, 0
1, 216240, Note_on_c, 0, 73, 60
1, 216240, Note_on_c, 0, 63, 38
1, 216240, Note_on_c, 0, 66, 38
1, 216468, Note_on_c, 0, 66, 0
1, 216468, Note_on_c, 0, 63, 0
1, 216480, Note_on_c, 0, 73, 0
1, 216480, Note_on_c, 0, 56, 0
1, 216480, Note_on_c, 0, 73, 60
1, 216480, Note_on_c, 0, 56, 44
1, 216540, Note_on_c, 0, 73, 0
1, 216540, Note_on_c, 0, 75, 60
1, 216600, Note_on_c, 0, 75, 0
1, 216600, Note_on_c, 0, 73, 66
1, 216720, Note_on_c, 0, 73, 0
1, 216720, Note_on_c, 0, 72, 60
1, 216720, Note_on_c, 0, 63, 38
1, 216720, Note_on_c, 0, 66, 38
1, 216948, Note_on_c, 0, 66, 0
1, 216948, Note_on_c, 0, 63, 0
1, 216960, Note_on_c, 0, 72, 0
1, 216960, Note_on_c, 0, 70, 60
1, 216960, Note_on_c, 0, 63, 38
1, 216960, Note_on_c, 0, 66, 38
1, 217080, Note_on_c, 0, 70, 0
1, 217188, Note_on_c, 0, 66, 0
1, 217188, Note_on_c, 0, 63, 0
1, 217200, Note_on_c, 0, 72, 57
1, 217200, Note_on_c, 0, 63, 38
1, 217200, Note_on_c, 0, 66, 38
1, 217320, Note_on_c, 0, 72, 0
1, 217428, Note_on_c, 0, 66, 0
1, 217428, Note_on_c, 0, 63, 0
1, 217440, Tempo, 409556
1, 217440, Note_on_c, 0, 56, 0
1, 217440, Note_on_c, 0, 73, 60
1, 217440, Note_on_c, 0, 61, 54
1, 217680, Tempo, 400000
1, 217680, Note_on_c, 0, 73, 0
1, 217680, Note_on_c, 0, 49, 73
1, 217680, Note_on_c, 0, 65, 53
1, 217680, Note_on_c, 0, 68, 53
1, 217920, Tempo, 394737
1, 217920, Note_on_c, 0, 68, 0
1, 217920, Note_on_c, 0, 61, 0
1, 217920, Note_on_c, 0, 49, 0
1, 217920, Note_on_c, 0, 65, 0
1, 217920, Note_on_c, 0, 56, 77
1, 217920, Note_on_c, 0, 59, 60
1, 218160, Tempo, 410959
1, 218160, Note_on_c, 0, 56, 0
1, 218160, Note_on_c, 0, 47, 73
1, 218160, Note_on_c, 0, 65, 53
1, 218160, Note_on_c, 0, 68, 53
1, 218280, Note_on_c, 0, 47, 0
1, 218400, Note_on_c, 0, 59, 0
1, 218400, Note_on_c, 0, 65, 0
1, 218400, Note_on_c, 0, 68, 0
1, 218400, Note_on_c, 0, 46, 77
1, 218400, Note_on_c, 0, 58, 53
1, 218520, Note_on_c, 0, 46, 0
1, 218640, Note_on_c, 0, 70, 59
1, 218640, Note_on_c, 0, 65, 38
1, 218640, Note_on_c, 0, 68, 38
1, 218868, Note_on_c, 0, 68, 0
1, 218868, Note_on_c, 0, 65, 0
1, 218880, Tempo, 400000
1, 218880, Note_on_c, 0, 70, 0
1, 218880, Note_on_c, 0, 80, 62
1, 218880, Note_on_c, 0, 65, 38
1, 218880, Note_on_c, 0, 68, 38
1, 219108, Note_on_c, 0, 68, 0
1, 219108, Note_on_c, 0, 65, 0
1, 219120, Note_on_c, 0, 80, 0
1, 219120, Note_on_c, 0, 78, 65
1, 219120, Note_on_c, 0, 65, 38
1, 219120, Note_on_c, 0, 68, 38
1, 219348, Note_on_c, 0, 68, 0
1, 219348, Note_on_c, 0, 65, 0
1, 219360, Tempo, 406780
1, 219360, Note_on_c, 0, 78, 0
1, 219360, Note_on_c, 0, 58, 0
1, 219360, Note_on_c, 0, 78, 60
1, 219360, Note_on_c, 0, 58, 44
1, 219420, Note_on_c, 0, 78, 0
1, 219420, Note_on_c, 0, 80, 60
1, 219480, Note_on_c, 0, 80, 0
1, 219480, Note_on_c, 0, 78, 67
1, 219600, Note_on_c, 0, 78, 0
1, 219600, Note_on_c, 0, 77, 60
1, 219600, Note_on_c, 0, 65, 38
1, 219600, Note_on_c, 0, 68, 38
1, 219828, Note_on_c, 0, 68, 0
1, 219828, Note_on_c, 0, 65, 0
1, 219840, Note_on_c, 0, 77, 0
1, 219840, Note_on_c, 0, 77, 60
1, 219840, Note_on_c, 0, 65, 38
1, 219840, Note_on_c, 0, 68, 38
1, 219900, Note_on_c, 0, 77, 0
1, 219900, Note_on_c, 0, 78, 60
1, 219960, Note_on_c, 0, 78, 0
1, 219960, Note_on_c, 0, 77, 67
1, 220068, Note_on_c, 0, 68, 0
1, 220068, Note_on_c, 0, 65, 0
1, 220080, Note_on_c, 0, 77, 0
1, 220080, Note_on_c, 0, 75, 60
1, 220080, Note_on_c, 0, 65, 38
1, 220080, Note_on_c, 0, 68, 38
1, 220308, Note_on_c, 0, 68, 0
1, 220308, Note_on_c, 0, 65, 0
1, 220320, Note_on_c, 0, 75, 0
1, 220320, Note_on_c, 0, 58, 0
1, 220320, Note_on_c, 0, 75, 60
1, 220320, Note_on_c, 0, 58, 44
1, 220380, Note_on_c, 0, 75, 0
1, 220380, Note_on_c, 0, 77, 60
1, 220440, Note_on_c, 0, 77, 0
1, 220440, Note_on_c, 0, 75, 66
1, 220560, Note_on_c, 0, 75, 0
1, 220560, Note_on_c, 0, 74, 60
1, 220560, Note_on_c, 0, 65, 38
1, 220560, Note_on_c, 0, 68, 38
1, 220788, Note_on_c, 0, 68, 0
1, 220788, Note_on_c, 0, 65, 0
1, 220800, Note_on_c, 0, 74, 0
1, 220800, Note_on_c, 0, 72, 60
1, 220800, Note_on_c, 0, 65, 38
1, 220800, Note_on_c, 0, 68, 38
1, 220920, Note_on_c, 0, 72, 0
1, 221028, Note_on_c, 0, 68, 0
1, 221028, Note_on_c, 0, 65, 0
1, 221040, Note_on_c, 0, 74, 57
1, 221040, Note_on_c, 0, 65, 38
1, 221040, Note_on_c, 0, 68, 38
1, 221160, Note_on_c, 0, 74, 0
1, 221268, Note_on_c, 0, 68, 0
1, 221268, Note_on_c, 0, 65, 0
1, 221280, Tempo, 419580
1, 221280, Note_on_c, 0, 58, 0
1, 221280, Note_on_c, 0, 75, 60
1, 221280, Note_on_c, 0, 63, 54
1, 221520, Tempo, 402685
1, 221520, Note_on_c, 0, 75, 0
1, 221520, Note_on_c, 0, 51, 73
1, 221520, Note_on_c, 0, 66, 53
1, 221520, Note_on_c, 0, 70, 53
1, 221760, Tempo, 396040
1, 221760, Note_on_c, 0, 70, 0
1, 221760, Note_on_c, 0, 63, 0
1, 221760, Note_on_c, 0, 51, 0
1, 221760, Note_on_c, 0, 66, 0
1, 221760, Note_on_c, 0, 58, 77
1, 221760, Note_on_c, 0, 61, 60
1, 222000, Tempo, 410959
1, 222000, Note_on_c, 0, 58, 0
1, 222000, Note_on_c, 0, 49, 73
1, 222000, Note_on_c, 0, 65, 53
1, 222000, Note_on_c, 0, 70, 53
1, 222120, Note_on_c, 0, 49, 0
1, 222240, Note_on_c, 0, 61, 0
1, 222240, Note_on_c, 0, 65, 0
1, 222240, Note_on_c, 0, 70, 0
1, 222240, Note_on_c, 0, 48, 77
1, 222240, Note_on_c, 0, 60, 53
1, 222360, Note_on_c, 0, 48, 0
1, 222480, Note_on_c, 0, 72, 59
1, 222480, Note_on_c, 0, 67, 38
1, 222480, Note_on_c, 0, 70, 38
1, 222708, Note_on_c, 0, 70, 0
1, 222708, Note_on_c, 0, 67, 0
1, 222720, Tempo, 400000
1, 222720, Note_on_c, 0, 72, 0
1, 222720, Note_on_c, 0, 82, 62
1, 222720, Note_on_c, 0, 67, 38
1, 222720, Note_on_c, 0, 70, 38
1, 222948, Note_on_c, 0, 70, 0
1, 222948, Note_on_c, 0, 67, 0
1, 222960, Note_on_c, 0, 82, 0
1, 222960, Note_on_c, 0, 80, 65
1, 222960, Note_on_c, 0, 67, 38
1, 222960, Note_on_c, 0, 70, 38
1, 223188, Note_on_c, 0, 70, 0
1, 223188, Note_on_c, 0, 67, 0
1, 223200, Tempo, 406780
1, 223200, Note_on_c, 0, 80, 0
1, 223200, Note_on_c, 0, 60, 0
1, 223200, Note_on_c, 0, 80, 60
1, 223200, Note_on_c, 0, 60, 44
1, 223260, Note_on_c, 0, 80, 0
1, 223260, Note_on_c, 0, 82, 60
1, 223320, Note_on_c, 0, 82, 0
1, 223320, Note_on_c, 0, 80, 67
1, 223440, Note_on_c, 0, 80, 0
1, 223440, Note_on_c, 0, 79, 60
1, 223440, Note_on_c, 0, 67, 38
1, 223440, Note_on_c, 0, 70, 38
1, 223668, Note_on_c, 0, 70, 0
1, 223668, Note_on_c, 0, 67, 0
1, 223680, Note_on_c, 0, 79, 0
1, 223680, Note_on_c, 0, 79, 60
1, 223680, Note_on_c, 0, 67, 38
1, 223680, Note_on_c, 0, 70, 38
1, 223740, Note_on_c, 0, 79, 0
1, 223740, Note_on_c, 0, 80, 60
1, 223800, Note_on_c, 0, 80, 0
1, 223800, Note_on_c, 0, 79, 67
1, 223908, Note_on_c, 0, 70, 0
1, 223908, Note_on_c, 0, 67, 0
1, 223920, Note_on_c, 0, 79, 0
1, 223920, Note_on_c, 0, 77, 60
1, 223920, Note_on_c, 0, 67, 38
1, 223920, Note_on_c, 0, 70, 38
1, 224148, Note_on_c, 0, 70, 0
1, 224148, Note_on_c, 0, 67, 0
1, 224160, Note_on_c, 0, 77, 0
1, 224160, Note_on_c, 0, 60, 0
1, 224160, Note_on_c, 0, 77, 60
1, 224160, Note_on_c, 0, 60, 44
1, 224220, Note_on_c, 0, 77, 0
1, 224220, Note_on_c, 0, 79, 60
1, 224280, Note_on_c, 0, 79, 0
1, 224280, Note_on_c, 0, 77, 66
1, 224400, Note_on_c, 0, 77, 0
1, 224400, Note_on_c, 0, 76, 60
1, 224400, Note_on_c, 0, 67, 38
1, 224400, Note_on_c, 0, 70, 38
1, 224628, Note_on_c, 0, 70, 0
1, 224628, Note_on_c, 0, 67, 0
1, 224640, Note_on_c, 0, 76, 0
1, 224640, Note_on_c, 0, 74, 60
1, 224640, Note_on_c, 0, 67, 38
1, 224640, Note_on_c, 0, 70, 38
1, 224868, Note_on_c, 0, 70, 0
1, 224868, Note_on_c, 0, 67, 0
1, 224880, Note_on_c, 0, 74, 0
1, 224880, Note_on_c, 0, 76, 57
1, 224880, Note_on_c, 0, 67, 38
1, 224880, Note_on_c, 0, 70, 38
1, 225108, Note_on_c, 0, 70, 0
1, 225108, Note_on_c, 0, 67, 0
1, 225120, Tempo, 406780
1, 225120, Note_on_c, 0, 76, 0
1, 225120, Note_on_c, 0, 60, 0
1, 225120, Note_on_c, 0, 79, 60
1, 225120, Note_on_c, 0, 65, 44
1, 225180, Note_on_c, 0, 79, 0
1, 225180, Note_on_c, 0, 80, 60
1, 225240, Note_on_c, 0, 80, 0
1, 225240, Note_on_c, 0, 79, 67
1, 225360, Note_on_c, 0, 79, 0
1, 225360, Note_on_c, 0, 77, 60
1, 225360, Note_on_c, 0, 68, 38
1, 225360, Note_on_c, 0, 72, 38
1, 225588, Note_on_c, 0, 72, 0
1, 225588, Note_on_c, 0, 68, 0
1, 225600, Note_on_c, 0, 77, 0
1, 225600, Note_on_c, 0, 77, 60
1, 225600, Note_on_c, 0, 68, 38
1, 225600, Note_on_c, 0, 72, 38
1, 225660, Note_on_c, 0, 77, 0
1, 225660, Note_on_c, 0, 79, 60
1, 225720, Note_on_c, 0, 79, 0
1, 225720, Note_on_c, 0, 77, 67
1, 225828, Note_on_c, 0, 72, 0
1, 225828, Note_on_c, 0, 68, 0
1, 225840, Note_on_c, 0, 77, 0
1, 225840, Note_on_c, 0, 75, 60
1, 225840, Note_on_c, 0, 68, 38
1, 225840, Note_on_c, 0, 72, 38
1, 226068, Note_on_c, 0, 72, 0
1, 226068, Note_on_c, 0, 68, 0
1, 226080, Note_on_c, 0, 75, 0
1, 226080, Note_on_c, 0, 65, 0
1, 226080, Note_on_c, 0, 75, 60
1, 226080, Note_on_c, 0, 58, 44
1, 226140, Note_on_c, 0, 75, 0
1, 226140, Note_on_c, 0, 77, 60
1, 226200, Note_on_c, 0, 77, 0
1, 226200, Note_on_c, 0, 75, 66
1, 226320, Note_on_c, 0, 75, 0
1, 226320, Note_on_c, 0, 74, 60
1, 226320, Note_on_c, 0, 65, 38
1, 226320, Note_on_c, 0, 68, 38
1, 226548, Note_on_c, 0, 68, 0
1, 226548, Note_on_c, 0, 65, 0
1, 226560, Note_on_c, 0, 74, 0
1, 226560, Note_on_c, 0, 58, 0
1, 226560, Note_on_c, 0, 72, 60
1, 226560, Note_on_c, 0, 59, 44
1, 226560, Note_on_c, 0, 65, 38
1, 226560, Note_on_c, 0, 68, 38
1, 226788, Note_on_c, 0, 68, 0
1, 226788, Note_on_c, 0, 65, 0
1, 226800, Note_on_c, 0, 72, 0
1, 226800, Note_on_c, 0, 74, 57
1, 226800, Note_on_c, 0, 65, 38
1, 226800, Note_on_c, 0, 68, 38
1, 227028, Note_on_c, 0, 68, 0
1, 227028, Note_on_c, 0, 65, 0
1, 227040, Tempo, 406780
1, 227040, Note_on_c, 0, 74, 0
1, 227040, Note_on_c, 0, 59, 0
1, 227040, Note_on_c, 0, 77, 60
1, 227040, Note_on_c, 0, 60, 44
1, 227100, Note_on_c, 0, 77, 0
1, 227100, Note_on_c, 0, 79, 60
1, 227160, Note_on_c, 0, 79, 0
1, 227160, Note_on_c, 0, 77, 67
1, 227280, Note_on_c, 0, 77, 0
1, 227280, Note_on_c, 0, 75, 59
1, 227280, Note_on_c, 0, 63, 37
1, 227280, Note_on_c, 0, 67, 37
1, 227508, Note_on_c, 0, 67, 0
1, 227508, Note_on_c, 0, 63, 0
1, 227520, Note_on_c, 0, 75, 0
1, 227520, Note_on_c, 0, 75, 58
1, 227520, Note_on_c, 0, 63, 36
1, 227520, Note_on_c, 0, 67, 36
1, 227580, Note_on_c, 0, 75, 0
1, 227580, Note_on_c, 0, 77, 58
1, 227640, Note_on_c, 0, 77, 0
1, 227640, Note_on_c, 0, 75, 64
1, 227748, Note_on_c, 0, 67, 0
1, 227748, Note_on_c, 0, 63, 0
1, 227760, Note_on_c, 0, 75, 0
1, 227760, Note_on_c, 0, 74, 57
1, 227760, Note_on_c, 0, 63, 36
1, 227760, Note_on_c, 0, 67, 36
1, 227988, Note_on_c, 0, 67, 0
1, 227988, Note_on_c, 0, 63, 0
1, 228000, Note_on_c, 0, 74, 0
1, 228000, Note_on_c, 0, 60, 0
1, 228000, Note_on_c, 0, 74, 56
1, 228000, Note_on_c, 0, 56, 41
1, 228060, Note_on_c, 0, 74, 0
1, 228060, Note_on_c, 0, 75, 55
1, 228120, Note_on_c, 0, 75, 0
1, 228120, Note_on_c, 0, 74, 61
1, 228220, Tempo, 405405
1, 228240, Note_on_c, 0, 74, 0
1, 228240, Note_on_c, 0, 72, 55
1, 228240, Note_on_c, 0, 63, 34
1, 228240, Note_on_c, 0, 65, 34
1, 228300, Tempo, 406780
1, 228380, Tempo, 408163
1, 228440, Tempo, 409556
1, 228468, Note_on_c, 0, 65, 0
1, 228468, Note_on_c, 0, 63, 0
1, 228480, Note_on_c, 0, 72, 0
1, 228480, Note_on_c, 0, 72, 54
1, 228480, Note_on_c, 0, 63, 34
1, 228480, Note_on_c, 0, 65, 34
1, 228520, Tempo, 410959
1, 228540, Note_on_c, 0, 72, 0
1, 228540, Note_on_c, 0, 74, 54
1, 228580, Tempo, 412371
1, 228600, Note_on_c, 0, 74, 0
1, 228600, Note_on_c, 0, 72, 59
1, 228660, Tempo, 413793
1, 228708, Note_on_c, 0, 65, 0
1, 228708, Note_on_c, 0, 63, 0
1, 228720, Note_on_c, 0, 72, 0
1, 228720, Note_on_c, 0, 71, 53
1, 228720, Note_on_c, 0, 63, 33
1, 228720, Note_on_c, 0, 65, 33
1, 228740, Tempo, 415225
1, 228800, Tempo, 416667
1, 228880, Tempo, 418118
1, 228940, Tempo, 419580
1, 228948, Note_on_c, 0, 65, 0
1, 228948, Note_on_c, 0, 63, 0
1, 228960, Tempo, 425532
1, 228960, Note_on_c, 0, 71, 0
1, 228960, Note_on_c, 0, 56, 0
1, 228960, Note_on_c, 0, 72, 52
1, 228960, Note_on_c, 0, 58, 38
1, 229020, Note_on_c, 0, 72, 0
1, 229020, Note_on_c, 0, 74, 52
1, 229080, Note_on_c, 0, 74, 0
1, 229080, Note_on_c, 0, 72, 56
1, 229200, Note_on_c, 0, 72, 0
1, 229200, Note_on_c, 0, 70, 51
1, 229200, Note_on_c, 0, 63, 32
1, 229200, Note_on_c, 0, 67, 32
1, 229428, Note_on_c, 0, 67, 0
1, 229428, Note_on_c, 0, 63, 0
1, 229440, Note_on_c, 0, 70, 0
1, 229440, Note_on_c, 0, 70, 50
1, 229440, Note_on_c, 0, 63, 31
1, 229440, Note_on_c, 0, 67, 31
1, 229530, Note_on_c, 0, 70, 0
1, 229668, Note_on_c, 0, 67, 0
1, 229668, Note_on_c, 0, 63, 0
1, 229680, Note_on_c, 0, 70, 46
1, 229680, Note_on_c, 0, 63, 31
1, 229680, Note_on_c, 0, 67, 31
1, 229770, Note_on_c, 0, 70, 0
1, 229908, Note_on_c, 0, 67, 0
1, 229908, Note_on_c, 0, 63, 0
1, 229920, Tempo, 441176
1, 229920, Note_on_c, 0, 58, 0
1, 229920, Note_on_c, 0, 72, 37
1, 229920, Note_on_c, 0, 58, 27
1, 229980, Note_on_c, 0, 72, 0
1, 229980, Note_on_c, 0, 74, 37
1, 230040, Note_on_c, 0, 74, 0
1, 230040, Note_on_c, 0, 72, 41
1, 230160, Note_on_c, 0, 72, 0
1, 230160, Note_on_c, 0, 70, 37
1, 230160, Note_on_c, 0, 62, 23
1, 230160, Note_on_c, 0, 65, 23
1, 230388, Note_on_c, 0, 65, 0
1, 230388, Note_on_c, 0, 62, 0
1, 230400, Note_on_c, 0, 70, 0
1, 230400, Note_on_c, 0, 70, 37
1, 230400, Note_on_c, 0, 62, 23
1, 230400, Note_on_c, 0, 65, 23
1, 230490, Note_on_c, 0, 70, 0
1, 230628, Note_on_c, 0, 65, 0
1, 230628, Note_on_c, 0, 62, 0
1, 230640, Note_on_c, 0, 70, 35
1, 230640, Note_on_c, 0, 62, 23
1, 230640, Note_on_c, 0, 65, 23
1, 230730, Note_on_c, 0, 70, 0
1, 230868, Note_on_c, 0, 65, 0
1, 230868, Note_on_c, 0, 62, 0
1, 230880, Note_on_c, 0, 58, 0
1, 230880, Note_on_c, 0, 51, 36
1, 230986, Control_c, 0, 64, 127
1, 231000, Note_on_c, 0, 63, 25
1, 231000, Note_on_c, 0, 58, 24
1, 231120, Tempo, 418118
1, 231120, Note_on_c, 0, 58, 0
1, 231120, Note_on_c, 0, 63, 0
1, 231120, Note_on_c, 0, 67, 29
1, 231120, Note_on_c, 0, 55, 26
1, 231240, Note_on_c, 0, 55, 0
1, 231240, Note_on_c, 0, 67, 0
1, 231240, Note_on_c, 0, 63, 29
1, 231240, Note_on_c, 0, 58, 24
1, 231280, Tempo, 416667
1, 231360, Note_on_c, 0, 58, 0
1, 231360, Note_on_c, 0, 63, 0
1, 231360, Note_on_c, 0, 75, 45
1, 231360, Note_on_c, 0, 55, 32
1, 231420, Tempo, 415225
1, 231480, Note_on_c, 0, 55, 0
1, 231480, Note_on_c, 0, 63, 28
1, 231480, Note_on_c, 0, 58, 25
1, 231560, Tempo, 413793
1, 231600, Note_on_c, 0, 58, 0
1, 231600, Note_on_c, 0, 63, 0
1, 231600, Note_on_c, 0, 67, 30
1, 231600, Note_on_c, 0, 55, 28
1, 231700, Tempo, 412371
1, 231720, Note_on_c, 0, 55, 0
1, 231720, Note_on_c, 0, 67, 0
1, 231720, Note_on_c, 0, 63, 28
1, 231720, Note_on_c, 0, 58, 26
1, 231840, Tempo, 410959
1, 231840, Note_on_c, 0, 58, 0
1, 231840, Note_on_c, 0, 63, 0
1, 231840, Note_on_c, 0, 67, 31
1, 231840, Note_on_c, 0, 55, 34
1, 231850, Control_c, 0, 64, 0
1, 231904, Control_c, 0, 64, 127
1, 231960, Note_on_c, 0, 55, 0
1, 231960, Note_on_c, 0, 67, 0
1, 231960, Note_on_c, 0, 63, 30
1, 231960, Note_on_c, 0, 58, 26
1, 232080, Note_on_c, 0, 58, 0
1, 232080, Note_on_c, 0, 63, 0
1, 232080, Note_on_c, 0, 67, 32
1, 232080, Note_on_c, 0, 55, 29
1, 232200, Note_on_c, 0, 55, 0
1, 232200, Note_on_c, 0, 67, 0
1, 232200, Note_on_c, 0, 63, 29
1, 232200, Note_on_c, 0, 58, 26
1, 232320, Note_on_c, 0, 58, 0
1, 232320, Note_on_c, 0, 51, 0
1, 232320, Note_on_c, 0, 75, 0
1, 232320, Note_on_c, 0, 63, 0
1, 232320, Note_on_c, 0, 75, 50
1, 232320, Note_on_c, 0, 51, 36
1, 232440, Note_on_c, 0, 63, 30
1, 232440, Note_on_c, 0, 58, 28
1, 232560, Note_on_c, 0, 58, 0
1, 232560, Note_on_c, 0, 63, 0
1, 232560, Note_on_c, 0, 67, 33
1, 232560, Note_on_c, 0, 55, 32
1, 232680, Note_on_c, 0, 55, 0
1, 232680, Note_on_c, 0, 67, 0
1, 232680, Note_on_c, 0, 63, 32
1, 232680, Note_on_c, 0, 58, 28
1, 232800, Tempo, 451128
1, 232800, Note_on_c, 0, 58, 0
1, 232800, Note_on_c, 0, 75, 0
1, 232800, Note_on_c, 0, 51, 0
1, 232800, Note_on_c, 0, 63, 0
1, 232800, Note_on_c, 0, 49, 45
1, 232814, Control_c, 0, 64, 0
1, 232920, Note_on_c, 0, 63, 32
1, 232920, Note_on_c, 0, 58, 30
1, 232927, Control_c, 0, 64, 127
1, 233020, Tempo, 416667
1, 233040, Note_on_c, 0, 58, 0
1, 233040, Note_on_c, 0, 63, 0
1, 233040, Note_on_c, 0, 67, 36
1, 233040, Note_on_c, 0, 55, 32
1, 233160, Note_on_c, 0, 55, 0
1, 233160, Note_on_c, 0, 67, 0
1, 233160, Note_on_c, 0, 63, 35
1, 233160, Note_on_c, 0, 58, 29
1, 233280, Tempo, 415225
1, 233280, Note_on_c, 0, 58, 0
1, 233280, Note_on_c, 0, 63, 0
1, 233280, Note_on_c, 0, 75, 54
1, 233280, Note_on_c, 0, 55, 38
1, 233400, Note_on_c, 0, 55, 0
1, 233400, Note_on_c, 0, 63, 33
1, 233400, Note_on_c, 0, 58, 30
1, 233520, Tempo, 413793
1, 233520, Note_on_c, 0, 58, 0
1, 233520, Note_on_c, 0, 63, 0
1, 233520, Note_on_c, 0, 67, 35
1, 233520, Note_on_c, 0, 55, 33
1, 233640, Note_on_c, 0, 55, 0
1, 233640, Note_on_c, 0, 67, 0
1, 233640, Note_on_c, 0, 63, 32
1, 233640, Note_on_c, 0, 58, 30
1, 233760, Tempo, 412371
1, 233760, Note_on_c, 0, 58, 0
1, 233760, Note_on_c, 0, 63, 0
1, 233760, Note_on_c, 0, 67, 35
1, 233760, Note_on_c, 0, 55, 38
1, 233774, Control_c, 0, 64, 0
1, 233859, Control_c, 0, 64, 127
1, 233880, Note_on_c, 0, 55, 0
1, 233880, Note_on_c, 0, 67, 0
1, 233880, Note_on_c, 0, 63, 33
1, 233880, Note_on_c, 0, 58, 29
1, 234000, Note_on_c, 0, 58, 0
1, 234000, Note_on_c, 0, 63, 0
1, 234000, Note_on_c, 0, 67, 35
1, 234000, Note_on_c, 0, 55, 32
1, 234120, Note_on_c, 0, 55, 0
1, 234120, Note_on_c, 0, 67, 0
1, 234120, Note_on_c, 0, 63, 32
1, 234120, Note_on_c, 0, 58, 29
1, 234240, Note_on_c, 0, 58, 0
1, 234240, Note_on_c, 0, 49, 0
1, 234240, Note_on_c, 0, 75, 0
1, 234240, Note_on_c, 0, 63, 0
1, 234240, Note_on_c, 0, 75, 53
1, 234240, Note_on_c, 0, 49, 38
1, 234360, Note_on_c, 0, 63, 32
1, 234360, Note_on_c, 0, 58, 30
1, 234480, Note_on_c, 0, 58, 0
1, 234480, Note_on_c, 0, 63, 0
1, 234480, Note_on_c, 0, 67, 35
1, 234480, Note_on_c, 0, 55, 33
1, 234600, Tempo, 446097
1, 234600, Note_on_c, 0, 55, 0
1, 234600, Note_on_c, 0, 67, 0
1, 234600, Note_on_c, 0, 63, 33
1, 234600, Note_on_c, 0, 58, 29
1, 234720, Tempo, 406780
1, 234720, Note_on_c, 0, 58, 0
1, 234720, Note_on_c, 0, 75, 0
1, 234720, Note_on_c, 0, 49, 0
1, 234720, Note_on_c, 0, 63, 0
1, 234720, Note_on_c, 0, 75, 66
1, 234720, Note_on_c, 0, 48, 55
1, 234737, Control_c, 0, 64, 0
1, 234810, Note_on_c, 0, 48, 0
1, 234810, Note_on_c, 0, 75, 0
1, 234840, Note_on_c, 0, 63, 41
1, 234840, Note_on_c, 0, 56, 36
1, 234920, Tempo, 405405
1, 234960, Note_on_c, 0, 56, 0
1, 234960, Note_on_c, 0, 63, 0
1, 234960, Note_on_c, 0, 68, 45
1, 234960, Note_on_c, 0, 51, 39
1, 235080, Note_on_c, 0, 51, 0
1, 235080, Note_on_c, 0, 68, 0
1, 235080, Note_on_c, 0, 63, 42
1, 235080, Note_on_c, 0, 56, 35
1, 235120, Tempo, 404040
1, 235200, Note_on_c, 0, 56, 0
1, 235200, Note_on_c, 0, 63, 0
1, 235200, Note_on_c, 0, 76, 67
1, 235200, Note_on_c, 0, 46, 56
1, 235290, Note_on_c, 0, 46, 0
1, 235290, Note_on_c, 0, 76, 0
1, 235300, Tempo, 402685
1, 235320, Note_on_c, 0, 64, 43
1, 235320, Note_on_c, 0, 55, 36
1, 235440, Note_on_c, 0, 55, 0
1, 235440, Note_on_c, 0, 64, 0
1, 235440, Note_on_c, 0, 72, 47
1, 235440, Note_on_c, 0, 48, 43
1, 235500, Tempo, 401338
1, 235560, Note_on_c, 0, 48, 0
1, 235560, Note_on_c, 0, 72, 0
1, 235560, Note_on_c, 0, 64, 43
1, 235560, Note_on_c, 0, 55, 41
1, 235680, Tempo, 392157
1, 235680, Note_on_c, 0, 55, 0
1, 235680, Note_on_c, 0, 64, 0
1, 235680, Note_on_c, 0, 77, 71
1, 235680, Note_on_c, 0, 44, 58
1, 235770, Note_on_c, 0, 44, 0
1, 235770, Note_on_c, 0, 77, 0
1, 235800, Note_on_c, 0, 65, 45
1, 235800, Note_on_c, 0, 56, 38
1, 235920, Note_on_c, 0, 56, 0
1, 235920, Note_on_c, 0, 65, 0
1, 235920, Note_on_c, 0, 72, 50
1, 235920, Note_on_c, 0, 48, 43
1, 236040, Note_on_c, 0, 48, 0
1, 236040, Note_on_c, 0, 72, 0
1, 236040, Note_on_c, 0, 65, 45
1, 236040, Note_on_c, 0, 56, 38
1, 236160, Note_on_c, 0, 56, 0
1, 236160, Note_on_c, 0, 65, 0
1, 236160, Note_on_c, 0, 79, 72
1, 236160, Note_on_c, 0, 43, 60
1, 236250, Note_on_c, 0, 43, 0
1, 236250, Note_on_c, 0, 79, 0
1, 236280, Note_on_c, 0, 67, 47
1, 236280, Note_on_c, 0, 55, 40
1, 236400, Note_on_c, 0, 55, 0
1, 236400, Note_on_c, 0, 67, 0
1, 236400, Note_on_c, 0, 72, 50
1, 236400, Note_on_c, 0, 48, 43
1, 236520, Note_on_c, 0, 48, 0
1, 236520, Note_on_c, 0, 72, 0
1, 236520, Note_on_c, 0, 67, 47
1, 236520, Note_on_c, 0, 55, 38
1, 236640, Tempo, 389610
1, 236640, Note_on_c, 0, 55, 0
1, 236640, Note_on_c, 0, 67, 0
1, 236640, Note_on_c, 0, 80, 74
1, 236640, Note_on_c, 0, 41, 63
1, 236660, Tempo, 388350
1, 236680, Tempo, 387097
1, 236730, Note_on_c, 0, 41, 0
1, 236730, Note_on_c, 0, 80, 0
1, 236740, Tempo, 385852
1, 236760, Note_on_c, 0, 68, 49
1, 236760, Note_on_c, 0, 53, 42
1, 236780, Tempo, 384615
1, 236820, Tempo, 383387
1, 236840, Tempo, 382166
1, 236860, Tempo, 383387
1, 236880, Tempo, 390879
1, 236880, Note_on_c, 0, 53, 0
1, 236880, Note_on_c, 0, 68, 0
1, 236880, Note_on_c, 0, 72, 54
1, 236880, Note_on_c, 0, 48, 45
1, 236900, Tempo, 393443
1, 236920, Tempo, 392157
1, 236940, Tempo, 390879
1, 236980, Tempo, 388350
1, 237000, Tempo, 387097
1, 237000, Note_on_c, 0, 48, 0
1, 237000, Note_on_c, 0, 72, 0
1, 237000, Note_on_c, 0, 68, 49
1, 237000, Note_on_c, 0, 53, 42
1, 237040, Tempo, 385852
1, 237080, Tempo, 384615
1, 237120, Note_on_c, 0, 53, 0
1, 237120, Note_on_c, 0, 68, 0
1, 237120, Note_on_c, 0, 81, 80
1, 237120, Note_on_c, 0, 39, 66
1, 237210, Note_on_c, 0, 39, 0
1, 237210, Note_on_c, 0, 81, 0
1, 237240, Note_on_c, 0, 69, 50
1, 237240, Note_on_c, 0, 51, 41
1, 237360, Note_on_c, 0, 51, 0
1, 237360, Note_on_c, 0, 69, 0
1, 237360, Note_on_c, 0, 72, 55
1, 237360, Note_on_c, 0, 41, 47
1, 237380, Tempo, 390879
1, 237400, Tempo, 392157
1, 237420, Tempo, 393443
1, 237460, Tempo, 390879
1, 237480, Tempo, 387097
1, 237480, Note_on_c, 0, 41, 0
1, 237480, Note_on_c, 0, 72, 0
1, 237480, Note_on_c, 0, 69, 51
1, 237480, Note_on_c, 0, 51, 41
1, 237500, Tempo, 385852
1, 237520, Tempo, 384615
1, 237540, Tempo, 383387
1, 237560, Tempo, 388350
1, 237600, Note_on_c, 0, 51, 0
1, 237600, Note_on_c, 0, 69, 0
1, 237600, Note_on_c, 0, 82, 84
1, 237600, Note_on_c, 0, 38, 68
1, 237660, Tempo, 387097
1, 237680, Tempo, 384615
1, 237690, Note_on_c, 0, 38, 0
1, 237690, Note_on_c, 0, 82, 0
1, 237720, Note_on_c, 0, 70, 51
1, 237720, Note_on_c, 0, 50, 45
1, 237740, Tempo, 383387
1, 237800, Tempo, 384615
1, 237820, Tempo, 385852
1, 237840, Tempo, 388350
1, 237840, Note_on_c, 0, 50, 0
1, 237840, Note_on_c, 0, 70, 0
1, 237840, Note_on_c, 0, 77, 58
1, 237840, Note_on_c, 0, 41, 49
1, 237880, Tempo, 385852
1, 237900, Tempo, 384615
1, 237920, Tempo, 383387
1, 237960, Tempo, 382166
1, 237960, Note_on_c, 0, 41, 0
1, 237960, Note_on_c, 0, 77, 0
1, 237960, Note_on_c, 0, 70, 53
1, 237960, Note_on_c, 0, 50, 43
1, 238000, Tempo, 383387
1, 238020, Tempo, 385852
1, 238060, Tempo, 387097
1, 238080, Tempo, 388350
1, 238080, Note_on_c, 0, 50, 0
1, 238080, Note_on_c, 0, 70, 0
1, 238080, Note_on_c, 0, 84, 85
1, 238080, Note_on_c, 0, 36, 70
1, 238100, Tempo, 389610
1, 238120, Tempo, 390879
1, 238140, Tempo, 388350
1, 238160, Tempo, 385852
1, 238170, Note_on_c, 0, 36, 0
1, 238170, Note_on_c, 0, 84, 0
1, 238180, Tempo, 384615
1, 238200, Note_on_c, 0, 72, 53
1, 238200, Note_on_c, 0, 48, 45
1, 238220, Tempo, 383387
1, 238260, Tempo, 382166
1, 238320, Tempo, 383387
1, 238320, Note_on_c, 0, 48, 0
1, 238320, Note_on_c, 0, 72, 0
1, 238320, Note_on_c, 0, 77, 58
1, 238320, Note_on_c, 0, 41, 51
1, 238340, Tempo, 385852
1, 238360, Tempo, 387097
1, 238380, Tempo, 388350
1, 238400, Tempo, 389610
1, 238420, Tempo, 388350
1, 238440, Tempo, 387097
1, 238440, Note_on_c, 0, 41, 0
1, 238440, Note_on_c, 0, 77, 0
1, 238440, Note_on_c, 0, 72, 54
1, 238440, Note_on_c, 0, 48, 43
1, 238460, Tempo, 384615
1, 238520, Tempo, 383387
1, 238540, Tempo, 382166
1, 238560, Note_on_c, 0, 48, 0
1, 238560, Note_on_c, 0, 72, 0
1, 238560, Note_on_c, 0, 85, 85
1, 238560, Note_on_c, 0, 34, 70
1, 238580, Tempo, 380952
1, 238620, Tempo, 383387
1, 238650, Note_on_c, 0, 34, 0
1, 238650, Note_on_c, 0, 85, 0
1, 238660, Tempo, 385852
1, 238680, Tempo, 387097
1, 238680, Note_on_c, 0, 73, 55
1, 238680, Note_on_c, 0, 46, 47
1, 238700, Tempo, 388350
1, 238740, Tempo, 390879
1, 238780, Tempo, 389610
1, 238800, Tempo, 387097
1, 238800, Note_on_c, 0, 46, 0
1, 238800, Note_on_c, 0, 73, 0
1, 238800, Note_on_c, 0, 77, 63
1, 238800, Note_on_c, 0, 41, 53
1, 238820, Tempo, 384615
1, 238860, Tempo, 383387
1, 238920, Note_on_c, 0, 41, 0
1, 238920, Note_on_c, 0, 77, 0
1, 238920, Note_on_c, 0, 73, 55
1, 238920, Note_on_c, 0, 46, 48
1, 238940, Tempo, 385852
1, 238960, Tempo, 387097
1, 239000, Tempo, 388350
1, 239040, Note_on_c, 0, 46, 0
1, 239040, Note_on_c, 0, 73, 0
1, 239040, Note_on_c, 0, 86, 90
1, 239040, Note_on_c, 0, 32, 72
1, 239080, Tempo, 387097
1, 239120, Tempo, 385852
1, 239130, Note_on_c, 0, 32, 0
1, 239130, Note_on_c, 0, 86, 0
1, 239160, Tempo, 384615
1, 239160, Note_on_c, 0, 74, 57
1, 239160, Note_on_c, 0, 44, 47
1, 239180, Tempo, 383387
1, 239240, Tempo, 382166
1, 239280, Note_on_c, 0, 44, 0
1, 239280, Note_on_c, 0, 74, 0
1, 239280, Note_on_c, 0, 77, 62
1, 239280, Note_on_c, 0, 41, 53
1, 239300, Tempo, 384615
1, 239320, Tempo, 385852
1, 239360, Tempo, 387097
1, 239380, Tempo, 388350
1, 239400, Note_on_c, 0, 41, 0
1, 239400, Note_on_c, 0, 77, 0
1, 239400, Note_on_c, 0, 74, 57
1, 239400, Note_on_c, 0, 44, 50
1, 239520, Tempo, 385852
1, 239520, Note_on_c, 0, 44, 0
1, 239520, Note_on_c, 0, 74, 0
1, 239520, Note_on_c, 0, 87, 89
1, 239520, Note_on_c, 0, 31, 75
1, 239540, Tempo, 384615
1, 239560, Tempo, 383387
1, 239580, Tempo, 382166
1, 239610, Note_on_c, 0, 31, 0
1, 239610, Note_on_c, 0, 87, 0
1, 239640, Note_on_c, 0, 75, 59
1, 239640, Note_on_c, 0, 43, 50
1, 239680, Tempo, 385852
1, 239760, Note_on_c, 0, 43, 0
1, 239760, Note_on_c, 0, 75, 0
1, 239760, Note_on_c, 0, 82, 64
1, 239760, Note_on_c, 0, 39, 55
1, 239820, Tempo, 388350
1, 239860, Tempo, 390879
1, 239880, Note_on_c, 0, 39, 0
1, 239880, Note_on_c, 0, 82, 0
1, 239880, Note_on_c, 0, 75, 59
1, 239880, Note_on_c, 0, 43, 50
1, 239900, Tempo, 388350
1, 239960, Tempo, 390879
1, 240000, Tempo, 406780
1, 240000, Note_on_c, 0, 43, 0
1, 240000, Note_on_c, 0, 75, 0
1, 240000, Note_on_c, 0, 83, 91
1, 240000, Note_on_c, 0, 31, 76
1, 240090, Note_on_c, 0, 31, 0
1, 240090, Note_on_c, 0, 83, 0
1, 240120, Note_on_c, 0, 71, 61
1, 240120, Note_on_c, 0, 43, 56
1, 240240, Note_on_c, 0, 43, 0
1, 240240, Note_on_c, 0, 71, 0
1, 240240, Note_on_c, 0, 75, 67
1, 240240, Note_on_c, 0, 39, 58
1, 240360, Note_on_c, 0, 39, 0
1, 240360, Note_on_c, 0, 75, 0
1, 240360, Note_on_c, 0, 71, 61
1, 240360, Note_on_c, 0, 43, 55
1, 240480, Tempo, 398671
1, 240480, Note_on_c, 0, 43, 0
1, 240480, Note_on_c, 0, 71, 0
1, 240480, Note_on_c, 0, 32, 71
1, 240480, Note_on_c, 0, 44, 84
1, 240558, Control_c, 0, 64, 127
1, 240600, Tempo, 390879
1, 240600, Note_on_c, 0, 72, 78
1, 240720, Note_on_c, 0, 72, 0
1, 240720, Note_on_c, 0, 44, 0
1, 240720, Note_on_c, 0, 32, 0
1, 240720, Note_on_c, 0, 75, 84
1, 240840, Note_on_c, 0, 75, 0
1, 240840, Note_on_c, 0, 72, 78
1, 240960, Note_on_c, 0, 72, 0
1, 240960, Note_on_c, 0, 84, 88
1, 241050, Note_on_c, 0, 84, 0
1, 241080, Note_on_c, 0, 72, 78
1, 241200, Tempo, 408163
1, 241200, Note_on_c, 0, 72, 0
1, 241200, Note_on_c, 0, 75, 84
1, 241320, Note_on_c, 0, 75, 0
1, 241320, Note_on_c, 0, 72, 76
1, 241440, Tempo, 404040
1, 241440, Note_on_c, 0, 72, 0
1, 241440, Note_on_c, 0, 46, 84
1, 241440, Note_on_c, 0, 34, 71
1, 241454, Control_c, 0, 64, 0
1, 241532, Control_c, 0, 64, 127
1, 241560, Tempo, 392157
1, 241560, Note_on_c, 0, 65, 78
1, 241680, Note_on_c, 0, 65, 0
1, 241680, Note_on_c, 0, 34, 0
1, 241680, Note_on_c, 0, 46, 0
1, 241680, Note_on_c, 0, 68, 84
1, 241800, Note_on_c, 0, 68, 0
1, 241800, Note_on_c, 0, 65, 78
1, 241920, Note_on_c, 0, 65, 0
1, 241920, Note_on_c, 0, 74, 88
1, 242010, Note_on_c, 0, 74, 0
1, 242040, Note_on_c, 0, 65, 78
1, 242160, Tempo, 430108
1, 242160, Note_on_c, 0, 65, 0
1, 242160, Note_on_c, 0, 68, 84
1, 242280, Tempo, 452830
1, 242280, Note_on_c, 0, 68, 0
1, 242280, Note_on_c, 0, 65, 76
1, 242400, Tempo, 419580
1, 242400, Note_on_c, 0, 65, 0
1, 242400, Note_on_c, 0, 51, 45
1, 242414, Control_c, 0, 64, 0
1, 242508, Control_c, 0, 64, 127
1, 242520, Note_on_c, 0, 63, 32
1, 242520, Note_on_c, 0, 58, 30
1, 242640, Tempo, 418118
1, 242640, Note_on_c, 0, 58, 0
1, 242640, Note_on_c, 0, 63, 0
1, 242640, Note_on_c, 0, 67, 36
1, 242640, Note_on_c, 0, 55, 32
1, 242760, Note_on_c, 0, 55, 0
1, 242760, Note_on_c, 0, 67, 0
1, 242760, Note_on_c, 0, 63, 35
1, 242760, Note_on_c, 0, 58, 29
1, 242800, Tempo, 416667
1, 242880, Note_on_c, 0, 58, 0
1, 242880, Note_on_c, 0, 63, 0
1, 242880, Note_on_c, 0, 75, 54
1, 242880, Note_on_c, 0, 55, 38
1, 242940, Tempo, 415225
1, 243000, Note_on_c, 0, 55, 0
1, 243000, Note_on_c, 0, 63, 33
1, 243000, Note_on_c, 0, 58, 30
1, 243080, Tempo, 413793
1, 243120, Note_on_c, 0, 58, 0
1, 243120, Note_on_c, 0, 63, 0
1, 243120, Note_on_c, 0, 67, 35
1, 243120, Note_on_c, 0, 55, 33
1, 243220, Tempo, 412371
1, 243240, Note_on_c, 0, 55, 0
1, 243240, Note_on_c, 0, 67, 0
1, 243240, Note_on_c, 0, 63, 32
1, 243240, Note_on_c, 0, 58, 30
1, 243360, Tempo, 410959
1, 243360, Note_on_c, 0, 58, 0
1, 243360, Note_on_c, 0, 63, 0
1, 243360, Note_on_c, 0, 67, 35
1, 243360, Note_on_c, 0, 55, 38
1, 243373, Control_c, 0, 64, 0
1, 243459, Control_c, 0, 64, 127
1, 243480, Note_on_c, 0, 55, 0
1, 243480, Note_on_c, 0, 67, 0
1, 243480, Note_on_c, 0, 63, 33
1, 243480, Note_on_c, 0, 58, 29
1, 243600, Note_on_c, 0, 58, 0
1, 243600, Note_on_c, 0, 63, 0
1, 243600, Note_on_c, 0, 67, 35
1, 243600, Note_on_c, 0, 55, 32
1, 243720, Note_on_c, 0, 55, 0
1, 243720, Note_on_c, 0, 67, 0
1, 243720, Note_on_c, 0, 63, 32
1, 243720, Note_on_c, 0, 58, 29
1, 243840, Note_on_c, 0, 58, 0
1, 243840, Note_on_c, 0, 51, 0
1, 243840, Note_on_c, 0, 75, 0
1, 243840, Note_on_c, 0, 63, 0
1, 243840, Note_on_c, 0, 75, 53
1, 243840, Note_on_c, 0, 51, 38
1, 243960, Note_on_c, 0, 63, 32
1, 243960, Note_on_c, 0, 58, 30
1, 244080, Note_on_c, 0, 58, 0
1, 244080, Note_on_c, 0, 63, 0
1, 244080, Note_on_c, 0, 67, 35
1, 244080, Note_on_c, 0, 55, 33
1, 244200, Note_on_c, 0, 55, 0
1, 244200, Note_on_c, 0, 67, 0
1, 244200, Note_on_c, 0, 63, 33
1, 244200, Note_on_c, 0, 58, 29
1, 244320, Tempo, 451128
1, 244320, Note_on_c, 0, 58, 0
1, 244320, Note_on_c, 0, 75, 0
1, 244320, Note_on_c, 0, 51, 0
1, 244320, Note_on_c, 0, 63, 0
1, 244320, Note_on_c, 0, 49, 45
1, 244332, Control_c, 0, 64, 0
1, 244421, Control_c, 0, 64, 127
1, 244440, Note_on_c, 0, 63, 32
1, 244440, Note_on_c, 0, 58, 30
1, 244540, Tempo, 416667
1, 244560, Note_on_c, 0, 58, 0
1, 244560, Note_on_c, 0, 63, 0
1, 244560, Note_on_c, 0, 67, 36
1, 244560, Note_on_c, 0, 55, 32
1, 244680, Note_on_c, 0, 55, 0
1, 244680, Note_on_c, 0, 67, 0
1, 244680, Note_on_c, 0, 63, 35
1, 244680, Note_on_c, 0, 58, 29
1, 244800, Tempo, 415225
1, 244800, Note_on_c, 0, 58, 0
1, 244800, Note_on_c, 0, 63, 0
1, 244800, Note_on_c, 0, 75, 54
1, 244800, Note_on_c, 0, 55, 38
1, 244920, Note_on_c, 0, 55, 0
1, 244920, Note_on_c, 0, 63, 33
1, 244920, Note_on_c, 0, 58, 30
1, 245040, Tempo, 413793
1, 245040, Note_on_c, 0, 58, 0
1, 245040, Note_on_c, 0, 63, 0
1, 245040, Note_on_c, 0, 67, 35
1, 245040, Note_on_c, 0, 55, 33
1, 245160, Note_on_c, 0, 55, 0
1, 245160, Note_on_c, 0, 67, 0
1, 245160, Note_on_c, 0, 63, 32
1, 245160, Note_on_c, 0, 58, 30
1, 245280, Tempo, 412371
1, 245280, Note_on_c, 0, 58, 0
1, 245280, Note_on_c, 0, 63, 0
1, 245280, Note_on_c, 0, 67, 35
1, 245280, Note_on_c, 0, 55, 38
1, 245296, Control_c, 0, 64, 0
1, 245372, Control_c, 0, 64, 127
1, 245400, Note_on_c, 0, 55, 0
1, 245400, Note_on_c, 0, 67, 0
1, 245400, Note_on_c, 0, 63, 33
1, 245400, Note_on_c, 0, 58, 29
1, 245520, Note_on_c, 0, 58, 0
1, 245520, Note_on_c, 0, 63, 0
1, 245520, Note_on_c, 0, 67, 35
1, 245520, Note_on_c, 0, 55, 32
1, 245640, Note_on_c, 0, 55, 0
1, 245640, Note_on_c, 0, 67, 0
1, 245640, Note_on_c, 0, 63, 32
1, 245640, Note_on_c, 0, 58, 29
1, 245760, Note_on_c, 0, 58, 0
1, 245760, Note_on_c, 0, 49, 0
1, 245760, Note_on_c, 0, 75, 0
1, 245760, Note_on_c, 0, 63, 0
1, 245760, Note_on_c, 0, 75, 53
1, 245760, Note_on_c, 0, 49, 38
1, 245880, Note_on_c, 0, 63, 32
1, 245880, Note_on_c, 0, 58, 30
1, 246000, Note_on_c, 0, 58, 0
1, 246000, Note_on_c, 0, 63, 0
1, 246000, Note_on_c, 0, 67, 35
1, 246000, Note_on_c, 0, 55, 33
1, 246120, Tempo, 446097
1, 246120, Note_on_c, 0, 55, 0
1, 246120, Note_on_c, 0, 67, 0
1, 246120, Note_on_c, 0, 63, 33
1, 246120, Note_on_c, 0, 58, 29
1, 246240, Tempo, 406780
1, 246240, Note_on_c, 0, 58, 0
1, 246240, Note_on_c, 0, 75, 0
1, 246240, Note_on_c, 0, 49, 0
1, 246240, Note_on_c, 0, 63, 0
1, 246240, Note_on_c, 0, 75, 66
1, 246240, Note_on_c, 0, 48, 55
1, 246256, Control_c, 0, 64, 0
1, 246330, Note_on_c, 0, 48, 0
1, 246330, Note_on_c, 0, 75, 0
1, 246360, Note_on_c, 0, 63, 41
1, 246360, Note_on_c, 0, 56, 36
1, 246440, Tempo, 405405
1, 246480, Note_on_c, 0, 56, 0
1, 246480, Note_on_c, 0, 63, 0
1, 246480, Note_on_c, 0, 68, 45
1, 246480, Note_on_c, 0, 51, 39
1, 246600, Note_on_c, 0, 51, 0
1, 246600, Note_on_c, 0, 68, 0
1, 246600, Note_on_c, 0, 63, 42
1, 246600, Note_on_c, 0, 56, 35
1, 246640, Tempo, 404040
1, 246720, Note_on_c, 0, 56, 0
1, 246720, Note_on_c, 0, 63, 0
1, 246720, Note_on_c, 0, 76, 67
1, 246720, Note_on_c, 0, 46, 56
1, 246810, Note_on_c, 0, 46, 0
1, 246810, Note_on_c, 0, 76, 0
1, 246820, Tempo, 402685
1, 246840, Note_on_c, 0, 64, 43
1, 246840, Note_on_c, 0, 55, 36
1, 246960, Note_on_c, 0, 55, 0
1, 246960, Note_on_c, 0, 64, 0
1, 246960, Note_on_c, 0, 72, 47
1, 246960, Note_on_c, 0, 48, 43
1, 247020, Tempo, 401338
1, 247080, Note_on_c, 0, 48, 0
1, 247080, Note_on_c, 0, 72, 0
1, 247080, Note_on_c, 0, 64, 43
1, 247080, Note_on_c, 0, 55, 41
1, 247200, Tempo, 392157
1, 247200, Note_on_c, 0, 55, 0
1, 247200, Note_on_c, 0, 64, 0
1, 247200, Note_on_c, 0, 77, 71
1, 247200, Note_on_c, 0, 44, 58
1, 247290, Note_on_c, 0, 44, 0
1, 247290, Note_on_c, 0, 77, 0
1, 247320, Note_on_c, 0, 65, 45
1, 247320, Note_on_c, 0, 56, 38
1, 247440, Note_on_c, 0, 56, 0
1, 247440, Note_on_c, 0, 65, 0
1, 247440, Note_on_c, 0, 72, 50
1, 247440, Note_on_c, 0, 48, 43
1, 247560, Note_on_c, 0, 48, 0
1, 247560, Note_on_c, 0, 72, 0
1, 247560, Note_on_c, 0, 65, 45
1, 247560, Note_on_c, 0, 56, 38
1, 247680, Note_on_c, 0, 56, 0
1, 247680, Note_on_c, 0, 65, 0
1, 247680, Note_on_c, 0, 79, 72
1, 247680, Note_on_c, 0, 43, 60
1, 247770, Note_on_c, 0, 43, 0
1, 247770, Note_on_c, 0, 79, 0
1, 247800, Note_on_c, 0, 67, 47
1, 247800, Note_on_c, 0, 55, 40
1, 247920, Note_on_c, 0, 55, 0
1, 247920, Note_on_c, 0, 67, 0
1, 247920, Note_on_c, 0, 72, 50
1, 247920, Note_on_c, 0, 48, 43
1, 248040, Note_on_c, 0, 48, 0
1, 248040, Note_on_c, 0, 72, 0
1, 248040, Note_on_c, 0, 67, 47
1, 248040, Note_on_c, 0, 55, 38
1, 248160, Tempo, 389610
1, 248160, Note_on_c, 0, 55, 0
1, 248160, Note_on_c, 0, 67, 0
1, 248160, Note_on_c, 0, 80, 74
1, 248160, Note_on_c, 0, 41, 63
1, 248180, Tempo, 387097
1, 248220, Tempo, 385852
1, 248250, Note_on_c, 0, 41, 0
1, 248250, Note_on_c, 0, 80, 0
1, 248260, Tempo, 384615
1, 248280, Note_on_c, 0, 68, 49
1, 248280, Note_on_c, 0, 53, 42
1, 248300, Tempo, 387097
1, 248340, Tempo, 388350
1, 248360, Tempo, 390879
1, 248400, Tempo, 389610
1, 248400, Note_on_c, 0, 53, 0
1, 248400, Note_on_c, 0, 68, 0
1, 248400, Note_on_c, 0, 72, 54
1, 248400, Note_on_c, 0, 48, 45
1, 248440, Tempo, 388350
1, 248460, Tempo, 387097
1, 248480, Tempo, 385852
1, 248500, Tempo, 384615
1, 248520, Note_on_c, 0, 48, 0
1, 248520, Note_on_c, 0, 72, 0
1, 248520, Note_on_c, 0, 68, 49
1, 248520, Note_on_c, 0, 53, 42
1, 248540, Tempo, 383387
1, 248580, Tempo, 385852
1, 248600, Tempo, 387097
1, 248640, Tempo, 388350
1, 248640, Note_on_c, 0, 53, 0
1, 248640, Note_on_c, 0, 68, 0
1, 248640, Note_on_c, 0, 81, 80
1, 248640, Note_on_c, 0, 39, 66
1, 248680, Tempo, 389610
1, 248700, Tempo, 390879
1, 248720, Tempo, 392157
1, 248730, Note_on_c, 0, 39, 0
1, 248730, Note_on_c, 0, 81, 0
1, 248740, Tempo, 390879
1, 248760, Tempo, 389610
1, 248760, Note_on_c, 0, 69, 50
1, 248760, Note_on_c, 0, 51, 41
1, 248780, Tempo, 388350
1, 248800, Tempo, 387097
1, 248820, Tempo, 385852
1, 248840, Tempo, 384615
1, 248880, Note_on_c, 0, 51, 0
1, 248880, Note_on_c, 0, 69, 0
1, 248880, Note_on_c, 0, 72, 55
1, 248880, Note_on_c, 0, 41, 47
1, 248940, Tempo, 385852
1, 248960, Tempo, 387097
1, 249000, Note_on_c, 0, 41, 0
1, 249000, Note_on_c, 0, 72, 0
1, 249000, Note_on_c, 0, 69, 51
1, 249000, Note_on_c, 0, 51, 41
1, 249020, Tempo, 388350
1, 249060, Tempo, 390879
1, 249080, Tempo, 392157
1, 249100, Tempo, 390879
1, 249120, Tempo, 388350
1, 249120, Note_on_c, 0, 51, 0
1, 249120, Note_on_c, 0, 69, 0
1, 249120, Note_on_c, 0, 82, 84
1, 249120, Note_on_c, 0, 38, 68
1, 249140, Tempo, 387097
1, 249180, Tempo, 385852
1, 249210, Note_on_c, 0, 38, 0
1, 249210, Note_on_c, 0, 82, 0
1, 249240, Tempo, 384615
1, 249240, Note_on_c, 0, 70, 51
1, 249240, Note_on_c, 0, 50, 45
1, 249320, Tempo, 385852
1, 249340, Tempo, 387097
1, 249360, Tempo, 389610
1, 249360, Note_on_c, 0, 50, 0
1, 249360, Note_on_c, 0, 70, 0
1, 249360, Note_on_c, 0, 77, 58
1, 249360, Note_on_c, 0, 41, 49
1, 249400, Tempo, 390879
1, 249480, Tempo, 389610
1, 249480, Note_on_c, 0, 41, 0
1, 249480, Note_on_c, 0, 77, 0
1, 249480, Note_on_c, 0, 70, 53
1, 249480, Note_on_c, 0, 50, 43
1, 249520, Tempo, 387097
1, 249560, Tempo, 385852
1, 249580, Tempo, 384615
1, 249600, Note_on_c, 0, 50, 0
1, 249600, Note_on_c, 0, 70, 0
1, 249600, Note_on_c, 0, 84, 85
1, 249600, Note_on_c, 0, 36, 70
1, 249620, Tempo, 385852
1, 249660, Tempo, 387097
1, 249680, Tempo, 388350
1, 249690, Note_on_c, 0, 36, 0
1, 249690, Note_on_c, 0, 84, 0
1, 249720, Note_on_c, 0, 72, 53
1, 249720, Note_on_c, 0, 48, 45
1, 249800, Tempo, 387097
1, 249820, Tempo, 385852
1, 249840, Tempo, 384615
1, 249840, Note_on_c, 0, 48, 0
1, 249840, Note_on_c, 0, 72, 0
1, 249840, Note_on_c, 0, 77, 58
1, 249840, Note_on_c, 0, 41, 51
1, 249960, Tempo, 385852
1, 249960, Note_on_c, 0, 41, 0
1, 249960, Note_on_c, 0, 77, 0
1, 249960, Note_on_c, 0, 72, 54
1, 249960, Note_on_c, 0, 48, 43
1, 249980, Tempo, 387097
1, 250020, Tempo, 389610
1, 250040, Tempo, 390879
1, 250080, Note_on_c, 0, 48, 0
1, 250080, Note_on_c, 0, 72, 0
1, 250080, Note_on_c, 0, 85, 85
1, 250080, Note_on_c, 0, 34, 70
1, 250120, Tempo, 389610
1, 250160, Tempo, 388350
1, 250170, Note_on_c, 0, 34, 0
1, 250170, Note_on_c, 0, 85, 0
1, 250180, Tempo, 387097
1, 250200, Note_on_c, 0, 73, 55
1, 250200, Note_on_c, 0, 46, 47
1, 250220, Tempo, 385852
1, 250240, Tempo, 384615
1, 250260, Tempo, 383387
1, 250280, Tempo, 382166
1, 250320, Tempo, 383387
1, 250320, Note_on_c, 0, 46, 0
1, 250320, Note_on_c, 0, 73, 0
1, 250320, Note_on_c, 0, 77, 63
1, 250320, Note_on_c, 0, 41, 53
1, 250360, Tempo, 385852
1, 250380, Tempo, 387097
1, 250400, Tempo, 389610
1, 250420, Tempo, 390879
1, 250440, Note_on_c, 0, 41, 0
1, 250440, Note_on_c, 0, 77, 0
1, 250440, Note_on_c, 0, 73, 55
1, 250440, Note_on_c, 0, 46, 48
1, 250480, Tempo, 389610
1, 250500, Tempo, 388350
1, 250520, Tempo, 387097
1, 250540, Tempo, 385852
1, 250560, Tempo, 384615
1, 250560, Note_on_c, 0, 46, 0
1, 250560, Note_on_c, 0, 73, 0
1, 250560, Note_on_c, 0, 86, 90
1, 250560, Note_on_c, 0, 32, 72
1, 250600, Tempo, 383387
1, 250620, Tempo, 382166
1, 250640, Tempo, 380952
1, 250650, Note_on_c, 0, 32, 0
1, 250650, Note_on_c, 0, 86, 0
1, 250680, Tempo, 379747
1, 250680, Note_on_c, 0, 74, 57
1, 250680, Note_on_c, 0, 44, 47
1, 250700, Tempo, 380952
1, 250720, Tempo, 382166
1, 250740, Tempo, 383387
1, 250780, Tempo, 385852
1, 250800, Note_on_c, 0, 44, 0
1, 250800, Note_on_c, 0, 74, 0
1, 250800, Note_on_c, 0, 77, 62
1, 250800, Note_on_c, 0, 41, 53
1, 250820, Tempo, 388350
1, 250840, Tempo, 389610
1, 250920, Tempo, 387097
1, 250920, Note_on_c, 0, 41, 0
1, 250920, Note_on_c, 0, 77, 0
1, 250920, Note_on_c, 0, 74, 57
1, 250920, Note_on_c, 0, 44, 50
1, 250940, Tempo, 385852
1, 250960, Tempo, 384615
1, 251000, Tempo, 383387
1, 251040, Note_on_c, 0, 44, 0
1, 251040, Note_on_c, 0, 74, 0
1, 251040, Note_on_c, 0, 87, 89
1, 251040, Note_on_c, 0, 31, 75
1, 251080, Tempo, 385852
1, 251100, Tempo, 387097
1, 251120, Tempo, 388350
1, 251130, Note_on_c, 0, 31, 0
1, 251130, Note_on_c, 0, 87, 0
1, 251140, Tempo, 390879
1, 251160, Tempo, 393443
1, 251160, Note_on_c, 0, 75, 59
1, 251160, Note_on_c, 0, 43, 50
1, 251260, Tempo, 392157
1, 251280, Note_on_c, 0, 43, 0
1, 251280, Note_on_c, 0, 75, 0
1, 251280, Note_on_c, 0, 82, 64
1, 251280, Note_on_c, 0, 39, 55
1, 251300, Tempo, 390879
1, 251320, Tempo, 389610
1, 251360, Tempo, 388350
1, 251400, Tempo, 387097
1, 251400, Note_on_c, 0, 39, 0
1, 251400, Note_on_c, 0, 82, 0
1, 251400, Note_on_c, 0, 75, 59
1, 251400, Note_on_c, 0, 43, 50
1, 251520, Tempo, 406780
1, 251520, Note_on_c, 0, 43, 0
1, 251520, Note_on_c, 0, 75, 0
1, 251520, Note_on_c, 0, 88, 91
1, 251520, Note_on_c, 0, 31, 76
1, 251610, Note_on_c, 0, 31, 0
1, 251610, Note_on_c, 0, 88, 0
1, 251640, Note_on_c, 0, 76, 61
1, 251640, Note_on_c, 0, 43, 56
1, 251760, Note_on_c, 0, 43, 0
1, 251760, Note_on_c, 0, 76, 0
1, 251760, Note_on_c, 0, 82, 67
1, 251760, Note_on_c, 0, 31, 58
1, 251880, Note_on_c, 0, 31, 0
1, 251880, Note_on_c, 0, 82, 0
1, 251880, Note_on_c, 0, 76, 61
1, 251880, Note_on_c, 0, 43, 55
1, 252000, Tempo, 408163
1, 252000, Note_on_c, 0, 43, 0
1, 252000, Note_on_c, 0, 76, 0
1, 252000, Note_on_c, 0, 32, 71
1, 252000, Note_on_c, 0, 44, 84
1, 252092, Control_c, 0, 64, 127
1, 252120, Tempo, 390879
1, 252120, Note_on_c, 0, 80, 78
1, 252240, Note_on_c, 0, 80, 0
1, 252240, Note_on_c, 0, 44, 0
1, 252240, Note_on_c, 0, 32, 0
1, 252240, Note_on_c, 0, 84, 84
1, 252360, Note_on_c, 0, 84, 0
1, 252360, Note_on_c, 0, 80, 78
1, 252480, Note_on_c, 0, 80, 0
1, 252480, Note_on_c, 0, 89, 88
1, 252570, Note_on_c, 0, 89, 0
1, 252600, Note_on_c, 0, 80, 78
1, 252720, Tempo, 408163
1, 252720, Note_on_c, 0, 80, 0
1, 252720, Note_on_c, 0, 84, 84
1, 252840, Note_on_c, 0, 84, 0
1, 252840, Note_on_c, 0, 80, 76
1, 252960, Tempo, 402685
1, 252960, Note_on_c, 0, 80, 0
1, 252960, Note_on_c, 0, 46, 84
1, 252960, Note_on_c, 0, 34, 71
1, 252974, Control_c, 0, 64, 0
1, 253031, Control_c, 0, 64, 127
1, 253080, Tempo, 392157
1, 253080, Note_on_c, 0, 77, 78
1, 253200, Note_on_c, 0, 77, 0
1, 253200, Note_on_c, 0, 34, 0
1, 253200, Note_on_c, 0, 46, 0
1, 253200, Note_on_c, 0, 80, 84
1, 253320, Note_on_c, 0, 80, 0
1, 253320, Note_on_c, 0, 77, 78
1, 253440, Note_on_c, 0, 77, 0
1, 253440, Note_on_c, 0, 86, 88
1, 253530, Note_on_c, 0, 86, 0
1, 253560, Note_on_c, 0, 77, 78
1, 253680, Tempo, 406780
1, 253680, Note_on_c, 0, 77, 0
1, 253680, Note_on_c, 0, 80, 84
1, 253800, Note_on_c, 0, 80, 0
1, 253800, Note_on_c, 0, 77, 76
1, 253920, Tempo, 419580
1, 253920, Note_on_c, 0, 77, 0
1, 253920, Note_on_c, 0, 79, 81
1, 253920, Note_on_c, 0, 39, 84
1, 253920, Note_on_c, 0, 51, 84
1, 253936, Control_c, 0, 64, 0
1, 254010, Note_on_c, 0, 79, 0
1, 254160, Tempo, 397351
1, 254160, Note_on_c, 0, 51, 0
1, 254160, Note_on_c, 0, 39, 0
1, 254160, Note_on_c, 0, 87, 64
1, 254160, Note_on_c, 0, 63, 34
1, 254160, Note_on_c, 0, 67, 34
1, 254252, Control_c, 0, 64, 127
1, 254388, Note_on_c, 0, 67, 0
1, 254388, Note_on_c, 0, 63, 0
1, 254400, Note_on_c, 0, 63, 34
1, 254400, Note_on_c, 0, 67, 34
1, 254620, Tempo, 398671
1, 254628, Note_on_c, 0, 67, 0
1, 254628, Note_on_c, 0, 63, 0
1, 254640, Note_on_c, 0, 87, 0
1, 254640, Note_on_c, 0, 86, 46
1, 254640, Note_on_c, 0, 63, 34
1, 254640, Note_on_c, 0, 67, 34
1, 254660, Tempo, 400000
1, 254680, Tempo, 401338
1, 254700, Tempo, 402685
1, 254740, Tempo, 404040
1, 254760, Tempo, 405405
1, 254760, Note_on_c, 0, 86, 0
1, 254760, Note_on_c, 0, 87, 48
1, 254780, Tempo, 406780
1, 254820, Tempo, 408163
1, 254840, Tempo, 409556
1, 254860, Tempo, 413793
1, 254868, Note_on_c, 0, 67, 0
1, 254868, Note_on_c, 0, 63, 0
1, 254880, Note_on_c, 0, 87, 0
1, 254880, Note_on_c, 0, 89, 49
1, 254880, Note_on_c, 0, 60, 34
1, 254892, Control_c, 0, 64, 0
1, 254900, Tempo, 412371
1, 254920, Tempo, 410959
1, 254940, Tempo, 409556
1, 254960, Tempo, 408163
1, 254972, Control_c, 0, 64, 127
1, 254980, Tempo, 406780
1, 255000, Tempo, 405405
1, 255000, Note_on_c, 0, 89, 0
1, 255000, Note_on_c, 0, 87, 49
1, 255040, Tempo, 404040
1, 255060, Tempo, 402685
1, 255080, Tempo, 401338
1, 255100, Tempo, 400000
1, 255120, Tempo, 398671
1, 255120, Note_on_c, 0, 87, 0
1, 255120, Note_on_c, 0, 86, 48
1, 255120, Note_on_c, 0, 63, 34
1, 255120, Note_on_c, 0, 67, 34
1, 255140, Tempo, 397351
1, 255240, Note_on_c, 0, 86, 0
1, 255240, Note_on_c, 0, 84, 47
1, 255348, Note_on_c, 0, 67, 0
1, 255348, Note_on_c, 0, 63, 0
1, 255360, Note_on_c, 0, 84, 0
1, 255360, Note_on_c, 0, 83, 45
1, 255360, Note_on_c, 0, 63, 34
1, 255360, Note_on_c, 0, 67, 34
1, 255480, Note_on_c, 0, 83, 0
1, 255480, Note_on_c, 0, 84, 46
1, 255588, Note_on_c, 0, 67, 0
1, 255588, Note_on_c, 0, 63, 0
1, 255600, Tempo, 397351
1, 255600, Note_on_c, 0, 84, 0
1, 255600, Note_on_c, 0, 86, 49
1, 255600, Note_on_c, 0, 63, 34
1, 255600, Note_on_c, 0, 67, 34
1, 255640, Tempo, 398671
1, 255660, Tempo, 400000
1, 255700, Tempo, 401338
1, 255720, Tempo, 402685
1, 255720, Note_on_c, 0, 86, 0
1, 255720, Note_on_c, 0, 84, 47
1, 255760, Tempo, 404040
1, 255780, Tempo, 405405
1, 255820, Tempo, 408163
1, 255828, Note_on_c, 0, 67, 0
1, 255828, Note_on_c, 0, 63, 0
1, 255840, Note_on_c, 0, 60, 0
1, 255840, Note_on_c, 0, 84, 0
1, 255840, Note_on_c, 0, 82, 49
1, 255840, Note_on_c, 0, 56, 34
1, 255852, Control_c, 0, 64, 0
1, 255860, Tempo, 406780
1, 255880, Tempo, 405405
1, 255920, Tempo, 404040
1, 255920, Control_c, 0, 64, 127
1, 255940, Tempo, 402685
1, 255960, Note_on_c, 0, 82, 0
1, 255960, Note_on_c, 0, 80, 47
1, 255980, Tempo, 401338
1, 256000, Tempo, 400000
1, 256040, Tempo, 398671
1, 256060, Tempo, 397351
1, 256080, Tempo, 396040
1, 256080, Note_on_c, 0, 80, 0
1, 256080, Note_on_c, 0, 79, 46
1, 256080, Note_on_c, 0, 65, 34
1, 256080, Note_on_c, 0, 63, 34
1, 256200, Note_on_c, 0, 79, 0
1, 256200, Note_on_c, 0, 77, 45
1, 256308, Note_on_c, 0, 63, 0
1, 256308, Note_on_c, 0, 65, 0
1, 256320, Note_on_c, 0, 77, 0
1, 256320, Note_on_c, 0, 76, 45
1, 256320, Note_on_c, 0, 63, 34
1, 256320, Note_on_c, 0, 65, 34
1, 256440, Note_on_c, 0, 76, 0
1, 256440, Note_on_c, 0, 77, 45
1, 256540, Tempo, 396040
1, 256548, Note_on_c, 0, 65, 0
1, 256548, Note_on_c, 0, 63, 0
1, 256560, Note_on_c, 0, 77, 0
1, 256560, Note_on_c, 0, 79, 47
1, 256560, Note_on_c, 0, 63, 34
1, 256560, Note_on_c, 0, 65, 34
1, 256580, Tempo, 397351
1, 256600, Tempo, 398671
1, 256640, Tempo, 400000
1, 256660, Tempo, 401338
1, 256680, Note_on_c, 0, 79, 0
1, 256680, Note_on_c, 0, 77, 45
1, 256700, Tempo, 402685
1, 256720, Tempo, 404040
1, 256760, Tempo, 405405
1, 256780, Tempo, 406780
1, 256788, Note_on_c, 0, 65, 0
1, 256788, Note_on_c, 0, 63, 0
1, 256800, Tempo, 406780
1, 256800, Note_on_c, 0, 56, 0
1, 256800, Note_on_c, 0, 77, 0
1, 256800, Note_on_c, 0, 75, 46
1, 256800, Note_on_c, 0, 58, 34
1, 256817, Control_c, 0, 64, 0
1, 256840, Tempo, 405405
1, 256880, Tempo, 404040
1, 256897, Control_c, 0, 64, 127
1, 256900, Tempo, 402685
1, 256920, Note_on_c, 0, 75, 0
1, 256920, Note_on_c, 0, 74, 46
1, 256940, Tempo, 401338
1, 256960, Tempo, 400000
1, 257000, Tempo, 398671
1, 257020, Tempo, 397351
1, 257040, Note_on_c, 0, 74, 0
1, 257040, Note_on_c, 0, 72, 45
1, 257040, Note_on_c, 0, 62, 34
1, 257040, Note_on_c, 0, 65, 34
1, 257160, Note_on_c, 0, 72, 0
1, 257160, Note_on_c, 0, 70, 45
1, 257268, Note_on_c, 0, 65, 0
1, 257268, Note_on_c, 0, 62, 0
1, 257280, Note_on_c, 0, 70, 0
1, 257280, Note_on_c, 0, 69, 45
1, 257280, Note_on_c, 0, 62, 34
1, 257280, Note_on_c, 0, 65, 34
1, 257400, Note_on_c, 0, 69, 0
1, 257400, Note_on_c, 0, 70, 42
1, 257508, Note_on_c, 0, 65, 0
1, 257508, Note_on_c, 0, 62, 0
1, 257520, Note_on_c, 0, 70, 0
1, 257520, Note_on_c, 0, 72, 46
1, 257520, Note_on_c, 0, 62, 34
1, 257520, Note_on_c, 0, 65, 34
1, 257640, Note_on_c, 0, 72, 0
1, 257640, Note_on_c, 0, 68, 42
1, 257748, Note_on_c, 0, 65, 0
1, 257748, Note_on_c, 0, 62, 0
1, 257760, Tempo, 419580
1, 257760, Note_on_c, 0, 58, 0
1, 257760, Note_on_c, 0, 68, 0
1, 257760, Note_on_c, 0, 67, 66
1, 257760, Note_on_c, 0, 51, 59
1, 257773, Control_c, 0, 64, 0
1, 257850, Note_on_c, 0, 67, 0
1, 258000, Tempo, 397351
1, 258000, Note_on_c, 0, 75, 68
1, 258000, Note_on_c, 0, 87, 68
1, 258000, Note_on_c, 0, 55, 44
1, 258000, Note_on_c, 0, 63, 44
1, 258106, Control_c, 0, 64, 127
1, 258228, Note_on_c, 0, 63, 0
1, 258228, Note_on_c, 0, 55, 0
1, 258240, Note_on_c, 0, 55, 44
1, 258240, Note_on_c, 0, 63, 44
1, 258460, Tempo, 398671
1, 258468, Note_on_c, 0, 63, 0
1, 258468, Note_on_c, 0, 55, 0
1, 258480, Note_on_c, 0, 87, 0
1, 258480, Note_on_c, 0, 75, 0
1, 258480, Note_on_c, 0, 86, 61
1, 258480, Note_on_c, 0, 55, 44
1, 258480, Note_on_c, 0, 63, 44
1, 258500, Tempo, 400000
1, 258520, Tempo, 401338
1, 258540, Tempo, 402685
1, 258580, Tempo, 404040
1, 258600, Tempo, 405405
1, 258600, Note_on_c, 0, 86, 0
1, 258600, Note_on_c, 0, 87, 64
1, 258620, Tempo, 406780
1, 258660, Tempo, 408163
1, 258680, Tempo, 409556
1, 258700, Tempo, 413793
1, 258708, Note_on_c, 0, 63, 0
1, 258708, Note_on_c, 0, 55, 0
1, 258720, Note_on_c, 0, 51, 0
1, 258720, Note_on_c, 0, 87, 0
1, 258720, Note_on_c, 0, 89, 66
1, 258720, Note_on_c, 0, 48, 45
1, 258736, Control_c, 0, 64, 0
1, 258740, Tempo, 412371
1, 258760, Tempo, 410959
1, 258780, Tempo, 409556
1, 258795, Control_c, 0, 64, 127
1, 258800, Tempo, 408163
1, 258820, Tempo, 406780
1, 258840, Tempo, 405405
1, 258840, Note_on_c, 0, 89, 0
1, 258840, Note_on_c, 0, 87, 66
1, 258880, Tempo, 404040
1, 258900, Tempo, 402685
1, 258920, Tempo, 401338
1, 258940, Tempo, 400000
1, 258960, Tempo, 398671
1, 258960, Note_on_c, 0, 87, 0
1, 258960, Note_on_c, 0, 86, 65
1, 258960, Note_on_c, 0, 55, 46
1, 258960, Note_on_c, 0, 51, 46
1, 258960, Note_on_c, 0, 60, 46
1, 258980, Tempo, 397351
1, 259080, Note_on_c, 0, 86, 0
1, 259080, Note_on_c, 0, 84, 64
1, 259188, Note_on_c, 0, 51, 0
1, 259188, Note_on_c, 0, 60, 0
1, 259188, Note_on_c, 0, 55, 0
1, 259200, Note_on_c, 0, 84, 0
1, 259200, Note_on_c, 0, 83, 62
1, 259200, Note_on_c, 0, 55, 46
1, 259200, Note_on_c, 0, 51, 46
1, 259200, Note_on_c, 0, 60, 46
1, 259320, Note_on_c, 0, 83, 0
1, 259320, Note_on_c, 0, 84, 64
1, 259428, Note_on_c, 0, 51, 0
1, 259428, Note_on_c, 0, 60, 0
1, 259428, Note_on_c, 0, 55, 0
1, 259440, Tempo, 397351
1, 259440, Note_on_c, 0, 84, 0
1, 259440, Note_on_c, 0, 86, 68
1, 259440, Note_on_c, 0, 55, 47
1, 259440, Note_on_c, 0, 51, 47
1, 259440, Note_on_c, 0, 60, 47
1, 259480, Tempo, 398671
1, 259500, Tempo, 400000
1, 259540, Tempo, 401338
1, 259560, Tempo, 402685
1, 259560, Note_on_c, 0, 86, 0
1, 259560, Note_on_c, 0, 84, 66
1, 259600, Tempo, 404040
1, 259620, Tempo, 405405
1, 259660, Tempo, 408163
1, 259668, Note_on_c, 0, 51, 0
1, 259668, Note_on_c, 0, 60, 0
1, 259668, Note_on_c, 0, 55, 0
1, 259680, Note_on_c, 0, 48, 0
1, 259680, Note_on_c, 0, 84, 0
1, 259680, Note_on_c, 0, 82, 69
1, 259680, Note_on_c, 0, 44, 47
1, 259695, Control_c, 0, 64, 0
1, 259700, Tempo, 406780
1, 259720, Tempo, 405405
1, 259760, Tempo, 404040
1, 259777, Control_c, 0, 64, 127
1, 259780, Tempo, 402685
1, 259800, Note_on_c, 0, 82, 0
1, 259800, Note_on_c, 0, 80, 67
1, 259820, Tempo, 401338
1, 259840, Tempo, 400000
1, 259880, Tempo, 398671
1, 259900, Tempo, 397351
1, 259920, Tempo, 396040
1, 259920, Note_on_c, 0, 80, 0
1, 259920, Note_on_c, 0, 79, 66
1, 259920, Note_on_c, 0, 53, 48
1, 259920, Note_on_c, 0, 56, 48
1, 259920, Note_on_c, 0, 51, 48
1, 260040, Note_on_c, 0, 79, 0
1, 260040, Note_on_c, 0, 77, 65
1, 260148, Note_on_c, 0, 56, 0
1, 260148, Note_on_c, 0, 51, 0
1, 260148, Note_on_c, 0, 53, 0
1, 260160, Note_on_c, 0, 77, 0
1, 260160, Note_on_c, 0, 76, 65
1, 260160, Note_on_c, 0, 53, 48
1, 260160, Note_on_c, 0, 51, 48
1, 260160, Note_on_c, 0, 56, 48
1, 260280, Note_on_c, 0, 76, 0
1, 260280, Note_on_c, 0, 77, 64
1, 260380, Tempo, 396040
1, 260388, Note_on_c, 0, 51, 0
1, 260388, Note_on_c, 0, 56, 0
1, 260388, Note_on_c, 0, 53, 0
1, 260400, Note_on_c, 0, 77, 0
1, 260400, Note_on_c, 0, 79, 68
1, 260400, Note_on_c, 0, 53, 49
1, 260400, Note_on_c, 0, 51, 49
1, 260400, Note_on_c, 0, 56, 49
1, 260420, Tempo, 397351
1, 260440, Tempo, 398671
1, 260480, Tempo, 400000
1, 260500, Tempo, 401338
1, 260520, Note_on_c, 0, 79, 0
1, 260520, Note_on_c, 0, 77, 66
1, 260540, Tempo, 402685
1, 260560, Tempo, 404040
1, 260600, Tempo, 405405
1, 260620, Tempo, 406780
1, 260628, Note_on_c, 0, 51, 0
1, 260628, Note_on_c, 0, 56, 0
1, 260628, Note_on_c, 0, 53, 0
1, 260640, Tempo, 406780
1, 260640, Note_on_c, 0, 44, 0
1, 260640, Note_on_c, 0, 77, 0
1, 260640, Note_on_c, 0, 75, 68
1, 260640, Note_on_c, 0, 46, 49
1, 260652, Control_c, 0, 64, 0
1, 260680, Tempo, 405405
1, 260720, Tempo, 404040
1, 260740, Tempo, 402685
1, 260760, Note_on_c, 0, 75, 0
1, 260760, Note_on_c, 0, 74, 68
1, 260760, Control_c, 0, 64, 127
1, 260780, Tempo, 401338
1, 260800, Tempo, 400000
1, 260840, Tempo, 398671
1, 260860, Tempo, 397351
1, 260880, Note_on_c, 0, 74, 0
1, 260880, Note_on_c, 0, 72, 68
1, 260880, Note_on_c, 0, 53, 50
1, 260880, Note_on_c, 0, 50, 50
1, 260880, Note_on_c, 0, 58, 50
1, 261000, Note_on_c, 0, 72, 0
1, 261000, Note_on_c, 0, 70, 68
1, 261108, Note_on_c, 0, 50, 0
1, 261108, Note_on_c, 0, 58, 0
1, 261108, Note_on_c, 0, 53, 0
1, 261120, Note_on_c, 0, 70, 0
1, 261120, Note_on_c, 0, 69, 67
1, 261120, Note_on_c, 0, 53, 50
1, 261120, Note_on_c, 0, 50, 50
1, 261120, Note_on_c, 0, 58, 50
1, 261240, Note_on_c, 0, 69, 0
1, 261240, Note_on_c, 0, 70, 64
1, 261320, Tempo, 396040
1, 261340, Tempo, 397351
1, 261348, Note_on_c, 0, 50, 0
1, 261348, Note_on_c, 0, 58, 0
1, 261348, Note_on_c, 0, 53, 0
1, 261360, Tempo, 398671
1, 261360, Note_on_c, 0, 70, 0
1, 261360, Note_on_c, 0, 72, 70
1, 261360, Note_on_c, 0, 53, 51
1, 261360, Note_on_c, 0, 50, 51
1, 261360, Note_on_c, 0, 58, 51
1, 261380, Tempo, 401338
1, 261400, Tempo, 402685
1, 261420, Tempo, 405405
1, 261440, Tempo, 406780
1, 261460, Tempo, 409556
1, 261480, Tempo, 413793
1, 261480, Note_on_c, 0, 72, 0
1, 261480, Note_on_c, 0, 70, 64
1, 261500, Tempo, 418118
1, 261520, Tempo, 422535
1, 261540, Tempo, 427046
1, 261560, Tempo, 431655
1, 261580, Tempo, 436364
1, 261588, Note_on_c, 0, 50, 0
1, 261588, Note_on_c, 0, 58, 0
1, 261588, Note_on_c, 0, 53, 0
1, 261600, Tempo, 442804
1, 261600, Note_on_c, 0, 46, 0
1, 261600, Note_on_c, 0, 70, 0
1, 261600, Note_on_c, 0, 75, 83
1, 261600, Note_on_c, 0, 39, 67
1, 261613, Control_c, 0, 64, 0
1, 261720, Note_on_c, 0, 75, 0
1, 261720, Note_on_c, 0, 51, 60
1, 261828, Note_on_c, 0, 39, 0
1, 261840, Tempo, 397351
1, 261840, Note_on_c, 0, 51, 0
1, 261840, Note_on_c, 0, 63, 82
1, 261840, Note_on_c, 0, 39, 67
1, 261960, Note_on_c, 0, 51, 59
1, 262068, Note_on_c, 0, 39, 0
1, 262080, Tempo, 404040
1, 262080, Note_on_c, 0, 51, 0
1, 262080, Note_on_c, 0, 39, 67
1, 262200, Note_on_c, 0, 51, 60
1, 262308, Note_on_c, 0, 39, 0
1, 262320, Tempo, 397351
1, 262320, Note_on_c, 0, 51, 0
1, 262320, Note_on_c, 0, 63, 0
1, 262320, Note_on_c, 0, 61, 80
1, 262320, Note_on_c, 0, 67, 80
1, 262320, Note_on_c, 0, 39, 66
1, 262440, Note_on_c, 0, 67, 0
1, 262440, Note_on_c, 0, 61, 0
1, 262440, Note_on_c, 0, 51, 60
1, 262548, Note_on_c, 0, 39, 0
1, 262560, Note_on_c, 0, 51, 0
1, 262560, Note_on_c, 0, 60, 81
1, 262560, Note_on_c, 0, 68, 81
1, 262560, Note_on_c, 0, 39, 66
1, 262680, Note_on_c, 0, 68, 0
1, 262680, Note_on_c, 0, 60, 0
1, 262680, Note_on_c, 0, 51, 59
1, 262788, Note_on_c, 0, 39, 0
1, 262800, Note_on_c, 0, 51, 0
1, 262800, Note_on_c, 0, 67, 82
1, 262800, Note_on_c, 0, 70, 82
1, 262800, Note_on_c, 0, 39, 66
1, 262920, Note_on_c, 0, 70, 0
1, 262920, Note_on_c, 0, 67, 0
1, 262920, Note_on_c, 0, 51, 60
1, 263028, Note_on_c, 0, 39, 0
1, 263040, Note_on_c, 0, 51, 0
1, 263040, Note_on_c, 0, 68, 83
1, 263040, Note_on_c, 0, 72, 83
1, 263040, Note_on_c, 0, 39, 66
1, 263160, Note_on_c, 0, 72, 0
1, 263160, Note_on_c, 0, 68, 0
1, 263160, Note_on_c, 0, 51, 60
1, 263268, Note_on_c, 0, 39, 0
1, 263280, Note_on_c, 0, 51, 0
1, 263280, Note_on_c, 0, 68, 85
1, 263280, Note_on_c, 0, 74, 85
1, 263280, Note_on_c, 0, 39, 66
1, 263400, Note_on_c, 0, 74, 0
1, 263400, Note_on_c, 0, 68, 0
1, 263400, Note_on_c, 0, 51, 61
1, 263508, Note_on_c, 0, 39, 0
1, 263520, Tempo, 418118
1, 263520, Note_on_c, 0, 51, 0
1, 263520, Note_on_c, 0, 67, 83
1, 263520, Note_on_c, 0, 75, 83
1, 263520, Note_on_c, 0, 39, 67
1, 263640, Note_on_c, 0, 75, 0
1, 263640, Note_on_c, 0, 67, 0
1, 263640, Note_on_c, 0, 51, 60
1, 263748, Note_on_c, 0, 39, 0
1, 263760, Tempo, 397351
1, 263760, Note_on_c, 0, 51, 0
1, 263760, Note_on_c, 0, 75, 82
1, 263760, Note_on_c, 0, 39, 67
1, 263880, Note_on_c, 0, 51, 59
1, 263988, Note_on_c, 0, 39, 0
1, 264000, Tempo, 404040
1, 264000, Note_on_c, 0, 51, 0
1, 264000, Note_on_c, 0, 39, 67
1, 264120, Note_on_c, 0, 51, 60
1, 264228, Note_on_c, 0, 39, 0
1, 264240, Tempo, 397351
1, 264240, Note_on_c, 0, 51, 0
1, 264240, Note_on_c, 0, 75, 0
1, 264240, Note_on_c, 0, 73, 80
1, 264240, Note_on_c, 0, 79, 80
1, 264240, Note_on_c, 0, 39, 66
1, 264360, Note_on_c, 0, 79, 0
1, 264360, Note_on_c, 0, 73, 0
1, 264360, Note_on_c, 0, 51, 60
1, 264468, Note_on_c, 0, 39, 0
1, 264480, Note_on_c, 0, 51, 0
1, 264480, Note_on_c, 0, 72, 81
1, 264480, Note_on_c, 0, 80, 81
1, 264480, Note_on_c, 0, 39, 66
1, 264600, Note_on_c, 0, 80, 0
1, 264600, Note_on_c, 0, 72, 0
1, 264600, Note_on_c, 0, 51, 59
1, 264708, Note_on_c, 0, 39, 0
1, 264720, Note_on_c, 0, 51, 0
1, 264720, Note_on_c, 0, 79, 82
1, 264720, Note_on_c, 0, 82, 82
1, 264720, Note_on_c, 0, 39, 66
1, 264840, Note_on_c, 0, 82, 0
1, 264840, Note_on_c, 0, 79, 0
1, 264840, Note_on_c, 0, 51, 60
1, 264948, Note_on_c, 0, 39, 0
1, 264960, Note_on_c, 0, 51, 0
1, 264960, Note_on_c, 0, 80, 83
1, 264960, Note_on_c, 0, 84, 83
1, 264960, Note_on_c, 0, 39, 66
1, 265080, Note_on_c, 0, 84, 0
1, 265080, Note_on_c, 0, 80, 0
1, 265080, Note_on_c, 0, 51, 60
1, 265188, Note_on_c, 0, 39, 0
1, 265200, Tempo, 419580
1, 265200, Note_on_c, 0, 51, 0
1, 265200, Note_on_c, 0, 80, 85
1, 265200, Note_on_c, 0, 86, 85
1, 265200, Note_on_c, 0, 39, 66
1, 265320, Note_on_c, 0, 86, 0
1, 265320, Note_on_c, 0, 80, 0
1, 265320, Note_on_c, 0, 51, 61
1, 265428, Note_on_c, 0, 39, 0
1, 265440, Tempo, 400000
1, 265440, Note_on_c, 0, 51, 0
1, 265440, Note_on_c, 0, 87, 94
1, 265440, Note_on_c, 0, 79, 94
1, 265440, Note_on_c, 0, 39, 66
1, 265560, Note_on_c, 0, 51, 59
1, 265668, Note_on_c, 0, 39, 0
1, 265680, Note_on_c, 0, 51, 0
1, 265680, Note_on_c, 0, 39, 66
1, 265800, Note_on_c, 0, 51, 60
1, 265908, Note_on_c, 0, 39, 0
1, 265920, Note_on_c, 0, 51, 0
1, 265920, Note_on_c, 0, 39, 66
1, 266040, Note_on_c, 0, 51, 60
1, 266148, Note_on_c, 0, 39, 0
1, 266160, Note_on_c, 0, 51, 0
1, 266160, Note_on_c, 0, 39, 66
1, 266280, Note_on_c, 0, 51, 61
1, 266388, Note_on_c, 0, 39, 0
1, 266400, Tempo, 397351
1, 266400, Note_on_c, 0, 87, 0
1, 266400, Note_on_c, 0, 79, 0
1, 266400, Note_on_c, 0, 51, 0
1, 266400, Note_on_c, 0, 67, 88
1, 266400, Note_on_c, 0, 75, 88
1, 266400, Note_on_c, 0, 38, 66
1, 266520, Note_on_c, 0, 50, 59
1, 266628, Note_on_c, 0, 38, 0
1, 266640, Note_on_c, 0, 50, 0
1, 266640, Note_on_c, 0, 38, 66
1, 266760, Note_on_c, 0, 50, 60
1, 266868, Note_on_c, 0, 38, 0
1, 266880, Note_on_c, 0, 50, 0
1, 266880, Note_on_c, 0, 38, 66
1, 267000, Note_on_c, 0, 50, 60
1, 267108, Note_on_c, 0, 38, 0
1, 267120, Tempo, 430108
1, 267120, Note_on_c, 0, 50, 0
1, 267120, Note_on_c, 0, 38, 66
1, 267240, Note_on_c, 0, 50, 61
1, 267348, Note_on_c, 0, 38, 0
1, 267360, Tempo, 400000
1, 267360, Note_on_c, 0, 67, 0
1, 267360, Note_on_c, 0, 75, 0
1, 267360, Note_on_c, 0, 50, 0
1, 267360, Note_on_c, 0, 87, 99
1, 267360, Note_on_c, 0, 79, 99
1, 267360, Note_on_c, 0, 36, 66
1, 267480, Note_on_c, 0, 48, 59
1, 267588, Note_on_c, 0, 36, 0
1, 267600, Note_on_c, 0, 48, 0
1, 267600, Note_on_c, 0, 36, 66
1, 267720, Note_on_c, 0, 48, 60
1, 267828, Note_on_c, 0, 36, 0
1, 267840, Note_on_c, 0, 48, 0
1, 267840, Note_on_c, 0, 36, 66
1, 267960, Note_on_c, 0, 48, 60
1, 268068, Note_on_c, 0, 36, 0
1, 268080, Note_on_c, 0, 48, 0
1, 268080, Note_on_c, 0, 36, 66
1, 268200, Note_on_c, 0, 48, 61
1, 268308, Note_on_c, 0, 36, 0
1, 268320, Tempo, 396040
1, 268320, Note_on_c, 0, 87, 0
1, 268320, Note_on_c, 0, 79, 0
1, 268320, Note_on_c, 0, 48, 0
1, 268320, Note_on_c, 0, 67, 92
1, 268320, Note_on_c, 0, 75, 92
1, 268320, Note_on_c, 0, 34, 66
1, 268440, Note_on_c, 0, 46, 59
1, 268548, Note_on_c, 0, 34, 0
1, 268560, Note_on_c, 0, 46, 0
1, 268560, Note_on_c, 0, 34, 66
1, 268680, Note_on_c, 0, 46, 60
1, 268788, Note_on_c, 0, 34, 0
1, 268800, Note_on_c, 0, 46, 0
1, 268800, Note_on_c, 0, 34, 66
1, 268920, Note_on_c, 0, 46, 60
1, 269028, Note_on_c, 0, 34, 0
1, 269040, Tempo, 425532
1, 269040, Note_on_c, 0, 46, 0
1, 269040, Note_on_c, 0, 34, 66
1, 269160, Note_on_c, 0, 46, 61
1, 269268, Note_on_c, 0, 34, 0
1, 269280, Tempo, 400000
1, 269280, Note_on_c, 0, 67, 0
1, 269280, Note_on_c, 0, 75, 0
1, 269280, Note_on_c, 0, 46, 0
1, 269280, Note_on_c, 0, 87, 102
1, 269280, Note_on_c, 0, 84, 102
1, 269280, Note_on_c, 0, 32, 66
1, 269400, Note_on_c, 0, 44, 59
1, 269508, Note_on_c, 0, 32, 0
1, 269520, Note_on_c, 0, 44, 0
1, 269520, Note_on_c, 0, 32, 66
1, 269640, Note_on_c, 0, 44, 60
1, 269748, Note_on_c, 0, 32, 0
1, 269760, Note_on_c, 0, 44, 0
1, 269760, Note_on_c, 0, 32, 66
1, 269880, Note_on_c, 0, 44, 60
1, 269988, Note_on_c, 0, 32, 0
1, 270000, Note_on_c, 0, 44, 0
1, 270000, Note_on_c, 0, 32, 66
1, 270120, Note_on_c, 0, 44, 61
1, 270228, Note_on_c, 0, 32, 0
1, 270240, Tempo, 396040
1, 270240, Note_on_c, 0, 87, 0
1, 270240, Note_on_c, 0, 84, 0
1, 270240, Note_on_c, 0, 44, 0
1, 270240, Note_on_c, 0, 72, 96
1, 270240, Note_on_c, 0, 75, 96
1, 270240, Note_on_c, 0, 31, 66
1, 270360, Note_on_c, 0, 43, 59
1, 270468, Note_on_c, 0, 31, 0
1, 270480, Note_on_c, 0, 43, 0
1, 270480, Note_on_c, 0, 31, 66
1, 270600, Note_on_c, 0, 43, 60
1, 270708, Note_on_c, 0, 31, 0
1, 270720, Note_on_c, 0, 43, 0
1, 270720, Note_on_c, 0, 31, 66
1, 270840, Note_on_c, 0, 43, 60
1, 270948, Note_on_c, 0, 31, 0
1, 270960, Tempo, 422535
1, 270960, Note_on_c, 0, 43, 0
1, 270960, Note_on_c, 0, 31, 66
1, 271080, Note_on_c, 0, 43, 61
1, 271188, Note_on_c, 0, 31, 0
1, 271200, Tempo, 481928
1, 271200, Note_on_c, 0, 72, 0
1, 271200, Note_on_c, 0, 75, 0
1, 271200, Note_on_c, 0, 43, 0
1, 271200, Note_on_c, 0, 84, 93
1, 271200, Note_on_c, 0, 81, 93
1, 271200, Note_on_c, 0, 86, 93
1, 271200, Note_on_c, 0, 30, 62
1, 271200, Note_on_c, 0, 42, 74
1, 272160, Tempo, 1000000
1, 272160, Note_on_c, 0, 42, 0
1, 272160, Note_on_c, 0, 86, 0
1, 272160, Note_on_c, 0, 84, 0
1, 272160, Note_on_c, 0, 81, 0
1, 272160, Note_on_c, 0, 30, 0
1, 272160, Note_on_c, 0, 57, 86
1, 272160, Note_on_c, 0, 60, 102
1, 272160, Note_on_c, 0, 62, 102
1, 272160, Note_on_c, 0, 42, 71
1, 272160, Note_on_c, 0, 54, 84
1, 273120, Time_signature, 4, 1, 48, 8
1, 273120, Tempo, 1500000
1, 273120, Marker_t, "Tempo I"
1, 273120, Note_on_c, 0, 54, 0
1, 273120, Note_on_c, 0, 62, 0
1, 273120, Note_on_c, 0, 57, 0
1, 273120, Note_on_c, 0, 60, 0
1, 273120, Note_on_c, 0, 42, 0
1, 273120, Note_on_c, 0, 55, 87
1, 273120, Note_on_c, 0, 58, 87
1, 273120, Note_on_c, 0, 62, 87
1, 273120, Note_on_c, 0, 67, 102
1, 273120, Control_c, 0, 91, 127
1, 273120, Text_t, "bdca426d104a26ac9dcb070447587523"
1, 273120, Note_on_c, 0, 31, 76
1, 273120, Note_on_c, 0, 34, 76
1, 273120, Note_on_c, 0, 38, 76
1, 273120, Note_on_c, 0, 43, 89
1, 273120, Control_c, 0, 64, 0
1, 274440, Note_on_c, 0, 43, 0
1, 274440, Note_on_c, 0, 55, 0
1, 274440, Note_on_c, 0, 31, 0
1, 274440, Note_on_c, 0, 58, 0
1, 274440, Note_on_c, 0, 62, 0
1, 274440, Note_on_c, 0, 67, 0
1, 274440, Note_on_c, 0, 34, 0
1, 274440, Note_on_c, 0, 38, 0
1, 274440, Note_on_c, 0, 62, 44
1, 274440, Note_on_c, 0, 67, 51
1, 274440, Note_on_c, 0, 58, 39
1, 274554, Note_on_c, 0, 58, 0
1, 274554, Note_on_c, 0, 67, 0
1, 274554, Note_on_c, 0, 62, 0
1, 274560, Note_on_c, 0, 62, 46
1, 274560, Note_on_c, 0, 66, 46
1, 274560, Note_on_c, 0, 69, 55
1, 274560, Note_on_c, 0, 57, 45
1, 274920, Tempo, 1764706
1, 274920, Note_on_c, 0, 57, 0
1, 274920, Note_on_c, 0, 62, 0
1, 274920, Note_on_c, 0, 66, 0
1, 274920, Note_on_c, 0, 69, 0
1, 274920, Note_on_c, 0, 62, 42
1, 274920, Note_on_c, 0, 67, 50
1, 274920, Note_on_c, 0, 70, 50
1, 274920, Note_on_c, 0, 55, 39
1, 275034, Note_on_c, 0, 55, 0
1, 275034, Note_on_c, 0, 62, 0
1, 275034, Note_on_c, 0, 67, 0
1, 275034, Note_on_c, 0, 70, 0
1, 275040, Tempo, 1643836
1, 275040, Note_on_c, 0, 64, 46
1, 275040, Note_on_c, 0, 67, 55
1, 275040, Note_on_c, 0, 70, 55
1, 275040, Note_on_c, 0, 61, 42
1, 276000, Tempo, 1500000
1, 276000, Note_on_c, 0, 61, 0
1, 276000, Note_on_c, 0, 64, 0
1, 276000, Note_on_c, 0, 67, 0
1, 276000, Note_on_c, 0, 70, 0
1, 276000, Note_on_c, 0, 66, 31
1, 276000, Note_on_c, 0, 69, 39
1, 276000, Note_on_c, 0, 62, 27
1, 276480, Note_on_c, 0, 62, 0
1, 276480, Note_on_c, 0, 69, 0
1, 276480, Note_on_c, 0, 66, 0
1, 276840, Note_on_c, 0, 51, 86
1, 276960, Note_on_c, 0, 51, 0
1, 276960, Note_on_c, 0, 66, 87
1, 276960, Note_on_c, 0, 69, 87
1, 276960, Note_on_c, 0, 72, 100
1, 276960, Control_c, 0, 91, 127
1, 276960, Text_t, "bdca426d104a26ac9dcb070447587523"
1, 276960, Note_on_c, 0, 63, 90
1, 278280, Note_on_c, 0, 63, 0
1, 278280, Note_on_c, 0, 66, 0
1, 278280, Note_on_c, 0, 69, 0
1, 278280, Note_on_c, 0, 72, 0
1, 278280, Note_on_c, 0, 69, 44
1, 278280, Note_on_c, 0, 66, 44
1, 278280, Note_on_c, 0, 72, 52
1, 278280, Note_on_c, 0, 63, 39
1, 278394, Note_on_c, 0, 63, 0
1, 278394, Note_on_c, 0, 69, 0
1, 278394, Note_on_c, 0, 66, 0
1, 278394, Note_on_c, 0, 72, 0
1, 278400, Note_on_c, 0, 66, 46
1, 278400, Note_on_c, 0, 69, 46
1, 278400, Note_on_c, 0, 74, 55
1, 278400, Note_on_c, 0, 62, 45
1, 278760, Tempo, 1739130
1, 278760, Note_on_c, 0, 62, 0
1, 278760, Note_on_c, 0, 66, 0
1, 278760, Note_on_c, 0, 69, 0
1, 278760, Note_on_c, 0, 74, 0
1, 278760, Note_on_c, 0, 69, 51
1, 278760, Note_on_c, 0, 75, 51
1, 278760, Note_on_c, 0, 66, 43
1, 278760, Note_on_c, 0, 60, 39
1, 278874, Note_on_c, 0, 60, 0
1, 278874, Note_on_c, 0, 69, 0
1, 278874, Note_on_c, 0, 75, 0
1, 278874, Note_on_c, 0, 66, 0
1, 278880, Tempo, 1643836
1, 278880, Note_on_c, 0, 75, 55
1, 278880, Note_on_c, 0, 66, 46
1, 278880, Note_on_c, 0, 69, 55
1, 278880, Note_on_c, 0, 58, 38
1, 279840, Tempo, 1500000
1, 279840, Note_on_c, 0, 69, 0
1, 279840, Note_on_c, 0, 75, 0
1, 279840, Note_on_c, 0, 66, 0
1, 279840, Note_on_c, 0, 67, 32
1, 279840, Note_on_c, 0, 74, 39
1, 279840, Note_on_c, 0, 70, 32
1, 280320, Note_on_c, 0, 70, 0
1, 280320, Note_on_c, 0, 58, 0
1, 280320, Note_on_c, 0, 67, 0
1, 280320, Note_on_c, 0, 74, 0
1, 280680, Note_on_c, 0, 51, 81
1, 280800, Note_on_c, 0, 51, 0
1, 280800, Note_on_c, 0, 66, 84
1, 280800, Note_on_c, 0, 69, 84
1, 280800, Note_on_c, 0, 72, 96
1, 280800, Control_c, 0, 91, 127
1, 280800, Text_t, "bdca426d104a26ac9dcb070447587523"
1, 280800, Note_on_c, 0, 63, 86
1, 282120, Note_on_c, 0, 63, 0
1, 282120, Note_on_c, 0, 66, 0
1, 282120, Note_on_c, 0, 69, 0
1, 282120, Note_on_c, 0, 72, 0
1, 282120, Note_on_c, 0, 69, 46
1, 282120, Note_on_c, 0, 66, 46
1, 282120, Note_on_c, 0, 72, 55
1, 282120, Note_on_c, 0, 63, 42
1, 282234, Note_on_c, 0, 63, 0
1, 282234, Note_on_c, 0, 69, 0
1, 282234, Note_on_c, 0, 66, 0
1, 282234, Note_on_c, 0, 72, 0
1, 282240, Tempo, 1538462
1, 282240, Note_on_c, 0, 66, 51
1, 282240, Note_on_c, 0, 69, 51
1, 282240, Note_on_c, 0, 74, 60
1, 282240, Note_on_c, 0, 62, 49
1, 282600, Tempo, 1666667
1, 282600, Note_on_c, 0, 62, 0
1, 282600, Note_on_c, 0, 66, 0
1, 282600, Note_on_c, 0, 69, 0
1, 282600, Note_on_c, 0, 74, 0
1, 282600, Note_on_c, 0, 69, 63
1, 282600, Note_on_c, 0, 75, 63
1, 282600, Note_on_c, 0, 66, 54
1, 282600, Note_on_c, 0, 60, 49
1, 282714, Note_on_c, 0, 60, 0
1, 282714, Note_on_c, 0, 69, 0
1, 282714, Note_on_c, 0, 75, 0
1, 282714, Note_on_c, 0, 66, 0
1, 282720, Tempo, 1600000
1, 282720, Note_on_c, 0, 75, 59
1, 282720, Note_on_c, 0, 66, 50
1, 282720, Note_on_c, 0, 69, 50
1, 282720, Note_on_c, 0, 60, 50
1, 283200, Note_on_c, 0, 60, 0
1, 283200, Note_on_c, 0, 59, 43
1, 283280, Control_c, 0, 64, 127
1, 283680, Note_on_c, 0, 75, 0
1, 283680, Note_on_c, 0, 69, 0
1, 283680, Note_on_c, 0, 66, 0
1, 283680, Note_on_c, 0, 64, 44
1, 283680, Note_on_c, 0, 67, 44
1, 283680, Note_on_c, 0, 76, 52
1, 284160, Note_on_c, 0, 59, 0
1, 284160, Note_on_c, 0, 59, 33
1, 284170, Control_c, 0, 64, 0
1, 284263, Control_c, 0, 64, 127
1, 284640, Note_on_c, 0, 64, 0
1, 284640, Note_on_c, 0, 76, 0
1, 284640, Note_on_c, 0, 67, 0
1, 284640, Note_on_c, 0, 63, 39
1, 284640, Note_on_c, 0, 66, 39
1, 284640, Note_on_c, 0, 69, 47
1, 285120, Note_on_c, 0, 59, 0
1, 285120, Note_on_c, 0, 47, 31
1, 285133, Control_c, 0, 64, 0
1, 285395, Control_c, 0, 64, 127
1, 285600, Note_on_c, 0, 63, 0
1, 285600, Note_on_c, 0, 69, 0
1, 285600, Note_on_c, 0, 66, 0
1, 285600, Note_on_c, 0, 59, 35
1, 285600, Note_on_c, 0, 64, 35
1, 285600, Note_on_c, 0, 67, 43
1, 286080, Note_on_c, 0, 47, 0
1, 286080, Note_on_c, 0, 47, 28
1, 286090, Control_c, 0, 64, 0
1, 286355, Control_c, 0, 64, 127
1, 286520, Tempo, 1690141
1, 286560, Note_on_c, 0, 59, 0
1, 286560, Note_on_c, 0, 67, 0
1, 286560, Note_on_c, 0, 64, 0
1, 286560, Note_on_c, 0, 57, 33
1, 286560, Note_on_c, 0, 60, 33
1, 286560, Note_on_c, 0, 63, 39
1, 286560, Note_on_c, 0, 66, 39
1, 286680, Tempo, 1714286
1, 286840, Tempo, 1739130
1, 286960, Tempo, 1764706
1, 287040, Note_on_c, 0, 47, 0
1, 287040, Note_on_c, 0, 35, 25
1, 287042, Control_c, 0, 64, 0
1, 287120, Tempo, 1791045
1, 287240, Tempo, 1818182
1, 287337, Control_c, 0, 64, 127
1, 287400, Tempo, 1846154
1, 287520, Tempo, 1875000
1, 287520, Note_on_c, 0, 63, 0
1, 287520, Note_on_c, 0, 66, 0
1, 287520, Note_on_c, 0, 57, 0
1, 287520, Note_on_c, 0, 60, 0
1, 287520, Note_on_c, 0, 54, 28
1, 287520, Note_on_c, 0, 57, 28
1, 287520, Note_on_c, 0, 63, 34
1, 288000, Tempo, 3428571
1, 288000, Note_on_c, 0, 35, 0
1, 288000, Note_on_c, 0, 35, 22
1, 288297, Control_c, 0, 64, 0
1, 288480, Time_signature, 4, 3, 12, 8
1, 288480, Key_signature, 0, "major"
1, 288480, Tempo, 414594
1, 288480, Marker_t, "Allegro molto e con brio"
1, 288480, Note_on_c, 0, 35, 0
1, 288480, Note_on_c, 0, 63, 0
1, 288480, Note_on_c, 0, 57, 0
1, 288480, Note_on_c, 0, 54, 0
1, 288480, Note_on_c, 0, 64, 61
1, 288480, Note_on_c, 0, 40, 55
1, 288570, Note_on_c, 0, 64, 0
1, 288600, Note_on_c, 0, 52, 50
1, 288708, Note_on_c, 0, 40, 0
1, 288720, Tempo, 389737
1, 288720, Note_on_c, 0, 52, 0
1, 288720, Note_on_c, 0, 69, 55
1, 288720, Note_on_c, 0, 40, 53
1, 288810, Note_on_c, 0, 69, 0
1, 288840, Note_on_c, 0, 52, 47
1, 288948, Note_on_c, 0, 40, 0
1, 288960, Note_on_c, 0, 52, 0
1, 288960, Note_on_c, 0, 67, 58
1, 288960, Note_on_c, 0, 40, 53
1, 289050, Note_on_c, 0, 67, 0
1, 289080, Note_on_c, 0, 52, 47
1, 289188, Note_on_c, 0, 40, 0
1, 289200, Note_on_c, 0, 52, 0
1, 289200, Note_on_c, 0, 69, 47
1, 289200, Note_on_c, 0, 75, 56
1, 289200, Note_on_c, 0, 40, 52
1, 289290, Note_on_c, 0, 75, 0
1, 289290, Note_on_c, 0, 69, 0
1, 289320, Note_on_c, 0, 52, 48
1, 289428, Note_on_c, 0, 40, 0
1, 289440, Note_on_c, 0, 52, 0
1, 289440, Note_on_c, 0, 67, 51
1, 289440, Note_on_c, 0, 76, 61
1, 289440, Note_on_c, 0, 40, 50
1, 289530, Note_on_c, 0, 76, 0
1, 289530, Note_on_c, 0, 67, 0
1, 289560, Note_on_c, 0, 52, 53
1, 289668, Note_on_c, 0, 40, 0
1, 289680, Tempo, 385852
1, 289680, Note_on_c, 0, 52, 0
1, 289680, Note_on_c, 0, 75, 56
1, 289680, Note_on_c, 0, 81, 66
1, 289680, Note_on_c, 0, 40, 54
1, 289770, Note_on_c, 0, 81, 0
1, 289770, Note_on_c, 0, 75, 0
1, 289800, Note_on_c, 0, 52, 54
1, 289908, Note_on_c, 0, 40, 0
1, 289920, Note_on_c, 0, 52, 0
1, 289920, Note_on_c, 0, 76, 60
1, 289920, Note_on_c, 0, 79, 71
1, 289920, Note_on_c, 0, 40, 56
1, 290010, Note_on_c, 0, 79, 0
1, 290010, Note_on_c, 0, 76, 0
1, 290040, Note_on_c, 0, 52, 58
1, 290148, Note_on_c, 0, 40, 0
1, 290160, Note_on_c, 0, 52, 0
1, 290160, Note_on_c, 0, 81, 62
1, 290160, Note_on_c, 0, 87, 73
1, 290160, Note_on_c, 0, 40, 62
1, 290250, Note_on_c, 0, 87, 0
1, 290250, Note_on_c, 0, 81, 0
1, 290280, Note_on_c, 0, 52, 57
1, 290388, Note_on_c, 0, 40, 0
1, 290400, Tempo, 396720
1, 290400, Note_on_c, 0, 52, 0
1, 290400, Note_on_c, 0, 79, 68
1, 290400, Note_on_c, 0, 88, 80
1, 290400, Note_on_c, 0, 52, 63
1, 290400, Note_on_c, 0, 40, 53
1, 290628, Note_on_c, 0, 40, 0
1, 290628, Note_on_c, 0, 52, 0
1, 290640, Note_on_c, 0, 88, 0
1, 290640, Note_on_c, 0, 79, 0
1, 290640, Note_on_c, 0, 55, 46
1, 290640, Note_on_c, 0, 59, 55
1, 290868, Note_on_c, 0, 59, 0
1, 290868, Note_on_c, 0, 55, 0
1, 290880, Note_on_c, 0, 64, 68
1, 290880, Note_on_c, 0, 76, 80
1, 290880, Note_on_c, 0, 55, 46
1, 290880, Note_on_c, 0, 59, 55
1, 291108, Note_on_c, 0, 59, 0
1, 291108, Note_on_c, 0, 55, 0
1, 291120, Note_on_c, 0, 76, 0
1, 291120, Note_on_c, 0, 64, 0
1, 291120, Note_on_c, 0, 55, 46
1, 291120, Note_on_c, 0, 59, 55
1, 291348, Note_on_c, 0, 59, 0
1, 291348, Note_on_c, 0, 55, 0
1, 291360, Note_on_c, 0, 52, 63
1, 291588, Note_on_c, 0, 52, 0
1, 291600, Note_on_c, 0, 64, 52
1, 291600, Note_on_c, 0, 76, 62
1, 291600, Note_on_c, 0, 55, 46
1, 291600, Note_on_c, 0, 59, 55
1, 291690, Note_on_c, 0, 76, 0
1, 291690, Note_on_c, 0, 64, 0
1, 291828, Note_on_c, 0, 55, 0
1, 291828, Note_on_c, 0, 59, 0
1, 291840, Tempo, 389610
1, 291840, Note_on_c, 0, 66, 56
1, 291840, Note_on_c, 0, 78, 67
1, 291840, Note_on_c, 0, 55, 46
1, 291840, Note_on_c, 0, 59, 55
1, 291930, Note_on_c, 0, 78, 0
1, 291930, Note_on_c, 0, 66, 0
1, 292068, Note_on_c, 0, 55, 0
1, 292068, Note_on_c, 0, 59, 0
1, 292080, Tempo, 412371
1, 292080, Note_on_c, 0, 67, 52
1, 292080, Note_on_c, 0, 79, 62
1, 292080, Note_on_c, 0, 55, 43
1, 292080, Note_on_c, 0, 59, 51
1, 292170, Note_on_c, 0, 79, 0
1, 292170, Note_on_c, 0, 67, 0
1, 292308, Note_on_c, 0, 55, 0
1, 292308, Note_on_c, 0, 59, 0
1, 292320, Tempo, 398671
1, 292320, Note_on_c, 0, 67, 56
1, 292320, Note_on_c, 0, 79, 66
1, 292320, Note_on_c, 0, 52, 55
1, 292548, Note_on_c, 0, 52, 0
1, 292560, Note_on_c, 0, 57, 40
1, 292560, Note_on_c, 0, 60, 48
1, 292788, Note_on_c, 0, 60, 0
1, 292788, Note_on_c, 0, 57, 0
1, 292800, Note_on_c, 0, 79, 0
1, 292800, Note_on_c, 0, 67, 0
1, 292800, Note_on_c, 0, 66, 52
1, 292800, Note_on_c, 0, 78, 62
1, 292800, Note_on_c, 0, 57, 40
1, 292800, Note_on_c, 0, 60, 48
1, 293028, Note_on_c, 0, 60, 0
1, 293028, Note_on_c, 0, 57, 0
1, 293040, Note_on_c, 0, 78, 0
1, 293040, Note_on_c, 0, 66, 0
1, 293040, Note_on_c, 0, 57, 40
1, 293040, Note_on_c, 0, 60, 48
1, 293268, Note_on_c, 0, 60, 0
1, 293268, Note_on_c, 0, 57, 0
1, 293280, Tempo, 394737
1, 293280, Note_on_c, 0, 51, 63
1, 293508, Note_on_c, 0, 51, 0
1, 293520, Note_on_c, 0, 66, 52
1, 293520, Note_on_c, 0, 78, 62
1, 293520, Note_on_c, 0, 57, 46
1, 293520, Note_on_c, 0, 60, 55
1, 293610, Note_on_c, 0, 78, 0
1, 293610, Note_on_c, 0, 66, 0
1, 293748, Note_on_c, 0, 57, 0
1, 293748, Note_on_c, 0, 60, 0
1, 293760, Tempo, 389610
1, 293760, Note_on_c, 0, 67, 56
1, 293760, Note_on_c, 0, 79, 67
1, 293760, Note_on_c, 0, 57, 46
1, 293760, Note_on_c, 0, 60, 55
1, 293850, Note_on_c, 0, 79, 0
1, 293850, Note_on_c, 0, 67, 0
1, 293988, Note_on_c, 0, 57, 0
1, 293988, Note_on_c, 0, 60, 0
1, 294000, Tempo, 412371
1, 294000, Note_on_c, 0, 69, 52
1, 294000, Note_on_c, 0, 81, 62
1, 294000, Note_on_c, 0, 57, 43
1, 294000, Note_on_c, 0, 60, 51
1, 294090, Note_on_c, 0, 81, 0
1, 294090, Note_on_c, 0, 69, 0
1, 294228, Note_on_c, 0, 57, 0
1, 294228, Note_on_c, 0, 60, 0
1, 294240, Tempo, 414594
1, 294240, Note_on_c, 0, 69, 52
1, 294240, Note_on_c, 0, 81, 62
1, 294240, Note_on_c, 0, 38, 55
1, 294330, Note_on_c, 0, 81, 0
1, 294330, Note_on_c, 0, 69, 0
1, 294360, Note_on_c, 0, 50, 50
1, 294468, Note_on_c, 0, 38, 0
1, 294480, Tempo, 389737
1, 294480, Note_on_c, 0, 50, 0
1, 294480, Note_on_c, 0, 67, 55
1, 294480, Note_on_c, 0, 38, 53
1, 294570, Note_on_c, 0, 67, 0
1, 294600, Note_on_c, 0, 50, 47
1, 294708, Note_on_c, 0, 38, 0
1, 294720, Note_on_c, 0, 50, 0
1, 294720, Note_on_c, 0, 66, 58
1, 294720, Note_on_c, 0, 38, 53
1, 294810, Note_on_c, 0, 66, 0
1, 294840, Note_on_c, 0, 50, 47
1, 294948, Note_on_c, 0, 38, 0
1, 294960, Note_on_c, 0, 50, 0
1, 294960, Note_on_c, 0, 67, 47
1, 294960, Note_on_c, 0, 73, 56
1, 294960, Note_on_c, 0, 38, 52
1, 295050, Note_on_c, 0, 73, 0
1, 295050, Note_on_c, 0, 67, 0
1, 295080, Note_on_c, 0, 50, 48
1, 295188, Note_on_c, 0, 38, 0
1, 295200, Note_on_c, 0, 50, 0
1, 295200, Note_on_c, 0, 66, 51
1, 295200, Note_on_c, 0, 74, 61
1, 295200, Note_on_c, 0, 38, 50
1, 295290, Note_on_c, 0, 74, 0
1, 295290, Note_on_c, 0, 66, 0
1, 295320, Note_on_c, 0, 50, 53
1, 295428, Note_on_c, 0, 38, 0
1, 295440, Tempo, 385852
1, 295440, Note_on_c, 0, 50, 0
1, 295440, Note_on_c, 0, 73, 56
1, 295440, Note_on_c, 0, 79, 66
1, 295440, Note_on_c, 0, 38, 54
1, 295530, Note_on_c, 0, 79, 0
1, 295530, Note_on_c, 0, 73, 0
1, 295560, Note_on_c, 0, 50, 54
1, 295668, Note_on_c, 0, 38, 0
1, 295680, Note_on_c, 0, 50, 0
1, 295680, Note_on_c, 0, 74, 60
1, 295680, Note_on_c, 0, 78, 71
1, 295680, Note_on_c, 0, 38, 56
1, 295770, Note_on_c, 0, 78, 0
1, 295770, Note_on_c, 0, 74, 0
1, 295800, Note_on_c, 0, 50, 58
1, 295908, Note_on_c, 0, 38, 0
1, 295920, Note_on_c, 0, 50, 0
1, 295920, Note_on_c, 0, 79, 62
1, 295920, Note_on_c, 0, 85, 73
1, 295920, Note_on_c, 0, 38, 62
1, 296010, Note_on_c, 0, 85, 0
1, 296010, Note_on_c, 0, 79, 0
1, 296040, Note_on_c, 0, 50, 57
1, 296148, Note_on_c, 0, 38, 0
1, 296160, Tempo, 396720
1, 296160, Note_on_c, 0, 50, 0
1, 296160, Note_on_c, 0, 78, 68
1, 296160, Note_on_c, 0, 86, 80
1, 296160, Note_on_c, 0, 50, 63
1, 296160, Note_on_c, 0, 38, 53
1, 296388, Note_on_c, 0, 38, 0
1, 296388, Note_on_c, 0, 50, 0
1, 296400, Note_on_c, 0, 86, 0
1, 296400, Note_on_c, 0, 78, 0
1, 296400, Note_on_c, 0, 57, 46
1, 296400, Note_on_c, 0, 60, 55
1, 296628, Note_on_c, 0, 60, 0
1, 296628, Note_on_c, 0, 57, 0
1, 296640, Note_on_c, 0, 66, 68
1, 296640, Note_on_c, 0, 78, 80
1, 296640, Note_on_c, 0, 57, 46
1, 296640, Note_on_c, 0, 60, 55
1, 296868, Note_on_c, 0, 60, 0
1, 296868, Note_on_c, 0, 57, 0
1, 296880, Note_on_c, 0, 78, 0
1, 296880, Note_on_c, 0, 66, 0
1, 296880, Note_on_c, 0, 57, 46
1, 296880, Note_on_c, 0, 60, 55
1, 297108, Note_on_c, 0, 60, 0
1, 297108, Note_on_c, 0, 57, 0
1, 297120, Note_on_c, 0, 50, 63
1, 297348, Note_on_c, 0, 50, 0
1, 297360, Note_on_c, 0, 66, 52
1, 297360, Note_on_c, 0, 78, 62
1, 297360, Note_on_c, 0, 57, 46
1, 297360, Note_on_c, 0, 60, 55
1, 297450, Note_on_c, 0, 78, 0
1, 297450, Note_on_c, 0, 66, 0
1, 297588, Note_on_c, 0, 57, 0
1, 297588, Note_on_c, 0, 60, 0
1, 297600, Tempo, 389610
1, 297600, Note_on_c, 0, 67, 56
1, 297600, Note_on_c, 0, 79, 67
1, 297600, Note_on_c, 0, 57, 46
1, 297600, Note_on_c, 0, 60, 55
1, 297690, Note_on_c, 0, 79, 0
1, 297690, Note_on_c, 0, 67, 0
1, 297828, Note_on_c, 0, 57, 0
1, 297828, Note_on_c, 0, 60, 0
1, 297840, Tempo, 412371
1, 297840, Note_on_c, 0, 69, 52
1, 297840, Note_on_c, 0, 81, 62
1, 297840, Note_on_c, 0, 57, 43
1, 297840, Note_on_c, 0, 60, 51
1, 297930, Note_on_c, 0, 81, 0
1, 297930, Note_on_c, 0, 69, 0
1, 298068, Note_on_c, 0, 57, 0
1, 298068, Note_on_c, 0, 60, 0
1, 298080, Tempo, 398671
1, 298080, Note_on_c, 0, 69, 56
1, 298080, Note_on_c, 0, 81, 66
1, 298080, Note_on_c, 0, 50, 55
1, 298308, Note_on_c, 0, 50, 0
1, 298320, Note_on_c, 0, 55, 40
1, 298320, Note_on_c, 0, 58, 48
1, 298548, Note_on_c, 0, 58, 0
1, 298548, Note_on_c, 0, 55, 0
1, 298560, Note_on_c, 0, 81, 0
1, 298560, Note_on_c, 0, 69, 0
1, 298560, Note_on_c, 0, 67, 52
1, 298560, Note_on_c, 0, 79, 62
1, 298560, Note_on_c, 0, 55, 40
1, 298560, Note_on_c, 0, 58, 48
1, 298788, Note_on_c, 0, 58, 0
1, 298788, Note_on_c, 0, 55, 0
1, 298800, Note_on_c, 0, 79, 0
1, 298800, Note_on_c, 0, 67, 0
1, 298800, Note_on_c, 0, 55, 40
1, 298800, Note_on_c, 0, 58, 48
1, 299028, Note_on_c, 0, 58, 0
1, 299028, Note_on_c, 0, 55, 0
1, 299040, Tempo, 394737
1, 299040, Note_on_c, 0, 49, 63
1, 299268, Note_on_c, 0, 49, 0
1, 299280, Note_on_c, 0, 67, 52
1, 299280, Note_on_c, 0, 79, 62
1, 299280, Note_on_c, 0, 55, 46
1, 299280, Note_on_c, 0, 58, 55
1, 299370, Note_on_c, 0, 79, 0
1, 299370, Note_on_c, 0, 67, 0
1, 299508, Note_on_c, 0, 55, 0
1, 299508, Note_on_c, 0, 58, 0
1, 299520, Tempo, 389610
1, 299520, Note_on_c, 0, 69, 56
1, 299520, Note_on_c, 0, 81, 67
1, 299520, Note_on_c, 0, 55, 46
1, 299520, Note_on_c, 0, 58, 55
1, 299610, Note_on_c, 0, 81, 0
1, 299610, Note_on_c, 0, 69, 0
1, 299748, Note_on_c, 0, 55, 0
1, 299748, Note_on_c, 0, 58, 0
1, 299760, Tempo, 412371
1, 299760, Note_on_c, 0, 70, 52
1, 299760, Note_on_c, 0, 82, 62
1, 299760, Note_on_c, 0, 55, 43
1, 299760, Note_on_c, 0, 58, 51
1, 299850, Note_on_c, 0, 82, 0
1, 299850, Note_on_c, 0, 70, 0
1, 299988, Note_on_c, 0, 55, 0
1, 299988, Note_on_c, 0, 58, 0
1, 300000, Tempo, 400000
1, 300000, Note_on_c, 0, 70, 58
1, 300000, Note_on_c, 0, 36, 53
1, 300000, Note_on_c, 0, 48, 53
1, 300120, Note_on_c, 0, 82, 52
1, 300228, Note_on_c, 0, 70, 0
1, 300240, Tempo, 387097
1, 300240, Note_on_c, 0, 36, 0
1, 300240, Note_on_c, 0, 48, 0
1, 300240, Note_on_c, 0, 82, 0
1, 300240, Note_on_c, 0, 70, 58
1, 300240, Note_on_c, 0, 49, 55
1, 300360, Note_on_c, 0, 82, 53
1, 300468, Note_on_c, 0, 70, 0
1, 300480, Tempo, 401338
1, 300480, Note_on_c, 0, 82, 0
1, 300480, Note_on_c, 0, 49, 0
1, 300480, Note_on_c, 0, 70, 58
1, 300480, Note_on_c, 0, 48, 51
1, 300600, Note_on_c, 0, 82, 52
1, 300708, Note_on_c, 0, 70, 0
1, 300720, Tempo, 385852
1, 300720, Note_on_c, 0, 82, 0
1, 300720, Note_on_c, 0, 48, 0
1, 300720, Note_on_c, 0, 70, 58
1, 300720, Note_on_c, 0, 53, 55
1, 300840, Note_on_c, 0, 82, 52
1, 300948, Note_on_c, 0, 70, 0
1, 300960, Tempo, 400000
1, 300960, Note_on_c, 0, 82, 0
1, 300960, Note_on_c, 0, 53, 0
1, 300960, Note_on_c, 0, 70, 58
1, 300960, Note_on_c, 0, 52, 52
1, 301080, Note_on_c, 0, 82, 52
1, 301188, Note_on_c, 0, 70, 0
1, 301200, Tempo, 387097
1, 301200, Note_on_c, 0, 82, 0
1, 301200, Note_on_c, 0, 52, 0
1, 301200, Note_on_c, 0, 70, 58
1, 301200, Note_on_c, 0, 61, 55
1, 301320, Note_on_c, 0, 82, 53
1, 301428, Note_on_c, 0, 70, 0
1, 301440, Tempo, 400000
1, 301440, Note_on_c, 0, 82, 0
1, 301440, Note_on_c, 0, 61, 0
1, 301440, Note_on_c, 0, 70, 58
1, 301440, Note_on_c, 0, 60, 51
1, 301560, Note_on_c, 0, 82, 52
1, 301668, Note_on_c, 0, 70, 0
1, 301680, Tempo, 385852
1, 301680, Note_on_c, 0, 82, 0
1, 301680, Note_on_c, 0, 60, 0
1, 301680, Note_on_c, 0, 70, 58
1, 301680, Note_on_c, 0, 65, 55
1, 301800, Note_on_c, 0, 82, 52
1, 301908, Note_on_c, 0, 70, 0
1, 301920, Tempo, 402685
1, 301920, Note_on_c, 0, 82, 0
1, 301920, Note_on_c, 0, 65, 0
1, 301920, Note_on_c, 0, 70, 58
1, 301920, Note_on_c, 0, 64, 51
1, 302040, Note_on_c, 0, 82, 52
1, 302148, Note_on_c, 0, 70, 0
1, 302160, Tempo, 390879
1, 302160, Note_on_c, 0, 82, 0
1, 302160, Note_on_c, 0, 64, 0
1, 302160, Note_on_c, 0, 70, 58
1, 302160, Note_on_c, 0, 66, 55
1, 302280, Note_on_c, 0, 82, 53
1, 302388, Note_on_c, 0, 70, 0
1, 302400, Note_on_c, 0, 82, 0
1, 302400, Note_on_c, 0, 66, 0
1, 302400, Note_on_c, 0, 70, 58
1, 302400, Note_on_c, 0, 67, 57
1, 302520, Note_on_c, 0, 82, 52
1, 302628, Note_on_c, 0, 70, 0
1, 302640, Note_on_c, 0, 82, 0
1, 302640, Note_on_c, 0, 67, 0
1, 302640, Note_on_c, 0, 70, 58
1, 302760, Note_on_c, 0, 82, 52
1, 302868, Note_on_c, 0, 70, 0
1, 302880, Tempo, 387097
1, 302880, Note_on_c, 0, 82, 0
1, 302880, Note_on_c, 0, 70, 58
1, 303000, Note_on_c, 0, 82, 52
1, 303108, Note_on_c, 0, 70, 0
1, 303120, Note_on_c, 0, 82, 0
1, 303120, Note_on_c, 0, 70, 58
1, 303240, Note_on_c, 0, 82, 53
1, 303348, Note_on_c, 0, 70, 0
1, 303360, Note_on_c, 0, 82, 0
1, 303360, Note_on_c, 0, 70, 58
1, 303480, Note_on_c, 0, 82, 52
1, 303588, Note_on_c, 0, 70, 0
1, 303600, Note_on_c, 0, 82, 0
1, 303600, Note_on_c, 0, 70, 58
1, 303720, Note_on_c, 0, 82, 52
1, 303828, Note_on_c, 0, 70, 0
1, 303840, Tempo, 400000
1, 303840, Note_on_c, 0, 82, 0
1, 303840, Note_on_c, 0, 69, 58
1, 303960, Note_on_c, 0, 81, 52
1, 304068, Note_on_c, 0, 69, 0
1, 304080, Tempo, 387097
1, 304080, Note_on_c, 0, 81, 0
1, 304080, Note_on_c, 0, 69, 58
1, 304080, Note_on_c, 0, 42, 55
1, 304200, Note_on_c, 0, 81, 53
1, 304308, Note_on_c, 0, 69, 0
1, 304320, Tempo, 401338
1, 304320, Note_on_c, 0, 81, 0
1, 304320, Note_on_c, 0, 42, 0
1, 304320, Note_on_c, 0, 69, 58
1, 304320, Note_on_c, 0, 41, 51
1, 304440, Note_on_c, 0, 81, 52
1, 304548, Note_on_c, 0, 69, 0
1, 304560, Tempo, 385852
1, 304560, Note_on_c, 0, 81, 0
1, 304560, Note_on_c, 0, 41, 0
1, 304560, Note_on_c, 0, 69, 58
1, 304560, Note_on_c, 0, 49, 55
1, 304680, Note_on_c, 0, 81, 52
1, 304788, Note_on_c, 0, 69, 0
1, 304800, Tempo, 400000
1, 304800, Note_on_c, 0, 81, 0
1, 304800, Note_on_c, 0, 49, 0
1, 304800, Note_on_c, 0, 69, 58
1, 304800, Note_on_c, 0, 48, 52
1, 304920, Note_on_c, 0, 81, 52
1, 305028, Note_on_c, 0, 69, 0
1, 305040, Tempo, 387097
1, 305040, Note_on_c, 0, 81, 0
1, 305040, Note_on_c, 0, 48, 0
1, 305040, Note_on_c, 0, 69, 58
1, 305040, Note_on_c, 0, 54, 55
1, 305160, Note_on_c, 0, 81, 53
1, 305268, Note_on_c, 0, 69, 0
1, 305280, Tempo, 400000
1, 305280, Note_on_c, 0, 81, 0
1, 305280, Note_on_c, 0, 54, 0
1, 305280, Note_on_c, 0, 69, 58
1, 305280, Note_on_c, 0, 53, 51
1, 305400, Note_on_c, 0, 81, 52
1, 305508, Note_on_c, 0, 69, 0
1, 305520, Tempo, 385852
1, 305520, Note_on_c, 0, 81, 0
1, 305520, Note_on_c, 0, 53, 0
1, 305520, Note_on_c, 0, 69, 58
1, 305520, Note_on_c, 0, 61, 55
1, 305640, Note_on_c, 0, 81, 52
1, 305748, Note_on_c, 0, 69, 0
1, 305760, Tempo, 402685
1, 305760, Note_on_c, 0, 81, 0
1, 305760, Note_on_c, 0, 61, 0
1, 305760, Note_on_c, 0, 69, 58
1, 305760, Note_on_c, 0, 60, 51
1, 305880, Note_on_c, 0, 81, 52
1, 305988, Note_on_c, 0, 69, 0
1, 306000, Tempo, 390879
1, 306000, Note_on_c, 0, 81, 0
1, 306000, Note_on_c, 0, 60, 0
1, 306000, Note_on_c, 0, 69, 58
1, 306000, Note_on_c, 0, 64, 55
1, 306120, Note_on_c, 0, 81, 53
1, 306228, Note_on_c, 0, 69, 0
1, 306240, Note_on_c, 0, 81, 0
1, 306240, Note_on_c, 0, 64, 0
1, 306240, Note_on_c, 0, 69, 58
1, 306240, Note_on_c, 0, 65, 57
1, 306360, Note_on_c, 0, 81, 52
1, 306468, Note_on_c, 0, 69, 0
1, 306480, Note_on_c, 0, 81, 0
1, 306480, Note_on_c, 0, 65, 0
1, 306480, Note_on_c, 0, 69, 58
1, 306600, Note_on_c, 0, 81, 52
1, 306708, Note_on_c, 0, 69, 0
1, 306720, Tempo, 387097
1, 306720, Note_on_c, 0, 81, 0
1, 306720, Note_on_c, 0, 69, 58
1, 306840, Note_on_c, 0, 81, 52
1, 306948, Note_on_c, 0, 69, 0
1, 306960, Note_on_c, 0, 81, 0
1, 306960, Note_on_c, 0, 69, 58
1, 307080, Note_on_c, 0, 81, 53
1, 307188, Note_on_c, 0, 69, 0
1, 307200, Note_on_c, 0, 81, 0
1, 307200, Note_on_c, 0, 69, 58
1, 307320, Note_on_c, 0, 81, 52
1, 307428, Note_on_c, 0, 69, 0
1, 307440, Note_on_c, 0, 81, 0
1, 307440, Note_on_c, 0, 69, 58
1, 307560, Note_on_c, 0, 81, 52
1, 307668, Note_on_c, 0, 69, 0
1, 307680, Tempo, 400000
1, 307680, Note_on_c, 0, 81, 0
1, 307680, Note_on_c, 0, 68, 58
1, 307800, Note_on_c, 0, 80, 52
1, 307908, Note_on_c, 0, 68, 0
1, 307920, Tempo, 387097
1, 307920, Note_on_c, 0, 80, 0
1, 307920, Note_on_c, 0, 68, 58
1, 307920, Note_on_c, 0, 48, 55
1, 308040, Note_on_c, 0, 80, 53
1, 308148, Note_on_c, 0, 68, 0
1, 308160, Tempo, 401338
1, 308160, Note_on_c, 0, 80, 0
1, 308160, Note_on_c, 0, 48, 0
1, 308160, Note_on_c, 0, 68, 58
1, 308160, Note_on_c, 0, 47, 51
1, 308280, Note_on_c, 0, 80, 52
1, 308388, Note_on_c, 0, 68, 0
1, 308400, Tempo, 385852
1, 308400, Note_on_c, 0, 80, 0
1, 308400, Note_on_c, 0, 47, 0
1, 308400, Note_on_c, 0, 68, 58
1, 308400, Note_on_c, 0, 50, 55
1, 308520, Note_on_c, 0, 80, 52
1, 308628, Note_on_c, 0, 68, 0
1, 308640, Tempo, 400000
1, 308640, Note_on_c, 0, 80, 0
1, 308640, Note_on_c, 0, 50, 0
1, 308640, Note_on_c, 0, 68, 58
1, 308640, Note_on_c, 0, 53, 52
1, 308760, Note_on_c, 0, 80, 52
1, 308868, Note_on_c, 0, 68, 0
1, 308880, Tempo, 387097
1, 308880, Note_on_c, 0, 80, 0
1, 308880, Note_on_c, 0, 53, 0
1, 308880, Note_on_c, 0, 68, 58
1, 308880, Note_on_c, 0, 60, 55
1, 309000, Note_on_c, 0, 80, 53
1, 309108, Note_on_c, 0, 68, 0
1, 309120, Tempo, 400000
1, 309120, Note_on_c, 0, 80, 0
1, 309120, Note_on_c, 0, 60, 0
1, 309120, Note_on_c, 0, 68, 58
1, 309120, Note_on_c, 0, 59, 51
1, 309240, Note_on_c, 0, 80, 52
1, 309348, Note_on_c, 0, 68, 0
1, 309360, Tempo, 385852
1, 309360, Note_on_c, 0, 80, 0
1, 309360, Note_on_c, 0, 59, 0
1, 309360, Note_on_c, 0, 68, 58
1, 309360, Note_on_c, 0, 62, 55
1, 309480, Note_on_c, 0, 80, 52
1, 309588, Note_on_c, 0, 68, 0
1, 309600, Tempo, 390879
1, 309600, Note_on_c, 0, 80, 0
1, 309600, Note_on_c, 0, 62, 0
1, 309600, Note_on_c, 0, 68, 58
1, 309600, Note_on_c, 0, 65, 54
1, 309714, Note_on_c, 0, 65, 0
1, 309720, Note_on_c, 0, 80, 52
1, 309820, Tempo, 392157
1, 309828, Note_on_c, 0, 68, 0
1, 309840, Note_on_c, 0, 80, 0
1, 309840, Note_on_c, 0, 68, 58
1, 309960, Note_on_c, 0, 80, 53
1, 310000, Tempo, 390879
1, 310068, Note_on_c, 0, 68, 0
1, 310080, Note_on_c, 0, 80, 0
1, 310080, Note_on_c, 0, 68, 58
1, 310080, Note_on_c, 0, 62, 54
1, 310180, Tempo, 389610
1, 310200, Note_on_c, 0, 62, 0
1, 310200, Note_on_c, 0, 80, 52
1, 310308, Note_on_c, 0, 68, 0
1, 310320, Note_on_c, 0, 80, 0
1, 310320, Note_on_c, 0, 68, 58
1, 310360, Tempo, 388350
1, 310440, Note_on_c, 0, 80, 52
1, 310540, Tempo, 387097
1, 310548, Note_on_c, 0, 68, 0
1, 310560, Note_on_c, 0, 80, 0
1, 310560, Note_on_c, 0, 68, 58
1, 310560, Note_on_c, 0, 59, 53
1, 310680, Note_on_c, 0, 59, 0
1, 310680, Note_on_c, 0, 80, 54
1, 310788, Note_on_c, 0, 68, 0
1, 310800, Note_on_c, 0, 80, 0
1, 310800, Note_on_c, 0, 67, 58
1, 310920, Note_on_c, 0, 79, 54
1, 311028, Note_on_c, 0, 67, 0
1, 311040, Note_on_c, 0, 79, 0
1, 311040, Note_on_c, 0, 67, 58
1, 311040, Note_on_c, 0, 55, 52
1, 311160, Note_on_c, 0, 55, 0
1, 311160, Note_on_c, 0, 79, 54
1, 311268, Note_on_c, 0, 67, 0
1, 311280, Note_on_c, 0, 79, 0
1, 311280, Note_on_c, 0, 65, 58
1, 311400, Tempo, 401338
1, 311400, Note_on_c, 0, 77, 54
1, 311508, Note_on_c, 0, 65, 0
1, 311520, Tempo, 387097
1, 311520, Note_on_c, 0, 77, 0
1, 311520, Note_on_c, 0, 65, 56
1, 311520, Note_on_c, 0, 49, 43
1, 311520, Note_on_c, 0, 61, 51
1, 311640, Note_on_c, 0, 77, 56
1, 311748, Note_on_c, 0, 65, 0
1, 311760, Note_on_c, 0, 49, 0
1, 311760, Note_on_c, 0, 61, 0
1, 311760, Note_on_c, 0, 77, 0
1, 311760, Note_on_c, 0, 64, 56
1, 311880, Note_on_c, 0, 76, 56
1, 311988, Note_on_c, 0, 64, 0
1, 312000, Note_on_c, 0, 76, 0
1, 312000, Note_on_c, 0, 64, 55
1, 312000, Note_on_c, 0, 46, 42
1, 312000, Note_on_c, 0, 58, 50
1, 312120, Note_on_c, 0, 76, 55
1, 312228, Note_on_c, 0, 64, 0
1, 312240, Note_on_c, 0, 46, 0
1, 312240, Note_on_c, 0, 58, 0
1, 312240, Note_on_c, 0, 76, 0
1, 312240, Note_on_c, 0, 61, 55
1, 312360, Tempo, 401338
1, 312360, Note_on_c, 0, 73, 55
1, 312468, Note_on_c, 0, 61, 0
1, 312480, Tempo, 388350
1, 312480, Note_on_c, 0, 73, 0
1, 312480, Note_on_c, 0, 61, 54
1, 312480, Note_on_c, 0, 43, 41
1, 312480, Note_on_c, 0, 55, 49
1, 312600, Note_on_c, 0, 73, 51
1, 312708, Note_on_c, 0, 61, 0
1, 312720, Note_on_c, 0, 43, 0
1, 312720, Note_on_c, 0, 55, 0
1, 312720, Note_on_c, 0, 73, 0
1, 312720, Note_on_c, 0, 60, 54
1, 312840, Note_on_c, 0, 72, 51
1, 312948, Note_on_c, 0, 60, 0
1, 312960, Note_on_c, 0, 72, 0
1, 312960, Note_on_c, 0, 60, 53
1, 312960, Note_on_c, 0, 40, 40
1, 312960, Note_on_c, 0, 52, 48
1, 313080, Note_on_c, 0, 72, 50
1, 313188, Note_on_c, 0, 60, 0
1, 313200, Note_on_c, 0, 40, 0
1, 313200, Note_on_c, 0, 52, 0
1, 313200, Note_on_c, 0, 72, 0
1, 313200, Note_on_c, 0, 58, 53
1, 313320, Tempo, 402685
1, 313320, Note_on_c, 0, 70, 49
1, 313428, Note_on_c, 0, 58, 0
1, 313440, Tempo, 387097
1, 313440, Note_on_c, 0, 70, 0
1, 313440, Note_on_c, 0, 58, 53
1, 313440, Note_on_c, 0, 41, 40
1, 313440, Note_on_c, 0, 53, 48
1, 313560, Note_on_c, 0, 70, 51
1, 313668, Note_on_c, 0, 58, 0
1, 313680, Note_on_c, 0, 41, 0
1, 313680, Note_on_c, 0, 53, 0
1, 313680, Note_on_c, 0, 70, 0
1, 313680, Note_on_c, 0, 56, 53
1, 313800, Note_on_c, 0, 68, 50
1, 313908, Note_on_c, 0, 56, 0
1, 313920, Note_on_c, 0, 68, 0
1, 313920, Note_on_c, 0, 56, 53
1, 314040, Note_on_c, 0, 68, 50
1, 314148, Note_on_c, 0, 56, 0
1, 314160, Note_on_c, 0, 68, 0
1, 314160, Note_on_c, 0, 55, 53
1, 314280, Tempo, 401338
1, 314280, Note_on_c, 0, 67, 49
1, 314388, Note_on_c, 0, 55, 0
1, 314400, Tempo, 388350
1, 314400, Note_on_c, 0, 67, 0
1, 314400, Note_on_c, 0, 55, 53
1, 314400, Note_on_c, 0, 29, 40
1, 314400, Note_on_c, 0, 41, 48
1, 314520, Note_on_c, 0, 67, 53
1, 314628, Note_on_c, 0, 55, 0
1, 314640, Note_on_c, 0, 29, 0
1, 314640, Note_on_c, 0, 41, 0
1, 314640, Note_on_c, 0, 67, 0
1, 314640, Note_on_c, 0, 53, 53
1, 314760, Note_on_c, 0, 65, 48
1, 314868, Note_on_c, 0, 53, 0
1, 314880, Note_on_c, 0, 65, 0
1, 314880, Note_on_c, 0, 53, 53
1, 315000, Note_on_c, 0, 65, 49
1, 315108, Note_on_c, 0, 53, 0
1, 315120, Note_on_c, 0, 65, 0
1, 315120, Note_on_c, 0, 51, 53
1, 315240, Tempo, 404040
1, 315240, Note_on_c, 0, 63, 49
1, 315348, Note_on_c, 0, 51, 0
1, 315360, Tempo, 388350
1, 315360, Note_on_c, 0, 63, 0
1, 315360, Note_on_c, 0, 51, 53
1, 315360, Note_on_c, 0, 30, 40
1, 315360, Note_on_c, 0, 42, 48
1, 315480, Note_on_c, 0, 63, 49
1, 315588, Note_on_c, 0, 51, 0
1, 315600, Note_on_c, 0, 30, 0
1, 315600, Note_on_c, 0, 42, 0
1, 315600, Note_on_c, 0, 63, 0
1, 315600, Note_on_c, 0, 50, 53
1, 315720, Note_on_c, 0, 62, 49
1, 315828, Note_on_c, 0, 50, 0
1, 315840, Note_on_c, 0, 62, 0
1, 315840, Note_on_c, 0, 50, 53
1, 315960, Note_on_c, 0, 62, 49
1, 316068, Note_on_c, 0, 50, 0
1, 316080, Note_on_c, 0, 62, 0
1, 316080, Note_on_c, 0, 51, 53
1, 316200, Tempo, 404040
1, 316200, Note_on_c, 0, 63, 48
1, 316308, Note_on_c, 0, 51, 0
1, 316320, Tempo, 388350
1, 316320, Note_on_c, 0, 63, 0
1, 316320, Note_on_c, 0, 51, 53
1, 316320, Note_on_c, 0, 30, 40
1, 316320, Note_on_c, 0, 42, 48
1, 316440, Note_on_c, 0, 63, 49
1, 316548, Note_on_c, 0, 51, 0
1, 316560, Note_on_c, 0, 30, 0
1, 316560, Note_on_c, 0, 42, 0
1, 316560, Note_on_c, 0, 63, 0
1, 316560, Note_on_c, 0, 50, 53
1, 316680, Note_on_c, 0, 62, 49
1, 316788, Note_on_c, 0, 50, 0
1, 316800, Note_on_c, 0, 62, 0
1, 316800, Note_on_c, 0, 50, 53
1, 316920, Note_on_c, 0, 62, 49
1, 317028, Note_on_c, 0, 50, 0
1, 317040, Note_on_c, 0, 62, 0
1, 317040, Note_on_c, 0, 48, 53
1, 317160, Note_on_c, 0, 60, 49
1, 317268, Note_on_c, 0, 48, 0
1, 317280, Tempo, 394737
1, 317280, Note_on_c, 0, 60, 0
1, 317280, Note_on_c, 0, 47, 53
1, 317280, Note_on_c, 0, 59, 53
1, 317280, Note_on_c, 0, 31, 33
1, 317400, Note_on_c, 0, 31, 0
1, 317400, Note_on_c, 0, 43, 33
1, 317520, Note_on_c, 0, 43, 0
1, 317520, Note_on_c, 0, 59, 0
1, 317520, Note_on_c, 0, 47, 0
1, 317520, Note_on_c, 0, 31, 34
1, 317640, Note_on_c, 0, 31, 0
1, 317640, Note_on_c, 0, 43, 34
1, 317760, Tempo, 389610
1, 317760, Note_on_c, 0, 43, 0
1, 317760, Note_on_c, 0, 49, 40
1, 317760, Note_on_c, 0, 31, 34
1, 317880, Note_on_c, 0, 31, 0
1, 317880, Note_on_c, 0, 49, 0
1, 317880, Note_on_c, 0, 56, 34
1, 317880, Note_on_c, 0, 43, 34
1, 318000, Note_on_c, 0, 43, 0
1, 318000, Note_on_c, 0, 56, 0
1, 318000, Note_on_c, 0, 52, 34
1, 318000, Note_on_c, 0, 31, 34
1, 318120, Note_on_c, 0, 31, 0
1, 318120, Note_on_c, 0, 52, 0
1, 318120, Note_on_c, 0, 49, 34
1, 318120, Note_on_c, 0, 43, 34
1, 318240, Note_on_c, 0, 43, 0
1, 318240, Note_on_c, 0, 49, 0
1, 318240, Note_on_c, 0, 50, 41
1, 318240, Note_on_c, 0, 31, 34
1, 318360, Note_on_c, 0, 31, 0
1, 318360, Note_on_c, 0, 50, 0
1, 318360, Note_on_c, 0, 56, 34
1, 318360, Note_on_c, 0, 43, 34
1, 318480, Note_on_c, 0, 43, 0
1, 318480, Note_on_c, 0, 56, 0
1, 318480, Note_on_c, 0, 53, 34
1, 318480, Note_on_c, 0, 31, 34
1, 318600, Note_on_c, 0, 31, 0
1, 318600, Note_on_c, 0, 53, 0
1, 318600, Note_on_c, 0, 50, 34
1, 318600, Note_on_c, 0, 43, 34
1, 318720, Note_on_c, 0, 43, 0
1, 318720, Note_on_c, 0, 50, 0
1, 318720, Note_on_c, 0, 48, 41
1, 318720, Note_on_c, 0, 31, 34
1, 318840, Note_on_c, 0, 31, 0
1, 318840, Note_on_c, 0, 48, 0
1, 318840, Note_on_c, 0, 56, 34
1, 318840, Note_on_c, 0, 43, 34
1, 318960, Note_on_c, 0, 43, 0
1, 318960, Note_on_c, 0, 56, 0
1, 318960, Note_on_c, 0, 51, 34
1, 318960, Note_on_c, 0, 31, 34
1, 319080, Note_on_c, 0, 31, 0
1, 319080, Note_on_c, 0, 51, 0
1, 319080, Note_on_c, 0, 48, 34
1, 319080, Note_on_c, 0, 43, 34
1, 319200, Note_on_c, 0, 43, 0
1, 319200, Note_on_c, 0, 48, 0
1, 319200, Note_on_c, 0, 47, 40
1, 319200, Note_on_c, 0, 31, 33
1, 319320, Note_on_c, 0, 31, 0
1, 319320, Note_on_c, 0, 47, 0
1, 319320, Note_on_c, 0, 55, 34
1, 319320, Note_on_c, 0, 43, 33
1, 319440, Note_on_c, 0, 43, 0
1, 319440, Note_on_c, 0, 55, 0
1, 319440, Note_on_c, 0, 50, 34
1, 319440, Note_on_c, 0, 31, 33
1, 319560, Tempo, 408163
1, 319560, Note_on_c, 0, 31, 0
1, 319560, Note_on_c, 0, 50, 0
1, 319560, Note_on_c, 0, 47, 34
1, 319560, Note_on_c, 0, 43, 33
1, 319680, Tempo, 389610
1, 319680, Note_on_c, 0, 43, 0
1, 319680, Note_on_c, 0, 47, 0
1, 319680, Note_on_c, 0, 49, 40
1, 319680, Note_on_c, 0, 31, 33
1, 319800, Note_on_c, 0, 31, 0
1, 319800, Note_on_c, 0, 49, 0
1, 319800, Note_on_c, 0, 56, 34
1, 319800, Note_on_c, 0, 43, 33
1, 319920, Note_on_c, 0, 43, 0
1, 319920, Note_on_c, 0, 56, 0
1, 319920, Note_on_c, 0, 52, 34
1, 319920, Note_on_c, 0, 31, 33
1, 320040, Note_on_c, 0, 31, 0
1, 320040, Note_on_c, 0, 52, 0
1, 320040, Note_on_c, 0, 49, 34
1, 320040, Note_on_c, 0, 43, 33
1, 320160, Note_on_c, 0, 43, 0
1, 320160, Note_on_c, 0, 49, 0
1, 320160, Note_on_c, 0, 50, 40
1, 320160, Note_on_c, 0, 31, 33
1, 320280, Note_on_c, 0, 31, 0
1, 320280, Note_on_c, 0, 50, 0
1, 320280, Note_on_c, 0, 56, 34
1, 320280, Note_on_c, 0, 43, 33
1, 320400, Note_on_c, 0, 43, 0
1, 320400, Note_on_c, 0, 56, 0
1, 320400, Note_on_c, 0, 53, 34
1, 320400, Note_on_c, 0, 31, 33
1, 320520, Note_on_c, 0, 31, 0
1, 320520, Note_on_c, 0, 53, 0
1, 320520, Note_on_c, 0, 50, 34
1, 320520, Note_on_c, 0, 43, 33
1, 320640, Note_on_c, 0, 43, 0
1, 320640, Note_on_c, 0, 50, 0
1, 320640, Note_on_c, 0, 48, 39
1, 320640, Note_on_c, 0, 31, 33
1, 320760, Note_on_c, 0, 31, 0
1, 320760, Note_on_c, 0, 48, 0
1, 320760, Note_on_c, 0, 56, 34
1, 320760, Note_on_c, 0, 43, 33
1, 320880, Tempo, 390879
1, 320880, Note_on_c, 0, 43, 0
1, 320880, Note_on_c, 0, 56, 0
1, 320880, Note_on_c, 0, 51, 34
1, 320880, Note_on_c, 0, 31, 33
1, 320900, Tempo, 392157
1, 320920, Tempo, 393443
1, 320940, Tempo, 394737
1, 320960, Tempo, 396040
1, 320980, Tempo, 398671
1, 321000, Tempo, 400000
1, 321000, Note_on_c, 0, 31, 0
1, 321000, Note_on_c, 0, 51, 0
1, 321000, Note_on_c, 0, 48, 34
1, 321000, Note_on_c, 0, 43, 33
1, 321020, Tempo, 401338
1, 321040, Tempo, 402685
1, 321060, Tempo, 404040
1, 321080, Tempo, 406780
1, 321120, Tempo, 396040
1, 321120, Note_on_c, 0, 43, 0
1, 321120, Note_on_c, 0, 48, 0
1, 321120, Note_on_c, 0, 47, 34
1, 321120, Note_on_c, 0, 50, 34
1, 321120, Note_on_c, 0, 55, 34
1, 321120, Note_on_c, 0, 31, 55
1, 321240, Note_on_c, 0, 43, 50
1, 321348, Note_on_c, 0, 31, 0
1, 321360, Tempo, 389737
1, 321360, Note_on_c, 0, 55, 0
1, 321360, Note_on_c, 0, 47, 0
1, 321360, Note_on_c, 0, 50, 0
1, 321360, Note_on_c, 0, 43, 0
1, 321360, Note_on_c, 0, 64, 55
1, 321360, Note_on_c, 0, 31, 53
1, 321450, Note_on_c, 0, 64, 0
1, 321480, Note_on_c, 0, 43, 47
1, 321588, Note_on_c, 0, 31, 0
1, 321600, Note_on_c, 0, 43, 0
1, 321600, Note_on_c, 0, 65, 58
1, 321600, Note_on_c, 0, 31, 53
1, 321690, Note_on_c, 0, 65, 0
1, 321720, Note_on_c, 0, 43, 47
1, 321828, Note_on_c, 0, 31, 0
1, 321840, Note_on_c, 0, 43, 0
1, 321840, Note_on_c, 0, 64, 47
1, 321840, Note_on_c, 0, 73, 56
1, 321840, Note_on_c, 0, 31, 52
1, 321930, Note_on_c, 0, 73, 0
1, 321930, Note_on_c, 0, 64, 0
1, 321960, Note_on_c, 0, 43, 48
1, 322068, Note_on_c, 0, 31, 0
1, 322080, Note_on_c, 0, 43, 0
1, 322080, Note_on_c, 0, 65, 51
1, 322080, Note_on_c, 0, 74, 61
1, 322080, Note_on_c, 0, 31, 50
1, 322170, Note_on_c, 0, 74, 0
1, 322170, Note_on_c, 0, 65, 0
1, 322200, Note_on_c, 0, 43, 53
1, 322308, Note_on_c, 0, 31, 0
1, 322320, Tempo, 385852
1, 322320, Note_on_c, 0, 43, 0
1, 322320, Note_on_c, 0, 73, 56
1, 322320, Note_on_c, 0, 76, 66
1, 322320, Note_on_c, 0, 31, 54
1, 322410, Note_on_c, 0, 76, 0
1, 322410, Note_on_c, 0, 73, 0
1, 322440, Note_on_c, 0, 43, 54
1, 322548, Note_on_c, 0, 31, 0
1, 322560, Note_on_c, 0, 43, 0
1, 322560, Note_on_c, 0, 74, 60
1, 322560, Note_on_c, 0, 77, 71
1, 322560, Note_on_c, 0, 31, 56
1, 322650, Note_on_c, 0, 77, 0
1, 322650, Note_on_c, 0, 74, 0
1, 322680, Note_on_c, 0, 43, 58
1, 322788, Note_on_c, 0, 31, 0
1, 322800, Note_on_c, 0, 43, 0
1, 322800, Note_on_c, 0, 76, 62
1, 322800, Note_on_c, 0, 85, 73
1, 322800, Note_on_c, 0, 31, 62
1, 322890, Note_on_c, 0, 85, 0
1, 322890, Note_on_c, 0, 76, 0
1, 322920, Note_on_c, 0, 43, 57
1, 323028, Note_on_c, 0, 31, 0
1, 323040, Tempo, 390879
1, 323040, Note_on_c, 0, 43, 0
1, 323040, Note_on_c, 0, 77, 62
1, 323040, Note_on_c, 0, 86, 73
1, 323040, Note_on_c, 0, 31, 69
1, 323130, Note_on_c, 0, 86, 0
1, 323130, Note_on_c, 0, 77, 0
1, 323280, Tempo, 401338
1, 323280, Note_on_c, 0, 85, 77
1, 323280, Note_on_c, 0, 88, 77
1, 323280, Note_on_c, 0, 43, 62
1, 323370, Note_on_c, 0, 88, 0
1, 323370, Note_on_c, 0, 85, 0
1, 323520, Tempo, 390879
1, 323520, Note_on_c, 0, 31, 0
1, 323520, Note_on_c, 0, 86, 82
1, 323520, Note_on_c, 0, 89, 82
1, 323520, Note_on_c, 0, 35, 67
1, 323760, Note_on_c, 0, 43, 0
1, 323760, Note_on_c, 0, 43, 62
1, 324000, Note_on_c, 0, 35, 0
1, 324000, Note_on_c, 0, 36, 67
1, 324240, Note_on_c, 0, 43, 0
1, 324240, Note_on_c, 0, 43, 62
1, 324480, Tempo, 398671
1, 324480, Note_on_c, 0, 86, 0
1, 324480, Note_on_c, 0, 36, 0
1, 324480, Note_on_c, 0, 89, 0
1, 324480, Note_on_c, 0, 84, 58
1, 324480, Note_on_c, 0, 87, 58
1, 324480, Note_on_c, 0, 30, 64
1, 324500, Control_c, 0, 64, 127
1, 324540, Note_on_c, 0, 87, 0
1, 324540, Note_on_c, 0, 89, 54
1, 324600, Note_on_c, 0, 89, 0
1, 324600, Note_on_c, 0, 87, 54
1, 324660, Note_on_c, 0, 87, 0
1, 324660, Note_on_c, 0, 89, 54
1, 324720, Note_on_c, 0, 89, 0
1, 324720, Note_on_c, 0, 43, 0
1, 324720, Note_on_c, 0, 87, 59
1, 324720, Note_on_c, 0, 43, 62
1, 324780, Note_on_c, 0, 87, 0
1, 324780, Note_on_c, 0, 89, 54
1, 324840, Note_on_c, 0, 89, 0
1, 324840, Note_on_c, 0, 87, 54
1, 324900, Note_on_c, 0, 87, 0
1, 324900, Note_on_c, 0, 89, 54
1, 324960, Tempo, 394737
1, 324960, Note_on_c, 0, 89, 0
1, 324960, Note_on_c, 0, 43, 0
1, 324960, Note_on_c, 0, 84, 0
1, 324960, Note_on_c, 0, 30, 0
1, 324960, Note_on_c, 0, 83, 59
1, 324960, Note_on_c, 0, 86, 59
1, 324960, Note_on_c, 0, 31, 33
1, 324960, Control_c, 0, 64, 0
1, 325080, Note_on_c, 0, 31, 0
1, 325080, Note_on_c, 0, 43, 33
1, 325200, Note_on_c, 0, 43, 0
1, 325200, Note_on_c, 0, 86, 0
1, 325200, Note_on_c, 0, 83, 0
1, 325200, Note_on_c, 0, 31, 34
1, 325320, Note_on_c, 0, 31, 0
1, 325320, Note_on_c, 0, 43, 34
1, 325440, Tempo, 389610
1, 325440, Note_on_c, 0, 43, 0
1, 325440, Note_on_c, 0, 49, 40
1, 325440, Note_on_c, 0, 31, 34
1, 325560, Note_on_c, 0, 31, 0
1, 325560, Note_on_c, 0, 49, 0
1, 325560, Note_on_c, 0, 56, 34
1, 325560, Note_on_c, 0, 43, 34
1, 325680, Note_on_c, 0, 43, 0
1, 325680, Note_on_c, 0, 56, 0
1, 325680, Note_on_c, 0, 52, 34
1, 325680, Note_on_c, 0, 31, 34
1, 325800, Note_on_c, 0, 31, 0
1, 325800, Note_on_c, 0, 52, 0
1, 325800, Note_on_c, 0, 49, 34
1, 325800, Note_on_c, 0, 43, 34
1, 325920, Note_on_c, 0, 43, 0
1, 325920, Note_on_c, 0, 49, 0
1, 325920, Note_on_c, 0, 50, 41
1, 325920, Note_on_c, 0, 31, 34
1, 326040, Note_on_c, 0, 31, 0
1, 326040, Note_on_c, 0, 50, 0
1, 326040, Note_on_c, 0, 56, 34
1, 326040, Note_on_c, 0, 43, 34
1, 326160, Note_on_c, 0, 43, 0
1, 326160, Note_on_c, 0, 56, 0
1, 326160, Note_on_c, 0, 53, 34
1, 326160, Note_on_c, 0, 31, 34
1, 326280, Note_on_c, 0, 31, 0
1, 326280, Note_on_c, 0, 53, 0
1, 326280, Note_on_c, 0, 50, 34
1, 326280, Note_on_c, 0, 43, 34
1, 326400, Note_on_c, 0, 43, 0
1, 326400, Note_on_c, 0, 50, 0
1, 326400, Note_on_c, 0, 48, 41
1, 326400, Note_on_c, 0, 31, 34
1, 326520, Note_on_c, 0, 31, 0
1, 326520, Note_on_c, 0, 48, 0
1, 326520, Note_on_c, 0, 56, 34
1, 326520, Note_on_c, 0, 43, 34
1, 326640, Note_on_c, 0, 43, 0
1, 326640, Note_on_c, 0, 56, 0
1, 326640, Note_on_c, 0, 51, 34
1, 326640, Note_on_c, 0, 31, 34
1, 326760, Note_on_c, 0, 31, 0
1, 326760, Note_on_c, 0, 51, 0
1, 326760, Note_on_c, 0, 48, 34
1, 326760, Note_on_c, 0, 43, 34
1, 326880, Note_on_c, 0, 43, 0
1, 326880, Note_on_c, 0, 48, 0
1, 326880, Note_on_c, 0, 47, 40
1, 326880, Note_on_c, 0, 31, 33
1, 327000, Note_on_c, 0, 31, 0
1, 327000, Note_on_c, 0, 47, 0
1, 327000, Note_on_c, 0, 55, 34
1, 327000, Note_on_c, 0, 43, 33
1, 327120, Note_on_c, 0, 43, 0
1, 327120, Note_on_c, 0, 55, 0
1, 327120, Note_on_c, 0, 50, 34
1, 327120, Note_on_c, 0, 31, 33
1, 327240, Tempo, 408163
1, 327240, Note_on_c, 0, 31, 0
1, 327240, Note_on_c, 0, 50, 0
1, 327240, Note_on_c, 0, 47, 34
1, 327240, Note_on_c, 0, 43, 33
1, 327360, Tempo, 389610
1, 327360, Note_on_c, 0, 43, 0
1, 327360, Note_on_c, 0, 47, 0
1, 327360, Note_on_c, 0, 49, 40
1, 327360, Note_on_c, 0, 31, 33
1, 327480, Note_on_c, 0, 31, 0
1, 327480, Note_on_c, 0, 49, 0
1, 327480, Note_on_c, 0, 56, 34
1, 327480, Note_on_c, 0, 43, 33
1, 327600, Note_on_c, 0, 43, 0
1, 327600, Note_on_c, 0, 56, 0
1, 327600, Note_on_c, 0, 52, 34
1, 327600, Note_on_c, 0, 31, 33
1, 327720, Note_on_c, 0, 31, 0
1, 327720, Note_on_c, 0, 52, 0
1, 327720, Note_on_c, 0, 49, 34
1, 327720, Note_on_c, 0, 43, 33
1, 327840, Note_on_c, 0, 43, 0
1, 327840, Note_on_c, 0, 49, 0
1, 327840, Note_on_c, 0, 50, 40
1, 327840, Note_on_c, 0, 31, 33
1, 327960, Note_on_c, 0, 31, 0
1, 327960, Note_on_c, 0, 50, 0
1, 327960, Note_on_c, 0, 56, 34
1, 327960, Note_on_c, 0, 43, 33
1, 328080, Note_on_c, 0, 43, 0
1, 328080, Note_on_c, 0, 56, 0
1, 328080, Note_on_c, 0, 53, 34
1, 328080, Note_on_c, 0, 31, 33
1, 328200, Note_on_c, 0, 31, 0
1, 328200, Note_on_c, 0, 53, 0
1, 328200, Note_on_c, 0, 50, 34
1, 328200, Note_on_c, 0, 43, 33
1, 328320, Note_on_c, 0, 43, 0
1, 328320, Note_on_c, 0, 50, 0
1, 328320, Note_on_c, 0, 48, 39
1, 328320, Note_on_c, 0, 31, 33
1, 328440, Note_on_c, 0, 31, 0
1, 328440, Note_on_c, 0, 48, 0
1, 328440, Note_on_c, 0, 56, 34
1, 328440, Note_on_c, 0, 43, 33
1, 328560, Tempo, 390879
1, 328560, Note_on_c, 0, 43, 0
1, 328560, Note_on_c, 0, 56, 0
1, 328560, Note_on_c, 0, 51, 34
1, 328560, Note_on_c, 0, 31, 33
1, 328580, Tempo, 392157
1, 328600, Tempo, 393443
1, 328620, Tempo, 394737
1, 328640, Tempo, 396040
1, 328660, Tempo, 398671
1, 328680, Tempo, 400000
1, 328680, Note_on_c, 0, 31, 0
1, 328680, Note_on_c, 0, 51, 0
1, 328680, Note_on_c, 0, 48, 34
1, 328680, Note_on_c, 0, 43, 33
1, 328700, Tempo, 401338
1, 328720, Tempo, 402685
1, 328740, Tempo, 404040
1, 328760, Tempo, 406780
1, 328800, Tempo, 396040
1, 328800, Note_on_c, 0, 43, 0
1, 328800, Note_on_c, 0, 48, 0
1, 328800, Note_on_c, 0, 47, 34
1, 328800, Note_on_c, 0, 50, 34
1, 328800, Note_on_c, 0, 55, 34
1, 328800, Note_on_c, 0, 31, 55
1, 328920, Note_on_c, 0, 43, 50
1, 329028, Note_on_c, 0, 31, 0
1, 329040, Tempo, 389737
1, 329040, Note_on_c, 0, 55, 0
1, 329040, Note_on_c, 0, 47, 0
1, 329040, Note_on_c, 0, 50, 0
1, 329040, Note_on_c, 0, 43, 0
1, 329040, Note_on_c, 0, 64, 55
1, 329040, Note_on_c, 0, 31, 53
1, 329130, Note_on_c, 0, 64, 0
1, 329160, Note_on_c, 0, 43, 47
1, 329268, Note_on_c, 0, 31, 0
1, 329280, Note_on_c, 0, 43, 0
1, 329280, Note_on_c, 0, 65, 58
1, 329280, Note_on_c, 0, 31, 53
1, 329370, Note_on_c, 0, 65, 0
1, 329400, Note_on_c, 0, 43, 47
1, 329508, Note_on_c, 0, 31, 0
1, 329520, Note_on_c, 0, 43, 0
1, 329520, Note_on_c, 0, 64, 47
1, 329520, Note_on_c, 0, 73, 56
1, 329520, Note_on_c, 0, 31, 52
1, 329610, Note_on_c, 0, 73, 0
1, 329610, Note_on_c, 0, 64, 0
1, 329640, Note_on_c, 0, 43, 48
1, 329748, Note_on_c, 0, 31, 0
1, 329760, Note_on_c, 0, 43, 0
1, 329760, Note_on_c, 0, 65, 51
1, 329760, Note_on_c, 0, 74, 61
1, 329760, Note_on_c, 0, 31, 50
1, 329850, Note_on_c, 0, 74, 0
1, 329850, Note_on_c, 0, 65, 0
1, 329880, Note_on_c, 0, 43, 53
1, 329988, Note_on_c, 0, 31, 0
1, 330000, Tempo, 385852
1, 330000, Note_on_c, 0, 43, 0
1, 330000, Note_on_c, 0, 73, 56
1, 330000, Note_on_c, 0, 76, 66
1, 330000, Note_on_c, 0, 31, 54
1, 330090, Note_on_c, 0, 76, 0
1, 330090, Note_on_c, 0, 73, 0
1, 330120, Note_on_c, 0, 43, 54
1, 330228, Note_on_c, 0, 31, 0
1, 330240, Note_on_c, 0, 43, 0
1, 330240, Note_on_c, 0, 74, 60
1, 330240, Note_on_c, 0, 77, 71
1, 330240, Note_on_c, 0, 31, 56
1, 330330, Note_on_c, 0, 77, 0
1, 330330, Note_on_c, 0, 74, 0
1, 330360, Note_on_c, 0, 43, 58
1, 330468, Note_on_c, 0, 31, 0
1, 330480, Note_on_c, 0, 43, 0
1, 330480, Note_on_c, 0, 76, 62
1, 330480, Note_on_c, 0, 85, 73
1, 330480, Note_on_c, 0, 31, 62
1, 330570, Note_on_c, 0, 85, 0
1, 330570, Note_on_c, 0, 76, 0
1, 330600, Note_on_c, 0, 43, 57
1, 330708, Note_on_c, 0, 31, 0
1, 330720, Tempo, 390879
1, 330720, Note_on_c, 0, 43, 0
1, 330720, Note_on_c, 0, 77, 62
1, 330720, Note_on_c, 0, 86, 73
1, 330720, Note_on_c, 0, 31, 69
1, 330810, Note_on_c, 0, 86, 0
1, 330810, Note_on_c, 0, 77, 0
1, 330960, Tempo, 401338
1, 330960, Note_on_c, 0, 85, 77
1, 330960, Note_on_c, 0, 88, 77
1, 330960, Note_on_c, 0, 43, 62
1, 331050, Note_on_c, 0, 88, 0
1, 331050, Note_on_c, 0, 85, 0
1, 331200, Tempo, 390879
1, 331200, Note_on_c, 0, 31, 0
1, 331200, Note_on_c, 0, 86, 82
1, 331200, Note_on_c, 0, 89, 82
1, 331200, Note_on_c, 0, 35, 67
1, 331440, Note_on_c, 0, 43, 0
1, 331440, Note_on_c, 0, 43, 62
1, 331680, Note_on_c, 0, 35, 0
1, 331680, Note_on_c, 0, 36, 67
1, 331920, Note_on_c, 0, 43, 0
1, 331920, Note_on_c, 0, 43, 62
1, 332160, Tempo, 398671
1, 332160, Note_on_c, 0, 86, 0
1, 332160, Note_on_c, 0, 36, 0
1, 332160, Note_on_c, 0, 89, 0
1, 332160, Note_on_c, 0, 84, 58
1, 332160, Note_on_c, 0, 87, 58
1, 332160, Note_on_c, 0, 30, 64
1, 332189, Control_c, 0, 64, 127
1, 332220, Note_on_c, 0, 87, 0
1, 332220, Note_on_c, 0, 89, 54
1, 332280, Note_on_c, 0, 89, 0
1, 332280, Note_on_c, 0, 87, 54
1, 332340, Note_on_c, 0, 87, 0
1, 332340, Note_on_c, 0, 89, 54
1, 332400, Note_on_c, 0, 89, 0
1, 332400, Note_on_c, 0, 43, 0
1, 332400, Note_on_c, 0, 87, 59
1, 332400, Note_on_c, 0, 43, 62
1, 332440, Note_on_c, 0, 87, 0
1, 332440, Note_on_c, 0, 89, 54
1, 332480, Note_on_c, 0, 89, 0
1, 332480, Note_on_c, 0, 87, 54
1, 332520, Note_on_c, 0, 87, 0
1, 332520, Note_on_c, 0, 86, 54
1, 332580, Note_on_c, 0, 86, 0
1, 332580, Note_on_c, 0, 87, 54
1, 332640, Tempo, 390879
1, 332640, Note_on_c, 0, 87, 0
1, 332640, Note_on_c, 0, 30, 0
1, 332640, Note_on_c, 0, 84, 0
1, 332640, Note_on_c, 0, 43, 0
1, 332640, Note_on_c, 0, 83, 62
1, 332640, Note_on_c, 0, 86, 73
1, 332640, Note_on_c, 0, 31, 69
1, 332646, Control_c, 0, 64, 0
1, 332730, Note_on_c, 0, 86, 0
1, 332730, Note_on_c, 0, 83, 0
1, 332880, Tempo, 401338
1, 332880, Note_on_c, 0, 85, 77
1, 332880, Note_on_c, 0, 88, 77
1, 332880, Note_on_c, 0, 43, 62
1, 332970, Note_on_c, 0, 88, 0
1, 332970, Note_on_c, 0, 85, 0
1, 333120, Tempo, 390879
1, 333120, Note_on_c, 0, 31, 0
1, 333120, Note_on_c, 0, 86, 82
1, 333120, Note_on_c, 0, 89, 82
1, 333120, Note_on_c, 0, 35, 67
1, 333360, Note_on_c, 0, 43, 0
1, 333360, Note_on_c, 0, 43, 62
1, 333600, Note_on_c, 0, 35, 0
1, 333600, Note_on_c, 0, 36, 67
1, 333840, Note_on_c, 0, 43, 0
1, 333840, Note_on_c, 0, 43, 62
1, 334080, Tempo, 398671
1, 334080, Note_on_c, 0, 86, 0
1, 334080, Note_on_c, 0, 36, 0
1, 334080, Note_on_c, 0, 89, 0
1, 334080, Note_on_c, 0, 84, 58
1, 334080, Note_on_c, 0, 87, 58
1, 334080, Note_on_c, 0, 30, 64
1, 334117, Control_c, 0, 64, 127
1, 334140, Note_on_c, 0, 87, 0
1, 334140, Note_on_c, 0, 89, 54
1, 334200, Note_on_c, 0, 89, 0
1, 334200, Note_on_c, 0, 87, 54
1, 334260, Note_on_c, 0, 87, 0
1, 334260, Note_on_c, 0, 89, 54
1, 334320, Note_on_c, 0, 89, 0
1, 334320, Note_on_c, 0, 43, 0
1, 334320, Note_on_c, 0, 87, 59
1, 334320, Note_on_c, 0, 43, 62
1, 334360, Note_on_c, 0, 87, 0
1, 334360, Note_on_c, 0, 89, 54
1, 334400, Note_on_c, 0, 89, 0
1, 334400, Note_on_c, 0, 87, 54
1, 334440, Note_on_c, 0, 87, 0
1, 334440, Note_on_c, 0, 86, 54
1, 334500, Note_on_c, 0, 86, 0
1, 334500, Note_on_c, 0, 87, 54
1, 334560, Tempo, 390879
1, 334560, Note_on_c, 0, 87, 0
1, 334560, Note_on_c, 0, 30, 0
1, 334560, Note_on_c, 0, 84, 0
1, 334560, Note_on_c, 0, 43, 0
1, 334560, Note_on_c, 0, 83, 62
1, 334560, Note_on_c, 0, 86, 73
1, 334560, Note_on_c, 0, 31, 69
1, 334567, Control_c, 0, 64, 0
1, 334650, Note_on_c, 0, 86, 0
1, 334650, Note_on_c, 0, 83, 0
1, 334800, Tempo, 401338
1, 334800, Note_on_c, 0, 85, 77
1, 334800, Note_on_c, 0, 88, 77
1, 334800, Note_on_c, 0, 43, 62
1, 334890, Note_on_c, 0, 88, 0
1, 334890, Note_on_c, 0, 85, 0
1, 335040, Tempo, 390879
1, 335040, Note_on_c, 0, 31, 0
1, 335040, Note_on_c, 0, 86, 82
1, 335040, Note_on_c, 0, 89, 82
1, 335040, Note_on_c, 0, 35, 67
1, 335280, Note_on_c, 0, 43, 0
1, 335280, Note_on_c, 0, 43, 62
1, 335520, Note_on_c, 0, 35, 0
1, 335520, Note_on_c, 0, 36, 67
1, 335760, Note_on_c, 0, 43, 0
1, 335760, Note_on_c, 0, 43, 62
1, 336000, Tempo, 398671
1, 336000, Note_on_c, 0, 86, 0
1, 336000, Note_on_c, 0, 36, 0
1, 336000, Note_on_c, 0, 89, 0
1, 336000, Note_on_c, 0, 84, 58
1, 336000, Note_on_c, 0, 87, 58
1, 336000, Note_on_c, 0, 30, 64
1, 336037, Control_c, 0, 64, 127
1, 336060, Note_on_c, 0, 87, 0
1, 336060, Note_on_c, 0, 89, 54
1, 336120, Note_on_c, 0, 89, 0
1, 336120, Note_on_c, 0, 87, 54
1, 336180, Note_on_c, 0, 87, 0
1, 336180, Note_on_c, 0, 89, 54
1, 336240, Note_on_c, 0, 89, 0
1, 336240, Note_on_c, 0, 43, 0
1, 336240, Note_on_c, 0, 87, 59
1, 336240, Note_on_c, 0, 43, 62
1, 336280, Note_on_c, 0, 87, 0
1, 336280, Note_on_c, 0, 89, 54
1, 336320, Note_on_c, 0, 89, 0
1, 336320, Note_on_c, 0, 87, 54
1, 336360, Note_on_c, 0, 87, 0
1, 336360, Note_on_c, 0, 86, 54
1, 336420, Note_on_c, 0, 86, 0
1, 336420, Note_on_c, 0, 87, 54
1, 336480, Tempo, 390879
1, 336480, Note_on_c, 0, 87, 0
1, 336480, Note_on_c, 0, 30, 0
1, 336480, Note_on_c, 0, 84, 0
1, 336480, Note_on_c, 0, 43, 0
1, 336480, Note_on_c, 0, 83, 58
1, 336480, Note_on_c, 0, 86, 58
1, 336494, Control_c, 0, 64, 0
1, 336600, Note_on_c, 0, 86, 0
1, 336600, Note_on_c, 0, 83, 0
1, 336600, Note_on_c, 0, 89, 53
1, 336720, Note_on_c, 0, 89, 0
1, 336720, Note_on_c, 0, 86, 54
1, 336840, Note_on_c, 0, 86, 0
1, 336840, Note_on_c, 0, 84, 54
1, 336960, Note_on_c, 0, 84, 0
1, 336960, Note_on_c, 0, 83, 58
1, 337080, Note_on_c, 0, 83, 0
1, 337080, Note_on_c, 0, 89, 53
1, 337200, Note_on_c, 0, 89, 0
1, 337200, Note_on_c, 0, 86, 53
1, 337320, Note_on_c, 0, 86, 0
1, 337320, Note_on_c, 0, 84, 53
1, 337440, Note_on_c, 0, 84, 0
1, 337440, Note_on_c, 0, 83, 58
1, 337560, Note_on_c, 0, 83, 0
1, 337560, Note_on_c, 0, 89, 55
1, 337680, Note_on_c, 0, 89, 0
1, 337680, Note_on_c, 0, 86, 55
1, 337800, Note_on_c, 0, 86, 0
1, 337800, Note_on_c, 0, 84, 55
1, 337920, Note_on_c, 0, 84, 0
1, 337920, Note_on_c, 0, 83, 58
1, 338040, Note_on_c, 0, 83, 0
1, 338040, Note_on_c, 0, 86, 55
1, 338160, Note_on_c, 0, 86, 0
1, 338160, Note_on_c, 0, 83, 55
1, 338280, Note_on_c, 0, 83, 0
1, 338280, Note_on_c, 0, 79, 55
1, 338400, Note_on_c, 0, 79, 0
1, 338400, Note_on_c, 0, 80, 58
1, 338520, Note_on_c, 0, 80, 0
1, 338520, Note_on_c, 0, 82, 55
1, 338640, Note_on_c, 0, 82, 0
1, 338640, Note_on_c, 0, 80, 55
1, 338760, Note_on_c, 0, 80, 0
1, 338760, Note_on_c, 0, 79, 55
1, 338880, Note_on_c, 0, 79, 0
1, 338880, Note_on_c, 0, 77, 58
1, 339000, Note_on_c, 0, 77, 0
1, 339000, Note_on_c, 0, 80, 55
1, 339120, Note_on_c, 0, 80, 0
1, 339120, Note_on_c, 0, 77, 55
1, 339240, Note_on_c, 0, 77, 0
1, 339240, Note_on_c, 0, 75, 55
1, 339360, Note_on_c, 0, 75, 0
1, 339360, Note_on_c, 0, 74, 58
1, 339480, Note_on_c, 0, 74, 0
1, 339480, Note_on_c, 0, 77, 54
1, 339600, Note_on_c, 0, 77, 0
1, 339600, Note_on_c, 0, 74, 54
1, 339720, Note_on_c, 0, 74, 0
1, 339720, Note_on_c, 0, 72, 54
1, 339840, Note_on_c, 0, 72, 0
1, 339840, Note_on_c, 0, 71, 58
1, 339960, Note_on_c, 0, 71, 0
1, 339960, Note_on_c, 0, 74, 54
1, 340080, Note_on_c, 0, 74, 0
1, 340080, Note_on_c, 0, 71, 54
1, 340200, Note_on_c, 0, 71, 0
1, 340200, Note_on_c, 0, 67, 54
1, 340320, Note_on_c, 0, 67, 0
1, 340320, Note_on_c, 0, 68, 58
1, 340440, Note_on_c, 0, 68, 0
1, 340440, Note_on_c, 0, 70, 55
1, 340560, Note_on_c, 0, 70, 0
1, 340560, Note_on_c, 0, 68, 55
1, 340680, Note_on_c, 0, 68, 0
1, 340680, Note_on_c, 0, 67, 55
1, 340800, Note_on_c, 0, 67, 0
1, 340800, Note_on_c, 0, 65, 58
1, 340920, Note_on_c, 0, 65, 0
1, 340920, Note_on_c, 0, 68, 58
1, 341040, Note_on_c, 0, 68, 0
1, 341040, Note_on_c, 0, 65, 55
1, 341160, Note_on_c, 0, 65, 0
1, 341160, Note_on_c, 0, 63, 55
1, 341280, Note_on_c, 0, 63, 0
1, 341280, Note_on_c, 0, 62, 58
1, 341400, Note_on_c, 0, 62, 0
1, 341400, Note_on_c, 0, 65, 55
1, 341520, Note_on_c, 0, 65, 0
1, 341520, Note_on_c, 0, 62, 55
1, 341640, Note_on_c, 0, 62, 0
1, 341640, Note_on_c, 0, 60, 55
1, 341760, Note_on_c, 0, 60, 0
1, 341760, Note_on_c, 0, 59, 58
1, 341880, Note_on_c, 0, 59, 0
1, 341880, Note_on_c, 0, 62, 55
1, 342000, Note_on_c, 0, 62, 0
1, 342000, Note_on_c, 0, 59, 55
1, 342120, Note_on_c, 0, 59, 0
1, 342120, Note_on_c, 0, 55, 55
1, 342240, Note_on_c, 0, 55, 0
1, 342240, Note_on_c, 0, 56, 58
1, 342360, Note_on_c, 0, 56, 0
1, 342360, Note_on_c, 0, 58, 54
1, 342480, Note_on_c, 0, 58, 0
1, 342480, Note_on_c, 0, 56, 54
1, 342600, Note_on_c, 0, 56, 0
1, 342600, Note_on_c, 0, 55, 54
1, 342720, Note_on_c, 0, 55, 0
1, 342720, Note_on_c, 0, 53, 58
1, 342840, Note_on_c, 0, 53, 0
1, 342840, Note_on_c, 0, 51, 53
1, 342960, Note_on_c, 0, 51, 0
1, 342960, Note_on_c, 0, 50, 53
1, 343080, Note_on_c, 0, 50, 0
1, 343080, Note_on_c, 0, 48, 53
1, 343200, Note_on_c, 0, 48, 0
1, 343200, Note_on_c, 0, 47, 58
1, 343320, Note_on_c, 0, 47, 0
1, 343320, Note_on_c, 0, 48, 55
1, 343440, Note_on_c, 0, 48, 0
1, 343440, Note_on_c, 0, 47, 55
1, 343560, Note_on_c, 0, 47, 0
1, 343560, Note_on_c, 0, 44, 56
1, 343680, Note_on_c, 0, 44, 0
1, 343680, Note_on_c, 0, 43, 58
1, 343800, Note_on_c, 0, 43, 0
1, 343800, Note_on_c, 0, 41, 55
1, 343920, Note_on_c, 0, 41, 0
1, 343920, Note_on_c, 0, 39, 55
1, 344040, Note_on_c, 0, 39, 0
1, 344040, Note_on_c, 0, 38, 55
1, 344160, Key_signature, -3, "major"
1, 344160, Tempo, 410004
1, 344160, Note_on_c, 0, 38, 0
1, 344160, Note_on_c, 0, 60, 50
1, 344160, Note_on_c, 0, 36, 44
1, 344220, Tempo, 408469
1, 344263, Control_c, 0, 64, 127
1, 344280, Tempo, 407000
1, 344280, Note_on_c, 0, 48, 41
1, 344340, Tempo, 405488
1, 344388, Note_on_c, 0, 36, 0
1, 344400, Tempo, 403986
1, 344400, Note_on_c, 0, 48, 0
1, 344400, Note_on_c, 0, 36, 44
1, 344460, Tempo, 402522
1, 344520, Tempo, 401070
1, 344520, Note_on_c, 0, 48, 41
1, 344580, Tempo, 399600
1, 344628, Note_on_c, 0, 36, 0
1, 344640, Tempo, 398168
1, 344640, Note_on_c, 0, 48, 0
1, 344640, Note_on_c, 0, 36, 44
1, 344700, Tempo, 396720
1, 344760, Tempo, 395309
1, 344760, Note_on_c, 0, 48, 41
1, 344820, Tempo, 393908
1, 344840, Control_c, 0, 64, 0
1, 344868, Note_on_c, 0, 36, 0
1, 344880, Tempo, 392490
1, 344880, Note_on_c, 0, 48, 0
1, 344880, Note_on_c, 0, 60, 0
1, 344880, Note_on_c, 0, 58, 52
1, 344880, Note_on_c, 0, 64, 52
1, 344880, Note_on_c, 0, 36, 45
1, 344940, Tempo, 391083
1, 344970, Note_on_c, 0, 64, 0
1, 344970, Note_on_c, 0, 58, 0
1, 345000, Tempo, 389737
1, 345000, Note_on_c, 0, 48, 41
1, 345108, Note_on_c, 0, 36, 0
1, 345120, Note_on_c, 0, 48, 0
1, 345120, Note_on_c, 0, 56, 54
1, 345120, Note_on_c, 0, 65, 54
1, 345120, Note_on_c, 0, 36, 45
1, 345210, Note_on_c, 0, 65, 0
1, 345210, Note_on_c, 0, 56, 0
1, 345240, Note_on_c, 0, 48, 46
1, 345348, Note_on_c, 0, 36, 0
1, 345360, Tempo, 384615
1, 345360, Note_on_c, 0, 48, 0
1, 345360, Note_on_c, 0, 64, 56
1, 345360, Note_on_c, 0, 67, 56
1, 345360, Note_on_c, 0, 36, 47
1, 345450, Note_on_c, 0, 67, 0
1, 345450, Note_on_c, 0, 64, 0
1, 345480, Note_on_c, 0, 48, 47
1, 345588, Note_on_c, 0, 36, 0
1, 345600, Note_on_c, 0, 48, 0
1, 345600, Note_on_c, 0, 65, 57
1, 345600, Note_on_c, 0, 68, 57
1, 345600, Note_on_c, 0, 36, 49
1, 345690, Note_on_c, 0, 68, 0
1, 345690, Note_on_c, 0, 65, 0
1, 345720, Note_on_c, 0, 48, 50
1, 345828, Note_on_c, 0, 36, 0
1, 345840, Tempo, 390879
1, 345840, Note_on_c, 0, 48, 0
1, 345840, Note_on_c, 0, 62, 59
1, 345840, Note_on_c, 0, 71, 59
1, 345840, Note_on_c, 0, 36, 51
1, 345930, Note_on_c, 0, 71, 0
1, 345930, Note_on_c, 0, 62, 0
1, 345960, Note_on_c, 0, 48, 53
1, 346068, Note_on_c, 0, 36, 0
1, 346080, Tempo, 414594
1, 346080, Note_on_c, 0, 48, 0
1, 346080, Note_on_c, 0, 63, 61
1, 346080, Note_on_c, 0, 72, 61
1, 346080, Note_on_c, 0, 36, 55
1, 346170, Note_on_c, 0, 72, 0
1, 346170, Note_on_c, 0, 63, 0
1, 346200, Note_on_c, 0, 48, 50
1, 346308, Note_on_c, 0, 36, 0
1, 346320, Tempo, 389737
1, 346320, Note_on_c, 0, 48, 0
1, 346320, Note_on_c, 0, 64, 55
1, 346320, Note_on_c, 0, 72, 55
1, 346320, Note_on_c, 0, 36, 53
1, 346355, Control_c, 0, 64, 127
1, 346440, Note_on_c, 0, 48, 47
1, 346548, Note_on_c, 0, 36, 0
1, 346560, Note_on_c, 0, 48, 0
1, 346560, Note_on_c, 0, 36, 53
1, 346680, Note_on_c, 0, 48, 47
1, 346788, Note_on_c, 0, 36, 0
1, 346800, Note_on_c, 0, 64, 0
1, 346800, Note_on_c, 0, 72, 0
1, 346800, Note_on_c, 0, 48, 0
1, 346800, Note_on_c, 0, 70, 51
1, 346800, Note_on_c, 0, 76, 51
1, 346800, Note_on_c, 0, 36, 44
1, 346823, Control_c, 0, 64, 0
1, 346890, Note_on_c, 0, 76, 0
1, 346890, Note_on_c, 0, 70, 0
1, 346920, Note_on_c, 0, 48, 40
1, 347028, Note_on_c, 0, 36, 0
1, 347040, Note_on_c, 0, 48, 0
1, 347040, Note_on_c, 0, 68, 53
1, 347040, Note_on_c, 0, 77, 53
1, 347040, Note_on_c, 0, 36, 43
1, 347130, Note_on_c, 0, 77, 0
1, 347130, Note_on_c, 0, 68, 0
1, 347160, Note_on_c, 0, 48, 45
1, 347268, Note_on_c, 0, 36, 0
1, 347280, Tempo, 385852
1, 347280, Note_on_c, 0, 48, 0
1, 347280, Note_on_c, 0, 76, 55
1, 347280, Note_on_c, 0, 79, 55
1, 347280, Note_on_c, 0, 36, 46
1, 347370, Note_on_c, 0, 79, 0
1, 347370, Note_on_c, 0, 76, 0
1, 347400, Note_on_c, 0, 48, 47
1, 347508, Note_on_c, 0, 36, 0
1, 347520, Note_on_c, 0, 48, 0
1, 347520, Note_on_c, 0, 77, 57
1, 347520, Note_on_c, 0, 80, 57
1, 347520, Note_on_c, 0, 36, 48
1, 347610, Note_on_c, 0, 80, 0
1, 347610, Note_on_c, 0, 77, 0
1, 347640, Note_on_c, 0, 48, 50
1, 347748, Note_on_c, 0, 36, 0
1, 347760, Note_on_c, 0, 48, 0
1, 347760, Note_on_c, 0, 74, 59
1, 347760, Note_on_c, 0, 83, 59
1, 347760, Note_on_c, 0, 36, 51
1, 347850, Note_on_c, 0, 83, 0
1, 347850, Note_on_c, 0, 74, 0
1, 347880, Note_on_c, 0, 48, 53
1, 347988, Note_on_c, 0, 36, 0
1, 348000, Tempo, 396720
1, 348000, Note_on_c, 0, 48, 0
1, 348000, Note_on_c, 0, 72, 51
1, 348000, Note_on_c, 0, 79, 61
1, 348000, Note_on_c, 0, 75, 51
1, 348000, Note_on_c, 0, 84, 61
1, 348000, Note_on_c, 0, 36, 55
1, 348064, Control_c, 0, 64, 127
1, 348120, Note_on_c, 0, 48, 50
1, 348228, Note_on_c, 0, 36, 0
1, 348240, Tempo, 392516
1, 348240, Note_on_c, 0, 48, 0
1, 348240, Note_on_c, 0, 36, 53
1, 348360, Note_on_c, 0, 48, 47
1, 348468, Note_on_c, 0, 36, 0
1, 348480, Note_on_c, 0, 79, 0
1, 348480, Note_on_c, 0, 84, 0
1, 348480, Note_on_c, 0, 72, 0
1, 348480, Note_on_c, 0, 48, 0
1, 348480, Note_on_c, 0, 75, 0
1, 348480, Note_on_c, 0, 67, 53
1, 348480, Note_on_c, 0, 71, 53
1, 348480, Note_on_c, 0, 77, 63
1, 348480, Note_on_c, 0, 79, 63
1, 348480, Note_on_c, 0, 38, 55
1, 348492, Control_c, 0, 64, 0
1, 348600, Note_on_c, 0, 50, 50
1, 348600, Control_c, 0, 64, 127
1, 348708, Note_on_c, 0, 38, 0
1, 348720, Tempo, 403986
1, 348720, Note_on_c, 0, 50, 0
1, 348720, Note_on_c, 0, 38, 55
1, 348840, Note_on_c, 0, 50, 51
1, 348948, Note_on_c, 0, 38, 0
1, 348960, Tempo, 395205
1, 348960, Note_on_c, 0, 71, 0
1, 348960, Note_on_c, 0, 79, 0
1, 348960, Note_on_c, 0, 67, 0
1, 348960, Note_on_c, 0, 50, 0
1, 348960, Note_on_c, 0, 77, 0
1, 348960, Note_on_c, 0, 67, 56
1, 348960, Note_on_c, 0, 72, 56
1, 348960, Note_on_c, 0, 75, 67
1, 348960, Note_on_c, 0, 39, 55
1, 348974, Control_c, 0, 64, 0
1, 349045, Control_c, 0, 64, 127
1, 349080, Note_on_c, 0, 51, 55
1, 349188, Note_on_c, 0, 39, 0
1, 349200, Note_on_c, 0, 51, 0
1, 349200, Note_on_c, 0, 39, 55
1, 349320, Note_on_c, 0, 51, 55
1, 349428, Note_on_c, 0, 39, 0
1, 349440, Note_on_c, 0, 67, 0
1, 349440, Note_on_c, 0, 75, 0
1, 349440, Note_on_c, 0, 72, 0
1, 349440, Note_on_c, 0, 51, 0
1, 349440, Note_on_c, 0, 65, 60
1, 349440, Note_on_c, 0, 68, 60
1, 349440, Note_on_c, 0, 74, 71
1, 349440, Note_on_c, 0, 41, 55
1, 349453, Control_c, 0, 64, 0
1, 349525, Control_c, 0, 64, 127
1, 349560, Note_on_c, 0, 53, 53
1, 349668, Note_on_c, 0, 41, 0
1, 349680, Tempo, 402037
1, 349680, Note_on_c, 0, 53, 0
1, 349680, Note_on_c, 0, 41, 55
1, 349800, Note_on_c, 0, 53, 55
1, 349908, Note_on_c, 0, 41, 0
1, 349920, Note_on_c, 0, 65, 0
1, 349920, Note_on_c, 0, 74, 0
1, 349920, Note_on_c, 0, 68, 0
1, 349920, Note_on_c, 0, 53, 0
1, 349920, Note_on_c, 0, 63, 62
1, 349920, Note_on_c, 0, 67, 74
1, 349920, Note_on_c, 0, 72, 74
1, 349920, Note_on_c, 0, 43, 56
1, 349930, Control_c, 0, 64, 0
1, 349991, Control_c, 0, 64, 127
1, 350040, Note_on_c, 0, 55, 56
1, 350148, Note_on_c, 0, 43, 0
1, 350160, Note_on_c, 0, 55, 0
1, 350160, Note_on_c, 0, 43, 57
1, 350280, Note_on_c, 0, 55, 57
1, 350388, Note_on_c, 0, 43, 0
1, 350400, Note_on_c, 0, 67, 0
1, 350400, Note_on_c, 0, 55, 0
1, 350400, Note_on_c, 0, 66, 74
1, 350400, Note_on_c, 0, 44, 58
1, 350418, Control_c, 0, 64, 0
1, 350485, Control_c, 0, 64, 127
1, 350520, Note_on_c, 0, 56, 59
1, 350628, Note_on_c, 0, 44, 0
1, 350640, Note_on_c, 0, 56, 0
1, 350640, Note_on_c, 0, 44, 59
1, 350760, Note_on_c, 0, 56, 60
1, 350868, Note_on_c, 0, 44, 0
1, 350880, Note_on_c, 0, 66, 0
1, 350880, Note_on_c, 0, 56, 0
1, 350880, Note_on_c, 0, 69, 77
1, 350880, Note_on_c, 0, 42, 60
1, 350890, Control_c, 0, 64, 0
1, 350949, Control_c, 0, 64, 127
1, 351000, Note_on_c, 0, 54, 55
1, 351108, Note_on_c, 0, 42, 0
1, 351120, Note_on_c, 0, 54, 0
1, 351120, Note_on_c, 0, 42, 61
1, 351240, Note_on_c, 0, 54, 55
1, 351348, Note_on_c, 0, 42, 0
1, 351360, Note_on_c, 0, 63, 0
1, 351360, Note_on_c, 0, 69, 0
1, 351360, Note_on_c, 0, 72, 0
1, 351360, Note_on_c, 0, 54, 0
1, 351360, Note_on_c, 0, 62, 62
1, 351360, Note_on_c, 0, 65, 62
1, 351360, Note_on_c, 0, 71, 74
1, 351360, Note_on_c, 0, 43, 58
1, 351376, Control_c, 0, 64, 0
1, 351452, Control_c, 0, 64, 127
1, 351480, Note_on_c, 0, 55, 55
1, 351588, Note_on_c, 0, 43, 0
1, 351600, Note_on_c, 0, 55, 0
1, 351600, Note_on_c, 0, 43, 58
1, 351720, Note_on_c, 0, 55, 55
1, 351828, Note_on_c, 0, 43, 0
1, 351840, Tempo, 410004
1, 351840, Note_on_c, 0, 62, 0
1, 351840, Note_on_c, 0, 71, 0
1, 351840, Note_on_c, 0, 65, 0
1, 351840, Note_on_c, 0, 55, 0
1, 351840, Note_on_c, 0, 60, 67
1, 351840, Note_on_c, 0, 63, 67
1, 351840, Note_on_c, 0, 72, 79
1, 351840, Note_on_c, 0, 36, 48
1, 351853, Control_c, 0, 64, 0
1, 351900, Tempo, 408469
1, 351930, Note_on_c, 0, 72, 0
1, 351930, Note_on_c, 0, 60, 0
1, 351930, Note_on_c, 0, 63, 0
1, 351960, Tempo, 407000
1, 351960, Note_on_c, 0, 48, 45
1, 352020, Tempo, 405488
1, 352068, Note_on_c, 0, 36, 0
1, 352080, Tempo, 403986
1, 352080, Note_on_c, 0, 48, 0
1, 352080, Note_on_c, 0, 60, 67
1, 352080, Note_on_c, 0, 36, 44
1, 352132, Control_c, 0, 64, 127
1, 352140, Tempo, 402522
1, 352200, Tempo, 401070
1, 352200, Note_on_c, 0, 48, 41
1, 352260, Tempo, 399600
1, 352308, Note_on_c, 0, 36, 0
1, 352320, Tempo, 398168
1, 352320, Note_on_c, 0, 48, 0
1, 352320, Note_on_c, 0, 36, 44
1, 352380, Tempo, 396720
1, 352440, Tempo, 395309
1, 352440, Note_on_c, 0, 48, 40
1, 352500, Tempo, 393908
1, 352526, Control_c, 0, 64, 0
1, 352548, Note_on_c, 0, 36, 0
1, 352560, Tempo, 392490
1, 352560, Note_on_c, 0, 48, 0
1, 352560, Note_on_c, 0, 60, 0
1, 352560, Note_on_c, 0, 58, 52
1, 352560, Note_on_c, 0, 64, 52
1, 352560, Note_on_c, 0, 36, 44
1, 352620, Tempo, 391083
1, 352650, Note_on_c, 0, 64, 0
1, 352650, Note_on_c, 0, 58, 0
1, 352680, Tempo, 389737
1, 352680, Note_on_c, 0, 48, 41
1, 352788, Note_on_c, 0, 36, 0
1, 352800, Note_on_c, 0, 48, 0
1, 352800, Note_on_c, 0, 56, 54
1, 352800, Note_on_c, 0, 65, 54
1, 352800, Note_on_c, 0, 36, 44
1, 352890, Note_on_c, 0, 65, 0
1, 352890, Note_on_c, 0, 56, 0
1, 352920, Note_on_c, 0, 48, 46
1, 353028, Note_on_c, 0, 36, 0
1, 353040, Tempo, 384615
1, 353040, Note_on_c, 0, 48, 0
1, 353040, Note_on_c, 0, 64, 55
1, 353040, Note_on_c, 0, 67, 55
1, 353040, Note_on_c, 0, 36, 47
1, 353130, Note_on_c, 0, 67, 0
1, 353130, Note_on_c, 0, 64, 0
1, 353160, Note_on_c, 0, 48, 47
1, 353268, Note_on_c, 0, 36, 0
1, 353280, Note_on_c, 0, 48, 0
1, 353280, Note_on_c, 0, 65, 57
1, 353280, Note_on_c, 0, 68, 57
1, 353280, Note_on_c, 0, 36, 49
1, 353370, Note_on_c, 0, 68, 0
1, 353370, Note_on_c, 0, 65, 0
1, 353400, Note_on_c, 0, 48, 50
1, 353508, Note_on_c, 0, 36, 0
1, 353520, Note_on_c, 0, 48, 0
1, 353520, Note_on_c, 0, 62, 59
1, 353520, Note_on_c, 0, 71, 59
1, 353520, Note_on_c, 0, 36, 51
1, 353610, Note_on_c, 0, 71, 0
1, 353610, Note_on_c, 0, 62, 0
1, 353640, Note_on_c, 0, 48, 53
1, 353748, Note_on_c, 0, 36, 0
1, 353760, Tempo, 414594
1, 353760, Note_on_c, 0, 48, 0
1, 353760, Note_on_c, 0, 63, 61
1, 353760, Note_on_c, 0, 72, 61
1, 353760, Note_on_c, 0, 36, 55
1, 353850, Note_on_c, 0, 72, 0
1, 353850, Note_on_c, 0, 63, 0
1, 353880, Note_on_c, 0, 48, 50
1, 353988, Note_on_c, 0, 36, 0
1, 354000, Tempo, 389737
1, 354000, Note_on_c, 0, 48, 0
1, 354000, Note_on_c, 0, 64, 55
1, 354000, Note_on_c, 0, 72, 55
1, 354000, Note_on_c, 0, 36, 53
1, 354006, Control_c, 0, 64, 127
1, 354120, Note_on_c, 0, 48, 47
1, 354228, Note_on_c, 0, 36, 0
1, 354240, Note_on_c, 0, 48, 0
1, 354240, Note_on_c, 0, 36, 53
1, 354360, Note_on_c, 0, 48, 47
1, 354468, Note_on_c, 0, 36, 0
1, 354480, Note_on_c, 0, 64, 0
1, 354480, Note_on_c, 0, 72, 0
1, 354480, Note_on_c, 0, 48, 0
1, 354480, Note_on_c, 0, 70, 51
1, 354480, Note_on_c, 0, 76, 51
1, 354480, Note_on_c, 0, 36, 44
1, 354486, Control_c, 0, 64, 0
1, 354570, Note_on_c, 0, 76, 0
1, 354570, Note_on_c, 0, 70, 0
1, 354600, Note_on_c, 0, 48, 40
1, 354708, Note_on_c, 0, 36, 0
1, 354720, Note_on_c, 0, 48, 0
1, 354720, Note_on_c, 0, 68, 53
1, 354720, Note_on_c, 0, 77, 53
1, 354720, Note_on_c, 0, 36, 43
1, 354810, Note_on_c, 0, 77, 0
1, 354810, Note_on_c, 0, 68, 0
1, 354840, Note_on_c, 0, 48, 45
1, 354948, Note_on_c, 0, 36, 0
1, 354960, Tempo, 384615
1, 354960, Note_on_c, 0, 48, 0
1, 354960, Note_on_c, 0, 76, 55
1, 354960, Note_on_c, 0, 79, 55
1, 354960, Note_on_c, 0, 36, 46
1, 355050, Note_on_c, 0, 79, 0
1, 355050, Note_on_c, 0, 76, 0
1, 355080, Note_on_c, 0, 48, 47
1, 355188, Note_on_c, 0, 36, 0
1, 355200, Note_on_c, 0, 48, 0
1, 355200, Note_on_c, 0, 77, 57
1, 355200, Note_on_c, 0, 80, 57
1, 355200, Note_on_c, 0, 36, 48
1, 355290, Note_on_c, 0, 80, 0
1, 355290, Note_on_c, 0, 77, 0
1, 355320, Note_on_c, 0, 48, 50
1, 355428, Note_on_c, 0, 36, 0
1, 355440, Tempo, 390879
1, 355440, Note_on_c, 0, 48, 0
1, 355440, Note_on_c, 0, 74, 59
1, 355440, Note_on_c, 0, 83, 59
1, 355440, Note_on_c, 0, 36, 51
1, 355530, Note_on_c, 0, 83, 0
1, 355530, Note_on_c, 0, 74, 0
1, 355560, Note_on_c, 0, 48, 53
1, 355668, Note_on_c, 0, 36, 0
1, 355680, Tempo, 396720
1, 355680, Note_on_c, 0, 48, 0
1, 355680, Note_on_c, 0, 72, 51
1, 355680, Note_on_c, 0, 79, 61
1, 355680, Note_on_c, 0, 75, 51
1, 355680, Note_on_c, 0, 84, 61
1, 355680, Note_on_c, 0, 36, 55
1, 355733, Control_c, 0, 64, 127
1, 355800, Note_on_c, 0, 48, 50
1, 355908, Note_on_c, 0, 36, 0
1, 355920, Tempo, 392516
1, 355920, Note_on_c, 0, 48, 0
1, 355920, Note_on_c, 0, 36, 53
1, 356040, Note_on_c, 0, 48, 47
1, 356148, Note_on_c, 0, 36, 0
1, 356160, Note_on_c, 0, 79, 0
1, 356160, Note_on_c, 0, 84, 0
1, 356160, Note_on_c, 0, 72, 0
1, 356160, Note_on_c, 0, 48, 0
1, 356160, Note_on_c, 0, 75, 0
1, 356160, Note_on_c, 0, 68, 53
1, 356160, Note_on_c, 0, 75, 63
1, 356160, Note_on_c, 0, 80, 63
1, 356160, Note_on_c, 0, 36, 55
1, 356174, Control_c, 0, 64, 0
1, 356280, Note_on_c, 0, 48, 50
1, 356280, Control_c, 0, 64, 127
1, 356388, Note_on_c, 0, 36, 0
1, 356400, Tempo, 403986
1, 356400, Note_on_c, 0, 48, 0
1, 356400, Note_on_c, 0, 36, 55
1, 356520, Note_on_c, 0, 48, 51
1, 356628, Note_on_c, 0, 36, 0
1, 356640, Tempo, 395205
1, 356640, Note_on_c, 0, 68, 0
1, 356640, Note_on_c, 0, 80, 0
1, 356640, Note_on_c, 0, 75, 0
1, 356640, Note_on_c, 0, 48, 0
1, 356640, Note_on_c, 0, 68, 56
1, 356640, Note_on_c, 0, 73, 56
1, 356640, Note_on_c, 0, 77, 67
1, 356640, Note_on_c, 0, 37, 55
1, 356645, Control_c, 0, 64, 0
1, 356704, Control_c, 0, 64, 127
1, 356760, Note_on_c, 0, 49, 55
1, 356868, Note_on_c, 0, 37, 0
1, 356880, Note_on_c, 0, 49, 0
1, 356880, Note_on_c, 0, 37, 55
1, 357000, Note_on_c, 0, 49, 55
1, 357108, Note_on_c, 0, 37, 0
1, 357120, Note_on_c, 0, 68, 0
1, 357120, Note_on_c, 0, 77, 0
1, 357120, Note_on_c, 0, 73, 0
1, 357120, Note_on_c, 0, 49, 0
1, 357120, Note_on_c, 0, 66, 60
1, 357120, Note_on_c, 0, 72, 60
1, 357120, Note_on_c, 0, 75, 71
1, 357120, Note_on_c, 0, 39, 55
1, 357129, Control_c, 0, 64, 0
1, 357198, Control_c, 0, 64, 127
1, 357240, Note_on_c, 0, 51, 53
1, 357348, Note_on_c, 0, 39, 0
1, 357360, Tempo, 402037
1, 357360, Note_on_c, 0, 51, 0
1, 357360, Note_on_c, 0, 39, 55
1, 357480, Note_on_c, 0, 51, 55
1, 357588, Note_on_c, 0, 39, 0
1, 357600, Note_on_c, 0, 66, 0
1, 357600, Note_on_c, 0, 75, 0
1, 357600, Note_on_c, 0, 72, 0
1, 357600, Note_on_c, 0, 51, 0
1, 357600, Note_on_c, 0, 65, 62
1, 357600, Note_on_c, 0, 68, 74
1, 357600, Note_on_c, 0, 73, 74
1, 357600, Note_on_c, 0, 41, 56
1, 357608, Control_c, 0, 64, 0
1, 357692, Control_c, 0, 64, 127
1, 357720, Note_on_c, 0, 53, 56
1, 357828, Note_on_c, 0, 41, 0
1, 357840, Note_on_c, 0, 53, 0
1, 357840, Note_on_c, 0, 41, 57
1, 357960, Note_on_c, 0, 53, 57
1, 358068, Note_on_c, 0, 41, 0
1, 358080, Note_on_c, 0, 65, 0
1, 358080, Note_on_c, 0, 73, 0
1, 358080, Note_on_c, 0, 68, 0
1, 358080, Note_on_c, 0, 53, 0
1, 358080, Note_on_c, 0, 70, 74
1, 358080, Note_on_c, 0, 66, 74
1, 358080, Note_on_c, 0, 61, 74
1, 358080, Note_on_c, 0, 42, 58
1, 358090, Control_c, 0, 64, 0
1, 358149, Control_c, 0, 64, 127
1, 358200, Note_on_c, 0, 54, 59
1, 358308, Note_on_c, 0, 42, 0
1, 358320, Note_on_c, 0, 54, 0
1, 358320, Note_on_c, 0, 42, 59
1, 358440, Note_on_c, 0, 54, 60
1, 358548, Note_on_c, 0, 42, 0
1, 358560, Tempo, 397904
1, 358560, Note_on_c, 0, 70, 0
1, 358560, Note_on_c, 0, 61, 0
1, 358560, Note_on_c, 0, 66, 0
1, 358560, Note_on_c, 0, 54, 0
1, 358560, Note_on_c, 0, 61, 74
1, 358560, Note_on_c, 0, 65, 74
1, 358560, Note_on_c, 0, 68, 77
1, 358560, Note_on_c, 0, 44, 60
1, 358567, Control_c, 0, 64, 0
1, 358645, Control_c, 0, 64, 127
1, 358680, Note_on_c, 0, 56, 55
1, 358788, Note_on_c, 0, 44, 0
1, 358800, Note_on_c, 0, 56, 0
1, 358800, Note_on_c, 0, 44, 61
1, 358920, Note_on_c, 0, 56, 55
1, 359028, Note_on_c, 0, 44, 0
1, 359040, Note_on_c, 0, 61, 0
1, 359040, Note_on_c, 0, 65, 0
1, 359040, Note_on_c, 0, 56, 0
1, 359040, Note_on_c, 0, 60, 74
1, 359040, Note_on_c, 0, 63, 74
1, 359040, Note_on_c, 0, 44, 58
1, 359050, Control_c, 0, 64, 0
1, 359146, Control_c, 0, 64, 127
1, 359160, Note_on_c, 0, 56, 55
1, 359268, Note_on_c, 0, 44, 0
1, 359280, Tempo, 408163
1, 359280, Note_on_c, 0, 56, 0
1, 359280, Note_on_c, 0, 44, 58
1, 359400, Note_on_c, 0, 56, 55
1, 359508, Note_on_c, 0, 44, 0
1, 359520, Note_on_c, 0, 68, 0
1, 359520, Note_on_c, 0, 63, 0
1, 359520, Note_on_c, 0, 60, 0
1, 359520, Note_on_c, 0, 56, 0
1, 359520, Note_on_c, 0, 62, 51
1, 359520, Note_on_c, 0, 65, 51
1, 359520, Note_on_c, 0, 70, 61
1, 359520, Note_on_c, 0, 44, 52
1, 359530, Control_c, 0, 64, 0
1, 359619, Control_c, 0, 64, 127
1, 359640, Note_on_c, 0, 56, 45
1, 359748, Note_on_c, 0, 44, 0
1, 359760, Tempo, 392516
1, 359760, Note_on_c, 0, 56, 0
1, 359760, Note_on_c, 0, 44, 53
1, 359880, Note_on_c, 0, 56, 47
1, 359988, Note_on_c, 0, 44, 0
1, 360000, Note_on_c, 0, 62, 0
1, 360000, Note_on_c, 0, 70, 0
1, 360000, Note_on_c, 0, 65, 0
1, 360000, Note_on_c, 0, 56, 0
1, 360000, Note_on_c, 0, 70, 53
1, 360000, Note_on_c, 0, 77, 63
1, 360000, Note_on_c, 0, 82, 63
1, 360000, Note_on_c, 0, 38, 55
1, 360009, Control_c, 0, 64, 0
1, 360092, Control_c, 0, 64, 127
1, 360120, Note_on_c, 0, 50, 50
1, 360228, Note_on_c, 0, 38, 0
1, 360240, Tempo, 403986
1, 360240, Note_on_c, 0, 50, 0
1, 360240, Note_on_c, 0, 38, 55
1, 360360, Note_on_c, 0, 50, 51
1, 360468, Note_on_c, 0, 38, 0
1, 360480, Tempo, 395205
1, 360480, Note_on_c, 0, 70, 0
1, 360480, Note_on_c, 0, 82, 0
1, 360480, Note_on_c, 0, 77, 0
1, 360480, Note_on_c, 0, 50, 0
1, 360480, Note_on_c, 0, 70, 56
1, 360480, Note_on_c, 0, 75, 56
1, 360480, Note_on_c, 0, 78, 67
1, 360480, Note_on_c, 0, 39, 55
1, 360490, Control_c, 0, 64, 0
1, 360579, Control_c, 0, 64, 127
1, 360600, Note_on_c, 0, 51, 55
1, 360708, Note_on_c, 0, 39, 0
1, 360720, Note_on_c, 0, 51, 0
1, 360720, Note_on_c, 0, 39, 55
1, 360840, Note_on_c, 0, 51, 55
1, 360948, Note_on_c, 0, 39, 0
1, 360960, Note_on_c, 0, 70, 0
1, 360960, Note_on_c, 0, 78, 0
1, 360960, Note_on_c, 0, 75, 0
1, 360960, Note_on_c, 0, 51, 0
1, 360960, Note_on_c, 0, 68, 60
1, 360960, Note_on_c, 0, 74, 60
1, 360960, Note_on_c, 0, 77, 71
1, 360960, Note_on_c, 0, 41, 55
1, 360968, Control_c, 0, 64, 0
1, 361038, Control_c, 0, 64, 127
1, 361080, Note_on_c, 0, 53, 53
1, 361188, Note_on_c, 0, 41, 0
1, 361200, Tempo, 402037
1, 361200, Note_on_c, 0, 53, 0
1, 361200, Note_on_c, 0, 41, 55
1, 361320, Note_on_c, 0, 53, 55
1, 361428, Note_on_c, 0, 41, 0
1, 361440, Note_on_c, 0, 68, 0
1, 361440, Note_on_c, 0, 77, 0
1, 361440, Note_on_c, 0, 74, 0
1, 361440, Note_on_c, 0, 53, 0
1, 361440, Note_on_c, 0, 66, 62
1, 361440, Note_on_c, 0, 70, 74
1, 361440, Note_on_c, 0, 75, 74
1, 361440, Note_on_c, 0, 42, 56
1, 361449, Control_c, 0, 64, 0
1, 361511, Control_c, 0, 64, 127
1, 361560, Note_on_c, 0, 54, 56
1, 361668, Note_on_c, 0, 42, 0
1, 361680, Note_on_c, 0, 54, 0
1, 361680, Note_on_c, 0, 42, 57
1, 361800, Note_on_c, 0, 54, 57
1, 361908, Note_on_c, 0, 42, 0
1, 361920, Note_on_c, 0, 66, 0
1, 361920, Note_on_c, 0, 75, 0
1, 361920, Note_on_c, 0, 70, 0
1, 361920, Note_on_c, 0, 54, 0
1, 361920, Note_on_c, 0, 63, 74
1, 361920, Note_on_c, 0, 71, 74
1, 361920, Note_on_c, 0, 68, 74
1, 361920, Note_on_c, 0, 44, 58
1, 361930, Control_c, 0, 64, 0
1, 361994, Control_c, 0, 64, 127
1, 362040, Note_on_c, 0, 56, 59
1, 362148, Note_on_c, 0, 44, 0
1, 362160, Note_on_c, 0, 56, 0
1, 362160, Note_on_c, 0, 44, 59
1, 362280, Note_on_c, 0, 56, 60
1, 362388, Note_on_c, 0, 44, 0
1, 362400, Tempo, 397904
1, 362400, Note_on_c, 0, 63, 0
1, 362400, Note_on_c, 0, 68, 0
1, 362400, Note_on_c, 0, 71, 0
1, 362400, Note_on_c, 0, 56, 0
1, 362400, Note_on_c, 0, 63, 74
1, 362400, Note_on_c, 0, 66, 74
1, 362400, Note_on_c, 0, 70, 77
1, 362400, Note_on_c, 0, 46, 60
1, 362406, Control_c, 0, 64, 0
1, 362485, Control_c, 0, 64, 127
1, 362520, Note_on_c, 0, 58, 55
1, 362628, Note_on_c, 0, 46, 0
1, 362640, Note_on_c, 0, 58, 0
1, 362640, Note_on_c, 0, 46, 61
1, 362760, Note_on_c, 0, 58, 55
1, 362868, Note_on_c, 0, 46, 0
1, 362880, Note_on_c, 0, 63, 0
1, 362880, Note_on_c, 0, 66, 0
1, 362880, Note_on_c, 0, 58, 0
1, 362880, Note_on_c, 0, 62, 74
1, 362880, Note_on_c, 0, 65, 74
1, 362880, Note_on_c, 0, 46, 58
1, 362888, Control_c, 0, 64, 0
1, 362972, Control_c, 0, 64, 127
1, 363000, Note_on_c, 0, 58, 55
1, 363108, Note_on_c, 0, 46, 0
1, 363120, Tempo, 405405
1, 363120, Note_on_c, 0, 58, 0
1, 363120, Note_on_c, 0, 46, 58
1, 363240, Note_on_c, 0, 58, 55
1, 363348, Note_on_c, 0, 46, 0
1, 363360, Note_on_c, 0, 70, 0
1, 363360, Note_on_c, 0, 65, 0
1, 363360, Note_on_c, 0, 62, 0
1, 363360, Note_on_c, 0, 58, 0
1, 363360, Note_on_c, 0, 64, 51
1, 363360, Note_on_c, 0, 67, 51
1, 363360, Note_on_c, 0, 72, 61
1, 363360, Note_on_c, 0, 46, 53
1, 363366, Control_c, 0, 64, 0
1, 363416, Control_c, 0, 64, 127
1, 363480, Note_on_c, 0, 58, 46
1, 363588, Note_on_c, 0, 46, 0
1, 363600, Tempo, 392516
1, 363600, Note_on_c, 0, 58, 0
1, 363600, Note_on_c, 0, 46, 50
1, 363720, Note_on_c, 0, 58, 47
1, 363828, Note_on_c, 0, 46, 0
1, 363840, Note_on_c, 0, 64, 0
1, 363840, Note_on_c, 0, 72, 0
1, 363840, Note_on_c, 0, 67, 0
1, 363840, Note_on_c, 0, 58, 0
1, 363840, Note_on_c, 0, 72, 53
1, 363840, Note_on_c, 0, 79, 63
1, 363840, Note_on_c, 0, 84, 63
1, 363840, Note_on_c, 0, 40, 55
1, 363848, Control_c, 0, 64, 0
1, 363926, Control_c, 0, 64, 127
1, 363960, Note_on_c, 0, 52, 50
1, 364068, Note_on_c, 0, 40, 0
1, 364080, Tempo, 403986
1, 364080, Note_on_c, 0, 52, 0
1, 364080, Note_on_c, 0, 40, 55
1, 364200, Note_on_c, 0, 52, 51
1, 364308, Note_on_c, 0, 40, 0
1, 364320, Tempo, 395205
1, 364320, Note_on_c, 0, 72, 0
1, 364320, Note_on_c, 0, 84, 0
1, 364320, Note_on_c, 0, 79, 0
1, 364320, Note_on_c, 0, 52, 0
1, 364320, Note_on_c, 0, 72, 56
1, 364320, Note_on_c, 0, 77, 56
1, 364320, Note_on_c, 0, 80, 67
1, 364320, Note_on_c, 0, 41, 55
1, 364328, Control_c, 0, 64, 0
1, 364405, Control_c, 0, 64, 127
1, 364440, Note_on_c, 0, 53, 55
1, 364548, Note_on_c, 0, 41, 0
1, 364560, Note_on_c, 0, 53, 0
1, 364560, Note_on_c, 0, 41, 55
1, 364680, Note_on_c, 0, 53, 55
1, 364788, Note_on_c, 0, 41, 0
1, 364800, Note_on_c, 0, 72, 0
1, 364800, Note_on_c, 0, 80, 0
1, 364800, Note_on_c, 0, 77, 0
1, 364800, Note_on_c, 0, 53, 0
1, 364800, Note_on_c, 0, 70, 60
1, 364800, Note_on_c, 0, 76, 60
1, 364800, Note_on_c, 0, 79, 71
1, 364800, Note_on_c, 0, 43, 55
1, 364808, Control_c, 0, 64, 0
1, 364878, Control_c, 0, 64, 127
1, 364920, Note_on_c, 0, 55, 53
1, 365028, Note_on_c, 0, 43, 0
1, 365040, Tempo, 402037
1, 365040, Note_on_c, 0, 55, 0
1, 365040, Note_on_c, 0, 43, 55
1, 365160, Note_on_c, 0, 55, 55
1, 365268, Note_on_c, 0, 43, 0
1, 365280, Note_on_c, 0, 70, 0
1, 365280, Note_on_c, 0, 79, 0
1, 365280, Note_on_c, 0, 76, 0
1, 365280, Note_on_c, 0, 55, 0
1, 365280, Note_on_c, 0, 68, 62
1, 365280, Note_on_c, 0, 72, 74
1, 365280, Note_on_c, 0, 77, 74
1, 365280, Note_on_c, 0, 44, 56
1, 365289, Control_c, 0, 64, 0
1, 365351, Control_c, 0, 64, 127
1, 365400, Note_on_c, 0, 56, 56
1, 365508, Note_on_c, 0, 44, 0
1, 365520, Note_on_c, 0, 56, 0
1, 365520, Note_on_c, 0, 44, 57
1, 365640, Note_on_c, 0, 56, 57
1, 365748, Note_on_c, 0, 44, 0
1, 365760, Note_on_c, 0, 68, 0
1, 365760, Note_on_c, 0, 77, 0
1, 365760, Note_on_c, 0, 72, 0
1, 365760, Note_on_c, 0, 56, 0
1, 365760, Note_on_c, 0, 73, 74
1, 365760, Note_on_c, 0, 65, 74
1, 365760, Note_on_c, 0, 46, 58
1, 365770, Control_c, 0, 64, 0
1, 365845, Control_c, 0, 64, 127
1, 365880, Note_on_c, 0, 58, 59
1, 365988, Note_on_c, 0, 46, 0
1, 366000, Note_on_c, 0, 58, 0
1, 366000, Note_on_c, 0, 46, 59
1, 366120, Note_on_c, 0, 58, 60
1, 366228, Note_on_c, 0, 46, 0
1, 366240, Tempo, 397904
1, 366240, Note_on_c, 0, 73, 0
1, 366240, Note_on_c, 0, 65, 0
1, 366240, Note_on_c, 0, 58, 0
1, 366240, Note_on_c, 0, 65, 74
1, 366240, Note_on_c, 0, 72, 77
1, 366240, Note_on_c, 0, 48, 60
1, 366247, Control_c, 0, 64, 0
1, 366309, Control_c, 0, 64, 127
1, 366360, Note_on_c, 0, 60, 55
1, 366468, Note_on_c, 0, 48, 0
1, 366480, Note_on_c, 0, 60, 0
1, 366480, Note_on_c, 0, 48, 61
1, 366600, Note_on_c, 0, 60, 55
1, 366708, Note_on_c, 0, 48, 0
1, 366720, Note_on_c, 0, 65, 0
1, 366720, Note_on_c, 0, 72, 0
1, 366720, Note_on_c, 0, 60, 0
1, 366720, Note_on_c, 0, 65, 74
1, 366720, Note_on_c, 0, 71, 74
1, 366720, Note_on_c, 0, 49, 58
1, 366729, Control_c, 0, 64, 0
1, 366817, Control_c, 0, 64, 127
1, 366840, Note_on_c, 0, 61, 55
1, 366948, Note_on_c, 0, 49, 0
1, 366960, Note_on_c, 0, 61, 0
1, 366960, Note_on_c, 0, 49, 58
1, 367080, Note_on_c, 0, 61, 55
1, 367188, Note_on_c, 0, 49, 0
1, 367200, Note_on_c, 0, 65, 0
1, 367200, Note_on_c, 0, 71, 0
1, 367200, Note_on_c, 0, 61, 0
1, 367200, Note_on_c, 0, 64, 65
1, 367200, Note_on_c, 0, 72, 73
1, 367200, Note_on_c, 0, 48, 58
1, 367200, Note_on_c, 0, 60, 58
1, 367200, Control_c, 0, 64, 0
1, 367440, Tempo, 406780
1, 367440, Note_on_c, 0, 60, 0
1, 367440, Note_on_c, 0, 64, 0
1, 367440, Note_on_c, 0, 72, 0
1, 367440, Note_on_c, 0, 48, 0
1, 367440, Note_on_c, 0, 59, 50
1, 367680, Note_on_c, 0, 59, 0
1, 367680, Note_on_c, 0, 60, 59
1, 367920, Note_on_c, 0, 60, 0
1, 367920, Note_on_c, 0, 59, 56
1, 368160, Note_on_c, 0, 59, 0
1, 368160, Note_on_c, 0, 60, 57
1, 368400, Note_on_c, 0, 60, 0
1, 368400, Note_on_c, 0, 59, 49
1, 368640, Note_on_c, 0, 59, 0
1, 368640, Note_on_c, 0, 60, 57
1, 368880, Note_on_c, 0, 60, 0
1, 368880, Note_on_c, 0, 59, 51
1, 369120, Tempo, 409556
1, 369120, Note_on_c, 0, 59, 0
1, 369120, Note_on_c, 0, 60, 44
1, 369360, Tempo, 402685
1, 369360, Note_on_c, 0, 48, 55
1, 369360, Note_on_c, 0, 65, 38
1, 369360, Note_on_c, 0, 68, 38
1, 369480, Note_on_c, 0, 48, 0
1, 369588, Note_on_c, 0, 68, 0
1, 369588, Note_on_c, 0, 65, 0
1, 369600, Tempo, 390879
1, 369600, Note_on_c, 0, 53, 58
1, 369600, Note_on_c, 0, 65, 38
1, 369600, Note_on_c, 0, 68, 38
1, 369720, Note_on_c, 0, 53, 0
1, 369828, Note_on_c, 0, 68, 0
1, 369828, Note_on_c, 0, 65, 0
1, 369840, Note_on_c, 0, 55, 61
1, 369840, Note_on_c, 0, 65, 38
1, 369840, Note_on_c, 0, 68, 38
1, 369960, Note_on_c, 0, 55, 0
1, 370068, Note_on_c, 0, 68, 0
1, 370068, Note_on_c, 0, 65, 0
1, 370080, Tempo, 408163
1, 370080, Note_on_c, 0, 60, 0
1, 370080, Note_on_c, 0, 56, 64
1, 370080, Note_on_c, 0, 60, 44
1, 370200, Note_on_c, 0, 56, 0
1, 370320, Note_on_c, 0, 72, 62
1, 370320, Note_on_c, 0, 65, 38
1, 370320, Note_on_c, 0, 68, 38
1, 370440, Note_on_c, 0, 72, 0
1, 370548, Note_on_c, 0, 68, 0
1, 370548, Note_on_c, 0, 65, 0
1, 370560, Tempo, 398671
1, 370560, Note_on_c, 0, 77, 64
1, 370560, Note_on_c, 0, 65, 38
1, 370560, Note_on_c, 0, 68, 38
1, 370680, Note_on_c, 0, 77, 0
1, 370788, Note_on_c, 0, 68, 0
1, 370788, Note_on_c, 0, 65, 0
1, 370800, Note_on_c, 0, 79, 66
1, 370800, Note_on_c, 0, 65, 38
1, 370800, Note_on_c, 0, 68, 38
1, 370920, Note_on_c, 0, 79, 0
1, 370980, Note_on_c, 0, 72, 65
1, 371028, Note_on_c, 0, 68, 0
1, 371028, Note_on_c, 0, 65, 0
1, 371040, Tempo, 405405
1, 371040, Note_on_c, 0, 60, 0
1, 371040, Note_on_c, 0, 72, 0
1, 371040, Note_on_c, 0, 80, 75
1, 371040, Note_on_c, 0, 60, 44
1, 371280, Tempo, 400000
1, 371280, Note_on_c, 0, 65, 38
1, 371280, Note_on_c, 0, 68, 38
1, 371508, Note_on_c, 0, 68, 0
1, 371508, Note_on_c, 0, 65, 0
1, 371520, Note_on_c, 0, 65, 38
1, 371520, Note_on_c, 0, 68, 38
1, 371748, Note_on_c, 0, 68, 0
1, 371748, Note_on_c, 0, 65, 0
1, 371760, Tempo, 406780
1, 371760, Note_on_c, 0, 80, 0
1, 371760, Note_on_c, 0, 77, 63
1, 371760, Note_on_c, 0, 65, 38
1, 371760, Note_on_c, 0, 68, 38
1, 371940, Note_on_c, 0, 72, 60
1, 371988, Note_on_c, 0, 68, 0
1, 371988, Note_on_c, 0, 65, 0
1, 372000, Note_on_c, 0, 60, 0
1, 372000, Note_on_c, 0, 77, 0
1, 372000, Note_on_c, 0, 72, 0
1, 372000, Note_on_c, 0, 80, 71
1, 372000, Note_on_c, 0, 60, 44
1, 372240, Tempo, 400000
1, 372240, Note_on_c, 0, 65, 38
1, 372240, Note_on_c, 0, 68, 38
1, 372468, Note_on_c, 0, 68, 0
1, 372468, Note_on_c, 0, 65, 0
1, 372480, Note_on_c, 0, 65, 38
1, 372480, Note_on_c, 0, 68, 38
1, 372708, Note_on_c, 0, 68, 0
1, 372708, Note_on_c, 0, 65, 0
1, 372720, Tempo, 404040
1, 372720, Note_on_c, 0, 80, 0
1, 372720, Note_on_c, 0, 77, 58
1, 372720, Note_on_c, 0, 65, 38
1, 372720, Note_on_c, 0, 68, 38
1, 372948, Note_on_c, 0, 68, 0
1, 372948, Note_on_c, 0, 65, 0
1, 372960, Tempo, 415225
1, 372960, Note_on_c, 0, 77, 0
1, 372960, Note_on_c, 0, 60, 0
1, 372960, Note_on_c, 0, 76, 60
1, 372960, Note_on_c, 0, 60, 44
1, 373200, Tempo, 400000
1, 373200, Note_on_c, 0, 76, 0
1, 373200, Note_on_c, 0, 48, 57
1, 373200, Note_on_c, 0, 67, 38
1, 373200, Note_on_c, 0, 70, 38
1, 373320, Note_on_c, 0, 48, 0
1, 373428, Note_on_c, 0, 70, 0
1, 373428, Note_on_c, 0, 67, 0
1, 373440, Tempo, 390879
1, 373440, Note_on_c, 0, 55, 60
1, 373440, Note_on_c, 0, 67, 38
1, 373440, Note_on_c, 0, 70, 38
1, 373560, Note_on_c, 0, 55, 0
1, 373668, Note_on_c, 0, 70, 0
1, 373668, Note_on_c, 0, 67, 0
1, 373680, Note_on_c, 0, 56, 63
1, 373680, Note_on_c, 0, 67, 38
1, 373680, Note_on_c, 0, 70, 38
1, 373800, Note_on_c, 0, 56, 0
1, 373908, Note_on_c, 0, 70, 0
1, 373908, Note_on_c, 0, 67, 0
1, 373920, Tempo, 408163
1, 373920, Note_on_c, 0, 60, 0
1, 373920, Note_on_c, 0, 58, 66
1, 373920, Note_on_c, 0, 60, 44
1, 374040, Note_on_c, 0, 58, 0
1, 374160, Note_on_c, 0, 72, 59
1, 374160, Note_on_c, 0, 67, 38
1, 374160, Note_on_c, 0, 70, 38
1, 374388, Note_on_c, 0, 70, 0
1, 374388, Note_on_c, 0, 67, 0
1, 374400, Tempo, 400000
1, 374400, Note_on_c, 0, 72, 0
1, 374400, Note_on_c, 0, 82, 62
1, 374400, Note_on_c, 0, 67, 38
1, 374400, Note_on_c, 0, 70, 38
1, 374628, Note_on_c, 0, 70, 0
1, 374628, Note_on_c, 0, 67, 0
1, 374640, Note_on_c, 0, 82, 0
1, 374640, Note_on_c, 0, 80, 65
1, 374640, Note_on_c, 0, 67, 38
1, 374640, Note_on_c, 0, 70, 38
1, 374868, Note_on_c, 0, 70, 0
1, 374868, Note_on_c, 0, 67, 0
1, 374880, Tempo, 406780
1, 374880, Note_on_c, 0, 80, 0
1, 374880, Note_on_c, 0, 60, 0
1, 374880, Note_on_c, 0, 80, 60
1, 374880, Note_on_c, 0, 60, 44
1, 374940, Note_on_c, 0, 80, 0
1, 374940, Note_on_c, 0, 82, 60
1, 375000, Note_on_c, 0, 82, 0
1, 375000, Note_on_c, 0, 80, 67
1, 375120, Note_on_c, 0, 80, 0
1, 375120, Note_on_c, 0, 79, 60
1, 375120, Note_on_c, 0, 67, 38
1, 375120, Note_on_c, 0, 70, 38
1, 375348, Note_on_c, 0, 70, 0
1, 375348, Note_on_c, 0, 67, 0
1, 375360, Note_on_c, 0, 79, 0
1, 375360, Note_on_c, 0, 79, 60
1, 375360, Note_on_c, 0, 67, 38
1, 375360, Note_on_c, 0, 70, 38
1, 375420, Note_on_c, 0, 79, 0
1, 375420, Note_on_c, 0, 80, 60
1, 375480, Note_on_c, 0, 80, 0
1, 375480, Note_on_c, 0, 79, 67
1, 375588, Note_on_c, 0, 70, 0
1, 375588, Note_on_c, 0, 67, 0
1, 375600, Note_on_c, 0, 79, 0
1, 375600, Note_on_c, 0, 77, 60
1, 375600, Note_on_c, 0, 67, 38
1, 375600, Note_on_c, 0, 70, 38
1, 375828, Note_on_c, 0, 70, 0
1, 375828, Note_on_c, 0, 67, 0
1, 375840, Note_on_c, 0, 77, 0
1, 375840, Note_on_c, 0, 60, 0
1, 375840, Note_on_c, 0, 77, 60
1, 375840, Note_on_c, 0, 60, 44
1, 375900, Note_on_c, 0, 77, 0
1, 375900, Note_on_c, 0, 79, 60
1, 375960, Note_on_c, 0, 79, 0
1, 375960, Note_on_c, 0, 77, 66
1, 376080, Note_on_c, 0, 77, 0
1, 376080, Note_on_c, 0, 76, 60
1, 376080, Note_on_c, 0, 67, 38
1, 376080, Note_on_c, 0, 70, 38
1, 376308, Note_on_c, 0, 70, 0
1, 376308, Note_on_c, 0, 67, 0
1, 376320, Note_on_c, 0, 76, 0
1, 376320, Note_on_c, 0, 74, 60
1, 376320, Note_on_c, 0, 67, 38
1, 376320, Note_on_c, 0, 70, 38
1, 376440, Note_on_c, 0, 74, 0
1, 376548, Note_on_c, 0, 70, 0
1, 376548, Note_on_c, 0, 67, 0
1, 376560, Note_on_c, 0, 76, 60
1, 376560, Note_on_c, 0, 67, 38
1, 376560, Note_on_c, 0, 70, 38
1, 376680, Note_on_c, 0, 76, 0
1, 376788, Note_on_c, 0, 70, 0
1, 376788, Note_on_c, 0, 67, 0
1, 376800, Tempo, 416667
1, 376800, Note_on_c, 0, 60, 0
1, 376800, Note_on_c, 0, 77, 60
1, 376800, Note_on_c, 0, 60, 44
1, 377040, Tempo, 400000
1, 377040, Note_on_c, 0, 77, 0
1, 377040, Note_on_c, 0, 48, 55
1, 377040, Note_on_c, 0, 65, 38
1, 377040, Note_on_c, 0, 68, 38
1, 377160, Note_on_c, 0, 48, 0
1, 377268, Note_on_c, 0, 68, 0
1, 377268, Note_on_c, 0, 65, 0
1, 377280, Tempo, 390879
1, 377280, Note_on_c, 0, 53, 58
1, 377280, Note_on_c, 0, 65, 38
1, 377280, Note_on_c, 0, 68, 38
1, 377400, Note_on_c, 0, 53, 0
1, 377508, Note_on_c, 0, 68, 0
1, 377508, Note_on_c, 0, 65, 0
1, 377520, Note_on_c, 0, 55, 61
1, 377520, Note_on_c, 0, 65, 38
1, 377520, Note_on_c, 0, 68, 38
1, 377640, Note_on_c, 0, 55, 0
1, 377748, Note_on_c, 0, 68, 0
1, 377748, Note_on_c, 0, 65, 0
1, 377760, Tempo, 408163
1, 377760, Note_on_c, 0, 60, 0
1, 377760, Note_on_c, 0, 56, 64
1, 377760, Note_on_c, 0, 60, 44
1, 377880, Note_on_c, 0, 56, 0
1, 378000, Note_on_c, 0, 72, 62
1, 378000, Note_on_c, 0, 65, 38
1, 378000, Note_on_c, 0, 68, 38
1, 378120, Note_on_c, 0, 72, 0
1, 378228, Note_on_c, 0, 68, 0
1, 378228, Note_on_c, 0, 65, 0
1, 378240, Tempo, 398671
1, 378240, Note_on_c, 0, 77, 64
1, 378240, Note_on_c, 0, 65, 38
1, 378240, Note_on_c, 0, 68, 38
1, 378360, Note_on_c, 0, 77, 0
1, 378468, Note_on_c, 0, 68, 0
1, 378468, Note_on_c, 0, 65, 0
1, 378480, Note_on_c, 0, 80, 66
1, 378480, Note_on_c, 0, 65, 38
1, 378480, Note_on_c, 0, 68, 38
1, 378600, Note_on_c, 0, 80, 0
1, 378660, Note_on_c, 0, 72, 65
1, 378708, Note_on_c, 0, 68, 0
1, 378708, Note_on_c, 0, 65, 0
1, 378720, Tempo, 405405
1, 378720, Note_on_c, 0, 60, 0
1, 378720, Note_on_c, 0, 72, 0
1, 378720, Note_on_c, 0, 84, 75
1, 378720, Note_on_c, 0, 56, 44
1, 378960, Tempo, 400000
1, 378960, Note_on_c, 0, 60, 38
1, 378960, Note_on_c, 0, 65, 38
1, 379188, Note_on_c, 0, 65, 0
1, 379188, Note_on_c, 0, 60, 0
1, 379200, Note_on_c, 0, 60, 38
1, 379200, Note_on_c, 0, 65, 38
1, 379428, Note_on_c, 0, 65, 0
1, 379428, Note_on_c, 0, 60, 0
1, 379440, Tempo, 406780
1, 379440, Note_on_c, 0, 84, 0
1, 379440, Note_on_c, 0, 77, 63
1, 379440, Note_on_c, 0, 60, 38
1, 379440, Note_on_c, 0, 65, 38
1, 379600, Note_on_c, 0, 77, 0
1, 379620, Note_on_c, 0, 77, 60
1, 379668, Note_on_c, 0, 65, 0
1, 379668, Note_on_c, 0, 60, 0
1, 379680, Note_on_c, 0, 56, 0
1, 379680, Note_on_c, 0, 77, 0
1, 379680, Note_on_c, 0, 89, 71
1, 379680, Note_on_c, 0, 56, 44
1, 379920, Tempo, 400000
1, 379920, Note_on_c, 0, 60, 38
1, 379920, Note_on_c, 0, 65, 38
1, 380148, Note_on_c, 0, 65, 0
1, 380148, Note_on_c, 0, 60, 0
1, 380160, Note_on_c, 0, 60, 38
1, 380160, Note_on_c, 0, 65, 38
1, 380388, Note_on_c, 0, 65, 0
1, 380388, Note_on_c, 0, 60, 0
1, 380400, Tempo, 404040
1, 380400, Note_on_c, 0, 89, 0
1, 380400, Note_on_c, 0, 84, 58
1, 380400, Note_on_c, 0, 60, 38
1, 380400, Note_on_c, 0, 65, 38
1, 380628, Note_on_c, 0, 65, 0
1, 380628, Note_on_c, 0, 60, 0
1, 380640, Tempo, 416667
1, 380640, Note_on_c, 0, 84, 0
1, 380640, Note_on_c, 0, 56, 0
1, 380640, Note_on_c, 0, 83, 60
1, 380640, Note_on_c, 0, 55, 44
1, 380880, Tempo, 396040
1, 380880, Note_on_c, 0, 83, 0
1, 380880, Note_on_c, 0, 43, 57
1, 380880, Note_on_c, 0, 62, 38
1, 380880, Note_on_c, 0, 65, 38
1, 381000, Note_on_c, 0, 43, 0
1, 381108, Note_on_c, 0, 65, 0
1, 381108, Note_on_c, 0, 62, 0
1, 381120, Tempo, 388350
1, 381120, Note_on_c, 0, 50, 60
1, 381120, Note_on_c, 0, 62, 38
1, 381120, Note_on_c, 0, 65, 38
1, 381240, Note_on_c, 0, 50, 0
1, 381348, Note_on_c, 0, 65, 0
1, 381348, Note_on_c, 0, 62, 0
1, 381360, Note_on_c, 0, 51, 63
1, 381360, Note_on_c, 0, 62, 38
1, 381360, Note_on_c, 0, 65, 38
1, 381480, Note_on_c, 0, 51, 0
1, 381588, Note_on_c, 0, 65, 0
1, 381588, Note_on_c, 0, 62, 0
1, 381600, Tempo, 408163
1, 381600, Note_on_c, 0, 55, 0
1, 381600, Note_on_c, 0, 53, 66
1, 381600, Note_on_c, 0, 55, 44
1, 381720, Note_on_c, 0, 53, 0
1, 381840, Note_on_c, 0, 67, 59
1, 381840, Note_on_c, 0, 62, 38
1, 381840, Note_on_c, 0, 65, 38
1, 382068, Note_on_c, 0, 65, 0
1, 382068, Note_on_c, 0, 62, 0
1, 382080, Tempo, 400000
1, 382080, Note_on_c, 0, 67, 0
1, 382080, Note_on_c, 0, 77, 62
1, 382080, Note_on_c, 0, 62, 38
1, 382080, Note_on_c, 0, 65, 38
1, 382308, Note_on_c, 0, 65, 0
1, 382308, Note_on_c, 0, 62, 0
1, 382320, Note_on_c, 0, 77, 0
1, 382320, Note_on_c, 0, 75, 65
1, 382320, Note_on_c, 0, 62, 38
1, 382320, Note_on_c, 0, 65, 38
1, 382548, Note_on_c, 0, 65, 0
1, 382548, Note_on_c, 0, 62, 0
1, 382560, Tempo, 406780
1, 382560, Note_on_c, 0, 75, 0
1, 382560, Note_on_c, 0, 55, 0
1, 382560, Note_on_c, 0, 75, 60
1, 382560, Note_on_c, 0, 55, 44
1, 382620, Note_on_c, 0, 75, 0
1, 382620, Note_on_c, 0, 77, 60
1, 382680, Note_on_c, 0, 77, 0
1, 382680, Note_on_c, 0, 75, 67
1, 382800, Note_on_c, 0, 75, 0
1, 382800, Note_on_c, 0, 74, 60
1, 382800, Note_on_c, 0, 62, 38
1, 382800, Note_on_c, 0, 65, 38
1, 383028, Note_on_c, 0, 65, 0
1, 383028, Note_on_c, 0, 62, 0
1, 383040, Note_on_c, 0, 74, 0
1, 383040, Note_on_c, 0, 74, 60
1, 383040, Note_on_c, 0, 62, 38
1, 383040, Note_on_c, 0, 65, 38
1, 383100, Note_on_c, 0, 74, 0
1, 383100, Note_on_c, 0, 75, 60
1, 383160, Note_on_c, 0, 75, 0
1, 383160, Note_on_c, 0, 74, 67
1, 383268, Note_on_c, 0, 65, 0
1, 383268, Note_on_c, 0, 62, 0
1, 383280, Note_on_c, 0, 74, 0
1, 383280, Note_on_c, 0, 72, 60
1, 383280, Note_on_c, 0, 62, 38
1, 383280, Note_on_c, 0, 65, 38
1, 383508, Note_on_c, 0, 65, 0
1, 383508, Note_on_c, 0, 62, 0
1, 383520, Note_on_c, 0, 72, 0
1, 383520, Note_on_c, 0, 55, 0
1, 383520, Note_on_c, 0, 72, 60
1, 383520, Note_on_c, 0, 55, 44
1, 383580, Note_on_c, 0, 72, 0
1, 383580, Note_on_c, 0, 74, 60
1, 383640, Note_on_c, 0, 74, 0
1, 383640, Note_on_c, 0, 72, 66
1, 383760, Note_on_c, 0, 72, 0
1, 383760, Note_on_c, 0, 71, 60
1, 383760, Note_on_c, 0, 62, 38
1, 383760, Note_on_c, 0, 65, 38
1, 383988, Note_on_c, 0, 65, 0
1, 383988, Note_on_c, 0, 62, 0
1, 384000, Note_on_c, 0, 71, 0
1, 384000, Note_on_c, 0, 69, 60
1, 384000, Note_on_c, 0, 62, 38
1, 384000, Note_on_c, 0, 65, 38
1, 384120, Note_on_c, 0, 69, 0
1, 384228, Note_on_c, 0, 65, 0
1, 384228, Note_on_c, 0, 62, 0
1, 384240, Note_on_c, 0, 71, 60
1, 384240, Note_on_c, 0, 62, 38
1, 384240, Note_on_c, 0, 65, 38
1, 384360, Note_on_c, 0, 71, 0
1, 384468, Note_on_c, 0, 65, 0
1, 384468, Note_on_c, 0, 62, 0
1, 384480, Tempo, 409556
1, 384480, Note_on_c, 0, 55, 0
1, 384480, Note_on_c, 0, 72, 60
1, 384480, Note_on_c, 0, 55, 44
1, 384720, Tempo, 401338
1, 384720, Note_on_c, 0, 72, 0
1, 384720, Note_on_c, 0, 43, 55
1, 384720, Note_on_c, 0, 60, 38
1, 384720, Note_on_c, 0, 63, 38
1, 384840, Note_on_c, 0, 43, 0
1, 384948, Note_on_c, 0, 63, 0
1, 384948, Note_on_c, 0, 60, 0
1, 384960, Tempo, 393443
1, 384960, Note_on_c, 0, 48, 58
1, 384960, Note_on_c, 0, 60, 38
1, 384960, Note_on_c, 0, 63, 38
1, 385080, Note_on_c, 0, 48, 0
1, 385188, Note_on_c, 0, 63, 0
1, 385188, Note_on_c, 0, 60, 0
1, 385200, Note_on_c, 0, 50, 61
1, 385200, Note_on_c, 0, 60, 38
1, 385200, Note_on_c, 0, 63, 38
1, 385320, Note_on_c, 0, 50, 0
1, 385428, Note_on_c, 0, 63, 0
1, 385428, Note_on_c, 0, 60, 0
1, 385440, Tempo, 408163
1, 385440, Note_on_c, 0, 55, 0
1, 385440, Note_on_c, 0, 51, 64
1, 385440, Note_on_c, 0, 55, 44
1, 385560, Note_on_c, 0, 51, 0
1, 385680, Note_on_c, 0, 79, 62
1, 385680, Note_on_c, 0, 60, 38
1, 385680, Note_on_c, 0, 63, 38
1, 385800, Note_on_c, 0, 79, 0
1, 385908, Note_on_c, 0, 63, 0
1, 385908, Note_on_c, 0, 60, 0
1, 385920, Tempo, 398671
1, 385920, Note_on_c, 0, 84, 64
1, 385920, Note_on_c, 0, 60, 38
1, 385920, Note_on_c, 0, 63, 38
1, 386040, Note_on_c, 0, 84, 0
1, 386148, Note_on_c, 0, 63, 0
1, 386148, Note_on_c, 0, 60, 0
1, 386160, Note_on_c, 0, 86, 66
1, 386160, Note_on_c, 0, 60, 38
1, 386160, Note_on_c, 0, 63, 38
1, 386280, Note_on_c, 0, 86, 0
1, 386340, Note_on_c, 0, 79, 65
1, 386388, Note_on_c, 0, 63, 0
1, 386388, Note_on_c, 0, 60, 0
1, 386400, Tempo, 405405
1, 386400, Note_on_c, 0, 55, 0
1, 386400, Note_on_c, 0, 79, 0
1, 386400, Note_on_c, 0, 87, 75
1, 386400, Note_on_c, 0, 55, 44
1, 386640, Tempo, 400000
1, 386640, Note_on_c, 0, 60, 38
1, 386640, Note_on_c, 0, 63, 38
1, 386868, Note_on_c, 0, 63, 0
1, 386868, Note_on_c, 0, 60, 0
1, 386880, Note_on_c, 0, 60, 38
1, 386880, Note_on_c, 0, 63, 38
1, 387108, Note_on_c, 0, 63, 0
1, 387108, Note_on_c, 0, 60, 0
1, 387120, Tempo, 406780
1, 387120, Note_on_c, 0, 87, 0
1, 387120, Note_on_c, 0, 84, 63
1, 387120, Note_on_c, 0, 60, 38
1, 387120, Note_on_c, 0, 63, 38
1, 387300, Note_on_c, 0, 79, 60
1, 387348, Note_on_c, 0, 63, 0
1, 387348, Note_on_c, 0, 60, 0
1, 387360, Note_on_c, 0, 55, 0
1, 387360, Note_on_c, 0, 84, 0
1, 387360, Note_on_c, 0, 79, 0
1, 387360, Note_on_c, 0, 87, 71
1, 387360, Note_on_c, 0, 55, 44
1, 387600, Tempo, 400000
1, 387600, Note_on_c, 0, 60, 38
1, 387600, Note_on_c, 0, 63, 38
1, 387828, Note_on_c, 0, 63, 0
1, 387828, Note_on_c, 0, 60, 0
1, 387840, Note_on_c, 0, 60, 38
1, 387840, Note_on_c, 0, 63, 38
1, 388068, Note_on_c, 0, 63, 0
1, 388068, Note_on_c, 0, 60, 0
1, 388080, Tempo, 404040
1, 388080, Note_on_c, 0, 87, 0
1, 388080, Note_on_c, 0, 84, 58
1, 388080, Note_on_c, 0, 60, 38
1, 388080, Note_on_c, 0, 63, 38
1, 388308, Note_on_c, 0, 63, 0
1, 388308, Note_on_c, 0, 60, 0
1, 388320, Tempo, 413793
1, 388320, Note_on_c, 0, 84, 0
1, 388320, Note_on_c, 0, 55, 0
1, 388320, Note_on_c, 0, 83, 60
1, 388320, Note_on_c, 0, 55, 44
1, 388560, Tempo, 396040
1, 388560, Note_on_c, 0, 83, 0
1, 388560, Note_on_c, 0, 43, 57
1, 388560, Note_on_c, 0, 62, 38
1, 388560, Note_on_c, 0, 65, 38
1, 388680, Note_on_c, 0, 43, 0
1, 388788, Note_on_c, 0, 65, 0
1, 388788, Note_on_c, 0, 62, 0
1, 388800, Tempo, 388350
1, 388800, Note_on_c, 0, 50, 60
1, 388800, Note_on_c, 0, 62, 38
1, 388800, Note_on_c, 0, 65, 38
1, 388920, Note_on_c, 0, 50, 0
1, 389028, Note_on_c, 0, 65, 0
1, 389028, Note_on_c, 0, 62, 0
1, 389040, Note_on_c, 0, 51, 63
1, 389040, Note_on_c, 0, 62, 38
1, 389040, Note_on_c, 0, 65, 38
1, 389160, Note_on_c, 0, 51, 0
1, 389268, Note_on_c, 0, 65, 0
1, 389268, Note_on_c, 0, 62, 0
1, 389280, Tempo, 408163
1, 389280, Note_on_c, 0, 55, 0
1, 389280, Note_on_c, 0, 53, 66
1, 389280, Note_on_c, 0, 55, 44
1, 389400, Note_on_c, 0, 53, 0
1, 389520, Note_on_c, 0, 79, 59
1, 389520, Note_on_c, 0, 62, 38
1, 389520, Note_on_c, 0, 65, 38
1, 389748, Note_on_c, 0, 65, 0
1, 389748, Note_on_c, 0, 62, 0
1, 389760, Tempo, 400000
1, 389760, Note_on_c, 0, 79, 0
1, 389760, Note_on_c, 0, 89, 62
1, 389760, Note_on_c, 0, 62, 38
1, 389760, Note_on_c, 0, 65, 38
1, 389988, Note_on_c, 0, 65, 0
1, 389988, Note_on_c, 0, 62, 0
1, 390000, Note_on_c, 0, 89, 0
1, 390000, Note_on_c, 0, 87, 65
1, 390000, Note_on_c, 0, 62, 38
1, 390000, Note_on_c, 0, 65, 38
1, 390228, Note_on_c, 0, 65, 0
1, 390228, Note_on_c, 0, 62, 0
1, 390240, Tempo, 406780
1, 390240, Note_on_c, 0, 87, 0
1, 390240, Note_on_c, 0, 55, 0
1, 390240, Note_on_c, 0, 87, 60
1, 390240, Note_on_c, 0, 55, 44
1, 390300, Note_on_c, 0, 87, 0
1, 390300, Note_on_c, 0, 89, 60
1, 390360, Note_on_c, 0, 89, 0
1, 390360, Note_on_c, 0, 87, 67
1, 390480, Note_on_c, 0, 87, 0
1, 390480, Note_on_c, 0, 86, 60
1, 390480, Note_on_c, 0, 62, 38
1, 390480, Note_on_c, 0, 65, 38
1, 390708, Note_on_c, 0, 65, 0
1, 390708, Note_on_c, 0, 62, 0
1, 390720, Note_on_c, 0, 86, 0
1, 390720, Note_on_c, 0, 86, 60
1, 390720, Note_on_c, 0, 62, 38
1, 390720, Note_on_c, 0, 65, 38
1, 390780, Note_on_c, 0, 86, 0
1, 390780, Note_on_c, 0, 87, 60
1, 390840, Note_on_c, 0, 87, 0
1, 390840, Note_on_c, 0, 86, 67
1, 390948, Note_on_c, 0, 65, 0
1, 390948, Note_on_c, 0, 62, 0
1, 390960, Note_on_c, 0, 86, 0
1, 390960, Note_on_c, 0, 84, 60
1, 390960, Note_on_c, 0, 62, 38
1, 390960, Note_on_c, 0, 65, 38
1, 391188, Note_on_c, 0, 65, 0
1, 391188, Note_on_c, 0, 62, 0
1, 391200, Note_on_c, 0, 84, 0
1, 391200, Note_on_c, 0, 55, 0
1, 391200, Note_on_c, 0, 84, 60
1, 391200, Note_on_c, 0, 55, 44
1, 391260, Note_on_c, 0, 84, 0
1, 391260, Note_on_c, 0, 86, 60
1, 391320, Note_on_c, 0, 86, 0
1, 391320, Note_on_c, 0, 84, 66
1, 391440, Note_on_c, 0, 84, 0
1, 391440, Note_on_c, 0, 83, 60
1, 391440, Note_on_c, 0, 62, 38
1, 391440, Note_on_c, 0, 65, 38
1, 391668, Note_on_c, 0, 65, 0
1, 391668, Note_on_c, 0, 62, 0
1, 391680, Note_on_c, 0, 83, 0
1, 391680, Note_on_c, 0, 81, 60
1, 391680, Note_on_c, 0, 62, 38
1, 391680, Note_on_c, 0, 65, 38
1, 391800, Note_on_c, 0, 81, 0
1, 391908, Note_on_c, 0, 65, 0
1, 391908, Note_on_c, 0, 62, 0
1, 391920, Note_on_c, 0, 83, 60
1, 391920, Note_on_c, 0, 62, 38
1, 391920, Note_on_c, 0, 65, 38
1, 392040, Tempo, 422535
1, 392040, Note_on_c, 0, 83, 0
1, 392148, Note_on_c, 0, 65, 0
1, 392148, Note_on_c, 0, 62, 0
1, 392160, Tempo, 406780
1, 392160, Note_on_c, 0, 55, 0
1, 392160, Note_on_c, 0, 86, 60
1, 392160, Note_on_c, 0, 60, 44
1, 392220, Note_on_c, 0, 86, 0
1, 392220, Note_on_c, 0, 87, 60
1, 392280, Note_on_c, 0, 87, 0
1, 392280, Note_on_c, 0, 86, 67
1, 392400, Note_on_c, 0, 86, 0
1, 392400, Note_on_c, 0, 84, 59
1, 392400, Note_on_c, 0, 63, 37
1, 392400, Note_on_c, 0, 67, 37
1, 392628, Note_on_c, 0, 67, 0
1, 392628, Note_on_c, 0, 63, 0
1, 392640, Note_on_c, 0, 84, 0
1, 392640, Note_on_c, 0, 84, 58
1, 392640, Note_on_c, 0, 63, 37
1, 392640, Note_on_c, 0, 67, 37
1, 392700, Note_on_c, 0, 84, 0
1, 392700, Note_on_c, 0, 86, 58
1, 392760, Note_on_c, 0, 86, 0
1, 392760, Note_on_c, 0, 84, 65
1, 392868, Note_on_c, 0, 67, 0
1, 392868, Note_on_c, 0, 63, 0
1, 392880, Note_on_c, 0, 84, 0
1, 392880, Note_on_c, 0, 82, 58
1, 392880, Note_on_c, 0, 63, 36
1, 392880, Note_on_c, 0, 67, 36
1, 393108, Note_on_c, 0, 67, 0
1, 393108, Note_on_c, 0, 63, 0
1, 393120, Note_on_c, 0, 82, 0
1, 393120, Note_on_c, 0, 60, 0
1, 393120, Note_on_c, 0, 82, 57
1, 393120, Note_on_c, 0, 53, 42
1, 393180, Note_on_c, 0, 82, 0
1, 393180, Note_on_c, 0, 84, 57
1, 393240, Note_on_c, 0, 84, 0
1, 393240, Note_on_c, 0, 82, 63
1, 393360, Note_on_c, 0, 82, 0
1, 393360, Note_on_c, 0, 81, 57
1, 393360, Note_on_c, 0, 63, 36
1, 393360, Note_on_c, 0, 65, 36
1, 393588, Note_on_c, 0, 65, 0
1, 393588, Note_on_c, 0, 63, 0
1, 393600, Note_on_c, 0, 81, 0
1, 393600, Note_on_c, 0, 79, 56
1, 393600, Note_on_c, 0, 63, 35
1, 393600, Note_on_c, 0, 65, 35
1, 393720, Note_on_c, 0, 79, 0
1, 393828, Note_on_c, 0, 65, 0
1, 393828, Note_on_c, 0, 63, 0
1, 393840, Note_on_c, 0, 81, 55
1, 393840, Note_on_c, 0, 63, 35
1, 393840, Note_on_c, 0, 65, 35
1, 393960, Tempo, 422535
1, 393960, Note_on_c, 0, 81, 0
1, 394068, Note_on_c, 0, 65, 0
1, 394068, Note_on_c, 0, 63, 0
1, 394080, Tempo, 406780
1, 394080, Note_on_c, 0, 53, 0
1, 394080, Note_on_c, 0, 84, 55
1, 394080, Note_on_c, 0, 58, 40
1, 394140, Note_on_c, 0, 84, 0
1, 394140, Note_on_c, 0, 85, 55
1, 394200, Note_on_c, 0, 85, 0
1, 394200, Note_on_c, 0, 84, 61
1, 394320, Note_on_c, 0, 84, 0
1, 394320, Note_on_c, 0, 82, 54
1, 394320, Note_on_c, 0, 61, 34
1, 394320, Note_on_c, 0, 65, 34
1, 394548, Note_on_c, 0, 65, 0
1, 394548, Note_on_c, 0, 61, 0
1, 394560, Note_on_c, 0, 82, 0
1, 394560, Note_on_c, 0, 82, 54
1, 394560, Note_on_c, 0, 61, 34
1, 394560, Note_on_c, 0, 65, 34
1, 394620, Note_on_c, 0, 82, 0
1, 394620, Note_on_c, 0, 84, 54
1, 394680, Note_on_c, 0, 84, 0
1, 394680, Note_on_c, 0, 82, 60
1, 394788, Note_on_c, 0, 65, 0
1, 394788, Note_on_c, 0, 61, 0
1, 394800, Note_on_c, 0, 82, 0
1, 394800, Note_on_c, 0, 80, 53
1, 394800, Note_on_c, 0, 61, 33
1, 394800, Note_on_c, 0, 65, 33
1, 395028, Note_on_c, 0, 65, 0
1, 395028, Note_on_c, 0, 61, 0
1, 395040, Note_on_c, 0, 80, 0
1, 395040, Note_on_c, 0, 58, 0
1, 395040, Note_on_c, 0, 80, 52
1, 395040, Note_on_c, 0, 51, 38
1, 395100, Note_on_c, 0, 80, 0
1, 395100, Note_on_c, 0, 82, 52
1, 395160, Note_on_c, 0, 82, 0
1, 395160, Note_on_c, 0, 80, 57
1, 395280, Note_on_c, 0, 80, 0
1, 395280, Note_on_c, 0, 79, 52
1, 395280, Note_on_c, 0, 61, 33
1, 395280, Note_on_c, 0, 63, 33
1, 395508, Note_on_c, 0, 63, 0
1, 395508, Note_on_c, 0, 61, 0
1, 395520, Note_on_c, 0, 79, 0
1, 395520, Note_on_c, 0, 77, 51
1, 395520, Note_on_c, 0, 61, 32
1, 395520, Note_on_c, 0, 63, 32
1, 395640, Note_on_c, 0, 77, 0
1, 395748, Note_on_c, 0, 63, 0
1, 395748, Note_on_c, 0, 61, 0
1, 395760, Note_on_c, 0, 79, 51
1, 395760, Note_on_c, 0, 61, 32
1, 395760, Note_on_c, 0, 63, 32
1, 395880, Tempo, 424028
1, 395880, Note_on_c, 0, 79, 0
1, 395988, Note_on_c, 0, 63, 0
1, 395988, Note_on_c, 0, 61, 0
1, 396000, Tempo, 415225
1, 396000, Note_on_c, 0, 51, 0
1, 396000, Note_on_c, 0, 82, 50
1, 396000, Note_on_c, 0, 56, 36
1, 396060, Note_on_c, 0, 82, 0
1, 396060, Note_on_c, 0, 84, 50
1, 396120, Note_on_c, 0, 84, 0
1, 396120, Note_on_c, 0, 82, 55
1, 396240, Note_on_c, 0, 82, 0
1, 396240, Note_on_c, 0, 80, 49
1, 396240, Note_on_c, 0, 60, 31
1, 396240, Note_on_c, 0, 63, 31
1, 396468, Note_on_c, 0, 63, 0
1, 396468, Note_on_c, 0, 60, 0
1, 396480, Note_on_c, 0, 80, 0
1, 396480, Note_on_c, 0, 80, 49
1, 396480, Note_on_c, 0, 60, 31
1, 396480, Note_on_c, 0, 63, 31
1, 396540, Note_on_c, 0, 80, 0
1, 396540, Note_on_c, 0, 82, 48
1, 396600, Note_on_c, 0, 82, 0
1, 396600, Note_on_c, 0, 80, 54
1, 396708, Note_on_c, 0, 63, 0
1, 396708, Note_on_c, 0, 60, 0
1, 396720, Note_on_c, 0, 80, 0
1, 396720, Note_on_c, 0, 79, 48
1, 396720, Note_on_c, 0, 60, 30
1, 396720, Note_on_c, 0, 63, 30
1, 396840, Tempo, 433213
1, 396948, Note_on_c, 0, 63, 0
1, 396948, Note_on_c, 0, 60, 0
1, 396960, Tempo, 415225
1, 396960, Note_on_c, 0, 79, 0
1, 396960, Note_on_c, 0, 56, 0
1, 396960, Note_on_c, 0, 79, 48
1, 396960, Note_on_c, 0, 56, 35
1, 397020, Note_on_c, 0, 79, 0
1, 397020, Note_on_c, 0, 80, 47
1, 397080, Note_on_c, 0, 80, 0
1, 397080, Note_on_c, 0, 79, 52
1, 397200, Note_on_c, 0, 79, 0
1, 397200, Note_on_c, 0, 78, 47
1, 397200, Note_on_c, 0, 60, 30
1, 397200, Note_on_c, 0, 63, 30
1, 397428, Note_on_c, 0, 63, 0
1, 397428, Note_on_c, 0, 60, 0
1, 397440, Note_on_c, 0, 78, 0
1, 397440, Note_on_c, 0, 78, 46
1, 397440, Note_on_c, 0, 60, 29
1, 397440, Note_on_c, 0, 63, 29
1, 397560, Note_on_c, 0, 78, 0
1, 397668, Note_on_c, 0, 63, 0
1, 397668, Note_on_c, 0, 60, 0
1, 397680, Note_on_c, 0, 78, 46
1, 397680, Note_on_c, 0, 60, 29
1, 397680, Note_on_c, 0, 63, 29
1, 397800, Tempo, 428571
1, 397800, Note_on_c, 0, 78, 0
1, 397908, Note_on_c, 0, 63, 0
1, 397908, Note_on_c, 0, 60, 0
1, 397920, Tempo, 433213
1, 397920, Note_on_c, 0, 56, 0
1, 397920, Note_on_c, 0, 80, 42
1, 397920, Note_on_c, 0, 55, 30
1, 397980, Note_on_c, 0, 80, 0
1, 397980, Note_on_c, 0, 82, 42
1, 398040, Note_on_c, 0, 82, 0
1, 398040, Note_on_c, 0, 80, 46
1, 398160, Note_on_c, 0, 80, 0
1, 398160, Note_on_c, 0, 79, 42
1, 398160, Note_on_c, 0, 60, 26
1, 398160, Note_on_c, 0, 63, 26
1, 398388, Note_on_c, 0, 63, 0
1, 398388, Note_on_c, 0, 60, 0
1, 398400, Note_on_c, 0, 79, 0
1, 398400, Note_on_c, 0, 79, 42
1, 398400, Note_on_c, 0, 60, 26
1, 398400, Note_on_c, 0, 63, 26
1, 398520, Note_on_c, 0, 79, 0
1, 398628, Note_on_c, 0, 63, 0
1, 398628, Note_on_c, 0, 60, 0
1, 398640, Note_on_c, 0, 79, 42
1, 398640, Note_on_c, 0, 60, 26
1, 398640, Note_on_c, 0, 63, 26
1, 398760, Tempo, 456274
1, 398760, Note_on_c, 0, 79, 0
1, 398868, Note_on_c, 0, 63, 0
1, 398868, Note_on_c, 0, 60, 0
1, 398880, Tempo, 444444
1, 398880, Note_on_c, 0, 55, 0
1, 398880, Note_on_c, 0, 80, 42
1, 398880, Note_on_c, 0, 55, 30
1, 398940, Note_on_c, 0, 80, 0
1, 398940, Note_on_c, 0, 82, 42
1, 399000, Note_on_c, 0, 82, 0
1, 399000, Note_on_c, 0, 80, 46
1, 399120, Note_on_c, 0, 80, 0
1, 399120, Note_on_c, 0, 79, 42
1, 399120, Note_on_c, 0, 59, 26
1, 399120, Note_on_c, 0, 62, 26
1, 399348, Note_on_c, 0, 62, 0
1, 399348, Note_on_c, 0, 59, 0
1, 399360, Note_on_c, 0, 79, 0
1, 399360, Note_on_c, 0, 79, 42
1, 399360, Note_on_c, 0, 59, 26
1, 399360, Note_on_c, 0, 62, 26
1, 399480, Note_on_c, 0, 79, 0
1, 399588, Note_on_c, 0, 62, 0
1, 399588, Note_on_c, 0, 59, 0
1, 399600, Note_on_c, 0, 79, 42
1, 399600, Note_on_c, 0, 59, 26
1, 399600, Note_on_c, 0, 62, 26
1, 399720, Note_on_c, 0, 79, 0
1, 399828, Note_on_c, 0, 62, 0
1, 399828, Note_on_c, 0, 59, 0
1, 399840, Tempo, 600000
1, 399840, Note_on_c, 0, 55, 0
1, 399840, Note_on_c, 0, 48, 36
1, 399925, Control_c, 0, 64, 127
1, 399960, Note_on_c, 0, 60, 25
1, 399960, Note_on_c, 0, 55, 24
1, 400080, Tempo, 418118
1, 400080, Note_on_c, 0, 55, 0
1, 400080, Note_on_c, 0, 60, 0
1, 400080, Note_on_c, 0, 63, 29
1, 400080, Note_on_c, 0, 51, 26
1, 400200, Note_on_c, 0, 51, 0
1, 400200, Note_on_c, 0, 63, 0
1, 400200, Note_on_c, 0, 60, 29
1, 400200, Note_on_c, 0, 55, 24
1, 400240, Tempo, 416667
1, 400320, Note_on_c, 0, 55, 0
1, 400320, Note_on_c, 0, 60, 0
1, 400320, Note_on_c, 0, 72, 45
1, 400320, Note_on_c, 0, 51, 32
1, 400380, Tempo, 415225
1, 400440, Note_on_c, 0, 51, 0
1, 400440, Note_on_c, 0, 60, 28
1, 400440, Note_on_c, 0, 55, 25
1, 400520, Tempo, 413793
1, 400560, Note_on_c, 0, 55, 0
1, 400560, Note_on_c, 0, 60, 0
1, 400560, Note_on_c, 0, 63, 30
1, 400560, Note_on_c, 0, 51, 28
1, 400660, Tempo, 412371
1, 400680, Note_on_c, 0, 51, 0
1, 400680, Note_on_c, 0, 63, 0
1, 400680, Note_on_c, 0, 60, 28
1, 400680, Note_on_c, 0, 55, 26
1, 400800, Tempo, 410959
1, 400800, Note_on_c, 0, 55, 0
1, 400800, Note_on_c, 0, 60, 0
1, 400800, Note_on_c, 0, 63, 31
1, 400800, Note_on_c, 0, 51, 34
1, 400809, Control_c, 0, 64, 0
1, 400885, Control_c, 0, 64, 127
1, 400920, Note_on_c, 0, 51, 0
1, 400920, Note_on_c, 0, 63, 0
1, 400920, Note_on_c, 0, 60, 30
1, 400920, Note_on_c, 0, 55, 26
1, 401040, Note_on_c, 0, 55, 0
1, 401040, Note_on_c, 0, 60, 0
1, 401040, Note_on_c, 0, 63, 32
1, 401040, Note_on_c, 0, 51, 29
1, 401160, Note_on_c, 0, 51, 0
1, 401160, Note_on_c, 0, 63, 0
1, 401160, Note_on_c, 0, 60, 29
1, 401160, Note_on_c, 0, 55, 26
1, 401280, Note_on_c, 0, 55, 0
1, 401280, Note_on_c, 0, 48, 0
1, 401280, Note_on_c, 0, 72, 0
1, 401280, Note_on_c, 0, 60, 0
1, 401280, Note_on_c, 0, 72, 50
1, 401280, Note_on_c, 0, 48, 36
1, 401400, Note_on_c, 0, 60, 30
1, 401400, Note_on_c, 0, 55, 28
1, 401520, Note_on_c, 0, 55, 0
1, 401520, Note_on_c, 0, 60, 0
1, 401520, Note_on_c, 0, 63, 33
1, 401520, Note_on_c, 0, 51, 32
1, 401640, Note_on_c, 0, 51, 0
1, 401640, Note_on_c, 0, 63, 0
1, 401640, Note_on_c, 0, 60, 32
1, 401640, Note_on_c, 0, 55, 28
1, 401760, Tempo, 451128
1, 401760, Note_on_c, 0, 55, 0
1, 401760, Note_on_c, 0, 72, 0
1, 401760, Note_on_c, 0, 48, 0
1, 401760, Note_on_c, 0, 60, 0
1, 401760, Note_on_c, 0, 46, 45
1, 401769, Control_c, 0, 64, 0
1, 401880, Note_on_c, 0, 61, 32
1, 401880, Note_on_c, 0, 55, 30
1, 401897, Control_c, 0, 64, 127
1, 401980, Tempo, 416667
1, 402000, Note_on_c, 0, 55, 0
1, 402000, Note_on_c, 0, 61, 0
1, 402000, Note_on_c, 0, 64, 36
1, 402000, Note_on_c, 0, 52, 32
1, 402120, Note_on_c, 0, 52, 0
1, 402120, Note_on_c, 0, 64, 0
1, 402120, Note_on_c, 0, 61, 35
1, 402120, Note_on_c, 0, 55, 29
1, 402240, Tempo, 415225
1, 402240, Note_on_c, 0, 55, 0
1, 402240, Note_on_c, 0, 61, 0
1, 402240, Note_on_c, 0, 73, 54
1, 402240, Note_on_c, 0, 52, 38
1, 402360, Note_on_c, 0, 52, 0
1, 402360, Note_on_c, 0, 61, 33
1, 402360, Note_on_c, 0, 55, 30
1, 402480, Tempo, 413793
1, 402480, Note_on_c, 0, 55, 0
1, 402480, Note_on_c, 0, 61, 0
1, 402480, Note_on_c, 0, 64, 35
1, 402480, Note_on_c, 0, 52, 33
1, 402600, Note_on_c, 0, 52, 0
1, 402600, Note_on_c, 0, 64, 0
1, 402600, Note_on_c, 0, 61, 32
1, 402600, Note_on_c, 0, 55, 30
1, 402720, Tempo, 412371
1, 402720, Note_on_c, 0, 55, 0
1, 402720, Note_on_c, 0, 61, 0
1, 402720, Note_on_c, 0, 64, 35
1, 402720, Note_on_c, 0, 52, 38
1, 402729, Control_c, 0, 64, 0
1, 402806, Control_c, 0, 64, 127
1, 402840, Note_on_c, 0, 52, 0
1, 402840, Note_on_c, 0, 64, 0
1, 402840, Note_on_c, 0, 61, 33
1, 402840, Note_on_c, 0, 55, 29
1, 402960, Note_on_c, 0, 55, 0
1, 402960, Note_on_c, 0, 61, 0
1, 402960, Note_on_c, 0, 64, 35
1, 402960, Note_on_c, 0, 52, 32
1, 403080, Note_on_c, 0, 52, 0
1, 403080, Note_on_c, 0, 64, 0
1, 403080, Note_on_c, 0, 61, 32
1, 403080, Note_on_c, 0, 55, 29
1, 403200, Note_on_c, 0, 55, 0
1, 403200, Note_on_c, 0, 46, 0
1, 403200, Note_on_c, 0, 73, 0
1, 403200, Note_on_c, 0, 61, 0
1, 403200, Note_on_c, 0, 73, 53
1, 403200, Note_on_c, 0, 46, 38
1, 403320, Note_on_c, 0, 61, 32
1, 403320, Note_on_c, 0, 55, 30
1, 403440, Note_on_c, 0, 55, 0
1, 403440, Note_on_c, 0, 61, 0
1, 403440, Note_on_c, 0, 64, 35
1, 403440, Note_on_c, 0, 52, 33
1, 403560, Tempo, 446097
1, 403560, Note_on_c, 0, 52, 0
1, 403560, Note_on_c, 0, 64, 0
1, 403560, Note_on_c, 0, 61, 33
1, 403560, Note_on_c, 0, 55, 29
1, 403680, Tempo, 406780
1, 403680, Note_on_c, 0, 55, 0
1, 403680, Note_on_c, 0, 73, 0
1, 403680, Note_on_c, 0, 46, 0
1, 403680, Note_on_c, 0, 61, 0
1, 403680, Note_on_c, 0, 72, 66
1, 403680, Note_on_c, 0, 44, 55
1, 403691, Control_c, 0, 64, 0
1, 403770, Note_on_c, 0, 44, 0
1, 403770, Note_on_c, 0, 72, 0
1, 403800, Note_on_c, 0, 60, 41
1, 403800, Note_on_c, 0, 56, 36
1, 403880, Tempo, 405405
1, 403920, Note_on_c, 0, 56, 0
1, 403920, Note_on_c, 0, 60, 0
1, 403920, Note_on_c, 0, 65, 45
1, 403920, Note_on_c, 0, 48, 39
1, 404040, Note_on_c, 0, 48, 0
1, 404040, Note_on_c, 0, 65, 0
1, 404040, Note_on_c, 0, 60, 42
1, 404040, Note_on_c, 0, 56, 35
1, 404080, Tempo, 404040
1, 404160, Note_on_c, 0, 56, 0
1, 404160, Note_on_c, 0, 60, 0
1, 404160, Note_on_c, 0, 76, 67
1, 404160, Note_on_c, 0, 46, 56
1, 404250, Note_on_c, 0, 46, 0
1, 404250, Note_on_c, 0, 76, 0
1, 404260, Tempo, 402685
1, 404280, Note_on_c, 0, 64, 43
1, 404280, Note_on_c, 0, 58, 36
1, 404400, Note_on_c, 0, 58, 0
1, 404400, Note_on_c, 0, 64, 0
1, 404400, Note_on_c, 0, 72, 47
1, 404400, Note_on_c, 0, 48, 43
1, 404460, Tempo, 401338
1, 404520, Note_on_c, 0, 48, 0
1, 404520, Note_on_c, 0, 72, 0
1, 404520, Note_on_c, 0, 64, 43
1, 404520, Note_on_c, 0, 58, 41
1, 404640, Tempo, 392157
1, 404640, Note_on_c, 0, 58, 0
1, 404640, Note_on_c, 0, 64, 0
1, 404640, Note_on_c, 0, 77, 71
1, 404640, Note_on_c, 0, 44, 58
1, 404730, Note_on_c, 0, 44, 0
1, 404730, Note_on_c, 0, 77, 0
1, 404760, Note_on_c, 0, 65, 45
1, 404760, Note_on_c, 0, 56, 38
1, 404880, Note_on_c, 0, 56, 0
1, 404880, Note_on_c, 0, 65, 0
1, 404880, Note_on_c, 0, 72, 50
1, 404880, Note_on_c, 0, 48, 43
1, 405000, Note_on_c, 0, 48, 0
1, 405000, Note_on_c, 0, 72, 0
1, 405000, Note_on_c, 0, 65, 45
1, 405000, Note_on_c, 0, 56, 38
1, 405120, Note_on_c, 0, 56, 0
1, 405120, Note_on_c, 0, 65, 0
1, 405120, Note_on_c, 0, 79, 72
1, 405120, Note_on_c, 0, 43, 60
1, 405210, Note_on_c, 0, 43, 0
1, 405210, Note_on_c, 0, 79, 0
1, 405240, Note_on_c, 0, 67, 47
1, 405240, Note_on_c, 0, 55, 40
1, 405360, Note_on_c, 0, 55, 0
1, 405360, Note_on_c, 0, 67, 0
1, 405360, Note_on_c, 0, 72, 50
1, 405360, Note_on_c, 0, 48, 43
1, 405480, Note_on_c, 0, 48, 0
1, 405480, Note_on_c, 0, 72, 0
1, 405480, Note_on_c, 0, 67, 47
1, 405480, Note_on_c, 0, 55, 38
1, 405600, Tempo, 389610
1, 405600, Note_on_c, 0, 55, 0
1, 405600, Note_on_c, 0, 67, 0
1, 405600, Note_on_c, 0, 80, 74
1, 405600, Note_on_c, 0, 41, 63
1, 405620, Tempo, 388350
1, 405640, Tempo, 387097
1, 405690, Note_on_c, 0, 41, 0
1, 405690, Note_on_c, 0, 80, 0
1, 405700, Tempo, 385852
1, 405720, Note_on_c, 0, 68, 49
1, 405720, Note_on_c, 0, 53, 42
1, 405740, Tempo, 384615
1, 405780, Tempo, 383387
1, 405800, Tempo, 382166
1, 405820, Tempo, 383387
1, 405840, Tempo, 390879
1, 405840, Note_on_c, 0, 53, 0
1, 405840, Note_on_c, 0, 68, 0
1, 405840, Note_on_c, 0, 72, 54
1, 405840, Note_on_c, 0, 48, 45
1, 405860, Tempo, 393443
1, 405880, Tempo, 392157
1, 405900, Tempo, 390879
1, 405940, Tempo, 388350
1, 405960, Tempo, 387097
1, 405960, Note_on_c, 0, 48, 0
1, 405960, Note_on_c, 0, 72, 0
1, 405960, Note_on_c, 0, 68, 49
1, 405960, Note_on_c, 0, 53, 42
1, 406000, Tempo, 385852
1, 406040, Tempo, 384615
1, 406080, Note_on_c, 0, 53, 0
1, 406080, Note_on_c, 0, 68, 0
1, 406080, Note_on_c, 0, 81, 80
1, 406080, Note_on_c, 0, 39, 66
1, 406170, Note_on_c, 0, 39, 0
1, 406170, Note_on_c, 0, 81, 0
1, 406200, Note_on_c, 0, 69, 50
1, 406200, Note_on_c, 0, 51, 41
1, 406320, Note_on_c, 0, 51, 0
1, 406320, Note_on_c, 0, 69, 0
1, 406320, Note_on_c, 0, 72, 55
1, 406320, Note_on_c, 0, 48, 47
1, 406340, Tempo, 390879
1, 406360, Tempo, 392157
1, 406380, Tempo, 393443
1, 406420, Tempo, 390879
1, 406440, Tempo, 387097
1, 406440, Note_on_c, 0, 48, 0
1, 406440, Note_on_c, 0, 72, 0
1, 406440, Note_on_c, 0, 69, 51
1, 406440, Note_on_c, 0, 51, 41
1, 406460, Tempo, 385852
1, 406480, Tempo, 384615
1, 406500, Tempo, 383387
1, 406520, Tempo, 388350
1, 406560, Note_on_c, 0, 51, 0
1, 406560, Note_on_c, 0, 69, 0
1, 406560, Note_on_c, 0, 83, 84
1, 406560, Note_on_c, 0, 38, 68
1, 406620, Tempo, 387097
1, 406640, Tempo, 384615
1, 406650, Note_on_c, 0, 38, 0
1, 406650, Note_on_c, 0, 83, 0
1, 406680, Note_on_c, 0, 71, 51
1, 406680, Note_on_c, 0, 50, 45
1, 406700, Tempo, 383387
1, 406760, Tempo, 384615
1, 406780, Tempo, 385852
1, 406800, Tempo, 388350
1, 406800, Note_on_c, 0, 50, 0
1, 406800, Note_on_c, 0, 71, 0
1, 406800, Note_on_c, 0, 77, 58
1, 406800, Note_on_c, 0, 43, 49
1, 406840, Tempo, 385852
1, 406860, Tempo, 384615
1, 406880, Tempo, 383387
1, 406920, Tempo, 382166
1, 406920, Note_on_c, 0, 43, 0
1, 406920, Note_on_c, 0, 77, 0
1, 406920, Note_on_c, 0, 71, 53
1, 406920, Note_on_c, 0, 50, 43
1, 406960, Tempo, 383387
1, 406980, Tempo, 385852
1, 407020, Tempo, 387097
1, 407040, Tempo, 388350
1, 407040, Note_on_c, 0, 50, 0
1, 407040, Note_on_c, 0, 71, 0
1, 407040, Note_on_c, 0, 84, 85
1, 407040, Note_on_c, 0, 36, 70
1, 407060, Tempo, 389610
1, 407080, Tempo, 390879
1, 407100, Tempo, 388350
1, 407120, Tempo, 385852
1, 407130, Note_on_c, 0, 36, 0
1, 407130, Note_on_c, 0, 84, 0
1, 407140, Tempo, 384615
1, 407160, Note_on_c, 0, 72, 53
1, 407160, Note_on_c, 0, 48, 45
1, 407180, Tempo, 383387
1, 407220, Tempo, 382166
1, 407280, Tempo, 383387
1, 407280, Note_on_c, 0, 48, 0
1, 407280, Note_on_c, 0, 72, 0
1, 407280, Note_on_c, 0, 77, 58
1, 407280, Note_on_c, 0, 43, 51
1, 407300, Tempo, 385852
1, 407320, Tempo, 387097
1, 407340, Tempo, 388350
1, 407360, Tempo, 389610
1, 407380, Tempo, 388350
1, 407400, Tempo, 387097
1, 407400, Note_on_c, 0, 43, 0
1, 407400, Note_on_c, 0, 77, 0
1, 407400, Note_on_c, 0, 72, 54
1, 407400, Note_on_c, 0, 48, 43
1, 407420, Tempo, 384615
1, 407480, Tempo, 383387
1, 407500, Tempo, 382166
1, 407520, Note_on_c, 0, 48, 0
1, 407520, Note_on_c, 0, 72, 0
1, 407520, Note_on_c, 0, 86, 85
1, 407520, Note_on_c, 0, 35, 70
1, 407540, Tempo, 380952
1, 407580, Tempo, 383387
1, 407610, Note_on_c, 0, 35, 0
1, 407610, Note_on_c, 0, 86, 0
1, 407620, Tempo, 385852
1, 407640, Tempo, 387097
1, 407640, Note_on_c, 0, 74, 55
1, 407640, Note_on_c, 0, 47, 47
1, 407660, Tempo, 388350
1, 407700, Tempo, 390879
1, 407740, Tempo, 389610
1, 407760, Tempo, 387097
1, 407760, Note_on_c, 0, 47, 0
1, 407760, Note_on_c, 0, 74, 0
1, 407760, Note_on_c, 0, 77, 63
1, 407760, Note_on_c, 0, 43, 53
1, 407780, Tempo, 384615
1, 407820, Tempo, 383387
1, 407880, Note_on_c, 0, 43, 0
1, 407880, Note_on_c, 0, 77, 0
1, 407880, Note_on_c, 0, 74, 55
1, 407880, Note_on_c, 0, 47, 48
1, 407900, Tempo, 385852
1, 407920, Tempo, 387097
1, 407960, Tempo, 388350
1, 408000, Note_on_c, 0, 47, 0
1, 408000, Note_on_c, 0, 74, 0
1, 408000, Note_on_c, 0, 88, 90
1, 408000, Note_on_c, 0, 34, 72
1, 408040, Tempo, 387097
1, 408080, Tempo, 385852
1, 408090, Note_on_c, 0, 34, 0
1, 408090, Note_on_c, 0, 88, 0
1, 408120, Tempo, 384615
1, 408120, Note_on_c, 0, 76, 57
1, 408120, Note_on_c, 0, 46, 47
1, 408140, Tempo, 383387
1, 408200, Tempo, 382166
1, 408240, Note_on_c, 0, 46, 0
1, 408240, Note_on_c, 0, 76, 0
1, 408240, Note_on_c, 0, 79, 62
1, 408240, Note_on_c, 0, 36, 53
1, 408260, Tempo, 384615
1, 408280, Tempo, 385852
1, 408320, Tempo, 387097
1, 408340, Tempo, 388350
1, 408360, Note_on_c, 0, 36, 0
1, 408360, Note_on_c, 0, 79, 0
1, 408360, Note_on_c, 0, 76, 57
1, 408360, Note_on_c, 0, 46, 50
1, 408480, Tempo, 385852
1, 408480, Note_on_c, 0, 46, 0
1, 408480, Note_on_c, 0, 76, 0
1, 408480, Note_on_c, 0, 89, 89
1, 408480, Note_on_c, 0, 32, 75
1, 408500, Tempo, 384615
1, 408520, Tempo, 383387
1, 408540, Tempo, 382166
1, 408570, Note_on_c, 0, 32, 0
1, 408570, Note_on_c, 0, 89, 0
1, 408600, Note_on_c, 0, 77, 59
1, 408600, Note_on_c, 0, 44, 50
1, 408640, Tempo, 385852
1, 408720, Note_on_c, 0, 44, 0
1, 408720, Note_on_c, 0, 77, 0
1, 408720, Note_on_c, 0, 80, 64
1, 408720, Note_on_c, 0, 36, 55
1, 408780, Tempo, 388350
1, 408820, Tempo, 390879
1, 408840, Note_on_c, 0, 36, 0
1, 408840, Note_on_c, 0, 80, 0
1, 408840, Note_on_c, 0, 77, 59
1, 408840, Note_on_c, 0, 44, 50
1, 408860, Tempo, 388350
1, 408920, Tempo, 390879
1, 408960, Tempo, 406780
1, 408960, Note_on_c, 0, 44, 0
1, 408960, Note_on_c, 0, 77, 0
1, 408960, Note_on_c, 0, 86, 91
1, 408960, Note_on_c, 0, 29, 76
1, 409050, Note_on_c, 0, 29, 0
1, 409050, Note_on_c, 0, 86, 0
1, 409080, Note_on_c, 0, 77, 61
1, 409080, Note_on_c, 0, 41, 56
1, 409200, Note_on_c, 0, 41, 0
1, 409200, Note_on_c, 0, 77, 0
1, 409200, Note_on_c, 0, 80, 67
1, 409200, Note_on_c, 0, 36, 58
1, 409320, Note_on_c, 0, 36, 0
1, 409320, Note_on_c, 0, 80, 0
1, 409320, Note_on_c, 0, 77, 61
1, 409320, Note_on_c, 0, 41, 55
1, 409440, Tempo, 398671
1, 409440, Note_on_c, 0, 41, 0
1, 409440, Note_on_c, 0, 77, 0
1, 409440, Note_on_c, 0, 31, 71
1, 409440, Note_on_c, 0, 43, 84
1, 409525, Control_c, 0, 64, 127
1, 409560, Tempo, 390879
1, 409560, Note_on_c, 0, 75, 78
1, 409680, Note_on_c, 0, 75, 0
1, 409680, Note_on_c, 0, 43, 0
1, 409680, Note_on_c, 0, 31, 0
1, 409680, Note_on_c, 0, 79, 84
1, 409800, Note_on_c, 0, 79, 0
1, 409800, Note_on_c, 0, 75, 78
1, 409920, Note_on_c, 0, 75, 0
1, 409920, Note_on_c, 0, 84, 88
1, 410010, Note_on_c, 0, 84, 0
1, 410040, Note_on_c, 0, 75, 78
1, 410160, Tempo, 408163
1, 410160, Note_on_c, 0, 75, 0
1, 410160, Note_on_c, 0, 79, 84
1, 410280, Note_on_c, 0, 79, 0
1, 410280, Note_on_c, 0, 75, 76
1, 410400, Tempo, 404040
1, 410400, Note_on_c, 0, 75, 0
1, 410400, Note_on_c, 0, 55, 84
1, 410400, Note_on_c, 0, 43, 71
1, 410415, Control_c, 0, 64, 0
1, 410497, Control_c, 0, 64, 127
1, 410520, Tempo, 392157
1, 410520, Note_on_c, 0, 74, 78
1, 410640, Note_on_c, 0, 74, 0
1, 410640, Note_on_c, 0, 43, 0
1, 410640, Note_on_c, 0, 55, 0
1, 410640, Note_on_c, 0, 77, 84
1, 410760, Note_on_c, 0, 77, 0
1, 410760, Note_on_c, 0, 74, 78
1, 410880, Note_on_c, 0, 74, 0
1, 410880, Note_on_c, 0, 83, 88
1, 410970, Note_on_c, 0, 83, 0
1, 411000, Note_on_c, 0, 74, 78
1, 411120, Tempo, 430108
1, 411120, Note_on_c, 0, 74, 0
1, 411120, Note_on_c, 0, 77, 84
1, 411240, Tempo, 452830
1, 411240, Note_on_c, 0, 77, 0
1, 411240, Note_on_c, 0, 74, 76
1, 411360, Tempo, 419580
1, 411360, Note_on_c, 0, 74, 0
1, 411360, Note_on_c, 0, 48, 45
1, 411376, Control_c, 0, 64, 0
1, 411473, Control_c, 0, 64, 127
1, 411480, Note_on_c, 0, 60, 32
1, 411480, Note_on_c, 0, 55, 30
1, 411600, Tempo, 418118
1, 411600, Note_on_c, 0, 55, 0
1, 411600, Note_on_c, 0, 60, 0
1, 411600, Note_on_c, 0, 63, 36
1, 411600, Note_on_c, 0, 51, 32
1, 411720, Note_on_c, 0, 51, 0
1, 411720, Note_on_c, 0, 63, 0
1, 411720, Note_on_c, 0, 60, 35
1, 411720, Note_on_c, 0, 55, 29
1, 411760, Tempo, 416667
1, 411840, Note_on_c, 0, 55, 0
1, 411840, Note_on_c, 0, 60, 0
1, 411840, Note_on_c, 0, 72, 54
1, 411840, Note_on_c, 0, 51, 38
1, 411900, Tempo, 415225
1, 411960, Note_on_c, 0, 51, 0
1, 411960, Note_on_c, 0, 60, 33
1, 411960, Note_on_c, 0, 55, 30
1, 412040, Tempo, 413793
1, 412080, Note_on_c, 0, 55, 0
1, 412080, Note_on_c, 0, 60, 0
1, 412080, Note_on_c, 0, 63, 35
1, 412080, Note_on_c, 0, 51, 33
1, 412180, Tempo, 412371
1, 412200, Note_on_c, 0, 51, 0
1, 412200, Note_on_c, 0, 63, 0
1, 412200, Note_on_c, 0, 60, 32
1, 412200, Note_on_c, 0, 55, 30
1, 412320, Tempo, 410959
1, 412320, Note_on_c, 0, 55, 0
1, 412320, Note_on_c, 0, 60, 0
1, 412320, Note_on_c, 0, 63, 35
1, 412320, Note_on_c, 0, 51, 38
1, 412335, Control_c, 0, 64, 0
1, 412419, Control_c, 0, 64, 127
1, 412440, Note_on_c, 0, 51, 0
1, 412440, Note_on_c, 0, 63, 0
1, 412440, Note_on_c, 0, 60, 33
1, 412440, Note_on_c, 0, 55, 29
1, 412560, Note_on_c, 0, 55, 0
1, 412560, Note_on_c, 0, 60, 0
1, 412560, Note_on_c, 0, 63, 35
1, 412560, Note_on_c, 0, 51, 32
1, 412680, Note_on_c, 0, 51, 0
1, 412680, Note_on_c, 0, 63, 0
1, 412680, Note_on_c, 0, 60, 32
1, 412680, Note_on_c, 0, 55, 29
1, 412800, Note_on_c, 0, 55, 0
1, 412800, Note_on_c, 0, 48, 0
1, 412800, Note_on_c, 0, 72, 0
1, 412800, Note_on_c, 0, 60, 0
1, 412800, Note_on_c, 0, 72, 53
1, 412800, Note_on_c, 0, 48, 38
1, 412920, Note_on_c, 0, 60, 32
1, 412920, Note_on_c, 0, 55, 30
1, 413040, Note_on_c, 0, 55, 0
1, 413040, Note_on_c, 0, 60, 0
1, 413040, Note_on_c, 0, 63, 35
1, 413040, Note_on_c, 0, 51, 33
1, 413160, Note_on_c, 0, 51, 0
1, 413160, Note_on_c, 0, 63, 0
1, 413160, Note_on_c, 0, 60, 33
1, 413160, Note_on_c, 0, 55, 29
1, 413280, Tempo, 451128
1, 413280, Note_on_c, 0, 55, 0
1, 413280, Note_on_c, 0, 72, 0
1, 413280, Note_on_c, 0, 48, 0
1, 413280, Note_on_c, 0, 60, 0
1, 413280, Note_on_c, 0, 46, 45
1, 413297, Control_c, 0, 64, 0
1, 413400, Note_on_c, 0, 61, 32
1, 413400, Note_on_c, 0, 55, 30
1, 413400, Control_c, 0, 64, 127
1, 413500, Tempo, 416667
1, 413520, Note_on_c, 0, 55, 0
1, 413520, Note_on_c, 0, 61, 0
1, 413520, Note_on_c, 0, 64, 36
1, 413520, Note_on_c, 0, 52, 32
1, 413640, Note_on_c, 0, 52, 0
1, 413640, Note_on_c, 0, 64, 0
1, 413640, Note_on_c, 0, 61, 35
1, 413640, Note_on_c, 0, 55, 29
1, 413760, Tempo, 415225
1, 413760, Note_on_c, 0, 55, 0
1, 413760, Note_on_c, 0, 61, 0
1, 413760, Note_on_c, 0, 73, 54
1, 413760, Note_on_c, 0, 52, 38
1, 413880, Note_on_c, 0, 52, 0
1, 413880, Note_on_c, 0, 61, 33
1, 413880, Note_on_c, 0, 55, 30
1, 414000, Tempo, 413793
1, 414000, Note_on_c, 0, 55, 0
1, 414000, Note_on_c, 0, 61, 0
1, 414000, Note_on_c, 0, 64, 35
1, 414000, Note_on_c, 0, 52, 33
1, 414120, Note_on_c, 0, 52, 0
1, 414120, Note_on_c, 0, 64, 0
1, 414120, Note_on_c, 0, 61, 32
1, 414120, Note_on_c, 0, 55, 30
1, 414240, Tempo, 412371
1, 414240, Note_on_c, 0, 55, 0
1, 414240, Note_on_c, 0, 61, 0
1, 414240, Note_on_c, 0, 64, 35
1, 414240, Note_on_c, 0, 52, 38
1, 414253, Control_c, 0, 64, 0
1, 414332, Control_c, 0, 64, 127
1, 414360, Note_on_c, 0, 52, 0
1, 414360, Note_on_c, 0, 64, 0
1, 414360, Note_on_c, 0, 61, 33
1, 414360, Note_on_c, 0, 55, 29
1, 414480, Note_on_c, 0, 55, 0
1, 414480, Note_on_c, 0, 61, 0
1, 414480, Note_on_c, 0, 64, 35
1, 414480, Note_on_c, 0, 52, 32
1, 414600, Note_on_c, 0, 52, 0
1, 414600, Note_on_c, 0, 64, 0
1, 414600, Note_on_c, 0, 61, 32
1, 414600, Note_on_c, 0, 55, 29
1, 414720, Note_on_c, 0, 55, 0
1, 414720, Note_on_c, 0, 46, 0
1, 414720, Note_on_c, 0, 73, 0
1, 414720, Note_on_c, 0, 61, 0
1, 414720, Note_on_c, 0, 73, 53
1, 414720, Note_on_c, 0, 46, 38
1, 414840, Note_on_c, 0, 61, 32
1, 414840, Note_on_c, 0, 55, 30
1, 414960, Note_on_c, 0, 55, 0
1, 414960, Note_on_c, 0, 61, 0
1, 414960, Note_on_c, 0, 64, 35
1, 414960, Note_on_c, 0, 52, 33
1, 415080, Tempo, 446097
1, 415080, Note_on_c, 0, 52, 0
1, 415080, Note_on_c, 0, 64, 0
1, 415080, Note_on_c, 0, 61, 33
1, 415080, Note_on_c, 0, 55, 29
1, 415200, Tempo, 406780
1, 415200, Note_on_c, 0, 55, 0
1, 415200, Note_on_c, 0, 73, 0
1, 415200, Note_on_c, 0, 46, 0
1, 415200, Note_on_c, 0, 61, 0
1, 415200, Note_on_c, 0, 72, 66
1, 415200, Note_on_c, 0, 44, 55
1, 415203, Control_c, 0, 64, 0
1, 415290, Note_on_c, 0, 44, 0
1, 415290, Note_on_c, 0, 72, 0
1, 415320, Note_on_c, 0, 60, 41
1, 415320, Note_on_c, 0, 56, 36
1, 415400, Tempo, 405405
1, 415440, Note_on_c, 0, 56, 0
1, 415440, Note_on_c, 0, 60, 0
1, 415440, Note_on_c, 0, 65, 45
1, 415440, Note_on_c, 0, 48, 39
1, 415560, Note_on_c, 0, 48, 0
1, 415560, Note_on_c, 0, 65, 0
1, 415560, Note_on_c, 0, 60, 42
1, 415560, Note_on_c, 0, 56, 35
1, 415600, Tempo, 404040
1, 415680, Note_on_c, 0, 56, 0
1, 415680, Note_on_c, 0, 60, 0
1, 415680, Note_on_c, 0, 76, 67
1, 415680, Note_on_c, 0, 46, 56
1, 415770, Note_on_c, 0, 46, 0
1, 415770, Note_on_c, 0, 76, 0
1, 415780, Tempo, 402685
1, 415800, Note_on_c, 0, 64, 43
1, 415800, Note_on_c, 0, 58, 36
1, 415920, Note_on_c, 0, 58, 0
1, 415920, Note_on_c, 0, 64, 0
1, 415920, Note_on_c, 0, 72, 47
1, 415920, Note_on_c, 0, 48, 43
1, 415980, Tempo, 401338
1, 416040, Note_on_c, 0, 48, 0
1, 416040, Note_on_c, 0, 72, 0
1, 416040, Note_on_c, 0, 64, 43
1, 416040, Note_on_c, 0, 58, 41
1, 416160, Tempo, 392157
1, 416160, Note_on_c, 0, 58, 0
1, 416160, Note_on_c, 0, 64, 0
1, 416160, Note_on_c, 0, 77, 71
1, 416160, Note_on_c, 0, 44, 58
1, 416250, Note_on_c, 0, 44, 0
1, 416250, Note_on_c, 0, 77, 0
1, 416280, Note_on_c, 0, 65, 45
1, 416280, Note_on_c, 0, 56, 38
1, 416400, Note_on_c, 0, 56, 0
1, 416400, Note_on_c, 0, 65, 0
1, 416400, Note_on_c, 0, 72, 50
1, 416400, Note_on_c, 0, 48, 43
1, 416520, Note_on_c, 0, 48, 0
1, 416520, Note_on_c, 0, 72, 0
1, 416520, Note_on_c, 0, 65, 45
1, 416520, Note_on_c, 0, 56, 38
1, 416640, Note_on_c, 0, 56, 0
1, 416640, Note_on_c, 0, 65, 0
1, 416640, Note_on_c, 0, 79, 72
1, 416640, Note_on_c, 0, 43, 60
1, 416730, Note_on_c, 0, 43, 0
1, 416730, Note_on_c, 0, 79, 0
1, 416760, Note_on_c, 0, 67, 47
1, 416760, Note_on_c, 0, 55, 40
1, 416880, Note_on_c, 0, 55, 0
1, 416880, Note_on_c, 0, 67, 0
1, 416880, Note_on_c, 0, 72, 50
1, 416880, Note_on_c, 0, 48, 43
1, 417000, Note_on_c, 0, 48, 0
1, 417000, Note_on_c, 0, 72, 0
1, 417000, Note_on_c, 0, 67, 47
1, 417000, Note_on_c, 0, 55, 38
1, 417120, Tempo, 389610
1, 417120, Note_on_c, 0, 55, 0
1, 417120, Note_on_c, 0, 67, 0
1, 417120, Note_on_c, 0, 80, 74
1, 417120, Note_on_c, 0, 41, 63
1, 417140, Tempo, 387097
1, 417180, Tempo, 385852
1, 417210, Note_on_c, 0, 41, 0
1, 417210, Note_on_c, 0, 80, 0
1, 417220, Tempo, 384615
1, 417240, Note_on_c, 0, 68, 49
1, 417240, Note_on_c, 0, 53, 42
1, 417260, Tempo, 387097
1, 417300, Tempo, 388350
1, 417320, Tempo, 390879
1, 417360, Tempo, 389610
1, 417360, Note_on_c, 0, 53, 0
1, 417360, Note_on_c, 0, 68, 0
1, 417360, Note_on_c, 0, 72, 54
1, 417360, Note_on_c, 0, 48, 45
1, 417400, Tempo, 388350
1, 417420, Tempo, 387097
1, 417440, Tempo, 385852
1, 417460, Tempo, 384615
1, 417480, Note_on_c, 0, 48, 0
1, 417480, Note_on_c, 0, 72, 0
1, 417480, Note_on_c, 0, 68, 49
1, 417480, Note_on_c, 0, 53, 42
1, 417500, Tempo, 383387
1, 417540, Tempo, 385852
1, 417560, Tempo, 387097
1, 417600, Tempo, 388350
1, 417600, Note_on_c, 0, 53, 0
1, 417600, Note_on_c, 0, 68, 0
1, 417600, Note_on_c, 0, 81, 80
1, 417600, Note_on_c, 0, 39, 66
1, 417640, Tempo, 389610
1, 417660, Tempo, 390879
1, 417680, Tempo, 392157
1, 417690, Note_on_c, 0, 39, 0
1, 417690, Note_on_c, 0, 81, 0
1, 417700, Tempo, 390879
1, 417720, Tempo, 389610
1, 417720, Note_on_c, 0, 69, 50
1, 417720, Note_on_c, 0, 51, 41
1, 417740, Tempo, 388350
1, 417760, Tempo, 387097
1, 417780, Tempo, 385852
1, 417800, Tempo, 384615
1, 417840, Note_on_c, 0, 51, 0
1, 417840, Note_on_c, 0, 69, 0
1, 417840, Note_on_c, 0, 72, 55
1, 417840, Note_on_c, 0, 48, 47
1, 417900, Tempo, 385852
1, 417920, Tempo, 387097
1, 417960, Note_on_c, 0, 48, 0
1, 417960, Note_on_c, 0, 72, 0
1, 417960, Note_on_c, 0, 69, 51
1, 417960, Note_on_c, 0, 51, 41
1, 417980, Tempo, 388350
1, 418020, Tempo, 390879
1, 418040, Tempo, 392157
1, 418060, Tempo, 390879
1, 418080, Tempo, 388350
1, 418080, Note_on_c, 0, 51, 0
1, 418080, Note_on_c, 0, 69, 0
1, 418080, Note_on_c, 0, 83, 84
1, 418080, Note_on_c, 0, 38, 68
1, 418100, Tempo, 387097
1, 418140, Tempo, 385852
1, 418170, Note_on_c, 0, 38, 0
1, 418170, Note_on_c, 0, 83, 0
1, 418200, Tempo, 384615
1, 418200, Note_on_c, 0, 71, 51
1, 418200, Note_on_c, 0, 50, 45
1, 418280, Tempo, 385852
1, 418300, Tempo, 387097
1, 418320, Tempo, 389610
1, 418320, Note_on_c, 0, 50, 0
1, 418320, Note_on_c, 0, 71, 0
1, 418320, Note_on_c, 0, 77, 58
1, 418320, Note_on_c, 0, 43, 49
1, 418360, Tempo, 390879
1, 418440, Tempo, 389610
1, 418440, Note_on_c, 0, 43, 0
1, 418440, Note_on_c, 0, 77, 0
1, 418440, Note_on_c, 0, 71, 53
1, 418440, Note_on_c, 0, 50, 43
1, 418480, Tempo, 387097
1, 418520, Tempo, 385852
1, 418540, Tempo, 384615
1, 418560, Note_on_c, 0, 50, 0
1, 418560, Note_on_c, 0, 71, 0
1, 418560, Note_on_c, 0, 84, 85
1, 418560, Note_on_c, 0, 36, 70
1, 418580, Tempo, 385852
1, 418620, Tempo, 387097
1, 418640, Tempo, 388350
1, 418650, Note_on_c, 0, 36, 0
1, 418650, Note_on_c, 0, 84, 0
1, 418680, Note_on_c, 0, 72, 53
1, 418680, Note_on_c, 0, 48, 45
1, 418760, Tempo, 387097
1, 418780, Tempo, 385852
1, 418800, Tempo, 384615
1, 418800, Note_on_c, 0, 48, 0
1, 418800, Note_on_c, 0, 72, 0
1, 418800, Note_on_c, 0, 77, 58
1, 418800, Note_on_c, 0, 43, 51
1, 418920, Tempo, 385852
1, 418920, Note_on_c, 0, 43, 0
1, 418920, Note_on_c, 0, 77, 0
1, 418920, Note_on_c, 0, 72, 54
1, 418920, Note_on_c, 0, 48, 43
1, 418940, Tempo, 387097
1, 418980, Tempo, 389610
1, 419000, Tempo, 390879
1, 419040, Note_on_c, 0, 48, 0
1, 419040, Note_on_c, 0, 72, 0
1, 419040, Note_on_c, 0, 86, 85
1, 419040, Note_on_c, 0, 35, 70
1, 419080, Tempo, 389610
1, 419120, Tempo, 388350
1, 419130, Note_on_c, 0, 35, 0
1, 419130, Note_on_c, 0, 86, 0
1, 419140, Tempo, 387097
1, 419160, Note_on_c, 0, 74, 55
1, 419160, Note_on_c, 0, 47, 47
1, 419180, Tempo, 385852
1, 419200, Tempo, 384615
1, 419220, Tempo, 383387
1, 419240, Tempo, 382166
1, 419280, Tempo, 383387
1, 419280, Note_on_c, 0, 47, 0
1, 419280, Note_on_c, 0, 74, 0
1, 419280, Note_on_c, 0, 77, 63
1, 419280, Note_on_c, 0, 43, 53
1, 419320, Tempo, 385852
1, 419340, Tempo, 387097
1, 419360, Tempo, 389610
1, 419380, Tempo, 390879
1, 419400, Note_on_c, 0, 43, 0
1, 419400, Note_on_c, 0, 77, 0
1, 419400, Note_on_c, 0, 74, 55
1, 419400, Note_on_c, 0, 47, 48
1, 419440, Tempo, 389610
1, 419460, Tempo, 388350
1, 419480, Tempo, 387097
1, 419500, Tempo, 385852
1, 419520, Tempo, 384615
1, 419520, Note_on_c, 0, 47, 0
1, 419520, Note_on_c, 0, 74, 0
1, 419520, Note_on_c, 0, 88, 90
1, 419520, Note_on_c, 0, 34, 72
1, 419560, Tempo, 383387
1, 419580, Tempo, 382166
1, 419600, Tempo, 380952
1, 419610, Note_on_c, 0, 34, 0
1, 419610, Note_on_c, 0, 88, 0
1, 419640, Tempo, 379747
1, 419640, Note_on_c, 0, 76, 57
1, 419640, Note_on_c, 0, 46, 47
1, 419660, Tempo, 380952
1, 419680, Tempo, 382166
1, 419700, Tempo, 383387
1, 419740, Tempo, 385852
1, 419760, Note_on_c, 0, 46, 0
1, 419760, Note_on_c, 0, 76, 0
1, 419760, Note_on_c, 0, 79, 62
1, 419760, Note_on_c, 0, 36, 53
1, 419780, Tempo, 388350
1, 419800, Tempo, 389610
1, 419880, Tempo, 387097
1, 419880, Note_on_c, 0, 36, 0
1, 419880, Note_on_c, 0, 79, 0
1, 419880, Note_on_c, 0, 76, 57
1, 419880, Note_on_c, 0, 46, 50
1, 419900, Tempo, 385852
1, 419920, Tempo, 384615
1, 419960, Tempo, 383387
1, 420000, Note_on_c, 0, 46, 0
1, 420000, Note_on_c, 0, 76, 0
1, 420000, Note_on_c, 0, 89, 89
1, 420000, Note_on_c, 0, 32, 75
1, 420040, Tempo, 385852
1, 420060, Tempo, 387097
1, 420080, Tempo, 388350
1, 420090, Note_on_c, 0, 32, 0
1, 420090, Note_on_c, 0, 89, 0
1, 420100, Tempo, 390879
1, 420120, Tempo, 393443
1, 420120, Note_on_c, 0, 77, 59
1, 420120, Note_on_c, 0, 44, 50
1, 420220, Tempo, 392157
1, 420240, Note_on_c, 0, 44, 0
1, 420240, Note_on_c, 0, 77, 0
1, 420240, Note_on_c, 0, 80, 64
1, 420240, Note_on_c, 0, 36, 55
1, 420260, Tempo, 390879
1, 420280, Tempo, 389610
1, 420320, Tempo, 388350
1, 420360, Tempo, 387097
1, 420360, Note_on_c, 0, 36, 0
1, 420360, Note_on_c, 0, 80, 0
1, 420360, Note_on_c, 0, 77, 59
1, 420360, Note_on_c, 0, 44, 50
1, 420480, Tempo, 406780
1, 420480, Note_on_c, 0, 44, 0
1, 420480, Note_on_c, 0, 77, 0
1, 420480, Note_on_c, 0, 86, 91
1, 420480, Note_on_c, 0, 29, 76
1, 420570, Note_on_c, 0, 29, 0
1, 420570, Note_on_c, 0, 86, 0
1, 420600, Note_on_c, 0, 77, 61
1, 420600, Note_on_c, 0, 41, 56
1, 420720, Note_on_c, 0, 41, 0
1, 420720, Note_on_c, 0, 77, 0
1, 420720, Note_on_c, 0, 80, 67
1, 420720, Note_on_c, 0, 36, 58
1, 420840, Note_on_c, 0, 36, 0
1, 420840, Note_on_c, 0, 80, 0
1, 420840, Note_on_c, 0, 77, 61
1, 420840, Note_on_c, 0, 41, 55
1, 420960, Tempo, 408163
1, 420960, Note_on_c, 0, 41, 0
1, 420960, Note_on_c, 0, 77, 0
1, 420960, Note_on_c, 0, 31, 71
1, 420960, Note_on_c, 0, 43, 84
1, 421038, Control_c, 0, 64, 127
1, 421080, Tempo, 390879
1, 421080, Note_on_c, 0, 75, 78
1, 421200, Note_on_c, 0, 75, 0
1, 421200, Note_on_c, 0, 43, 0
1, 421200, Note_on_c, 0, 31, 0
1, 421200, Note_on_c, 0, 79, 84
1, 421320, Note_on_c, 0, 79, 0
1, 421320, Note_on_c, 0, 75, 78
1, 421440, Note_on_c, 0, 75, 0
1, 421440, Note_on_c, 0, 84, 88
1, 421530, Note_on_c, 0, 84, 0
1, 421560, Note_on_c, 0, 75, 78
1, 421680, Tempo, 408163
1, 421680, Note_on_c, 0, 75, 0
1, 421680, Note_on_c, 0, 79, 84
1, 421800, Note_on_c, 0, 79, 0
1, 421800, Note_on_c, 0, 75, 76
1, 421920, Tempo, 402685
1, 421920, Note_on_c, 0, 75, 0
1, 421920, Note_on_c, 0, 55, 84
1, 421920, Note_on_c, 0, 43, 71
1, 421929, Control_c, 0, 64, 0
1, 421998, Control_c, 0, 64, 127
1, 422040, Tempo, 392157
1, 422040, Note_on_c, 0, 74, 78
1, 422160, Note_on_c, 0, 74, 0
1, 422160, Note_on_c, 0, 43, 0
1, 422160, Note_on_c, 0, 55, 0
1, 422160, Note_on_c, 0, 77, 84
1, 422280, Note_on_c, 0, 77, 0
1, 422280, Note_on_c, 0, 74, 78
1, 422400, Note_on_c, 0, 74, 0
1, 422400, Note_on_c, 0, 83, 88
1, 422490, Note_on_c, 0, 83, 0
1, 422520, Note_on_c, 0, 74, 78
1, 422640, Tempo, 406780
1, 422640, Note_on_c, 0, 74, 0
1, 422640, Note_on_c, 0, 77, 84
1, 422760, Note_on_c, 0, 77, 0
1, 422760, Note_on_c, 0, 74, 76
1, 422880, Tempo, 419580
1, 422880, Note_on_c, 0, 74, 0
1, 422880, Note_on_c, 0, 72, 81
1, 422880, Note_on_c, 0, 48, 84
1, 422880, Control_c, 0, 64, 0
1, 422970, Note_on_c, 0, 72, 0
1, 423120, Tempo, 397351
1, 423120, Note_on_c, 0, 48, 0
1, 423120, Note_on_c, 0, 84, 58
1, 423120, Note_on_c, 0, 60, 34
1, 423120, Note_on_c, 0, 63, 34
1, 423148, Control_c, 0, 64, 127
1, 423348, Note_on_c, 0, 63, 0
1, 423348, Note_on_c, 0, 60, 0
1, 423360, Note_on_c, 0, 60, 34
1, 423360, Note_on_c, 0, 63, 34
1, 423580, Tempo, 398671
1, 423588, Note_on_c, 0, 63, 0
1, 423588, Note_on_c, 0, 60, 0
1, 423600, Note_on_c, 0, 84, 0
1, 423600, Note_on_c, 0, 83, 46
1, 423600, Note_on_c, 0, 60, 34
1, 423600, Note_on_c, 0, 63, 34
1, 423620, Tempo, 400000
1, 423640, Tempo, 401338
1, 423660, Tempo, 402685
1, 423700, Tempo, 404040
1, 423720, Tempo, 405405
1, 423720, Note_on_c, 0, 83, 0
1, 423720, Note_on_c, 0, 84, 48
1, 423740, Tempo, 406780
1, 423780, Tempo, 408163
1, 423800, Tempo, 409556
1, 423820, Tempo, 413793
1, 423828, Note_on_c, 0, 63, 0
1, 423828, Note_on_c, 0, 60, 0
1, 423840, Note_on_c, 0, 84, 0
1, 423840, Note_on_c, 0, 86, 49
1, 423840, Note_on_c, 0, 56, 34
1, 423849, Control_c, 0, 64, 0
1, 423860, Tempo, 412371
1, 423880, Tempo, 410959
1, 423900, Tempo, 409556
1, 423920, Tempo, 408163
1, 423940, Tempo, 406780
1, 423946, Control_c, 0, 64, 127
1, 423960, Tempo, 405405
1, 423960, Note_on_c, 0, 86, 0
1, 423960, Note_on_c, 0, 84, 49
1, 424000, Tempo, 404040
1, 424020, Tempo, 402685
1, 424040, Tempo, 401338
1, 424060, Tempo, 400000
1, 424080, Tempo, 398671
1, 424080, Note_on_c, 0, 84, 0
1, 424080, Note_on_c, 0, 82, 48
1, 424080, Note_on_c, 0, 60, 34
1, 424080, Note_on_c, 0, 63, 34
1, 424100, Tempo, 397351
1, 424200, Note_on_c, 0, 82, 0
1, 424200, Note_on_c, 0, 80, 47
1, 424308, Note_on_c, 0, 63, 0
1, 424308, Note_on_c, 0, 60, 0
1, 424320, Note_on_c, 0, 80, 0
1, 424320, Note_on_c, 0, 79, 45
1, 424320, Note_on_c, 0, 60, 34
1, 424320, Note_on_c, 0, 63, 34
1, 424440, Note_on_c, 0, 79, 0
1, 424440, Note_on_c, 0, 80, 46
1, 424548, Note_on_c, 0, 63, 0
1, 424548, Note_on_c, 0, 60, 0
1, 424560, Tempo, 397351
1, 424560, Note_on_c, 0, 80, 0
1, 424560, Note_on_c, 0, 82, 49
1, 424560, Note_on_c, 0, 60, 34
1, 424560, Note_on_c, 0, 63, 34
1, 424600, Tempo, 398671
1, 424620, Tempo, 400000
1, 424660, Tempo, 401338
1, 424680, Tempo, 402685
1, 424680, Note_on_c, 0, 82, 0
1, 424680, Note_on_c, 0, 80, 47
1, 424720, Tempo, 404040
1, 424740, Tempo, 405405
1, 424780, Tempo, 408163
1, 424788, Note_on_c, 0, 63, 0
1, 424788, Note_on_c, 0, 60, 0
1, 424800, Note_on_c, 0, 56, 0
1, 424800, Note_on_c, 0, 80, 0
1, 424800, Note_on_c, 0, 79, 49
1, 424800, Note_on_c, 0, 53, 34
1, 424809, Control_c, 0, 64, 0
1, 424820, Tempo, 406780
1, 424840, Tempo, 405405
1, 424863, Control_c, 0, 64, 127
1, 424880, Tempo, 404040
1, 424900, Tempo, 402685
1, 424920, Note_on_c, 0, 79, 0
1, 424920, Note_on_c, 0, 77, 47
1, 424940, Tempo, 401338
1, 424960, Tempo, 400000
1, 425000, Tempo, 398671
1, 425020, Tempo, 397351
1, 425040, Tempo, 396040
1, 425040, Note_on_c, 0, 77, 0
1, 425040, Note_on_c, 0, 75, 46
1, 425040, Note_on_c, 0, 62, 34
1, 425040, Note_on_c, 0, 60, 34
1, 425160, Note_on_c, 0, 75, 0
1, 425160, Note_on_c, 0, 74, 45
1, 425268, Note_on_c, 0, 60, 0
1, 425268, Note_on_c, 0, 62, 0
1, 425280, Note_on_c, 0, 74, 0
1, 425280, Note_on_c, 0, 73, 45
1, 425280, Note_on_c, 0, 60, 34
1, 425280, Note_on_c, 0, 62, 34
1, 425400, Note_on_c, 0, 73, 0
1, 425400, Note_on_c, 0, 74, 45
1, 425500, Tempo, 396040
1, 425508, Note_on_c, 0, 62, 0
1, 425508, Note_on_c, 0, 60, 0
1, 425520, Note_on_c, 0, 74, 0
1, 425520, Note_on_c, 0, 75, 47
1, 425520, Note_on_c, 0, 60, 34
1, 425520, Note_on_c, 0, 62, 34
1, 425540, Tempo, 397351
1, 425560, Tempo, 398671
1, 425600, Tempo, 400000
1, 425620, Tempo, 401338
1, 425640, Note_on_c, 0, 75, 0
1, 425640, Note_on_c, 0, 74, 45
1, 425660, Tempo, 402685
1, 425680, Tempo, 404040
1, 425720, Tempo, 405405
1, 425740, Tempo, 406780
1, 425748, Note_on_c, 0, 62, 0
1, 425748, Note_on_c, 0, 60, 0
1, 425760, Tempo, 406780
1, 425760, Note_on_c, 0, 53, 0
1, 425760, Note_on_c, 0, 74, 0
1, 425760, Note_on_c, 0, 72, 46
1, 425760, Note_on_c, 0, 55, 34
1, 425770, Control_c, 0, 64, 0
1, 425800, Tempo, 405405
1, 425840, Tempo, 404040
1, 425857, Control_c, 0, 64, 127
1, 425860, Tempo, 402685
1, 425880, Note_on_c, 0, 72, 0
1, 425880, Note_on_c, 0, 71, 46
1, 425900, Tempo, 401338
1, 425920, Tempo, 400000
1, 425960, Tempo, 398671
1, 425980, Tempo, 397351
1, 426000, Note_on_c, 0, 71, 0
1, 426000, Note_on_c, 0, 68, 45
1, 426000, Note_on_c, 0, 59, 34
1, 426000, Note_on_c, 0, 62, 34
1, 426120, Note_on_c, 0, 68, 0
1, 426120, Note_on_c, 0, 67, 45
1, 426228, Note_on_c, 0, 62, 0
1, 426228, Note_on_c, 0, 59, 0
1, 426240, Note_on_c, 0, 67, 0
1, 426240, Note_on_c, 0, 66, 45
1, 426240, Note_on_c, 0, 59, 34
1, 426240, Note_on_c, 0, 62, 34
1, 426360, Note_on_c, 0, 66, 0
1, 426360, Note_on_c, 0, 67, 42
1, 426468, Note_on_c, 0, 62, 0
1, 426468, Note_on_c, 0, 59, 0
1, 426480, Note_on_c, 0, 67, 0
1, 426480, Note_on_c, 0, 68, 46
1, 426480, Note_on_c, 0, 59, 34
1, 426480, Note_on_c, 0, 62, 34
1, 426600, Note_on_c, 0, 68, 0
1, 426600, Note_on_c, 0, 65, 42
1, 426708, Note_on_c, 0, 62, 0
1, 426708, Note_on_c, 0, 59, 0
1, 426720, Tempo, 419580
1, 426720, Note_on_c, 0, 55, 0
1, 426720, Note_on_c, 0, 65, 0
1, 426720, Note_on_c, 0, 63, 66
1, 426720, Note_on_c, 0, 48, 59
1, 426726, Control_c, 0, 64, 0
1, 426810, Note_on_c, 0, 63, 0
1, 426960, Tempo, 397351
1, 426960, Note_on_c, 0, 72, 68
1, 426960, Note_on_c, 0, 84, 68
1, 426960, Note_on_c, 0, 51, 44
1, 426960, Note_on_c, 0, 60, 44
1, 426988, Control_c, 0, 64, 127
1, 427188, Note_on_c, 0, 60, 0
1, 427188, Note_on_c, 0, 51, 0
1, 427200, Note_on_c, 0, 51, 44
1, 427200, Note_on_c, 0, 60, 44
1, 427420, Tempo, 398671
1, 427428, Note_on_c, 0, 60, 0
1, 427428, Note_on_c, 0, 51, 0
1, 427440, Note_on_c, 0, 84, 0
1, 427440, Note_on_c, 0, 72, 0
1, 427440, Note_on_c, 0, 83, 61
1, 427440, Note_on_c, 0, 51, 44
1, 427440, Note_on_c, 0, 60, 44
1, 427460, Tempo, 400000
1, 427480, Tempo, 401338
1, 427500, Tempo, 402685
1, 427540, Tempo, 404040
1, 427560, Tempo, 405405
1, 427560, Note_on_c, 0, 83, 0
1, 427560, Note_on_c, 0, 84, 64
1, 427580, Tempo, 406780
1, 427620, Tempo, 408163
1, 427640, Tempo, 409556
1, 427660, Tempo, 413793
1, 427668, Note_on_c, 0, 60, 0
1, 427668, Note_on_c, 0, 51, 0
1, 427680, Note_on_c, 0, 48, 0
1, 427680, Note_on_c, 0, 84, 0
1, 427680, Note_on_c, 0, 86, 66
1, 427680, Note_on_c, 0, 44, 45
1, 427686, Control_c, 0, 64, 0
1, 427700, Tempo, 412371
1, 427720, Tempo, 410959
1, 427740, Tempo, 409556
1, 427760, Tempo, 408163
1, 427772, Control_c, 0, 64, 127
1, 427780, Tempo, 406780
1, 427800, Tempo, 405405
1, 427800, Note_on_c, 0, 86, 0
1, 427800, Note_on_c, 0, 84, 66
1, 427840, Tempo, 404040
1, 427860, Tempo, 402685
1, 427880, Tempo, 401338
1, 427900, Tempo, 400000
1, 427920, Tempo, 398671
1, 427920, Note_on_c, 0, 84, 0
1, 427920, Note_on_c, 0, 82, 65
1, 427920, Note_on_c, 0, 51, 46
1, 427920, Note_on_c, 0, 48, 46
1, 427920, Note_on_c, 0, 56, 46
1, 427940, Tempo, 397351
1, 428040, Note_on_c, 0, 82, 0
1, 428040, Note_on_c, 0, 80, 64
1, 428148, Note_on_c, 0, 48, 0
1, 428148, Note_on_c, 0, 56, 0
1, 428148, Note_on_c, 0, 51, 0
1, 428160, Note_on_c, 0, 80, 0
1, 428160, Note_on_c, 0, 79, 62
1, 428160, Note_on_c, 0, 51, 46
1, 428160, Note_on_c, 0, 48, 46
1, 428160, Note_on_c, 0, 56, 46
1, 428280, Note_on_c, 0, 79, 0
1, 428280, Note_on_c, 0, 80, 64
1, 428388, Note_on_c, 0, 48, 0
1, 428388, Note_on_c, 0, 56, 0
1, 428388, Note_on_c, 0, 51, 0
1, 428400, Tempo, 397351
1, 428400, Note_on_c, 0, 80, 0
1, 428400, Note_on_c, 0, 82, 68
1, 428400, Note_on_c, 0, 51, 47
1, 428400, Note_on_c, 0, 48, 47
1, 428400, Note_on_c, 0, 56, 47
1, 428440, Tempo, 398671
1, 428460, Tempo, 400000
1, 428500, Tempo, 401338
1, 428520, Tempo, 402685
1, 428520, Note_on_c, 0, 82, 0
1, 428520, Note_on_c, 0, 80, 66
1, 428560, Tempo, 404040
1, 428580, Tempo, 405405
1, 428620, Tempo, 408163
1, 428628, Note_on_c, 0, 48, 0
1, 428628, Note_on_c, 0, 56, 0
1, 428628, Note_on_c, 0, 51, 0
1, 428640, Note_on_c, 0, 44, 0
1, 428640, Note_on_c, 0, 80, 0
1, 428640, Note_on_c, 0, 79, 69
1, 428640, Note_on_c, 0, 41, 47
1, 428646, Control_c, 0, 64, 0
1, 428660, Tempo, 406780
1, 428680, Tempo, 405405
1, 428703, Control_c, 0, 64, 127
1, 428720, Tempo, 404040
1, 428740, Tempo, 402685
1, 428760, Note_on_c, 0, 79, 0
1, 428760, Note_on_c, 0, 77, 67
1, 428780, Tempo, 401338
1, 428800, Tempo, 400000
1, 428840, Tempo, 398671
1, 428860, Tempo, 397351
1, 428880, Tempo, 396040
1, 428880, Note_on_c, 0, 77, 0
1, 428880, Note_on_c, 0, 75, 66
1, 428880, Note_on_c, 0, 50, 48
1, 428880, Note_on_c, 0, 53, 48
1, 428880, Note_on_c, 0, 48, 48
1, 429000, Note_on_c, 0, 75, 0
1, 429000, Note_on_c, 0, 74, 65
1, 429108, Note_on_c, 0, 53, 0
1, 429108, Note_on_c, 0, 48, 0
1, 429108, Note_on_c, 0, 50, 0
1, 429120, Note_on_c, 0, 74, 0
1, 429120, Note_on_c, 0, 73, 65
1, 429120, Note_on_c, 0, 50, 48
1, 429120, Note_on_c, 0, 48, 48
1, 429120, Note_on_c, 0, 53, 48
1, 429240, Note_on_c, 0, 73, 0
1, 429240, Note_on_c, 0, 74, 64
1, 429340, Tempo, 396040
1, 429348, Note_on_c, 0, 48, 0
1, 429348, Note_on_c, 0, 53, 0
1, 429348, Note_on_c, 0, 50, 0
1, 429360, Note_on_c, 0, 74, 0
1, 429360, Note_on_c, 0, 75, 68
1, 429360, Note_on_c, 0, 50, 49
1, 429360, Note_on_c, 0, 48, 49
1, 429360, Note_on_c, 0, 53, 49
1, 429380, Tempo, 397351
1, 429400, Tempo, 398671
1, 429440, Tempo, 400000
1, 429460, Tempo, 401338
1, 429480, Note_on_c, 0, 75, 0
1, 429480, Note_on_c, 0, 74, 66
1, 429500, Tempo, 402685
1, 429520, Tempo, 404040
1, 429560, Tempo, 405405
1, 429580, Tempo, 406780
1, 429588, Note_on_c, 0, 48, 0
1, 429588, Note_on_c, 0, 53, 0
1, 429588, Note_on_c, 0, 50, 0
1, 429600, Tempo, 406780
1, 429600, Note_on_c, 0, 41, 0
1, 429600, Note_on_c, 0, 74, 0
1, 429600, Note_on_c, 0, 72, 68
1, 429600, Note_on_c, 0, 43, 49
1, 429607, Control_c, 0, 64, 0
1, 429640, Tempo, 405405
1, 429680, Tempo, 404040
1, 429697, Control_c, 0, 64, 127
1, 429700, Tempo, 402685
1, 429720, Note_on_c, 0, 72, 0
1, 429720, Note_on_c, 0, 71, 68
1, 429740, Tempo, 401338
1, 429760, Tempo, 400000
1, 429800, Tempo, 398671
1, 429820, Tempo, 397351
1, 429840, Note_on_c, 0, 71, 0
1, 429840, Note_on_c, 0, 68, 68
1, 429840, Note_on_c, 0, 50, 50
1, 429840, Note_on_c, 0, 47, 50
1, 429840, Note_on_c, 0, 55, 50
1, 429960, Note_on_c, 0, 68, 0
1, 429960, Note_on_c, 0, 67, 68
1, 430068, Note_on_c, 0, 47, 0
1, 430068, Note_on_c, 0, 55, 0
1, 430068, Note_on_c, 0, 50, 0
1, 430080, Note_on_c, 0, 67, 0
1, 430080, Note_on_c, 0, 66, 67
1, 430080, Note_on_c, 0, 50, 50
1, 430080, Note_on_c, 0, 47, 50
1, 430080, Note_on_c, 0, 55, 50
1, 430200, Note_on_c, 0, 66, 0
1, 430200, Note_on_c, 0, 67, 64
1, 430280, Tempo, 396040
1, 430300, Tempo, 397351
1, 430308, Note_on_c, 0, 47, 0
1, 430308, Note_on_c, 0, 55, 0
1, 430308, Note_on_c, 0, 50, 0
1, 430320, Tempo, 398671
1, 430320, Note_on_c, 0, 67, 0
1, 430320, Note_on_c, 0, 68, 70
1, 430320, Note_on_c, 0, 50, 51
1, 430320, Note_on_c, 0, 47, 51
1, 430320, Note_on_c, 0, 55, 51
1, 430340, Tempo, 401338
1, 430360, Tempo, 402685
1, 430380, Tempo, 405405
1, 430400, Tempo, 406780
1, 430420, Tempo, 409556
1, 430440, Tempo, 413793
1, 430440, Note_on_c, 0, 68, 0
1, 430440, Note_on_c, 0, 67, 64
1, 430460, Tempo, 418118
1, 430480, Tempo, 422535
1, 430500, Tempo, 427046
1, 430520, Tempo, 431655
1, 430540, Tempo, 436364
1, 430548, Note_on_c, 0, 47, 0
1, 430548, Note_on_c, 0, 55, 0
1, 430548, Note_on_c, 0, 50, 0
1, 430560, Tempo, 442804
1, 430560, Note_on_c, 0, 43, 0
1, 430560, Note_on_c, 0, 67, 0
1, 430560, Note_on_c, 0, 72, 83
1, 430560, Note_on_c, 0, 36, 67
1, 430566, Control_c, 0, 64, 0
1, 430680, Note_on_c, 0, 72, 0
1, 430680, Note_on_c, 0, 48, 60
1, 430788, Note_on_c, 0, 36, 0
1, 430800, Tempo, 397351
1, 430800, Note_on_c, 0, 48, 0
1, 430800, Note_on_c, 0, 60, 82
1, 430800, Note_on_c, 0, 36, 67
1, 430920, Note_on_c, 0, 48, 59
1, 431028, Note_on_c, 0, 36, 0
1, 431040, Tempo, 404040
1, 431040, Note_on_c, 0, 48, 0
1, 431040, Note_on_c, 0, 36, 67
1, 431160, Note_on_c, 0, 48, 60
1, 431268, Note_on_c, 0, 36, 0
1, 431280, Tempo, 397351
1, 431280, Note_on_c, 0, 48, 0
1, 431280, Note_on_c, 0, 60, 0
1, 431280, Note_on_c, 0, 58, 80
1, 431280, Note_on_c, 0, 64, 80
1, 431280, Note_on_c, 0, 36, 66
1, 431400, Note_on_c, 0, 64, 0
1, 431400, Note_on_c, 0, 58, 0
1, 431400, Note_on_c, 0, 48, 60
1, 431508, Note_on_c, 0, 36, 0
1, 431520, Note_on_c, 0, 48, 0
1, 431520, Note_on_c, 0, 56, 81
1, 431520, Note_on_c, 0, 65, 81
1, 431520, Note_on_c, 0, 36, 66
1, 431640, Note_on_c, 0, 65, 0
1, 431640, Note_on_c, 0, 56, 0
1, 431640, Note_on_c, 0, 48, 59
1, 431748, Note_on_c, 0, 36, 0
1, 431760, Note_on_c, 0, 48, 0
1, 431760, Note_on_c, 0, 64, 82
1, 431760, Note_on_c, 0, 67, 82
1, 431760, Note_on_c, 0, 36, 66
1, 431880, Note_on_c, 0, 67, 0
1, 431880, Note_on_c, 0, 64, 0
1, 431880, Note_on_c, 0, 48, 60
1, 431988, Note_on_c, 0, 36, 0
1, 432000, Note_on_c, 0, 48, 0
1, 432000, Note_on_c, 0, 65, 83
1, 432000, Note_on_c, 0, 68, 83
1, 432000, Note_on_c, 0, 36, 66
1, 432120, Note_on_c, 0, 68, 0
1, 432120, Note_on_c, 0, 65, 0
1, 432120, Note_on_c, 0, 48, 60
1, 432228, Note_on_c, 0, 36, 0
1, 432240, Note_on_c, 0, 48, 0
1, 432240, Note_on_c, 0, 62, 85
1, 432240, Note_on_c, 0, 71, 85
1, 432240, Note_on_c, 0, 36, 66
1, 432360, Note_on_c, 0, 71, 0
1, 432360, Note_on_c, 0, 62, 0
1, 432360, Note_on_c, 0, 48, 61
1, 432468, Note_on_c, 0, 36, 0
1, 432480, Tempo, 418118
1, 432480, Note_on_c, 0, 48, 0
1, 432480, Note_on_c, 0, 63, 83
1, 432480, Note_on_c, 0, 72, 83
1, 432480, Note_on_c, 0, 36, 67
1, 432600, Note_on_c, 0, 72, 0
1, 432600, Note_on_c, 0, 63, 0
1, 432600, Note_on_c, 0, 48, 60
1, 432708, Note_on_c, 0, 36, 0
1, 432720, Tempo, 397351
1, 432720, Note_on_c, 0, 48, 0
1, 432720, Note_on_c, 0, 64, 83
1, 432720, Note_on_c, 0, 72, 82
1, 432720, Note_on_c, 0, 36, 67
1, 432840, Note_on_c, 0, 48, 59
1, 432948, Note_on_c, 0, 36, 0
1, 432960, Tempo, 404040
1, 432960, Note_on_c, 0, 48, 0
1, 432960, Note_on_c, 0, 36, 67
1, 433080, Note_on_c, 0, 48, 60
1, 433188, Note_on_c, 0, 36, 0
1, 433200, Tempo, 397351
1, 433200, Note_on_c, 0, 64, 0
1, 433200, Note_on_c, 0, 72, 0
1, 433200, Note_on_c, 0, 48, 0
1, 433200, Note_on_c, 0, 70, 80
1, 433200, Note_on_c, 0, 76, 80
1, 433200, Note_on_c, 0, 36, 66
1, 433320, Note_on_c, 0, 76, 0
1, 433320, Note_on_c, 0, 70, 0
1, 433320, Note_on_c, 0, 48, 60
1, 433428, Note_on_c, 0, 36, 0
1, 433440, Note_on_c, 0, 48, 0
1, 433440, Note_on_c, 0, 68, 81
1, 433440, Note_on_c, 0, 77, 81
1, 433440, Note_on_c, 0, 36, 66
1, 433560, Note_on_c, 0, 77, 0
1, 433560, Note_on_c, 0, 68, 0
1, 433560, Note_on_c, 0, 48, 59
1, 433668, Note_on_c, 0, 36, 0
1, 433680, Note_on_c, 0, 48, 0
1, 433680, Note_on_c, 0, 76, 82
1, 433680, Note_on_c, 0, 79, 82
1, 433680, Note_on_c, 0, 36, 66
1, 433800, Note_on_c, 0, 79, 0
1, 433800, Note_on_c, 0, 76, 0
1, 433800, Note_on_c, 0, 48, 60
1, 433908, Note_on_c, 0, 36, 0
1, 433920, Note_on_c, 0, 48, 0
1, 433920, Note_on_c, 0, 77, 83
1, 433920, Note_on_c, 0, 80, 83
1, 433920, Note_on_c, 0, 36, 66
1, 434040, Note_on_c, 0, 80, 0
1, 434040, Note_on_c, 0, 77, 0
1, 434040, Note_on_c, 0, 48, 60
1, 434148, Note_on_c, 0, 36, 0
1, 434160, Tempo, 419580
1, 434160, Note_on_c, 0, 48, 0
1, 434160, Note_on_c, 0, 74, 85
1, 434160, Note_on_c, 0, 83, 85
1, 434160, Note_on_c, 0, 36, 66
1, 434280, Note_on_c, 0, 83, 0
1, 434280, Note_on_c, 0, 74, 0
1, 434280, Note_on_c, 0, 48, 61
1, 434388, Note_on_c, 0, 36, 0
1, 434400, Tempo, 400000
1, 434400, Note_on_c, 0, 48, 0
1, 434400, Note_on_c, 0, 72, 94
1, 434400, Note_on_c, 0, 84, 94
1, 434400, Note_on_c, 0, 75, 94
1, 434400, Note_on_c, 0, 36, 66
1, 434520, Note_on_c, 0, 48, 59
1, 434628, Note_on_c, 0, 36, 0
1, 434640, Note_on_c, 0, 48, 0
1, 434640, Note_on_c, 0, 36, 66
1, 434760, Note_on_c, 0, 48, 60
1, 434868, Note_on_c, 0, 36, 0
1, 434880, Note_on_c, 0, 48, 0
1, 434880, Note_on_c, 0, 36, 66
1, 435000, Note_on_c, 0, 48, 60
1, 435108, Note_on_c, 0, 36, 0
1, 435120, Note_on_c, 0, 48, 0
1, 435120, Note_on_c, 0, 36, 66
1, 435240, Note_on_c, 0, 48, 61
1, 435348, Note_on_c, 0, 36, 0
1, 435360, Tempo, 397351
1, 435360, Note_on_c, 0, 72, 0
1, 435360, Note_on_c, 0, 75, 0
1, 435360, Note_on_c, 0, 84, 0
1, 435360, Note_on_c, 0, 48, 0
1, 435360, Note_on_c, 0, 60, 88
1, 435360, Note_on_c, 0, 63, 88
1, 435360, Note_on_c, 0, 72, 88
1, 435360, Note_on_c, 0, 34, 66
1, 435480, Note_on_c, 0, 46, 59
1, 435588, Note_on_c, 0, 34, 0
1, 435600, Note_on_c, 0, 46, 0
1, 435600, Note_on_c, 0, 34, 66
1, 435720, Note_on_c, 0, 46, 60
1, 435828, Note_on_c, 0, 34, 0
1, 435840, Note_on_c, 0, 46, 0
1, 435840, Note_on_c, 0, 34, 66
1, 435960, Note_on_c, 0, 46, 60
1, 436068, Note_on_c, 0, 34, 0
1, 436080, Tempo, 430108
1, 436080, Note_on_c, 0, 46, 0
1, 436080, Note_on_c, 0, 34, 66
1, 436200, Note_on_c, 0, 46, 61
1, 436308, Note_on_c, 0, 34, 0
1, 436320, Tempo, 400000
1, 436320, Note_on_c, 0, 60, 0
1, 436320, Note_on_c, 0, 72, 0
1, 436320, Note_on_c, 0, 63, 0
1, 436320, Note_on_c, 0, 46, 0
1, 436320, Note_on_c, 0, 72, 99
1, 436320, Note_on_c, 0, 84, 99
1, 436320, Note_on_c, 0, 75, 99
1, 436320, Note_on_c, 0, 32, 66
1, 436440, Note_on_c, 0, 44, 59
1, 436548, Note_on_c, 0, 32, 0
1, 436560, Note_on_c, 0, 44, 0
1, 436560, Note_on_c, 0, 32, 66
1, 436680, Note_on_c, 0, 44, 60
1, 436788, Note_on_c, 0, 32, 0
1, 436800, Note_on_c, 0, 44, 0
1, 436800, Note_on_c, 0, 32, 66
1, 436920, Note_on_c, 0, 44, 60
1, 437028, Note_on_c, 0, 32, 0
1, 437040, Note_on_c, 0, 44, 0
1, 437040, Note_on_c, 0, 32, 66
1, 437160, Note_on_c, 0, 44, 61
1, 437268, Note_on_c, 0, 32, 0
1, 437280, Tempo, 410959
1, 437280, Note_on_c, 0, 72, 0
1, 437280, Note_on_c, 0, 75, 0
1, 437280, Note_on_c, 0, 84, 0
1, 437280, Note_on_c, 0, 44, 0
1, 437280, Note_on_c, 0, 60, 92
1, 437280, Note_on_c, 0, 63, 92
1, 437280, Note_on_c, 0, 72, 92
1, 437280, Note_on_c, 0, 31, 66
1, 437400, Note_on_c, 0, 43, 59
1, 437508, Note_on_c, 0, 31, 0
1, 437520, Note_on_c, 0, 43, 0
1, 437520, Note_on_c, 0, 31, 66
1, 437640, Note_on_c, 0, 43, 60
1, 437748, Note_on_c, 0, 31, 0
1, 437760, Note_on_c, 0, 43, 0
1, 437760, Note_on_c, 0, 31, 66
1, 437880, Note_on_c, 0, 43, 60
1, 437988, Note_on_c, 0, 31, 0
1, 438000, Tempo, 458015
1, 438000, Note_on_c, 0, 43, 0
1, 438000, Note_on_c, 0, 31, 66
1, 438120, Note_on_c, 0, 43, 61
1, 438228, Note_on_c, 0, 31, 0
1, 438240, Note_on_c, 0, 60, 0
1, 438240, Note_on_c, 0, 72, 0
1, 438240, Note_on_c, 0, 63, 0
1, 438240, Note_on_c, 0, 43, 0
1, 438240, Note_on_c, 0, 81, 102
1, 438240, Note_on_c, 0, 84, 102
1, 438240, Note_on_c, 0, 75, 102
1, 438240, Note_on_c, 0, 87, 102
1, 438240, Note_on_c, 0, 30, 68
1, 438240, Note_on_c, 0, 42, 81
1, 438241, Tempo, 481928
1, 439200, Note_on_c, 0, 42, 0
1, 439200, Note_on_c, 0, 84, 0
1, 439200, Note_on_c, 0, 75, 0
1, 439200, Note_on_c, 0, 81, 0
1, 439200, Note_on_c, 0, 30, 0
1, 439200, Note_on_c, 0, 87, 0
1, 439200, Note_on_c, 0, 60, 102
1, 439200, Note_on_c, 0, 54, 86
1, 439200, Note_on_c, 0, 57, 102
1, 439200, Note_on_c, 0, 63, 102
1, 439200, Note_on_c, 0, 45, 84
1, 439200, Note_on_c, 0, 48, 84
1, 439200, Note_on_c, 0, 42, 71
1, 439200, Note_on_c, 0, 51, 84
1, 439201, Tempo, 1000000
1, 440160, Time_signature, 4, 1, 48, 8
1, 440160, Tempo, 1500000
1, 440160, Marker_t, "Grave"
1, 440160, Note_on_c, 0, 51, 0
1, 440160, Note_on_c, 0, 60, 0
1, 440160, Note_on_c, 0, 45, 0
1, 440160, Note_on_c, 0, 54, 0
1, 440160, Note_on_c, 0, 57, 0
1, 440160, Note_on_c, 0, 63, 0
1, 440160, Note_on_c, 0, 48, 0
1, 440160, Note_on_c, 0, 42, 0
1, 440160, Control_c, 0, 91, 127
1, 440160, Text_t, "bdca426d104a26ac9dcb070447587523"
1, 441480, Note_on_c, 0, 66, 44
1, 441480, Note_on_c, 0, 69, 44
1, 441480, Note_on_c, 0, 72, 51
1, 441480, Note_on_c, 0, 63, 39
1, 441594, Note_on_c, 0, 63, 0
1, 441594, Note_on_c, 0, 66, 0
1, 441594, Note_on_c, 0, 69, 0
1, 441594, Note_on_c, 0, 72, 0
1, 441600, Note_on_c, 0, 66, 46
1, 441600, Note_on_c, 0, 69, 46
1, 441600, Note_on_c, 0, 74, 55
1, 441600, Note_on_c, 0, 62, 45
1, 441960, Tempo, 1764706
1, 441960, Note_on_c, 0, 62, 0
1, 441960, Note_on_c, 0, 66, 0
1, 441960, Note_on_c, 0, 69, 0
1, 441960, Note_on_c, 0, 74, 0
1, 441960, Note_on_c, 0, 66, 42
1, 441960, Note_on_c, 0, 69, 50
1, 441960, Note_on_c, 0, 75, 50
1, 441960, Note_on_c, 0, 60, 39
1, 442074, Note_on_c, 0, 60, 0
1, 442074, Note_on_c, 0, 66, 0
1, 442074, Note_on_c, 0, 69, 0
1, 442074, Note_on_c, 0, 75, 0
1, 442080, Tempo, 1643836
1, 442080, Note_on_c, 0, 66, 46
1, 442080, Note_on_c, 0, 69, 55
1, 442080, Note_on_c, 0, 75, 55
1, 442080, Note_on_c, 0, 60, 42
1, 443040, Tempo, 1500000
1, 443040, Note_on_c, 0, 60, 0
1, 443040, Note_on_c, 0, 66, 0
1, 443040, Note_on_c, 0, 69, 0
1, 443040, Note_on_c, 0, 75, 0
1, 443040, Note_on_c, 0, 67, 31
1, 443040, Note_on_c, 0, 71, 31
1, 443040, Note_on_c, 0, 74, 39
1, 443040, Note_on_c, 0, 59, 27
1, 443520, Note_on_c, 0, 59, 0
1, 443520, Note_on_c, 0, 67, 0
1, 443520, Note_on_c, 0, 71, 0
1, 443520, Note_on_c, 0, 74, 0
1, 444000, Control_c, 0, 91, 127
1, 444000, Text_t, "bdca426d104a26ac9dcb070447587523"
1, 445320, Note_on_c, 0, 74, 44
1, 445320, Note_on_c, 0, 71, 44
1, 445320, Note_on_c, 0, 77, 52
1, 445320, Note_on_c, 0, 68, 39
1, 445440, Note_on_c, 0, 68, 0
1, 445440, Note_on_c, 0, 74, 0
1, 445440, Note_on_c, 0, 71, 0
1, 445440, Note_on_c, 0, 77, 0
1, 445440, Note_on_c, 0, 71, 46
1, 445440, Note_on_c, 0, 74, 46
1, 445440, Note_on_c, 0, 79, 55
1, 445440, Note_on_c, 0, 67, 45
1, 445800, Tempo, 1739130
1, 445800, Note_on_c, 0, 67, 0
1, 445800, Note_on_c, 0, 71, 0
1, 445800, Note_on_c, 0, 74, 0
1, 445800, Note_on_c, 0, 79, 0
1, 445800, Note_on_c, 0, 74, 51
1, 445800, Note_on_c, 0, 80, 51
1, 445800, Note_on_c, 0, 71, 43
1, 445800, Note_on_c, 0, 65, 39
1, 445914, Note_on_c, 0, 65, 0
1, 445914, Note_on_c, 0, 74, 0
1, 445914, Note_on_c, 0, 80, 0
1, 445914, Note_on_c, 0, 71, 0
1, 445920, Tempo, 1643836
1, 445920, Note_on_c, 0, 80, 55
1, 445920, Note_on_c, 0, 71, 46
1, 445920, Note_on_c, 0, 74, 55
1, 445920, Note_on_c, 0, 65, 38
1, 446880, Tempo, 1500000
1, 446880, Note_on_c, 0, 65, 0
1, 446880, Note_on_c, 0, 80, 0
1, 446880, Note_on_c, 0, 71, 0
1, 446880, Note_on_c, 0, 74, 0
1, 446880, Note_on_c, 0, 72, 32
1, 446880, Note_on_c, 0, 79, 39
1, 446880, Note_on_c, 0, 75, 32
1, 446880, Note_on_c, 0, 63, 27
1, 447360, Note_on_c, 0, 63, 0
1, 447360, Note_on_c, 0, 72, 0
1, 447360, Note_on_c, 0, 79, 0
1, 447360, Note_on_c, 0, 75, 0
1, 447840, Control_c, 0, 91, 127
1, 447840, Text_t, "bdca426d104a26ac9dcb070447587523"
1, 449160, Note_on_c, 0, 70, 55
1, 449160, Note_on_c, 0, 79, 55
1, 449160, Note_on_c, 0, 76, 55
1, 449160, Note_on_c, 0, 82, 66
1, 449160, Note_on_c, 0, 61, 42
1, 449160, Note_on_c, 0, 64, 42
1, 449160, Note_on_c, 0, 67, 50
1, 449280, Tempo, 1538462
1, 449280, Note_on_c, 0, 67, 0
1, 449280, Note_on_c, 0, 61, 0
1, 449280, Note_on_c, 0, 79, 0
1, 449280, Note_on_c, 0, 76, 0
1, 449280, Note_on_c, 0, 70, 0
1, 449280, Note_on_c, 0, 64, 0
1, 449280, Note_on_c, 0, 82, 0
1, 449280, Note_on_c, 0, 72, 61
1, 449280, Note_on_c, 0, 76, 61
1, 449280, Note_on_c, 0, 79, 61
1, 449280, Note_on_c, 0, 84, 72
1, 449280, Note_on_c, 0, 60, 49
1, 449280, Note_on_c, 0, 64, 49
1, 449280, Note_on_c, 0, 67, 58
1, 449640, Tempo, 1967213
1, 449640, Note_on_c, 0, 67, 0
1, 449640, Note_on_c, 0, 60, 0
1, 449640, Note_on_c, 0, 76, 0
1, 449640, Note_on_c, 0, 79, 0
1, 449640, Note_on_c, 0, 72, 0
1, 449640, Note_on_c, 0, 64, 0
1, 449640, Note_on_c, 0, 84, 0
1, 449640, Note_on_c, 0, 73, 64
1, 449640, Note_on_c, 0, 79, 75
1, 449640, Note_on_c, 0, 85, 75
1, 449640, Note_on_c, 0, 76, 64
1, 449640, Note_on_c, 0, 58, 49
1, 449640, Note_on_c, 0, 64, 49
1, 449640, Note_on_c, 0, 67, 58
1, 449754, Note_on_c, 0, 67, 0
1, 449754, Note_on_c, 0, 58, 0
1, 449754, Note_on_c, 0, 79, 0
1, 449754, Note_on_c, 0, 85, 0
1, 449754, Note_on_c, 0, 73, 0
1, 449754, Note_on_c, 0, 64, 0
1, 449754, Note_on_c, 0, 76, 0
1, 449760, Tempo, 1600000
1, 449760, Note_on_c, 0, 73, 72
1, 449760, Note_on_c, 0, 85, 84
1, 449760, Note_on_c, 0, 76, 72
1, 449760, Note_on_c, 0, 79, 72
1, 449760, Note_on_c, 0, 56, 60
1, 449760, Note_on_c, 0, 58, 60
1, 449760, Note_on_c, 0, 64, 60
1, 449760, Note_on_c, 0, 67, 72
1, 449942, Control_c, 0, 64, 127
1, 450720, Note_on_c, 0, 67, 0
1, 450720, Note_on_c, 0, 73, 0
1, 450720, Note_on_c, 0, 79, 0
1, 450720, Note_on_c, 0, 85, 0
1, 450720, Note_on_c, 0, 64, 0
1, 450720, Note_on_c, 0, 76, 0
1, 450720, Note_on_c, 0, 58, 0
1, 450720, Note_on_c, 0, 72, 52
1, 450720, Note_on_c, 0, 84, 62
1, 450720, Note_on_c, 0, 60, 46
1, 450720, Note_on_c, 0, 65, 46
1, 450720, Note_on_c, 0, 68, 55
1, 450732, Control_c, 0, 64, 0
1, 450782, Control_c, 0, 64, 127
1, 451200, Note_on_c, 0, 68, 0
1, 451200, Note_on_c, 0, 72, 0
1, 451200, Note_on_c, 0, 84, 0
1, 451200, Note_on_c, 0, 60, 0
1, 451200, Note_on_c, 0, 65, 0
1, 451200, Note_on_c, 0, 70, 60
1, 451200, Note_on_c, 0, 82, 60
1, 451200, Note_on_c, 0, 55, 44
1, 451200, Note_on_c, 0, 60, 44
1, 451200, Note_on_c, 0, 64, 52
1, 451210, Control_c, 0, 64, 0
1, 451255, Control_c, 0, 64, 127
1, 451680, Note_on_c, 0, 64, 0
1, 451680, Note_on_c, 0, 70, 0
1, 451680, Note_on_c, 0, 82, 0
1, 451680, Note_on_c, 0, 56, 0
1, 451680, Note_on_c, 0, 60, 0
1, 451680, Note_on_c, 0, 55, 0
1, 451680, Note_on_c, 0, 68, 41
1, 451680, Note_on_c, 0, 80, 49
1, 451680, Note_on_c, 0, 53, 35
1, 451680, Note_on_c, 0, 60, 35
1, 451680, Note_on_c, 0, 65, 42
1, 451682, Control_c, 0, 64, 0
1, 451886, Control_c, 0, 64, 127
1, 452160, Note_on_c, 0, 65, 0
1, 452160, Note_on_c, 0, 53, 0
1, 452160, Note_on_c, 0, 68, 0
1, 452160, Note_on_c, 0, 80, 0
1, 452160, Note_on_c, 0, 60, 0
1, 452160, Note_on_c, 0, 67, 40
1, 452160, Note_on_c, 0, 79, 48
1, 452160, Note_on_c, 0, 51, 34
1, 452160, Note_on_c, 0, 55, 34
1, 452160, Note_on_c, 0, 60, 40
1, 452162, Control_c, 0, 64, 0
1, 452435, Control_c, 0, 64, 127
1, 452640, Note_on_c, 0, 60, 0
1, 452640, Note_on_c, 0, 51, 0
1, 452640, Note_on_c, 0, 67, 0
1, 452640, Note_on_c, 0, 79, 0
1, 452640, Note_on_c, 0, 55, 0
1, 452640, Note_on_c, 0, 65, 39
1, 452640, Note_on_c, 0, 77, 46
1, 452640, Note_on_c, 0, 50, 32
1, 452640, Note_on_c, 0, 55, 32
1, 452640, Note_on_c, 0, 59, 38
1, 452650, Control_c, 0, 64, 0
1, 452823, Control_c, 0, 64, 127
1, 453120, Note_on_c, 0, 59, 0
1, 453120, Note_on_c, 0, 50, 0
1, 453120, Note_on_c, 0, 65, 0
1, 453120, Note_on_c, 0, 77, 0
1, 453120, Note_on_c, 0, 55, 0
1, 453120, Note_on_c, 0, 63, 37
1, 453120, Note_on_c, 0, 75, 44
1, 453120, Note_on_c, 0, 48, 30
1, 453120, Note_on_c, 0, 55, 30
1, 453120, Note_on_c, 0, 60, 36
1, 453130, Control_c, 0, 64, 0
1, 453280, Control_c, 0, 64, 127
1, 453560, Tempo, 1690141
1, 453600, Note_on_c, 0, 60, 0
1, 453600, Note_on_c, 0, 48, 0
1, 453600, Note_on_c, 0, 63, 0
1, 453600, Note_on_c, 0, 75, 0
1, 453600, Note_on_c, 0, 55, 0
1, 453600, Note_on_c, 0, 53, 34
1, 453610, Control_c, 0, 64, 0
1, 453720, Tempo, 1714286
1, 453880, Tempo, 1739130
1, 453897, Control_c, 0, 64, 127
1, 454000, Tempo, 1764706
1, 454080, Note_on_c, 0, 53, 0
1, 454080, Note_on_c, 0, 65, 32
1, 454080, Note_on_c, 0, 68, 32
1, 454080, Note_on_c, 0, 74, 38
1, 454160, Tempo, 1791045
1, 454280, Tempo, 1818182
1, 454440, Tempo, 1846154
1, 454560, Tempo, 1875000
1, 454560, Note_on_c, 0, 74, 0
1, 454560, Note_on_c, 0, 68, 0
1, 454560, Note_on_c, 0, 65, 0
1, 454560, Note_on_c, 0, 31, 30
1, 454560, Note_on_c, 0, 43, 36
1, 454572, Control_c, 0, 64, 0
1, 454835, Control_c, 0, 64, 127
1, 455040, Tempo, 3428571
1, 455040, Note_on_c, 0, 43, 0
1, 455040, Note_on_c, 0, 31, 0
1, 455040, Note_on_c, 0, 50, 29
1, 455040, Note_on_c, 0, 53, 29
1, 455040, Note_on_c, 0, 59, 35
1, 455520, Time_signature, 4, 3, 12, 8
1, 455520, Tempo, 410004
1, 455520, Marker_t, "Allegro molto e con brio"
1, 455520, Note_on_c, 0, 59, 0
1, 455520, Note_on_c, 0, 53, 0
1, 455520, Note_on_c, 0, 50, 0
1, 455520, Note_on_c, 0, 60, 50
1, 455520, Note_on_c, 0, 36, 44
1, 455520, Control_c, 0, 64, 0
1, 455580, Tempo, 408469
1, 455640, Tempo, 407000
1, 455640, Note_on_c, 0, 48, 41
1, 455646, Control_c, 0, 64, 127
1, 455700, Tempo, 405488
1, 455748, Note_on_c, 0, 36, 0
1, 455760, Tempo, 403986
1, 455760, Note_on_c, 0, 48, 0
1, 455760, Note_on_c, 0, 36, 44
1, 455820, Tempo, 402522
1, 455880, Tempo, 401070
1, 455880, Note_on_c, 0, 48, 41
1, 455940, Tempo, 399600
1, 455988, Note_on_c, 0, 36, 0
1, 456000, Tempo, 398168
1, 456000, Note_on_c, 0, 48, 0
1, 456000, Note_on_c, 0, 36, 44
1, 456060, Tempo, 396720
1, 456120, Tempo, 395309
1, 456120, Note_on_c, 0, 48, 41
1, 456180, Tempo, 393908
1, 456212, Control_c, 0, 64, 0
1, 456228, Note_on_c, 0, 36, 0
1, 456240, Tempo, 392490
1, 456240, Note_on_c, 0, 48, 0
1, 456240, Note_on_c, 0, 60, 0
1, 456240, Note_on_c, 0, 58, 52
1, 456240, Note_on_c, 0, 64, 52
1, 456240, Note_on_c, 0, 36, 45
1, 456300, Tempo, 391083
1, 456330, Note_on_c, 0, 64, 0
1, 456330, Note_on_c, 0, 58, 0
1, 456360, Tempo, 389737
1, 456360, Note_on_c, 0, 48, 41
1, 456468, Note_on_c, 0, 36, 0
1, 456480, Note_on_c, 0, 48, 0
1, 456480, Note_on_c, 0, 56, 54
1, 456480, Note_on_c, 0, 65, 54
1, 456480, Note_on_c, 0, 36, 45
1, 456570, Note_on_c, 0, 65, 0
1, 456570, Note_on_c, 0, 56, 0
1, 456600, Note_on_c, 0, 48, 46
1, 456708, Note_on_c, 0, 36, 0
1, 456720, Tempo, 384615
1, 456720, Note_on_c, 0, 48, 0
1, 456720, Note_on_c, 0, 64, 56
1, 456720, Note_on_c, 0, 67, 56
1, 456720, Note_on_c, 0, 36, 47
1, 456810, Note_on_c, 0, 67, 0
1, 456810, Note_on_c, 0, 64, 0
1, 456840, Note_on_c, 0, 48, 47
1, 456948, Note_on_c, 0, 36, 0
1, 456960, Note_on_c, 0, 48, 0
1, 456960, Note_on_c, 0, 65, 57
1, 456960, Note_on_c, 0, 68, 57
1, 456960, Note_on_c, 0, 36, 49
1, 457050, Note_on_c, 0, 68, 0
1, 457050, Note_on_c, 0, 65, 0
1, 457080, Note_on_c, 0, 48, 50
1, 457188, Note_on_c, 0, 36, 0
1, 457200, Tempo, 390879
1, 457200, Note_on_c, 0, 48, 0
1, 457200, Note_on_c, 0, 62, 59
1, 457200, Note_on_c, 0, 71, 59
1, 457200, Note_on_c, 0, 36, 51
1, 457290, Note_on_c, 0, 71, 0
1, 457290, Note_on_c, 0, 62, 0
1, 457320, Note_on_c, 0, 48, 53
1, 457428, Note_on_c, 0, 36, 0
1, 457440, Tempo, 414594
1, 457440, Note_on_c, 0, 48, 0
1, 457440, Note_on_c, 0, 63, 61
1, 457440, Note_on_c, 0, 72, 61
1, 457440, Note_on_c, 0, 36, 55
1, 457530, Note_on_c, 0, 72, 0
1, 457530, Note_on_c, 0, 63, 0
1, 457560, Note_on_c, 0, 48, 50
1, 457668, Note_on_c, 0, 36, 0
1, 457680, Tempo, 389737
1, 457680, Note_on_c, 0, 48, 0
1, 457680, Note_on_c, 0, 64, 55
1, 457680, Note_on_c, 0, 72, 55
1, 457680, Note_on_c, 0, 36, 53
1, 457720, Control_c, 0, 64, 127
1, 457800, Note_on_c, 0, 48, 47
1, 457908, Note_on_c, 0, 36, 0
1, 457920, Note_on_c, 0, 48, 0
1, 457920, Note_on_c, 0, 36, 53
1, 458040, Note_on_c, 0, 48, 47
1, 458148, Note_on_c, 0, 36, 0
1, 458160, Note_on_c, 0, 64, 0
1, 458160, Note_on_c, 0, 72, 0
1, 458160, Note_on_c, 0, 48, 0
1, 458160, Note_on_c, 0, 70, 51
1, 458160, Note_on_c, 0, 76, 51
1, 458160, Note_on_c, 0, 36, 44
1, 458172, Control_c, 0, 64, 0
1, 458250, Note_on_c, 0, 76, 0
1, 458250, Note_on_c, 0, 70, 0
1, 458280, Note_on_c, 0, 48, 40
1, 458388, Note_on_c, 0, 36, 0
1, 458400, Note_on_c, 0, 48, 0
1, 458400, Note_on_c, 0, 68, 50
1, 458400, Note_on_c, 0, 77, 50
1, 458400, Note_on_c, 0, 36, 40
1, 458490, Note_on_c, 0, 77, 0
1, 458490, Note_on_c, 0, 68, 0
1, 458520, Note_on_c, 0, 48, 43
1, 458628, Note_on_c, 0, 36, 0
1, 458640, Tempo, 385852
1, 458640, Note_on_c, 0, 48, 0
1, 458640, Note_on_c, 0, 76, 53
1, 458640, Note_on_c, 0, 79, 53
1, 458640, Note_on_c, 0, 36, 44
1, 458730, Note_on_c, 0, 79, 0
1, 458730, Note_on_c, 0, 76, 0
1, 458760, Note_on_c, 0, 48, 46
1, 458868, Note_on_c, 0, 36, 0
1, 458880, Note_on_c, 0, 48, 0
1, 458880, Note_on_c, 0, 77, 57
1, 458880, Note_on_c, 0, 80, 57
1, 458880, Note_on_c, 0, 36, 48
1, 458970, Note_on_c, 0, 80, 0
1, 458970, Note_on_c, 0, 77, 0
1, 459000, Note_on_c, 0, 48, 50
1, 459108, Note_on_c, 0, 36, 0
1, 459120, Note_on_c, 0, 48, 0
1, 459120, Note_on_c, 0, 74, 60
1, 459120, Note_on_c, 0, 83, 60
1, 459120, Note_on_c, 0, 36, 52
1, 459210, Note_on_c, 0, 83, 0
1, 459210, Note_on_c, 0, 74, 0
1, 459240, Note_on_c, 0, 48, 54
1, 459348, Note_on_c, 0, 36, 0
1, 459360, Tempo, 396720
1, 459360, Note_on_c, 0, 48, 0
1, 459360, Note_on_c, 0, 75, 58
1, 459360, Note_on_c, 0, 84, 70
1, 459360, Note_on_c, 0, 36, 63
1, 459438, Control_c, 0, 64, 127
1, 459480, Note_on_c, 0, 48, 57
1, 459588, Note_on_c, 0, 36, 0
1, 459600, Tempo, 392516
1, 459600, Note_on_c, 0, 48, 0
1, 459600, Note_on_c, 0, 36, 62
1, 459720, Note_on_c, 0, 48, 56
1, 459828, Note_on_c, 0, 36, 0
1, 459840, Note_on_c, 0, 75, 0
1, 459840, Note_on_c, 0, 84, 0
1, 459840, Note_on_c, 0, 48, 0
1, 459840, Note_on_c, 0, 72, 64
1, 459840, Note_on_c, 0, 75, 75
1, 459840, Note_on_c, 0, 84, 75
1, 459840, Note_on_c, 0, 34, 66
1, 459854, Control_c, 0, 64, 0
1, 459939, Control_c, 0, 64, 127
1, 459960, Note_on_c, 0, 46, 61
1, 460068, Note_on_c, 0, 34, 0
1, 460080, Tempo, 403986
1, 460080, Note_on_c, 0, 46, 0
1, 460080, Note_on_c, 0, 34, 68
1, 460200, Note_on_c, 0, 46, 64
1, 460308, Note_on_c, 0, 34, 0
1, 460320, Tempo, 395205
1, 460320, Note_on_c, 0, 72, 0
1, 460320, Note_on_c, 0, 84, 0
1, 460320, Note_on_c, 0, 75, 0
1, 460320, Note_on_c, 0, 46, 0
1, 460320, Note_on_c, 0, 72, 72
1, 460320, Note_on_c, 0, 75, 72
1, 460320, Note_on_c, 0, 84, 86
1, 460320, Note_on_c, 0, 32, 70
1, 460323, Control_c, 0, 64, 0
1, 460398, Control_c, 0, 64, 127
1, 460440, Note_on_c, 0, 44, 72
1, 460548, Note_on_c, 0, 32, 0
1, 460560, Note_on_c, 0, 44, 0
1, 460560, Note_on_c, 0, 32, 73
1, 460680, Note_on_c, 0, 44, 74
1, 460788, Note_on_c, 0, 32, 0
1, 460800, Note_on_c, 0, 72, 0
1, 460800, Note_on_c, 0, 84, 0
1, 460800, Note_on_c, 0, 75, 0
1, 460800, Note_on_c, 0, 44, 0
1, 460800, Note_on_c, 0, 72, 81
1, 460800, Note_on_c, 0, 75, 81
1, 460800, Note_on_c, 0, 84, 97
1, 460800, Note_on_c, 0, 31, 75
1, 460814, Control_c, 0, 64, 0
1, 460885, Control_c, 0, 64, 127
1, 460920, Note_on_c, 0, 43, 73
1, 461028, Note_on_c, 0, 31, 0
1, 461040, Tempo, 402037
1, 461040, Note_on_c, 0, 43, 0
1, 461040, Note_on_c, 0, 31, 76
1, 461160, Note_on_c, 0, 43, 78
1, 461268, Note_on_c, 0, 31, 0
1, 461280, Tempo, 409556
1, 461280, Note_on_c, 0, 72, 0
1, 461280, Note_on_c, 0, 84, 0
1, 461280, Note_on_c, 0, 75, 0
1, 461280, Note_on_c, 0, 43, 0
1, 461280, Note_on_c, 0, 75, 99
1, 461280, Note_on_c, 0, 81, 99
1, 461280, Note_on_c, 0, 84, 99
1, 461280, Note_on_c, 0, 87, 103
1, 461280, Note_on_c, 0, 30, 93
1, 461280, Note_on_c, 0, 42, 93
1, 461300, Control_c, 0, 64, 0
1, 461520, Note_on_c, 0, 42, 0
1, 461520, Note_on_c, 0, 81, 0
1, 461520, Note_on_c, 0, 84, 0
1, 461520, Note_on_c, 0, 75, 0
1, 461520, Note_on_c, 0, 30, 0
1, 461520, Note_on_c, 0, 87, 0
1, 462240, Tempo, 404040
1, 462240, Note_on_c, 0, 66, 79
1, 462240, Note_on_c, 0, 69, 79
1, 462240, Note_on_c, 0, 72, 94
1, 462240, Note_on_c, 0, 75, 94
1, 462240, Note_on_c, 0, 57, 79
1, 462240, Note_on_c, 0, 63, 93
1, 462240, Note_on_c, 0, 60, 93
1, 462240, Note_on_c, 0, 54, 79
1, 462252, Control_c, 0, 64, 127
1, 462480, Note_on_c, 0, 54, 0
1, 462480, Note_on_c, 0, 66, 0
1, 462480, Note_on_c, 0, 57, 0
1, 462480, Note_on_c, 0, 69, 0
1, 462480, Note_on_c, 0, 72, 0
1, 462480, Note_on_c, 0, 75, 0
1, 462480, Note_on_c, 0, 63, 0
1, 462480, Note_on_c, 0, 60, 0
1, 462503, Control_c, 0, 64, 0
1, 463200, Tempo, 418118
1, 463200, Note_on_c, 0, 75, 94
1, 463200, Note_on_c, 0, 67, 79
1, 463200, Note_on_c, 0, 72, 79
1, 463200, Note_on_c, 0, 79, 94
1, 463200, Note_on_c, 0, 60, 93
1, 463200, Note_on_c, 0, 55, 79
1, 463200, Note_on_c, 0, 63, 93
1, 463307, Control_c, 0, 64, 127
1, 463440, Note_on_c, 0, 63, 0
1, 463440, Note_on_c, 0, 60, 0
1, 463440, Note_on_c, 0, 67, 0
1, 463440, Note_on_c, 0, 72, 0
1, 463440, Note_on_c, 0, 75, 0
1, 463440, Note_on_c, 0, 55, 0
1, 463440, Note_on_c, 0, 79, 0
1, 463520, Control_c, 0, 64, 0
1, 464160, Tempo, 444444
1, 464160, Note_on_c, 0, 50, 86
1, 464160, Note_on_c, 0, 55, 103
1, 464160, Note_on_c, 0, 59, 103
1, 464160, Note_on_c, 0, 53, 86
1, 464160, Note_on_c, 0, 43, 89
1, 464160, Note_on_c, 0, 38, 74
1, 464160, Note_on_c, 0, 31, 74
1, 464160, Note_on_c, 0, 35, 74
1, 464210, Control_c, 0, 64, 127
1, 464400, Note_on_c, 0, 35, 0
1, 464400, Note_on_c, 0, 50, 0
1, 464400, Note_on_c, 0, 43, 0
1, 464400, Note_on_c, 0, 55, 0
1, 464400, Note_on_c, 0, 59, 0
1, 464400, Note_on_c, 0, 53, 0
1, 464400, Note_on_c, 0, 38, 0
1, 464400, Note_on_c, 0, 31, 0
1, 464466, Control_c, 0, 64, 0
1, 465120, Note_on_c, 0, 55, 103
1, 465120, Note_on_c, 0, 60, 103
1, 465120, Note_on_c, 0, 51, 86
1, 465120, Note_on_c, 0, 48, 89
1, 465120, Note_on_c, 0, 36, 74
1, 465120, Note_on_c, 0, 39, 74
1, 465120, Note_on_c, 0, 43, 74
1, 465240, Control_c, 0, 64, 127
1, 465360, Note_on_c, 0, 43, 0
1, 465360, Note_on_c, 0, 36, 0
1, 465360, Note_on_c, 0, 60, 0
1, 465360, Note_on_c, 0, 51, 0
1, 465360, Note_on_c, 0, 55, 0
1, 465360, Note_on_c, 0, 39, 0
1, 465360, Note_on_c, 0, 48, 0
1, 465627, Control_c, 0, 64, 0
1, 466080, Tempo, 428571
1, 466080, End_track
0, 0, End_of_file
